<svg
   SP-DOCNAME="/home/lauris/src/sodipodi/samples/icons.svg"
   SP-DOCBASE="/home/lauris/src/sodipodi/samples/"
   height="841.889764"
   width="595.275591">
  <rect
     style="stroke-width:1; stroke-linejoin:miter; stroke-linecap:butt; stroke-opacity:100%; stroke:#000000; fill-opacity:100%; fill:#787878; "
     y="429.114173"
     x="161.000000"
     transform="matrix(1.81379 0 0 1.81379 -196.474 -600.213)"
     height="53.000000"
     width="80.500000">
  </rect>
  <path
     style="stroke-width:1; stroke-linejoin:miter; stroke-linecap:butt; stroke-opacity:100%; stroke:#7c2d36; fill-opacity:100%; fill:#c3352d; "
     d="M 377.75 422.864 L 383 425.614 L 364 454.614 L 391.5 479.614 L 388 483.614 L 360.5 462.114 L 336.5 492.614 L 318.25 484.614 L 353.5 456.114 L 328 426.614 L 341.5 417.114 L 358 449.114 L 377.75 422.864 z "
     transform="matrix(1.81379 0 0 1.81379 -472.171 -573.914)"
     SODIPODI-PATH-NODE-TYPES="ccccccccccccc">
  </path>
  <g
     style="stroke-width:1; stroke-linejoin:miter; stroke-linecap:butt; stroke-opacity:100%; stroke:#000000; fill-opacity:100%; fill:#b7b7b7; "
     transform="matrix(1.81379 0 0 1.81379 -443.15 -578.451)">
    <rect
       style="stroke-width:1; stroke-linejoin:miter; stroke-linecap:butt; stroke-opacity:100%; stroke:#000000; fill-opacity:100%; fill:#b7b7b7; "
       y="429.114173"
       x="161.000000"
       height="53.000000"
       width="80.500000">
    </rect>
    <rect
       style="stroke-width:1; stroke-linejoin:miter; stroke-linecap:butt; stroke-opacity:100%; stroke:#000000; fill-opacity:100%; fill:#b7b7b7; "
       y="429.114173"
       x="161.000000"
       transform="matrix(1 0 0 1 13.5 -12)"
       height="53.000000"
       width="80.500000">
    </rect>
  </g>
  <path
     style="fill:#030303; fill-opacity:100%; stroke:none; stroke-opacity:100%; stroke-linecap:butt; stroke-linejoin:miter; stroke-width:1; "
     d="M 183.865 622.785 C 198.981 625.873 200.199 623.448 208.341 617.812 L 202.391 613.114 L 220.867 609.356 L 218.048 627.519 L 212.412 621.883 C 206.462 629.398 198.996 634.78 185.84 633.594 L 183.865 622.785 z "
     transform="matrix(1.78607 -0.315948 0.315948 1.78607 -294.539 -524.831)"
     SODIPODI-PATH-NODE-TYPES="cccccccc">
  </path>
  <path
     style="fill:#030303; fill-opacity:100%; stroke:none; stroke-opacity:100%; stroke-linecap:butt; stroke-linejoin:miter; stroke-width:1; "
     d="M 183.865 622.785 C 198.981 625.873 200.199 623.448 208.341 617.812 L 202.391 613.114 L 220.867 609.356 L 218.048 627.519 L 212.412 621.883 C 206.462 629.398 198.996 634.78 185.84 633.594 L 183.865 622.785 z "
     transform="matrix(-0.689082 1.6778 1.6778 0.689082 -379.655 -246.487)"
     SODIPODI-PATH-NODE-TYPES="cccccccc">
  </path>
  <g
     transform="matrix(1 0 0 1 206.815 81.8643)">
    <rect
       style="stroke-width:1; stroke-linejoin:miter; stroke-linecap:butt; stroke-opacity:100%; stroke:#000000; fill-opacity:73%; fill:#797979; "
       y="429.114173"
       x="161.000000"
       transform="matrix(1.81379 0 0 1.81379 -204.38 -649.008)"
       height="53.000000"
       width="80.500000">
    </rect>
    <rect
       style="stroke-width:1; stroke-linejoin:miter; stroke-linecap:butt; stroke-opacity:100%; stroke:#000000; fill-opacity:73%; fill:#797979; "
       y="429.114173"
       x="161.000000"
       transform="matrix(1.81379 0 0 1.81379 -178.38 -673.008)"
       height="53.000000"
       width="80.500000">
    </rect>
    <rect
       style="stroke-width:1; stroke-linejoin:miter; stroke-linecap:butt; stroke-opacity:100%; stroke:#000000; fill-opacity:100%; fill:#ffffff; "
       y="429.114173"
       x="161.000000"
       transform="matrix(1.81379 0 0 1.81379 -153.891 -694.775)"
       height="53.000000"
       width="80.500000">
    </rect>
    <rect
       style="stroke-width:1; stroke-linejoin:miter; stroke-linecap:butt; stroke-opacity:100%; stroke:#000000; fill-opacity:100%; fill:#ffffff; "
       y="429.114173"
       x="161.000000"
       transform="matrix(1.81379 0 0 1.81379 33.441 -655.916)"
       height="53.000000"
       width="80.500000">
    </rect>
    <rect
       style="stroke-width:1; stroke-linejoin:miter; stroke-linecap:butt; stroke-opacity:100%; stroke:#000000; fill-opacity:73%; fill:#797979; "
       y="429.114173"
       x="161.000000"
       transform="matrix(1.81379 0 0 1.81379 57.925 -677.682)"
       height="53.000000"
       width="80.500000">
    </rect>
    <rect
       style="stroke-width:1; stroke-linejoin:miter; stroke-linecap:butt; stroke-opacity:100%; stroke:#000000; fill-opacity:73%; fill:#797979; "
       y="429.114173"
       x="161.000000"
       transform="matrix(1.81379 0 0 1.81379 85.925 -697.682)"
       height="53.000000"
       width="80.500000">
    </rect>
  </g>
  <rect
     style="stroke-width:1; stroke-linejoin:miter; stroke-linecap:butt; stroke-opacity:100%; stroke:#000000; fill-opacity:73%; fill:#797979; "
     y="429.114173"
     x="161.000000"
     transform="matrix(1.81379 0 0 1.81379 -215.411 -351.299)"
     height="53.000000"
     width="80.500000">
  </rect>
  <rect
     style="stroke-width:1; stroke-linejoin:miter; stroke-linecap:butt; stroke-opacity:100%; stroke:#000000; fill-opacity:100%; fill:#ffffff; "
     y="429.114173"
     x="161.000000"
     transform="matrix(1.81379 0 0 1.81379 -191.565 -373.144)"
     height="53.000000"
     width="80.500000">
  </rect>
  <rect
     style="stroke-width:1; stroke-linejoin:miter; stroke-linecap:butt; stroke-opacity:100%; stroke:#000000; fill-opacity:69%; fill:#a0a0a0; "
     y="429.114173"
     x="161.000000"
     transform="matrix(1.81379 0 0 1.81379 -167.076 -394.911)"
     height="53.000000"
     width="80.500000">
  </rect>
  <rect
     style="stroke-width:1; stroke-linejoin:miter; stroke-linecap:butt; stroke-opacity:100%; stroke:#000000; fill-opacity:100%; fill:#a2a2a2; "
     y="429.114173"
     x="161.000000"
     transform="matrix(1.81379 0 0 1.81379 42.256 -356.052)"
     height="53.000000"
     width="80.500000">
  </rect>
  <rect
     style="stroke-width:1; stroke-linejoin:miter; stroke-linecap:butt; stroke-opacity:100%; stroke:#000000; fill-opacity:100%; fill:#ffffff; "
     y="429.114173"
     x="161.000000"
     transform="matrix(1.81379 0 0 1.81379 66.74 -377.818)"
     height="53.000000"
     width="80.500000">
  </rect>
  <rect
     style="stroke-width:1; stroke-linejoin:miter; stroke-linecap:butt; stroke-opacity:100%; stroke:#000000; fill-opacity:69%; fill:#a0a0a0; "
     y="429.114173"
     x="161.000000"
     transform="matrix(1.81379 0 0 1.81379 94.74 -397.818)"
     height="53.000000"
     width="80.500000">
  </rect>
</svg>
