<?xml version="1.0" standalone="no"?>
<!DOCTYPE svg PUBLIC "-//W3C//DTD SVG August 1999//EN"
"http://www.w3.org/Graphics/SVG/SVG-19990812.dtd">
<svg
   sodipodi:docbase="/home/lauris/cvs/sodipodi/samples/"
   sodipodi:docname="/home/lauris/cvs/sodipodi/samples/manga2.svg"
   id="svg1575"
   xmlns:sodipodi="http://sodipodi.sourceforge.net/DTD/sodipodi-0.dtd"
   style="fill-opacity:100%; fill:none; stroke-width:1px; stroke-linejoin:miter; stroke-linecap:butt; stroke-opacity:100%; stroke:#000000; "
   xmlns="http://www.w3.org/Graphics/SVG/SVG-19991203.dtd">  <sodipodi:namedview
     id="base">
  </sodipodi:namedview>
  <g
     id="g1960"
     style="fill: #ffc9d3">    <path
       id="path1961"
       d="M176.34 528.485C176.34 528.485 161.809 532.778 150.909 534.43C140.01 536.081 130.763 540.704 128.782 542.356C126.8 544.007 120.518 548.333 119.864 557.548C119.583 561.515 121.185 567.127 120.856 571.75C120.525 576.373 121.515 592.886 123.167 596.85C124.818 600.813 130.763 611.382 134.066 615.676C137.368 619.969 146.616 632.85 149.919 637.803C153.221 642.758 154.872 645.069 154.872 647.381C154.872 649.435 154.291 663.319 139.903 685.957C138.27 688.526 136.82 691.882 135.107 694.782C126.631 709.129 125.796 708.953 124.364 709.937C121.432 711.951 119.864 713.102 115.241 714.424C110.617 715.746 129.112 719.709 135.387 726.646C141.662 733.581 149.258 745.47 151.239 754.387C153.221 763.305 153.881 774.863 152.891 775.855C151.9 776.846 158.836 775.524 160.487 775.194C162.139 774.863 172.377 770.9 173.698 770.239C175.019 769.58 178.652 766.607 178.652 766.607C178.652 766.607 176.063 774.868 174.667 776.265C173.272 777.66 172.075 777.46 171.477 778.258C170.879 779.057 170.479 779.654 169.881 780.053C169.283 780.453 168.086 780.651 166.691 781.249C165.294 781.848 165.893 782.247 164.497 782.845C163.102 783.443 154.127 787.232 152.532 787.83C150.936 788.429 144.356 790.821 144.556 791.819C144.755 792.816 144.682 794.224 146.55 794.61C147.423 794.792 146.948 795.01 146.55 795.607C146.151 796.206 147.298 797.188 148.495 797.787C149.691 798.386 151.838 798.434 153.633 798.035C155.427 797.636 158.515 796.406 159.512 796.406C160.509 796.406 156.521 798.2 156.321 798.998C156.122 799.795 156.412 800.47 158.606 801.268C160.799 802.064 162.744 801.5 164.738 801.102C166.732 800.702 171.191 799.639 172.279 798.698C174.103 797.124 178.855 795.01 180.051 794.811C181.248 794.61 186.632 790.024 187.829 789.825C189.024 789.625 191.817 789.026 191.817 789.026C191.817 789.026 189.822 793.215 189.024 794.61C188.228 796.006 185.037 799.795 185.236 800.992C185.435 802.188 186.832 803.983 188.826 803.983C190.819 803.983 192.813 802.787 193.412 801.989C194.01 801.19 196.403 797.802 197.002 797.004C197.6 796.206 201.388 790.224 202.385 789.825C203.382 789.426 206.772 785.836 207.172 784.64C207.57 783.443 208.767 780.652 208.368 778.459C207.97 776.265 209.963 781.448 209.963 783.643C209.963 785.836 209.166 795.209 210.362 796.804C211.559 798.399 213.553 800.594 215.945 800.594C218.339 800.594 219.136 797.801 218.738 795.607C218.339 793.414 217.143 788.03 218.14 787.432C219.136 786.834 222.727 786.235 224.321 788.03C225.916 789.825 230.702 795.408 232.298 797.203C233.894 798.998 242.069 805.18 243.466 804.98C244.861 804.781 247.453 804.183 247.453 803.186C247.453 802.188 245.658 799.596 243.466 798.001C241.271 796.406 236.087 791.22 235.289 790.224C234.491 789.227 234.093 787.033 235.488 787.432C236.885 787.83 245.858 796.605 248.45 798.2C251.042 799.795 254.404 802.29 256.562 800.852C258.637 799.472 258.136 799.111 258.219 798.945C258.619 798.148 254.632 794.811 252.837 793.613C251.042 792.417 243.266 786.436 244.063 785.039C244.861 783.643 247.054 785.438 248.849 786.235C250.644 787.033 257.32 791.569 259.049 792.564C261.263 793.839 266.796 792.018 265.401 790.622C264.004 789.227 259.019 785.039 256.027 783.843C253.037 782.645 248.849 779.853 246.456 778.856C244.063 777.86 243.065 777.66 242.069 776.664C241.072 775.666 241.671 773.473 239.876 773.074C238.081 772.676 239.077 771.08 238.479 769.485C237.881 767.889 237.881 766.692 237.881 766.692C237.881 766.692 243.665 771.278 247.054 772.875C250.444 774.47 258.421 777.86 260.415 778.459C262.408 779.057 255.829 759.115 261.212 747.549C266.597 735.982 281.154 723.619 288.532 721.027C295.91 718.435 298.901 713.648 298.901 713.648C298.901 713.648 284.345 707.267 283.747 706.47C283.148 705.672 278.96 695.701 277.365 693.508C275.769 691.314 275.57 690.316 274.772 689.521C273.976 688.723 266.597 686.329 261.81 690.118C257.025 693.907 248.45 705.273 248.45 705.273C248.45 705.273 254.632 687.126 255.43 681.941C256.228 676.758 259.817 670.575 260.815 668.78C261.81 666.985 264.004 659.807 264.204 657.214C264.403 654.622 265.999 644.652 266.995 640.863C267.993 637.073 275.372 623.314 278.163 620.922C280.954 618.527 289.929 599.583 290.727 594.399C291.524 589.214 291.524 573.062 292.521 570.071C293.518 567.08 299.101 553.519 292.321 545.543C285.541 537.566 281.953 535.772 278.163 534.176C274.374 532.581 266.398 531.783 263.207 531.384C260.016 530.985 249.847 528.592 247.853 527.994C245.858 527.396 238.481 526.2 236.885 525.402C235.289 524.604 223.324 521.015 208.967 521.015C194.608 521.015 181.846 528.194 180.25 528.592C178.655 528.991 176.34 528.485 176.34 528.485z">
    </path>

  </g>
  <g
     id="g1966"
     style="fill: #000000">    <path
       id="path1967"
       d="M159.087 544.379C159.087 544.379 158.32 548.6 162.732 550.134C167.144 551.668 169.83 552.628 169.83 552.628M158.882 544.341C158.875 544.386 158.136 548.756 162.664 550.331L169.76 552.824L169.9 552.432L162.8 549.937C158.614 548.481 159.262 544.581 159.291 544.416L158.882 544.341z">
    </path>

  </g>
  <g
     id="g1968"
     style="fill: #000000">    <path
       id="path1969"
       d="M184.794 557.808C184.794 557.808 195.537 561.836 199.757 562.22C203.978 562.603 205.896 562.028 206.855 563.371C207.815 564.713 208.197 566.057 208.006 567.591M184.721 558.002C185.161 558.167 195.539 562.045 199.739 562.427C201.091 562.55 202.221 562.575 203.129 562.596C205.04 562.638 206.093 562.662 206.685 563.492C207.629 564.811 207.982 566.106 207.8 567.565L208.213 567.617C208.408 566.047 208.031 564.659 207.024 563.25C206.31 562.25 205.117 562.224 203.139 562.18C202.237 562.159 201.114 562.134 199.776 562.013C195.632 561.636 184.974 557.653 184.867 557.613L184.721 558.002z">
    </path>

  </g>
  <g
     id="g1970"
     style="fill: #000000">    <path
       id="path1971"
       d="M213.378 565.864C213.378 565.864 212.993 561.644 217.214 560.877C221.435 560.11 228.917 557.808 231.411 556.656M213.585 565.846L213.585 565.846C213.57 565.681 213.272 561.805 217.251 561.082C221.478 560.313 228.981 558.006 231.498 556.845L231.324 556.468C228.827 557.619 221.377 559.909 217.177 560.672C212.819 561.464 213.166 565.839 213.171 565.883L213.585 565.846z">
    </path>

  </g>
  <g
     id="g1972"
     style="fill: #000000">    <path
       id="path1973"
       d="M258.269 539.391C258.269 539.391 261.338 542.076 259.995 543.227C258.652 544.379 252.321 547.448 251.746 548.023M258.132 539.547L258.132 539.547C258.688 540.035 260.132 541.514 260.127 542.489C260.125 542.727 260.038 542.917 259.859 543.07C259.126 543.699 256.751 544.977 254.842 546.004C253.002 546.994 251.861 547.614 251.6 547.876L251.894 548.17C252.126 547.938 253.606 547.141 255.039 546.37C257.065 545.28 259.362 544.044 260.13 543.386C260.402 543.152 260.54 542.851 260.543 542.491C260.55 541.126 258.493 539.311 258.406 539.234L258.132 539.547z">
    </path>

  </g>
  <g
     id="g1974"
     style="fill: #000000">    <path
       id="path1975"
       d="M206.855 594.449C206.855 594.449 208.39 598.861 208.197 600.204M206.659 594.517L206.659 594.517C206.674 594.561 208.175 598.897 207.992 600.175L208.404 600.233C208.601 598.856 207.115 594.562 207.052 594.38L206.659 594.517z">
    </path>

  </g>
  <g
     id="g1976"
     style="fill: #000000">    <path
       id="path1977"
       d="M156.018 574.306C156.018 574.306 156.785 580.637 157.168 582.555M155.811 574.331C155.819 574.394 156.584 580.692 156.965 582.595L157.373 582.514C156.995 580.626 156.231 574.344 156.224 574.28L155.811 574.331z">
    </path>

  </g>
  <g
     id="g1978"
     style="fill: #000000">    <path
       id="path1979"
       d="M263.448 568.934C263.448 568.934 262.339 578.087 260.016 582.335M263.242 568.909L263.242 568.909C263.231 569 262.11 578.072 259.833 582.235L260.198 582.436C262.514 578.201 263.609 569.334 263.654 568.959L263.242 568.909z">
    </path>

  </g>
  <g
     id="g1980"
     style="fill: #000000">    <path
       id="path1981"
       d="M260.379 573.346C260.379 573.346 261.53 577.759 261.147 579.102M260.178 573.399L260.178 573.399C260.188 573.442 261.31 577.772 260.946 579.044L261.347 579.159C261.741 577.777 260.627 573.477 260.58 573.294L260.178 573.399z">
    </path>

  </g>
  <g
     id="g1982"
     style="fill: #000000">    <path
       id="path1983"
       d="M247.909 657.564C247.909 657.564 247.909 660.25 249.443 659.675C250.978 659.1 253.473 656.797 253.664 654.303M247.701 657.564C247.701 657.633 247.71 659.256 248.481 659.791C248.772 659.991 249.119 660.018 249.517 659.869C251.205 659.236 253.68 656.819 253.871 654.319L253.457 654.287C253.264 656.798 250.733 658.97 249.37 659.479C249.106 659.579 248.893 659.568 248.719 659.448C248.227 659.108 248.118 657.973 248.117 657.564L247.701 657.564z">
    </path>

  </g>
  <g
     id="g1984"
     style="fill: #000000">    <path
       id="path1985"
       d="M169.83 654.303C169.83 654.303 170.406 661.21 171.94 661.977C173.475 662.744 175.201 661.21 175.201 660.059M169.623 654.32C169.683 655.039 170.255 661.367 171.847 662.163C172.555 662.517 173.389 662.455 174.135 661.992C174.897 661.522 175.409 660.744 175.409 660.059L174.994 660.059C174.994 660.588 174.541 661.253 173.916 661.64C173.551 661.865 172.821 662.185 172.033 661.791C170.861 661.205 170.195 656.175 170.037 654.286L169.623 654.32z">
    </path>

  </g>
  <g
     id="g1986"
     style="fill: #000000">    <path
       id="path1987"
       d="M178.271 767.106C178.271 767.106 179.038 765.763 179.23 764.995C179.422 764.227 182.3 756.938 182.3 755.595C182.3 754.252 182.107 748.689 182.107 746.77C182.107 744.853 179.23 735.836 178.079 732.383C176.928 728.93 170.406 711.664 169.638 708.402C168.871 705.141 165.418 692.863 164.65 687.491C163.883 682.121 162.349 671.376 162.349 669.65C162.349 667.924 159.663 661.784 158.128 658.907C156.593 656.029 154.872 647.381 154.872 647.381M178.451 767.208C178.483 767.152 179.235 765.832 179.432 765.045C179.486 764.827 179.787 764.005 180.168 762.965C181.1 760.42 182.507 756.573 182.507 755.595C182.507 754.981 182.467 753.47 182.424 751.87C182.373 749.968 182.315 747.812 182.315 746.77C182.315 744.922 179.674 736.508 178.276 732.317C177.887 731.148 176.873 728.373 175.699 725.159C173.44 718.975 170.346 710.503 169.841 708.354C169.633 707.473 169.239 705.967 168.739 704.06C167.415 699.009 165.415 691.374 164.856 687.462C164.11 682.238 162.557 671.371 162.557 669.65C162.557 667.863 159.808 661.615 158.312 658.81C156.809 655.991 155.093 647.427 155.076 647.341L154.668 647.422C154.739 647.775 156.413 656.133 157.944 659.004C159.595 662.1 162.141 668.065 162.141 669.65C162.141 671.399 163.697 682.288 164.444 687.521C165.007 691.456 167.011 699.104 168.337 704.166C168.835 706.069 169.23 707.573 169.436 708.45C169.947 710.622 172.92 718.762 175.309 725.303C176.481 728.513 177.494 731.285 177.882 732.448C179.272 736.617 181.899 744.976 181.899 746.77C181.899 747.817 181.957 749.977 182.008 751.881C182.051 753.477 182.092 754.985 182.092 755.595C182.092 756.5 180.643 760.457 179.777 762.821C179.377 763.915 179.088 764.704 179.028 764.944C178.846 765.675 178.098 766.989 178.09 767.002L178.451 767.208z">
    </path>

  </g>
  <g
     id="g1988"
     style="fill: #000000">    <path
       id="path1989"
       d="M185.56 754.252C185.56 754.252 187.288 756.17 188.438 756.17C189.589 756.17 190.933 755.595 191.508 756.17M185.406 754.391C185.479 754.472 187.209 756.378 188.438 756.378C188.854 756.378 189.284 756.308 189.698 756.24C190.399 756.125 191.06 756.017 191.361 756.317L191.655 756.023C191.204 755.572 190.44 755.697 189.631 755.83C189.232 755.894 188.821 755.962 188.438 755.962C187.571 755.962 186.179 754.627 185.715 754.112L185.406 754.391z">
    </path>

  </g>
  <g
     id="g1990"
     style="fill: #000000">    <path
       id="path1991"
       d="M228.15 747.346C228.15 747.346 228.342 749.647 226.998 750.607C225.655 751.566 222.394 750.99 221.818 751.375M227.943 747.363L227.943 747.363C227.944 747.385 228.107 749.559 226.877 750.438C226.108 750.987 224.622 750.998 223.429 751.008C222.502 751.014 221.966 751.027 221.703 751.201L221.934 751.548C222.106 751.433 222.779 751.428 223.431 751.423C224.685 751.413 226.243 751.402 227.119 750.776C228.542 749.759 228.365 747.427 228.357 747.329L227.943 747.363z">
    </path>

  </g>
  <g
     id="g1992"
     style="fill: #000000">    <path
       id="path1993"
       d="M208.412 777.98C208.412 777.98 206.92 771.764 208.006 769.023C209.302 765.754 209.992 761.391 209.293 758.562C208.797 756.557 207.047 751.566 205.896 749.648M208.614 777.931L208.614 777.931C208.6 777.87 207.15 771.747 208.199 769.1C209.618 765.519 210.15 761.165 209.495 758.514C209.012 756.559 207.275 751.543 206.074 749.54L205.718 749.755C206.88 751.692 208.625 756.728 209.092 758.612C209.728 761.189 209.203 765.439 207.812 768.947C206.715 771.716 208.148 777.772 208.21 778.028L208.614 777.931z">
    </path>

  </g>
  <g
     id="g1994"
     style="fill: #000000">    <path
       id="path1995"
       d="M158.896 718.762M237.916 766.709C237.916 766.709 230.705 756.101 230.26 753.484C229.984 751.869 229.877 747.154 230.644 745.044C231.411 742.934 236.975 729.121 238.7 726.436C240.427 723.749 246.759 710.32 246.95 709.17C247.141 708.019 248.868 704.182 248.868 704.182M238.088 766.592L238.088 766.592C238.016 766.486 230.897 755.992 230.465 753.45C230.206 751.932 230.078 747.209 230.839 745.114C231.655 742.871 237.182 729.184 238.875 726.548C240.617 723.839 246.966 710.344 247.155 709.204C247.339 708.093 249.041 704.306 249.058 704.268L248.68 704.097C248.608 704.254 246.938 707.972 246.745 709.136C246.558 710.259 240.256 723.631 238.525 726.323C236.816 728.981 231.267 742.722 230.448 744.974C229.679 747.092 229.758 751.776 230.056 753.519C230.503 756.15 237.448 766.392 237.743 766.826L238.088 766.592z">
    </path>

  </g>
  <g
     id="g1996"
     style="fill: #ef2800">    <path
       id="path1997"
       d="M154.675 649.315C154.675 649.315 153.14 658.14 151.989 661.017C150.838 663.894 147.001 672.144 144.891 675.789C142.78 679.434 137.217 689.602 136.45 690.753C135.682 691.903 133.764 691.903 134.915 694.589C135.465 695.873 136.258 692.479 137.792 693.438C138.943 694.158 145.274 694.589 148.919 696.699C152.565 698.811 159.854 703.03 161.965 704.949C164.075 706.868 169.83 712.239 170.405 713.391C170.981 714.541 171.94 715.117 171.94 715.117C171.94 715.117 166.377 697.084 165.801 694.206C165.226 691.328 163.116 678.668 162.924 676.557C162.732 674.445 162.157 667.539 161.197 665.621C160.238 663.704 157.744 657.756 157.168 656.221C156.593 654.687 154.867 647.972 154.867 647.972L154.675 649.315z">
    </path>

  </g>
  <g
     id="g2002"
     style="fill: #000000">    <path
       id="path2003"
       d="M136.45 690.753C136.45 690.753 138.368 690.178 139.903 690.753M136.51 690.952L136.51 690.952C136.528 690.946 138.381 690.404 139.83 690.948L139.976 690.559C138.394 689.965 136.471 690.529 136.39 690.554L136.51 690.952z">
    </path>

  </g>
  <g
     id="g2004"
     style="fill: #ef2800">    <path
       id="path2005"
       d="M263.707 659.1C263.707 659.1 266.754 673.928 267.974 676.365C269.191 678.802 272.644 686.318 273.66 687.131C274.677 687.942 275.896 687.942 276.098 689.365C276.301 690.786 276.098 691.396 276.098 691.396C276.098 691.396 275.083 689.975 273.255 690.583C272.217 690.93 263.911 693.833 261.066 695.864C258.223 697.897 251.928 702.162 250.708 703.583C249.488 705.006 247.863 706.021 247.863 706.021C247.863 706.021 253.348 690.583 253.754 687.942C254.16 685.302 256.598 676.772 257.411 675.552C258.223 674.334 261.472 667.427 261.879 666.005C262.286 664.583 263.707 659.1 263.707 659.1z">
    </path>

  </g>
  <g
     id="g2010"
     style="fill: #000000">    <path
       id="path2011"
       d="M273.66 687.131C273.66 687.131 271.426 686.927 269.801 687.739M273.679 686.924C273.585 686.915 271.366 686.724 269.707 687.554L269.894 687.926C271.444 687.149 273.619 687.336 273.642 687.338L273.679 686.924z">
    </path>

  </g>
  <g
     id="g2012"
     style="fill: #000000">    <path
       id="path2013"
       d="M238.723 772.647C238.723 772.647 237.098 772.85 236.691 773.661M238.697 772.439C238.626 772.449 236.956 772.667 236.506 773.569L236.878 773.754C237.169 773.172 238.327 772.905 238.749 772.852L238.697 772.439z">
    </path>

  </g>
  <g
     id="g2014"
     style="fill: #000000">    <path
       id="path2015"
       d="M241.363 776.099C241.363 776.099 239.739 776.708 239.129 776.708M241.29 775.904L241.29 775.904C240.849 776.07 239.599 776.5 239.129 776.5L239.129 776.916C239.769 776.916 241.368 776.319 241.437 776.294L241.29 775.904z">
    </path>

  </g>
  <g
     id="g2016"
     style="fill: #000000">    <path
       id="path2017"
       d="M211.91 781.38C211.91 781.38 214.754 781.583 215.566 782.397C216.379 783.209 217.191 783.006 217.801 782.397C218.411 781.786 219.224 781.786 219.224 781.786M211.896 781.587L211.896 781.587C212.665 781.643 214.799 781.922 215.42 782.543C215.846 782.969 216.3 783.169 216.773 783.137C217.181 783.109 217.586 782.905 217.947 782.543C218.487 782.005 219.217 781.994 219.225 781.994L219.224 781.578C219.187 781.578 218.317 781.586 217.653 782.249C217.364 782.538 217.051 782.702 216.746 782.722C216.397 782.745 216.051 782.586 215.714 782.249C214.856 781.392 212.045 781.182 211.926 781.173L211.896 781.587z">
    </path>

  </g>
  <g
     id="g2018"
     style="fill: #000000">    <path
       id="path2019"
       d="M211.91 783.412C211.91 783.412 214.957 783.614 215.566 784.427M211.897 783.619L211.897 783.619C212.718 783.674 214.947 783.947 215.4 784.552L215.733 784.302C215.085 783.438 212.246 783.226 211.924 783.204L211.897 783.619z">
    </path>

  </g>
  <g
     id="g2020"
     style="fill: #aa0000">    <path
       id="path2021"
       d="M212.805 797.372C212.805 797.372 212.113 794.38 213.738 794.177C215.363 793.974 216.785 794.583 216.785 795.397C216.785 796.209 217.394 798.24 217.191 798.849C216.988 799.458 216.533 799.278 216.533 799.278L214.959 799.112L213.302 798.863L212.805 797.372z">
    </path>

  </g>
  <g
     id="g2026"
     style="fill: #aa0000">    <path
       id="path2027"
       d="M242.805 797.621C242.805 797.621 238.926 798.037 239.333 798.647C239.739 799.255 242.177 801.692 242.785 802.099C243.394 802.505 244.816 802.708 245.629 802.505C246.441 802.303 246.644 801.287 246.644 801.287L243.55 798.117L242.805 797.621z">
    </path>

  </g>
  <g
     id="g2032"
     style="fill: #aa0000">    <path
       id="path2033"
       d="M253.754 794.38C253.754 794.38 250.91 794.584 251.519 795.6C252.129 796.614 253.512 798.184 253.957 798.647C254.406 799.112 256.562 799.443 256.562 799.443L257.722 798.531C257.722 798.531 257.207 797.02 256.598 796.614C255.988 796.209 253.754 794.38 253.754 794.38z">
    </path>

  </g>
  <g
     id="g2038"
     style="fill: #aa0000">    <path
       id="path2039"
       d="M259.646 786.053C259.646 786.053 257.005 786.458 257.817 787.678C258.629 788.895 260.66 790.522 261.879 790.928C263.099 791.333 265.015 790.244 265.015 790.244L263.301 788.692L259.646 786.053z">
    </path>

  </g>
  <g
     id="g2044"
     style="fill: #000000">    <path
       id="path2045"
       d="M234.051 784.427C234.051 784.427 233.305 787.457 234.319 788.675M233.849 784.377C233.817 784.505 233.09 787.524 234.16 788.809L234.479 788.542C233.543 787.418 234.246 784.506 234.253 784.477L233.849 784.377z">
    </path>

  </g>
  <g
     id="g2046"
     style="fill: #000000">    <path
       id="path2047"
       d="M243.192 782.193C243.192 782.193 242.785 784.833 243.801 785.647M242.986 782.162C242.97 782.274 242.574 784.931 243.671 785.809L243.931 785.483C243.176 784.879 243.289 782.927 243.397 782.225L242.986 782.162z">
    </path>

  </g>
  <g
     id="g2048"
     style="fill: #000000">    <path
       id="path2049"
       d="M194.036 785.24C194.036 785.24 191.832 788.345 191.817 789.026M193.866 785.12C193.492 785.647 191.625 788.312 191.609 789.022L192.025 789.031C192.035 788.582 193.368 786.541 194.206 785.36L193.866 785.12z">
    </path>

  </g>
  <g
     id="g2050"
     style="fill: #aa0000">    <path
       id="path2051"
       d="M186.926 799.458C186.926 799.458 189.567 796.614 190.583 796.614C191.598 796.614 193.021 796.614 193.223 797.428C193.426 798.24 191.598 801.083 190.786 801.692C189.973 802.303 190.177 800.678 188.957 800.678C187.739 800.678 187.739 800.678 186.926 800.678C186.114 800.678 186.926 799.458 186.926 799.458z">
    </path>

  </g>
  <g
     id="g2056"
     style="fill: #000000">    <path
       id="path2057"
       d="M177.989 783.209C177.989 783.209 178.395 785.85 176.77 786.864C175.145 787.88 172.098 788.895 171.286 789.302C170.473 789.708 166.411 792.959 165.598 793.365C164.786 793.77 159.512 796.406 159.512 796.406M177.783 783.24L177.783 783.24C177.787 783.266 178.148 785.758 176.66 786.688C175.578 787.364 173.845 788.045 172.581 788.542C171.957 788.787 171.465 788.981 171.192 789.116C170.77 789.327 169.579 790.221 168.318 791.166C167.127 792.06 165.894 792.984 165.505 793.179L159.419 796.22L159.605 796.592L165.691 793.551C166.114 793.34 167.306 792.445 168.568 791.499C169.758 790.606 170.989 789.683 171.378 789.488C171.634 789.36 172.143 789.161 172.732 788.929C174.013 788.426 175.766 787.737 176.88 787.041C178.602 785.966 178.211 783.291 178.194 783.177L177.783 783.24z">
    </path>

  </g>
  <g
     id="g2058"
     style="fill: #aa0000">    <path
       id="path2059"
       d="M160.519 796.006C160.519 796.006 162.145 795.599 162.957 796.209C163.77 796.816 163.973 797.63 163.16 798.24C162.348 798.849 161.129 799.052 160.317 799.457C159.504 799.864 158.937 799.858 158.937 799.858L156.534 798.781L158.285 797.224L160.519 796.006z">
    </path>

  </g>
  <g
     id="g2064"
     style="fill: #000000">    <path
       id="path2065"
       d="M147.003 794.969C147.003 794.969 153.614 791.738 154.629 791.131C155.644 790.522 158.692 789.912 159.911 789.505C161.129 789.098 166.613 786.458 167.223 786.052C167.833 785.647 168.848 784.833 169.457 784.833C170.067 784.833 170.473 783.209 170.473 782.192M147.095 795.156C147.365 795.023 153.725 791.915 154.736 791.309C155.381 790.922 156.965 790.513 158.238 790.184C158.915 790.009 159.555 789.843 159.977 789.702C161.227 789.285 166.756 786.612 167.338 786.225C167.456 786.147 167.587 786.054 167.726 785.956C168.276 785.569 169.029 785.041 169.457 785.041C170.272 785.041 170.681 783.215 170.681 782.192L170.265 782.192C170.265 783.284 169.819 784.625 169.457 784.625C168.897 784.625 168.115 785.174 167.487 785.616C167.35 785.712 167.221 785.803 167.108 785.879C166.535 786.26 161.08 788.895 159.845 789.308C159.438 789.444 158.804 789.607 158.134 789.781C156.767 790.134 155.218 790.534 154.522 790.952C153.526 791.549 146.978 794.75 146.912 794.782L147.095 795.156z">
    </path>

  </g>
  <g
     id="g2066"
     style="fill: #aa0000">    <path
       id="path2067"
       d="M149.572 796.793C149.572 796.793 152.801 796.006 153.208 795.192C153.614 794.38 153.411 793.568 152.801 793.365C152.801 793.365 151.297 793.323 150.734 793.51C150.171 793.698 148.107 794.636 147.544 795.105C146.982 795.574 147.666 795.715 147.666 795.715L149.572 796.793z">
    </path>

  </g>
  <g
     id="g2072"
     style="fill: #aa0000">    <path
       id="path2073"
       d="M146.34 792.731C146.34 792.731 150.078 791.822 150.171 790.977C150.265 790.134 150.358 789.383 149.702 789.383C149.046 789.383 147.451 789.759 146.888 790.04C146.326 790.321 144.38 791.439 144.556 791.819C144.731 792.197 146.34 792.731 146.34 792.731z">
    </path>

  </g>
  <g
     id="g2078"
     style="fill: #000000">    <path
       id="path2079"
       d="M181.312 781.599C181.312 781.599 181.875 782.818 181.687 783.286C181.5 783.755 184.501 781.974 185.44 782.161M181.123 781.686L181.123 781.686C181.341 782.158 181.6 782.943 181.494 783.209C181.43 783.37 181.516 783.472 181.544 783.499C181.714 783.664 181.978 783.561 182.96 783.134C183.75 782.792 184.943 782.273 185.398 782.364L185.48 781.957C184.94 781.85 183.986 782.236 182.795 782.753C182.379 782.933 181.863 783.156 181.744 783.157C181.761 783.157 181.817 783.171 181.857 783.228C181.893 783.281 181.891 783.338 181.88 783.363C182.09 782.839 181.601 781.728 181.501 781.512L181.123 781.686z">
    </path>

  </g>
  <g
     id="g2080"
     style="fill: #000000">    <path
       id="path2081"
       d="M179.436 784.225L177.56 786.007M179.293 784.073L177.417 785.856L177.704 786.158L179.579 784.376L179.293 784.073z">
    </path>

  </g>
  <g
     id="g2082"
     style="fill: #000000">    <path
       id="path2083"
       d="M230.181 779.065C230.181 779.065 233.838 780.849 234.776 780.567C235.715 780.286 237.31 779.347 237.685 779.065M230.09 779.252C230.472 779.438 233.849 781.062 234.836 780.767C235.834 780.467 237.454 779.498 237.81 779.231L237.56 778.898C237.165 779.195 235.603 780.102 234.717 780.368C234.09 780.556 231.658 779.555 230.272 778.879L230.09 779.252z">
    </path>

  </g>
  <g
     id="g2084"
     style="fill: #000000">    <path
       id="path2085"
       d="M135.383 709.262C135.383 709.262 149.541 714.247 152.133 717.039C154.726 719.83 159.911 726.411 160.708 729.203M135.314 709.457L135.314 709.457C135.455 709.508 149.453 714.457 151.981 717.18C154.54 719.936 159.724 726.513 160.508 729.26L160.908 729.147C160.094 726.296 154.942 719.758 152.286 716.898C149.688 714.1 136.032 709.269 135.452 709.065L135.314 709.457z">
    </path>

  </g>
  <g
     id="g2086"
     style="fill: #000000">    <path
       id="path2087"
       d="M158.714 724.816C158.714 724.816 162.304 726.81 163.102 728.405M158.613 724.998L158.613 724.998C158.648 725.018 162.156 726.978 162.916 728.498L163.288 728.312C162.47 726.679 158.963 724.717 158.815 724.634L158.613 724.998z">
    </path>

  </g>
  <g
     id="g2088"
     style="fill: #000000">    <path
       id="path2089"
       d="M276.368 706.669C276.368 706.669 254.83 714.845 250.444 722.024M276.294 706.475C275.412 706.81 254.64 714.758 250.268 721.916L250.621 722.132C254.921 715.096 276.227 706.945 276.441 706.863L276.294 706.475z">
    </path>

  </g>
  <g
     id="g2090"
     style="fill: #ef2800">    <path
       id="path2091"
       d="M195.089 516.535C195.089 516.535 199.975 517.059 201.022 518.106C202.07 519.152 206.211 521.281 207.258 521.806C208.306 522.329 218.452 526.572 224.192 526.354C228.658 526.186 227.693 525.3 227.693 525.3L227.378 523.865C227.378 523.865 231.043 524.738 231.741 524.563C232.44 524.389 233.736 526.306 233.039 527.703C232.341 529.099 230.325 529.093 230.849 530.315C231.372 531.536 231.393 533.465 230.868 534.512C230.345 535.56 228.425 536.955 226.505 537.479C224.585 538.003 221.443 538.701 214.113 537.305C206.782 535.909 205.735 535.56 202.593 533.639C199.452 531.719 194.914 528.229 193.518 527.53C192.122 526.832 191.598 524.913 191.772 523.517C191.947 522.12 192.296 519.502 192.994 518.629C193.692 517.757 195.089 516.535 195.089 516.535z">
    </path>

  </g>
  <g
     id="g2096"
     style="fill: #000000">    <path
       id="path2097"
       d="M230.259 529.725C230.259 529.725 227.552 532.417 224.41 532.941C221.269 533.465 219.173 533.64 216.382 532.767C213.59 531.894 212.193 531.719 212.193 531.719M230.111 529.577L230.112 529.577C230.086 529.603 227.414 532.229 224.376 532.736C221.108 533.281 219.088 533.395 216.444 532.568C213.666 531.7 212.277 531.52 212.219 531.513L212.167 531.925L212.167 531.925C212.182 531.927 213.583 532.11 216.32 532.965C219.044 533.817 221.11 533.703 224.444 533.146C227.615 532.618 230.293 529.984 230.405 529.872L230.111 529.577z">
    </path>

  </g>
  <g
     id="g2098"
     style="fill: #000000">    <path
       id="path2099"
       d="M221.918 533.432C221.918 533.432 220.397 534.512 218.651 534.687M221.798 533.262L221.798 533.262C221.783 533.273 220.298 534.312 218.63 534.48L218.672 534.894C220.451 534.715 221.974 533.647 222.038 533.602L221.798 533.262z">
    </path>

  </g>
  <g
     id="g2100"
     style="fill: #e55400">    <path
       id="path2101"
       d="M78.133 734.165C78.133 734.165 64.66 749.14 62.544 751.093C58.863 754.491 53.283 761.941 51.784 763.834C46.405 770.63 44.422 783.371 45.838 790.733C46.559 794.481 48.674 803.46 50.013 806.809C51.352 810.154 55.705 818.858 62.065 820.868C68.425 822.876 72.107 823.546 76.125 823.546C80.142 823.546 86.837 819.863 92.528 819.863C98.219 819.863 104.914 817.855 108.262 815.846C111.609 813.837 122.991 802.121 125.669 798.773C128.347 795.427 137.051 783.04 139.394 781.701C141.738 780.361 144.172 777.99 145.755 778.019C147.337 778.047 142.073 774.001 142.073 774.001L133.034 778.353L130.356 755.589L111.944 735.838L90.185 731.487L78.133 734.165z">
    </path>

  </g>
  <g
     id="g2106"
     style="fill: #000000">    <path
       id="path2107"
       d="M130.075 782.345C130.075 782.345 116.296 792.078 113.953 794.756C111.609 797.435 107.258 803.46 106.253 804.464C105.249 805.469 102.236 808.816 99.223 809.486M129.956 782.176C129.392 782.573 116.129 791.953 113.796 794.619C112.557 796.035 110.77 798.368 109.194 800.427C107.787 802.265 106.572 803.852 106.106 804.317L105.767 804.662C104.594 805.867 101.846 808.69 99.178 809.283L99.268 809.689C102.057 809.068 104.765 806.288 106.065 804.952L106.4 804.611C106.885 804.126 108.108 802.529 109.524 800.68C111.097 798.627 112.879 796.299 114.109 794.894C116.41 792.265 130.058 782.612 130.195 782.515L129.956 782.176z">
    </path>

  </g>
  <g
     id="g2108"
     style="fill: #000000">    <path
       id="path2109"
       d="M104.245 806.138C104.245 806.138 103.91 809.15 102.571 810.49M104.038 806.115L104.038 806.115C104.035 806.144 103.695 809.071 102.423 810.343L102.718 810.637C104.092 809.262 104.437 806.287 104.451 806.161L104.038 806.115z">
    </path>

  </g>
  <g
     id="g2110"
     style="fill: #910000">    <path
       id="path2111"
       d="M112.528 714.308C112.528 714.308 114.061 714.121 118.22 714.778C122.38 715.435 129.823 718.499 131.794 719.812C133.764 721.127 143.178 729.008 144.929 731.197C146.681 733.387 153.905 745.208 154.781 747.835C155.656 750.463 158.284 761.409 158.284 764.475C158.284 767.539 156.97 774.762 156.313 775.857C155.656 776.952 154.561 777.609 153.467 777.828C152.373 778.047 148.651 778.047 147.337 778.047C146.024 778.047 142.302 779.142 140.989 779.36C139.675 779.579 137.266 779.797 135.078 780.674C132.888 781.55 133.209 781.645 132.197 782.352C131.441 782.881 129.706 784.014 129.932 782.504C130.447 779.062 129.385 768.414 127.415 764.692C125.445 760.971 122.284 753.304 119.738 750.527C116.624 747.13 111.811 743.732 108.413 741.467C105.398 739.457 95.233 736.014 89.98 735.138C84.725 734.263 83.166 732.944 79.01 734.284C77.033 734.921 77.267 731.066 81.441 730.321C82.752 730.088 84.631 728.426 86.652 727.044C89.2 725.302 95.026 721.401 99.155 719.268C101.8 717.9 107.055 716.091 107.712 715.654C108.369 715.215 107.598 715.553 109.579 714.039C110.356 713.445 112.528 714.308 112.528 714.308z">
    </path>

  </g>
  <g
     id="g2116"
     style="fill: #e55400">    <path
       id="path2117"
       d="M327.728 727.92C327.728 727.92 344.761 737.065 350.218 741.466C358.994 748.545 366.829 756.381 369.51 760.914C372.19 765.449 378.637 778.642 378.637 786.269C378.637 793.895 378.477 800.278 375.277 804.607C372.078 808.937 367.749 814.503 363.832 816.15C359.915 817.8 354.556 820.273 347.135 818.418C339.714 816.562 335.18 814.707 332.087 814.089C328.995 813.471 317.04 811.616 313.536 810.173C310.031 808.73 302.198 805.226 297.045 802.134C291.892 799.042 287.15 792.033 285.089 789.972C283.027 787.911 278.492 783.581 277.255 780.902C276.019 778.223 278.699 761.938 282.409 749.981C286.119 738.025 297.25 724.628 303.022 724.42C308.794 724.214 317.658 724.421 320.131 724.833C322.604 725.246 327.728 727.92 327.728 727.92z">
    </path>

  </g>
  <g
     id="g2122"
     style="fill: #000000">    <path
       id="path2123"
       d="M289.329 784.839C289.329 784.839 297.652 786.401 298.81 786.722C302.937 787.86 310.03 792.651 312.504 793.888C314.978 795.125 319.719 797.806 321.574 799.66C323.43 801.515 326.315 805.845 332.912 807.287M289.291 785.043L289.291 785.043C289.374 785.059 297.618 786.607 298.756 786.922C301.623 787.713 305.974 790.308 309.15 792.202C310.501 793.007 311.666 793.702 312.412 794.074C315.051 795.394 319.629 798.01 321.427 799.807C321.719 800.099 322.032 800.446 322.394 800.852C324.33 803.006 327.255 806.264 332.867 807.49L332.956 807.084C327.475 805.886 324.603 802.688 322.703 800.572C322.337 800.165 322.021 799.812 321.721 799.513C319.889 797.681 315.26 795.034 312.597 793.702C311.866 793.336 310.706 792.645 309.364 791.845C306.166 789.938 301.788 787.327 298.866 786.52C297.713 786.202 289.708 784.698 289.368 784.634L289.291 785.043z">
    </path>

  </g>
  <g
     id="g2124"
     style="fill: #000000">    <path
       id="path2125"
       d="M327.321 805.065C327.321 805.065 328.376 807.08 329.407 807.699M327.137 805.162C327.182 805.246 328.231 807.236 329.3 807.877L329.515 807.522C328.546 806.939 327.516 804.988 327.506 804.969L327.137 805.162z">
    </path>

  </g>
  <g
     id="g2126"
     style="fill: #910000">    <path
       id="path2127"
       d="M297.804 712.939C297.804 712.939 295.112 713.449 293.318 714.047C291.524 714.646 284.994 715.539 277.013 720.922C269.938 725.694 265.875 729.647 263.007 733.39C261.376 735.521 256.824 742.763 255.231 747.149C253.635 751.537 252.732 759.564 252.932 762.556C253.131 765.547 254.233 770.881 255.031 772.676C255.829 774.47 258.222 776.663 258.819 777.66C259.417 778.657 261.004 780.496 262.001 780.695C262.998 780.897 264.204 779.855 265.999 780.453C267.793 781.051 272.58 781.449 275.172 782.247C277.764 783.045 282.151 784.042 283.747 785.039C285.342 786.035 286.737 786.035 287.735 786.035C288.731 786.035 289.329 784.839 289.329 784.839C289.329 784.839 287.935 784.641 287.335 784.44C286.737 784.24 284.944 782.048 284.743 780.453C284.544 778.856 281.153 769.485 286.339 756.921C291.524 744.358 297.069 738.719 302.292 734.188C308.384 728.904 316.877 726.865 319.84 726.411C324.162 725.748 326.906 727.922 327.728 727.92C328.638 727.915 328.331 725.058 325.09 724.634C322.438 724.288 320.842 723.816 317.852 722.221C314.859 720.626 305.72 716.338 305.042 716.096C302.444 715.167 303.591 714.963 301.887 713.497C300.183 712.032 297.804 712.939 297.804 712.939z">
    </path>

  </g>
  <g
     id="g2132"
     style="fill: #ef2800">    <path
       id="path2133"
       d="M237.518 522.583C237.518 522.583 245.424 531.41 248.036 537.392C249.921 541.707 254.608 551.714 255.653 557.726C256.51 562.649 259.493 575.18 259.842 577.623C260.19 580.066 260.365 581.462 260.016 582.335C259.667 583.208 254.781 596.822 254.432 599.789C254.082 602.756 249.894 620.385 249.37 621.955C248.846 623.525 243.435 649.009 243.435 650.58C243.435 652.15 243.959 653.722 242.912 656.339C241.864 658.957 237.152 672.746 234.883 676.41C232.614 680.076 227.552 693.166 226.853 695.436C226.156 697.704 222.141 710.969 221.269 714.285C220.397 717.602 218.128 724.234 217.603 726.678C217.08 729.121 216.207 734.531 215.857 735.404C215.51 736.277 211.584 743.95 210.447 745.877C209.505 747.475 207.132 751.637 207.132 752.335C207.132 752.335 201.023 739.943 199.627 736.976C198.231 734.008 194.739 718.899 193.518 713.838C192.296 708.776 188.282 687.931 187.584 683.741C186.885 679.553 182.872 661.75 182.697 659.83C182.522 657.909 181.3 653.198 180.078 650.58C178.856 647.961 174.668 632.077 173.097 626.318C171.526 620.559 165.243 606.596 164.022 603.629C162.799 600.662 157.563 583.383 157.04 581.986C156.516 580.59 160.53 570.641 161.578 569.071C162.625 567.5 168.559 554.933 169.257 552.315C169.955 549.697 173.446 538.526 173.62 536.781C173.795 535.036 178.158 525.959 179.031 524.913C179.904 523.865 187.677 517.881 188.976 517.34C190.998 516.497 194.284 517.003 194.284 517.003C194.284 517.003 191.925 519.868 191.772 522.12C191.678 523.513 191.075 527.356 190.551 528.752C190.027 530.148 186.013 544.287 185.838 546.206C185.664 548.126 185.314 563.486 186.187 568.547C187.06 573.608 188.631 584.604 189.853 587.048C191.074 589.492 195.962 603.629 196.485 606.072C197.008 608.516 199.801 617.068 198.754 621.955C197.707 626.843 198.056 639.584 198.231 644.122C198.405 648.659 201.197 657.037 202.594 659.481C203.99 661.924 209.575 667.686 212.193 666.462C214.812 665.24 219.177 662.098 220.048 655.99C220.92 649.881 220.746 636.441 219.873 631.38C219.001 626.318 218.477 604.676 222.316 595.251C226.157 585.826 227.552 573.434 228.773 568.023C229.995 562.613 232.789 552.315 232.789 548.824C232.789 545.333 232.091 538.875 231.741 537.654C231.393 536.432 229.712 535.673 230.343 535.286C231.857 534.356 230.555 530.803 230.345 530.323C229.753 528.967 232.45 528.882 232.365 525.344C232.348 524.603 232.79 524.738 233.836 524.563C234.883 524.389 236.106 521.772 236.628 521.772C237.152 521.772 237.518 522.583 237.518 522.583z">
    </path>

  </g>
  <g
     id="g2138"
     style="fill: #000000">    <path
       id="path2139"
       d="M193.947 517.425C193.947 517.425 186.617 523.743 184.442 530.323C183.246 533.942 180.427 544.635 180.253 547.602C180.078 550.569 179.38 558.598 179.205 561.391M193.812 517.267C193.737 517.331 186.413 523.699 184.245 530.258C183.004 534.01 180.22 544.62 180.045 547.59C179.953 549.165 179.712 552.16 179.481 555.057C179.274 557.634 179.08 560.067 178.998 561.378L179.413 561.404C179.495 560.097 179.69 557.665 179.896 555.09C180.127 552.191 180.367 549.193 180.46 547.615C180.63 544.731 183.437 534.026 184.64 530.389C186.771 523.939 194.01 517.644 194.082 517.582L193.812 517.267z">
    </path>

  </g>
  <g
     id="g2140"
     style="fill: #000000">    <path
       id="path2141"
       d="M193.273 517.845C193.273 517.845 188.387 519.446 186.536 521.073C185.538 521.95 181.998 526.483 182.173 527.356M193.209 517.648C193.007 517.714 188.26 519.28 186.399 520.917C185.575 521.641 181.754 526.324 181.969 527.397L182.377 527.315C182.239 526.626 185.535 522.229 186.673 521.229C188.471 519.649 193.289 518.059 193.337 518.043L193.209 517.648z">
    </path>

  </g>
  <g
     id="g2142"
     style="fill: #000000">    <path
       id="path2143"
       d="M230.259 530.062C230.259 530.062 234.185 533.291 235.406 535.734C236.628 538.178 238.199 543.414 237.501 546.206M230.126 530.222L230.126 530.222C230.165 530.254 234.032 533.452 235.221 535.827C236.49 538.367 237.962 543.507 237.3 546.156L237.703 546.256C238.456 543.244 236.699 537.856 235.593 535.641C234.364 533.187 230.553 530.034 230.391 529.901L230.126 530.222z">
    </path>

  </g>
  <g
     id="g2144"
     style="fill:#bf0000; stroke-width:1px; stroke-linejoin:miter; stroke-linecap:butt; stroke-opacity:100%; stroke:none; ">    <path
       id="path2145"
       style="stroke-width:1px; stroke-linejoin:miter; stroke-linecap:butt; stroke-opacity:100%; stroke:none; "
       d="M158.005 577.151C158.005 577.151 160.809 598.851 173.731 616.65C176.406 620.334 177.511 625.428 177.511 625.428C177.511 625.428 173.609 623.233 174.155 627.246C174.521 629.93 179.294 643.092 181.864 647.803C184.433 652.514 187.431 663.648 188.716 669.215C190.001 674.783 192.999 694.91 195.996 700.049C198.994 705.188 204.99 707.759 208.844 707.33C212.698 706.901 216.981 705.616 219.55 697.908C222.12 690.2 222.549 681.634 226.831 676.067C231.113 670.5 236.252 659.365 237.537 655.511C238.822 651.657 240.106 637.953 240.106 634.955L243.104 624.677L243.961 622.107C243.961 622.107 249.1 617.397 249.956 610.973C250.813 604.549 251.669 591.701 253.382 588.275C255.096 584.849 257.664 581.852 257.236 580.567C256.809 579.282 258.949 574.571 258.949 574.571L260.234 581.423C260.234 581.423 255.298 594.449 253.225 604.814C252.032 610.777 248.856 623.879 247.526 628.801C246.2 633.705 243.815 646.428 243.418 649.476C243.066 652.161 244.316 653.059 242.357 657.428C240.635 661.272 238.284 669.916 233.369 678.999C230.705 683.921 222.12 710.756 222.12 710.756C222.12 710.756 219.097 720.303 217.497 727.1C216.56 731.076 216.493 734.116 215.789 735.634C213.474 740.632 207.365 751.342 207.147 751.454C206.905 751.577 199.088 736.852 198.844 735.024C198.561 732.901 193.118 712.306 192.262 707.595C191.405 702.884 185.316 672.497 184.459 669.071C183.603 665.646 182.874 655.174 176.901 640.91C175.974 638.695 173.122 622.746 168.733 614.699C165.797 609.316 161.484 596.244 160.199 592.39C158.915 588.536 157.273 580.809 157.273 580.809L158.005 577.151z">
    </path>

  </g>
  <g
     id="g2146"
     style="fill: #000000">    <path
       id="path2147"
       d="M156.878 581.225C156.878 581.225 163.372 602.296 164.565 605.212C165.757 608.127 171.456 621.248 172.251 623.5C173.046 625.754 178.214 644.97 179.01 647.223C179.805 649.476 181.66 654.644 182.058 656.367C182.456 658.09 184.974 670.149 185.239 672.403C185.504 674.656 189.745 695.33 190.275 698.644C190.805 701.956 193.721 714.018 194.118 716.269C194.516 718.522 197.961 731.377 198.227 732.835C198.492 734.293 201.407 740.787 202.202 742.377C202.998 743.968 206.666 750.657 206.985 751.615C207.147 752.099 209.358 747.414 210.949 744.763C210.949 744.763 215.588 736.148 215.985 734.822C216.382 733.498 217.963 725.053 218.361 723.86C218.759 722.668 221.899 711.364 222.96 708.448C224.021 705.532 228.793 690.207 230.054 686.883C231.833 682.195 234.731 676.781 236.192 673.916C236.865 672.596 242.975 656.701 243.373 654.713C243.772 652.726 243.418 651.596 243.418 650.801C243.418 650.006 247.791 628.006 248.321 625.887C248.852 623.766 251.236 613.164 251.899 610.777C252.562 608.393 254.815 596.996 255.875 593.947C256.935 590.899 259.853 582.047 260.397 581.451M156.679 581.286C156.744 581.497 163.189 602.4 164.372 605.291C164.801 606.341 165.806 608.692 166.97 611.416C169.009 616.191 171.548 622.133 172.055 623.569C172.45 624.689 173.965 630.143 175.43 635.418C176.897 640.698 178.414 646.159 178.813 647.292L179.096 648.09C179.996 650.63 181.502 654.883 181.856 656.414C182.21 657.951 184.766 670.164 185.032 672.428C185.178 673.664 186.495 680.322 187.769 686.761C188.829 692.116 189.83 697.173 190.069 698.676C190.379 700.612 191.482 705.445 192.456 709.709C193.149 712.747 193.748 715.369 193.913 716.306C194.138 717.58 195.326 722.199 196.373 726.274C197.162 729.344 197.907 732.242 198.022 732.872C198.304 734.422 201.309 741.056 202.016 742.47C202.291 743.021 202.902 744.165 203.608 745.49C204.934 747.977 206.584 751.07 206.787 751.681C206.821 751.781 206.903 751.849 207.002 751.857C207.289 751.881 207.545 751.477 209.109 748.534C209.76 747.309 210.498 745.919 211.127 744.87C211.322 744.509 215.785 736.213 216.185 734.883C216.376 734.243 216.826 732.032 217.304 729.692C217.819 727.159 218.353 724.54 218.559 723.926C218.691 723.525 219.132 721.994 219.69 720.057C220.789 716.234 222.45 710.46 223.155 708.519C223.628 707.22 224.848 703.427 226.138 699.411C227.737 694.437 229.55 688.798 230.248 686.957C231.771 682.945 234.121 678.39 235.676 675.376L236.377 674.011C237.104 672.582 243.18 656.739 243.577 654.754C243.872 653.277 243.762 652.259 243.681 651.515C243.65 651.242 243.626 651.006 243.626 650.801C243.626 650.108 247.882 628.498 248.522 625.937C248.723 625.139 249.183 623.149 249.715 620.846C250.594 617.047 251.687 612.32 252.1 610.834C252.349 609.935 252.822 607.768 253.37 605.26C254.279 601.094 255.412 595.91 256.071 594.016L256.953 591.438C258.149 587.919 260.151 582.03 260.551 581.591L260.244 581.311C259.82 581.776 258.325 586.111 256.559 591.304L255.679 593.879C255.011 595.797 253.876 600.994 252.964 605.171C252.417 607.674 251.945 609.834 251.698 610.723C251.283 612.217 250.19 616.949 249.31 620.752C248.777 623.054 248.318 625.041 248.12 625.836C247.624 627.814 243.21 649.958 243.21 650.801C243.21 651.029 243.236 651.275 243.268 651.56C243.346 652.276 243.452 653.259 243.169 654.673C242.776 656.633 236.618 672.622 236.007 673.822L235.306 675.185C233.746 678.207 231.39 682.775 229.859 686.809C229.157 688.661 227.343 694.304 225.742 699.283C224.453 703.296 223.234 707.085 222.764 708.377C222.054 710.33 220.391 716.114 219.29 719.941C218.733 721.875 218.294 723.401 218.163 723.794C217.951 724.432 217.415 727.063 216.896 729.609C216.441 731.838 215.972 734.142 215.786 734.764C215.399 736.053 210.812 744.578 210.766 744.665C210.135 745.714 209.394 747.108 208.742 748.338C208.002 749.73 207.164 751.307 206.949 751.461C206.962 751.451 207.014 751.43 207.076 751.45C207.137 751.471 207.171 751.516 207.182 751.549C206.968 750.905 205.378 747.925 203.976 745.295C203.271 743.973 202.661 742.83 202.388 742.285C201.566 740.641 198.689 734.216 198.431 732.798C198.313 732.153 197.601 729.381 196.776 726.171C195.731 722.103 194.545 717.493 194.323 716.233C194.156 715.287 193.556 712.659 192.861 709.616C191.889 705.358 190.788 700.532 190.481 698.61C190.239 697.1 189.237 692.039 188.177 686.681C186.904 680.249 185.589 673.6 185.445 672.379C185.169 670.038 182.625 657.898 182.261 656.32C181.902 654.766 180.391 650.499 179.488 647.95L179.206 647.153C178.81 646.033 177.296 640.58 175.831 635.307C174.364 630.025 172.847 624.564 172.447 623.432C171.935 621.982 169.394 616.033 167.352 611.253C166.19 608.531 165.185 606.18 164.757 605.133C163.581 602.26 157.141 581.374 157.076 581.164L156.679 581.286z">
    </path>

  </g>
  <g
     id="g2148"
     style="fill: #000000">    <path
       id="path2149"
       d="M171.875 622.652C171.875 622.652 176.762 625.971 179.031 625.795M171.758 622.825C171.96 622.962 176.732 626.181 179.047 626.002L179.015 625.587C176.845 625.756 172.04 622.514 171.992 622.481L171.758 622.825z">
    </path>

  </g>
  <g
     id="g2150"
     style="fill: #000000">    <path
       id="path2151"
       d="M242.389 623.002C246.927 621.606 250.242 617.242 250.242 617.242M242.449 623.201C246.999 621.802 250.374 617.412 250.408 617.369L250.076 617.117L250.076 617.117C250.044 617.16 246.747 621.444 242.328 622.805L242.449 623.201z">
    </path>

  </g>
  <g
     id="g2152"
     style="fill: #000000">    <path
       id="path2153"
       d="M255.828 578.67C255.828 578.67 258.959 584.09 258.784 585.486M255.647 578.774L255.647 578.774C256.51 580.265 258.715 584.372 258.578 585.46L258.991 585.512C259.169 584.087 256.332 579.127 256.008 578.566L255.647 578.774z">
    </path>

  </g>
  <g
     id="g2154"
     style="fill: #d6a0aa">    <path
       id="path2155"
       d="M198.468 625.828C198.354 626.74 198.336 630.241 198.336 630.241C198.336 630.241 203.597 626.919 206.8 628.854C210.643 631.177 214.158 633.836 216.196 634.515C218.234 635.194 220.07 634.918 220.07 634.918C220.07 634.918 219.67 631.623 219.543 630.176C219.415 628.728 219.14 624.779 219.14 624.779C219.14 624.779 216.106 624.618 212.483 621.108C208.861 617.599 208.725 615.383 208.385 614.477C208.045 613.572 207.253 608.477 207.253 608.477L206.578 611.148C206.578 611.148 204.916 615.438 204.369 616.533C203.679 617.914 201.76 620.202 201.193 620.882C200.627 621.562 198.846 622.263 198.846 622.263C198.846 622.263 198.582 624.917 198.468 625.828z">
    </path>

  </g>
  <g
     id="g2156"
     style="fill: #000000">    <path
       id="path2157"
       d="M207.431 608.069C207.431 608.069 205.275 616.102 202.712 619.088C200.343 621.848 199.606 621.986 198.708 622.332M207.231 608.016L207.231 608.016C207.209 608.096 205.057 616.036 202.554 618.952C200.38 621.484 199.62 621.769 198.815 622.068L198.633 622.138L198.783 622.525L198.961 622.459C199.817 622.139 200.625 621.836 202.87 619.223C205.435 616.234 207.543 608.453 207.631 608.123L207.231 608.016z">
    </path>

  </g>
  <g
     id="g2158"
     style="fill: #000000">    <path
       id="path2159"
       d="M211.65 592.531C211.65 592.531 206.855 599.629 207.431 608.069C208.006 616.51 210.133 618.271 211.859 620.381C213.586 622.491 216.402 624.57 219.279 624.955M211.478 592.414C211.431 592.486 206.649 599.669 207.223 608.084C207.753 615.85 209.603 618.033 211.236 619.961C211.397 620.149 211.548 620.328 211.699 620.512C213.315 622.488 216.147 624.747 219.252 625.16L219.308 624.749C216.323 624.351 213.586 622.163 212.021 620.249C211.867 620.062 211.709 619.874 211.554 619.691C209.963 617.813 208.158 615.685 207.639 608.055C207.074 599.787 211.775 592.717 211.823 592.647L211.478 592.414z">
    </path>

  </g>
  <g
     id="g2160"
     style="fill: #000000">    <path
       id="path2161"
       d="M271.974 507.228C271.974 507.228 270.663 506.666 270.663 504.981M272.056 507.037L272.057 507.037C272.008 507.016 270.87 506.501 270.87 504.981L270.455 504.981C270.455 506.783 271.833 507.394 271.892 507.419L272.056 507.037z">
    </path>

  </g>
  <g
     id="g2162"
     style="fill: #ffc9d3">    <path
       id="path2163"
       d="M258.757 436.798C258.757 436.798 261.146 439.648 260.41 443.875C259.677 448.102 257.837 453.065 257.471 454.444C257.103 455.822 256.92 455.362 258.757 454.536C260.595 453.708 262.983 451.778 263.72 450.676C264.455 449.573 266.018 450.032 266.018 451.503C266.018 452.974 265.282 454.536 265.65 454.168C266.018 453.8 266.753 451.595 267.12 451.87C267.487 452.146 268.039 454.72 268.039 455.822C268.039 456.925 266.293 462.898 265.373 464.645C264.455 466.391 261.789 470.159 261.606 470.619C261.422 471.078 257.931 478.522 257.838 480.544C257.745 482.565 257.195 487.161 257.562 489.367C257.93 491.572 258.114 494.973 258.114 496.351C258.114 497.729 258.022 504.439 252.141 510.044C246.258 515.65 243.594 517.397 242.216 518.684C240.836 519.97 237.62 522.268 237.16 522.727C236.7 523.187 235.69 524.933 232.84 524.933C229.992 524.933 229.532 525.116 228.337 524.565C227.143 524.014 227.693 525.3 227.693 525.3C227.693 525.3 227.418 526.403 223.743 526.311C220.066 526.219 214.675 524.781 211.887 523.647C208.606 522.311 203.891 520.337 203.432 519.878C202.973 519.418 200.399 506.92 199.112 502.968C197.826 499.017 198.929 497.454 200.123 496.443C201.318 495.432 198.837 490.377 195.528 487.161C192.22 483.944 185.695 472.457 187.349 467.585C189.003 462.715 190.382 453.525 192.404 451.962C194.425 450.4 200.491 447.275 205.546 447.275C210.601 447.275 219.056 448.47 220.801 449.481C222.547 450.492 238.631 449.114 244.053 445.622C249.475 442.129 258.757 436.614 258.757 436.614z">
    </path>

  </g>
  <g
     id="g2164"
     style="fill: #000000">    <path
       id="path2165"
       d="M258.598 436.932L258.598 436.932C258.62 436.96 260.914 439.763 260.206 443.839C259.667 446.944 258.509 450.507 257.817 452.635C257.566 453.411 257.367 454.023 257.269 454.39C257.207 454.624 257.149 454.806 257.108 454.938C257.017 455.226 256.972 455.37 257.113 455.481C257.254 455.592 257.391 455.51 257.64 455.36C257.866 455.223 258.247 454.993 258.842 454.726C260.794 453.847 263.16 451.889 263.893 450.791C264.177 450.365 264.621 450.183 265.054 450.313C265.419 450.424 265.81 450.795 265.81 451.503C265.81 452.276 265.599 453.077 265.459 453.607C265.324 454.123 265.277 454.297 265.458 454.4C265.531 454.443 265.65 454.462 265.797 454.315C265.964 454.148 266.157 453.74 266.381 453.267C266.584 452.839 266.923 452.124 267.079 452.05C267.065 452.057 267.024 452.059 266.995 452.037C267.261 452.254 267.831 454.668 267.831 455.822C267.831 456.9 266.098 462.823 265.188 464.548C264.658 465.559 263.541 467.244 262.644 468.599C261.911 469.705 261.492 470.341 261.412 470.542C261.388 470.604 261.288 470.826 261.149 471.132C260.299 473.02 257.712 478.765 257.63 480.535C257.606 481.056 257.553 481.741 257.49 482.534C257.308 484.855 257.081 487.742 257.356 489.4C257.741 491.7 257.906 495.116 257.906 496.351C257.906 498.729 257.33 504.81 251.996 509.894C247.951 513.75 245.455 515.757 243.804 517.084C243.052 517.689 242.508 518.126 242.073 518.532C241.261 519.29 239.81 520.398 238.644 521.288C237.843 521.9 237.209 522.384 237.013 522.58C236.943 522.649 236.865 522.742 236.775 522.85C236.225 523.505 235.198 524.725 232.84 524.725C232.172 524.725 231.628 524.735 231.19 524.743C229.735 524.771 229.297 524.779 228.424 524.377C228.266 524.303 227.783 524.081 227.507 524.349C227.206 524.641 227.451 525.261 227.503 525.382L227.492 525.25C227.49 525.251 227.13 526.188 223.748 526.103C220.278 526.017 214.931 524.661 211.965 523.454C207.041 521.449 203.905 520.058 203.579 519.731C203.584 519.736 203.586 519.74 203.586 519.74C203.367 519.437 202.571 516.041 201.802 512.757C200.939 509.074 199.96 504.9 199.31 502.903C198.073 499.103 199.095 497.585 200.258 496.602C200.493 496.402 200.62 496.086 200.635 495.662C200.703 493.69 198.384 489.647 195.673 487.012C192.558 483.983 185.918 472.447 187.546 467.652C188.123 465.954 188.676 463.693 189.211 461.506C190.223 457.375 191.268 453.103 192.531 452.127C194.626 450.508 200.595 447.483 205.546 447.483C210.656 447.483 219.01 448.685 220.697 449.661C222.656 450.795 238.822 449.238 244.166 445.796C249.522 442.346 258.769 436.849 258.863 436.793L258.65 436.436C258.558 436.491 249.303 441.992 243.94 445.447C238.552 448.918 222.508 450.229 220.905 449.301C219.175 448.299 210.705 447.067 205.546 447.067C200.495 447.067 194.411 450.148 192.277 451.798C190.899 452.863 189.883 457.013 188.808 461.407C188.274 463.585 187.723 465.838 187.152 467.519C185.445 472.546 192.124 484.141 195.383 487.31C198.221 490.068 200.276 493.986 200.219 495.647C200.209 495.95 200.131 496.164 199.989 496.284C198.721 497.357 197.602 498.998 198.915 503.032C199.56 505.013 200.536 509.177 201.397 512.851C202.547 517.757 203.039 519.78 203.285 520.025C203.766 520.505 208.185 522.364 211.809 523.839C214.808 525.06 220.221 526.432 223.738 526.519C227.472 526.612 227.863 525.481 227.894 525.351L227.912 525.283L227.885 525.219C227.778 524.968 227.747 524.695 227.797 524.647C227.812 524.632 227.933 524.607 228.25 524.754C229.209 525.196 229.71 525.187 231.198 525.159C231.634 525.151 232.177 525.141 232.84 525.141C235.392 525.141 236.541 523.774 237.094 523.117C237.177 523.017 237.25 522.931 237.308 522.874C237.483 522.698 238.139 522.197 238.897 521.618C240.069 520.723 241.529 519.608 242.357 518.835C242.781 518.44 243.318 518.008 244.063 517.409C245.722 516.077 248.226 514.063 252.284 510.195C257.734 505 258.322 498.783 258.322 496.351C258.322 494.843 258.125 491.475 257.768 489.332C257.499 487.724 257.733 484.743 257.905 482.567C257.968 481.769 258.022 481.081 258.046 480.554C258.123 478.863 260.687 473.173 261.528 471.303C261.68 470.969 261.771 470.767 261.799 470.696C261.867 470.524 262.413 469.701 262.991 468.828C263.894 467.467 265.016 465.771 265.558 464.741C266.511 462.932 268.247 456.961 268.247 455.822C268.247 454.819 267.724 452.063 267.245 451.704C267.166 451.644 267.068 451.625 266.972 451.648C266.666 451.724 266.405 452.245 266.005 453.089C265.824 453.472 265.618 453.906 265.503 454.021C265.49 454.034 265.484 454.038 265.484 454.038C265.508 454.021 265.58 453.997 265.655 454.035C265.731 454.072 265.755 454.144 265.755 454.173C265.755 454.118 265.812 453.903 265.861 453.713C266.006 453.162 266.226 452.33 266.226 451.503C266.226 450.732 265.812 450.109 265.175 449.915C264.569 449.732 263.93 449.985 263.547 450.56C262.858 451.59 260.53 453.509 258.672 454.346C258.054 454.624 257.659 454.862 257.424 455.004C257.338 455.056 257.248 455.11 257.221 455.12C257.239 455.113 257.308 455.105 257.37 455.154C257.433 455.203 257.441 455.271 257.438 455.291C257.441 455.262 257.474 455.161 257.504 455.063C257.548 454.927 257.606 454.74 257.671 454.498C257.766 454.142 257.963 453.533 258.214 452.764C258.908 450.625 260.071 447.045 260.615 443.911C261.358 439.637 259.016 436.784 258.916 436.665L258.598 436.932z">
    </path>

  </g>
  <g
     id="g2166"
     style="fill: #000000">    <path
       id="path2167"
       d="M193.139 463.083C193.139 463.083 200.675 456.925 206.005 456.466C211.336 456.006 211.244 454.904 216.022 456.099C220.801 457.293 221.996 457.293 223.1 457.752C224.202 458.212 226.224 458.947 226.5 459.407M259.859 460.693C259.859 460.693 253.243 458.763 249.199 460.969C245.155 463.174 242.949 465.564 241.847 467.494C240.745 469.424 239.181 473.284 239.365 475.857C239.55 478.431 241.847 483.485 242.398 485.231C242.95 486.977 242.491 487.528 241.663 488.631C240.836 489.734 239.55 490.929 239.09 492.123C238.63 493.318 238.446 494.054 238.722 494.605M239.733 476.776C239.733 476.776 242.308 469.148 246.074 467.218C249.843 465.288 252.14 464.737 254.069 465.38C256 466.023 257.012 467.585 256.827 469.332C256.644 471.078 255.081 473.375 254.53 474.295C253.978 475.213 253.702 475.949 253.702 475.949M201.87 470.159C201.87 470.159 204.352 465.472 208.027 463.817C211.703 462.164 212.621 461.612 214.735 461.796C216.851 461.98 219.423 463.726 220.526 464.737C221.629 465.748 223.468 468.138 223.651 468.688M205.27 479.165C205.27 479.165 208.578 477.787 210.141 478.154C211.703 478.522 213.725 478.706 215.103 478.798C216.482 478.89 217.676 478.522 218.137 478.338M240.652 480.085C240.652 480.085 243.501 479.901 245.063 480.268C246.626 480.636 248.188 481.738 249.751 481.922C251.312 482.106 252.141 482.014 252.783 481.922M206.741 478.706C206.741 478.706 207.751 479.349 207.567 480.36M206.629 478.881L206.628 478.881C206.638 478.887 207.519 479.465 207.363 480.323L207.772 480.397C207.978 479.262 206.898 478.56 206.853 478.53L206.629 478.881z">
    </path>

  </g>
  <g
     id="g2168"
     style="fill: #000000">    <path
       id="path2169"
       d="M208.762 478.062C208.762 478.062 209.59 478.522 209.406 479.809M208.661 478.245L208.66 478.244C208.688 478.26 209.359 478.661 209.199 479.78L209.611 479.838C209.813 478.426 208.901 477.902 208.863 477.881L208.661 478.245z">
    </path>

  </g>
  <g
     id="g2170"
     style="fill: #000000">    <path
       id="path2171"
       d="M211.244 478.431C211.244 478.431 211.703 478.89 211.336 479.809M211.097 478.578L211.095 478.576C211.109 478.591 211.449 478.964 211.143 479.732L211.528 479.886C211.942 478.852 211.414 478.306 211.391 478.284L211.097 478.578z">
    </path>

  </g>
  <g
     id="g2172"
     style="fill: #000000">    <path
       id="path2173"
       d="M209.957 463.267C209.957 463.267 206.556 470.619 208.67 473.468C210.784 476.316 212.529 477.603 215.471 476.592C218.411 475.581 219.055 474.203 219.515 472.089C219.974 469.975 220.764 465.607 220.397 464.872C220.029 464.137 218.778 463.266 216.758 462.531C214.735 461.796 212.898 461.704 211.978 461.98C211.06 462.256 210.691 462.531 209.957 463.267z">
    </path>

  </g>
  <g
     id="g2174"
     style="fill: #ffffff">    <path
       id="path2175"
       d="M209.685 472.332C209.685 472.332 210.876 470.802 211.795 470.71C212.714 470.619 212.898 470.894 212.622 471.445C212.346 471.997 210.968 472.732 210.691 473.283C210.416 473.835 210.232 474.203 210.232 474.203L209.485 473.135L209.685 472.332z">
    </path>

  </g>
  <g
     id="g2176"
     style="fill: #ffffff">    <path
       id="path2177"
       d="M215.195 474.386C215.195 474.386 214.184 473.283 215.562 473.1C216.941 472.916 217.218 473.192 217.218 473.651C217.218 474.111 216.758 474.754 216.391 474.754C216.022 474.754 215.838 474.571 215.195 474.386z">
    </path>

  </g>
  <g
     id="g2178"
     style="fill: #ffffff">    <path
       id="path2179"
       d="M214.1 462.502C214.1 462.502 213.788 465.293 214.113 466.268C214.463 467.315 215.248 468.256 216.033 468.712C216.673 469.084 217.218 469.792 217.584 469.883C217.951 469.975 218.871 470.067 219.056 468.688C219.24 467.31 219.211 466.627 219.211 466.076C219.211 465.525 219.222 464.694 218.313 463.832C216.847 462.442 214.568 462.1 214.568 462.1L214.1 462.502z">
    </path>

  </g>
  <g
     id="g2180"
     style="fill: #000000">    <path
       id="path2181"
       d="M243.226 470.894C243.226 470.894 242.722 473.135 242.751 473.92C242.812 475.574 243.409 477.695 245.155 478.338C246.901 478.981 249.016 480.085 250.945 477.419C252.875 474.754 254.254 471.445 254.346 470.067C254.438 468.688 254.989 467.862 254.714 467.126C254.438 466.391 252.324 465.289 251.404 465.472C250.485 465.656 245.615 467.954 245.248 468.321z">
    </path>

  </g>
  <g
     id="g2182"
     style="fill: #ffffff">    <path
       id="path2183"
       d="M244.527 475.741C244.527 475.741 247.049 473.061 247.364 474.007C247.68 474.953 245.946 476.529 245.474 477.003C245.001 477.476 243.935 477.641 244.527 475.741z">
    </path>

  </g>
  <g
     id="g2184"
     style="fill: #ffffff">    <path
       id="path2185"
       d="M249.383 476.133C249.383 476.133 249.567 474.663 249.935 475.214C250.302 475.765 250.485 476.408 250.302 476.96C250.118 477.511 249.475 477.695 249.383 477.328C249.291 476.96 249.383 476.133 249.383 476.133z">
    </path>

  </g>
  <g
     id="g2186"
     style="fill: #ffffff">    <path
       id="path2187"
       d="M248.525 467.32C248.525 467.32 248.739 469.761 249.843 470.769C250.945 471.777 251.497 471.978 252.141 471.877C252.783 471.777 253.835 470.764 253.984 469.043C254.098 467.738 253.886 467.141 253.61 466.838C253.335 466.536 251.312 465.832 250.669 465.932C250.027 466.032 248.556 466.032 248.463 466.335C248.372 466.637 248.525 467.32 248.525 467.32z">
    </path>

  </g>
  <g
     id="g2188"
     style="fill: #000000">    <path
       id="path2189"
       d="M234.796 510.797M234.454 508.774C234.454 508.774 235.756 510.252 234.185 511.822M234.298 508.912L234.297 508.912C234.345 508.966 235.447 510.266 234.038 511.676L234.332 511.97C236.022 510.28 234.624 508.653 234.609 508.637L234.298 508.912z">
    </path>

  </g>
  <g
     id="g2190"
     style="fill:#e2adb7; stroke-width:1px; stroke-linejoin:miter; stroke-linecap:butt; stroke-opacity:100%; stroke:none; ">    <path
       id="path2191"
       style="stroke-width:1px; stroke-linejoin:miter; stroke-linecap:butt; stroke-opacity:100%; stroke:none; "
       d="M204.741 489.259C204.741 489.259 201.665 484.864 203.599 481.875C205.532 478.887 206.324 478.096 207.027 478.007C207.731 477.92 203.334 476.249 202.456 473.7C201.577 471.151 202.983 469.217 203.511 468.162C204.038 467.107 206.147 464.91 207.642 464.03C209.137 463.152 213.883 461.129 215.642 461.657C217.399 462.185 219.433 463.773 220.526 464.737C221.62 465.701 223.2 468.343 223.509 468.736C223.816 469.129 228.035 469.832 228.915 466.756C229.794 463.679 229.003 461.481 227.773 460.778C226.542 460.075 224.521 457.877 222.411 457.614C220.301 457.35 214.586 457.174 213.619 456.646C212.652 456.119 209.312 456.031 207.731 456.119C206.147 456.207 199.818 458.229 198.588 459.02C197.357 459.811 197.094 460.427 197.182 458.845C197.269 457.262 197.797 454.361 197.621 452.867C197.445 451.373 196.391 449.087 194.369 451.285C192.347 453.482 188.918 461.657 188.831 465.261C188.743 468.865 186.545 472.381 189.534 476.513C192.523 480.644 195.6 485.128 198.5 486.886C201.401 488.644 204.741 489.259 204.741 489.259z">
    </path>

  </g>
  <g
     id="g2192"
     style="fill: #000000">    <path
       id="path2193"
       d="M212.556 516.029C212.556 516.029 222.218 523.342 227.901 524.389M212.43 516.195C212.826 516.495 222.196 523.55 227.864 524.593L227.938 524.185C222.368 523.159 212.777 515.937 212.682 515.864L212.43 516.195z">
    </path>

  </g>
  <g
     id="g2194"
     style="fill: #000000">    <path
       id="path2195"
       d="M228.565 501.997C228.565 501.997 231.396 499.835 231.603 499.32C231.809 498.804 232.066 497.929 232.581 497.981C233.096 498.032 235.36 498.393 235.618 498.393C235.875 498.393 238.191 498.187 238.655 498.393C239.118 498.599 240.457 499.68 240.457 499.68L240.097 501.07L238.655 503.283L237.265 505.085L234.537 505.651L232.169 504.879L229.132 503.489L228.051 502.356L228.565 501.997z">
    </path>

  </g>
  <g
     id="g2196"
     style="fill: #d80000">    <path
       id="path2197"
       d="M228.691 502.162C229.172 501.795 231.578 499.938 231.795 499.397C231.821 499.332 231.848 499.265 231.875 499.192C232.031 498.781 232.267 498.158 232.56 498.188C232.783 498.21 233.369 498.295 233.935 498.378C234.884 498.517 235.47 498.601 235.618 498.601C235.678 498.601 235.815 498.592 236.022 498.579C236.631 498.541 238.25 498.44 238.571 498.583C238.93 498.743 239.96 499.545 240.326 499.841L240.256 499.627L239.896 501.018L239.922 500.957L238.481 503.17C238.49 503.156 237.101 504.958 237.101 504.958L237.223 504.882L234.494 505.448L234.601 505.453L232.233 504.682L232.256 504.69L229.219 503.301L229.282 503.346L228.201 502.213L228.17 502.527C228.17 502.527 228.685 502.166 228.691 502.162z">
    </path>

  </g>
  <g
     id="g2198"
     style="fill: #d80000">    <path
       id="path2199"
       d="M227.9 502.5L228.981 503.633L229.01 503.662L229.045 503.678L232.082 505.069L232.094 505.074L232.104 505.077L234.473 505.849L234.524 505.866L234.579 505.854L237.308 505.289L237.383 505.273L237.43 505.212L238.82 503.411C238.83 503.397 240.272 501.183 240.272 501.183L240.289 501.154L240.298 501.122L240.658 499.732L240.691 499.602L240.588 499.518C240.532 499.473 239.223 498.418 238.74 498.203C238.397 498.05 237.394 498.077 235.995 498.164C235.817 498.175 235.665 498.185 235.618 498.185C235.489 498.185 234.661 498.064 233.996 497.967C233.397 497.88 232.834 497.797 232.602 497.774C231.991 497.713 231.698 498.483 231.486 499.045C231.459 499.115 231.434 499.182 231.409 499.243C231.282 499.56 229.596 500.948 228.44 501.831C228.445 501.826 227.932 502.187 227.932 502.187L227.733 502.325L227.9 502.5z">
    </path>

  </g>
  <g
     id="g2200"
     style="fill: #000000">    <path
       id="path2201"
       d="M225.552 501.271C225.552 501.271 225.036 502.815 224.161 502.918M225.354 501.205L225.354 501.205C225.222 501.6 224.745 502.64 224.137 502.712L224.185 503.124C225.18 503.008 225.727 501.405 225.749 501.336L225.354 501.205z">
    </path>

  </g>
  <g
     id="g2202"
     style="fill: #000000">    <path
       id="path2203"
       d="M193.233 463.198L193.233 463.198C193.309 463.138 200.795 457.064 206.018 456.615C207.861 456.456 208.807 456.472 209.773 456.282C211.613 455.92 211.268 457.161 214.368 457.936C216.761 458.534 219.978 457.918 220.984 458.12C222.013 458.325 222.47 458.171 223.007 458.396L224.019 458.671C224.997 459.064 226.299 460.268 226.5 460.601L226.04 459.314C225.806 458.925 225.269 458.466 223.825 457.886L223.157 457.614C222.592 457.379 222.016 457.264 220.97 457.054C219.964 456.854 218.444 456.549 216.059 455.953C212.893 455.162 211.856 455.366 209.975 455.736C209.014 455.925 207.82 456.159 205.993 456.316C200.677 456.774 194.346 462.048 194.036 462.301L193.233 463.198z">
    </path>

  </g>
  <g
     id="g2204"
     style="fill: #000000">    <path
       id="path2205"
       d="M201.778 470.986L202.421 469.424C202.446 469.378 204.534 466.259 208.119 464.645L209.59 463.818C212.365 462.557 212.975 462.462 214.828 462.623C216.87 462.801 219.221 464.168 220.343 465.196C221.475 466.234 223.345 468.244 223.509 468.736L223.793 468.641C223.6 468.062 221.912 465.388 220.801 464.369C219.65 463.315 217.861 461.061 214.828 461.061C212.889 461.061 212.07 461.062 209.223 462.623L207.568 463.634C203.888 465.29 201.762 470.042 201.737 470.089L201.778 470.986z">
    </path>

  </g>
  <g
     id="g2206"
     style="fill: #000000">    <path
       id="path2207"
       d="M204.902 479.533L205.638 479.717C205.67 479.703 207.693 478.193 210.049 478.523C211.289 478.696 213.051 478.811 215.094 478.947C216.662 479.052 217.95 478.574 218.192 478.477L218.081 478.199C217.849 478.292 216.617 478.749 215.113 478.648C213.087 478.514 211.361 478.294 210.232 477.787C208.394 476.96 206.51 478.006 206.373 478.062L204.902 479.533z">
    </path>

  </g>
  <g
     id="g2208"
     style="fill: #000000">    <path
       id="path2209"
       d="M206.423 464.659C206.423 464.659 208.797 461.114 212.065 460.427C214.816 459.847 217.126 459.866 218.78 461.244C220.093 462.339 221.537 463.818 222.272 464.92C222.756 465.646 223.282 467.31 223.374 467.678C223.466 468.045 223.558 468.504 223.558 468.504M206.595 464.774L206.595 464.774C206.619 464.739 208.962 461.292 212.107 460.63C215.205 459.978 217.222 460.217 218.647 461.404C220.035 462.562 221.422 464.021 222.099 465.036C222.547 465.707 223.067 467.311 223.173 467.728C223.262 468.086 223.353 468.541 223.353 468.545L223.762 468.464C223.758 468.445 223.668 467.995 223.575 467.627C223.484 467.261 222.948 465.56 222.445 464.805C221.748 463.761 220.329 462.266 218.913 461.085C217.381 459.808 215.256 459.543 212.022 460.223C208.709 460.92 206.349 464.395 206.25 464.543L206.595 464.774z">
    </path>

  </g>
  <g
     id="g2210"
     style="fill: #000000">    <path
       id="path2211"
       d="M219.515 461.796C219.515 461.796 221.537 461.52 222.731 460.325M219.544 462.002C219.629 461.99 221.648 461.703 222.878 460.472L222.584 460.178C221.455 461.308 219.506 461.587 219.486 461.59L219.544 462.002z">
    </path>

  </g>
  <g
     id="g2212"
     style="fill: #000000">    <path
       id="path2213"
       d="M221.121 463.505C221.121 463.505 222.522 463.699 224.738 462.184M221.093 463.711C221.152 463.719 222.599 463.899 224.856 462.355L224.622 462.012C222.512 463.454 221.161 463.301 221.148 463.299L221.093 463.711z">
    </path>

  </g>
  <g
     id="g2214"
     style="fill: #000000">    <path
       id="path2215"
       d="M222.64 465.472C222.64 465.472 225.673 465.748 227.051 464.093M222.621 465.679C222.749 465.69 225.779 465.945 227.211 464.227L226.891 463.96C225.6 465.51 222.688 465.268 222.658 465.265L222.621 465.679z">
    </path>

  </g>
  <g
     id="g2216"
     style="fill: #000000">    <path
       id="path2217"
       d="M223.19 466.575C223.19 466.575 224.294 467.126 225.397 466.575M223.097 466.761C223.147 466.785 224.308 467.352 225.49 466.761L225.303 466.389C224.31 466.885 223.294 466.394 223.283 466.389L223.097 466.761z">
    </path>

  </g>
  <g
     id="g2218"
     style="fill: #000000">    <path
       id="path2219"
       d="M199.664 466.391C199.664 466.391 201.87 467.585 203.616 467.31M199.565 466.573C199.658 466.624 201.853 467.799 203.648 467.516L203.583 467.105C201.929 467.366 199.785 466.219 199.763 466.208L199.565 466.573z">
    </path>

  </g>
  <g
     id="g2220"
     style="fill: #000000">    <path
       id="path2221"
       d="M198.285 468.688C198.285 468.688 201.134 469.056 202.696 468.321M198.259 468.895C198.377 468.91 201.185 469.262 202.785 468.509L202.608 468.133C201.119 468.833 198.34 468.486 198.312 468.482L198.259 468.895z">
    </path>

  </g>
  <g
     id="g2222"
     style="fill: #000000">    <path
       id="path2223"
       d="M199.296 470.343C199.296 470.343 201.502 470.159 202.329 469.516M199.314 470.55C199.406 470.542 201.591 470.354 202.457 469.68L202.202 469.352C201.433 469.95 199.301 470.134 199.279 470.136L199.314 470.55z">
    </path>

  </g>
  <g
     id="g2224"
     style="fill: #cc96a0">    <path
       id="path2225"
       d="M239.475 477.356C239.475 477.356 244.109 466.069 249.954 465.868C255.799 465.667 256.201 467.279 255.799 469.697C255.396 472.115 257.21 473.526 258.822 472.519C260.435 471.511 261.441 466.271 261.441 464.256C261.441 462.24 261.185 460.559 259.31 460.142C257.006 459.63 252.171 459.621 251.364 460.023C250.559 460.427 244.312 463.45 242.699 465.868C241.087 468.287 239.272 472.72 239.272 473.728C239.272 474.736 239.475 477.356 239.475 477.356z">
    </path>

  </g>
  <g
     id="g2226"
     style="fill: #000000">    <path
       id="path2227"
       d="M259.24 459.882C258.967 459.803 256.347 457.424 248.739 460.785C244.172 462.803 242.678 465.736 241.717 467.42C240.65 469.287 239.027 473.232 239.217 475.868C239.35 477.731 240.565 480.849 241.454 483.125C241.802 484.015 242.101 484.784 242.255 485.276C242.772 486.907 242.38 487.428 241.602 488.464L241.543 488.542C241.285 488.885 240.987 489.232 240.672 489.601C239.985 490.4 239.274 491.228 238.949 492.07C238.481 493.289 238.284 494.064 238.589 494.672L238.856 494.538C238.602 494.03 238.791 493.316 239.228 492.177C239.535 491.383 240.228 490.576 240.898 489.795C241.218 489.423 241.519 489.072 241.782 488.721L241.841 488.644C242.628 487.597 243.103 486.964 242.541 485.186C242.382 484.685 242.081 483.912 241.732 483.017C240.851 480.758 239.644 477.665 239.515 475.846C239.331 473.277 240.928 469.405 241.976 467.568C242.919 465.919 245.031 463.469 249.751 461.428C253.151 459.958 260.526 460.878 260.593 460.897L259.24 459.882z">
    </path>

  </g>
  <g
     id="g2228"
     style="fill: #000000">    <path
       id="path2229"
       d="M239.917 478.154L240.192 476.776C240.219 476.701 242.772 469.925 246.442 468.045C250.185 466.128 251.481 465.865 253.335 466.483C255.156 467.09 255.279 468.212 255.096 469.945C254.94 471.432 254.989 471.905 254.438 473.283L254.069 474.386C253.518 475.307 253.574 475.866 253.562 475.896L253.575 476.625L253.913 475.78C253.915 475.773 254.12 475.267 254.658 474.372L254.917 473.952C255.579 472.886 256.812 470.902 256.977 469.348C257.171 467.495 256.352 465.6 254.42 464.956C252.455 464.302 250.664 464.449 246.533 466.851C242.582 469.148 239.697 476.414 239.591 476.728L239.917 478.154z">
    </path>

  </g>
  <g
     id="g2230"
     style="fill: #000000">    <path
       id="path2231"
       d="M240.662 480.234L240.662 480.234C240.69 480.232 243.266 480.277 244.788 480.636C245.469 480.797 246.225 481.255 246.901 481.555C247.766 481.939 249.135 482.553 250.026 482.657C251.577 482.84 252.6 483.209 253.702 482.106L252.783 481.371C251.221 481.463 251.283 481.952 249.769 481.774C248.922 481.675 248.051 481.287 247.208 480.912C246.518 480.606 245.806 480.29 245.098 480.123C243.531 479.754 240.76 479.928 240.644 479.935L240.662 480.234z">
    </path>

  </g>
  <g
     id="g2232"
     style="fill: #000000">    <path
       id="path2233"
       d="M245.118 468.423C245.118 468.423 247.699 464.72 251.122 463.941C252.6 463.606 253.609 463.45 254.714 463.634C255.815 463.817 256.644 463.91 257.195 464.829C257.746 465.748 257.746 466.207 257.562 467.126C257.379 468.045 257.071 469.662 256.703 470.029M245.289 468.543L245.289 468.543C245.315 468.506 247.865 464.895 251.168 464.144C252.667 463.804 253.621 463.663 254.68 463.839L254.845 463.866C255.83 464.028 256.543 464.145 257.017 464.936C257.546 465.818 257.53 466.226 257.358 467.085C257.358 467.085 257.331 467.222 257.331 467.222C257.167 468.045 256.862 469.577 256.556 469.882L256.85 470.177C257.215 469.812 257.479 468.609 257.739 467.303L257.766 467.167C257.953 466.234 257.973 465.721 257.373 464.722C256.8 463.767 255.967 463.629 254.912 463.456L254.748 463.429C253.628 463.243 252.593 463.394 251.075 463.739C247.614 464.525 245.056 468.15 244.948 468.304L245.289 468.543z">
    </path>

  </g>
  <g
     id="g2234"
     style="fill: #000000">    <path
       id="path2235"
       d="M256.534 464.111C256.534 464.111 258.206 463.727 258.39 461.888M256.581 464.313C256.6 464.31 258.4 463.873 258.597 461.909L258.183 461.867C258.017 463.529 256.55 463.894 256.487 463.908L256.581 464.313z">
    </path>

  </g>
  <g
     id="g2236"
     style="fill: #000000">    <path
       id="path2237"
       d="M257.195 464.829C257.195 464.829 259.492 464.92 259.769 463.267M257.187 465.037C258.045 465.071 259.731 464.752 259.974 463.301L259.562 463.232C259.32 464.685 257.224 464.622 257.203 464.621L257.187 465.037z">
    </path>

  </g>
  <g
     id="g2238"
     style="fill: #000000">    <path
       id="path2239"
       d="M257.562 466.299C257.562 466.299 260.319 467.219 261.147 465.472M257.496 466.496C257.615 466.536 260.438 467.453 261.334 465.561L260.959 465.383C260.221 466.942 257.653 466.11 257.628 466.102L257.496 466.496z">
    </path>

  </g>
  <g
     id="g2240"
     style="fill: #000000">    <path
       id="path2241"
       d="M257.195 468.688C257.195 468.688 258.022 469.607 259.31 468.964M257.041 468.828C257.05 468.838 257.989 469.856 259.401 469.15L259.217 468.778C258.093 469.34 257.379 468.582 257.349 468.549L257.041 468.828z">
    </path>

  </g>
  <g
     id="g2242"
     style="fill: #000000">    <path
       id="path2243"
       d="M256.368 471.17C256.368 471.17 257.837 472.64 259.216 471.722M256.221 471.317C256.237 471.333 257.828 472.896 259.331 471.894L259.101 471.548C257.882 472.36 256.57 471.078 256.515 471.023L256.5 471.009L256.483 470.997L256.221 471.317z">
    </path>

  </g>
  <g
     id="g2244"
     style="fill: #efaf00">    <path
       id="path2245"
       d="M268.228 419.779C268.228 419.779 279.837 418.655 280.399 420.528C280.962 422.4 283.208 433.261 282.272 437.193C281.336 441.126 281.523 452.923 281.897 456.106C282.272 459.29 283.397 464.159 283.397 464.159C283.397 464.159 281.71 465.844 282.272 467.155C282.833 468.466 285.644 474.27 286.954 475.581C288.265 476.892 284.707 476.892 283.397 477.454C282.085 478.016 279.275 479.701 277.216 480.45C275.157 481.199 272.535 481.386 269.727 480.638C266.917 479.889 263.734 479.701 262.048 480.638C260.362 481.573 258.677 482.323 258.677 484.569C258.677 486.816 259.989 489.438 261.299 490.936C262.61 492.435 265.045 494.495 269.164 494.869C269.164 494.869 275.719 496.554 283.771 492.997C291.822 489.438 288.826 491.498 289.387 491.124C289.95 490.749 287.891 496.741 286.018 498.239C284.144 499.738 278.153 502.921 275.905 502.921C273.658 502.921 277.591 504.606 279.276 504.793C280.962 504.981 274.032 507.415 272.535 507.415C271.037 507.415 275.157 510.224 275.157 510.224C275.157 510.224 267.292 511.347 265.981 511.535C264.67 511.722 259.613 513.782 258.491 513.782C257.367 513.782 261.111 516.403 262.61 516.403C264.108 516.403 264.857 516.403 264.857 516.403C264.857 516.403 259.988 519.774 255.682 519.587C251.375 519.399 256.056 523.332 246.88 523.519C237.705 523.707 238.08 522.957 237.518 522.583C236.955 522.208 245.009 514.531 248.753 511.16C252.498 507.79 256.243 503.296 256.806 499.925C257.367 496.554 256.806 489.438 256.618 486.068C256.431 482.697 257.18 476.892 259.052 473.521C260.926 470.151 264.669 464.908 266.168 460.976C267.666 457.043 266.917 453.298 266.917 453.298C266.917 453.298 269.352 448.804 270.287 443.374C271.224 437.943 270.663 426.895 268.79 425.022C266.917 423.149 266.917 421.277 267.104 420.715C267.291 420.154 268.228 419.779 268.228 419.779z">
    </path>

  </g>
  <g
     id="g2250"
     style="fill: #ffffff">    <path
       id="path2251"
       d="M233.198 498.753C233.198 498.753 232.89 499.628 233.25 499.886C233.61 500.143 235 500.812 235.67 500.864C236.338 500.916 237.626 500.864 238.037 500.864C238.449 500.864 239.325 500.761 239.325 500.761L239.736 499.731C239.736 499.731 239.735 498.805 238.655 498.65C237.574 498.496 237.368 498.753 236.442 498.804C235.516 498.856 233.508 498.599 233.508 498.599L233.198 498.753z">
    </path>

  </g>
  <g
     id="g2252"
     style="fill: #d88e9b">    <path
       id="path2253"
       d="M229.44 502.923C229.44 502.923 230.213 502.151 230.883 502.151C231.551 502.151 232.581 502.151 233.044 502.356C233.508 502.562 234.125 503.18 234.485 503.232C234.846 503.283 235.155 503.438 235.721 503.438C236.288 503.438 236.699 503.592 236.751 503.85C236.802 504.107 236.853 504.364 236.802 504.622C236.751 504.879 236.492 505.6 235.875 505.6C235.258 505.6 233.044 505.24 232.581 505.034C232.118 504.828 230.47 504.107 230.212 503.901C229.956 503.695 229.44 502.923 229.44 502.923z">
    </path>

  </g>
  <g
     id="g2258"
     style="fill: #000000">    <path
       id="path2259"
       d="M229.64 502.293C229.808 502.307 230.961 501.717 232.014 499.854C232.149 499.615 232.233 499.386 232.294 499.22C232.325 499.136 232.364 499.031 232.383 499.004C232.376 499.014 232.347 499.041 232.298 499.048C232.378 499.035 232.429 498.989 232.523 498.906C232.571 498.864 232.684 498.764 232.727 498.748C232.698 498.758 232.623 498.752 232.576 498.69C232.734 498.9 232.965 498.978 233.188 499.055C233.274 499.084 233.363 499.114 233.451 499.152C234.489 499.597 236.502 499.562 237.477 499.237C238.254 498.978 238.698 498.961 239.281 499.543C239.486 499.748 239.664 499.87 239.795 499.958C239.856 500 239.934 500.052 239.948 500.074C239.944 500.068 239.942 500.057 239.942 500.052C239.935 500.14 239.668 500.487 239.54 500.654C239.472 500.743 239.387 500.818 239.288 500.905C239.077 501.092 238.815 501.324 238.604 501.805C238.207 502.715 238.129 502.78 237.695 503.14L237.633 503.191C237.619 503.205 236.907 503.917 236.907 503.917C236.63 504.149 236.453 504.346 236.31 504.504C236.116 504.721 236.009 504.84 235.753 504.938C235.661 504.958 234.799 505.047 234.696 505.043C234.567 505.03 234.45 505.022 234.347 505.014C233.832 504.977 233.597 504.959 232.726 504.475C232.249 504.211 231.852 503.941 231.5 503.704C230.928 503.316 230.476 503.011 229.975 502.911C229.651 502.846 229.438 502.707 229.343 502.496C229.329 502.465 229.304 502.409 229.235 502.375L229.284 502.713L229.799 502.239L229.64 502.293z">
    </path>

  </g>
  <g
     id="g2262"
     style="fill: #000000">    <path
       id="path2263"
       d="M227.407 503.42C228.045 503.548 231.228 505.06 232.542 505.789C233.755 506.462 235.633 506.421 236.435 506.404C236.434 506.404 236.535 506.402 236.535 506.402C236.592 506.401 236.641 506.4 236.679 506.4C237.325 506.4 237.682 506.101 238.394 505.504C238.397 505.501 238.606 505.326 238.606 505.326C239.199 504.832 239.74 503.594 240.219 502.502L240.228 502.48C240.497 501.865 240.746 501.293 240.94 501.003C241.579 500.045 241.483 499.299 240.612 498.428C239.781 497.598 238.797 497.315 237.84 497.634C237.033 497.902 234.867 497.88 233.989 497.503C233.787 497.416 233.637 497.217 233.492 497.024C233.315 496.785 233.095 496.49 232.739 496.543C232.505 496.578 232.416 496.772 232.281 497.064C232.132 497.388 231.882 497.931 231.269 498.758C228.663 502.281 226.094 501.916 225.606 501.808L225.592 501.805C225.574 501.801 225.562 501.8 225.562 501.8L225.492 501.794L225.434 501.83L224.92 502.147L224.615 502.334L224.929 502.506C225.022 502.557 226.674 503.273 227.407 503.42z">
    </path>

  </g>
  <g
     id="g2256"
     style="fill: #d80000">    <path
       id="path2257"
       d="M227.447 503.216C228.123 503.351 231.312 504.868 232.643 505.607C233.806 506.253 235.644 506.213 236.43 506.196C236.53 506.194 236.616 506.192 236.679 506.192C237.25 506.192 237.567 505.926 238.264 505.342L238.474 505.166C239.031 504.701 239.565 503.477 240.038 502.397C240.308 501.779 240.562 501.195 240.768 500.887C241.347 500.019 241.261 499.371 240.465 498.575C239.692 497.803 238.784 497.539 237.906 497.831C237.051 498.116 234.838 498.093 233.907 497.693C233.653 497.585 233.478 497.352 233.324 497.146C233.158 496.924 233.002 496.714 232.771 496.749C232.49 496.791 232.553 497.373 231.438 498.881C228.51 502.837 225.593 502.012 225.543 502.007L225.028 502.323C225.094 502.359 226.726 503.072 227.447 503.216z">
    </path>

  </g>
  <g
     id="g2260"
     style="fill: #000000">    <path
       id="path2261"
       d="M229.05 502.747L228.961 502.659C229.155 503.09 229.575 503.255 229.894 503.318C230.312 503.401 230.733 503.687 231.267 504.048C231.626 504.291 232.032 504.566 232.524 504.839C233.475 505.368 233.774 505.39 234.316 505.429C234.417 505.437 234.532 505.444 234.661 505.457C234.766 505.468 235.795 505.368 235.903 505.326C236.251 505.192 236.414 505.011 236.62 504.782C236.761 504.625 236.92 504.449 237.188 504.223C237.201 504.211 237.913 503.498 237.913 503.498C237.899 503.512 237.961 503.46 237.961 503.46C238.446 503.057 238.563 502.938 238.986 501.971C239.159 501.575 239.364 501.393 239.563 501.216C239.669 501.123 239.777 501.027 239.87 500.907C240.248 500.415 240.388 500.209 240.353 499.992C240.324 499.815 240.188 499.721 240.028 499.613C239.905 499.53 239.753 499.427 239.575 499.249C238.778 498.451 238.094 498.593 237.345 498.843C236.443 499.143 234.547 499.168 233.615 498.77C233.512 498.726 233.412 498.691 233.322 498.661C233.129 498.595 232.989 498.548 232.909 498.44C232.864 498.382 232.799 498.345 232.726 498.337C232.569 498.321 232.429 498.434 232.247 498.595C232.22 498.619 232.184 498.651 232.172 498.66C232.172 498.659 232.196 498.643 232.235 498.637C232.056 498.664 231.992 498.837 231.903 499.076C231.844 499.238 231.771 499.44 231.651 499.649C230.767 501.217 229.801 501.819 229.608 501.885L229.676 501.879L229.584 501.871L229.517 501.933L229.001 502.408L228.78 502.612L229.05 502.747z">
    </path>

  </g>
  <g
     id="g2254"
     style="fill: #d80000">    <path
       id="path2255"
       d="M229.657 502.086C229.71 502.09 230.805 501.572 231.833 499.752C232.098 499.284 232.152 498.859 232.269 498.842C232.322 498.834 232.656 498.45 232.742 498.565C232.911 498.79 233.206 498.82 233.533 498.961C234.543 499.393 236.501 499.343 237.41 499.04C238.176 498.785 238.74 498.707 239.428 499.396C240.126 500.093 240.496 499.752 239.705 500.78C239.464 501.095 239.083 501.231 238.795 501.888C238.36 502.886 238.271 502.932 237.767 503.352L237.055 504.064C236.377 504.632 236.343 504.935 235.828 505.132C235.767 505.156 234.782 505.26 234.682 505.25C233.89 505.172 233.717 505.265 232.625 504.657C231.391 503.973 230.69 503.265 229.934 503.114C229.256 502.979 229.159 502.569 229.143 502.56L229.657 502.086z">
    </path>

  </g>
  <g
     id="g2266"
     style="fill: #efaf00">    <path
       id="path2267"
       d="M126.671 455.221C126.671 455.221 127.766 458.725 131.49 460.916C135.214 463.106 137.404 463.326 138.5 463.764C139.594 464.201 136.09 459.602 136.966 458.068C137.842 456.535 137.404 458.506 139.814 460.04C142.223 461.572 144.633 462.668 149.452 461.792C154.27 460.916 156.681 458.725 159.528 455.659C162.375 452.592 163.909 449.525 164.128 448.649C164.347 447.773 165.004 449.744 165.004 453.687C165.004 457.63 162.375 467.925 159.966 471.43C157.556 474.935 156.461 477.125 154.052 478.221C151.643 479.316 149.671 481.288 147.919 481.288C146.166 481.288 147.699 482.602 152.738 482.821C157.775 483.04 166.1 480.85 168.947 479.097C171.794 477.344 174.861 474.716 175.737 474.716C176.614 474.716 176.833 474.497 175.299 477.125C173.766 479.754 170.481 486.982 170.481 488.954C170.481 490.925 169.385 495.087 170.918 497.278C172.452 499.468 174.205 502.316 176.395 504.068C178.585 505.821 184.281 508.888 185.814 509.544C187.348 510.202 183.623 507.354 182.529 504.287C181.433 501.221 180.119 499.25 180.776 498.592C181.433 497.935 186.471 501.659 189.318 502.973C192.166 504.287 196.329 504.507 198.081 504.507C199.833 504.507 203.776 506.04 203.776 507.573C203.776 509.106 203.338 517.869 203.338 519.401C203.338 520.935 201.147 517.211 197.205 516.992C193.262 516.773 189.538 517.431 186.909 518.088C184.281 518.745 177.928 518.307 174.205 516.335C170.481 514.364 168.07 513.487 167.414 512.83C166.756 512.173 165.661 516.335 166.319 517.649C166.976 518.964 163.471 514.802 162.813 512.173C162.157 509.544 160.842 504.068 159.966 503.411C159.09 502.755 152.738 499.907 149.233 496.84C145.727 493.773 143.757 491.144 141.566 490.049C139.375 488.954 137.185 486.763 136.528 486.106C135.871 485.449 141.786 487.42 143.976 487.64C146.166 487.858 147.919 486.982 147.919 486.982C147.919 486.982 138.718 484.793 134.556 479.535C130.394 474.277 128.642 472.525 127.547 468.801C126.452 465.078 125.575 458.944 125.575 458.068C125.575 457.192 126.671 455.221 126.671 455.221z">
    </path>

  </g>
  <g
     id="g2272"
     style="fill: #490000">    <path
       id="path2273"
       d="M257.881 403.963C257.881 403.963 251.528 396.734 237.071 395.858C222.614 394.981 222.175 394.106 216.481 394.981C210.785 395.858 188.223 400.677 182.747 404.401C177.271 408.125 169.604 414.04 166.756 417.763C163.909 421.487 159.966 428.716 159.747 431.125C159.528 433.535 157.995 440.763 156.899 443.172C155.804 445.582 152.299 452.811 149.671 453.249C147.042 453.687 145.071 454.344 140.033 450.84C134.994 447.335 131.708 445.582 131.051 444.487C130.394 443.392 130.833 452.373 133.023 454.563C135.214 456.754 129.299 454.563 129.081 453.687C128.861 452.811 131.888 460.682 132.804 461.572C134.857 463.567 140.261 464.505 140.261 464.505C140.261 464.505 135.793 460.325 136.966 458.068C137.643 456.764 138.53 460.812 141.27 461.262C142.585 461.477 149.014 463.982 154.49 460.259C159.966 456.535 162.213 453.273 163.69 449.744C164.69 447.354 165.224 451.716 164.785 454.563C164.347 457.411 163.615 462.836 162.168 465.874C160.94 468.452 158.925 473.944 155.538 476.467C152.552 478.691 151.431 479.925 147.919 481.288C145.663 482.162 151.647 483.294 155.585 483.477C161.304 483.745 168.291 480.192 171.138 478.439C173.985 476.688 176.614 474.716 176.614 474.716C176.614 474.716 172.965 481.665 171.794 483.477C169.807 486.556 168.947 494.868 170.918 497.278C172.89 499.688 174.205 503.192 176.614 504.944C179.023 506.697 185.157 510.42 187.128 511.078C189.1 511.735 183.843 508.888 182.529 504.287C181.214 499.688 181.433 498.812 181.433 498.812C181.433 498.812 187.566 504.944 194.138 505.164C200.709 505.383 201.366 505.821 202.462 506.697C203.557 507.573 204.871 508.888 204.871 508.888C204.871 508.888 202.9 502.316 200.709 500.563C198.519 498.812 205.09 502.535 205.31 504.726C205.528 506.916 206.185 508.449 206.185 508.449C206.185 508.449 207.062 499.468 205.967 497.497C204.871 495.525 203.995 494.868 203.995 494.868C203.995 494.868 210.785 495.963 211.881 498.373C212.976 500.783 213.852 501.44 213.852 501.44C213.852 501.44 213.853 493.335 203.995 487.858C194.138 482.383 189.757 477.125 190.195 469.896C190.634 462.668 190.633 458.068 194.576 453.249C198.519 448.43 195.452 459.82 196.767 461.134C198.081 462.449 198.519 453.03 203.995 451.277C209.471 449.525 209.252 448.43 210.785 448.649C212.319 448.868 209.252 454.344 209.252 456.316C209.252 458.287 209.471 459.382 209.471 459.382C209.471 459.382 211.005 452.153 222.614 453.468C234.224 454.782 245.176 457.849 250.215 452.592C255.254 447.335 258.758 443.173 258.758 438.354C258.758 433.535 261.167 443.172 259.853 446.896C258.539 450.62 256.786 456.535 256.786 456.535C256.786 456.535 262.481 454.344 263.358 452.592C264.233 450.839 265.768 451.497 264.891 453.249C264.015 455.001 264.015 456.973 264.015 456.973C264.015 456.973 269.053 451.059 270.585 446.677C272.119 442.296 275.185 429.372 271.682 425.21C268.177 421.048 268.177 421.048 268.177 421.048C268.177 421.048 275.002 417.309 279.348 421.268C282.647 424.273 279.792 436.789 280.213 440.377C280.822 445.587 280.225 459.382 281.538 462.011C282.853 464.64 287.453 471.869 289.425 472.525C291.396 473.182 289.643 467.706 290.081 467.049C290.519 466.392 299.062 468.363 300.815 466.611C302.567 464.859 303.225 464.859 303.225 464.859C303.225 464.859 299.72 463.106 299.062 462.23C298.405 461.354 300.377 465.078 307.167 457.63C313.958 450.182 309.796 455.439 309.796 455.439C309.796 455.439 302.129 459.383 299.062 457.63C295.996 455.877 289.644 450.401 290.521 431.563C291.396 412.725 291.396 412.725 291.396 412.725C291.396 412.725 290.738 412.287 288.986 410.096C287.234 407.906 279.13 401.992 278.911 401.115C278.69 400.239 265.329 406.153 259.195 404.181C253.062 402.21 257.881 403.963 257.881 403.963z">
    </path>

  </g>
  <g
     id="g2278"
     style="fill: #000000">    <path
       id="path2279"
       d="M164.763 449.804C164.763 449.804 162.745 440.724 167.633 430.03C169.392 426.182 173.076 421.758 175.5 420.547C178.648 418.972 180.776 419.296 180.776 419.296M164.966 449.759L164.966 449.759C164.946 449.668 163.022 440.618 167.822 430.116C169.557 426.319 173.188 421.935 175.592 420.733C178.635 419.211 180.724 419.499 180.745 419.502L180.807 419.091C180.718 419.077 178.578 418.775 175.406 420.361C172.933 421.598 169.211 426.075 167.443 429.943C162.582 440.578 164.539 449.757 164.56 449.849L164.966 449.759z">
    </path>

  </g>
  <g
     id="g2280"
     style="fill: #000000">    <path
       id="path2281"
       d="M177.928 426.963C177.928 426.963 178.742 421.411 182.778 416.655C185.873 413.007 196.329 406.373 197.862 405.497C199.395 404.62 203.995 402.868 207.281 401.773C210.566 400.677 216.262 399.582 217.138 399.582C218.014 399.582 212.757 397.83 211.005 398.268M178.134 426.993L178.134 426.993C178.142 426.938 178.989 421.442 182.937 416.79C185.963 413.223 196.121 406.731 197.965 405.677C199.47 404.817 204.006 403.083 207.347 401.97C210.635 400.874 216.276 399.79 217.138 399.79C217.191 399.79 217.356 399.79 217.422 399.648C217.46 399.568 217.446 399.474 217.387 399.401C217.072 399.018 212.574 397.661 210.955 398.066L211.055 398.47C212.55 398.096 216.783 399.432 217.076 399.676C217.052 399.656 217.01 399.586 217.034 399.5C217.059 399.414 217.131 399.377 217.162 399.373C217.161 399.373 217.154 399.374 217.138 399.374C216.259 399.374 210.535 400.469 207.215 401.575C203.856 402.695 199.285 404.443 197.758 405.316C196.694 405.924 185.855 412.707 182.62 416.521C178.592 421.267 177.731 426.877 177.722 426.933L178.134 426.993z">
    </path>

  </g>
  <g
     id="g2282"
     style="fill: #000000">    <path
       id="path2283"
       d="M197.423 440.325C197.423 440.325 189.645 448.489 188.88 449.744C186.354 453.891 185.533 461.407 184.719 463.106C183.612 465.417 178.213 472.402 176.499 474.845M197.273 440.182C196.955 440.516 189.47 448.376 188.703 449.636C187.025 452.39 186.1 456.576 185.424 459.631C185.075 461.209 184.8 462.455 184.531 463.016C183.744 464.661 180.694 468.785 178.468 471.796C177.579 472.999 176.811 474.038 176.329 474.725L176.669 474.964C177.149 474.281 177.915 473.244 178.803 472.043C181.039 469.019 184.102 464.876 184.906 463.196C185.196 462.591 185.476 461.325 185.831 459.721C186.5 456.694 187.416 452.548 189.058 449.852C189.802 448.631 197.496 440.55 197.574 440.469L197.273 440.182z">
    </path>

  </g>
  <g
     id="g2284"
     style="fill: #000000">    <path
       id="path2285"
       d="M192.823 441.201C192.823 441.201 189.482 447.911 189.482 449.006M192.637 441.108C192.293 441.799 189.274 447.894 189.274 449.006L189.69 449.006C189.69 448.148 192.086 443.148 193.009 441.293L192.637 441.108z">
    </path>

  </g>
  <g
     id="g2286"
     style="fill: #000000">    <path
       id="path2287"
       d="M200.052 446.02C200.052 446.02 196.681 447.763 196.553 452.562M199.957 445.835C199.922 445.854 196.475 447.691 196.345 452.557L196.761 452.568C196.884 447.957 200.115 446.222 200.148 446.205L199.957 445.835z">
    </path>

  </g>
  <g
     id="g2288"
     style="fill: #000000">    <path
       id="path2289"
       d="M226.775 433.753C226.775 433.753 221.958 439.011 219.767 440.325C217.576 441.64 213.55 445.668 212.538 447.115C211.989 447.9 211.293 449.177 211.293 449.177M226.622 433.613L226.622 433.613C226.574 433.665 221.8 438.863 219.66 440.147C217.519 441.431 213.435 445.469 212.367 446.997C211.818 447.782 211.139 449.025 211.11 449.078L211.477 449.277L211.477 449.277C211.482 449.264 212.173 448 212.709 447.235C213.758 445.733 217.772 441.765 219.874 440.503C222.065 439.189 226.731 434.109 226.93 433.894L226.622 433.613z">
    </path>

  </g>
  <g
     id="g2290"
     style="fill: #000000">    <path
       id="path2291"
       d="M221.3 433.535C221.3 433.535 217.357 439.668 216.481 440.763C215.606 441.858 215.01 444.313 215.01 444.313M221.125 433.422L221.125 433.422C221.085 433.483 217.179 439.559 216.319 440.633C215.424 441.751 214.832 444.162 214.808 444.264L215.212 444.362L215.212 444.362C215.218 444.338 215.807 441.939 216.644 440.893C217.517 439.802 221.313 433.898 221.475 433.647L221.125 433.422z">
    </path>

  </g>
  <g
     id="g2292"
     style="fill: #000000">    <path
       id="path2293"
       d="M252.405 428.715C252.405 428.715 258.442 432.617 259.147 437.298M252.292 428.89L252.292 428.89C252.352 428.929 258.259 432.796 258.941 437.329L259.353 437.267C258.643 432.548 252.768 428.702 252.518 428.541L252.292 428.89z">
    </path>

  </g>
  <g
     id="g2294"
     style="fill: #000000">    <path
       id="path2295"
       d="M256.566 427.62C256.566 427.62 259.336 433.415 258.897 436.263M256.379 427.71L256.379 427.71C256.406 427.767 259.116 433.48 258.691 436.231L259.103 436.294C259.546 433.416 256.868 427.769 256.754 427.53L256.379 427.71z">
    </path>

  </g>
  <g
     id="g2296"
     style="fill: #000000">    <path
       id="path2297"
       d="M233.566 419.077C233.566 419.077 238.387 414.258 243.424 414.039C248.462 413.82 250.652 412.287 252.624 411.411C254.596 410.534 255.91 410.315 257.881 412.287C259.853 414.258 262.481 417.544 265.329 419.296C268.177 421.048 267.957 420.611 268.614 421.487M233.714 419.224L233.714 419.224C233.762 419.177 238.536 414.46 243.434 414.247C247.666 414.063 249.897 412.967 251.688 412.086C252.044 411.912 252.38 411.747 252.708 411.601C254.755 410.691 255.906 410.606 257.734 412.434C258.233 412.934 258.78 413.522 259.357 414.145C261.101 416.024 263.074 418.153 265.22 419.474C266.309 420.143 266.944 420.491 267.365 420.721C268.027 421.083 268.067 421.105 268.447 421.611L268.78 421.362C268.346 420.784 268.242 420.727 267.565 420.356C267.147 420.128 266.517 419.783 265.438 419.119C263.341 417.829 261.387 415.722 259.663 413.863C259.083 413.237 258.533 412.645 258.028 412.14C256.052 410.163 254.683 410.268 252.539 411.221C252.204 411.37 251.864 411.537 251.504 411.713C249.747 412.577 247.56 413.651 243.415 413.832C238.356 414.051 233.619 418.731 233.42 418.93L233.714 419.224z">
    </path>

  </g>
  <g
     id="g2298"
     style="fill: #000000">    <path
       id="path2299"
       d="M230.719 414.039C230.719 414.039 233.786 412.068 235.319 412.725C236.853 413.382 238.336 414.812 240.088 414.812M230.831 414.214L230.831 414.214C230.861 414.195 233.823 412.31 235.237 412.916C235.737 413.13 236.228 413.427 236.748 413.741C237.789 414.369 238.865 415.019 240.088 415.019L240.088 414.604C238.981 414.604 237.955 413.984 236.963 413.385C236.454 413.077 235.928 412.759 235.401 412.534C233.785 411.841 230.735 413.781 230.607 413.864L230.831 414.214z">
    </path>

  </g>
  <g
     id="g2300"
     style="fill: #000000">    <path
       id="path2301"
       d="M251.31 402.648C251.31 402.648 253.94 404.181 259.195 404.181M251.205 402.828C251.315 402.892 253.943 404.389 259.195 404.389L259.195 403.974C254.067 403.974 251.441 402.484 251.415 402.469L251.205 402.828z">
    </path>

  </g>

</svg>
