<?xml version="1.0" standalone="no"?>
<!DOCTYPE svg PUBLIC "-//W3C//DTD SVG August 1999//EN"
"http://www.w3.org/Graphics/SVG/SVG-19990812.dtd">
<svg
   xmlns:sodipodi="http://sodipodi.sourceforge.net/DTD/sodipodi-0.dtd"
   xmlns="http://www.w3.org/Graphics/SVG/SVG-19991203.dtd"
   id="svg1"
   sodipodi:docbase="/home/lauris/tmp/manga/"
   sodipodi:docname="/home/lauris/tmp/manga/mangatips3.svg">  <sodipodi:namedview
     id="base">
  </sodipodi:namedview>
  <g
     id="g386"
     style="fill: #f5b0b9; stroke:#000000; stroke-width:">    <path
       d="M199.899 407.938C199.899 407.938 208.768 411.263 212.37 411.817C215.974 412.372 217.914 412.649 220.408 411.54C222.901 410.432 228.999 405.442 230.662 404.057C232.325 402.671 235.928 400.177 237.313 397.683C238.699 395.188 243.134 384.656 244.519 380.222C245.905 375.788 248.676 364.425 248.122 358.051C247.568 351.677 244.519 348.074 242.302 346.133C240.086 344.193 237.592 345.579 234.266 346.133C230.94 346.688 222.625 344.471 219.299 348.074C215.974 351.677 214.033 360.544 213.202 361.099C212.37 361.654 206.274 365.533 204.887 361.099C203.502 356.665 202.67 351.399 199.621 350.845C196.573 350.29 193.525 350.291 190.476 354.448C187.428 358.605 184.379 364.703 183.269 366.088C182.162 367.474 179.943 362.208 176.896 366.088C173.848 369.968 174.956 374.125 176.896 378.005C178.835 381.886 181.884 389.368 184.102 391.862C186.318 394.357 186.873 395.188 189.367 398.792C191.862 402.394 193.525 404.057 195.465 405.165C197.405 406.274 199.899 407.938 199.899 407.938z"
       id="path387">
    </path>

  </g>
  <g
     id="g388"
     style="fill: #000000">    <path
       d="M180.173 370.801C180.173 370.801 182.87 368.49 184.988 368.297C187.107 368.105 189.419 368.489 191.345 368.489C193.271 368.489 199.435 369.838 200.782 370.223C202.13 370.608 206.175 372.149 207.331 372.342M180.456 370.816L180.326 370.979C180.352 370.956 183.026 369.606 185.044 369.423C186.323 369.307 187.918 369.082 189.226 369.177C190.071 369.238 190.929 369.177 191.685 369.177C193.602 369.177 199.456 370.088 200.718 370.448C201.235 370.596 202.172 370.922 203.164 371.268C204.759 371.823 206.565 372.452 207.292 372.573L207.369 372.111C206.682 371.996 204.894 371.374 203.318 370.825C202.319 370.477 201.376 370.149 200.847 369.998C199.418 369.589 193.472 367.947 191.521 367.947C190.781 367.947 189.897 367.843 189.062 367.783C187.735 367.688 186.283 367.944 184.968 368.063C182.799 368.261 179.174 371.13 179.062 371.226L180.456 370.816z"
       id="path389">
    </path>

  </g>
  <g
     id="g390"
     style="fill: #000000">    <path
       d="M215.421 369.067C215.421 369.067 223.317 367.142 226.593 364.83C229.867 362.519 236.608 360.207 237.956 360.207C239.305 360.207 243.155 361.363 243.927 363.867M215.477 369.295C215.801 369.216 223.575 367.635 226.848 365.324C230.109 363.023 236.701 360.442 237.956 360.442C239.353 360.442 242.992 361.631 243.702 363.937L244.151 363.798C243.335 361.149 239.338 359.973 237.956 359.973C236.46 359.973 229.578 361.82 226.356 364.095C223.156 366.355 215.443 368.82 215.365 368.84L215.477 369.295z"
       id="path391">
    </path>

  </g>
  <g
     id="g392"
     style="stroke:#000000; stroke-width:0.5">    <path
       d="M187.685 373.883C187.685 373.883 192.115 370.993 194.427 371.571C196.738 372.149 199.502 373.307 200.658 373.5C201.812 373.692 206.754 373.69 207.523 373.883"
       id="path393">
    </path>

  </g>
  <g
     id="g394"
     style="fill: #000000">    <path
       d="M188.455 382.55C188.455 382.55 186.144 379.854 187.492 378.312C188.84 376.772 191.344 374.653 194.041 374.268C196.738 373.883 199.627 373.69 200.782 373.69C201.938 373.69 205.41 374.954 205.41 374.954M188.633 382.398L188.633 382.398C188.611 382.372 186.188 379.525 187.668 378.467C189.812 376.937 191.477 375.394 193.948 375.04C196.698 374.648 199.676 374.265 200.757 374.265C201.857 374.265 205.296 375.162 205.331 375.175L205.49 374.734C205.347 374.682 201.966 373.456 200.782 373.456C199.689 373.456 196.98 373.525 194.207 373.92C190.935 374.388 188.059 377.31 187.316 378.158C185.851 379.832 188.177 382.586 188.277 382.703L188.633 382.398z"
       id="path395">
    </path>

  </g>
  <g
     id="g396"
     style="fill: #000000">    <path
       d="M218.889 373.305C218.889 373.305 224.859 368.105 227.363 367.526C229.867 366.949 234.683 365.6 236.608 367.526C238.534 369.453 238.92 371.186 238.534 372.342M219.042 373.481L219.042 373.481C219.101 373.43 224.997 368.313 227.415 367.755L228.049 367.606C230.56 367.009 234.579 366.723 236.26 368.405C238.558 370.704 238.877 371.501 238.674 372.111L239.103 372.456C239.335 371.763 239.257 369.845 236.774 367.361C234.906 365.493 230.938 366.234 228.333 366.855L227.384 367.199C224.853 367.783 218.981 372.914 218.734 373.128L219.042 373.481z"
       id="path397">
    </path>

  </g>
  <g
     id="g398"
     style="stroke:#000000; stroke-width:0.5">    <path
       d="M191.345 389.677C191.345 389.677 193.078 388.328 195.003 388.521C196.931 388.714 197.507 388.713 200.011 388.328C202.516 387.943 205.019 387.173 205.79 386.402"
       id="path399">
    </path>

  </g>
  <g
     id="g400"
     style="stroke:#000000; stroke-width:0.5">    <path
       d="M221.585 381.973C221.585 381.973 223.51 382.358 226.014 382.165C228.518 381.973 232.371 381.009 234.104 380.046C235.837 379.083 236.994 379.083 237.764 379.469"
       id="path401">
    </path>

  </g>
  <g
     id="g402"
     style="stroke:#000000; stroke-width:0.5">    <path
       d="M194.234 388.714C194.234 388.714 193.079 390.833 193.849 391.603"
       id="path403">
    </path>

  </g>
  <g
     id="g404"
     style="stroke:#000000; stroke-width:0.5">    <path
       d="M196.545 388.714C196.545 388.714 194.811 389.484 195.967 390.832"
       id="path405">
    </path>

  </g>
  <g
     id="g406"
     style="stroke:#000000; stroke-width:0.5">    <path
       d="M232.371 380.816C232.371 380.816 233.525 380.817 233.333 382.55"
       id="path407">
    </path>

  </g>
  <g
     id="g408"
     style="stroke:#000000; stroke-width:0.5">    <path
       d="M234.104 380.046C234.104 380.046 235.646 381.202 235.26 382.357"
       id="path409">
    </path>

  </g>
  <g
     id="g410"
     style="stroke:#000000; stroke-width:0.5">    <path
       d="M235.837 379.469C235.837 379.469 236.608 379.854 236.801 380.816"
       id="path411">
    </path>

  </g>
  <g
     id="g412"
     style="stroke:#000000; stroke-width:0.5">    <path
       d="M234.709 366.509C234.709 366.509 236.223 365.985 236.223 364.83"
       id="path413">
    </path>

  </g>
  <g
     id="g414"
     style="stroke:#000000; stroke-width:0.5">    <path
       d="M236.604 367.543C236.604 367.543 239.304 366.564 239.497 365.215"
       id="path415">
    </path>

  </g>
  <g
     id="g416"
     style="stroke:#000000; stroke-width:0.5">    <path
       d="M238.07 368.922C238.07 368.922 239.69 368.489 240.074 367.334"
       id="path417">
    </path>

  </g>
  <g
     id="g418"
     style="stroke:#000000; stroke-width:0.5">    <path
       d="M219.427 371.567C219.427 371.567 224.947 369.359 229.711 365.131C231.264 363.753 236.351 363.347 237.122 363.924"
       id="path419">
    </path>

  </g>
  <g
     id="g420"
     style="stroke:#000000; stroke-width:0.5">    <path
       d="M184.411 375.231C184.411 375.231 187.151 377.215 188.692 377.023"
       id="path421">
    </path>

  </g>
  <g
     id="g422"
     style="stroke:#000000; stroke-width:0.5">    <path
       d="M182.484 378.312C182.484 378.312 185.516 379.927 187.056 379.349"
       id="path423">
    </path>

  </g>
  <g
     id="g424"
     style="stroke:#000000; stroke-width:0.5">    <path
       d="M183.832 383.128C183.832 383.128 186.695 382.294 187.658 381.332"
       id="path425">
    </path>

  </g>
  <g
     id="g426"
     style="fill: #000000; stroke:#000000; stroke-width:0.5">    <path
       d="M191.794 375.644C191.794 375.644 190.575 380.432 190.959 382.165C191.345 383.899 191.923 384.862 193.271 386.403C193.271 386.403 194.84 388.311 196.19 388.311C197.539 388.311 200.103 388.478 202.222 387.708C204.34 386.938 204.634 385.632 204.827 383.128C205.02 380.625 205.213 377.735 204.058 376.194C202.902 374.653 201.168 373.69 199.627 373.69C198.086 373.69 195.535 374.072 194.38 374.265C193.225 374.457 192.565 374.488 191.794 375.644z"
       id="path427">
    </path>

  </g>
  <g
     id="g428"
     style="fill: #ffffff">    <path
       d="M203.876 379.177C203.876 379.177 201.982 377.97 200.512 378.121C199.521 378.222 198.987 378.746 198.683 380.039C198.379 381.317 198.601 381.394 199.556 382.936C200.512 384.477 201.482 385.188 202.166 385.381C202.849 385.574 203.107 386.018 203.517 385.44C203.927 384.862 204.548 382.725 204.548 381.762C204.548 380.798 204.422 379.562 203.876 379.177z"
       id="path429">
    </path>

  </g>
  <g
     id="g430"
     style="fill: #ffffff">    <path
       d="M193.135 376.387C193.135 376.387 194.677 375.616 194.677 377.35C194.677 379.083 194.87 379.854 194.291 380.817C193.714 381.78 193.713 382.743 192.943 382.743C192.173 382.743 191.979 381.01 191.979 379.854C191.979 378.698 192.366 376.964 193.135 376.387z"
       id="path431">
    </path>

  </g>
  <g
     id="g432"
     style="fill: #ffffff">    <path
       d="M194.88 382.707C194.88 382.707 195.726 382.423 195.726 383.062C195.726 383.699 195.832 383.983 195.515 384.338C195.198 384.692 195.197 385.046 194.774 385.046C194.352 385.046 194.245 384.409 194.245 383.983C194.245 383.558 194.457 382.919 194.88 382.707z"
       id="path433">
    </path>

  </g>
  <g
     id="g434"
     style="fill: #000000; stroke:#000000; stroke-width:0.5">    <path
       d="M221.11 371.636C221.11 371.636 219.963 374.259 221.585 377.157C222.846 379.413 223.317 380.047 224.666 380.817C226.015 381.587 226.399 381.781 228.133 381.395C229.867 381.009 231.227 381.24 232.383 380.47C233.538 379.699 235.597 379.431 236.174 378.66C236.752 377.889 237.913 373.275 236.438 370.079C235.773 368.64 235.297 366.636 233.323 366.636C231.975 366.636 228.325 367.141 227.363 367.526C226.4 367.912 223.703 369.26 223.125 369.838C222.547 370.416 221.495 370.866 221.11 371.636z"
       id="path435">
    </path>

  </g>
  <g
     id="g436"
     style="stroke:#000000; stroke-width:0.5">    <path
       d="M214.844 384.284C214.844 384.284 217.732 387.365 217.154 388.328C216.577 389.292 216.19 389.677 215.421 390.254"
       id="path437">
    </path>

  </g>
  <g
     id="g438"
     style="fill: #000000">    <path
       d="M216.824 399.444C216.824 399.444 213.688 400.463 212.531 399.885C211.376 399.307 210.984 398.532 211.376 397.959C212.214 396.732 215.421 395.455 216.577 395.262C217.732 395.07 219.658 394.492 220.236 394.685C220.813 394.877 216.75 396.066 215.806 396.611C214.655 397.275 214.604 397.62 214.994 398.088C215.506 398.703 216.824 399.444 216.824 399.444z"
       id="path439">
    </path>

  </g>
  <g
     id="g440"
     style="stroke:#000000; stroke-width:0.5">    <path
       d="M216.769 402.196C216.769 402.196 218.117 404.122 217.732 404.893C217.348 405.663 217.154 406.241 216.191 406.048"
       id="path441">
    </path>

  </g>
  <g
     id="g442"
     style="fill: #ffffff">    <path
       d="M223.139 373.71C223.139 373.71 223.717 371.206 224.487 371.59C225.258 371.976 226.451 373.318 226.606 374.48C226.894 376.655 226.028 376.598 225.258 377.562C224.487 378.524 224.103 378.332 223.717 376.983C223.331 375.635 222.946 374.672 223.139 373.71z"
       id="path443">
    </path>

  </g>
  <g
     id="g444"
     style="fill: #ffffff">    <path
       d="M229.597 374.375C229.597 374.375 229.212 371.109 230.944 371.109C232.679 371.109 234.798 371.382 235.567 372.47C236.338 373.559 236.339 376.009 235.953 377.369C235.567 378.73 234.797 378.457 233.834 377.914C232.871 377.369 231.696 378.081 230.576 376.62C229.943 375.794 229.79 375.191 229.597 374.375z"
       id="path445">
    </path>

  </g>
  <g
     id="g446"
     style="fill: #e5720f; stroke:#000000; stroke-width:0.5">    <path
       d="M212.496 411.867C212.496 411.867 212.679 415.308 212.679 416.226C212.679 417.144 212.2 419.003 211.589 419.768C210.977 420.533 210.49 420.174 209.879 419.868C209.267 419.562 204.219 416.043 203.454 415.432C202.69 414.82 198.712 411.76 198.253 411.148C197.794 410.537 195.5 409.312 195.652 408.395C195.806 407.477 195.193 406.56 197.029 407.171C198.865 407.783 198.791 408.092 199.899 407.938C201.006 407.783 201.431 408.439 202.96 409.052C204.49 409.663 205.274 409.711 206.957 410.323C208.639 410.935 211.316 411.594 211.316 411.594L212.496 411.867z"
       id="path447">
    </path>

  </g>
  <g
     id="g448"
     style="fill: #e5720f; stroke:#000000; stroke-width:0.5">    <path
       d="M202.13 293.729C199.852 294.184 196.385 294.048 193.511 293.729C190.637 293.409 183.614 291.812 173.397 295.324C164.752 298.296 158.481 303.22 149.453 310.01C142.47 315.262 138.599 328.528 138.279 337.148C137.959 345.768 140.833 363.645 144.665 369.393C148.495 375.14 156.477 390.783 158.711 396.21C160.946 401.637 163.5 412.812 159.35 416.004C155.199 419.197 148.981 424.265 144.193 422.349C139.403 420.434 136.281 420.107 135.324 418.192C134.366 416.276 139.644 428.273 145.024 430.664C152.507 433.989 156.796 432.605 159.989 431.648C163.182 430.69 160.56 432.116 158.326 433.712C156.091 435.309 154.657 435.333 153.061 435.652C151.464 435.972 160.308 439.949 170.844 435.798C181.378 431.648 183.294 430.689 185.529 428.455C187.764 426.22 184.252 434.521 187.125 437.714C189.998 440.906 191.914 445.376 194.469 446.014C197.022 446.653 192.872 439.31 195.106 436.756C197.342 434.202 196.703 432.925 196.703 432.925C196.703 432.925 204.365 434.84 208.516 432.286C212.666 429.732 218.412 424.305 219.37 421.112C220.328 417.919 220.009 419.197 220.009 419.197C220.009 419.197 211.388 423.347 210.111 421.75C208.835 420.154 198.299 409.938 196.384 408.661C194.469 407.384 199.576 407.703 201.172 408.98C202.769 410.257 197.98 401.957 195.106 399.083C192.234 396.21 184.252 389.506 182.656 384.398C181.059 379.29 178.505 370.351 179.463 369.393C180.421 368.435 183.613 373.543 184.891 374.82C186.168 376.097 186.486 365.241 189.679 362.368C192.872 359.496 196.703 355.345 197.661 355.026C198.618 354.707 198.3 365.241 200.854 367.157C203.407 369.073 204.365 370.351 205.642 371.308C206.918 372.266 207.877 366.2 207.877 366.2C207.877 366.2 214.9 369.073 216.816 368.754C218.732 368.435 217.136 363.965 217.774 361.411C218.412 358.856 221.924 354.707 221.924 353.43C221.924 352.152 228.948 358.538 229.906 359.814C230.864 361.092 231.502 362.368 231.502 362.368C231.502 362.368 238.525 354.387 238.845 351.833C239.164 349.279 239.803 348.321 239.164 347.363C238.526 346.406 243.952 355.665 244.272 359.814C244.592 363.965 242.677 379.29 241.719 381.524C240.761 383.759 236.291 397.487 238.526 402.595C240.761 407.703 241.079 408.022 242.995 408.661C244.911 409.3 242.677 405.468 244.911 402.275C247.146 399.083 244.91 410.896 248.423 414.727C251.935 418.558 251.615 420.154 251.615 420.154C251.615 420.154 250.339 412.173 253.531 409.938C256.724 407.703 260.873 407.064 266.62 407.384C272.367 407.703 273.325 415.685 288.969 403.872C294.665 399.57 295.992 389.187 295.992 387.59C295.992 385.994 288.968 393.975 285.456 393.975C281.945 393.975 275.24 390.783 272.048 384.398C268.854 378.012 276.517 389.187 283.222 382.801C289.927 376.416 274.609 387.505 276.836 360.773C278.433 341.617 276.836 339.382 276.518 335.551C275.379 321.866 271.728 305.86 257.681 295.644C243.634 285.428 236.61 286.705 230.545 287.024C224.478 287.343 215.22 288.94 211.389 290.217C207.558 291.494 205.323 293.09 202.13 293.729z"
       id="path449">
    </path>

  </g>
  <g
     id="g450"
     style="stroke:#000000; stroke-width:0.5">    <path
       d="M187.765 334.593C187.765 334.593 177.866 346.087 176.59 351.833"
       id="path451">
    </path>

  </g>
  <g
     id="g452"
     style="stroke:#000000; stroke-width:0.5">    <path
       d="M187.445 299.794C187.445 299.794 193.192 299.794 196.065 300.433C198.938 301.071 202.13 301.709 203.407 300.752C204.685 299.794 208.197 295.644 210.112 295.005"
       id="path453">
    </path>

  </g>
  <g
     id="g454"
     style="stroke:#000000; stroke-width:0.5">    <path
       d="M199.577 300.752C199.577 300.752 201.812 300.433 203.088 298.517C204.365 296.602 205.962 295.005 205.962 295.005"
       id="path455">
    </path>

  </g>
  <g
     id="g456"
     style="stroke:#000000; stroke-width:0.5">    <path
       d="M233.418 333.955C233.418 333.955 238.526 338.424 238.526 341.297C238.526 344.171 239.164 347.363 239.164 347.363"
       id="path457">
    </path>

  </g>
  <g
     id="g458"
     style="stroke:#000000; stroke-width:0.5">    <path
       d="M183.933 332.997C183.933 332.997 180.102 339.382 180.421 343.852"
       id="path459">
    </path>

  </g>
  <g
     id="g460"
     style="fill: #fae4b8; stroke:#000000; stroke-width:0.5">    <path
       d="M195.745 314.161C195.745 314.161 200.854 309.053 203.407 315.438C205.962 321.823 207.558 327.25 205.642 332.997C203.727 338.744 198.938 350.556 198.3 352.79C197.661 355.026 198.21 362.1 198.938 364.284C200.534 369.073 206.6 372.585 206.6 372.585L207.877 366.2L217.455 370.031C217.455 370.031 218.285 361.202 219.562 358.329C220.838 355.456 222.244 352.472 222.244 352.472C222.244 352.472 227.352 340.02 222.244 328.847C218.886 321.5 215.22 313.841 210.432 311.287C207.146 309.535 202.45 307.776 200.854 308.095C199.258 308.414 196.385 310.01 195.745 311.606C195.107 313.203 194.787 315.438 194.787 315.438L195.745 314.161z"
       id="path461">
    </path>

  </g>
  <g
     id="g462"
     style="fill: #fae4b8; stroke:#000000; stroke-width:0.5">    <path
       d="M164.777 371.627C164.777 371.627 167.012 382.481 171.481 385.674C175.951 388.867 180.74 397.168 181.379 400.679C182.017 404.191 183.269 410.155 180.775 415.698C178.441 420.884 171.529 425.625 164.701 429.278C163.506 429.917 160.267 431.495 160.267 431.495L150.567 435.93C150.567 435.93 165.184 441.474 176.34 435.098C184.102 430.664 186.486 427.816 186.486 427.816C186.486 427.816 184.706 431.847 186.486 436.437C187.003 437.768 190 442.822 192.234 444.418C194.469 446.014 195.427 445.695 195.427 445.695C195.427 445.695 194.724 434.544 198.236 434.544C201.748 434.544 208.329 434.663 213.756 429.555C219.184 424.447 220.009 420.155 220.009 419.197C220.009 418.239 216.515 421.777 211.406 419.223C206.298 416.669 198.87 411.832 198.056 409.687C196.549 405.718 200.215 408.98 201.172 408.98C202.13 408.98 199.418 401.604 193.333 396.155C190.642 393.745 184.252 389.186 182.017 382.163C182.017 382.163 179.782 377.055 179.782 375.139C179.782 373.224 179.463 369.393 177.548 366.839C173.519 361.469 175.313 356.941 175.632 355.026C175.951 353.11 176.59 351.833 176.59 351.833C176.59 351.833 170.014 349.773 167.651 359.814C166.375 365.242 167.651 371.308 167.97 371.946C168.289 372.585 164.777 371.627 164.777 371.627z"
       id="path463">
    </path>

  </g>
  <g
     id="g464"
     style="fill: #fae4b8; stroke:#000000; stroke-width:0.5">    <path
       d="M261.513 349.598C261.513 349.598 257.682 370.031 257.682 375.14C257.682 380.248 258 390.464 262.151 395.572C266.302 400.68 273.325 406.746 277.156 406.426C280.987 406.107 286.096 407.064 287.691 405.149C289.288 403.233 279.072 410.577 275.879 410.577C272.687 410.577 259.597 408.022 257.362 408.342C255.127 408.661 251.546 411.683 251.546 414.557C251.546 417.43 251.297 419.197 251.297 419.197C251.297 419.197 244.945 413.888 244.626 410.376C244.308 406.864 242.995 411.854 242.995 411.854C242.995 411.854 236.191 406.093 236.191 402.582C236.191 399.07 235.886 393.403 238.18 385.907C240.247 379.152 242.676 371.946 242.995 368.115C243.315 364.284 244.273 359.496 243.635 357.58C242.995 355.665 243.953 353.11 243.953 353.11L248.424 346.405C248.424 346.405 250.976 355.984 250.019 358.857C249.062 361.73 249.381 363.326 249.381 363.326C249.381 363.326 252.254 361.73 256.724 356.622C261.193 351.514 261.513 349.598 261.513 349.598z"
       id="path465">
    </path>

  </g>
  <g
     id="g466"
     style="stroke:#000000; stroke-width:0.5">    <path
       d="M261.513 349.598C261.513 349.598 265.981 334.593 260.555 324.058C255.127 313.523 252.254 308.095 246.188 304.583C240.122 301.071 235.972 299.475 234.375 299.475"
       id="path467">
    </path>

  </g>
  <g
     id="g468"
     style="stroke:#000000; stroke-width:0.5">    <path
       d="M164.777 371.627C164.777 371.627 154.88 361.731 154.88 350.237C154.88 338.744 157.754 334.913 159.989 332.997C162.224 331.082 167.012 326.293 167.012 326.293L162.862 325.974C167.332 317.034 177.867 314.799 177.867 314.799"
       id="path469">
    </path>

  </g>
  <g
     id="g470"
     style="stroke:#000000; stroke-width:0.5">    <path
       d="M244.051 408.791C244.051 408.791 242.856 403.503 244.519 400.178"
       id="path471">
    </path>

  </g>
  <g
     id="g472"
     style="stroke:#000000; stroke-width:0.5">    <path
       d="M186.431 428.033C186.431 428.033 188.201 422.046 191.607 419.405"
       id="path473">
    </path>

  </g>
  <g
     id="g474"
     style="fill: #c10000; stroke:#000000; stroke-width:0.5">    <path
       d="M185.759 430.448C185.759 430.448 178.122 437.097 176.159 439.06C174.196 441.023 167.869 448.877 166.123 450.84C164.378 452.804 161.021 460.503 160.451 462.621C159.577 465.875 158.947 471.862 160.911 475.352C162.874 478.844 164.046 479.858 167.217 482.597C169.655 484.702 172.185 486.329 172.839 488.074C173.494 489.819 175.941 491.854 175.941 493.381C175.941 494.909 177.249 497.745 178.777 497.308C180.304 496.872 182.704 493.163 183.358 490.327C184.013 487.491 184.835 475.731 189.417 469.623C193.998 463.515 198.628 453.023 202.556 450.186C206.482 447.35 216.301 439.06 219.353 437.096C222.409 435.133 237.245 421.825 239.207 419.207C241.17 416.589 242.479 412.008 242.697 411.354C242.916 410.699 240.516 409.172 240.516 409.172C240.516 409.172 238.335 413.099 237.244 415.062C236.153 417.026 232.007 422.698 228.081 425.97C224.154 429.243 214.446 436.27 210.846 439.06C207.915 441.331 198.63 449.75 193.611 455.422C188.594 461.094 185.539 468.73 183.794 471.784C182.05 474.837 179.658 484.919 178.995 485.528C177.164 487.209 173.104 484.218 171.359 482.255C169.615 480.292 163.671 473.973 163.671 468.176C163.671 464.031 164.498 457.687 168.363 452.719C171.3 448.942 175.722 442.986 178.123 440.586C180.522 438.187 185.301 432.849 185.301 432.849L185.759 430.448z"
       id="path475">
    </path>

  </g>
  <g
     id="g476"
     style="fill: #be0003; stroke:#000000; stroke-width:0.5">    <path
       d="M288.947 431.206L295.057 433.388C295.057 433.388 291.347 435.351 288.947 435.787C286.548 436.224 283.712 437.314 281.53 437.314C279.349 437.314 273.543 437.234 271.361 435.27C269.18 433.308 266.041 430.333 262.769 429.679C259.496 429.024 253.419 426.089 247.51 427.242C243.771 427.972 234.845 430.115 231.79 432.951C228.735 435.787 219.952 444.115 217.382 448.576C216.053 450.884 211.501 460.657 209.974 464.148C208.446 467.639 204.738 474.837 204.738 477.674C204.738 480.51 204.249 487.408 205.994 489.372C207.739 491.335 210.41 494.472 212.155 495.127C213.901 495.781 214.555 496 214.555 496C214.555 496 211.21 496.723 208.157 496.723C205.102 496.723 201.684 497.09 199.938 496.436C198.193 495.781 191.018 495.846 189.272 497.155C187.526 498.464 183.141 501.453 182.922 502.981C182.704 504.508 181.395 513.889 183.577 517.597C185.758 521.306 190.627 530.295 196.518 531.386C202.407 532.477 206.047 531.777 213.246 526.542C220.445 521.306 234.406 514.543 236.807 513.452C239.207 512.361 244.662 512.361 245.316 512.579C245.97 512.798 251.3 507.894 251.515 504.031C251.563 503.132 246.624 506.253 245.097 507.125C243.57 507.998 233.535 511.271 230.481 513.234C227.426 515.197 216.301 521.96 214.337 522.833C212.373 523.706 205.829 529.813 200.593 527.851C195.357 525.887 191.43 525.887 189.03 519.779C186.631 513.67 186.195 503.417 189.248 501.89C192.304 500.362 196.884 500.581 201.248 501.017C205.611 501.453 213.028 501.017 216.301 499.054C219.572 497.09 226.117 495.127 227.426 496.217C228.735 497.308 229.608 500.799 228.3 501.89C226.99 502.981 226.99 502.981 226.99 502.981C226.99 502.981 236.808 502.981 236.153 496.436C235.498 489.891 231.571 489.673 228.954 490.109C226.336 490.545 217.61 493.381 214.991 492.291C212.373 491.2 208.447 488.8 208.665 482.255C208.883 475.71 209.974 468.73 213.246 463.93C216.519 459.13 224.356 444.848 226.319 442.667C228.283 440.485 236.852 432.999 240.997 432.126C245.142 431.253 253.404 430.394 256.022 431.268C258.64 432.14 262.114 432.297 267.786 435.788C273.458 439.278 276.731 441.241 281.094 440.15C285.457 439.06 291.785 437.096 293.747 436.224C295.71 435.351 298.11 436.006 298.11 436.006L302.037 437.969C302.037 437.969 300.65 433.523 298.251 432.432C295.852 431.341 291.784 430.988 288.947 431.206z"
       id="path477">
    </path>

  </g>
  <g
     id="g478"
     style="fill: #be0003; stroke:#000000; stroke-width:0.5">    <path
       d="M241.519 523.514C241.519 523.514 236.517 529.142 232.141 531.329C227.765 533.517 216.511 538.207 214.322 540.082C212.134 541.957 205.257 546.647 203.068 549.773C200.879 552.899 196.817 560.089 196.503 563.527C196.19 566.967 194.904 571.909 196.396 578.061C197.981 584.597 198.692 587.286 204.006 590.412C209.32 593.537 212.134 595.102 216.511 594.788C220.887 594.475 221.825 593.537 221.825 593.537C221.825 593.537 219.324 590.412 215.573 586.973C211.822 583.534 209.008 576.032 210.258 571.967C211.509 567.905 217.448 558.838 220.573 556.963C223.7 555.087 232.141 552.586 236.83 554.149C241.519 555.712 249.57 559.25 252.772 561.651C256.524 564.465 259.339 568.529 260.9 571.656C262.463 574.782 260.594 565.002 258.399 562.278C256.713 560.182 254.022 557.588 250.897 555.712C247.772 553.837 240.242 549.116 233.938 549.402C230.177 549.573 222.058 551.852 220.182 553.415C218.306 554.977 213.706 558.948 211.584 561.726C208.743 565.447 207.444 571.967 207.444 574.781C207.444 577.594 209.32 584.472 210.884 586.661C212.446 588.848 215.885 591.037 215.885 591.037C215.885 591.037 209.32 591.35 204.944 586.661C200.568 581.972 198.381 575.436 199.006 571.997C199.63 568.559 201.957 557.527 204.771 554.088C207.584 550.65 213.342 544.065 217.405 542.19C221.47 540.314 229.639 535.36 232.792 533.927C235.416 532.735 239.67 529.628 239.67 529.628C239.67 529.628 242.535 526.763 241.519 523.514z"
       id="path479">
    </path>

  </g>
  <g
     id="g480"
     style="fill: #c10000; stroke:#000000; stroke-width:0.5">    <path
       d="M150.999 636.17C150.999 636.17 151.802 633.863 153.364 633.551C154.926 633.239 163.993 631.677 167.431 631.988C170.869 632.301 175.56 632.613 178.06 633.239C180.56 633.864 181.812 634.802 181.812 634.802C181.812 634.802 189.939 630.426 191.815 629.175C193.69 627.924 202.755 621.359 204.006 621.359C205.257 621.359 204.319 625.737 203.382 628.237C202.444 630.737 198.692 643.555 198.692 643.555C198.692 643.555 204.944 647.618 206.506 648.244C208.07 648.869 217.136 652.933 219.012 652.933C220.887 652.933 221.2 653.871 221.2 653.871L219.324 655.121C219.324 655.121 210.884 653.559 207.133 651.683C203.382 649.808 197.755 646.994 196.503 646.368C195.252 645.743 194.003 644.805 194.003 644.805L200.879 626.361L182.75 637.928C182.75 637.928 176.81 636.052 174.934 635.427C173.058 634.802 164.931 634.177 162.118 634.177C159.304 634.177 152.25 635.545 150.999 636.17z"
       id="path481">
    </path>

  </g>
  <g
     id="g482"
     style="fill: #c10000; stroke:#000000; stroke-width:0.5">    <path
       d="M224.639 649.494C224.639 649.494 234.016 648.869 237.143 648.869C240.269 648.869 245.896 650.432 251.835 650.432C257.774 650.432 261.525 649.808 263.089 649.182C264.652 648.557 264.965 650.432 264.965 650.432C264.965 650.432 260.9 651.996 258.399 652.621C255.898 653.245 252.461 654.495 248.709 653.245C244.958 651.995 240.894 651.37 239.331 651.37C237.768 651.37 229.015 651.683 227.765 651.683C226.514 651.683 222.449 651.995 222.449 651.995L224.639 649.494z"
       id="path483">
    </path>

  </g>
  <g
     id="g484"
     style="fill: #009f00; stroke:#000000; stroke-width:0.5">    <path
       d="M172.247 443.42C172.247 443.42 160.684 452.566 154.926 466.62C153.016 471.284 153.676 477.249 155.864 480.687C158.053 484.125 163.055 488.189 165.242 489.44C167.431 490.69 171.183 493.816 172.12 496.942C173.058 500.068 175.408 503.483 174.031 510.369C173.536 512.84 172.952 521.651 172.745 525.702C172.544 529.638 172.952 542.303 174.309 547.584C175.103 550.672 177.747 567.591 178.372 571.656C178.998 575.719 178.685 591.35 176.81 596.039C174.934 600.728 171.807 607.292 168.994 610.731C166.18 614.17 161.951 620.977 158.182 625.666C155.123 629.472 153.494 632.608 152.243 633.547C150.994 634.484 158.678 632.301 162.429 632.301C166.18 632.301 171.496 631.676 176.185 633.239C180.874 634.802 181.812 634.802 181.812 634.802C181.812 634.802 194.075 628.047 197.201 626.171C200.326 624.296 204.944 621.359 204.944 621.359C204.944 621.359 200.255 637.615 199.63 639.491C199.004 641.367 198.692 643.555 198.692 643.555C198.692 643.555 204.886 648.441 208.012 649.38C211.138 650.317 221.131 653.992 221.131 653.992L223.076 651.058L224.733 649.668C224.733 649.668 232.14 648.869 237.143 648.869C242.144 648.869 248.705 651.445 253.708 650.821C258.71 650.196 264.519 649.091 264.519 649.091C264.519 649.091 257.807 633.472 256.836 627.612C255.784 621.262 254.518 614.675 258.062 605.503C260.239 599.871 263.358 596.781 264.448 587.282C265.397 579.013 262.897 573.898 261.839 571.343C259.495 565.683 250.518 559.56 247.12 557.713C243.083 555.52 238.579 551.668 231.076 553.231C223.574 554.793 220.188 556.923 218.073 558.526C214.707 561.08 210.883 568.529 210.258 570.718C209.633 572.905 210.258 580.096 211.509 581.972C212.76 583.848 218.386 590.099 219.636 591.662C220.887 593.226 220.887 593.226 220.887 593.226C220.887 593.226 217.136 596.039 212.446 594.164C207.758 592.288 203.455 590.876 200.233 585.981C198.463 583.293 195.537 578.92 195.566 571.656C195.581 568.202 199.742 555.561 201.827 552.371C204.769 547.871 210.291 543.049 214.322 540.082C217.596 537.673 231.461 531.69 233.352 530.782C238.151 528.474 241.519 523.514 241.519 523.514C241.519 523.514 246.548 516.732 245.316 512.579C244.816 510.893 242.769 511.01 239.331 512.26C235.892 513.511 227.451 516.949 225.263 518.512C223.076 520.076 213.071 526.328 211.509 527.265C209.946 528.203 205.237 531.423 201.486 531.11C197.734 530.797 194.049 530.538 191.549 528.35C189.049 526.161 184.937 521.638 184.312 518.825C183.688 516.011 181.632 510.85 182.929 506.093C183.753 503.072 185.524 498.309 191.19 496.942C194.288 496.195 203.724 496.766 206.195 497.255C208.665 497.745 213.538 496.307 214.555 496C215.573 495.692 207.273 492.915 206.265 488.364C205.257 483.813 204.006 478.499 206.82 472.247C209.633 465.994 215.885 452.24 217.136 449.739C218.387 447.238 229.388 435.187 231.221 433.873C238.86 428.395 245.055 428.025 247.146 427.856C252.987 427.386 260.714 429.06 263.799 430.846C269.276 434.018 275.281 437.855 279.655 437.621C284.029 437.388 289.035 435.984 290.285 435.359C291.535 434.734 295.057 433.388 295.057 433.388C295.057 433.388 289.034 431.92 287.784 430.357C286.534 428.794 281.221 422.855 276.844 420.667C272.467 418.479 266.216 415.04 264.652 413.789C263.089 412.539 254.022 410.351 254.022 410.351C254.022 410.351 250.897 413.164 251.209 415.665C251.522 418.165 251.615 420.154 251.615 420.154C251.615 420.154 243.448 410.263 243.707 409.1C243.965 407.938 242.458 411.289 241.207 414.727C239.956 418.165 235.58 422.542 234.642 423.793C233.704 425.043 223.7 433.483 220.263 435.984C216.822 438.485 207.132 445.675 205.568 447.238C204.006 448.801 199.63 452.553 197.755 455.053C195.879 457.554 191.19 466.308 189.315 468.496C187.438 470.684 184.937 479.749 184.312 481.625C183.688 483.5 183.999 491.003 182.123 492.879C180.248 494.754 180.909 497.499 178.317 495.57C175.725 493.642 176.54 493.459 175.29 490.957C174.04 488.456 174.212 487.019 169.523 483.894C164.834 480.767 163.89 480.208 162.014 476.457C160.139 472.706 159.56 467.336 160.082 464.588C160.604 461.84 162.118 458.179 162.742 456.616C163.367 455.053 172.247 443.42 172.247 443.42z"
       id="path485">
    </path>

  </g>
  <g
     id="g486"
     style="stroke:#000000; stroke-width:0.5">    <path
       d="M227.846 644.398C227.846 644.398 235.348 628.514 238.235 627.231C241.123 625.948 243.466 627.113 244.108 629.038"
       id="path487">
    </path>

  </g>
  <g
     id="g488"
     style="fill: #f5b0b9; stroke:#000000; stroke-width:0.5">    <path
       d="M212.078 411.85C212.078 411.85 212.601 415.975 212.266 417.316C211.93 418.658 211.406 419.223 211.406 419.223C211.406 419.223 212.601 420 215.117 419.832C217.632 419.664 219.365 419.903 220.009 419.197C220.652 418.49 218.471 423.187 217.801 424.529C217.129 425.871 212.601 429.896 211.259 430.902C209.917 431.909 205.387 433.587 203.878 433.922C202.369 434.257 198.343 433.922 197.839 434.257C197.336 434.593 195.995 435.767 195.827 436.773C195.659 437.78 194.886 443.284 195.155 444.489C195.427 445.695 195.492 446.167 193.646 445.328C191.801 444.489 189.62 440.966 188.781 439.96C187.943 438.954 186.086 434.222 185.594 433.586C185.103 432.951 185.091 432.915 184.42 433.586C183.75 434.257 179.724 438.45 178.885 439.289C178.047 440.128 172.175 446.335 171.84 447.341C171.505 448.348 167.479 453.379 166.976 454.721C166.473 456.063 164.124 461.263 163.957 463.443C163.789 465.624 163.453 469.146 163.957 470.656C164.46 472.166 166.305 475.856 167.479 477.366C168.653 478.875 171.336 482.566 172.175 483.237C173.014 483.908 175.531 485.752 177.04 485.752C178.549 485.752 179.556 484.579 179.892 483.237C180.228 481.894 184.138 470.295 185.489 468.013C187.34 464.885 189.956 459.586 190.963 458.579C191.968 457.573 203.039 444.992 206.394 442.477C210.776 439.191 224.177 428.618 226.188 427.38C230.548 424.696 234.923 418.227 236.083 416.644C237.244 415.062 240.109 409.432 240.109 409.432C240.109 409.432 237.593 405.91 236.922 404.568C236.252 403.226 236.083 399.033 236.083 399.033C236.083 399.033 233.18 402.134 231.67 403.309C230.161 404.483 223.696 409.417 222.857 410.087C222.019 410.758 219.942 412.324 216.892 412.256C215.338 412.222 212.078 411.85 212.078 411.85z"
       id="path489">
    </path>

  </g>
  <g
     id="g490"
     style="stroke:#000000; stroke-width:0.5">    <path
       d="M197.001 442.141C197.001 442.141 197 439.29 201.026 438.451C205.024 437.618 206.73 436.941 209.246 436.27C211.858 435.573 215.787 435.432 215.787 435.432"
       id="path491">
    </path>

  </g>
  <g
     id="g492"
     style="stroke:#000000; stroke-width:0.5">    <path
       d="M185.092 459.586C185.092 459.586 180.084 464.5 179.724 471.16C179.516 475.012 181.066 478.875 181.066 478.875"
       id="path493">
    </path>

  </g>
  <g
     id="g494"
     style="stroke:#000000; stroke-width:0.5">    <path
       d="M183.079 457.741C183.079 457.741 181.905 460.592 182.911 462.773"
       id="path495">
    </path>

  </g>
  <g
     id="g496"
     style="stroke:#c10000; stroke-width:0.5">    <path
       d="M230.381 489.611C230.381 489.611 236.251 487.263 237.258 485.753"
       id="path497">
    </path>

  </g>
  <g
     id="g498"
     style="stroke:#c10000; stroke-width:0.5">    <path
       d="M231.723 489.443C231.723 489.443 237.091 489.275 238.768 488.604"
       id="path499">
    </path>

  </g>
  <g
     id="g500"
     style="fill: #f9a50c; stroke:#000000; stroke-width:0.5">    <path
       d="M370.958 406.016C370.958 406.016 368.707 405.875 368.481 407.004C368.257 408.133 367.55 411.915 366.872 413.722C366.194 415.527 360.324 433.592 358.969 436.527C357.613 439.463 354.001 446.914 352.872 448.495C351.743 450.076 351.518 449.398 350.389 450.076C349.259 450.753 348.38 450.991 347.477 450.991C346.574 450.991 333.001 448.947 328.033 447.592C323.066 446.237 303.873 439.463 302.744 439.011C301.614 438.56 298.228 434.947 296.195 435.173C294.163 435.398 288.97 437.205 287.84 437.656C286.711 438.108 281.97 440.592 278.809 440.14C275.647 439.688 272.034 438.333 268.421 436.076C264.808 433.817 260.307 431.328 253.875 430.409C249.368 429.765 239.606 431.393 237.349 433.199C235.09 435.006 228.783 439.872 227.551 441.269C227.551 441.269 220.777 450.301 219.422 452.785C218.067 455.269 211.744 465.656 210.615 468.817C209.486 471.979 208.343 481.238 208.584 483.495C209.011 487.508 211.739 491.723 214.991 492.291C219.533 493.084 227.109 490.246 229.406 490.08C233.364 489.793 235.621 491.685 235.847 493.943C236.071 496.201 236.81 500.205 233.873 501.334C230.938 502.462 228.011 502.37 226.99 502.981C225.97 503.591 231.281 500.406 229.926 497.245C228.57 494.083 226.2 495.238 224.615 495.914C221.79 497.118 219.422 497.269 216.938 498.398C214.454 499.527 208.809 501.107 205.422 500.882C202.035 500.656 196.615 499.753 194.358 500.205C192.1 500.656 188.261 501.559 187.81 503.817C187.358 506.075 186.341 512.745 187.336 515.836C188.332 518.927 189.269 523.563 196.165 526.172C200.594 527.847 203.282 529.059 208.809 525.946C214.337 522.833 228.218 514.748 230.481 513.234C232.744 511.72 245.075 507.465 248.325 505.398C250.423 504.063 251.515 504.031 251.515 504.031C251.515 504.031 260.229 490.452 262.776 486.205C266.288 480.349 271.131 469.043 273.39 468.592C275.647 468.14 283.093 470.428 288.356 471.44C293.893 472.505 313.368 475.639 318.55 476.043C327.028 476.705 341.131 476.721 345.647 476.721C350.163 476.721 360.55 477.398 362.582 477.172C364.614 476.947 372.969 471.752 373.647 470.172C374.324 468.592 383.356 443.98 384.485 439.237C385.614 434.495 389.002 421.851 390.356 418.915C391.711 415.98 393.517 411.238 393.065 410.561C392.614 409.883 389.718 408.305 389.718 408.305L389.393 411.122C389.393 411.122 387.984 412.747 385.163 412.593C383.358 412.494 382.904 413.27 382.904 413.27L378.614 423.205C378.614 423.205 379.066 413.495 378.389 412.141C377.711 410.786 370.974 410.472 370.54 408.088L370.958 406.016z"
       id="path501">
    </path>

  </g>
  <g
     id="g502"
     style="stroke:#000000; stroke-width:0.5">    <path
       d="M368.374 408.196C368.374 408.196 369.339 411.195 374.441 412.205C376.054 412.524 376.491 413.441 376.717 415.023C376.942 416.603 376.591 424.836 377.042 425.965C377.493 427.094 378.64 428.53 379.317 426.724C379.995 424.918 384.711 415.076 384.711 415.076C384.711 415.076 389 414.173 389.904 413.947C390.808 413.722 392.399 412.783 393.076 411.88"
       id="path503">
    </path>

  </g>
  <g
     id="g504"
     style="stroke:#000000; stroke-width:0.5">    <path
       d="M351.354 449.788C351.354 449.788 355.646 449.11 356.322 450.69C356.999 452.271 358.806 452.497 358.806 452.497"
       id="path505">
    </path>

  </g>
  <g
     id="g506"
     style="stroke:#000000; stroke-width:0.5">    <path
       d="M273.41 468.486C273.41 468.486 264.596 467.242 258.371 470.677C256.116 471.921 253.44 474.32 252.79 476.686"
       id="path507">
    </path>

  </g>
  <g
     id="g508"
     style="stroke:#000000; stroke-width:0.5">    <path
       d="M272.978 468.615C272.978 468.615 264.608 470.332 261.422 473.559"
       id="path509">
    </path>

  </g>
  <g
     id="g510"
     style="stroke:#000000; stroke-width:0.5">    <path
       d="M389.393 411.122C389.393 411.122 390.477 410.797 390.802 410.472"
       id="path511">
    </path>

  </g>
  <g
     id="g512"
     style="stroke:#000000; stroke-width:0.5">    <path
       d="M369.673 407.546L370.648 408.304"
       id="path513">
    </path>

  </g>
  <g
     id="g514"
     style="fill: #f5b0b9; stroke:#000000; stroke-width:0.5">    <path
       d="M375.82 377.872C375.82 377.872 373.751 390.5 373.126 394.564C372.501 398.628 370.468 407.422 370.626 407.85C371.052 409.008 372.268 410.224 375.315 410.819C378.417 411.426 378.441 412.226 378.597 414.883C378.753 417.54 378.597 422.855 378.597 422.855L383.286 412.695C383.286 412.695 386.88 413.164 388.6 411.914C390.32 410.663 389.378 411.159 389.378 411.159C389.378 411.159 390.404 399.543 391.342 396.105C392.279 392.666 394.227 380.81 394.695 380.34C395.165 379.872 398.994 378.245 401.182 373.868C403.37 369.491 403.136 368.93 403.136 368.93C403.136 368.93 398.917 367.993 396.885 368.149C394.853 368.305 390.164 367.367 388.913 366.898C387.662 366.429 382.974 364.241 382.349 364.241C381.723 364.241 376.722 363.147 376.722 363.147C376.722 363.147 376.097 359.865 376.722 358.302C377.346 356.738 377.346 356.113 377.972 356.113C378.597 356.113 383.442 356.426 384.536 355.801C385.631 355.175 386.727 355.031 387.508 353.467C388.29 351.904 387.35 350.643 387.35 350.643C387.35 350.643 381.963 351.068 381.337 350.756C380.712 350.443 378.408 349.945 377.784 350.102C377.159 350.257 370.156 352.362 369.375 352.831C368.594 353.3 366.874 357.364 366.874 358.77C366.874 360.177 365.937 362.834 365.78 363.616C365.623 364.398 365.95 365.716 367.031 368.521C368.25 371.687 368.62 373.384 370.157 374.401C371.098 375.023 373.493 376.433 374.377 376.745C375.445 377.124 375.82 377.872 375.82 377.872z"
       id="path515">
    </path>

  </g>
  <g
     id="g516"
     style="stroke:#000000; stroke-width:0.5">    <path
       d="M380.028 377.03C380.028 377.03 382.349 376.745 382.661 375.964C382.973 375.183 382.661 374.088 382.191 373.775"
       id="path517">
    </path>

  </g>
  <g
     id="g518"
     style="stroke:#000000; stroke-width:0.5">    <path
       d="M391.727 380.81C391.727 380.81 388.6 380.653 388.288 381.278C387.976 381.903 385.318 388.781 385.162 389.875"
       id="path519">
    </path>

  </g>
  <g
     id="g520"
     style="stroke:#000000; stroke-width:0.5">    <path
       d="M390.407 380.864C390.407 380.864 389.301 387.5 389.301 388.594"
       id="path521">
    </path>

  </g>
  <g
     id="g522"
     style="stroke:#000000; stroke-width:0.5">    <path
       d="M387.977 366.651C387.977 366.651 388.357 370.108 386.013 371.046"
       id="path523">
    </path>

  </g>
  <g
     id="g524"
     style="stroke:#000000; stroke-width:0.5">    <path
       d="M388.913 366.898C388.913 366.898 390.944 371.118 390.007 372.525"
       id="path525">
    </path>

  </g>
  <g
     id="g526"
     style="stroke:#000000; stroke-width:0.5">    <path
       d="M373.595 354.707C373.595 354.707 376.409 356.739 377.19 356.426"
       id="path527">
    </path>

  </g>
  <g
     id="g528"
     style="stroke:#000000; stroke-width:0.5">    <path
       d="M376.408 363.147C375.783 363.616 372.971 362.678 372.971 362.678"
       id="path529">
    </path>

  </g>
  <g
     id="g530"
     style="stroke:#000000; stroke-width:0.5">    <path
       d="M375.783 363.303C375.783 363.303 373.751 363.615 373.282 364.241"
       id="path531">
    </path>

  </g>
  <g
     id="g532"
     style="fill: #be0003; stroke:#000000; stroke-width:0.5">    <path
       d="M381.711 350.756C381.711 350.756 381.88 353.144 382.817 353.3C383.755 353.456 386.413 352.674 387.037 352.518C387.662 352.362 387.35 350.643 387.35 350.643C387.35 350.643 384.33 350.662 383.861 350.662C383.393 350.662 381.711 350.756 381.711 350.756z"
       id="path533">
    </path>

  </g>
  <g
     id="g534"
     style="fill: #bed0d8; stroke:#000000; stroke-width:0.5">    <path
       d="M402.043 350.018C402.043 350.018 406.889 349.861 408.139 350.018C409.389 350.174 410.951 351.268 411.107 352.362C411.265 353.456 412.202 361.115 412.671 363.46C413.14 365.804 414.077 369.243 413.452 370.024C412.827 370.806 411.265 372.057 410.014 371.9C408.763 371.743 404.856 370.024 404.231 369.868C403.606 369.712 400.481 368.305 399.698 368.305C398.916 368.305 392.976 367.523 390.944 367.211C388.913 366.898 386.568 365.648 385.943 365.491C385.317 365.335 382.973 363.772 382.973 363.772L384.849 362.834C384.849 362.834 385.161 360.021 384.849 359.239C384.536 358.458 385.162 357.677 385.943 356.895C386.725 356.113 387.506 356.426 387.662 357.051C387.818 357.676 387.975 359.395 388.6 360.49C389.226 361.584 389.85 362.991 390.944 363.147C392.039 363.303 392.977 362.678 393.445 361.428C393.914 360.177 395.166 359.239 395.009 358.458C394.853 357.676 394.227 354.706 394.227 353.925C394.227 353.144 394.695 351.268 395.165 350.955C395.634 350.643 395.947 350.643 395.79 351.737C395.634 352.831 395.635 354.237 395.947 355.332C396.259 356.426 397.353 357.363 397.509 358.145C397.666 358.927 399.073 358.301 399.698 357.676C400.322 357.051 400.322 354.863 400.322 354.238C400.322 353.612 400.636 351.58 401.104 351.111C401.573 350.643 402.043 350.018 402.043 350.018z"
       id="path535">
    </path>

  </g>
  <g
     id="g536"
     style="stroke:#000000; stroke-width:0.5">    <path
       d="M407.356 352.049C407.356 352.049 406.107 354.238 406.731 356.895C407.356 359.552 407.669 362.053 407.356 364.085C407.044 366.117 407.045 368.618 408.139 369.712C409.232 370.806 409.39 371.9 410.014 371.9"
       id="path537">
    </path>

  </g>
  <g
     id="g538"
     style="stroke:#000000; stroke-width:0.5">    <path
       d="M410.326 362.834C410.326 362.834 411.421 369.555 411.265 370.337"
       id="path539">
    </path>

  </g>
  <g
     id="g540"
     style="fill: #6d0000; stroke:#000000; stroke-width:0.5">    <path
       d="M400.479 352.362L405.168 352.518C405.168 352.518 404.387 355.957 404.699 357.207C405.012 358.458 405.167 362.522 405.012 364.085C404.856 365.648 404.387 367.368 404.699 368.149C405.012 368.93 398.604 366.742 396.885 366.742C395.165 366.742 392.352 365.96 390.476 365.648C388.6 365.335 384.849 363.616 384.849 363.616L383.321 362.926C383.321 362.926 384.964 363.763 384.964 359.231C384.964 354.697 385.786 355.175 386.881 354.238C387.976 353.3 387.818 356.582 387.976 357.52C388.132 358.458 388.288 360.49 389.382 361.584C390.476 362.678 391.046 362.964 392.766 361.557C394.486 360.15 394.228 360.02 394.54 359.083C394.853 358.145 393.915 355.488 394.071 354.707C394.227 353.925 394.539 350.955 395.165 350.955C395.79 350.955 395.477 352.675 395.634 353.769C395.79 354.863 396.259 356.426 396.728 356.895C397.197 357.364 397.04 358.614 397.978 358.614C398.916 358.614 400.012 357.364 400.167 356.426C400.322 355.488 400.479 352.362 400.479 352.362z"
       id="path541">
    </path>

  </g>
  <g
     id="g542"
     style="fill: #f5b0b9; stroke:#000000; stroke-width:0.5">    <path
       d="M387.976 350.643C387.976 350.643 389.968 344.663 392.312 343.412C393.614 342.718 393.899 341.955 396.329 342.575C397.631 342.908 397.978 345.172 398.447 345.328C398.916 345.484 400.167 343.296 401.417 343.14C402.667 342.984 404.522 344.019 405.012 344.703C405.794 345.797 406.731 348.767 406.731 349.549C406.731 350.33 402.198 349.549 402.198 349.549C402.198 349.549 400.479 351.581 400.479 353.144C400.479 354.707 400.322 356.582 400.011 357.52C399.698 358.458 398.76 358.457 397.978 358.614C397.197 358.77 395.634 355.801 395.634 355.175C395.634 354.55 395.001 351.233 395.157 350.607C395.313 349.982 394.071 353.925 394.071 354.707C394.071 355.488 394.54 357.832 394.384 359.083C394.227 360.333 393.759 361.115 393.134 361.74C392.508 362.365 391.338 362.75 390.713 361.968C390.087 361.186 388.913 360.177 388.444 359.083C387.976 357.989 387.507 355.801 387.35 355.019C387.193 354.238 387.507 351.58 387.976 350.643z"
       id="path543">
    </path>

  </g>
  <g
     id="g544"
     style="fill: #f5b0b9; stroke:#000000; stroke-width:0.5">    <path
       d="M389.133 347.596C389.133 347.596 387.815 345.755 386.623 345.755C384.904 345.755 382.559 346.854 382.089 348.417C381.62 349.98 381.131 350.607 381.131 350.607C381.131 350.607 381.394 350.943 383.114 350.943C384.833 350.943 387.818 350.643 387.818 350.643L389.133 347.596z"
       id="path545">
    </path>

  </g>
  <g
     id="g546"
     style="fill: #f5b0b9; stroke:#000000; stroke-width:0.5">    <path
       d="M379.535 356.269C379.535 356.269 378.753 358.302 378.753 359.395C378.753 360.49 379.379 362.365 379.535 363.147C379.69 363.929 382.031 363.857 382.773 363.61C384.079 363.175 384.808 362.808 384.964 361.557C385.121 360.307 385.44 358.428 385.284 357.803C385.129 357.178 386.568 354.55 386.568 354.55C386.568 354.55 383.718 355.446 382.035 355.801C380.683 356.085 379.535 356.269 379.535 356.269z"
       id="path547">
    </path>

  </g>
  <g
     id="g548"
     style="fill: #be0003; stroke:#000000; stroke-width:0.5">    <path
       d="M388.444 357.051C388.444 357.051 390.162 357.207 390.944 356.738C391.727 356.269 392.195 357.52 392.195 358.927C392.195 360.333 392.509 361.896 392.195 362.365C391.882 362.834 391.081 362.855 390.32 362.678C389.617 362.516 388.444 360.49 388.288 359.552C388.131 358.614 388.444 357.051 388.444 357.051z"
       id="path549">
    </path>

  </g>
  <g
     id="g550"
     style="fill: #be0003; stroke:#000000; stroke-width:0.5">    <path
       d="M395.634 353.456C395.634 353.456 397.198 353.925 397.822 353.456C398.447 352.987 398.447 354.394 398.447 355.175C398.447 355.957 398.291 358.302 398.291 358.302C398.291 358.302 397.197 359.083 396.571 357.52C396.232 356.674 395.634 355.175 395.634 355.175L395.634 353.456z"
       id="path551">
    </path>

  </g>
  <g
     id="g552"
     style="fill: #be0003; stroke:#000000; stroke-width:0.5">    <path
       d="M379.222 359.708C379.222 359.708 381.39 358.292 381.771 358.975C382.633 360.517 382.191 361.271 382.191 362.053C382.191 362.834 382.191 363.772 382.191 363.772C382.191 363.772 380.857 365.39 380.036 364.158C379.169 362.858 379.222 359.708 379.222 359.708z"
       id="path553">
    </path>

  </g>
  <g
     id="g554"
     style="stroke:#000000; stroke-width:0.5">    <path
       d="M398.447 345.328C398.447 345.328 396.885 347.985 396.416 348.767C395.947 349.549 395.313 350.841 395.157 351.779"
       id="path555">
    </path>

  </g>
  <g
     id="g556"
     style="stroke:#000000; stroke-width:0.5">    <path
       d="M402.198 349.549C402.198 349.549 402.824 348.298 403.762 348.767"
       id="path557">
    </path>

  </g>
  <g
     id="g558"
     style="stroke:#000000; stroke-width:0.5">    <path
       d="M393.289 352.518C392.91 352.139 394.071 352.747 394.071 354.238"
       id="path559">
    </path>

  </g>
  <g
     id="g560"
     style="stroke:#000000; stroke-width:0.5">    <path
       d="M395.165 347.829C395.165 347.829 395.79 348.767 395.79 349.549"
       id="path561">
    </path>

  </g>
  <g
     id="g562"
     style="stroke:#000000; stroke-width:0.5">    <path
       d="M384.113 356.966L385.452 358.138"
       id="path563">
    </path>

  </g>
  <g
     id="g564"
     style="stroke:#000000; stroke-width:0.5">    <path
       d="M386.47 349.785L387.779 350.473"
       id="path565">
    </path>

  </g>
  <g
     id="g566"
     style="stroke:#000000; stroke-width:0.5">    <path
       d="M399.541 351.58L400.479 352.206"
       id="path567">
    </path>

  </g>
  <g
     id="g568"
     style="fill: #bfbfbf; stroke:#000000; stroke-width:0.5">    <path
       d="M377.972 356.113C377.972 356.113 376.878 356.895 376.722 358.302C376.565 359.708 376.095 360.49 376.408 361.428C376.722 362.365 376.565 362.678 377.659 363.147C378.753 363.616 379.535 363.147 379.535 363.147C379.535 363.147 378.91 360.645 379.066 360.02C379.222 359.395 379.535 356.269 379.535 356.269L377.972 356.113z"
       id="path569">
    </path>

  </g>
  <g
     id="g570"
     style="fill: #f9a50c; stroke:#000000; stroke-width:0.5">    <path
       d="M239.67 529.628C239.67 529.628 241.388 531.921 240.529 534.214C239.67 536.506 240.242 536.506 241.103 537.939C241.962 539.372 248.37 546.584 250.377 549.164C252.384 551.742 254.599 554.399 256.168 557.277C257.157 559.092 259.052 563.384 259.052 563.384C259.052 563.384 254.946 558.676 251.221 556.383C247.495 554.09 242.889 550.773 238.749 549.918C237.042 549.564 232.248 549.182 229.426 550.041C227.084 550.753 221.742 552.532 219.736 553.965C217.731 555.398 215.494 557.472 213.112 559.852C211.641 561.325 208.409 568.055 208.146 569.463C207.715 571.751 207.102 576.658 208.781 580.759C209.852 583.371 212.21 587.042 213.356 588.188C214.504 589.335 215.885 591.037 215.885 591.037C215.885 591.037 214.164 593.823 206.14 588.092C202.642 585.593 199.625 579.184 199.262 578.061C197.778 573.469 198.975 567.744 200.121 564.305C201.268 560.866 203.668 553.966 208.451 549.427C211.406 546.624 213.603 544.03 219.897 540.805C224.458 538.467 231.644 533.927 233.938 533.067C236.231 532.207 239.67 529.628 239.67 529.628z"
       id="path571">
    </path>

  </g>
  <g
     id="g572"
     style="stroke:#000000; stroke-width:0.5">    <path
       d="M240.056 535.933C240.056 535.933 236.231 538.226 235.084 539.372C233.938 540.519 233.651 541.092 233.938 542.238"
       id="path573">
    </path>

  </g>
  <g
     id="g574"
     style="fill: #738daa; stroke:#000000; stroke-width:0.5">    <path
       d="M357.04 352.66C357.04 352.66 355.053 354.938 355.534 356.219C356.096 357.711 356.492 359.368 357.04 359.778C357.588 360.188 359.081 357.127 359.081 357.127C359.081 357.127 360.463 355.809 360.873 355.671C361.283 355.534 359.641 353.481 358.819 353.208C357.998 352.934 357.04 352.66 357.04 352.66z"
       id="path575">
    </path>

  </g>
  <g
     id="g576"
     style="fill: #bed0d8; stroke:#000000; stroke-width:0.5">    <path
       d="M382.363 340.614C383.185 339.246 383.047 333.77 382.773 331.58C382.5 329.391 380.584 327.885 379.626 327.063C378.668 326.242 376.664 324.523 374.014 324.599C372.502 324.643 370.591 325.284 370.181 324.874C369.771 324.463 370.181 322.957 368.949 322.41C367.717 321.862 362.849 322.335 360.325 319.261C359.386 318.117 355.808 298.73 355.671 298.182C355.534 297.634 353.07 297.361 352.66 298.182C352.249 299.003 350.06 287.916 350.06 287.916C350.06 287.916 345.133 285.452 343.216 288.053C341.299 290.653 341.847 290.517 341.847 290.517C341.847 290.517 351.702 342.805 352.249 344.858C352.797 346.911 353.071 348.143 353.755 348.827C354.44 349.512 354.165 349.512 353.481 349.786C352.797 350.059 348.963 350.47 348.827 351.292C348.69 352.112 348.964 353.755 348.964 353.755C348.964 353.755 352.524 352.523 354.851 352.386C357.177 352.25 357.588 352.523 358.819 353.208C360.052 353.892 360.872 354.987 362.241 357.04C363.61 359.093 365.8 360.736 366.348 360.736C366.896 360.736 367.668 354.84 368.49 353.882C369.312 352.924 371.567 351.968 373.21 351.694C374.853 351.42 377.982 350.059 378.804 350.196C379.626 350.333 381.131 350.607 381.131 350.607L382.089 348.417C382.089 348.417 381.131 348.417 380.31 347.322C379.488 346.227 378.94 344.995 379.762 343.763C380.584 342.531 381.542 341.983 382.363 340.614z"
       id="path577">
    </path>

  </g>
  <g
     id="g578"
     style="fill: #bed0d8; stroke:#000000; stroke-width:0.5">    <path
       d="M374.917 342.719C373.035 342.524 369.791 339.993 369.012 338.371C368.232 336.748 368.154 332.46 368.828 330.44C369.414 328.682 370.05 327.921 370.05 327.921C370.05 327.921 374.278 325.65 376.8 327.792C377.928 328.75 381.019 330.792 380.565 334.736C380.236 337.576 380.305 339.733 379.591 340.772C378.877 341.811 376.8 342.914 374.917 342.719z"
       id="path579">
    </path>

  </g>
  <g
     id="g580"
     style="fill: #738daa; stroke:#000000; stroke-width:0.1">    <path
       d="M341.948 291.642L340.779 291.836L340.909 292.681L342.077 292.356L341.948 291.642z"
       id="path581">
    </path>

  </g>
  <g
     id="g582"
     style="fill: #738daa; stroke:#000000; stroke-width:0.5">    <path
       d="M344.234 291.901C344.234 291.901 344.947 290.668 345.986 290.538C347.237 290.382 348.193 291.058 348.193 291.058L348.452 292.356C348.452 292.356 346.856 291.94 346.31 292.031C345.531 292.161 344.559 293.459 344.559 293.459L344.234 291.901z"
       id="path583">
    </path>

  </g>
  <g
     id="g584"
     style="fill: #738daa; stroke:#000000; stroke-width:0.5">    <path
       d="M344.818 295.001C344.818 295.001 345.531 293.768 346.57 293.639C347.821 293.482 348.777 294.158 348.777 294.158L349.036 295.456C349.036 295.456 347.44 295.04 346.894 295.131C346.116 295.261 345.143 296.559 345.143 296.559L344.818 295.001z"
       id="path585">
    </path>

  </g>
  <g
     id="g586"
     style="fill: #738daa; stroke:#000000; stroke-width:0.5">    <path
       d="M345.567 298.339C345.567 298.339 346.281 297.106 347.319 296.977C348.57 296.82 349.526 297.496 349.526 297.496L349.786 298.794C349.786 298.794 348.19 298.378 347.644 298.47C346.865 298.599 345.892 299.898 345.892 299.898L345.567 298.339z"
       id="path587">
    </path>

  </g>
  <g
     id="g588"
     style="fill: #738daa; stroke:#000000; stroke-width:0.5">    <path
       d="M346.316 301.759C346.316 301.759 347.03 300.525 348.068 300.396C349.319 300.24 350.275 300.915 350.275 300.915L350.535 302.213C350.535 302.213 348.938 301.798 348.393 301.889C347.614 302.019 346.641 303.316 346.641 303.316L346.316 301.759z"
       id="path589">
    </path>

  </g>
  <g
     id="g590"
     style="fill: #738daa; stroke:#000000; stroke-width:0.5">    <path
       d="M346.914 304.96C346.914 304.96 347.627 303.727 348.666 303.597C349.917 303.441 350.873 304.117 350.873 304.117L351.132 305.414C351.132 305.414 349.536 304.999 348.99 305.09C348.211 305.22 347.238 306.518 347.238 306.518L346.914 304.96z"
       id="path591">
    </path>

  </g>
  <g
     id="g592"
     style="fill: #738daa; stroke:#000000; stroke-width:0.5">    <path
       d="M347.588 308.418C347.588 308.418 348.301 307.185 349.34 307.055C350.591 306.899 351.547 307.574 351.547 307.574L351.806 308.872C351.806 308.872 350.21 308.457 349.664 308.548C348.886 308.677 347.912 309.976 347.912 309.976L347.588 308.418z"
       id="path593">
    </path>

  </g>
  <g
     id="g594"
     style="stroke:#000000; stroke-width:0.5">    <path
       d="M352.527 298.262L357.038 319.017C357.038 319.017 358.477 318.808 360.119 319.355"
       id="path595">
    </path>

  </g>
  <g
     id="g596"
     style="stroke:#000000; stroke-width:0.5">    <path
       d="M352.278 327.923L357.346 347.885L368.095 345.275L362.566 325.773C362.566 325.773 360.263 325.773 357.499 326.388C354.735 327.002 352.278 327.923 352.278 327.923z"
       id="path597">
    </path>

  </g>
  <g
     id="g598"
     style="fill: #738daa; stroke:#000000; stroke-width:0.5">    <path
       d="M353.872 328.277L358.253 346.619L366.192 344.43L361.401 326.361C361.401 326.361 359.135 325.455 357.265 326.04C354.905 326.777 353.872 328.277 353.872 328.277z"
       id="path599">
    </path>

  </g>
  <g
     id="g600"
     style="stroke:#000000; stroke-width:0.5">    <path
       d="M358.238 346.353C358.238 346.353 360.21 344.574 361.418 344.211C363.365 343.628 365.117 343.692 365.831 344.017"
       id="path601">
    </path>

  </g>
  <g
     id="g602"
     style="stroke:#000000; stroke-width:0.5">    <path
       d="M355.252 327.207L359.536 345.121"
       id="path603">
    </path>

  </g>
  <g
     id="g604"
     style="stroke:#000000; stroke-width:0.5">    <path
       d="M356.68 326.169L361.418 344.211"
       id="path605">
    </path>

  </g>
  <g
     id="g606"
     style="stroke:#000000; stroke-width:0.5">    <path
       d="M358.758 325.585L363.3 343.822"
       id="path607">
    </path>

  </g>
  <g
     id="g608"
     style="stroke:#000000; stroke-width:0.5">    <path
       d="M360.25 325.909L364.728 343.757"
       id="path609">
    </path>

  </g>
  <g
     id="g610"
     style="fill: #000000">    <path
       d="M368.802 337.993C368.802 337.993 372.808 339.219 374.606 339.055C376.402 338.892 380.327 337.911 380.327 337.911C380.327 337.911 380.408 340.526 379.428 341.099C378.447 341.671 377.302 342.734 375.913 342.734C374.523 342.734 371.944 341.29 371.498 341.018C370.027 340.118 368.802 337.993 368.802 337.993z"
       id="path611">
    </path>

  </g>
  <g
     id="g612"
     style="fill: #f5b0b9; stroke:#000000; stroke-width:0.5113">    <path
       d="M373.122 338.757C373.122 338.757 372.022 333.591 375.248 333.029C377.7 332.602 378.681 335.936 379.008 336.706C379.334 337.475 379.334 338.159 379.334 338.159C379.334 338.159 377.947 338.929 375.819 338.929C374.43 338.929 373.122 338.757 373.122 338.757z"
       id="path613">
    </path>

  </g>
  <g
     id="g614"
     style="fill: #f5b0b9; stroke:#000000; stroke-width:0.5">    <path
       d="M381.226 342.162L383.106 346.739C383.106 346.739 382.136 348.214 382.089 348.417C382.043 348.619 380.897 348.21 380.489 347.557C380.081 346.903 379.269 345.32 379.346 344.777C379.509 343.633 381.226 342.162 381.226 342.162z"
       id="path615">
    </path>

  </g>
  <g
     id="g616"
     style="fill: #f9a50c; stroke:#000000; stroke-width:0.5">    <path
       d="M108.433 461.717C108.433 461.717 148.503 474.171 150.309 473.811C152.114 473.45 153.919 471.825 153.919 471.825C153.919 471.825 153.822 478.418 155.904 481.031C161.359 487.873 167.275 490.597 169.082 492.402C170.886 494.207 171.247 495.471 171.247 495.471C171.247 495.471 160.779 503.594 154.1 503.052C151.019 502.802 130.995 494.207 128.288 493.305C125.58 492.402 102.079 483.708 101.031 483.377C97.602 482.294 95.977 483.197 95.797 482.475C95.617 481.752 96.519 480.851 98.324 480.489C100.129 480.128 109.335 480.309 109.335 480.309L96.88 476.879C96.88 476.879 98.505 469.479 100.67 467.132C103.323 464.26 103.409 464.875 108.433 461.717z"
       id="path617">
    </path>

  </g>
  <g
     id="g618"
     style="stroke:#000000; stroke-width:0.5">    <path
       d="M111.32 462.8C111.32 462.8 105.364 465.868 102.837 469.118C101.573 470.742 100.31 475.074 100.31 475.074C100.31 475.074 107.349 477.06 108.794 477.962C110.237 478.864 113.486 481.392 112.583 482.113C111.681 482.835 104.28 483.016 104.28 483.016L102.115 483.377"
       id="path619">
    </path>

  </g>
  <g
     id="g620"
     style="fill: #f5b0b9; stroke:#000000; stroke-width:0.5">    <path
       d="M106.292 462.8C106.292 462.8 86.66 457.654 81.327 454.987C75.994 452.32 71.624 449.276 70.481 446.99C69.337 444.704 65.38 433.06 63.052 429.275C62.292 428.04 58.511 411.27 57.939 410.699C57.368 410.128 55.272 410.509 54.891 411.08C54.51 411.651 54.255 413.746 54.637 414.889C55.018 416.032 58.27 426.423 58.861 429.847C58.99 430.598 54.484 421.611 53.214 418.523C52.272 416.232 49.939 409.937 48.796 408.223C47.653 406.509 46.129 404.985 45.367 405.938C44.606 406.889 44.225 407.842 44.225 408.604C44.225 409.366 47.844 418.509 48.034 419.461C48.225 420.414 51.006 429.126 51.006 429.126C51.006 429.126 45.77 416.152 44.682 414.257C43.527 412.246 39.882 407.026 39.311 405.883C38.739 404.74 36.415 402.889 36.415 402.889C36.415 402.889 34.891 403.08 34.51 403.842C34.129 404.604 33.177 406.508 33.939 407.842C34.701 409.175 38.32 413.747 38.51 414.509C38.701 415.27 35.653 411.651 34.701 410.89C33.748 410.128 32.224 410.128 31.843 411.461C31.462 412.794 31.462 415.27 32.034 416.794C32.605 418.318 37.336 427.562 38.098 429.275C38.86 430.989 40.238 434.835 40.708 436.297C41.267 438.029 41.998 440.634 43.405 442.861C44.342 444.347 44.575 448.133 44.003 449.657C43.432 451.181 40.765 452.323 38.289 452.323C35.814 452.323 29.415 451.882 27.51 451.12C25.606 450.357 20.272 449.786 19.129 450.929C17.986 452.072 17.415 452.834 17.796 453.977C18.177 455.12 19.227 456.428 21.469 456.915C24.165 457.501 26.734 457.693 27.936 458.055C29.251 458.451 31.511 459.137 35.32 459.898C39.129 460.66 40.047 460.173 42.905 462.268C45.761 464.363 51.233 465.816 52.556 466.073C55.078 466.561 60.386 466.419 62.862 466.229C65.337 466.038 67.814 465.467 71.052 466.61C74.291 467.753 83.233 472.271 85.138 473.224C87.042 474.176 93.804 477.822 95.137 478.394C96.47 478.965 98.756 480.145 98.756 480.145L108.387 480.134L96.88 476.879C96.88 476.879 98.886 469.465 99.674 468.534C100.963 467.01 106.292 462.8 106.292 462.8z"
       id="path621">
    </path>

  </g>
  <g
     id="g622"
     style="stroke:#000000; stroke-width:0.5">    <path
       d="M38.584 414.569C38.584 414.569 43.005 425.254 43.768 426.207C44.529 427.159 45.519 430.177 46.453 432.161C46.89 433.09 47.869 435.223 48.44 435.793C49.011 436.365 50.861 437.847 51.624 438.418"
       id="path623">
    </path>

  </g>
  <g
     id="g624"
     style="stroke:#000000; stroke-width:0.5">    <path
       d="M49.969 426.332C49.969 426.332 52.004 431.942 52.576 432.323C53.148 432.704 54.862 434.228 55.433 435.181"
       id="path625">
    </path>

  </g>
  <g
     id="g626"
     style="stroke:#000000; stroke-width:0.5">    <path
       d="M58.762 429.849C58.762 429.849 59.614 431.977 61.34 433.249"
       id="path627">
    </path>

  </g>
  <g
     id="g628"
     style="fill: #be0003; stroke:#000000; stroke-width:0.5">    <path
       d="M55.348 410.7C55.348 410.7 56.708 414.069 57.089 414.641C57.47 415.212 58.042 414.641 58.613 414.641C59.185 414.641 58.42 410.698 57.822 410.113C57.224 409.528 56.638 409.763 56.169 409.763C55.7 409.763 55.348 410.7 55.348 410.7z"
       id="path629">
    </path>

  </g>
  <g
     id="g630"
     style="fill: #be0003; stroke:#000000; stroke-width:0.5">    <path
       d="M44.798 405.777C44.798 405.777 45.852 408.942 46.439 409.763C47.025 410.583 48.432 410.7 49.018 410.231C49.604 409.763 49.043 409.144 48.796 408.223C48.549 407.301 46.991 405.342 46.673 405.191C45.473 404.619 44.798 405.777 44.798 405.777z"
       id="path631">
    </path>

  </g>
  <g
     id="g632"
     style="fill: #be0003; stroke:#000000; stroke-width:0.5">    <path
       d="M39.874 407.652C39.874 407.652 38.819 408.239 38.116 408.239C37.412 408.239 35.068 404.722 34.951 404.253C34.833 403.784 35.771 402.612 36.475 402.612C37.178 402.612 38.936 405.777 39.288 406.246C39.64 406.715 39.874 407.652 39.874 407.652z"
       id="path633">
    </path>

  </g>
  <g
     id="g634"
     style="fill: #be0003; stroke:#000000; stroke-width:0.5">    <path
       d="M32.254 410.818C32.254 410.818 34.13 414.335 35.068 415.155C36.006 415.976 37.06 415.507 37.881 415.273C38.702 415.038 36.592 412.459 36.357 412.107C36.123 411.755 34.833 410.583 34.599 410.231C34.364 409.88 32.254 410.818 32.254 410.818z"
       id="path635">
    </path>

  </g>
  <g
     id="g636"
     style="fill: #be0003; stroke:#000000; stroke-width:0.5">    <path
       d="M18.206 450.669C18.206 450.669 23.833 451.607 24.888 452.311C25.943 453.014 26.061 454.421 25.709 455.007C25.357 455.593 24.068 456.179 23.599 456.062C23.13 455.945 18.324 455.241 17.62 454.773C16.917 454.304 16.8 453.131 16.917 452.428C17.034 451.725 18.206 450.669 18.206 450.669z"
       id="path637">
    </path>

  </g>
  <g
     id="g638"
     style="stroke:#000000; stroke-width:0.4455">    <path
       d="M46.475 448.19C46.475 448.19 48.116 451.807 46.577 453.083C45.714 453.798 44.731 453.721 44.218 453.508"
       id="path639">
    </path>

  </g>
  <g
     id="g640"
     style="stroke:#000000; stroke-width:0.5">    <path
       d="M28.465 458.031C28.465 458.031 27.766 456.629 27.999 455.696"
       id="path641">
    </path>

  </g>
  <g
     id="g642"
     style="fill: #f5b0b9; stroke:#000000; stroke-width:0.5">    <path
       d="M153.604 635.378C153.604 635.378 137.966 658.705 135.88 661.572C133.795 664.438 123.37 683.856 121.936 686.202C120.504 688.547 116.047 698.393 116.047 698.393C116.047 698.393 131.32 707.835 133.665 709.398C136.011 710.962 146.765 717.644 148.521 718.65C151.682 720.461 153.113 720.056 153.503 720.056C153.894 720.056 166.504 705.227 168.981 702.882C171.457 700.536 191.656 680.469 194.914 677.602C198.171 674.733 210.552 663.006 212.637 660.529C213.778 659.174 218.383 655.215 218.383 655.215C218.383 655.215 207.685 651.797 205.339 650.755C202.993 649.713 194.003 644.805 194.003 644.805L201.169 626.257L182.273 637.724C182.273 637.724 173.282 634.596 169.241 634.466C165.202 634.336 159.859 634.076 158.555 634.336C157.252 634.596 153.604 635.378 153.604 635.378z"
       id="path643">
    </path>

  </g>
  <g
     id="g644"
     style="fill: #f5b0b9; stroke:#000000; stroke-width:0.5">    <path
       d="M186.704 685.55C186.704 685.55 188.528 704.576 189.18 707.704C189.831 710.831 192.307 726.6 192.567 729.206C192.829 731.812 196.738 750.056 196.868 750.838C196.998 751.62 197.259 753.444 197.259 753.444C197.259 753.444 204.817 750.708 206.512 749.404C208.206 748.102 221.107 735.461 222.149 734.158C223.192 732.854 224.625 733.376 225.668 734.158C226.711 734.939 229.969 741.455 230.099 742.629C230.229 743.802 230.881 750.057 232.966 749.666C235.052 749.274 238.048 748.231 238.309 747.189C238.57 746.148 236.745 742.89 235.702 741.716C234.66 740.543 233.357 735.462 233.357 733.507C233.357 731.552 234.53 722.037 235.442 717.737C236.354 713.438 239.142 691.268 239.482 688.417C240.293 681.644 239.872 664.048 240.133 662.224C240.394 660.398 240.394 651.277 240.394 651.277C240.394 651.277 231.012 651.277 228.666 651.407C226.319 651.537 222.801 651.407 222.541 651.798C222.28 652.189 220.717 654.666 219.805 654.926C218.893 655.186 218.157 654.99 218.157 654.99C218.157 654.99 212.768 660.79 209.509 663.656C208.041 664.948 198.692 673.951 196.738 675.646C194.784 677.34 186.704 685.55 186.704 685.55z"
       id="path645">
    </path>

  </g>
  <g
     id="g646"
     style="stroke:#000000; stroke-width:0.5">    <path
       d="M230.881 735.07C230.881 735.07 231.143 741.716 232.315 743.41C233.487 745.105 233.878 746.016 234.79 745.495C235.702 744.974 235.442 744.192 235.052 743.41"
       id="path647">
    </path>

  </g>
  <g
     id="g648"
     style="fill: #b50000; stroke:#000000; stroke-width:0.5">    <path
       d="M113.821 697.38C113.821 697.38 112.043 699.101 111.113 703.755C110.181 708.409 105.217 718.336 103.046 720.817C100.875 723.3 98.703 725.471 101.185 728.264C103.667 731.056 103.666 732.297 102.425 732.917C101.185 733.537 98.393 736.33 99.633 739.432C100.875 742.534 101.806 745.946 100.564 748.118C99.324 750.289 98.393 754.943 98.393 754.943C98.393 754.943 95.6 755.562 95.911 757.425C96.221 759.287 96.842 762.39 95.6 766.732C94.36 771.075 87.535 791.24 85.053 797.135C82.571 803.029 72.708 830.11 70.788 835.178C68.36 841.591 59.128 865.327 56.588 869.736C51.34 878.847 47.497 887.328 42.683 890.389C34.175 895.8 20.763 901.728 16.731 902.97C12.698 904.211 0.899 904.887 -2.635 907.461C-5.3 909.403 -7.599 914.906 -7.599 916.768C-7.599 918.63 14.739 920.182 21.254 919.871C27.769 919.561 52.277 920.181 54.138 920.181C56 920.181 62.683 908.129 68.1 908.392C70.355 908.502 67.789 920.801 66.857 921.731C65.927 922.662 89.195 922.662 89.195 922.662C89.195 922.662 91.986 909.633 92.607 904.98C93.227 900.326 94.78 891.95 91.986 888.848C89.195 885.745 87.334 886.365 88.264 883.884C89.195 881.401 91.561 879.469 91.864 878.588C92.939 875.46 92.023 873.684 93.574 870.892C95.126 868.101 97.515 864.531 98.029 863.401C99.04 861.174 97.26 859.685 103.465 849.447C109.669 839.21 112.472 831.761 114.023 829.589C115.575 827.418 125.382 807.374 128.796 796.825C132.208 786.276 132.829 781.934 133.759 776.039C134.69 770.144 138.412 749.05 141.515 745.016C144.618 740.982 155.166 729.814 156.096 728.884C157.026 727.953 153.614 724.852 152.994 723.921C152.373 722.989 154.028 723.219 155.549 722.481C157.927 721.328 157.46 719.466 157.148 718.842C156.836 718.217 155.934 717.626 155.934 717.626L152.897 720.258C152.897 720.258 149.86 720.056 147.268 718.111C145.568 716.836 136.952 711.546 133.201 709.046C129.45 706.545 122.728 702.794 120.696 701.231C118.665 699.667 115.628 696.506 113.821 697.38z"
       id="path649">
    </path>

  </g>
  <g
     id="g650"
     style="stroke:#000000; stroke-width:0.5">    <path
       d="M142.266 733.742C142.266 733.742 139.395 738.473 138.927 740.505C138.458 742.537 137.509 744.757 139.332 745.364"
       id="path651">
    </path>

  </g>
  <g
     id="g652"
     style="stroke:#000000; stroke-width:0.5">    <path
       d="M105.535 727.959C105.535 727.959 101.784 725.458 104.128 723.894C106.473 722.332 110.849 721.55 113.193 721.706"
       id="path653">
    </path>

  </g>
  <g
     id="g654"
     style="stroke:#000000; stroke-width:0.5">    <path
       d="M103.346 739.682C103.346 739.682 100.69 737.18 102.877 735.773C105.066 734.366 108.504 734.211 108.973 734.523"
       id="path655">
    </path>

  </g>
  <g
     id="g656"
     style="stroke:#000000; stroke-width:0.5">    <path
       d="M103.495 732.406C103.495 732.406 108.662 730.616 109.755 729.522"
       id="path657">
    </path>

  </g>
  <g
     id="g658"
     style="stroke:#000000; stroke-width:0.5">    <path
       d="M98.393 754.943C98.393 754.943 100.846 755.937 102.877 754.999"
       id="path659">
    </path>

  </g>
  <g
     id="g660"
     style="stroke:#000000; stroke-width:0.5">    <path
       d="M96.409 862.996C96.409 862.996 96.902 860.358 93.464 860.984"
       id="path661">
    </path>

  </g>
  <g
     id="g662"
     style="stroke:#000000; stroke-width:0.5">    <path
       d="M81.116 883.804C81.116 883.804 90.133 879.496 90.133 877.776C90.133 876.056 90.338 876.614 86.743 876.302"
       id="path663">
    </path>

  </g>
  <g
     id="g664"
     style="fill: #ffffff; stroke:#000000; stroke-width:0.5">    <path
       d="M-7.039 914.597C-7.039 914.597 17.796 917.496 25.937 917.496C34.223 917.496 48.136 917.723 50.325 917.723C52.513 917.723 56.89 918.034 56.89 918.034L54.937 921.818C54.937 921.818 27.786 921.64 24.135 921.64C20.713 921.64 11.914 920.653 8.943 920.496C6.722 920.379 6.835 920.157 -8.107 918.576L-7.039 914.597z"
       id="path665">
    </path>

  </g>
  <g
     id="g666"
     style="fill: #ffffff; stroke:#000000; stroke-width:0.5">    <path
       d="M67.987 918.973L89.728 919.282L89.195 922.662C89.195 922.662 67.24 922.466 67.049 922.099C66.857 921.731 67.987 918.973 67.987 918.973z"
       id="path667">
    </path>

  </g>
  <g
     id="g668"
     style="stroke:#000000; stroke-width:0.5">    <path
       d="M74.268 886.071C74.268 886.071 68.488 886.738 68.932 888.739C69.376 890.74 71.821 891.407 74.268 890.519C76.714 889.629 82.494 887.851 83.606 887.851C84.717 887.851 86.052 888.962 85.829 891.407"
       id="path669">
    </path>

  </g>
  <g
     id="g670"
     style="stroke:#000000; stroke-width:0.5">    <path
       d="M99.055 757.069C99.055 757.069 100.611 756.847 101.5 756.847"
       id="path671">
    </path>

  </g>
  <g
     id="g672"
     style="fill: #b50000; stroke:#000000; stroke-width:0.5">    <path
       d="M196.427 749.009C196.427 749.009 191.768 752.399 193.546 754.4C195.325 756.401 203.552 766.629 203.996 767.963C204.44 769.298 203.773 772.631 205.997 773.299C208.221 773.967 213.335 776.856 214.446 777.968C215.557 779.08 218.893 782.859 218.893 782.859C218.893 782.859 216.891 785.751 218.893 786.195C220.894 786.639 225.34 785.973 226.228 787.084C227.118 788.196 226.897 790.42 228.009 791.753C229.119 793.087 232.9 795.532 235.123 795.977C237.346 796.422 236.234 799.091 237.124 800.424C238.013 801.758 242.682 802.869 243.571 803.759C244.461 804.648 253.927 815.215 257.571 818.859C261.062 822.35 275.388 838.093 281.057 842.952C285.084 846.404 288.941 850.236 288.941 852.237C288.941 854.238 290.054 857.796 293.389 858.463C296.723 859.13 301.392 864.465 302.281 865.8C303.171 867.134 300.947 868.912 302.727 871.357C304.505 873.803 303.393 876.249 304.282 878.028C305.172 879.807 306.972 881.826 306.972 881.826C306.972 881.826 303.393 884.252 303.615 886.031C303.838 887.811 302.281 888.477 302.281 888.477C302.281 888.477 286.035 894.553 275.923 895.997C271.349 896.651 267.709 896.276 263.956 897.405C258.771 898.965 257.014 905.82 256.347 907.599C255.679 909.377 283.828 912.268 293.166 912.045C302.504 911.822 318.512 911.378 319.401 911.155C320.29 910.933 328.74 896.037 330.963 895.148C333.185 894.259 334.742 897.371 333.853 900.706C332.964 904.04 331.185 911.822 331.185 911.822C331.185 911.822 339.411 913.6 342.079 913.378C344.747 913.156 352.973 911.822 352.973 911.822C352.973 911.822 352.973 886.922 353.418 882.03C353.863 877.139 353.337 867.653 347.415 861.798C343.831 858.253 339.069 854.216 331.065 845.99C323.06 837.764 318.302 829.459 313.856 824.123C309.409 818.788 292.04 794.866 287.815 789.975C283.591 785.083 266.916 769.52 264.025 767.297C261.136 765.073 259.356 766.852 258.022 759.737C256.688 752.622 254.49 756.155 252.711 755.487C250.933 754.82 244.015 750.399 242.015 746.398C240.015 742.394 237.568 736.169 237.791 731.945C238.013 727.722 239.913 724.146 239.125 722.607C238.336 721.068 234.692 722.891 234.692 722.891C234.692 722.891 232.761 732.34 233.565 736.614C234.49 741.518 239.428 746.5 238.539 747.389C237.649 748.278 234.387 749.414 233.274 749.414C232.163 749.414 231.523 748.197 230.099 742.629C228.675 737.06 224.9 733.069 223.784 733.502C219.305 735.241 209.785 746.864 207.562 748.198C205.339 749.533 197.259 753.444 197.259 753.444L196.427 749.009z"
       id="path673">
    </path>

  </g>
  <g
     id="g674"
     style="stroke:#000000; stroke-width:0.5">    <path
       d="M248.24 757.069C248.24 757.069 251.798 755.513 252.687 755.735"
       id="path675">
    </path>

  </g>
  <g
     id="g676"
     style="stroke:#000000; stroke-width:0.5">    <path
       d="M249.051 759.959C249.051 759.959 252.608 757.068 253.942 759.069C255.275 761.07 253.941 769.743 252.607 771.966"
       id="path677">
    </path>

  </g>
  <g
     id="g678"
     style="stroke:#000000; stroke-width:0.5">    <path
       d="M218.808 783.145C218.808 783.145 220.317 777.961 229.036 778.477"
       id="path679">
    </path>

  </g>
  <g
     id="g680"
     style="stroke:#000000; stroke-width:0.5">    <path
       d="M226.367 787.079C226.367 787.079 228.415 779.985 236.817 783.3"
       id="path681">
    </path>

  </g>
  <g
     id="g682"
     style="stroke:#000000; stroke-width:0.5">    <path
       d="M236.515 796.183C236.515 796.183 237.526 790.717 245.127 793.087C248.106 794.016 249.13 793.977 250.908 793.531"
       id="path683">
    </path>

  </g>
  <g
     id="g684"
     style="stroke:#000000; stroke-width:0.5">    <path
       d="M240.903 799.757C240.903 799.757 238.234 795.977 244.016 796.199"
       id="path685">
    </path>

  </g>
  <g
     id="g686"
     style="stroke:#000000; stroke-width:0.5">    <path
       d="M229.601 789.951C229.601 789.951 225.153 786.838 231.379 786.394"
       id="path687">
    </path>

  </g>
  <g
     id="g688"
     style="stroke:#000000; stroke-width:0.5">    <path
       d="M289.021 851.225C289.021 851.225 289.155 845.99 295.469 847.224"
       id="path689">
    </path>

  </g>
  <g
     id="g690"
     style="stroke:#000000; stroke-width:0.5">    <path
       d="M293.266 854.985C293.266 854.985 290.151 852.607 292.597 851.051C295.042 849.494 300.683 848.745 305.352 849.634"
       id="path691">
    </path>

  </g>
  <g
     id="g692"
     style="stroke:#000000; stroke-width:0.5">    <path
       d="M302.519 866.438C302.519 866.438 302.748 863.218 306.972 862.996C311.196 862.774 319.623 865.577 321.625 864.91"
       id="path693">
    </path>

  </g>
  <g
     id="g694"
     style="stroke:#000000; stroke-width:0.5">    <path
       d="M306.545 871.254C306.545 871.254 302.747 867.47 306.972 867.247C311.197 867.025 314.772 869.253 316.328 869.03"
       id="path695">
    </path>

  </g>
  <g
     id="g696"
     style="stroke:#000000; stroke-width:0.5">    <path
       d="M304.282 887.811C304.282 887.811 311.62 891.591 312.065 892.257"
       id="path697">
    </path>

  </g>
  <g
     id="g698"
     style="stroke:#000000; stroke-width:0.5">    <path
       d="M302.949 888.922C302.949 888.922 305.394 893.592 305.616 894.481"
       id="path699">
    </path>

  </g>
  <g
     id="g700"
     style="stroke:#000000; stroke-width:0.5">    <path
       d="M232.667 749.414C232.667 749.414 234.287 753.058 237.932 752.046"
       id="path701">
    </path>

  </g>
  <g
     id="g702"
     style="fill: #ffffff; stroke:#000000; stroke-width:0.5">    <path
       d="M256.841 905.004C256.841 905.004 278.868 909.097 284.165 909.097C289.462 909.097 305.353 909.338 309.446 909.097C313.541 908.856 321.005 908.856 321.005 908.856L319.322 912.195C319.322 912.195 291.869 912.227 288.499 911.986C285.129 911.745 261.656 909.577 259.489 908.856C257.322 908.134 256.347 907.599 256.347 907.599L256.841 905.004z"
       id="path703">
    </path>

  </g>
  <g
     id="g704"
     style="fill: #ffffff; stroke:#000000; stroke-width:0.5">    <path
       d="M331.84 908.856C331.84 908.856 340.26 910.373 342.201 910.373C345.644 910.373 352.788 909.338 352.788 909.338L352.932 912.803C352.932 912.803 345.766 913.848 342.201 913.613C340.392 913.494 331.065 912.803 331.065 912.803L331.84 908.856z"
       id="path705">
    </path>

  </g>
  <g
     id="g706"
     style="stroke:#000000; stroke-width:0.5">    <path
       d="M197.259 753.444C197.259 753.444 196.224 754.273 195.211 753.665"
       id="path707">
    </path>

  </g>
  <g
     id="g708"
     style="stroke:#000000; stroke-width:0.5">    <path
       d="M238.539 747.389C238.539 747.389 239.754 746.985 239.956 746.175"
       id="path709">
    </path>

  </g>
  <g
     id="g710"
     style="stroke:#000000; stroke-width:0.5">    <path
       d="M153.098 720.258C153.098 720.258 154.718 720.663 155.326 720.258"
       id="path711">
    </path>

  </g>
  <g
     id="g712"
     style="stroke:#000000; stroke-width:0.5">    <path
       d="M149.355 722.481C149.355 722.481 152.08 723.07 152.897 722.891C152.897 722.891 143.583 734.228 142.892 738.118C142.666 739.388 142.266 740.618 143.048 740.463C143.83 740.307 155.529 728.762 155.529 728.762"
       id="path713">
    </path>

  </g>
  <g
     id="g714"
     style="stroke:#000000; stroke-width:0.5">    <path
       d="M218.1 492.465C218.1 492.465 232.147 490.262 235.728 488.059"
       id="path715">
    </path>

  </g>
  <g
     id="g716"
     style="stroke:#000000; stroke-width:0.5">    <path
       d="M224.733 649.668L226.054 647.624"
       id="path717">
    </path>

  </g>

</svg>
