<?xml version="1.0" standalone="no"?>
<!DOCTYPE svg PUBLIC "-//W3C//DTD SVG August 1999//EN"
"http://www.w3.org/Graphics/SVG/SVG-19990812.dtd">
<svg
   sodipodi:docbase="/home/lauris/cvs/sodipodi/samples/"
   sodipodi:docname="/home/lauris/cvs/sodipodi/samples/manga1.svg"
   id="svg1"
   xmlns:sodipodi="http://sodipodi.sourceforge.net/DTD/sodipodi-0.dtd"
   style="fill-opacity:100%; fill:#d80000; stroke-width:1px; stroke-linejoin:miter; stroke-linecap:butt; stroke-opacity:100%; stroke:#000000; "
   xmlns="http://www.w3.org/Graphics/SVG/SVG-19991203.dtd">  <sodipodi:namedview
     id="base">
  </sodipodi:namedview>
  <g
     id="g386"
     style="fill: #8c0000">    <path
       id="path387"
       d="M181.794 686.93C181.496 685.991 180.173 685.474 180.173 685.474L179.873 687.492C177.916 687.687 174.08 687.896 170.522 687.092C166.887 686.271 162.611 685.747 159.956 684.113C158.036 682.932 155.747 681.644 154.623 680.563L154.637 680.504C154.637 680.504 155.065 679.334 154.787 679.216C154.081 678.914 153.783 679.224 153.783 679.213C153.783 679.213 153.284 679.099 152.885 680.596C152.182 683.237 151.383 688.633 150.091 690.57C148.066 693.607 146.041 696.898 146.041 698.417C146.041 699.936 147.56 704.492 145.535 706.771C143.51 709.049 144.023 714.41 144.023 715.929C144.023 717.447 143.798 720.918 142.279 723.196C140.76 725.474 135.643 745.499 133.365 751.32C131.086 757.143 127.796 765.749 127.29 767.015C127.29 767.015 123.942 776.006 124.351 777.437C124.759 778.866 124.147 782.543 123.33 784.79C122.513 787.036 115.773 799.496 115.363 801.13C114.956 802.764 113.934 806.032 114.75 808.075C115.568 810.117 114.547 811.956 114.547 811.956C114.547 811.956 130.275 812.773 132.93 812.16C135.585 811.547 141.509 806.236 141.509 805.419C141.509 804.602 140.487 800.312 140.487 800.312C140.487 800.312 144.776 800.312 145.593 800.108C146.411 799.905 144.981 792.348 145.593 788.67C146.206 784.994 147.636 780.296 147.636 777.845C147.636 775.394 145.593 772.534 144.776 771.514C143.959 770.492 150.291 760.075 151.108 757.011C151.925 753.947 150.904 751.7 151.925 751.496C152.947 751.291 156.01 751.496 157.032 748.637C157.032 748.637 165.788 723.153 167.626 720.294C169.464 717.434 173.748 708.194 174.487 706.919C179.656 697.99 179.975 691.724 180.959 689.242C181.538 687.782 181.837 687.739 181.794 686.93z">
    </path>

  </g>
  <g
     id="g392"
     style="fill: #c68c8c">    <path
       id="path393"
       d="M240.807 589.853C240.807 589.853 242.307 591.56 242.307 592.31C242.307 593.06 242.307 595.516 242.034 596.403C241.762 597.29 241.283 599.541 241.557 600.496C241.829 601.451 242.103 604.18 242.103 604.385C242.103 604.59 241.284 605.34 241.079 605.408C240.874 605.477 239.647 603.84 239.578 603.226C239.511 602.611 239.852 599.132 239.852 598.859C239.852 598.586 240.192 595.585 240.192 594.834C240.192 594.084 240.466 591.9 240.397 591.627C240.328 591.355 240.807 589.853 240.807 589.853z">
    </path>

  </g>
  <g
     id="g394"
     style="fill: #ffb500">    <path
       id="path395"
       d="M200.88 445.646C200.88 445.646 192.201 435.926 190.118 435.926C188.035 435.926 181.786 438.356 179.356 440.092C176.926 441.827 173.454 446.341 173.454 448.077C173.454 449.813 173.801 453.632 174.148 455.368C174.496 457.103 176.579 466.824 176.579 469.254C176.579 471.685 176.926 476.198 176.231 478.975C175.537 481.752 172.759 488.696 171.023 491.474C169.288 494.25 166.511 500.152 164.774 502.235C163.039 504.319 160.261 508.832 159.914 511.262C159.567 513.692 159.914 521.33 159.914 523.76C159.914 526.19 159.914 530.009 161.303 530.356C162.691 530.704 165.122 531.398 165.122 530.356C165.122 529.315 164.08 522.719 165.122 519.594C166.163 516.47 167.899 509.873 169.635 509.179C171.371 508.484 173.106 505.707 177.273 505.36C181.439 505.013 185.258 503.277 186.299 502.93C187.341 502.582 192.548 499.459 192.548 499.459C192.548 499.459 193.59 497.722 190.812 496.334C188.035 494.945 183.869 489.39 183.869 486.613C183.869 483.835 183.998 478.976 184.563 477.239C185.129 475.503 180.397 478.281 180.397 478.281C180.397 478.281 182.133 473.768 183.175 472.726C184.216 471.685 190.465 465.088 192.548 464.394C194.631 463.699 199.838 458.839 200.88 457.103C201.922 455.368 200.88 454.326 200.533 453.284C200.186 452.243 199.144 450.507 199.492 449.466C199.839 448.424 200.88 445.646 200.88 445.646z">
    </path>

  </g>
  <g
     id="g396"
     style="fill: #ffb500">    <path
       id="path397"
       d="M175.689 551.401L178.474 553.955L179.867 554.187L181.723 550.938L184.044 555.347L186.365 556.043L187.293 546.992C187.293 546.992 184.74 545.6 183.812 543.279C182.883 540.958 181.955 538.87 181.955 538.87L179.17 538.638L177.546 546.76L175.689 551.401z">
    </path>

  </g>
  <g
     id="g398"
     style="fill: #ff5400">    <path
       id="path399"
       d="M235.831 444.931C235.831 444.931 241.152 443.563 243.056 438.205C243.841 435.99 242.308 427.991 240.315 424.504C238.322 421.016 231.596 414.29 223.873 413.543C216.151 412.795 211.025 413.85 205.046 415.096C199.068 416.341 196.471 407.564 181.524 413.169C175.265 415.516 169.304 422.023 165.816 425.511C162.329 428.998 158.76 441.178 159.602 444.184C162.344 453.979 174.05 459.878 174.299 466.604C174.548 473.331 174.548 485.288 168.321 488.028C162.093 490.769 151.818 497.445 149.762 500.359C142.288 510.947 140.046 523.527 139.797 529.008C139.547 534.488 139.921 543.581 145.651 555.04C151.381 566.5 154.619 575.468 149.388 579.205C144.156 582.941 138.427 588.172 134.441 587.425C130.455 586.678 139.174 592.159 142.413 592.407C145.651 592.657 140.17 595.148 137.929 595.397C135.686 595.646 139.921 597.888 141.914 598.137C143.907 598.386 147.644 597.639 148.89 596.892C150.135 596.144 148.89 584.685 152.377 577.71C155.865 570.734 158.107 566.25 157.608 564.756C157.11 563.261 156.031 562.265 155.367 561.019C154.702 559.773 155.865 553.545 156.861 552.3C157.858 551.054 159.103 553.296 159.353 552.549C159.602 551.802 164.085 532.869 164.085 530.875C164.085 528.883 167.324 527.139 163.836 525.396C162.261 524.607 159.602 514.683 161.346 510.947C163.089 507.21 171.808 494.505 173.552 489.025C175.296 483.544 179.282 475.323 178.036 471.088C176.791 466.853 175.047 456.142 174.05 451.906C173.054 447.671 179.531 441.692 181.274 440.447C183.019 439.202 188.499 434.967 192.734 438.952C196.969 442.938 199.46 446.177 200.706 446.675C201.951 447.173 213.909 441.194 216.898 440.945C219.888 440.696 229.603 442.44 231.098 443.686C232.592 444.931 235.084 445.678 235.831 444.931z">
    </path>

  </g>
  <g
     id="g404"
     style="fill: #000000">    <path
       id="path405"
       d="M204.005 415.096C204.005 415.096 218.269 416.283 219.514 427.493M203.994 415.239L203.993 415.239C204.135 415.25 218.153 416.547 219.371 427.509L219.656 427.477C219.006 421.619 214.781 418.524 211.352 416.96C207.65 415.27 204.053 414.956 204.017 414.952L203.994 415.239z">
    </path>

  </g>
  <g
     id="g406"
     style="fill: #ff5400">    <path
       id="path407"
       d="M214.532 418.774C214.532 418.774 220.323 418.915 220.67 420.65z">
    </path>

  </g>
  <g
     id="g408"
     style="fill: #000000">    <path
       id="path409"
       d="M214.528 418.918L214.528 418.918C216.107 418.956 220.263 419.348 220.528 420.679L220.81 420.622C220.445 418.794 214.776 418.636 214.535 418.63L214.528 418.918z">
    </path>

  </g>
  <g
     id="g410"
     style="fill: #ff5400">    <path
       id="path411"
       d="M162.229 591.55C162.229 591.55 169.655 589.23 171.744 587.373C173.833 585.516 177.082 580.179 178.242 579.019C179.403 577.858 184.74 573.913 186.365 572.984C187.989 572.056 189.846 569.503 189.613 567.879C189.382 566.254 188.221 563.701 188.221 562.541C188.221 561.381 187.989 556.739 187.293 556.043C186.597 555.347 183.462 555.412 184.279 552.756C184.627 551.625 181.216 546.22 181.216 546.22C181.216 546.22 178.765 552.552 179.867 554.187C180.317 554.853 176.85 553.258 176.85 551.17C176.85 549.081 174.529 558.132 174.529 558.828C174.529 559.524 178.242 559.293 177.546 560.453C176.85 561.613 176.107 563.463 174.761 564.398C173.415 565.332 175.457 566.718 174.529 567.415C173.601 568.111 171.744 567.879 171.048 568.343C170.352 568.807 170.12 569.967 168.031 573.449C165.942 576.93 166.871 579.019 166.639 579.714C166.406 580.411 165.014 585.052 164.318 586.213C163.622 587.373 162.229 591.55 162.229 591.55z">
    </path>

  </g>
  <g
     id="g416"
     style="fill: #000000">    <path
       id="path417"
       d="M143.25 592.847C143.25 592.847 146.375 591.806 147.069 589.376M143.295 592.984C143.426 592.94 146.5 591.89 147.207 589.416L146.931 589.336C146.266 591.664 143.235 592.701 143.205 592.711L143.295 592.984z">
    </path>

  </g>
  <g
     id="g418"
     style="fill: #ff5400">    <path
       id="path419"
       d="M247.803 544.178C247.803 544.178 249.027 553.165 247.803 557.25C246.577 561.335 243.513 567.871 241.88 568.892C240.245 569.914 242.083 565.625 241.471 562.561C240.943 559.926 239.836 564.399 239.019 565.216C238.202 566.033 237.795 567.258 237.795 567.258C237.795 567.258 236.978 555.616 236.568 553.982C236.16 552.348 235.138 547.854 234.935 547.037C234.731 546.22 237.59 544.382 238.202 542.748C238.815 541.114 241.675 537.641 241.675 535.394C241.675 533.148 242.083 530.697 242.9 531.106C243.717 531.514 245.147 532.943 245.76 534.782C246.373 536.62 247.19 539.071 247.599 540.705C248.007 542.339 247.803 544.178 247.803 544.178z">
    </path>

  </g>
  <g
     id="g424"
     style="fill: #96d396">    <path
       id="path425"
       d="M192.9 499.321C192.9 499.321 187.253 502.311 184.098 503.141C180.942 503.972 177.663 504.024 173.216 505.93C169.617 507.473 167.19 510.541 166.494 511.777C164.476 515.356 163.338 521.742 163.338 523.236C163.338 524.731 163.504 531.374 162.84 533.201C162.176 535.028 160.681 541.505 160.183 542.668C159.685 543.83 159.187 550.307 158.522 550.639C157.858 550.972 155.865 551.137 155.533 552.134C155.201 553.13 155.367 555.123 155.367 555.954C155.367 556.784 155.034 558.112 154.702 559.773C154.37 561.434 154.536 563.925 156.197 564.922C157.858 565.918 159.352 567.911 161.677 568.575C164.003 569.24 165.498 570.236 169.483 570.07C173.469 569.904 175.13 569.074 175.628 568.243C176.126 567.413 177.123 563.095 177.123 563.095C177.123 563.095 179.116 561.268 179.116 559.939C179.116 558.61 178.093 557.414 176.765 556.915C175.435 556.417 178.451 549.643 178.617 548.148C178.783 546.653 180.444 541.505 180.776 540.509C181.108 539.512 181.274 537.519 181.274 537.519C181.274 537.519 181.108 541.671 182.935 544.66C184.762 547.649 185.427 547.982 185.427 548.978C185.427 549.975 184.928 555.456 185.427 556.452C185.925 557.448 187.918 557.282 187.752 558.777C187.585 560.272 186.423 563.095 187.253 563.925C188.084 564.756 188.416 566.25 188.416 566.915C188.416 567.579 188.582 570.07 187.918 570.9C187.253 571.731 183.6 574.388 183.6 574.388C183.6 574.388 177.123 580.035 174.964 582.526C172.805 585.017 166.494 594.815 165.332 597.141C164.169 599.465 161.843 605.112 161.346 607.438C160.847 609.762 160.017 612.752 160.017 613.417C160.017 614.08 157.36 627.367 157.858 627.865C158.356 628.363 159.187 628.363 159.187 628.363C159.187 628.363 159.067 626.219 160.064 626.053C161.06 625.888 168.261 623.475 175.13 624.378C181.078 625.16 185.951 626.225 190.151 628.024C193.503 629.461 199.025 632.491 199.495 633.853C200.01 635.343 199.875 635.837 199.543 636.501C199.211 637.165 201.038 636.833 201.204 635.837C201.37 634.84 201.204 633.512 202.532 633.512C203.861 633.512 207.183 634.011 207.847 634.84C208.511 635.67 208.844 636.667 209.508 637.497C210.172 638.328 212.165 639.324 212.663 638.826C213.161 638.328 211.334 638.328 211.169 637.332C211.003 636.335 211.667 634.176 213.161 633.179C214.656 632.183 220.302 628.695 222.627 627.698C224.953 626.702 234.917 622.052 236.744 621.222C238.571 620.392 243.388 617.236 244.384 616.904C245.381 616.572 247.207 615.907 248.037 615.907C248.868 615.907 249.2 616.904 249.698 617.07C250.196 617.235 250.529 615.077 248.868 614.413C247.207 613.748 245.713 612.918 245.381 611.756C245.049 610.593 243.222 608.766 242.392 608.601C241.56 608.434 239.899 607.438 239.899 607.438C239.899 607.438 241.299 606.896 241.56 605.776C241.697 605.193 240.231 603.452 240.066 602.787C239.899 602.123 241.062 593.653 240.897 592.989C240.731 592.325 239.236 583.19 239.402 581.363C239.567 579.536 239.402 568.077 238.903 563.593C238.405 559.109 237.408 552.134 236.744 550.473C236.08 548.812 235.914 546.653 235.914 546.653C235.914 546.653 239.734 544.162 241.062 539.18C242.392 534.198 242.593 535.076 242.713 533.564C242.821 532.199 245.049 537.021 245.546 537.852C246.045 538.681 245.214 539.844 245.546 541.505C245.879 543.166 248.204 544.992 250.362 544.328C252.522 543.664 249.698 545.989 251.192 547.151C252.688 548.314 254.349 548.812 254.349 548.812C254.349 548.812 261.655 544.826 263.981 542.833C266.307 540.84 269.96 536.689 269.296 535.028C268.631 533.367 265.808 533.201 265.476 532.039C265.144 530.875 264.646 526.558 263.482 525.727C262.32 524.897 260.659 525.894 260.659 525.894C260.659 525.894 255.179 519.417 254.349 517.59C253.518 515.763 250.694 509.784 249.698 507.957C248.702 506.131 247.422 503.017 245.546 501.314C244.759 500.6 242.557 499.985 241.228 499.985C239.899 499.985 228.606 493.841 227.111 500.65C225.617 507.459 214.324 502.809 211.667 501.812C209.01 500.815 198.547 497.827 196.886 498.325C195.225 498.823 192.9 499.321 192.9 499.321z">
    </path>

  </g>
  <path
     id="path1572"
     style="fill-opacity:100%; fill:#e5e5e5; stroke-width:1px; stroke-linejoin:miter; stroke-linecap:butt; stroke-opacity:100%; stroke:#000000; "
     d="M 215.035 591.101 C 213.683 588.623 210.305 587.271 207.183 586.346 C 204.061 585.42 199.717 588.172 199.717 588.172 C 198.59 589.298 196.788 591.776 196.563 594.029 C 196.338 596.282 198.365 599.66 199.717 601.463 C 201.068 603.265 204.447 602.814 208.052 602.589 C 211.656 602.364 213.683 600.787 215.26 598.76 C 216.837 596.732 216.387 593.579 215.035 591.101 z M 212.732 597.744 C 211.706 599.064 210.387 600.09 208.04 600.237 C 205.694 600.383 203.494 600.677 202.615 599.503 C 201.735 598.33 200.415 596.131 200.562 594.665 C 200.709 593.198 201.881 591.585 202.615 590.852 C 202.615 590.852 205.442 589.061 207.475 589.663 C 209.507 590.266 211.706 591.146 212.586 592.758 C 213.465 594.372 213.759 596.424 212.732 597.744 z ">
  </path>
  <g
     id="g430"
     style="fill: #ffc4c4">    <path
       id="path431"
       d="M203.363 500.65C203.363 500.65 207.349 504.636 208.511 505.798C209.674 506.961 212.165 510.116 213.493 510.615C214.822 511.113 217.479 513.604 218.642 513.106C219.805 512.607 221.299 511.943 222.627 510.78C223.956 509.618 226.779 508.622 226.779 508.622C226.779 508.622 226.946 510.615 226.946 511.611C226.946 512.607 225.451 518.088 225.119 519.085C224.787 520.081 222.96 524.067 222.295 525.396C221.631 526.724 220.303 531.54 219.971 533.035C219.639 534.53 218.643 539.678 218.476 540.342C218.31 541.007 217.644 543.166 217.313 543.83C216.981 544.494 215.818 544.494 215.652 543.996C215.487 543.498 214.324 539.844 213.992 538.681C213.659 537.519 212.663 534.529 211.169 531.706C209.674 528.883 209.009 527.056 208.179 525.894C207.349 524.731 206.186 522.406 205.023 520.413C203.861 518.42 202.865 516.261 202.699 514.601C202.532 512.939 201.37 510.116 201.204 508.954C201.038 507.791 201.204 503.639 201.536 502.643C201.868 501.647 203.363 500.65 203.363 500.65z">
    </path>

  </g>
  <g
     id="g436"
     style="fill: #000000">    <path
       id="path437"
       d="M214.49 528.385C214.49 528.385 216.765 531.068 217.147 533.367C217.479 535.36 217.602 537.338 216.272 539.996C215.798 540.946 215.156 541.369 215.156 541.369M214.381 528.478L214.381 528.478C214.403 528.504 216.634 531.158 217.005 533.391C217.31 535.22 217.494 537.231 216.144 539.931C215.693 540.832 215.083 541.246 215.077 541.25L215.235 541.489C215.263 541.471 215.914 541.034 216.401 540.06C217.79 537.282 217.602 535.219 217.289 533.344C216.904 531.032 214.693 528.402 214.6 528.292L214.381 528.478z">
    </path>

  </g>
  <g
     id="g438"
     style="fill: #000000">    <path
       id="path439"
       d="M217.03 528.668C216.993 528.71 216.091 529.756 216.14 530.597M216.922 528.573C216.882 528.619 215.943 529.703 215.996 530.605L216.283 530.588C216.237 529.802 217.13 528.773 217.139 528.762L216.922 528.573z">
    </path>

  </g>
  <g
     id="g440"
     style="fill: #000000">    <path
       id="path441"
       d="M216.101 540.339C216.101 540.339 216.53 541.198 217.131 541.713M215.973 540.403C215.99 540.439 216.422 541.294 217.037 541.822L217.226 541.603C216.653 541.114 216.233 540.283 216.229 540.274L215.973 540.403z">
    </path>

  </g>
  <g
     id="g442"
     style="fill: #000000">    <path
       id="path443"
       d="M202.201 511.943C202.201 511.943 214.49 516.925 215.652 518.586C216.346 519.577 216.483 521.41 216.151 521.908M202.147 512.077L202.147 512.077C202.269 512.126 214.41 517.062 215.535 518.669C216.196 519.613 216.331 521.378 216.031 521.828L216.271 521.987C216.661 521.401 216.469 519.501 215.771 518.504C214.597 516.827 202.758 512.014 202.254 511.81L202.147 512.077z">
    </path>

  </g>
  <g
     id="g444"
     style="fill: #000000">    <path
       id="path445"
       d="M219.141 520.912C219.141 520.912 219.141 518.088 221.631 517.59C222.816 517.353 225.119 516.095 225.617 515.929M219.284 520.912L219.284 520.912C219.284 520.801 219.315 518.2 221.659 517.731C222.483 517.566 223.791 516.94 224.746 516.482C225.157 516.286 225.513 516.116 225.663 516.065L225.572 515.793C225.404 515.849 225.059 516.014 224.622 516.223C223.734 516.648 222.392 517.291 221.603 517.449C219.026 517.964 218.996 520.882 218.996 520.912L219.284 520.912z">
    </path>

  </g>
  <g
     id="g446"
     style="fill: #000000">    <path
       id="path447"
       d="M218.974 513.937C218.974 513.937 216.734 515.464 217.646 517.59C218.144 518.752 218.144 519.417 218.144 519.417M218.894 513.817C218.869 513.833 216.566 515.437 217.514 517.647C217.991 518.761 218 519.41 218 519.417L218.287 519.417C218.287 519.388 218.282 518.709 217.777 517.533C216.925 515.543 218.968 514.115 219.055 514.055L218.894 513.817z">
    </path>

  </g>
  <g
     id="g448"
     style="fill: #c18787">    <path
       id="path449"
       d="M202.865 502.144C202.865 502.144 209.343 508.622 210.006 510.448C210.671 512.275 212.663 515.431 214.157 515.763C214.157 515.763 217.313 515.929 217.646 515.099C217.978 514.268 218.642 513.438 218.144 512.939C217.646 512.441 212.996 509.618 211.667 508.29C210.338 506.961 208.179 503.805 206.518 502.809C204.857 501.812 203.861 500.815 203.861 500.815L202.865 502.144z">
    </path>

  </g>
  <g
     id="g450"
     style="fill: #ffc4c4">    <path
       id="path451"
       d="M156.315 565.067C156.315 565.067 156.241 568.349 154.889 570.377C153.538 572.404 149.934 582.541 149.483 584.568C149.032 586.595 147.681 600.336 147.456 602.139C147.231 603.941 147.456 609.797 147.231 610.474C147.005 611.149 148.007 613.005 150.485 612.33C152.963 611.653 154.439 610.248 155.565 610.248C156.691 610.248 157.142 606.644 157.367 605.066C157.592 603.49 161.363 593.378 162.489 591.576C163.616 589.774 166.46 584.906 166.91 581.752C167.361 578.598 168.63 575.107 168.856 574.206C169.081 573.305 170.793 570.06 170.793 570.06C170.793 570.06 166.491 570.105 163.887 569.311C158.978 567.813 158.376 566.669 157.813 566.232C157.065 565.649 156.315 565.067 156.315 565.067z">
    </path>

  </g>
  <g
     id="g456"
     style="fill: #000000">    <path
       id="path457"
       d="M164.576 569.926C164.576 569.926 163.449 571.277 163.674 571.953C163.9 572.629 164.576 575.332 163.9 577.134M164.465 569.833C164.345 569.978 163.294 571.268 163.538 571.998C163.798 572.78 164.4 575.391 163.765 577.083L164.035 577.185C164.702 575.405 164.1 572.772 163.811 571.908C163.647 571.416 164.387 570.377 164.686 570.018L164.465 569.833z">
    </path>

  </g>
  <g
     id="g458"
     style="fill: #ffc4c4">    <path
       id="path459"
       d="M144.977 602.364C144.977 602.364 145.203 603.941 147.231 604.391C149.258 604.842 150.609 605.518 151.735 606.644C152.862 607.771 153.312 610.023 152.186 610.924C151.06 611.824 150.159 612.501 148.807 612.05C147.456 611.6 143.401 610.023 142.5 609.797C141.599 609.571 137.544 609.347 136.417 609.797C135.292 610.248 131.236 611.374 129.435 611.824C127.632 612.275 124.704 612.951 124.478 614.077C124.253 615.204 125.154 615.88 126.731 615.654C128.309 615.429 131.687 614.077 132.813 614.077C133.94 614.077 136.868 613.627 136.417 614.303C135.967 614.979 132.813 615.88 131.912 615.88C131.011 615.88 128.759 616.556 127.632 617.006C126.506 617.457 122.902 617.906 122.451 618.582C122 619.259 121.776 620.385 123.127 620.385C124.478 620.385 127.182 620.159 128.533 619.483C129.885 618.808 133.264 617.682 133.94 617.682C134.616 617.682 136.868 617.007 136.417 617.907C135.967 618.808 133.039 620.159 131.912 620.385C130.786 620.61 127.182 621.512 126.506 621.962C125.83 622.412 124.929 623.313 125.605 623.764C126.281 624.214 129.66 623.764 130.786 623.313C131.912 622.863 134.165 621.736 135.292 621.736C136.417 621.736 136.437 623.394 135.537 623.618C134.635 623.844 131.965 624.841 131.739 625.517C131.514 626.192 130.335 628.719 131.236 628.944C132.138 629.17 132.363 627.818 133.039 627.144C133.714 626.467 135.066 626.467 136.192 626.467C137.319 626.467 138.67 626.017 138.67 626.017C138.67 626.017 140.472 627.368 141.599 627.594C142.725 627.818 143.626 628.043 145.428 628.944C147.231 629.846 151.735 630.522 152.637 630.071C153.538 629.621 157.142 627.594 157.817 626.467C158.493 625.341 159.845 622.638 159.394 621.286C158.944 619.935 160.747 618.809 160.972 617.682C161.196 616.556 160.972 611.149 159.845 609.797C158.719 608.446 156.466 605.969 155.565 604.166C154.664 602.364 152.637 602.139 151.961 601.913C151.285 601.688 148.807 601.688 148.131 601.463C147.456 601.238 145.203 601.012 144.977 602.364z">
    </path>

  </g>
  <g
     id="g464"
     style="fill: #000000">    <path
       id="path465"
       d="M144.077 621.061C144.077 621.061 147.456 621.512 148.357 621.286C149.258 621.061 150.834 622.638 152.186 623.088C153.538 623.539 153.988 623.764 154.889 623.539M144.058 621.203C144.196 621.222 147.475 621.655 148.392 621.425C148.856 621.309 149.589 621.775 150.364 622.269C150.952 622.644 151.56 623.031 152.141 623.225L152.584 623.375C153.617 623.727 154.088 623.887 154.924 623.678L154.855 623.399C154.101 623.587 153.684 623.445 152.677 623.102L152.231 622.952C151.684 622.769 151.092 622.393 150.519 622.027C149.69 621.499 148.907 621 148.322 621.147C147.458 621.362 144.129 620.923 144.096 620.918L144.058 621.203z">
    </path>

  </g>
  <g
     id="g466"
     style="fill: #000000">    <path
       id="path467"
       d="M159.267 620.961C159.267 620.961 158.043 623.088 156.916 623.539M159.142 620.89L159.142 620.89C159.13 620.91 157.93 622.978 156.863 623.405L156.97 623.673C158.129 623.208 159.34 621.121 159.392 621.033L159.142 620.89z">
    </path>

  </g>
  <g
     id="g468"
     style="fill: #000000">    <path
       id="path469"
       d="M137.769 622.638C137.769 622.638 137.769 625.116 138.67 626.017M137.625 622.638C137.625 622.741 137.636 625.186 138.568 626.118L138.772 625.915C137.924 625.066 137.913 622.662 137.913 622.638L137.625 622.638z">
    </path>

  </g>
  <g
     id="g470"
     style="fill: #32afff">    <path
       id="path471"
       d="M204.027 529.713C204.027 529.713 193.066 527.887 190.409 526.558C187.752 525.229 187.087 527.389 187.087 527.389C187.087 527.389 186.589 532.537 186.755 533.865C186.921 535.194 188.25 542.169 189.08 543.996C189.08 543.996 190.741 547.982 192.9 549.311C195.059 550.639 194.727 552.964 194.727 554.957C194.727 556.95 194.56 560.106 194.228 560.603C193.897 561.102 192.568 562.099 192.734 563.261C192.9 564.424 193.564 565.586 193.564 566.915C193.564 568.243 193.232 572.063 192.568 574.056C191.903 576.049 190.409 580.201 189.412 580.865C188.416 581.529 186.091 586.18 185.261 587.84C184.43 589.501 181.44 594.65 179.116 596.809C176.791 598.968 173.137 604.78 172.307 606.108C171.476 607.438 168.32 614.413 168.154 615.907C167.988 617.402 167.822 621.887 167.822 621.887C167.822 621.887 166.328 622.717 166.66 623.547C166.992 624.378 166.992 624.378 166.992 624.378L168.819 624.211C168.819 624.211 167.822 623.713 168.652 622.717C169.483 621.721 169.483 621.721 169.483 621.721C169.483 621.721 168.819 617.9 169.815 614.911C170.812 611.922 177.123 600.628 179.78 598.303C182.438 595.978 186.091 590.498 186.589 589.667C187.087 588.837 189.578 584.851 190.243 583.854C190.907 582.858 193.398 577.377 193.731 575.385C194.062 573.392 195.392 568.575 195.225 567.745C195.059 566.915 194.062 564.257 194.56 563.261C195.059 562.265 196.388 560.769 196.554 559.109C196.72 557.448 196.388 551.138 196.056 550.473C195.724 549.809 193.897 547.982 193.066 546.819C192.236 545.657 189.578 540.509 189.08 537.519C188.582 534.53 188.084 531.54 188.416 530.544C188.748 529.547 188.25 528.551 189.578 528.551C190.907 528.551 193.066 528.717 194.394 529.215C195.724 529.713 197.882 530.045 199.211 530.378C200.54 530.709 205.023 531.872 205.023 531.872L204.027 529.713z">
    </path>

  </g>
  <g
     id="g476"
     style="fill: #32afff">    <path
       id="path477"
       d="M226.447 525.894C226.447 525.894 234.088 521.244 234.918 521.244C235.747 521.244 237.077 522.572 236.911 523.569C236.744 524.565 237.077 530.876 235.914 533.533C234.751 536.19 231.762 544.328 230.6 545.823C229.438 547.318 228.772 547.815 228.772 548.646C228.772 549.477 229.271 553.96 229.603 555.123C229.935 556.286 231.431 562.596 231.596 564.091C231.762 565.586 232.427 576.381 232.094 577.543C231.762 578.706 230.932 584.851 230.766 586.18C230.6 587.508 229.935 596.311 230.102 598.137C230.267 599.964 229.603 606.275 229.935 607.106C230.267 607.936 231.762 607.936 231.264 608.933C230.766 609.929 230.267 611.258 231.264 611.922C232.26 612.586 235.582 613.582 236.08 614.578C236.578 615.575 238.571 619.228 238.571 619.727C238.571 620.226 237.242 620.558 237.242 620.558C237.242 620.558 235.748 616.405 234.419 615.409C233.091 614.413 231.098 614.08 230.6 613.25C230.102 612.42 228.938 610.925 229.106 610.095C229.271 609.264 229.438 608.601 229.438 608.601C229.438 608.601 228.274 607.936 228.274 607.438C228.274 606.939 228.44 596.643 228.606 594.815C228.772 592.989 228.938 586.512 229.438 585.017C229.935 583.522 230.599 579.039 230.766 576.879C230.932 574.72 231.43 571.897 230.766 567.579C230.102 563.261 229.603 559.939 228.938 558.112C228.274 556.286 226.613 549.643 226.779 548.978C226.946 548.314 229.769 543.996 230.932 542.169C232.094 540.342 233.59 536.688 234.419 533.865C235.249 531.042 235.416 526.558 235.084 524.731C234.751 522.904 234.586 522.406 234.586 522.406C234.586 522.406 231.431 524.233 230.932 524.731C230.434 525.229 225.617 528.551 225.617 528.551L226.447 525.894z">
    </path>

  </g>
  <g
     id="g494"
     style="fill: #d85400">    <path
       id="path495"
       d="M212.782 593.353C212.782 593.353 214.642 594.147 215.44 593.404C216.179 592.719 215.726 592.205 215.726 592.205C215.726 592.205 222.242 589.749 224.946 589.073C227.649 588.398 237.11 584.793 238.012 584.117C238.912 583.442 240.265 584.117 240.489 585.244C240.715 586.37 240.265 589.974 240.265 589.974C240.265 589.974 237.562 592.002 235.759 592.227C233.956 592.452 228.551 594.93 226.298 595.381C224.045 595.831 216.354 597.688 216.354 597.688C216.354 597.688 216.205 598.744 214.642 598.944C212.31 599.242 212.066 598.424 212.242 597.859C212.418 597.293 213.458 596.732 213.458 595.606C213.458 594.479 212.782 593.353 212.782 593.353z">
    </path>

  </g>
  <g
     id="g500"
     style="fill: #000000">    <path
       id="path501"
       d="M216.431 597.686C216.431 597.686 216.615 595.383 216.431 594.37M216.574 597.697C216.582 597.602 216.758 595.364 216.572 594.344L216.289 594.396C216.468 595.378 216.289 597.651 216.287 597.674L216.574 597.697z">
    </path>

  </g>
  <g
     id="g502"
     style="fill: #000000">    <path
       id="path503"
       d="M194.761 605.518C194.761 605.518 203.963 603.069 208.694 602.843C213.425 602.618 215.26 601.688 215.935 601.012M194.798 605.657L194.798 605.657C194.89 605.633 204.04 603.209 208.701 602.987C213.442 602.761 215.308 601.844 216.037 601.114L215.834 600.91C215.266 601.478 213.582 602.467 208.688 602.7C203.996 602.923 194.816 605.354 194.724 605.379L194.798 605.657z">
    </path>

  </g>
  <g
     id="g504"
     style="fill: #000000">    <path
       id="path505"
       d="M192.959 601.238C192.959 601.238 193.898 603.912 197.052 603.912C200.206 603.912 201.849 603.912 201.849 603.912M192.823 601.285C192.833 601.313 193.834 604.056 197.052 604.056L201.849 604.056L201.849 603.768L197.052 603.768C194.042 603.768 193.132 601.295 193.095 601.19L192.823 601.285z">
    </path>

  </g>
  <g
     id="g506"
     style="fill: #000000">    <path
       id="path507"
       d="M202.034 628.528C202.034 628.528 205.448 622.466 205.614 620.805C205.78 619.144 207.017 617.07 208.013 617.07C209.01 617.07 210.006 618.232 210.006 619.561C210.006 620.89 209.675 623.215 210.006 624.211M202.16 628.6C202.3 628.351 205.59 622.491 205.757 620.819C205.922 619.169 207.146 617.214 208.013 617.214C208.964 617.214 209.862 618.354 209.862 619.561C209.862 619.977 209.829 620.493 209.794 621.04C209.72 622.216 209.634 623.549 209.869 624.257L210.143 624.166C209.925 623.512 210.008 622.208 210.081 621.059C210.116 620.507 210.149 619.986 210.149 619.561C210.149 618.182 209.131 616.927 208.013 616.927C206.903 616.927 205.64 619.103 205.471 620.791C205.31 622.402 201.943 628.398 201.909 628.458L202.16 628.6z">
    </path>

  </g>
  <g
     id="g508"
     style="fill: #000000">    <path
       id="path509"
       d="M209.062 636.829C209.062 636.829 208.325 632.869 212.829 630.356M209.204 636.803L209.204 636.803C209.197 636.765 208.544 632.912 212.899 630.481L212.759 630.229C208.218 632.765 208.914 636.814 208.921 636.856L209.204 636.803z">
    </path>

  </g>
  <g
     id="g510"
     style="fill: #000000">    <path
       id="path511"
       d="M247.562 613.896C247.562 613.896 245.049 613.416 244.052 614.246M247.589 613.754C247.482 613.734 244.997 613.273 243.96 614.136L244.144 614.357C245.076 613.58 247.511 614.032 247.534 614.037L247.589 613.754z">
    </path>

  </g>
  <g
     id="g512"
     style="fill: #000000">    <path
       id="path513"
       d="M159.143 623.935C159.143 623.935 161.512 622.385 162.84 622.385C164.169 622.385 173.137 621.222 175.628 621.721M159.222 624.055L159.222 624.055C159.245 624.04 161.57 622.528 162.84 622.528C163.237 622.528 164.297 622.427 165.639 622.299C168.913 621.986 173.86 621.514 175.6 621.861L175.656 621.579C173.875 621.223 168.902 621.697 165.612 622.013C164.277 622.14 163.223 622.24 162.84 622.24C161.484 622.24 159.162 623.75 159.064 623.814L159.222 624.055z">
    </path>

  </g>
  <g
     id="g514"
     style="fill: #000000">    <path
       id="path515"
       d="M193.897 627.2C193.897 627.2 199.207 629.737 200.865 633.053M193.834 627.33L193.834 627.33C193.887 627.356 199.12 629.885 200.737 633.117L200.994 632.989C199.333 629.668 194.177 627.175 193.959 627.07L193.834 627.33z">
    </path>

  </g>
  <g
     id="g516"
     style="fill: #000000">    <path
       id="path517"
       d="M239.825 607.54C239.825 607.54 230.932 607.936 229.438 608.601C227.942 609.264 227.111 609.762 227.61 610.759C228.108 611.756 228.606 612.585 229.271 612.752M239.818 607.397C239.454 607.413 230.881 607.801 229.379 608.469C228.231 608.978 227.572 609.357 227.378 609.899C227.277 610.18 227.31 610.481 227.481 610.823C228.057 611.973 228.55 612.72 229.236 612.891L229.306 612.612C228.728 612.468 228.262 611.741 227.738 610.694C227.606 610.428 227.575 610.199 227.647 609.997C227.807 609.555 228.445 609.198 229.495 608.731C230.949 608.086 239.743 607.688 239.831 607.684L239.818 607.397z">
    </path>

  </g>
  <g
     id="g518"
     style="fill: #000000">    <path
       id="path519"
       d="M230.53 548.498C230.53 548.498 234.052 548.24 235.856 546.694M230.54 548.642C230.685 548.631 234.131 548.362 235.949 546.804L235.762 546.585C234.016 548.082 230.554 548.352 230.519 548.355L230.54 548.642z">
    </path>

  </g>
  <g
     id="g520"
     style="fill: #000000">    <path
       id="path521"
       d="M240.265 522.621C240.265 522.621 243.908 528.852 242.783 533.357M240.14 522.693L240.14 522.693C240.176 522.755 243.742 528.927 242.644 533.322L242.922 533.392C244.05 528.882 240.538 522.805 240.389 522.548L240.14 522.693z">
    </path>

  </g>
  <g
     id="g522"
     style="fill: #000000">    <path
       id="path523"
       d="M242.742 522.621C242.742 522.621 241.541 524.287 241.767 525.639M242.625 522.537C242.575 522.606 241.393 524.268 241.625 525.662L241.909 525.615C241.695 524.339 242.848 522.721 242.859 522.705L242.625 522.537z">
    </path>

  </g>
  <g
     id="g524"
     style="fill: #000000">    <path
       id="path525"
       d="M260.659 525.894L262.565 528.027M260.552 525.989L262.458 528.123L262.673 527.931L260.767 525.798L260.552 525.989z">
    </path>

  </g>
  <g
     id="g526"
     style="fill: #000000">    <path
       id="path527"
       d="M263.017 527.351C263.017 527.351 262.115 530.279 260.088 532.307C258.06 534.334 253.33 538.389 252.429 538.614M262.879 527.309L262.879 527.309C262.869 527.337 261.964 530.227 259.986 532.205C257.947 534.243 253.25 538.261 252.394 538.475L252.463 538.754C253.433 538.511 258.302 534.296 260.19 532.408C262.219 530.379 263.144 527.423 263.154 527.393L262.879 527.309z">
    </path>

  </g>
  <g
     id="g528"
     style="fill: #000000">    <path
       id="path529"
       d="M245.881 538.321L247.422 540.72M245.76 538.398L247.302 540.798L247.543 540.643L246.001 538.243L245.76 538.398z">
    </path>

  </g>
  <g
     id="g530"
     style="fill: #000000">    <path
       id="path531"
       d="M251.11 544.162C251.11 544.162 254.906 543.344 256.483 541.543M251.141 544.303C251.298 544.269 255.001 543.454 256.592 541.637L256.375 541.448C254.848 543.193 251.118 544.014 251.08 544.022L251.141 544.303z">
    </path>

  </g>
  <g
     id="g532"
     style="fill: #000000">    <path
       id="path533"
       d="M265.559 532.246C265.559 532.246 265.517 534.322 264.143 535.685M265.415 532.243L265.415 532.243C265.415 532.263 265.356 534.278 264.042 535.583L264.244 535.788C265.644 534.399 265.701 532.336 265.703 532.249L265.415 532.243z">
    </path>

  </g>
  <g
     id="g534"
     style="fill: #000000">    <path
       id="path535"
       d="M176.507 555.455L175.477 559.406M176.368 555.419L175.337 559.37L175.616 559.442L176.646 555.491L176.368 555.419z">
    </path>

  </g>
  <g
     id="g536"
     style="fill: #000000">    <path
       id="path537"
       d="M160.07 556.635C160.07 556.635 168.856 561.816 171.559 561.366C174.262 560.916 177.19 560.014 177.416 558.888M159.997 556.759C160.358 556.972 168.859 561.961 171.582 561.508C174.311 561.053 177.313 560.133 177.557 558.916L177.275 558.86C177.074 559.866 174.247 560.772 171.535 561.224C168.914 561.661 160.231 556.563 160.144 556.511L159.997 556.759z">
    </path>

  </g>
  <g
     id="g538"
     style="fill: #000000">    <path
       id="path539"
       d="M165.252 564.97C165.252 564.97 171.838 566.233 173.415 565.332C174.992 564.431 176.415 564.159 177.022 563.185M165.225 565.111C165.496 565.163 171.881 566.374 173.486 565.457C174.023 565.15 174.553 564.912 175.02 564.703C175.934 564.292 176.723 563.938 177.144 563.261L176.901 563.109C176.525 563.711 175.809 564.033 174.902 564.44C174.429 564.653 173.893 564.894 173.344 565.207C171.831 566.072 165.344 564.841 165.278 564.829L165.225 565.111z">
    </path>

  </g>
  <g
     id="g540"
     style="fill: #000000">    <path
       id="path541"
       d="M155.367 555.954C155.367 555.954 156.916 559.113 159.169 560.014M155.237 556.017C155.302 556.148 156.838 559.237 159.116 560.148L159.223 559.881C157.048 559.011 155.511 555.921 155.496 555.89L155.237 556.017z">
    </path>

  </g>
  <g
     id="g542"
     style="fill: #000000">    <path
       id="path543"
       d="M158.728 550.474C158.728 550.474 157.857 553.794 158.19 554.625C158.522 555.456 159.187 555.787 159.187 555.787M158.589 550.437C158.498 550.782 157.716 553.828 158.056 554.678C158.405 555.55 159.093 555.901 159.122 555.916L159.25 555.659L159.251 555.659C159.245 555.656 158.63 555.337 158.323 554.571C158.065 553.926 158.628 551.421 158.867 550.51L158.589 550.437z">
    </path>

  </g>
  <g
     id="g544"
     style="fill: #000000">    <path
       id="path545"
       d="M181.274 537.519C181.079 535.072 182.822 530.729 182.822 530.729M181.418 537.507C181.227 535.123 182.938 530.826 182.956 530.783L182.689 530.676C182.617 530.854 180.935 535.078 181.131 537.53L181.418 537.507z">
    </path>

  </g>
  <g
     id="g546"
     style="fill: #000000">    <path
       id="path547"
       d="M180.119 533.433C180.119 533.433 181.245 535.01 181.245 535.911M180.002 533.517L180.002 533.517C180.013 533.532 181.101 535.066 181.101 535.911L181.389 535.911C181.389 534.974 180.283 533.415 180.236 533.349L180.002 533.517z">
    </path>

  </g>
  <g
     id="g548"
     style="fill: #000000">    <path
       id="path549"
       d="M193.084 550.13C186.813 550.216 185.261 548.148 185.261 548.148M193.082 549.986C186.983 550.07 185.391 548.081 185.375 548.061L185.146 548.234C185.211 548.321 186.814 550.36 193.085 550.274L193.082 549.986z">
    </path>

  </g>
  <g
     id="g550"
     style="fill: #000000">    <path
       id="path551"
       d="M186.813 557.345C186.813 557.345 189.412 557.78 189.911 558.445M186.79 557.487L186.79 557.487C187.497 557.606 189.416 558.024 189.795 558.531L190.026 558.358C189.508 557.668 187.109 557.248 186.837 557.203L186.79 557.487z">
    </path>

  </g>
  <g
     id="g552"
     style="fill: #000000">    <path
       id="path553"
       d="M187.672 564.559C187.672 564.559 191.572 565.752 191.903 567.081M187.63 564.697L187.63 564.697C188.693 565.023 191.508 566.091 191.764 567.115L192.043 567.046C191.695 565.654 187.877 564.471 187.714 564.422L187.63 564.697z">
    </path>

  </g>
  <g
     id="g554"
     style="fill: #000000">    <path
       id="path555"
       d="M192.07 562.929C192.07 562.929 188.416 562.099 188.914 561.102C189.412 560.106 190.741 559.939 191.737 560.272C192.734 560.603 195.808 560.438 197.967 561.766M192.102 562.789L192.102 562.789C191.35 562.618 189.336 562.039 189.043 561.418C189.001 561.33 189.001 561.25 189.043 561.166C189.5 560.252 190.748 560.094 191.692 560.408C192.017 560.517 192.525 560.571 193.169 560.641C194.546 560.789 196.433 560.992 197.892 561.889L198.043 561.644C196.529 560.712 194.604 560.505 193.2 560.354C192.598 560.29 192.079 560.233 191.783 560.135C190.725 559.783 189.315 559.979 188.786 561.038C188.705 561.2 188.704 561.373 188.783 561.541C189.189 562.399 191.748 563.003 192.038 563.069L192.102 562.789z">
    </path>

  </g>
  <g
     id="g556"
     style="fill: #000000">    <path
       id="path557"
       d="M246.394 540.548C246.394 540.548 247.079 541.406 249.308 539.863M246.281 540.639C246.313 540.678 247.078 541.582 249.39 539.981L249.226 539.745C247.161 541.174 246.511 540.464 246.505 540.457L246.281 540.639z">
    </path>

  </g>
  <g
     id="g558"
     style="fill: #d85400">    <path
       id="path559"
       d="M183.272 573.755C183.272 573.755 185.525 578.26 186.877 579.387C188.228 580.513 192.283 583.441 194.085 584.793C195.888 586.144 199.207 588.383 199.207 588.383C199.207 588.383 199.041 589.974 200.168 590.425C201.294 590.875 202.799 591.147 202.799 591.147C202.799 591.147 201.218 593.06 201.049 594.002C200.88 594.942 201.233 596.12 201.233 596.12C201.233 596.12 199.49 597.581 197.915 597.183C196.26 596.765 196.338 595.606 196.338 595.606C196.338 595.606 192.283 592.452 190.256 591.101C188.228 589.749 184.399 586.595 181.02 584.117C177.641 581.64 176.064 580.513 176.29 579.837C176.515 579.162 179.894 575.782 180.569 575.107C181.245 574.431 183.272 573.755 183.272 573.755z">
    </path>

  </g>
  <g
     id="g564"
     style="fill: #000000">    <path
       id="path565"
       d="M196.26 595.659C196.26 595.659 195.799 593.08 196.812 591.238M196.402 595.634L196.402 595.634C196.397 595.609 195.962 593.082 196.939 591.308L196.687 591.169C195.661 593.034 196.1 595.577 196.119 595.685L196.402 595.634z">
    </path>

  </g>
  <g
     id="g566"
     style="fill: #d85400">    <path
       id="path567"
       d="M197.716 499.819C197.716 499.819 196.056 507.127 196.554 510.947C197.052 514.767 199.875 522.24 201.868 525.727C203.861 529.215 208.346 536.024 209.176 539.512C210.006 543 212.165 546.82 211.999 557.946C211.832 569.074 210.338 578.54 209.342 580.533C208.346 582.526 207.183 586.346 207.183 586.346C207.183 586.346 208.18 587.508 207.847 588.67C207.515 589.833 207.515 589.833 207.515 589.833C207.515 589.833 209.044 590.092 210.301 591.063C211.327 591.856 212.242 592.662 212.242 592.662C212.242 592.662 214.241 592.262 214.755 591.177C215.072 590.506 214.469 589.407 214.469 589.407C214.469 589.407 218.144 581.031 218.808 575.883C219.473 570.734 220.801 546.487 220.801 544.328C220.801 542.169 221.963 537.021 222.794 534.862C223.624 532.703 228.274 522.406 229.271 515.929C230.267 509.452 231.596 506.629 231.596 506.629C231.596 506.629 227.775 507.957 227.61 508.456C227.444 508.954 226.281 509.452 226.281 509.95C226.281 510.448 225.783 516.925 224.122 519.915C222.462 522.904 220.636 528.219 220.137 529.215C219.639 530.211 217.978 539.346 217.646 540.509C217.313 541.671 216.483 543.664 216.483 544.162C216.483 544.66 215.485 538.017 211.832 531.208C208.179 524.399 206.02 521.576 204.857 518.586C203.695 515.597 201.868 509.286 201.868 507.625C201.868 505.965 202.366 503.307 202.532 502.643C202.699 501.978 203.196 501.481 203.196 501.481C203.196 501.481 201.536 499.487 200.872 499.487C200.207 499.487 198.214 499.819 197.716 499.819z">
    </path>

  </g>
  <g
     id="g572"
     style="fill: #000000">    <path
       id="path573"
       d="M216.483 544.162C216.483 544.162 216.369 561.344 215.984 566.084C215.487 572.229 213.927 578.006 213.493 578.872M216.339 544.161L216.339 544.161C216.338 544.333 216.221 561.392 215.842 566.073C215.348 572.168 213.809 577.922 213.365 578.808L213.622 578.937C214.071 578.038 215.631 572.228 216.128 566.096C216.508 561.404 216.626 544.335 216.627 544.163L216.339 544.161z">
    </path>

  </g>
  <g
     id="g574"
     style="fill: #000000">    <path
       id="path575"
       d="M214.496 589.304C214.496 589.304 212.562 587.831 211.089 587.278M214.584 589.19C214.504 589.129 212.615 587.697 211.139 587.144L211.038 587.413C212.475 587.952 214.391 589.404 214.409 589.418L214.584 589.19z">
    </path>

  </g>
  <g
     id="g576"
     style="fill: #ffc4c4">    <path
       id="path577"
       d="M159.187 628.363C159.187 628.363 156.921 642.396 157.61 656.636C158.077 666.271 156.692 673.172 156.232 675.239C155.773 677.307 154.495 680.426 154.495 680.426C154.495 680.426 159.242 684.367 163.147 685.745C167.051 687.123 175.554 687.654 176.806 687.654C177.786 687.654 179.791 687.526 179.791 687.526C179.791 687.526 181.498 676.617 183.106 673.632C184.713 670.646 188.618 661.918 191.373 657.783C194.13 653.649 195.69 646.824 196.886 644.003C198.209 640.884 199.894 635.998 199.924 635.482C200.096 632.567 194.781 629.397 187.837 627.168C181.047 624.987 178.207 624.674 174.549 624.252C170.092 623.738 164.466 624.801 162.891 625.195C161.176 625.624 159.29 625.964 159.29 626.653C159.29 627.342 159.187 628.363 159.187 628.363z">
    </path>

  </g>
  <g
     id="g582"
     style="fill: #ffc4c4">    <path
       id="path583"
       d="M212.765 638.779C212.765 638.779 220.166 640.936 222.548 642.592C224.408 643.883 230.38 648.375 233.019 650.535C235.659 652.695 240.699 657.974 245.738 660.613C250.777 663.254 262.495 668.604 264.415 669.083C266.334 669.563 270.695 662.534 275.014 659.654C279.333 656.774 293.846 651.58 295.766 651.101C297.685 650.621 292.118 645.858 289.719 643.938C287.318 642.019 280.028 635.676 276.669 633.276C273.309 630.877 266.375 627.018 263.736 625.579C261.096 624.139 253.417 620.299 251.978 619.339C250.537 618.379 248.875 615.9 248.016 615.973C247.156 616.045 243.22 617.175 241.829 618.203C240.174 619.426 231.81 623.688 228.808 624.966C225.427 626.404 220.343 628.97 218.663 629.93C216.983 630.89 212.765 633.023 211.9 634.534C210.704 636.627 211.47 637.843 211.47 637.843L212.765 638.779z">
    </path>

  </g>
  <g
     id="g588"
     style="fill: #6619e5">    <path
       id="path589"
       d="M200.102 457.387C200.102 457.387 197.966 454.646 198.214 453.401C198.464 452.155 197.966 450.412 197.966 450.412C197.966 450.412 198.712 446.426 205.439 444.433C209.824 443.134 213.909 440.945 216.898 440.945C219.888 440.945 222.129 439.949 227.36 441.692C232.592 443.437 234.087 443.686 235.084 444.931C236.08 446.177 235.582 447.92 235.582 447.92C235.582 447.92 235.831 448.169 236.08 449.166C236.329 450.162 234.834 451.408 234.834 451.408C234.834 451.408 230.6 449.664 227.859 449.664C225.119 449.664 222.877 450.91 222.129 451.159C221.383 451.408 220.386 451.159 219.39 450.661C218.393 450.162 215.403 448.419 212.414 449.166C209.425 449.914 207.93 450.91 206.684 451.906C205.439 452.903 203.695 454.646 202.699 455.643C201.702 456.64 200.955 457.636 200.955 457.636L200.102 457.387z">
    </path>

  </g>
  <g
     id="g594"
     style="fill: #000000">    <path
       id="path595"
       d="M213.33 477.047C213.33 477.047 212.35 473.615 214.31 471.49M213.469 477.007L213.469 477.008C213.459 476.974 212.534 473.627 214.416 471.588L214.205 471.393C212.212 473.552 213.151 476.943 213.192 477.086L213.469 477.007z">
    </path>

  </g>
  <g
     id="g596"
     style="fill: #ffc4c4">    <path
       id="path597"
       d="M199.973 498.69C199.973 498.69 204.377 501.727 205.591 503.321C206.806 504.916 211.59 509.471 212.728 510.609C213.866 511.748 217.738 514.557 219.712 513.722C221.687 512.887 223.736 510.837 225.179 510.002C226.621 509.167 231.177 507.42 232.012 505.902C232.012 505.902 234.441 502.638 234.744 500.74C235.049 498.842 237.25 498.841 238.236 498.31C239.224 497.779 243.248 489.124 242.033 483.658C240.817 478.191 240.362 472.725 235.808 469.688C231.252 466.652 219.789 467.562 216.296 467.942C212.804 468.322 199.366 474.168 198.151 476.445C196.937 478.723 197.544 493.603 198.227 494.666C198.911 495.728 199.973 498.69 199.973 498.69z">
    </path>

  </g>
  <g
     id="g602"
     style="fill: #000000">    <path
       id="path603"
       d="M206.231 483.42C206.231 483.42 208.088 482.909 209.433 482.972C211.139 483.054 213.082 484.957 214.554 486.173C215.788 487.193 218.523 491.68 220.572 490.271C222.621 488.862 222.749 489.247 222.941 488.222M205.57 484.048L205.124 484.648C205.143 484.643 207.828 483.567 209.137 483.629C210.545 483.696 212.149 484.812 213.464 485.935L214.392 486.579C214.692 486.828 215.107 487.154 215.569 487.696C216.995 489.369 218.865 491.045 220.59 490.353C220.943 490.212 220.835 489.997 220.502 490.168C218.945 490.967 217.19 488.968 215.827 487.367C215.357 486.816 214.951 486.34 214.634 486.077L213.945 485.496C212.603 484.348 210.933 482.919 209.438 482.848C208.09 482.784 206.275 483.279 206.198 483.3L205.57 484.048z">
    </path>

  </g>
  <g
     id="g604"
     style="fill: #000000">    <path
       id="path605"
       d="M226.078 488.734C226.078 488.734 226.847 489.439 227.486 488.99C228.127 488.542 233.185 484.316 234.657 483.869C236.129 483.42 237.538 483.741 237.986 483.741C238.435 483.741 238.818 483.676 239.011 483.548M225.994 488.826C226.028 488.857 226.844 489.593 227.558 489.092C227.704 488.99 228.067 488.701 228.57 488.303C230.194 487.013 233.641 484.584 234.76 484.244C235.886 483.901 236.896 484.134 237.542 484.203C237.728 484.223 238.965 484.457 239.07 484.457C239.359 484.457 238.801 483.837 239.079 483.652L238.941 483.444C238.78 483.552 239.062 483.375 238.625 483.375C238.533 483.375 237.656 483.266 237.478 483.248C236.812 483.176 236.129 483.237 234.955 483.595C233.791 483.949 230.177 486.708 228.415 488.107C227.916 488.504 227.556 488.79 227.415 488.889C226.865 489.273 226.169 488.648 226.162 488.643L225.994 488.826z">
    </path>

  </g>
  <g
     id="g606"
     style="fill: #000000">    <path
       id="path607"
       d="M203.798 488.926C203.798 488.926 206.295 489.119 207.64 488.03C208.984 486.941 209.923 486.533 210.969 486.43C212.574 486.27 214.052 486.955 214.662 487.385C215.405 487.908 216.143 488.693 216.488 489.221C216.842 489.759 216.844 490.192 216.976 490.68M203.788 489.069C203.892 489.078 206.357 489.254 207.731 488.142C208.993 487.12 209.905 486.68 210.982 486.573C212.559 486.416 213.984 487.084 214.578 487.503C215.325 488.028 216.044 488.804 216.368 489.299C216.614 489.673 216.68 489.994 216.749 490.333C216.774 490.457 216.801 490.585 216.836 490.718L217.114 490.643C217.081 490.519 217.056 490.396 217.031 490.275C216.959 489.924 216.885 489.562 216.608 489.142C216.269 488.624 215.521 487.814 214.744 487.268C214.117 486.826 212.614 486.122 210.955 486.286C209.815 486.4 208.86 486.857 207.549 487.918C206.266 488.957 203.834 488.785 203.81 488.783L203.788 489.069z">
    </path>

  </g>
  <g
     id="g608"
     style="fill: #000000">    <path
       id="path609"
       d="M207.059 486.16C207.059 486.16 208.92 485.085 209.944 485.213C210.969 485.341 212.133 485.804 212.581 486.124C213.029 486.444 214.078 487.006 214.334 487.135M207.13 486.285L207.13 486.285C207.148 486.274 208.962 485.235 209.927 485.356C210.978 485.487 212.096 485.955 212.497 486.241C212.965 486.575 214.037 487.147 214.269 487.263L214.398 487.006C214.129 486.871 213.094 486.313 212.665 486.007C212.173 485.656 210.97 485.196 209.963 485.07C208.902 484.938 207.065 485.99 206.986 486.035L207.13 486.285z">
    </path>

  </g>
  <g
     id="g610"
     style="fill: #000000">    <path
       id="path611"
       d="M202.006 487.197C202.199 487.495 202.427 488.606 203.978 488.916M201.885 487.276C201.912 487.316 201.944 487.386 201.981 487.467C202.192 487.927 202.586 488.784 203.95 489.057L204.006 488.774C202.786 488.531 202.432 487.761 202.242 487.347C202.199 487.252 202.164 487.178 202.127 487.119L201.885 487.276z">
    </path>

  </g>
  <g
     id="g612"
     style="fill: #000000">    <path
       id="path613"
       d="M203.478 486.622C203.478 486.622 203.714 488.476 206.207 488.661M203.335 486.64C203.338 486.66 203.616 488.613 206.196 488.805L206.218 488.518C203.879 488.344 203.63 486.674 203.621 486.603L203.335 486.64z">
    </path>

  </g>
  <g
     id="g614"
     style="fill: #000000">    <path
       id="path615"
       d="M205.655 486.75C205.655 486.75 206.423 488.03 207.447 488.03M205.531 486.824C205.565 486.879 206.354 488.174 207.447 488.174L207.447 487.886C206.518 487.886 205.785 486.688 205.778 486.676L205.531 486.824z">
    </path>

  </g>
  <g
     id="g616"
     style="fill: #000000">    <path
       id="path617"
       d="M207.127 492.255C207.127 492.255 208.536 491.679 209.688 491.935C210.84 492.191 212.697 492.255 213.465 492.191C214.233 492.127 214.617 491.68 215.002 491.808M207.182 492.389L207.182 492.389C207.195 492.383 208.563 491.832 209.656 492.076C210.809 492.332 212.688 492.4 213.477 492.335C213.876 492.302 214.177 492.171 214.418 492.066C214.647 491.967 214.812 491.896 214.957 491.944L215.048 491.671C214.799 491.588 214.569 491.688 214.304 491.803C214.07 491.904 213.805 492.019 213.453 492.048C212.683 492.112 210.846 492.045 209.72 491.795C208.537 491.532 207.132 492.098 207.072 492.122L207.182 492.389z">
    </path>

  </g>
  <g
     id="g618"
     style="fill: #000000">    <path
       id="path619"
       d="M208.792 491.935C208.792 491.935 207.897 492.768 208.023 493.344M208.694 491.83C208.597 491.921 207.742 492.737 207.884 493.375L208.164 493.312C208.074 492.907 208.658 492.257 208.891 492.041L208.694 491.83z">
    </path>

  </g>
  <g
     id="g620"
     style="fill: #000000">    <path
       id="path621"
       d="M210.009 492.127C210.009 492.127 209.496 492.383 209.944 493.023M209.944 491.999C209.935 492.004 209.704 492.122 209.636 492.391C209.581 492.606 209.646 492.847 209.827 493.106L210.062 492.941C209.934 492.758 209.883 492.593 209.914 492.464C209.947 492.324 210.069 492.258 210.074 492.256L209.944 491.999z">
    </path>

  </g>
  <g
     id="g622"
     style="fill: #000000">    <path
       id="path623"
       d="M207.162 492.228C207.162 492.228 206.807 492.576 206.807 493.023M207.062 492.125C207.045 492.141 206.664 492.521 206.664 493.023L206.951 493.023C206.951 492.644 207.26 492.333 207.264 492.33L207.062 492.125z">
    </path>

  </g>
  <g
     id="g624"
     style="fill: #000000">    <path
       id="path625"
       d="M210.648 486.558C210.648 486.558 209.176 487.904 209.496 490.143C209.672 491.367 210.033 491.717 210.546 491.972C211.058 492.228 212.858 492.283 213.493 492.014C214.288 491.677 215.188 490.87 215.403 490.188C215.652 489.398 215.642 488.478 215.515 488.222C215.387 487.966 213.082 486.622 212.634 486.558C212.185 486.494 211.033 486.301 210.648 486.558z">
    </path>

  </g>
  <g
     id="g630"
     style="fill: #ffffff">    <path
       id="path631"
       d="M211.545 486.75C211.545 486.75 211.417 487.71 211.993 488.478C212.569 489.246 213.594 489.503 214.17 489.375C214.746 489.246 215.074 488.919 215.002 488.542C214.805 487.514 212.825 487.006 212.569 486.941C212.313 486.877 211.545 486.75 211.545 486.75z">
    </path>

  </g>
  <g
     id="g632"
     style="fill: #ffffff">    <path
       id="path633"
       d="M210.366 490.942C210.366 490.942 210.685 489.662 211.006 489.79C211.326 489.918 211.839 489.918 211.647 490.494C211.454 491.07 211.518 491.646 211.197 491.774C210.878 491.902 210.366 490.942 210.366 490.942z">
    </path>

  </g>
  <g
     id="g634"
     style="fill: #ffffff">    <path
       id="path635"
       d="M212.55 491.673C212.55 491.673 212.293 490.713 212.678 490.777C213.062 490.841 213.574 490.905 213.51 491.161C213.446 491.416 213.254 491.673 212.998 491.737C212.742 491.801 212.55 491.673 212.55 491.673z">
    </path>

  </g>
  <g
     id="g636"
     style="fill: #000000">    <path
       id="path637"
       d="M228.383 488.414C228.383 488.414 231.264 486.238 232.096 486.301C232.929 486.365 234.081 486.494 234.785 486.877C235.489 487.262 236.065 487.582 236.706 487.39C237.346 487.197 238.243 486.813 238.498 486.622M228.772 488.194L229.353 487.986C230.144 487.389 231.393 486.594 232.036 486.644C232.841 486.705 234.041 486.613 234.726 486.987L234.747 486.999C235.45 487.383 236.058 487.714 236.742 487.509C237.398 487.312 238.306 486.922 238.573 486.721L238.424 486.521C238.18 486.706 237.293 487.083 236.67 487.27C236.086 487.445 235.548 487.152 234.866 486.78L234.845 486.769C234.117 486.371 232.933 486.241 232.106 486.177C231.251 486.111 228.606 488.089 228.308 488.315L228.772 488.194z">
    </path>

  </g>
  <g
     id="g638"
     style="fill: #000000">    <path
       id="path639"
       d="M235.233 487.582C235.233 487.582 236.193 488.734 237.602 488.35M235.123 487.674C235.164 487.724 236.159 488.893 237.64 488.489L237.565 488.211C236.264 488.566 235.381 487.534 235.344 487.49L235.123 487.674z">
    </path>

  </g>
  <g
     id="g640"
     style="fill: #000000">    <path
       id="path641"
       d="M235.042 487.986C235.042 487.986 235.332 489.478 236.869 489.606M234.901 488.014C234.904 488.03 235.231 489.614 236.856 489.749L236.881 489.462C235.475 489.345 235.194 488.016 235.184 487.958L234.901 488.014z">
    </path>

  </g>
  <g
     id="g642"
     style="fill: #000000">    <path
       id="path643"
       d="M228.565 488.319C228.565 488.319 227.998 490.591 229.535 491.103C231.072 491.615 231.7 491.41 232.549 490.958C233.63 490.382 234.465 488.99 234.721 488.478C234.977 487.966 235.361 487.454 235.169 487.262C234.977 487.07 232.993 486.045 231.713 486.558C230.432 487.07 229.471 487.454 229.279 487.645C229.087 487.838 228.565 488.319 228.565 488.319z">
    </path>

  </g>
  <g
     id="g648"
     style="fill: #ffffff">    <path
       id="path649"
       d="M230.559 487.066C230.559 487.066 230.31 487.463 231.489 488.279C232.188 488.762 232.812 488.727 233.404 488.215C233.997 487.703 234.014 487.117 233.86 486.965C233.446 486.557 231.971 486.523 231.738 486.506C231.031 486.455 230.559 487.066 230.559 487.066z">
    </path>

  </g>
  <g
     id="g650"
     style="fill: #ffffff">    <path
       id="path651"
       d="M228.878 489.872C228.878 489.872 229.044 489.249 229.6 489.184C230.239 489.109 230.231 489.821 230.11 490.208C229.97 490.661 229.606 490.76 229.606 490.76C229.606 490.76 229.288 490.938 229.002 490.577C228.718 490.216 228.878 489.872 228.878 489.872z">
    </path>

  </g>
  <g
     id="g652"
     style="fill: #ffffff">    <path
       id="path653"
       d="M230.748 491.033C230.748 491.033 230.681 490.871 230.8 490.539C230.864 490.357 230.882 489.993 231.334 490.368C231.497 490.502 231.563 490.663 231.554 490.834C231.547 490.96 231.607 491.044 231.313 491.224C230.89 491.482 230.748 491.033 230.748 491.033z">
    </path>

  </g>
  <g
     id="g654"
     style="fill: #000000">    <path
       id="path655"
       d="M231.519 485.854C231.519 485.854 233.633 485.085 234.401 485.277C235.169 485.469 236.065 485.725 236.321 486.109M230.804 486.708L231.582 486.384C231.603 486.376 232.717 485.662 233.714 485.578C234.203 485.538 235.964 485.796 236.218 486.178L236.426 486.04C236.154 485.633 235.303 485.39 234.431 485.156C233.203 484.827 231.54 485.963 231.452 485.995L230.804 486.708z">
    </path>

  </g>
  <g
     id="g656"
     style="fill: #000000">    <path
       id="path657"
       d="M228.606 491.267C228.606 491.267 229.113 491.58 229.562 491.516C230.01 491.452 231.058 491.365 231.762 491.558C232.467 491.749 233.057 491.68 233.696 491.68C234.337 491.68 234.721 491.551 234.977 491.871M228.531 491.389C228.554 491.403 229.088 491.728 229.582 491.658C230.071 491.588 231.072 491.519 231.725 491.696C232.3 491.853 232.808 491.841 233.3 491.83C233.43 491.827 233.562 491.823 233.696 491.823C233.856 491.823 234.001 491.815 234.129 491.809C234.537 491.787 234.723 491.784 234.864 491.961L235.09 491.781C234.849 491.481 234.524 491.499 234.113 491.522C233.989 491.528 233.849 491.536 233.696 491.536C233.56 491.536 233.424 491.539 233.293 491.542C232.8 491.553 232.335 491.565 231.8 491.418C230.942 491.185 229.683 491.353 229.542 491.373C229.151 491.429 228.688 491.147 228.682 491.144L228.531 491.389z">
    </path>

  </g>
  <g
     id="g658"
     style="fill: #000000">    <path
       id="path659"
       d="M233.889 491.68C233.889 491.68 234.528 491.935 234.528 492.447M233.836 491.813L233.835 491.813C233.841 491.815 234.385 492.04 234.385 492.447L234.673 492.447C234.673 491.845 233.972 491.558 233.942 491.546L233.836 491.813z">
    </path>

  </g>
  <g
     id="g660"
     style="fill: #000000">    <path
       id="path661"
       d="M233.249 491.68C233.249 491.68 233.697 492.383 233.568 492.768M233.128 491.757L233.128 491.757C233.286 492.007 233.51 492.49 233.432 492.722L233.705 492.813C233.852 492.377 233.42 491.68 233.37 491.603L233.128 491.757z">
    </path>

  </g>
  <g
     id="g662"
     style="fill: #000000">    <path
       id="path663"
       d="M224.663 492.592C224.663 492.592 224.734 494.304 225.246 495.713C225.758 497.121 225.758 497.505 225.758 497.954C225.758 498.401 224.478 499.042 224.029 499.106M224.519 492.598C224.522 492.668 224.597 494.349 225.11 495.762C225.614 497.147 225.614 497.521 225.614 497.954C225.614 498.264 224.475 498.897 224.01 498.963L224.05 499.248C224.504 499.184 225.901 498.521 225.901 497.954C225.901 497.493 225.901 497.096 225.382 495.664C224.883 494.293 224.808 492.603 224.807 492.586L224.519 492.598z">
    </path>

  </g>
  <g
     id="g664"
     style="fill: #000000">    <path
       id="path665"
       d="M219.868 498.658C219.868 498.658 219.676 497.89 220.124 497.954C220.572 498.018 221.021 498.082 221.212 498.274M220.008 498.623L220.008 498.623C219.967 498.459 219.948 498.19 220.018 498.113C220.025 498.105 220.041 498.087 220.103 498.096C220.502 498.153 220.952 498.217 221.11 498.375L221.315 498.172C221.088 497.946 220.63 497.88 220.144 497.811C219.967 497.786 219.861 497.856 219.805 497.92C219.604 498.142 219.707 498.603 219.729 498.692L220.008 498.623z">
    </path>

  </g>
  <g
     id="g666"
     style="fill: #000000">    <path
       id="path667"
       d="M220.619 506.688C220.619 506.688 221.11 507.385 220.856 508.213C220.679 508.785 220.425 509.023 219.84 508.959M220.502 506.771L220.502 506.771C220.506 506.777 220.947 507.424 220.718 508.171C220.551 508.712 220.342 508.869 219.856 508.815L219.824 509.102C220.447 509.17 220.786 508.925 220.993 508.256C221.265 507.371 220.759 506.636 220.737 506.606L220.502 506.771z">
    </path>

  </g>
  <g
     id="g668"
     style="fill: #ff5400">    <path
       id="path669"
       d="M221.299 451.325C221.299 451.325 216.151 448.834 214.157 448.834C212.165 448.834 209.674 449 207.681 450.495C205.688 451.989 198.546 459.629 195.059 461.788C191.571 463.947 184.763 469.593 183.434 470.922C182.105 472.251 178.617 478.395 178.119 480.223C177.621 482.049 177.621 485.703 177.621 485.703C177.621 485.703 180.61 480.72 181.939 479.89C183.268 479.06 181.939 481.551 182.105 483.212C182.271 484.873 183.766 491.682 185.925 494.007C188.084 496.332 191.073 499.487 194.727 499.819C198.381 500.151 202.367 499.487 204.691 499.321C207.017 499.155 209.176 499.487 209.176 499.487C209.176 499.487 208.179 497.661 205.19 496.166C202.201 494.671 202.201 494.837 201.204 493.01C200.207 491.184 199.045 485.869 199.211 483.876C199.377 481.883 199.709 480.555 199.709 480.555C199.709 480.555 201.37 485.703 202.034 486.367C202.699 487.031 206.684 483.212 207.681 482.714C208.678 482.215 212.497 478.728 212.829 477.233C213.161 475.738 213.992 478.562 212.996 479.89C211.999 481.219 211.999 481.219 211.999 481.219C211.999 481.219 215.652 479.89 216.649 478.063C217.646 476.237 219.306 475.573 220.302 471.254L220.636 470.258C220.636 470.258 222.462 471.088 224.122 470.258C225.783 469.427 226.447 468.265 229.271 469.926C232.094 471.586 233.09 472.583 233.257 473.081C233.423 473.579 233.091 475.572 233.091 476.901C233.091 478.23 232.427 484.043 232.924 484.54C233.423 485.039 235.748 482.05 236.412 481.717C237.076 481.385 237.076 481.385 237.076 481.385C237.076 481.385 237.907 482.215 238.571 484.208C239.235 486.201 240.066 484.873 240.066 484.873C240.066 484.873 238.737 488.526 238.571 489.356C238.405 490.188 236.578 493.342 236.744 494.837C236.911 496.332 236.744 497.661 236.744 497.661C236.744 497.661 234.586 499.155 233.423 499.654C232.26 500.151 232.44 500.28 232.44 500.28C232.44 500.28 234.917 500.484 236.744 499.985C238.571 499.487 238.571 499.487 238.571 499.487L237.076 500.982C237.076 500.982 242.226 502.144 245.879 498.325C249.532 494.505 251.691 493.176 252.356 491.018C253.019 488.858 255.677 484.54 254.183 480.555C252.688 476.569 251.192 472.085 249.2 470.092C247.207 468.099 244.882 464.113 243.221 461.788C241.56 459.463 239.734 456.141 238.737 454.979C237.74 453.816 234.903 450.572 232.778 450.082C230.99 449.669 228.221 449.262 227.059 449.428C225.897 449.594 222.295 450.495 221.299 451.325z">
    </path>

  </g>
  <g
     id="g674"
     style="fill: #000000">    <path
       id="path675"
       d="M221.299 451.325C221.299 451.325 226.281 454.148 226.779 455.477M221.228 451.45L221.228 451.45C221.277 451.478 226.171 454.263 226.644 455.527L226.914 455.427C226.404 454.064 221.575 451.316 221.369 451.2L221.228 451.45z">
    </path>

  </g>
  <g
     id="g676"
     style="fill: #000000">    <path
       id="path677"
       d="M225.232 453.684C225.232 453.684 227.291 452.275 230 452.708M225.313 453.803L225.312 453.803C225.333 453.789 227.36 452.432 229.978 452.851L230.022 452.566C227.289 452.129 225.237 453.506 225.15 453.565L225.313 453.803z">
    </path>

  </g>
  <g
     id="g678"
     style="fill: #ffb500">    <path
       id="path679"
       d="M231.098 463.947C231.098 463.947 228.107 460.293 226.281 461.788C224.454 463.283 222.794 464.445 222.129 465.94C221.466 467.435 220.636 470.258 220.636 470.258C220.636 470.258 221.981 471.184 223.823 470.426C225.666 469.667 226.604 469.059 227.778 469.45C229.566 470.046 231.408 471.238 231.897 471.671C232.385 472.105 233.359 473.081 233.359 473.081C233.359 473.081 233.576 466.85 231.517 464.411C229.458 461.973 231.098 463.947 231.098 463.947z">
    </path>

  </g>
  <g
     id="g684"
     style="fill: #000000">    <path
       id="path685"
       d="M237.795 472.996C237.795 472.996 236.57 476.652 236.57 478.147C236.57 479.642 237.132 481.462 237.132 481.462M237.658 472.951C237.608 473.101 236.427 476.646 236.427 478.147C236.427 479.646 236.971 481.429 236.994 481.504L237.269 481.419L237.269 481.419C237.264 481.401 236.714 479.602 236.714 478.147C236.714 476.693 237.919 473.078 237.931 473.042L237.658 472.951z">
    </path>

  </g>
  <g
     id="g686"
     style="fill: #ffb500">    <path
       id="path687"
       d="M200.207 469.76C200.207 469.76 194.893 475.738 194.062 477.399C193.232 479.06 191.737 480.554 192.07 482.88C192.402 485.205 194.727 487.197 194.893 489.025C195.059 490.851 195.225 495.003 196.056 495.668C196.886 496.332 199.045 495.667 199.875 496.83C200.706 497.993 203.861 498.657 205.023 498.657C206.186 498.657 209.303 499.413 209.303 499.413C209.303 499.413 206.684 496.664 204.525 495.668C202.367 494.671 200.918 493.462 200.254 490.473C199.59 487.483 199.272 483.197 199.604 481.371C199.937 479.544 199.045 479.392 199.045 478.23C199.045 477.067 199.709 471.586 199.875 471.088C200.041 470.59 200.207 469.76 200.207 469.76z">
    </path>

  </g>
  <g
     id="g692"
     style="fill: #000000">    <path
       id="path693"
       d="M229.133 462.027C229.133 462.027 226.532 459.698 223.281 459.698M229.229 461.92C229.121 461.824 226.55 459.554 223.281 459.554L223.281 459.841C226.438 459.841 229.012 462.112 229.037 462.135L229.229 461.92z">
    </path>

  </g>
  <g
     id="g694"
     style="fill: #ffb500">    <path
       id="path695"
       d="M239.527 485.404C239.527 485.404 239.527 488.289 237.325 492.692C236.474 494.394 236.643 497.627 236.643 497.627C236.643 497.627 239.041 496.829 240.066 495.834C241.211 494.722 243.353 491.407 243.353 487.684C243.353 485.587 242.243 482.44 241.893 481.717C241.67 481.258 240.897 482.714 240.897 482.714L239.527 485.404z">
    </path>

  </g>
  <g
     id="g700"
     style="fill: #000000">    <path
       id="path701"
       d="M200.207 469.76C200.207 469.76 201.702 466.936 203.196 465.94M200.334 469.827L200.334 469.827C200.349 469.799 201.83 467.024 203.276 466.06L203.117 465.82C201.609 466.825 200.142 469.576 200.081 469.693L200.334 469.827z">
    </path>

  </g>
  <g
     id="g702"
     style="fill: #000000">    <path
       id="path703"
       d="M225.617 462.452C225.617 462.452 229.685 463.2 230.102 466.77C230.323 468.675 230.267 470.507 230.267 470.507M225.592 462.594L225.592 462.594C225.631 462.601 229.56 463.366 229.958 466.787C230.177 468.658 230.124 470.484 230.123 470.502L230.411 470.512C230.411 470.493 230.465 468.646 230.244 466.753C229.821 463.12 225.685 462.318 225.644 462.311L225.592 462.594z">
    </path>

  </g>
  <g
     id="g704"
     style="fill: #000000">    <path
       id="path705"
       d="M224.122 463.532C224.122 463.532 226.793 464.804 227.36 465.94C228.191 467.601 228.191 469.511 228.191 469.511M224.06 463.662L224.06 463.662C224.087 463.674 226.692 464.925 227.232 466.004C228.036 467.614 228.047 469.492 228.047 469.511L228.335 469.511C228.335 469.432 228.325 467.547 227.489 465.875C226.906 464.708 224.295 463.455 224.185 463.402L224.06 463.662z">
    </path>

  </g>
  <g
     id="g706"
     style="fill: #000000">    <path
       id="path707"
       d="M223.043 464.777C223.043 464.777 224.953 465.774 225.451 466.77C225.902 467.674 225.783 469.511 225.783 469.511M222.977 464.905L222.977 464.905C222.995 464.915 224.852 465.892 225.322 466.835C225.752 467.693 225.641 469.483 225.64 469.501L225.927 469.52C225.932 469.443 226.043 467.634 225.58 466.706C225.066 465.68 223.188 464.691 223.109 464.65L222.977 464.905z">
    </path>

  </g>
  <g
     id="g708"
     style="fill: #000000">    <path
       id="path709"
       d="M222.047 466.188C222.047 466.188 223.375 466.438 223.79 468.099C224.052 469.146 223.79 470.341 223.79 470.341M222.021 466.33L222.019 466.33C222.07 466.34 223.265 466.588 223.651 468.134C223.901 469.135 223.652 470.298 223.65 470.31L223.931 470.372C223.942 470.321 224.196 469.132 223.93 468.064C223.497 466.333 222.131 466.059 222.073 466.047L222.021 466.33z">
    </path>

  </g>
  <g
     id="g710"
     style="fill: #000000">    <path
       id="path711"
       d="M241.893 481.717C241.893 481.717 240.191 479.269 239.834 477.331M242.011 481.635L242.011 481.635C241.994 481.611 240.322 479.189 239.976 477.305L239.692 477.357C240.052 479.303 241.705 481.698 241.775 481.799L242.011 481.635z">
    </path>

  </g>
  <g
     id="g712"
     style="fill: #000000">    <path
       id="path713"
       d="M213.041 476.675C213.041 476.675 211.303 474.483 212.361 472.141M213.154 476.586L213.154 476.586C213.138 476.564 211.484 474.433 212.492 472.2L212.231 472.081C211.148 474.477 212.911 476.742 212.929 476.765L213.154 476.586z">
    </path>

  </g>
  <g
     id="g720"
     style="fill: #d80000">    <path
       id="path721"
       d="M218.745 504.777C218.762 504.784 220.472 505.449 220.941 504.98C220.96 504.961 221.168 504.797 222.493 504.797C222.905 504.797 223.74 504.365 224.032 503.999C224.3 503.664 224.731 502.818 224.353 502.344C224.097 502.024 223.618 502.136 223.111 502.254C222.852 502.315 222.582 502.378 222.364 502.378L222.187 502.379C221.562 502.384 220.515 502.392 219.817 501.91C219.346 501.584 218.93 501.481 218.582 501.606C218.313 501.701 218.117 501.926 218.028 502.239C217.946 502.524 217.272 503.352 216.865 503.806L216.601 504.102L216.982 504.211C216.996 504.215 218.316 504.593 218.745 504.777z">
    </path>

  </g>
  <g
     id="g714"
     style="fill: #ffffff">    <path
       id="path715"
       d="M218.644 501.964C218.644 501.964 218.09 502.994 217.959 503.152C217.827 503.31 219.463 503.732 219.99 503.812C220.519 503.891 221.495 503.996 222.312 504.023C223.13 504.049 223.606 504.102 223.843 503.812C224.08 503.522 224.238 503.073 224.159 502.835C224.08 502.598 224.292 502.281 223.737 502.387C223.184 502.492 221.864 502.571 221.495 502.545C221.126 502.519 220.281 502.387 220.097 502.308C219.912 502.228 218.882 501.648 218.777 501.754C218.671 501.859 218.644 501.964 218.644 501.964z">
    </path>

  </g>
  <g
     id="g716"
     style="fill: #000000">    <path
       id="path717"
       d="M217.832 503.037C217.832 503.037 220.118 503.642 220.555 503.704C221.463 503.834 223.032 503.774 223.344 503.899C223.654 504.023 222.129 504.532 222.129 504.532C222.129 504.532 221.009 504.719 220.572 504.781C220.137 504.843 219.045 504.626 218.843 504.548C218.642 504.47 217.741 503.971 217.396 503.972C217.051 503.972 217.209 503.598 217.396 503.473C217.584 503.349 217.832 503.037 217.832 503.037z">
    </path>

  </g>
  <g
     id="g730"
     style="fill: #000000">    <path
       id="path731"
       d="M198.214 453.401C198.214 453.401 199.46 451.159 201.702 450.162M198.34 453.471L198.34 453.471C198.353 453.449 199.59 451.258 201.761 450.294L201.644 450.031C199.384 451.036 198.141 453.238 198.089 453.331L198.34 453.471z">
    </path>

  </g>
  <g
     id="g732"
     style="fill: #000000">    <path
       id="path733"
       d="M235.582 447.92C235.582 447.92 232.344 444.931 227.111 444.184M235.68 447.815C235.647 447.785 232.348 444.787 227.132 444.042L227.092 444.326C232.215 445.058 235.452 447.997 235.484 448.026L235.68 447.815z">
    </path>

  </g>
  <g
     id="g718"
     style="fill: #d80000">    <path
       id="path719"
       d="M217.553 503.625C217.741 503.415 218.37 502.854 218.507 502.375C218.532 502.287 218.598 502.129 218.75 502.075C218.933 502.009 219.211 502.097 219.534 502.32C220.36 502.892 221.507 502.882 222.191 502.877L222.364 502.877C222.641 502.877 222.938 502.807 223.226 502.74C223.428 502.692 223.904 502.581 223.963 502.654C224.093 502.817 223.893 503.375 223.644 503.688C223.432 503.952 222.738 504.299 222.493 504.299C221.096 504.299 220.741 504.475 220.588 504.628C220.592 504.624 220.596 504.622 220.596 504.622C220.43 504.725 219.487 504.553 218.941 504.319C218.484 504.123 217.514 503.858 217.458 503.843L217.553 503.625z">
    </path>

  </g>
  <g
     id="g734"
     style="fill: #000000">    <path
       id="path735"
       d="M229.353 444.5L227.36 443.005M229.44 444.385L227.447 442.89L227.274 443.121L229.268 444.615L229.44 444.385z">
    </path>

  </g>
  <g
     id="g736"
     style="fill: #000000">    <path
       id="path737"
       d="M182.504 479.89C182.504 479.89 182.352 477.586 185.129 475.503M182.648 479.881L182.648 479.881C182.647 479.859 182.54 477.625 185.215 475.619L185.043 475.388C182.235 477.494 182.354 479.803 182.361 479.9L182.648 479.881z">
    </path>

  </g>
  <g
     id="g738"
     style="fill: #000000">    <path
       id="path739"
       d="M241.329 561.857C241.329 561.857 241.083 559.401 240.101 557.683M241.472 561.843C241.462 561.742 241.211 559.337 240.226 557.611L239.976 557.754C240.931 559.426 241.184 561.848 241.185 561.872L241.472 561.843z">
    </path>

  </g>
  <g
     id="g740"
     style="fill: #8c0000">    <path
       id="path741"
       d="M262.698 669.374C262.698 669.374 274.147 658.562 282.627 655.381C291.108 652.201 300.861 647.536 302.981 646.9C305.102 646.265 306.797 646.9 306.161 649.656C305.525 652.413 305.313 660.894 305.949 662.378C306.585 663.861 307.964 671.365 307.434 674.675C306.747 678.95 302.558 685.91 301.285 689.092C300.013 692.272 297.681 699.903 297.044 701.388C296.409 702.872 288.563 717.5 288.352 718.561C288.141 719.62 288.14 724.073 287.504 724.921C286.868 725.769 285.384 726.617 284.535 728.949C283.688 731.282 282.84 734.037 283.052 734.886C283.264 735.734 282.416 737.431 281.356 738.278C280.296 739.126 279.66 742.519 278.6 744.002C277.539 745.486 273.935 753.119 272.663 755.663C271.391 758.208 269.06 765.416 269.272 768.597C269.482 771.776 274.147 771.352 274.571 772.625C274.996 773.897 272.451 774.744 272.451 774.744C272.451 774.744 277.199 780.43 284.097 781.881C290.643 783.26 290.602 785.173 295.69 785.385C300.779 785.597 304.462 787.907 305.867 790.049C306.84 791.53 309.472 791.108 309.472 791.108L309.472 794.501L270.756 797.853C270.756 797.853 263.759 787.677 259.519 786.192C255.278 784.709 258.67 798.426 258.67 798.426L247.434 798.426C247.434 798.426 248.281 783.438 247.434 779.408C246.586 775.38 243.772 767.269 247.098 763.578C250.013 760.345 250.393 760.584 251.453 759.523C252.514 758.463 257.398 746.335 258.458 743.579C259.519 740.822 265.031 729.585 264.818 728.949C264.606 728.313 263.334 727.465 263.547 726.405C263.759 725.346 262.699 720.682 263.123 720.045C263.547 719.409 266.091 718.35 266.727 716.652C267.363 714.957 271.815 700.328 272.027 696.3C272.239 692.271 270.756 689.939 271.391 688.879C272.027 687.819 277.327 682.731 276.903 681.246C276.479 679.762 274.783 679.551 273.935 679.762C273.088 679.975 272.027 678.279 272.875 676.37C273.723 674.462 271.391 673.613 269.907 673.19C268.423 672.767 263.123 671.494 262.91 670.435C262.698 669.374 262.698 669.374 262.698 669.374z">
    </path>

  </g>
  <g
     id="g746"
     style="fill: #000000">    <path
       id="path747"
       d="M282.716 675.131C282.716 675.131 285.83 672.777 285.262 675.768C284.897 677.688 283.512 679.428 281.921 680.86C281.029 681.663 274.789 686.577 274.122 687.226M282.803 675.246L282.803 675.246C283.229 674.924 284.446 674.155 284.945 674.465C285.19 674.617 285.25 675.058 285.121 675.74C284.81 677.377 283.701 679.063 281.824 680.754C281.411 681.125 279.852 682.378 278.201 683.704C276.324 685.212 274.383 686.772 274.022 687.122L274.222 687.329C274.573 686.987 276.509 685.433 278.381 683.929C280.035 682.6 281.598 681.344 282.017 680.967C283.941 679.234 285.081 677.494 285.403 675.794C285.562 674.961 285.462 674.447 285.097 674.221C284.342 673.752 282.803 674.886 282.63 675.017L282.803 675.246z">
    </path>

  </g>
  <g
     id="g748"
     style="fill-opacity:100%; fill:none; stroke-width:1px; stroke-linejoin:miter; stroke-linecap:butt; stroke-opacity:100%; stroke:#000000; ">    <path
       id="path749"
       style="fill-opacity:100%; fill:none; stroke-width:1px; stroke-linejoin:miter; stroke-linecap:butt; stroke-opacity:100%; stroke:#000000; "
       d="M268.423 722.377C268.423 722.377 266.091 721.317 266.938 720.469C267.786 719.62 274.359 715.169 275.419 714.533C276.479 713.897 278.388 712.836 280.084 713.049M268.482 722.246L268.482 722.246C268.075 722.061 266.998 721.466 266.903 720.94C266.879 720.808 266.924 720.687 267.04 720.57C267.845 719.766 274.359 715.337 275.493 714.656C276.699 713.933 278.485 712.993 280.066 713.191L280.102 712.906C278.433 712.697 276.588 713.664 275.345 714.409C274.385 714.986 267.726 719.477 266.837 720.367C266.654 720.55 266.579 720.766 266.62 720.991C266.76 721.759 268.2 722.434 268.363 722.508L268.482 722.246z">
    </path>

  </g>
  <g
     id="g750"
     style="fill-opacity:100%; fill:none; stroke-width:1px; stroke-linejoin:miter; stroke-linecap:butt; stroke-opacity:100%; stroke:#000000; ">    <path
       id="path751"
       style="fill-opacity:100%; fill:none; stroke-width:1px; stroke-linejoin:miter; stroke-linecap:butt; stroke-opacity:100%; stroke:#000000; "
       d="M272.663 711.564C272.663 711.564 272.664 713.685 271.603 714.533C270.543 715.381 266.656 717.501 266.021 717.925M272.519 711.564L272.519 711.564C272.519 711.586 272.507 713.626 271.513 714.421C270.812 714.981 268.854 716.108 267.426 716.931C266.716 717.34 266.154 717.663 265.94 717.806L266.1 718.045C266.307 717.907 266.863 717.586 267.569 717.18C269.006 716.353 270.975 715.22 271.692 714.646C272.795 713.765 272.807 711.654 272.807 711.564L272.519 711.564z">
    </path>

  </g>
  <g
     id="g752"
     style="fill-opacity:100%; fill:none; stroke-width:1px; stroke-linejoin:miter; stroke-linecap:butt; stroke-opacity:100%; stroke:#000000; ">    <path
       id="path753"
       style="fill-opacity:100%; fill:none; stroke-width:1px; stroke-linejoin:miter; stroke-linecap:butt; stroke-opacity:100%; stroke:#000000; "
       d="M278.176 734.674C278.176 734.674 281.144 735.31 279.235 736.369C277.327 737.431 273.299 739.126 273.511 739.975M278.146 734.814L278.146 734.814C278.728 734.939 279.675 735.275 279.729 735.643C279.755 735.814 279.555 736.028 279.166 736.244C278.69 736.508 278.083 736.812 277.44 737.134C274.869 738.419 273.197 739.313 273.371 740.009L273.65 739.939C273.519 739.416 275.956 738.197 277.568 737.391C278.215 737.067 278.825 736.763 279.306 736.495C279.829 736.205 280.06 735.912 280.014 735.601C279.912 734.918 278.38 734.57 278.206 734.533L278.146 734.814z">
    </path>

  </g>
  <g
     id="g754"
     style="fill-opacity:100%; fill:none; stroke-width:1px; stroke-linejoin:miter; stroke-linecap:butt; stroke-opacity:100%; stroke:#000000; ">    <path
       id="path755"
       style="fill-opacity:100%; fill:none; stroke-width:1px; stroke-linejoin:miter; stroke-linecap:butt; stroke-opacity:100%; stroke:#000000; "
       d="M280.888 738.95C280.888 738.95 276.268 740.61 276.268 742.307M280.839 738.814C280.647 738.884 276.124 740.529 276.124 742.307L276.411 742.307C276.411 740.998 279.678 739.538 280.937 739.085L280.945 739.082L280.953 739.078L280.839 738.814z">
    </path>

  </g>
  <g
     id="g756"
     style="fill-opacity:100%; fill:none; stroke-width:1px; stroke-linejoin:miter; stroke-linecap:butt; stroke-opacity:100%; stroke:#000000; ">    <path
       id="path757"
       style="fill-opacity:100%; fill:none; stroke-width:1px; stroke-linejoin:miter; stroke-linecap:butt; stroke-opacity:100%; stroke:#000000; "
       d="M268.211 770.928C268.211 770.928 271.603 772.413 270.968 773.048C270.331 773.685 266.727 774.107 266.091 774.532C265.455 774.957 264.394 776.017 264.394 776.652M268.152 771.06L268.152 771.06C269.169 771.505 270.815 772.382 270.9 772.842C270.908 772.884 270.898 772.913 270.866 772.946C270.533 773.279 269.161 773.583 268.059 773.827C267.118 774.035 266.307 774.215 266.011 774.412C265.416 774.811 264.251 775.91 264.251 776.652L264.538 776.652C264.538 776.106 265.521 775.086 266.17 774.651C266.422 774.483 267.285 774.293 268.121 774.107C269.378 773.829 270.677 773.542 271.069 773.15C271.169 773.05 271.209 772.925 271.184 772.789C271.043 772.046 268.731 770.999 268.269 770.796L268.152 771.06z">
    </path>

  </g>
  <g
     id="g758"
     style="fill: #000000">    <path
       id="path759"
       d="M307.469 791.21C307.469 791.21 275.631 794.038 273.723 793.825C271.815 793.613 268.636 791.705 267.575 790.434C266.516 789.161 264.669 787.306 261.965 786.255C260.763 785.787 258.662 785.955 258.662 785.955M307.456 791.067L307.456 791.067C307.138 791.095 275.61 793.891 273.739 793.683C271.884 793.477 268.756 791.626 267.685 790.341C266.035 788.361 264.129 786.941 262.018 786.121C260.798 785.647 258.737 785.804 258.65 785.812L258.673 786.098L258.673 786.098C258.693 786.097 260.756 785.938 261.913 786.39C263.978 787.191 265.846 788.583 267.465 790.525C268.567 791.849 271.793 793.756 273.707 793.968C275.607 794.18 306.181 791.47 307.481 791.353L307.456 791.067z">
    </path>

  </g>
  <g
     id="g760"
     style="fill: #000000">    <path
       id="path761"
       d="M247.549 794.515L257.76 794.515M247.549 794.658L257.76 794.658L257.76 794.37L247.549 794.37L247.549 794.658z">
    </path>

  </g>
  <g
     id="g762"
     style="fill-opacity:100%; fill:none; stroke-width:1px; stroke-linejoin:miter; stroke-linecap:butt; stroke-opacity:100%; stroke:#000000; ">    <path
       id="path763"
       style="fill-opacity:100%; fill:none; stroke-width:1px; stroke-linejoin:miter; stroke-linecap:butt; stroke-opacity:100%; stroke:#000000; "
       d="M272.451 774.744C272.451 774.744 270.525 774.692 269.774 775.442M272.455 774.601C272.374 774.599 270.459 774.556 269.673 775.341L269.876 775.544C270.574 774.847 272.429 774.888 272.447 774.889L272.455 774.601z">
    </path>

  </g>
  <g
     id="g764"
     style="fill: #000000">    <path
       id="path765"
       d="M147.432 777.028C147.432 777.028 146.206 787.24 144.164 788.874C142.121 790.509 139.67 792.96 139.465 794.799C139.261 796.637 139.67 801.13 139.057 802.151C138.444 803.172 133.338 807.257 131.295 808.074C129.253 808.892 114.75 808.075 114.75 808.075M147.289 777.012L147.289 777.012C147.277 777.112 146.047 787.183 144.073 788.762C143.023 789.602 139.574 792.523 139.323 794.783C139.246 795.477 139.254 796.53 139.264 797.647C139.28 799.439 139.297 801.472 138.934 802.077C138.357 803.039 133.268 807.13 131.242 807.941C129.252 808.737 114.903 807.939 114.759 807.932L114.743 808.219C115.336 808.252 129.3 809.027 131.349 808.208C133.471 807.358 138.574 803.234 139.181 802.225C139.585 801.551 139.568 799.564 139.552 797.644C139.542 796.537 139.533 795.491 139.608 794.814C139.847 792.664 143.224 789.811 144.253 788.986C146.318 787.334 147.524 777.465 147.574 777.046L147.289 777.012z">
    </path>

  </g>
  <g
     id="g766"
     style="fill: #000000">    <path
       id="path767"
       d="M140.487 800.312C140.487 800.312 139.262 794.594 139.874 793.164M140.627 800.282L140.627 800.282C140.615 800.226 139.418 794.592 140.007 793.221L139.742 793.107C139.119 794.562 140.296 800.107 140.346 800.343L140.627 800.282z">
    </path>

  </g>
  <g
     id="g768"
     style="fill: #000000">    <path
       id="path769"
       d="M144.776 771.514C144.776 771.514 141.509 770.9 140.895 772.126M144.803 771.372C144.665 771.346 141.421 770.754 140.767 772.062L141.024 772.189C141.487 771.265 143.871 771.49 144.75 771.655L144.803 771.372z">
    </path>

  </g>
  <g
     id="g770"
     style="fill: #000000">    <path
       id="path771"
       d="M151.721 751.496C151.721 751.496 146.819 751.088 146.615 753.13M151.732 751.352C151.527 751.335 146.688 750.957 146.472 753.116L146.758 753.144C146.946 751.266 151.661 751.635 151.709 751.639L151.732 751.352z">
    </path>

  </g>
  <g
     id="g772"
     style="fill: #000000">    <path
       id="path773"
       d="M146.467 710.991C146.467 710.991 145.038 709.969 146.059 709.152C147.08 708.335 149.735 708.744 151.369 709.766M146.551 710.874L146.551 710.874C146.544 710.869 145.849 710.364 145.835 709.833C145.83 709.624 145.932 709.438 146.149 709.265C147.066 708.53 149.615 708.838 151.293 709.888L151.445 709.644C149.828 708.632 147.083 708.148 145.969 709.04C145.681 709.269 145.54 709.539 145.548 709.841C145.565 710.516 146.35 711.084 146.384 711.108L146.551 710.874z">
    </path>

  </g>
  <g
     id="g774"
     style="fill: #000000">    <path
       id="path775"
       d="M148.617 701.137C148.617 701.137 146.685 699.29 148.465 698.421C150.244 697.554 154.216 698.876 156.461 700.779M148.716 701.032L148.716 701.032C148.707 701.023 147.744 700.09 147.866 699.307C147.915 698.995 148.137 698.741 148.528 698.551C150.156 697.757 154.04 698.915 156.369 700.889L156.555 700.67C154.354 698.805 150.314 697.359 148.402 698.292C147.921 698.526 147.645 698.852 147.582 699.263C147.436 700.195 148.473 701.198 148.518 701.24L148.716 701.032z">
    </path>

  </g>
  <g
     id="g776"
     style="fill: #000000">    <path
       id="path777"
       d="M190.738 437.682C190.738 437.682 183.277 432.587 180.183 435.681M190.819 437.563C190.51 437.352 183.224 432.437 180.082 435.579L180.285 435.782C183.259 432.809 190.583 437.75 190.656 437.801L190.819 437.563z">
    </path>

  </g>
  <g
     id="g778"
     style="fill: #000000">    <path
       id="path779"
       d="M188.918 436.59C188.918 436.59 185.096 435.499 183.641 436.59M188.957 436.452C188.799 436.407 185.05 435.354 183.554 436.476L183.727 436.706C185.108 435.669 188.841 436.718 188.878 436.729L188.957 436.452z">
    </path>

  </g>
  <g
     id="g780"
     style="fill: #ffc4c4">    <path
       id="path781"
       d="M271.505 547.632C270.743 545.499 269.066 542.604 268.609 541.842C268.152 541.08 267.252 539.293 267.252 539.293C267.252 539.293 264.933 542.378 262.494 543.902C260.056 545.425 257.31 547.313 256.548 547.618C255.786 547.923 254.764 548.646 254.764 548.646C254.764 548.646 256.858 551.718 256.258 553.256C255.657 554.794 254.134 557.994 253.677 558.908C253.219 559.822 251.086 563.632 250.629 564.698C250.172 565.765 247.733 571.86 247.276 572.774C246.82 573.689 245.705 575.929 244.486 577.148C243.268 578.367 241.944 579.615 241.519 580.265C240.223 582.241 240.42 582.832 240.268 584.051C240.115 585.269 239.435 587.9 238.324 589.704C237.49 591.059 237.744 593.571 237.972 593.997C238.78 595.513 240.572 593.498 240.725 592.279C240.877 591.06 241.81 588.888 241.963 588.278C242.115 587.669 240.772 590.557 241.287 592.51C241.713 594.131 240.548 598.42 240.853 600.097C241.158 601.773 240.917 602.634 241.222 604.158C241.526 605.682 242.112 606.533 242.112 606.533C242.112 606.533 242.822 607.943 244.229 608.126C244.378 608.146 244.481 608.064 244.552 607.888C245.231 608.255 245.967 608.479 246.118 608.166C246.764 606.831 245.853 605.809 245.853 605.215C245.853 604.621 245.638 603.187 245.638 602.593C245.638 602 245.43 599.057 245.43 599.057L245.449 595.31C245.449 595.31 245.731 594.429 245.432 594.72C246.178 593.461 246.896 592.407 247.01 592.137C247.934 589.934 247.857 586.981 248.19 585.574C248.874 582.695 250.435 581.666 251.045 580.752C251.655 579.837 255.435 575.375 257.702 573.055C258.798 571.933 264.801 565.156 265.867 563.784C266.934 562.413 271.352 557.841 271.657 555.861C271.962 553.88 272.267 549.766 271.505 547.632z">
    </path>

  </g>
  <g
     id="g786"
     style="fill: #000000">    <path
       id="path787"
       d="M245.853 593.997C245.853 593.997 244.062 597.772 243.974 598.849C243.883 599.925 243.529 601.981 243.832 602.789C244.136 603.598 244.944 606.225 244.844 606.933C244.742 607.641 244.229 608.126 244.229 608.126M245.724 593.935C245.65 594.09 243.921 597.746 243.83 598.837C243.81 599.078 243.775 599.375 243.739 599.688C243.611 600.799 243.451 602.182 243.697 602.839C244.049 603.774 244.791 606.282 244.701 606.912C244.608 607.56 244.135 608.018 244.131 608.022L244.328 608.231C244.351 608.209 244.879 607.701 244.985 606.952C245.094 606.194 244.25 603.493 243.967 602.738C243.744 602.146 243.907 600.744 244.025 599.721C244.062 599.405 244.096 599.107 244.116 598.861C244.202 597.821 245.966 594.096 245.983 594.059L245.724 593.935z">
    </path>

  </g>
  <g
     id="g788"
     style="fill: #d80000">    <path
       id="path789"
       d="M238.478 591.47C238.478 591.47 238.982 591.976 239.487 591.773C239.992 591.571 239.893 592.683 239.589 593.087C239.285 593.491 239.242 593.945 238.881 593.997C238.174 594.098 238.174 593.289 238.174 592.784C238.174 592.279 238.478 591.47 238.478 591.47z">
    </path>

  </g>
  <g
     id="g794"
     style="fill: #d80000">    <path
       id="path795"
       d="M244.339 604.81C244.339 604.81 244.034 605.518 243.731 605.518C243.429 605.518 244.339 606.428 244.339 606.831C244.339 607.235 245.147 607.741 245.147 607.741C245.147 607.741 244.742 606.124 244.54 605.72C244.339 605.315 244.339 604.81 244.339 604.81z">
    </path>

  </g>
  <g
     id="g800"
     style="fill: #d80000">    <path
       id="path801"
       d="M245.926 605.315C245.926 605.315 245.674 606.023 245.423 606.023C245.172 606.023 245.926 606.933 245.926 607.336C245.926 607.741 246.596 608.246 246.596 608.246C246.596 608.246 246.261 606.629 246.093 606.225C245.926 605.82 245.926 605.315 245.926 605.315z">
    </path>

  </g>
  <g
     id="g806"
     style="fill: #000000">    <path
       id="path807"
       d="M244.062 585.621C243.857 587.37 241.963 588.278 241.963 588.278M243.92 585.604C243.727 587.252 241.919 588.14 241.9 588.149L242.025 588.408C242.106 588.37 243.993 587.444 244.205 585.638L243.92 585.604z">
    </path>

  </g>
  <g
     id="g808"
     style="fill: #000000">    <path
       id="path809"
       d="M242.109 588.706C242.109 588.706 243.548 588.809 243.96 588.089M242.099 588.85C242.161 588.854 243.633 588.949 244.085 588.16L243.835 588.018C243.474 588.65 242.133 588.563 242.119 588.562L242.099 588.85z">
    </path>

  </g>
  <g
     id="g810"
     style="fill-opacity:100%; fill:none; stroke-width:1px; stroke-linejoin:miter; stroke-linecap:butt; stroke-opacity:100%; stroke:#000000; ">    <path
       id="path811"
       style="fill-opacity:100%; fill:none; stroke-width:1px; stroke-linejoin:miter; stroke-linecap:butt; stroke-opacity:100%; stroke:#000000; "
       d="M264.818 728.949C264.818 728.949 268.218 724.869 271.254 724.402M264.874 728.995L264.874 728.995C264.908 728.955 268.29 724.931 271.265 724.474L271.243 724.331C268.215 724.797 264.797 728.862 264.764 728.903L264.874 728.995z">
    </path>

  </g>
  <g
     id="g812"
     style="fill: #000000">    <path
       id="path813"
       d="M140.447 798.215C140.447 798.215 144.885 797.981 145.352 797.047M140.451 798.287C140.634 798.277 144.936 798.04 145.417 797.079L145.288 797.015C144.92 797.75 141.666 798.079 140.443 798.143L140.451 798.287z">
    </path>

  </g>
  <g
     id="g814"
     style="fill: #000000">    <path
       id="path815"
       d="M153.825 679.639C153.825 679.639 154.209 680.235 154.55 680.534M153.704 679.717C153.72 679.742 154.103 680.333 154.456 680.643L154.644 680.426C154.323 680.144 153.95 679.567 153.946 679.561L153.704 679.717z">
    </path>

  </g>
  <g
     id="g816"
     style="fill: #000000">    <path
       id="path817"
       d="M179.364 687.569C179.364 687.569 180.515 687.526 180.898 687.227M179.369 687.713C179.491 687.708 180.578 687.659 180.987 687.342L180.81 687.114C180.526 687.335 179.666 687.414 179.358 687.425L179.369 687.713z">
    </path>

  </g>

</svg>
