<?xml version="1.0" standalone="no"?>
<!DOCTYPE svg PUBLIC "-//W3C//DTD SVG August 1999//EN"
"http://www.w3.org/Graphics/SVG/SVG-19990812.dtd">
<svg
   xmlns:sodipodi="http://sodipodi.sourceforge.net/DTD/sodipodi-0.dtd"
   xmlns="http://www.w3.org/Graphics/SVG/SVG-19991203.dtd"
   id="svg1245"
   sodipodi:docbase="/home/lauris/tmp/manga/"
   sodipodi:docname="/home/lauris/tmp/manga/mangatips7.svg">  <sodipodi:namedview
     id="base">
  </sodipodi:namedview>
  <g
     id="g1630"
     style="fill: #000000">    <path
       d="M211.623 258.969C227.327 267.142 240.918 283.581 242.94 301.029C246.337 314.07 245.786 326.468 244.225 339.6L243.766 340.06C242.755 358.335 233.388 374.773 235.684 393.6C237.612 404.62 247.438 412.977 255.245 419.222C257.541 423.263 261.766 424.365 264.979 427.303C270.122 427.763 275.633 427.12 279.306 423.63C282.703 424.089 280.133 428.405 280.592 430.885C279.948 435.018 277.744 438.783 275.082 441.63L275.082 442.364C274.806 442.364 274.53 442.273 274.438 442.548C282.244 452.65 284.266 465.231 292.53 475.15C295.285 481.119 298.5 487.088 301.529 492.782C303.092 497.282 305.388 500.956 307.225 505.364C308.602 506.833 309.428 508.762 310.162 510.69C319.07 524.19 327.978 538.149 335.509 552.567C337.453 556.923 338.764 560.729 339.15 565.412C339.94 574.975 336.978 580.577 336.978 582.322L335.693 585.996C335.601 585.904 334.861 595.703 324.673 594.812C320.54 596.281 314.846 595.455 310.53 597.291C310.53 599.312 312.734 600.873 313.193 602.985C313.68 603.667 315.305 602.801 316.315 603.628C325.592 609.873 324.107 621.197 328.791 629.922C330.418 636.023 335.282 647.898 335.282 647.898C337.763 658.091 341.663 668.831 345.428 679.024C347.999 691.148 350.754 705.198 350.478 718.698C350.57 720.075 349.275 728.102 342.599 739.379C338.497 746.307 332.479 751.575 326.417 756.81C319.254 762.871 308.876 765.81 299.142 765.901C295.836 771.779 294.918 778.667 292.254 784.819L291.153 789.871C292.438 790.881 293.908 791.34 294.918 792.992C296.57 798.687 291.979 803.737 291.795 809.248C288.03 821.462 287.571 834.962 285.458 847.818C283.989 859.298 292.071 867.931 292.897 878.951C294 887.768 287.203 894.471 290.326 903.838C291.244 910.45 292.163 916.236 291.428 922.757C284.999 932.032 278.847 942.961 266.908 944.798C254.97 949.022 241.908 950.24 222.459 945.073C219.522 944.705 217.041 943.42 214.011 943.328C212.725 942.043 211.715 926.797 209.419 921.287C205.103 909.9 207.205 897.811 215.112 887.492C219.429 878.676 223.378 869.768 228.612 861.318C232.562 852.135 235.867 842.584 238.071 832.666L238.715 831.105C239.266 819.625 242.755 808.513 242.022 797.401C241.562 785.279 241.47 774.81 238.715 763.697C238.622 771.411 237.062 779.952 238.255 787.666C234.674 787.207 232.652 793.727 229.438 789.411C227.97 789.411 226.592 790.055 226.868 791.892C226.5 799.789 230.336 805.171 232.172 812.425C232.715 815.438 232.347 819.312 231.922 821.413C231.922 823.158 227.678 831.399 210.979 834.411C203.9 835.688 197.113 837.533 189.582 836.614C186.093 836.155 183.246 834.043 179.481 834.227C177.919 833.217 179.664 831.656 178.746 830.462C177 826.605 178.195 821.37 179.481 817.421C177.552 812.921 179.021 807.595 180.766 803.554C170.389 810.35 160.562 818.34 148.624 821.187C140.175 826.33 129.31 826.157 117.951 823.85C111.584 820.914 107.845 818.414 103.345 814.923C97.008 809.231 93.522 800.982 91.043 793.177C91.043 793.177 80.376 777.723 100.318 734.585C103.44 728.892 105.001 722.463 109.593 717.596C99.951 688.117 83.328 660.933 84.706 627.506C84.155 616.761 84.614 605.281 85.074 594.444C84.247 574.883 82.41 554.128 81.583 533.832C83.604 518.129 79.012 500.221 84.706 485.527C83.42 485.344 81.4 486.445 80.298 485.068C73.318 485.619 67.625 482.864 62.206 479.833C61.747 479.466 62.023 478.915 61.931 478.456C63.216 477.905 65.237 477.721 67.074 477.813C73.961 474.69 83.879 470.925 84.431 461.926C82.227 461.466 79.564 459.538 77.359 461.466C76.808 461.375 76.44 461.007 76.257 460.364C78.461 457.885 82.502 458.803 85.349 457.334C82.135 445.303 69.553 437.405 65.237 425.559C55.87 407.65 63.859 387.447 74.053 372.477C82.318 358.977 73.135 343.733 75.614 328.58C77.635 316.274 80.206 304.244 85.074 293.131C92.053 277.428 107.297 262.275 124.379 258.969C134.573 255.111 146.144 255.203 157.807 256.306C161.022 257.683 164.052 257.315 167.358 258.326C178.011 257.958 187.103 253.918 197.755 255.479C202.072 257.315 207.307 257.132 211.623 258.969z"
       id="path1631">
    </path>

  </g>
  <g
     id="g1632"
     style="fill: #fa8912">    <path
       d="M164.878 260.07C176.358 260.898 186.644 255.754 197.94 257.683C215.112 258.234 229.806 273.387 236.97 287.621C239.725 298.091 244.408 308.284 243.122 319.764C244.316 343.182 235.408 364.947 233.021 387.631C233.663 394.702 234.489 402.232 240.092 407.467C244.776 412.977 249.092 418.028 255.06 421.793L249.092 421.61L247.99 421.61C248.265 420.048 248.633 418.395 246.704 417.844C242.755 420.324 239.449 425.926 234.123 424.732C231.552 424.181 228.705 423.079 226.409 423.171C226.5 422.987 226.316 422.895 226.133 422.711L225.765 422.711C227.878 425.926 232.47 426.293 236.052 427.303C239.54 426.936 242.481 425.007 245.143 422.528C240.918 431.712 232.929 439.977 222.827 441.905C218.235 441.997 211.348 444.018 207.215 440.16C202.807 438.507 201.98 433.915 201.246 429.966C200.603 429.507 199.776 429.966 199.317 430.609C199.409 434.65 200.511 438.14 203.909 440.803C203.725 444.293 202.623 447.415 201.521 450.446C196.103 446.405 190.226 443.466 184.531 440.344C181.592 437.956 181.96 434.191 181.685 430.609C181.225 422.62 183.797 415.824 185.358 408.569C191.603 398.1 198.215 385.61 194.174 372.202C200.051 381.937 200.235 395.804 200.787 407.742C202.44 411.324 203.45 416.008 207.857 417.661C206.664 414.446 203.817 411.416 202.99 407.742C202.715 401.038 203.817 394.793 202.164 388.365C200.97 382.028 199.684 375.141 195.552 369.814C193.807 367.977 193.256 365.222 191.144 363.845C187.287 351.539 169.838 343.273 176.817 328.121C176.725 327.938 176.909 327.846 177 327.753C179.848 328.58 182.603 330.417 185.174 331.243C188.297 330.325 184.715 327.386 186.46 325.55C188.48 319.029 193.623 314.621 191.786 307.642C191.97 306.631 192.337 305.805 191.786 304.795L191.144 304.795C191.511 312.601 185.634 319.764 183.429 327.479C173.878 325.366 170.389 312.692 160.47 309.846C159.185 309.662 158.726 310.764 158.266 311.59C157.348 317.376 159.185 323.162 164.052 326.192C155.419 327.386 144.95 326.651 139.807 318.019C135.858 311.315 134.481 302.774 137.971 295.519C138.889 292.581 141.552 290.101 142.012 287.162C141.736 286.611 141.001 286.611 140.634 286.979C137.695 290.927 135.95 295.336 134.665 299.928C128.328 305.621 124.838 314.346 126.95 322.887L128.971 327.753C123.093 327.11 117.146 324.936 114.667 319.333C111.82 314.099 114.461 306.907 115.562 301.672C115.012 301.488 114.644 301.121 114.002 301.305C111.706 304.06 111.889 307.825 111.522 311.407C107.849 312.509 104.175 314.162 101.604 317.56C98.573 308.56 97.747 297.723 102.338 289.642L102.523 289.642C104.634 285.417 107.849 281.561 111.981 278.989C112.256 278.529 112.624 278.07 112.624 277.519C111.338 276.418 110.144 278.346 108.951 278.805C99.859 285.876 96.277 296.254 97.471 307.642C98.022 312.417 98.665 317.376 101.236 321.141C102.981 320.774 102.706 318.754 103.808 317.835C105.185 317.009 107.114 315.356 107.573 314.713C108.4 315.264 108.4 313.886 109.318 314.07L111.155 313.611C111.522 324.539 113.818 337.764 108.216 347.314C101.787 361.733 94.808 378.355 99.216 394.702C100.869 400.947 102.89 407.283 106.93 412.334C107.481 410.957 106.93 409.671 106.471 408.202C102.614 399.752 99.399 391.579 99.399 381.937C100.41 371.375 103.991 361.457 108.216 351.998C111.43 362.376 111.706 375.141 108.032 386.161C106.471 398.1 116.389 406.916 124.103 414.079C127.593 419.773 132.644 423.079 136.869 428.405C140.175 430.242 142.471 433.089 146.603 432.813C146.512 436.946 148.532 440.62 148.348 444.936C140.726 455.956 128.787 460.548 119.695 469.181C120.797 459.538 126.124 451.548 131.634 443.834C132.552 440.436 135.307 437.589 137.971 435.018C138.43 434.008 137.42 434.008 136.869 433.548L136.042 433.548C132.828 436.028 130.44 439.242 128.787 442.548C121.073 452.925 109.777 455.313 99.216 458.894C94.9 459.538 90.492 460.456 85.992 459.722C94.073 455.681 100.227 448.242 105.185 440.803C107.757 435.385 107.206 428.222 103.808 423.355C98.206 417.937 92.879 411.691 90.216 404.62C88.196 398.926 87.277 392.13 89.298 386.161C88.93 385.702 88.838 384.875 88.196 384.784C85.716 384.967 86.542 387.998 85.808 389.65C82.594 390.202 79.747 391.671 77.176 393.6C82.869 376.519 79.655 355.764 77.359 337.856C77.91 325.183 80.023 311.039 84.89 299.101C90.492 282.57 106.196 263.652 124.379 260.713C135.124 256.489 147.246 256.856 159.185 257.867L164.878 260.07z"
       id="path1633">
    </path>

  </g>
  <g
     id="g1634"
     style="fill: #000000">    <path
       d="M158.726 263.836C160.746 262.275 162.675 264.019 164.695 263.193L165.338 263.193C164.052 265.213 161.022 265.489 158.909 266.04C156.43 267.509 154.042 269.989 152.114 272.009L150.828 272.193C151.838 269.163 154.593 267.326 157.165 265.122C155.97 263.561 154.042 263.102 151.93 263.377C151.103 263.102 151.378 262.091 151.654 261.632C154.317 261.724 156.797 262.091 158.726 263.836z"
       id="path1635">
    </path>

  </g>
  <g
     id="g1636"
     style="fill: #000000">    <path
       d="M210.704 273.938C213.552 279.356 219.704 282.111 221.082 288.081C222.092 291.754 223.103 295.427 224.847 298.825C224.664 299.285 223.837 299.835 223.286 299.285C223.01 297.172 220.99 295.979 219.522 294.693C216.674 294.693 214.471 292.764 211.807 292.213C212.908 296.162 216.398 300.662 215.389 304.611L215.848 304.979C215.571 307.917 215.756 310.948 215.389 313.611C214.562 315.172 215.848 318.754 213.826 320.04C212.266 319.488 214.011 317.927 213.185 316.917C212.175 313.703 210.153 310.305 207.215 308.56C208.133 312.509 206.847 316.549 204.092 319.58C202.072 321.876 201.705 317.927 199.959 317.56L200.144 315.999C200.97 316.09 202.072 316.549 202.807 317.56C207.123 314.988 204.827 309.479 204.827 305.438C209.234 306.356 211.807 310.213 214.011 313.794C215.571 305.438 213.826 296.529 208.316 290.468L208.316 289.826C212.908 289.55 216.581 292.856 221.082 293.315C220.44 285.509 213.46 280.825 209.234 274.213C205.47 272.652 201.98 270.081 197.481 271.091C197.481 270.081 198.582 269.989 199.317 269.805C203.909 269.254 207.031 272.193 210.704 273.938z"
       id="path1637">
    </path>

  </g>
  <g
     id="g1638"
     style="fill: #f5d5bd">    <path
       d="M145.501 326.192C152.664 329.59 160.838 329.039 168.001 327.753L169.103 326.192C167.082 324.356 163.593 323.988 162.215 321.141C161.113 318.386 159.736 315.172 160.929 312.05C166.348 315.54 171.031 321.233 175.072 326.192C173.144 330.142 172.041 335.101 173.511 339.6L172.409 339.6C172.501 339.325 172.041 339.141 171.95 338.957C166.256 339.508 161.297 343.273 155.419 342.08C154.317 343.366 155.511 344.927 155.878 346.213C156.337 346.488 156.889 346.947 157.44 346.488C158.45 345.569 160.195 346.672 161.572 346.029C165.154 345.202 168.552 344.192 171.766 342.447C175.991 339.6 174.246 345.753 176.541 346.856C178.746 352.09 184.991 355.396 185.634 360.998C186.644 367.151 182.144 371.56 178.378 375.967C176.266 375.508 174.154 375.233 172.409 374.039C177 373.028 178.837 367.335 179.664 363.019C179.664 358.61 178.378 354.845 175.715 351.539C176.633 351.539 177.46 351.356 178.562 351.723C179.389 351.264 178.74 350.985 178.465 350.342C176.26 347.679 173.236 350.805 170.848 349.06C166.715 350.253 163.134 351.539 158.726 351.264C158.358 351.539 158.083 352.09 158.542 352.365C159.828 353.743 162.399 353.468 163.776 353.468C159.919 356.039 159.459 359.157 159.309 364.107C159.768 367.23 160.287 370.457 161.848 373.12C157.899 374.865 159.644 369.631 157.623 368.528C158.266 370.273 157.165 373.304 158.542 375.141C162.95 375.416 170.113 373.028 172.593 377.988C172.776 378.814 172.226 379.916 173.052 380.375C173.878 380.284 174.613 379.457 174.613 378.63L174.613 377.529C175.623 377.896 177.276 377.529 177.46 379.09C177.368 379.916 177.552 380.651 178.103 381.293C178.746 381.386 179.205 380.651 179.481 380.192C179.664 378.539 178.837 377.804 180.766 377.529C181.592 377.988 180.766 380.192 182.511 379.916C185.358 378.171 180.582 375.692 184.256 374.223C183.981 373.856 183.613 373.763 183.154 373.763C184.898 372.661 184.991 369.539 187.562 370.732C188.113 370.273 188.94 370.641 189.398 369.814C189.582 368.62 186.919 367.243 189.123 366.692C196.929 381.661 188.572 398.1 181.868 411.049C178.929 420.691 175.807 433.457 182.327 442.089C184.256 441.905 185.817 444.385 187.837 444.752L194.909 448.977C188.756 459.17 180.674 467.711 172.868 477.354C160.746 473.221 149.726 465.782 139.348 457.793C143.205 455.038 145.776 452.007 148.808 448.701C149.267 451.915 148.715 455.405 150.093 458.16C151.195 458.711 151.654 457.426 152.114 456.875C152.297 452.283 150.828 447.507 151.654 443.466L150.828 442.548C150.736 438.967 148.348 436.395 148.624 432.63C156.981 430.15 164.419 424.732 172.134 420.967C173.144 419.864 174.797 418.763 174.337 417.385L173.052 417.385C164.328 421.977 156.246 427.946 146.603 430.242C143.389 430.885 141.185 428.498 139.348 426.477L139.073 426.661C130.44 420.324 125.849 410.038 117.032 403.518C107.481 395.345 111.155 382.58 113.542 372.202L113.726 369.998C114.093 370.824 115.103 370.549 115.562 370.273C116.94 364.212 117.216 357.508 123.277 353.468C120.981 356.406 121.349 360.356 120.154 363.661C120.247 367.151 120.43 370.641 122.542 373.304C120.062 374.59 116.022 374.773 115.103 378.447C116.022 380.008 117.216 378.263 118.134 377.988C118.594 378.722 118.594 379.641 119.512 380.192L120.338 380.192C120.89 379.09 119.603 378.079 119.695 376.886C119.971 376.886 120.247 376.886 120.338 376.61C121.165 377.529 121.349 379.549 123.001 379.273C123.644 378.263 122.45 377.437 122.175 376.426C125.297 375.049 128.512 376.335 131.634 377.529C132.185 377.437 133.011 377.253 132.919 376.426C131.818 375.141 133.287 374.773 133.562 373.58C134.848 371.743 135.307 369.631 136.042 367.61C136.134 370.641 135.032 373.028 134.481 375.783C136.317 375.783 137.236 372.845 137.603 370.916C138.981 364.947 137.144 358.794 134.94 353.468C133.379 351.539 131.083 350.345 128.971 349.335C125.297 349.243 121.808 348.692 118.594 350.437C118.042 352.274 115.562 354.019 116.848 356.59C114.828 356.498 115.103 349.886 112.44 353.101C112.44 355.488 114.277 357.416 115.287 359.253C110.144 358.702 112.165 352.365 109.777 349.335C110.603 346.029 114.461 341.988 117.767 339.876C121.532 337.121 123.92 343.182 127.409 343.825C130.532 344.651 133.287 346.764 136.685 346.213L137.144 345.569C136.134 343.549 133.562 344.1 131.818 343.366C127.134 340.61 122.91 336.937 118.41 333.631C115.655 333.815 114.277 336.937 113.359 338.957C114.552 332.345 113.391 327.67 113.667 321.333C116.513 329.323 124.379 329.406 131.634 331.06C133.747 327.846 128.971 325.274 128.787 321.968C128.879 320.958 128.328 319.488 128.512 318.478C127.96 314.253 128.83 312.375 130.667 308.333L133.667 304.667C133.392 314.217 136.777 321.325 145.501 326.192z"
       id="path1639">
    </path>

  </g>
  <g
     id="g1640"
     style="fill: #000000">    <path
       d="M227.694 355.488C227.786 359.621 225.215 363.294 223.929 367.151C220.807 375.692 221.358 387.08 223.929 395.345C221.817 394.61 221.633 391.855 220.898 389.835C218.603 378.263 221.358 365.406 227.235 355.488L227.694 355.488z"
       id="path1641">
    </path>

  </g>
  <g
     id="g1642"
     style="fill: #ffffff">    <path
       d="M171.269 356.274C172.738 358.944 170.334 360.947 169.667 363.218C168.865 364.419 167.417 363.69 166.35 364.358C164.788 364.676 161.656 361.215 163.659 358.144C165.261 355.874 168.865 353.337 171.269 356.274z"
       id="path1643">
    </path>

  </g>
  <g
     id="g1644"
     style="fill: #ffffff">    <path
       d="M130.538 359.794C130.853 362.112 128.886 363.621 127.06 364.326L124.531 364.642C121.797 359.57 124.105 357.759 125.088 356.785C127.523 354.848 129.484 357.898 130.538 359.794z"
       id="path1645">
    </path>

  </g>
  <g
     id="g1646"
     style="fill: #ffffff">    <path
       d="M130.715 367.794C130.715 368.804 131.083 369.631 130.991 370.732C130.165 371.375 129.155 372.294 128.052 371.56C127.685 370.365 127.042 368.804 127.869 367.61C128.603 367.059 130.165 366.417 130.715 367.794z"
       id="path1647">
    </path>

  </g>
  <g
     id="g1648"
     style="fill: #f75016">    <path
       d="M72.125 398.926C71.574 399.845 69.461 400.395 70.564 401.773C71.39 402.416 72.308 403.334 73.41 402.691C74.42 401.865 74.329 400.579 74.972 399.569C77.451 395.62 81.492 393.691 85.349 392.314C85.349 405.447 92.42 415.824 101.879 424.915C104.542 429.324 105.277 436.12 102.063 440.527C98.481 447.048 92.879 452.65 86.634 456.875C87.461 454.211 85.349 451.731 84.247 449.344C76.716 437.773 64.686 427.579 63.308 413.253C60.645 400.028 66.89 387.906 73.41 377.712L73.41 376.886C75.063 376.886 75.339 374.682 76.073 373.58L78.094 367.427C79.012 378.079 76.073 389.191 72.125 398.926z"
       id="path1649">
    </path>

  </g>
  <g
     id="g1650"
     style="fill: #ffffff">    <path
       d="M172.112 370.457C172.204 371.008 172.112 371.743 171.469 371.835C169.724 371.927 168.163 370.916 167.52 369.631C167.153 368.988 167.061 367.977 167.887 367.61C169.908 367.151 171.286 369.08 172.112 370.457z"
       id="path1651">
    </path>

  </g>
  <g
     id="g1652"
     style="fill: #000000">    <path
       d="M138.889 383.222C138.43 385.885 137.236 388.273 136.501 390.753C137.879 392.773 141.001 393.141 141.277 395.345C138.43 395.345 135.675 393.141 133.838 390.937C135.399 388.273 136.317 385.335 137.787 382.58C138.338 382.395 138.706 382.763 138.889 383.222z"
       id="path1653">
    </path>

  </g>
  <g
     id="g1654"
     style="fill: #000000">    <path
       d="M147.889 394.702C146.144 394.61 146.419 392.59 144.583 392.498L144.216 391.855C145.042 391.579 145.96 391.304 146.787 392.039C147.613 392.773 147.522 393.875 147.889 394.702z"
       id="path1655">
    </path>

  </g>
  <g
     id="g1656"
     style="fill: #000000">    <path
       d="M151.011 408.569C149.726 412.793 148.256 417.844 143.756 419.589C141.369 420.14 138.154 421.242 136.501 418.946C134.297 414.905 142.103 410.038 135.583 407.283C134.665 406.365 134.481 404.987 134.94 403.793C136.134 400.947 138.981 401.13 141.552 400.855C146.328 400.855 147.797 406.273 151.011 408.569z"
       id="path1657">
    </path>

  </g>
  <g
     id="g1658"
     style="fill: #ffffff">    <path
       d="M145.501 406.181C142.746 406.181 138.613 408.202 136.685 406.181C135.95 404.987 137.052 403.885 137.971 403.334C140.909 402.508 144.124 403.518 145.501 406.181z"
       id="path1659">
    </path>

  </g>
  <g
     id="g1660"
     style="fill: #d90d28">    <path
       d="M139.532 418.487C138.522 417.201 139.44 414.63 140.175 412.977C142.195 410.957 143.848 415.824 145.317 412.609L145.042 411.508C146.328 411.324 147.43 410.957 148.348 410.13C146.695 413.62 144.216 418.579 139.532 418.487z"
       id="path1661">
    </path>

  </g>
  <g
     id="g1662"
     style="fill: #f5d5bd">    <path
       d="M271.775 440.987C275.724 447.691 280.04 454.12 282.796 461.282C284.173 465.874 287.662 469.64 290.05 473.864C300.978 493.333 307.775 514.639 322.285 532.455C330.091 545.772 339.917 559.639 336.795 576.077C334.683 581.312 334.04 587.097 330.643 591.781C324.306 593.434 317.693 593.802 310.806 594.812C309.979 594.812 309.703 595.73 308.785 595.546L304.377 589.577C305.57 589.577 306.765 589.669 307.499 588.475C306.306 587.097 304.193 588.292 302.633 588.016C298.774 585.077 294.833 583.5 287.833 584C280.396 584.368 274.347 585.077 267.184 586.73C265.667 587.5 264.521 587.373 263.418 588.2C255.521 591.689 246.521 592.424 237.612 593.526C227.694 592.975 217.776 592.332 208.775 589.76C206.388 589.485 204.551 591.138 202.807 591.506C200.235 594.169 199.225 597.934 198.215 601.424C194.266 610.148 189.674 618.872 181.685 625.484C180.582 625.393 180.399 624.107 179.481 624.566C179.848 628.148 179.021 632.739 176.817 636.046C179.205 639.627 180.858 643.576 181.868 647.709C180.766 645.964 178.287 645.688 176.817 647.709C175.256 643.76 170.664 640.454 171.031 635.862C173.419 630.627 170.113 625.576 172.134 620.158C171.766 619.699 171.123 619.24 170.664 619.791C167.542 625.393 171.123 632.098 168.46 637.79L174.613 648.168C172.776 645.78 171.307 648.903 169.746 650.188C164.695 643.943 158.266 636.505 161.848 627.872C162.675 624.658 164.787 621.168 163.317 617.771C161.756 617.862 162.307 619.607 161.572 620.434C161.665 626.22 156.889 630.443 158.909 636.505C161.113 642.382 164.695 647.893 169.103 652.576C167.726 652.393 167.358 653.495 166.623 654.32L159.644 649.546C157.165 643.76 156.337 637.331 155.236 630.995C155.878 627.965 157.532 625.393 157.165 621.995L156.522 621.26C154.042 624.107 154.409 628.424 153.032 631.913C154.317 638.434 155.419 645.046 158.083 651.015C158.633 652.668 157.073 653.954 156.522 655.423C155.787 652.76 156.43 649.546 154.501 647.342C153.032 646.239 152.94 648.628 151.471 648.443C150.644 642.658 148.532 637.056 148.991 630.995C151.378 625.852 154.134 620.709 155.419 615.107C154.869 612.169 156.246 608.954 157.165 606.107C167.634 597.566 169.195 582.965 181.868 576.536L183.888 574.975L184.072 575.25C187.47 572.404 191.786 571.394 195.276 568.822L195.092 568.638C197.848 568.087 200.787 566.618 203.45 565.332C203.725 565.148 203.725 564.873 203.725 564.689L204.368 565.057C217.776 560.465 232.745 561.475 247.072 559.179C265.622 561.108 279.856 547.241 298.407 552.567C300.796 552.567 303.274 553.761 305.295 555.414C305.847 551.741 301.347 551.648 299.142 550.363C293.081 548.71 285.734 548.618 279.674 550.363C270.306 534.751 262.316 518.588 255.704 501.874C254.234 499.119 252.03 495.721 248.908 495.262C246.428 492.323 244.408 489.293 243.581 485.711C243.031 485.252 242.663 484.608 241.836 484.884C240.367 486.445 242.112 488.282 242.481 489.935L243.581 491.68C241.377 491.129 239.081 488.19 237.153 489.293C237.889 491.772 240.918 492.507 242.94 493.701C245.51 493.333 246.796 496.639 248.449 498.293C250.653 499.119 250.469 501.966 251.112 504.078L250.837 507.108C236.693 494.068 215.204 495.905 198.398 487.731L189.398 483.966L207.215 461.926L207.215 461.282C211.44 456.507 215.481 450.722 219.796 445.211L219.796 444.569C228.612 443.926 236.97 439.793 242.022 432.446C241.929 431.436 242.755 431.528 243.581 430.426C245.143 428.222 246.612 425.926 247.806 423.63C259.744 421.61 266.632 432.538 271.775 440.987z"
       id="path1663">
    </path>

  </g>
  <g
     id="g1664"
     style="fill: #fa8912">    <path
       d="M278.57 427.12C278.478 431.987 276.733 436.12 273.978 439.885C271.408 436.671 269.938 432.63 266.449 429.507C270.397 429.507 274.989 428.957 278.57 427.12z"
       id="path1665">
    </path>

  </g>
  <g
     id="g1666"
     style="fill: #17e3ff">    <path
       d="M216.949 444.936C197.481 474.507 168.368 498.935 151.011 529.425C144.032 538.7 141.185 549.721 140.45 561.567C141.093 563.404 140.634 565.975 142.654 567.077C146.236 566.342 150.736 566.894 154.777 565.792C159.552 566.067 164.695 565.7 168.46 562.669C169.93 567.904 173.695 572.22 177.919 576.353C168.644 582.322 165.889 592.883 158.909 600.781C155.695 598.944 155.603 595.271 154.317 592.424C155.878 591.873 157.991 592.699 158.909 590.863C158.633 590.496 158.726 589.76 158.083 589.76C149.909 591.689 141.001 589.026 134.94 582.689C129.43 577.455 126.583 570.751 121.716 565.057C120.706 563.863 120.338 561.75 120.797 560.006C122.358 561.659 124.103 563.679 126.583 563.771C128.144 561.75 124.379 561.475 123.46 559.822C123.277 559.272 122.726 558.904 122.358 558.445C124.012 554.587 123.46 549.996 125.481 545.955C127.042 542.833 126.859 540.353 129.155 537.506C129.338 536.312 131.175 534.017 131.358 533.832L131.358 533.557C137.603 523.18 146.971 513.078 153.858 503.803C158.909 496.915 164.052 489.843 169.746 483.323C179.021 472.762 188.664 462.018 196.654 450.446C199.225 450.905 199.959 454.487 202.807 454.211C205.011 450.629 205.653 446.405 206.296 442.089C209.511 443.926 213.919 445.762 216.949 444.936z"
       id="path1667">
    </path>

  </g>
  <g
     id="g1668"
     style="fill: #17e3ff">    <path
       d="M117.767 464.589L111.155 459.538C113.634 455.313 119.695 454.762 123.46 450.905C120.797 455.221 118.961 459.722 117.767 464.589z"
       id="path1669">
    </path>

  </g>
  <g
     id="g1670"
     style="fill: #000000">    <path
       d="M188.94 455.313C183.705 460.089 177 464.038 169.562 464.773C168.185 466.793 168.46 468.905 168.46 471.201L168.001 471.201C167.634 469.181 166.807 467.068 167.358 465.048C168.919 462.018 172.868 463.67 175.256 461.926C180.215 460.181 184.164 456.415 189.123 454.67L188.94 455.313z"
       id="path1671">
    </path>

  </g>
  <g
     id="g1672"
     style="fill: #f75016">    <path
       d="M106.93 459.262C104.542 465.048 91.611 467.391 85.349 482.681C78.553 483.323 72.033 482.772 66.155 479.833C74.512 477.078 85.533 472.579 86.634 462.201C93.522 462.201 100.685 461.558 106.93 459.262z"
       id="path1673">
    </path>

  </g>
  <g
     id="g1674"
     style="fill: #17e3ff">    <path
       d="M142.838 463.303C151.562 469.915 160.746 475.333 170.389 479.558C167.909 483.507 163.868 486.904 161.389 490.853L159.644 490.853C146.971 485.068 136.042 474.966 123.46 469.181L125.206 467.252C129.43 464.773 133.379 461.742 137.603 459.262L142.838 463.303z"
       id="path1675">
    </path>

  </g>
  <g
     id="g1676"
     style="fill: #f5d5bd">    <path
       d="M117.308 466.609C116.665 468.721 115.655 471.017 116.389 473.405C114.369 473.405 112.716 474.599 111.338 476.252C110.879 477.446 112.256 477.721 112.624 478.456C113.634 477.262 114.644 475.976 116.206 475.15C116.94 475.609 117.675 476.619 118.594 476.252C119.879 473.038 123.828 475.242 126.583 474.047C137.511 479.282 147.981 488.282 159.185 493.425C149.267 508.762 136.226 520.7 127.409 536.68C124.93 542.282 121.991 547.792 121.073 554.037C120.797 545.312 122.45 536.68 126.583 529.425C126.491 528.873 126.859 528.139 126.124 527.863C123.828 528.322 123.277 531.078 122.358 532.914C121.257 531.078 122.175 527.037 119.053 526.762L118.594 527.221C120.062 530.067 119.236 533.925 121.073 536.68C117.951 543.567 118.594 551.924 118.869 559.363C116.481 563.22 120.89 566.526 122.358 569.924C122.817 588.475 125.94 608.128 124.746 626.769L123.92 627.688C131.451 644.219 132.093 664.148 132.736 682.974C135.95 702.811 143.389 720.811 155.236 736.973C160.011 745.789 161.848 756.351 160.287 767.188C159.276 767.003 157.623 766.544 156.981 767.647L156.981 776.003L155.878 774.718C155.052 767.003 153.674 759.564 154.501 751.942C155.236 751.483 156.522 751.666 156.522 750.473C156.154 749.738 155.328 749.555 154.777 750.014C155.236 748.82 154.777 747.534 154.317 746.433C154.317 746.433 152.389 746.156 152.297 746.708C153.124 749.004 151.838 751.116 151.654 753.32C152.022 763.514 152.297 773.8 155.603 782.799L155.603 785.463C154.685 783.809 152.481 782.248 152.297 779.952C151.562 778.851 150.093 778.116 148.991 779.126C147.522 779.86 147.062 781.697 145.317 781.697C141.185 773.983 141.46 764.341 139.991 755.523C139.348 755.064 138.981 753.962 137.971 754.422C137.052 761.493 139.44 768.381 140.175 775.36C142.287 783.074 148.44 790.696 144.216 799.329C144.491 795.288 140.817 791.799 138.43 788.31C136.41 787.666 136.41 790.145 135.399 790.973C130.073 781.881 132.093 769.299 128.512 759.29C128.052 758.738 127.409 757.544 126.308 757.912C125.113 759.381 127.318 761.034 127.226 762.779C128.42 772.514 128.879 782.983 132.736 791.892C130.715 790.514 128.052 791.523 125.849 791.892C120.89 783.533 117.951 773.34 119.971 763.238C118.869 760.942 117.767 757.728 115.287 757.085C114.369 759.014 116.481 760.759 117.032 762.596C115.562 769.758 117.736 779.349 119.573 785.961C118.287 786.236 117.675 782.799 115.93 781.697C114.093 781.054 113.267 782.983 111.797 783.259C103.532 767.83 110.053 747.626 114.185 731.922C116.206 720.26 108.308 710.524 105.185 700.606C98.665 679.116 87.737 659.556 87.094 635.587C85.165 616.393 89.114 595.73 86.451 575.894C85.441 563.22 84.89 549.261 83.604 536.221C86.083 521.894 81.308 507.567 85.074 493.242C85.349 478.548 98.39 468.629 110.053 461.926C112.899 462.385 114.736 465.231 117.308 466.609z"
       id="path1677">
    </path>

  </g>
  <g
     id="g1678"
     style="fill: #000000">    <path
       d="M162.491 466.793C162.215 467.711 162.675 470.19 160.929 469.181L160.746 466.609C158.909 466.425 156.981 467.803 154.96 466.977C157.073 466.518 161.022 462.477 162.491 466.793z"
       id="path1679">
    </path>

  </g>
  <g
     id="g1680"
     style="fill: #f6d5dd">    <path
       d="M125.206 472.946C123.553 473.129 121.44 473.588 120.154 473.221C121.257 472.579 120.797 470.65 122.175 470.742L125.206 472.946z"
       id="path1681">
    </path>

  </g>
  <g
     id="g1682"
     style="fill: #17e3ff">    <path
       d="M239.633 502.7C243.122 504.996 247.072 506.282 250.01 510.231C249.734 512.435 247.438 514.088 247.99 516.384C251.938 513.445 254.326 508.303 253.315 502.976C256.438 506.741 256.989 511.609 257.907 516.384C257.266 518.772 257.356 521.802 256.989 524.098C257.448 524.741 258.643 524.557 259.193 524.282C259.929 522.72 259.652 520.424 260.296 519.047C265.714 529.7 270.49 540.72 277.102 551.006C269.204 552.2 262.499 556.424 254.143 556.7C256.53 553.669 259.744 549.812 257.907 545.679C256.07 546.047 257.081 548.251 255.888 549.261C255.06 551.741 253.408 554.037 251.296 555.873L251.755 556.7C238.071 557.067 224.94 559.363 211.164 560.649C202.99 562.945 195.185 566.067 187.837 570.2C184.44 568.179 181.409 564.873 179.205 561.75L179.481 559.546C187.654 559.731 195.459 556.332 202.807 553.21C209.879 549.812 216.767 546.047 223.562 541.731C230.633 538.608 237.612 533.832 242.663 527.404L242.94 525.659C243.031 525.752 243.122 525.935 243.398 525.843C243.307 522.904 240 521.527 238.071 519.506C219.522 510.506 198.766 506.925 179.481 499.853C178.103 499.762 176.817 499.027 175.44 499.67C178.562 494.619 183.246 490.211 187.562 485.711C203.817 494.16 222.459 496.547 239.633 502.7z"
       id="path1683">
    </path>

  </g>
  <g
     id="g1684"
     style="fill: #f5d5bd">    <path
       d="M231.001 518.772C234.582 520.241 238.53 522.078 240.459 525.843C237.796 530.894 232.011 533.006 227.694 536.68C221.082 539.619 215.021 544.21 208.501 547.7C199.776 551.832 190.96 556.608 180.95 557.159C180.123 556.516 178.47 556.516 177.644 557.159C172.96 546.414 172.868 531.721 177.276 520.792L176.541 520.149C172.776 522.996 172.96 528.231 172.134 532.731L171.49 536.221C169.93 532.18 166.715 528.873 164.052 525.384C163.501 525.476 162.766 525.108 162.491 525.843C166.44 530.71 168.827 536.312 171.49 541.547C172.226 548.067 173.236 554.496 176.541 560.006C177.093 561.2 175.715 561.2 175.256 561.75C173.878 562.026 172.593 562.485 171.031 562.485C170.113 561.383 168.919 560.189 167.542 560.649C166.256 560.741 166.44 562.21 165.521 562.852C158.542 564.231 151.287 564.689 143.297 564.231C141.644 555.231 144.95 548.067 147.246 540.169C155.236 526.669 163.501 513.169 174.154 500.956C193.256 506.466 212.266 512.435 231.001 518.772z"
       id="path1685">
    </path>

  </g>
  <g
     id="g1686"
     style="fill: #525964">    <path
       d="M181.685 567.72C183.062 569.281 184.898 569.74 185.634 571.669C185.082 572.036 184.531 572.312 184.072 572.771C180.674 570.751 178.47 566.71 176.358 563.312C178.929 561.659 179.664 566.342 181.685 567.72z"
       id="path1687">
    </path>

  </g>
  <g
     id="g1688"
     style="fill: #525964">    <path
       d="M181.685 573.506L180.95 574.148C177.828 571.21 174.337 568.271 172.593 564.414C173.878 563.037 175.348 565.057 175.899 566.159C177.828 568.638 179.389 571.394 181.685 573.506z"
       id="path1689">
    </path>

  </g>
  <g
     id="g1690"
     style="fill: #ffffff">    <path
       d="M151.93 592.607C152.756 596.281 154.501 599.771 156.981 602.526C153.583 605.372 153.491 609.873 152.756 614.006L153.215 614.465C152.756 622.087 145.134 627.229 147.062 635.219C147.705 642.934 149.909 650.648 151.93 658.087C146.695 665.25 140.45 672.505 135.124 679.943C134.848 662.494 133.195 644.771 127.226 628.791C127.96 611.71 126.124 594.444 125.022 576.812L125.022 573.506C130.256 583.148 140.634 592.516 151.93 592.607z"
       id="path1691">
    </path>

  </g>
  <g
     id="g1692"
     style="fill: #f5d5bd">    <path
       d="M301.988 590.036C304.469 592.24 305.754 594.903 307.225 597.475C309.335 599.22 310.53 602.067 311.907 604.546C312.826 606.934 312.734 609.689 314.295 611.801L314.938 611.342C321.551 621.628 321.642 634.943 323.755 647.342C326.233 666.719 333.489 684.352 337.897 702.627C333.856 711.535 325.683 718.882 317.418 724.667C314.846 725.861 312.55 727.882 309.703 728.433C312.367 718.147 311.724 705.198 312.734 693.994C312.826 684.352 311.907 674.524 310.989 664.975C311.265 661.943 311.448 658.362 311.631 655.056C313.009 650.739 313.652 645.78 318.519 643.301L318.519 642.658C317.05 642.016 316.04 643.76 314.754 644.402C314.938 639.72 314.478 634.76 311.265 631.179C310.713 631.271 310.162 631.087 309.887 631.638C314.663 637.975 311.448 647.709 309.06 654.32C308.876 653.861 308.693 652.024 307.499 651.29C306.948 651.383 306.214 651.015 305.938 651.75C306.765 655.791 308.976 660.983 309.887 679.3C310.958 700.827 308.693 723.749 303.918 744.319C301.714 757.269 293.815 767.922 291.153 780.871C288.857 786.381 287.479 792.717 288.122 798.962L287.662 799.329C281.785 798.044 276.643 793.911 271.959 790.514C267 784.911 259.135 777.972 255.704 771.779C251.755 765.259 249.092 757.912 244.041 752.218C240.367 738.993 240.826 724.942 241.194 710.157C241.929 706.3 242.022 702.352 242.295 698.035C242.847 677.831 251.296 659.28 246.887 637.79C244.316 623.28 243.673 606.383 255.521 595.914C258.366 592.975 261.673 591.046 265.163 589.577C275.633 588.016 286.469 584.159 297.306 586.914C297.948 587.189 300.667 588.833 301.988 590.036z"
       id="path1693">
    </path>

  </g>
  <g
     id="g1694"
     style="fill: #17e3ff">    <path
       d="M250.01 594.628L254.785 593.526C254.693 594.077 254.051 594.444 253.684 594.812L252.397 594.444C242.112 596.648 233.571 602.893 224.664 608.312C218.97 613.179 213.46 616.944 208.96 623.097C206.205 613.546 205.562 603.352 203.45 593.709C205.286 591.781 209.144 591.873 211.623 592.883C224.021 595.087 237.889 597.016 250.01 594.628z"
       id="path1695">
    </path>

  </g>
  <g
     id="g1696"
     style="fill: #525964">    <path
       d="M206.756 622.821C201.613 621.443 204.276 614.556 202.807 609.873C201.888 607.393 202.072 603.995 200.144 601.699C200.419 599.954 201.337 598.485 201.888 596.832C203.909 605.098 205.103 614.465 206.756 622.821z"
       id="path1697">
    </path>

  </g>
  <g
     id="g1698"
     style="fill: #f5d5bd">    <path
       d="M243.398 619.975C243.031 624.934 243.949 630.076 244.225 634.76C239.081 636.046 234.215 634.943 229.071 635.587C218.326 637.424 207.123 640.454 196.195 638.893C193.256 637.239 189.49 637.883 186.735 635.862C184.44 635.862 182.511 635.035 180.582 634.117C181.133 631.454 181.868 629.802 181.868 627.046C184.256 626.679 185.358 624.199 187.194 622.821C190.409 623.097 194.725 621.995 197.296 624.566C199.868 626.862 199.5 621.26 202.347 623.464C203.082 624.566 201.796 626.587 203.45 627.046C204.551 626.679 204.735 625.576 204.551 624.566L208.316 626.403C214.562 620.25 220.623 613.454 227.51 608.771C235.408 604.546 242.847 599.312 251.478 596.832C247.163 603.352 243.307 611.066 243.398 619.975z"
       id="path1699">
    </path>

  </g>
  <g
     id="g1700"
     style="fill: #525964">    <path
       d="M201.888 620.894L200.144 621.077C199.5 616.668 198.95 611.71 197.481 607.393L199.041 604.363C200.787 609.505 201.062 615.291 201.888 620.894z"
       id="path1701">
    </path>

  </g>
  <g
     id="g1702"
     style="fill: #000000">    <path
       d="M291.153 605.648C292.163 613.913 289.775 621.536 283.714 627.229C282.611 625.852 284.816 624.75 284.999 623.28C288.673 618.413 290.694 612.169 290.05 605.648C290.418 604.913 290.785 605.465 291.153 605.648z"
       id="path1703">
    </path>

  </g>
  <g
     id="g1704"
     style="fill: #54005b">    <path
       d="M319.622 609.414C322.651 616.026 322.744 623.832 325.958 630.352C328.529 635.494 327.336 642.199 329.539 647.525L329.998 647.984C329.881 643.213 329.624 639.099 329.532 637.812C334.032 651.772 341.387 672.137 345.151 686.097C346.255 700.148 352.957 717.32 344.509 730.637C338.356 743.585 327.336 757.544 313.009 761.677C308.876 762.779 304.836 763.973 300.244 763.881C303.918 753.227 307.866 742.482 309.06 731.096C319.897 727.238 329.539 718.515 336.336 709.422L336.611 709.698L338.815 706.575C340.101 709.881 339.367 713.923 337.713 716.769C338.631 717.504 339.091 715.759 339.917 715.668C339.458 719.341 339.182 723.106 338.356 726.688C345.269 717.304 339.091 701.893 339.642 699.779C337.53 694.912 336.886 690.045 335.05 684.994C333.948 682.79 330.643 664.882 328.438 662.494C325.958 648.811 324.765 634.301 320.907 620.618C320.724 617.312 318.887 614.189 317.418 611.158C316.774 610.239 315.856 609.964 314.938 609.873C315.581 608.312 314.846 606.475 314.754 605.188C317.326 605.281 318.244 607.852 319.622 609.414z"
       id="path1705">
    </path>

  </g>
  <g
     id="g1706"
     style="fill: #17e3ff">    <path
       d="M197.481 621.995C195.368 620.342 192.429 620.801 189.766 620.434C191.97 617.403 193.99 614.372 195.735 611.158C197.664 614.006 196.562 618.505 197.481 621.995z"
       id="path1707">
    </path>

  </g>
  <g
     id="g1708"
     style="fill: #000000">    <path
       d="M158.083 614.648C157.991 615.934 158.266 616.761 157.623 617.771C155.878 617.036 156.43 614.648 156.337 612.903C157.532 612.444 157.991 613.913 158.083 614.648z"
       id="path1709">
    </path>

  </g>
  <g
     id="g1710"
     style="fill: #000000">    <path
       d="M115.562 624.383C116.665 628.699 118.134 633.566 121.716 636.964C122.45 636.78 123.001 637.148 123.277 637.79C122.175 638.893 120.338 638.066 119.236 637.424C115.655 633.016 114.461 627.597 112.899 622.362C114.461 621.168 115.103 623.464 115.562 624.383z"
       id="path1711">
    </path>

  </g>
  <g
     id="g1712"
     style="fill: #000000">    <path
       d="M221.725 632.098C223.562 632.648 225.398 631.271 226.592 630.076C226.868 630.72 227.51 631.729 226.592 632.28C223.929 634.025 221.082 636.046 217.592 635.219C217.041 634.76 216.767 634.301 216.949 633.658C217.685 632.464 218.694 634.025 219.522 633.198C218.97 632.005 217.408 630.72 218.052 628.791C218.97 630.168 219.981 631.821 221.725 632.098z"
       id="path1713">
    </path>

  </g>
  <g
     id="g1714"
     style="fill: #54005b">    <path
       d="M198.858 640.729C212.725 642.75 226.316 635.587 239.816 637.607C241.47 637.331 243.398 636.321 244.684 636.505C246.337 650.831 247.255 667.454 239.357 679.3C234.03 689.586 228.796 699.963 224.664 710.8C219.796 718.606 212.266 726.228 201.888 724.852C190.96 723.197 182.052 716.586 172.593 711.442C167.726 708.412 163.776 704.371 158.909 701.341C152.94 697.208 145.869 693.811 138.246 695.556L135.583 683.433C141.644 676.361 147.338 668.464 153.215 660.933C156.522 661.484 157.44 656.984 159.644 655.056C159.644 654.229 159.919 653.402 160.47 652.852C164.787 656.25 170.756 657.994 173.236 663.413C175.899 662.769 176.266 659.739 177.276 657.627L177.46 655.698C179.389 655.239 180.858 657.443 182.511 656.341C183.613 652.668 185.266 647.525 182.787 644.036C184.807 644.678 186.919 647.433 189.398 648.443C192.429 649.821 195.276 652.668 198.582 652.852C193.072 648.994 187.194 645.137 181.685 640.913C181.042 639.168 179.848 637.699 179.664 635.862C186.368 636.964 192.062 640.729 198.858 640.729z"
       id="path1715">
    </path>

  </g>
  <g
     id="g1716"
     style="fill: #000000">    <path
       d="M244.684 638.709C244.776 640.179 243.122 640.086 242.295 640.729C241.377 640.821 240.644 640.545 240.092 639.995C240.644 638.158 243.398 638.066 244.684 638.709z"
       id="path1717">
    </path>

  </g>
  <g
     id="g1718"
     style="fill: #000000">    <path
       d="M188.94 641.372C187.103 641.74 185.266 640.913 183.613 639.995C184.898 638.801 187.011 640.362 188.664 640.454C188.664 640.821 189.031 641.005 188.94 641.372z"
       id="path1719">
    </path>

  </g>
  <g
     id="g1720"
     style="fill: #000000">    <path
       d="M233.204 639.811C232.102 641.556 229.164 642.291 226.592 642.199L225.765 641.097C227.97 640.086 230.542 640.086 233.204 639.811z"
       id="path1721">
    </path>

  </g>
  <g
     id="g1722"
     style="fill: #000000">    <path
       d="M199.5 644.036C197.481 643.943 194.909 643.668 193.072 642.475L193.531 641.831C195.735 642.016 198.307 642.199 199.5 644.036z"
       id="path1723">
    </path>

  </g>
  <g
     id="g1724"
     style="fill: #000000">    <path
       d="M215.389 642.199C215.389 643.301 214.011 643.76 213.185 644.036C210.979 643.484 208.501 645.137 207.215 642.934C209.052 641.648 212.908 642.475 215.389 642.199z"
       id="path1725">
    </path>

  </g>
  <g
     id="g1726"
     style="fill: #fb18a7">    <path
       d="M180.95 653.495C179.481 652.301 178.654 650.739 177.919 649.269C178.195 648.811 179.205 648.352 179.664 648.628C180.215 650.188 181.225 651.842 180.95 653.495z"
       id="path1727">
    </path>

  </g>
  <g
     id="g1728"
     style="fill: #fb18a7">    <path
       d="M153.399 649.546C153.307 652.301 155.511 654.688 154.134 657.443L152.114 649.913C152.573 649.821 152.848 649.269 153.399 649.546z"
       id="path1729">
    </path>

  </g>
  <g
     id="g1730"
     style="fill: #fb18a7">    <path
       d="M177.919 653.22C175.715 652.668 173.236 652.76 171.307 651.475C172.868 647.433 176.358 651.658 177.919 653.22z"
       id="path1731">
    </path>

  </g>
  <g
     id="g1732"
     style="fill: #f5d5bd">    <path
       d="M175.256 655.239C174.797 655.698 175.256 656.525 174.797 656.984C174.797 655.882 173.603 655.148 172.868 654.597L175.256 655.239z"
       id="path1733">
    </path>

  </g>
  <g
     id="g1734"
     style="fill: #fb18a7">    <path
       d="M173.511 658.362L173.511 660.107L168.46 655.423C168.46 654.597 169.47 654.78 169.93 655.056C171.215 655.882 172.868 656.801 173.511 658.362z"
       id="path1735">
    </path>

  </g>
  <g
     id="g1736"
     style="fill: #000000">    <path
       d="M241.377 662.769C235.316 672.964 228.337 683.157 219.337 691.423C215.389 693.443 202.88 695.543 201.962 695.084C201.136 694.717 200.144 694.453 199.5 693.627C199.317 693.902 199.041 693.811 198.858 693.811C201.062 692.709 203.082 694.178 205.653 693.351C210.062 692.341 214.837 692.157 218.418 689.219C227.235 680.127 235.408 670.025 241.377 659.464C242.481 658.821 242.847 656.893 244.225 656.801C245.327 659.372 242.295 660.749 241.377 662.769z"
       id="path1737">
    </path>

  </g>
  <g
     id="g1738"
     style="fill: #000000">    <path
       d="M264.244 688.3C264.336 704.648 263.418 722.831 262.499 738.993L261.857 737.432C262.316 717.964 262.775 695.831 263.144 677.464C264.521 680.678 264.244 685.086 264.244 688.3z"
       id="path1739">
    </path>

  </g>
  <g
     id="g1740"
     style="fill: #fd0fff">    <path
       d="M238.989 737.708C229.531 735.412 228.705 724.392 222.644 718.515C227.878 712.086 229.438 704.096 233.021 696.933C235.867 690.872 239.908 684.902 242.663 678.565C240.092 697.76 237.521 718.423 238.989 737.708z"
       id="path1741">
    </path>

  </g>
  <g
     id="g1742"
     style="fill: #000000">    <path
       d="M213.185 689.861C213.275 692.524 210.245 691.239 208.96 691.423C207.307 691.055 205.746 690.32 204.551 689.402L213.185 689.861z"
       id="path1743">
    </path>

  </g>
  <g
     id="g1744"
     style="fill: #f5d5bd">    <path
       d="M172.868 714.106C184.164 720.075 194.817 728.8 208.775 727.055C211.807 726.412 214.562 725.034 217.316 723.749C219.429 722.647 219.888 720.26 222 719.157C224.94 724.852 228.705 730.269 231.643 735.871L234.766 738.075C230.908 740.188 225.674 738.718 221.541 740.096C214.837 743.034 207.215 743.86 201.705 749.555C198.123 752.769 193.807 755.433 191.144 759.29C182.695 766.912 176.358 776.83 177.644 788.31C177.919 788.585 178.103 788.952 178.562 788.769L179.481 787.207C179.664 784.452 178.746 780.688 180.307 778.207C180.858 780.319 180.031 784.36 181.868 786.564L182.511 786.105C182.144 782.891 182.419 778.575 181.409 775.544C181.225 773.34 193.224 757.25 200.787 753.044C205.011 763.973 201.705 777.106 198.582 787.666L197.481 789.227C197.388 789.503 197.481 788.125 196.654 788.125C194.909 788.4 193.99 790.606 192.705 791.892C179.848 801.534 166.807 811.636 152.297 817.696C151.195 819.533 136.301 824.659 118.869 821.37C116.246 820.875 92.859 807.683 90.859 782.799C90.113 778.222 92.859 760.495 96.094 750.656L97.353 746.514C98.179 743.023 100.961 737.983 101.236 736.331L101.42 736.331C103.345 728.538 110.236 720.075 110.236 720.075C115.287 727.514 109.226 735.779 108.675 743.585C104.726 756.442 102.981 773.8 109.777 785.922C111.43 789.044 112.716 792.258 113.726 795.656C114.277 796.666 115.379 796.391 116.206 796.759C118.777 794.095 119.695 790.881 120.797 787.666C124.287 793.085 126.216 799.973 130.991 804.656C133.287 804.289 135.124 802.085 136.869 800.707C138.706 801.81 138.522 805.85 141.277 804.84C144.491 802.176 148.072 799.421 148.624 795.197L148.165 789.871C151.103 789.962 150.552 795.656 154.134 793.819C155.878 790.514 157.371 788.452 157.844 783.722L156.705 778.207C158.083 779.585 160.379 779.31 162.032 779.31C163.685 778.392 162.681 776.873 163.048 775.679C163.522 773.943 163.594 771.691 163.206 769.528C163.757 759.06 163.593 749.463 159.828 740.555C155.878 732.749 149.818 725.861 146.603 717.871C143.481 711.535 140.358 705.198 138.889 698.219C141.828 696.749 145.869 698.035 148.991 698.861C156.889 701.249 163.225 707.861 170.205 711.902L172.868 714.106z"
       id="path1745">
    </path>

  </g>
  <g
     id="g1746"
     style="fill: #ffffff">    <path
       d="M241.194 747.993C238.989 749.188 237.979 751.666 237.43 753.962C234.948 749.922 231.827 746.34 228.796 742.942C228.246 742.392 227.419 742.482 226.868 741.841C230.725 741.197 234.857 742.575 237.43 738.993L239.357 739.912L241.194 747.993z"
       id="path1747">
    </path>

  </g>
  <g
     id="g1748"
     style="fill: #fa3715">    <path
       d="M225.765 743.219C229.715 748.728 238.071 753.227 236.511 761.493C236.97 768.933 234.766 777.748 235.867 785.463C235.225 786.105 234.766 785.187 234.123 785.279C232.193 785.187 230.082 787.207 228.612 785.738C230.082 779.677 233.848 774.075 233.021 767.647C232.562 766.819 231.827 766.085 230.816 766.269C229.715 767.003 231.001 767.647 230.816 768.473C230.356 775.727 226.592 781.606 224.847 788.31C222.735 788.769 225.031 790.421 224.664 791.615C223.286 802.36 232.47 810.074 229.071 820.268C229.623 822.656 227.602 825.318 225.49 826.696L225.031 826.696C224.296 822.105 224.113 817.147 222.644 812.829C225.582 810.809 225.215 808.329 225.765 805.299C224.296 803.187 225.123 800.707 223.286 798.962C222.092 803.462 225.398 809.523 219.522 811.727C215.848 813.38 212.449 813.932 208.316 814.574C207.397 813.473 205.837 813.748 205.47 815.033C197.664 817.421 189.49 815.033 181.685 815.492C179.492 803.688 187.194 798.687 187.194 798.687C191.144 797.309 193.531 790.237 198.582 792.992C203.45 792.074 205.562 786.84 209.419 783.901C215.94 778.207 220.807 768.656 229.256 765.626C230.082 763.789 228.888 761.586 227.694 759.932C227.602 759.197 228.796 758.647 228.612 757.728L226.133 757.269C222.827 752.769 219.337 747.811 214.471 745.147C218.052 743.86 221.449 742.116 225.49 742.116L225.765 743.219z"
       id="path1749">
    </path>

  </g>
  <g
     id="g1750"
     style="fill: #000000">    <path
       d="M142.012 748.452L142.195 748.269C142.746 748.545 142.562 749.096 142.654 749.555C141.369 750.473 139.532 750.656 137.971 750.197C136.501 749.647 134.848 747.993 134.297 746.433L135.124 745.606C137.052 747.074 138.981 749.922 142.012 748.452z"
       id="path1751">
    </path>

  </g>
  <g
     id="g1752"
     style="fill: #15b0ff">    <path
       d="M224.204 759.014C221.908 760.759 221.082 763.606 220.898 766.085L221.541 766.727C222.735 764.982 223.562 762.687 225.031 760.759C226.409 760.85 226.592 762.687 227.051 763.697C223.837 764.892 221.449 767.737 218.877 769.574C218.235 761.769 215.663 754.789 210.338 748.911L207.674 747.811C209.786 745.055 212.357 747.351 214.93 747.534C218.418 750.473 222.276 754.698 224.204 759.014z"
       id="path1753">
    </path>

  </g>
  <g
     id="g1754"
     style="fill: #fa3715">    <path
       d="M212.725 755.708C215.204 760.85 216.031 766.727 216.49 772.697C212.634 779.126 205.562 783.35 200.787 789.044C203.633 784.636 202.531 779.493 204.368 774.718C205.103 767.737 207.215 757.819 202.347 751.575L205.653 748.911C209.419 749.188 210.889 753.044 212.725 755.708z"
       id="path1755">
    </path>

  </g>
  <g
     id="g1756"
     style="fill: #000000">    <path
       d="M129.889 751.942C128.695 753.962 126.032 751.942 124.103 751.942C123.46 751.759 122.634 750.932 123.277 750.197C125.481 750.841 127.869 750.932 129.889 751.942z"
       id="path1757">
    </path>

  </g>
  <g
     id="g1758"
     style="fill: #fa3715">    <path
       d="M242.295 752.402C241.745 752.585 241.47 751.942 240.918 752.218C240.367 752.493 240.367 753.32 240.918 753.503C243.031 754.147 245.418 755.433 246.245 757.728C251.938 771.411 260.938 784.452 273.519 794.554C278.111 797.218 281.602 800.891 287.021 801.534C272.418 800.707 260.662 793.269 249.275 784.636C247.163 782.34 244.592 780.227 242.94 777.748C242.755 769.574 239.633 761.401 239.816 753.32C240.551 752.493 240.092 751.392 241.377 750.841C242.204 750.932 241.929 751.942 242.295 752.402z"
       id="path1759">
    </path>

  </g>
  <g
     id="g1760"
     style="fill: #fb18a7">    <path
       d="M160.287 768.473C161.944 771.263 162.418 773.944 160.929 777.106C159.644 777.748 158.909 776.279 159.185 775.085C159.369 772.789 158.083 770.493 159.185 768.289L160.287 768.473z"
       id="path1761">
    </path>

  </g>
  <g
     id="g1762"
     style="fill: #15b0ff">    <path
       d="M274.897 801.993C279.581 802.911 283.807 804.84 288.489 803.737C285.367 807.136 280.592 806.492 276.367 807.319C265.898 807.227 254.602 805.391 245.602 799.789L243.766 798.503C243.673 792.81 243.398 787.115 243.122 781.697C252.215 791.248 263.51 797.218 274.897 801.993z"
       id="path1763">
    </path>

  </g>
  <g
     id="g1764"
     style="fill: #fb18a7">    <path
       d="M149.909 781.973C151.654 784.36 155.052 787.023 153.215 790.145L153.032 790.33C150.552 788.585 147.062 786.381 147.062 783.259C148.072 782.983 148.808 782.064 149.909 781.973z"
       id="path1765">
    </path>

  </g>
  <g
     id="g1766"
     style="fill: #fb18a7">    <path
       d="M116.916 786.564C118.075 789.707 117.57 791.248 116.152 793.452C113.536 793.727 115.389 790.881 113.753 790.145C113.426 788.4 112.226 786.748 112.663 785.004C114.408 783.718 117.898 783.718 116.916 786.564z"
       id="path1767">
    </path>

  </g>
  <g
     id="g1768"
     style="fill: #fb18a7">    <path
       d="M142.379 801.166C141.828 801.351 141.369 802.544 140.634 801.81C138.981 799.238 138.522 796.207 136.501 793.819L137.787 791.892C139.991 794.463 143.022 797.401 142.379 801.166z"
       id="path1769">
    </path>

  </g>
  <g
     id="g1770"
     style="fill: #0964e3">    <path
       d="M293.356 796.023C292.346 796.85 291.795 798.319 290.326 798.227L291.153 792.074C292.438 792.992 294 794.463 293.356 796.023z"
       id="path1771">
    </path>

  </g>
  <g
     id="g1772"
     style="fill: #fb18a7">    <path
       d="M132.805 798.195C132.989 799.39 133.287 801.075 132.277 802.269C129.797 801.717 129.522 798.687 128.052 796.942C128.236 795.84 126.583 795.381 127.226 794.095C128.144 793.452 129.43 793.544 130.532 793.177C131.818 794.647 132.53 796.267 132.805 798.195z"
       id="path1773">
    </path>

  </g>
  <g
     id="g1774"
     style="fill: #f6d5dd">    <path
       d="M134.481 799.789C134.206 797.769 134.206 795.564 133.562 793.636C134.022 795.748 136.96 797.677 134.481 799.789z"
       id="path1775">
    </path>

  </g>
  <g
     id="g1776"
     style="fill: #fa3715">    <path
       d="M287.388 807.778C279.122 820.36 261.307 818.34 248.173 816.595C246.428 815.769 244.225 816.41 242.663 815.033C243.766 810.625 243.214 805.758 244.041 801.81C256.256 808.054 273.245 813.014 287.388 807.778z"
       id="path1777">
    </path>

  </g>
  <g
     id="g1778"
     style="fill: #15b0ff">    <path
       d="M244.867 833.492L240.735 832.85C241.194 828.166 241.377 822.748 242.295 817.881C246.337 818.799 250.469 819.625 254.602 820.543C266.081 821.187 278.111 820.543 286.562 812.555C279.029 828.441 261.489 834.318 244.867 833.492z"
       id="path1779">
    </path>

  </g>
  <g
     id="g1780"
     style="fill: #000000">    <path
       d="M133.838 814.391C133.654 815.31 132.277 815.492 131.358 815.676C128.42 815.676 125.206 815.951 122.817 814.574L123.46 813.655C126.95 813.655 130.44 814.574 133.838 814.391z"
       id="path1781">
    </path>

  </g>
  <g
     id="g1782"
     style="fill: #fa3715">    <path
       d="M221.725 818.523C222 821.738 223.194 824.859 222.459 828.258C218.97 829.544 215.663 831.381 212.082 832.206C212.266 830.829 210.889 830.645 210.338 829.544C208.96 825.687 207.307 821.645 208.316 816.962C212.266 815.769 216.674 815.86 220.44 814.391L221.725 818.523z"
       id="path1783">
    </path>

  </g>
  <g
     id="g1784"
     style="fill: #fa3715">    <path
       d="M206.113 824.033C207.674 826.789 207.307 830.37 209.879 832.666C206.296 832.85 203.082 834.962 199.684 834.227C197.94 834.962 196.011 834.595 194.174 834.595C191.419 832.206 191.327 828.258 190.868 824.676L191.603 818.34C195.827 818.615 201.246 818.891 205.194 817.237C205.837 819.074 205.837 821.738 206.113 824.033z"
       id="path1785">
    </path>

  </g>
  <g
     id="g1786"
     style="fill: #fa3715">    <path
       d="M188.664 817.881C188.389 823.482 188.94 829.727 191.144 834.87C187.746 834.318 184.898 832.481 181.409 832.206C179.389 827.799 180.399 821.921 182.052 817.696L188.664 817.881z"
       id="path1787">
    </path>

  </g>
  <g
     id="g1788"
     style="fill: #15b0ff">    <path
       d="M274.438 848.553C263.051 866.92 242.755 875.094 222.827 875.644C223.745 873.166 225.765 870.594 226.868 867.931C229.164 864.533 231.275 860.676 232.102 856.451C246.979 859.114 259.652 848.737 271.775 840.84C277.929 834.318 282.979 828.074 287.021 820.727C285.734 831.288 278.57 839.278 274.438 848.553z"
       id="path1789">
    </path>

  </g>
  <g
     id="g1790"
     style="fill: #fa3715">    <path
       d="M273.06 835.696C261.766 845.891 249.368 854.34 233.663 854.431C235.593 848.002 237.796 841.941 239.816 835.329C245.602 837.073 251.296 835.605 257.448 835.696C266.908 832.85 277.102 829.91 283.438 821.37C281.051 826.145 277.285 831.288 273.06 835.696z"
       id="path1791">
    </path>

  </g>
  <g
     id="g1792"
     style="fill: #fa3715">    <path
       d="M288.122 883.084C287.295 890.706 288.398 899.246 283.438 905.584C276.826 914.308 267.55 919.45 258.366 923.216C257.266 923.032 256.53 923.399 255.888 924.135C247.623 925.972 237.889 926.154 229.438 925.695C227.235 924.961 221.725 923.858 221.725 923.858C217.316 921.103 210.018 920.234 209.234 913.573C208.203 904.801 210.95 897.311 219.153 884.186L222 877.573C239.174 876.839 251.388 873.717 265.163 863.247C274.989 854.89 279.489 843.595 285.643 833.309C282.152 849.013 284.356 867.196 288.122 883.084z"
       id="path1793">
    </path>

  </g>
  <g
     id="g1794"
     style="fill: #fa3715">    <path
       d="M290.05 882.9C289.04 875.553 286.744 868.481 286.103 861.318C288.581 868.023 290.694 875.186 290.05 882.9z"
       id="path1795">
    </path>

  </g>
  <g
     id="g1796"
     style="fill: #fa3715">    <path
       d="M290.05 918.165C288.857 924.686 283.989 929.553 279.674 934.512L279.306 934.879C279.397 933.042 280.856 926.772 276.826 914.675L277.102 914.675C282.06 910.91 286.469 906.318 288.122 900.349C289.775 905.675 289.408 912.196 290.05 918.165z"
       id="path1797">
    </path>

  </g>
  <g
     id="g1798"
     style="fill: #fa3715">    <path
       d="M277.744 928.727C278.019 931.849 276.367 934.053 276.643 937.083C276.184 937.634 275.448 938.093 275.724 938.92C271.408 941.767 266.449 943.236 261.398 944.43C261.673 938.736 259.377 934.053 259.193 928.542C258.734 927.531 259.285 926.154 258.734 925.236C264.877 923.775 273.06 918.349 274.897 916.603C277.193 919.909 277.193 924.501 277.744 928.727z"
       id="path1799">
    </path>

  </g>
  <g
     id="g1800"
     style="fill: #fa3715">    <path
       d="M222.184 926.062C222.918 931.94 224.021 938.276 225.95 943.971L215.389 941.307C213.367 935.246 213.093 929.368 211.44 923.216L211.623 921.287L222.184 926.062z"
       id="path1801">
    </path>

  </g>
  <g
     id="g1802"
     style="fill: #fa3715">    <path
       d="M257.266 927.44C257.174 933.318 260.388 939.011 259.193 945.073C254.97 945.898 250.837 947.094 245.969 946.634C246.887 945.257 244.959 944.43 244.684 943.512C240.735 939.287 240.459 933.501 239.816 927.899C243.949 927.165 249.459 928.45 253.5 926.797C254.785 927.165 257.356 924.594 257.266 927.44z"
       id="path1803">
    </path>

  </g>
  <g
     id="g1804"
     style="fill: #fa3715">    <path
       d="M237.43 928.083C237.153 928.817 237.704 929.461 238.255 930.287C238.989 936.165 240.735 941.583 244.041 946.358L243.398 946.817C237.796 946.267 227.678 945.995 227.051 942.226C225.674 937.175 224.296 932.216 223.929 926.797C228.153 927.899 232.929 928.268 237.43 928.083z"
       id="path1805">
    </path>

  </g>

</svg>
