<?xml version="1.0" standalone="no"?>
<!DOCTYPE svg PUBLIC "-//W3C//DTD SVG August 1999//EN"
"http://www.w3.org/Graphics/SVG/SVG-19990812.dtd">
<svg
   sodipodi:docbase="/local/lemmit/dokumendid/indian-summer/manga/"
   sodipodi:docname="/local/lemmit/dokumendid/indian-summer/manga/manga_4.svg"
   xmlns:sodipodi="http://sodipodi.sourceforge.net/DTD/sodipodi-0.dtd"
   xmlns="http://www.w3.org/Graphics/SVG/SVG-19991203.dtd"
   id="svg1793">  <sodipodi:namedview
     id="base">
  </sodipodi:namedview>
  <g
     transform="matrix(1 0 0 1 91.7801 -160.952)"
     id="g2263">    <g
       id="g2178"
       style="fill: #3070bc; stroke:#000000; stroke-width:">      <path
         d="M260.249 644.599C260.249 644.599 317.901 628.338 351.536 633.591C379.411 637.944 399.809 633.244 407.076 629.988C414.344 626.733 439.896 619.298 428.757 615.972C417.615 612.643 402.835 610.638 377.087 611.385C351.339 612.133 359.765 606.411 315.854 615.597C271.945 624.783 257.463 633.116 257.551 636.155C257.638 639.196 260.249 644.599 260.249 644.599z"
         id="path2179">
      </path>

    </g>
    <g
       id="g2180"
       style="fill: #ffd3ea">      <path
         d="M87.885 628.191C87.885 628.191 96.67 623.932 104.923 624.731C112.506 625.464 105.202 629.505 104.501 632.889C103.801 636.273 98.316 643.392 94.465 645.259C90.614 647.127 84.779 647.01 82.678 646.193C80.578 645.376 77.076 646.543 79.06 640.241C81.044 633.939 85.55 629.241 87.885 628.191z"
         id="path2181">
      </path>

    </g>
    <g
       id="g2182"
       style="fill: #000000">      <path
         d="M88.228 628.899L88.228 628.899C88.314 628.858 96.918 624.747 104.848 625.515C107.17 625.739 107.492 626.236 107.533 626.334C107.723 626.784 106.675 628.09 105.981 628.954C105.008 630.167 104.001 631.42 103.73 632.729C103.08 635.873 97.812 642.761 94.122 644.551C90.397 646.357 84.78 646.165 82.964 645.459C82.449 645.259 81.9 645.166 81.37 645.078C80.383 644.912 79.763 644.777 79.478 644.313C79.215 643.884 79.059 642.869 79.811 640.477C81.652 634.633 85.944 629.928 88.228 628.899z"
         id="path2183">
      </path>

    </g>
    <g
       id="g2184"
       style="fill: #000000">      <path
         d="M78.31 640.005C77.541 642.445 77.485 644.076 78.136 645.137C78.815 646.246 80.034 646.45 81.109 646.631C81.582 646.71 82.029 646.786 82.393 646.927C84.755 647.846 90.766 647.929 94.809 645.968C98.907 643.981 104.544 636.571 105.273 633.048C105.467 632.111 106.393 630.958 107.21 629.94C108.408 628.448 109.54 627.038 108.985 625.722C108.562 624.72 107.333 624.173 104.999 623.946C96.622 623.136 87.908 627.305 87.541 627.482C85.068 628.595 80.403 633.352 78.31 640.005z"
         id="path2185">
      </path>

    </g>
    <g
       id="g2186"
       style="fill: #000000">      <path
         d="M83.492 626.594C83.492 626.594 59.398 631.12 43.417 642.441C38.852 645.675 30.337 643.927 27.43 643.257C24.523 642.585 19.157 643.927 17.815 643.927C16.473 643.927 12.225 644.151 10.66 645.269C9.094 646.386 4.175 649.741 3.28 652.2C2.386 654.661 2.162 654.661 0.821 655.555C-0.521 656.448 -13.938 665.394 -15.279 666.959C-16.621 668.524 -19.081 672.996 -19.304 675.232C-19.528 677.468 -20.199 681.717 -18.41 684.177C-16.621 686.637 -15.279 688.202 -13.714 690.438C-12.149 692.674 -9.242 695.134 -8.124 695.581C-7.006 696.028 -1.639 696.922 2.162 694.687C5.963 692.45 17.221 677.306 24.848 672.728C30.755 669.185 37.716 670.313 51.133 664.053C64.549 657.79 83.89 655.72 82.515 647.273C80.718 636.238 90.259 628.117 90.212 627C90.015 622.245 85.736 624.507 83.492 626.594z"
         id="path2187">
      </path>

    </g>
    <g
       id="g2188"
       style="fill: #c9562d">      <path
         d="M81.127 645.69C81.935 650.081 83.504 656.384 88.234 658.017C89.196 658.396 90.226 658.694 91.21 658.982C87.302 660.856 82.726 658.591 78.547 658.626C65.197 656.568 52.02 657.14 39.484 661.177C33.44 662.769 30.203 668.913 24.467 671.013C22.448 673.396 19.142 673.413 17.486 676.269C13.133 681.342 9.139 684.069 5.534 689.612C4.737 690.519 2.198 692.948 -0.111 693.718C-0.931 694.524 -2.613 691.89 -3.66 692.449C-5.778 689.536 -8.369 686.796 -10.543 683.725C-13.275 681.955 -13.544 678.344 -14.397 675.547C-14.683 670.828 -10.35 668.194 -7.851 664.825C-5.51 663.287 -3.768 661.844 -1.269 660.438L-0.811 659.544C-2.65 659.813 -4.291 661.236 -5.867 662.194C-6.177 663.269 -7.487 663.332 -8.149 664.082C-11.63 667.546 -17.109 671.147 -15.224 676.975C-14.427 679.997 -13.571 683.562 -10.714 685.409C-9.004 688.222 -6.014 692.178 -2.882 694.487C-3.994 695.703 -8.84 693.246 -10.277 692.657C-12.852 690.83 -14.148 687.303 -16.711 685.432C-18.446 682.325 -18.77 678.938 -18.158 675.444C-16.739 672.772 -16.046 669.536 -13.89 667.379C-10.885 665.476 -8.894 662.222 -5.467 661.142C-3.013 659.727 -0.346 658.028 1.868 656.028C3.28 656.133 3.373 654.573 4.126 653.846C4.309 652.311 5.367 651.705 5.8 650.324C8.929 648.499 11.897 646.155 15.347 645.176L15.528 645.221C12.889 645.822 11.765 648.664 9.192 649.188C8.624 650.342 7.058 651.062 6.749 652.522L6.818 652.634C9.653 650.833 12.657 648.737 15.14 646.42C16.447 645.972 17.933 644.991 19.111 645.663C27.256 642.137 32.801 649.519 42.911 644.463C46.782 642.527 53.532 638.514 57.541 636.509C74.047 628.256 79.149 632.042 86.909 625.662C86.909 625.662 88.944 625.316 88.513 627.17C88.082 629.023 79.149 634.938 81.127 645.69z"
         id="path2189">
      </path>

    </g>
    <g
       id="g2190"
       style="fill: #000000">      <path
         d="M427.075 593.553C425.605 592.713 425.079 594.603 424.292 595.181C421.929 597.386 418.149 597.858 415.313 596.336C415.313 595.653 413.844 595.232 414.578 594.551L414.684 594.708C414.999 594.655 415.313 594.761 415.471 594.445C415.786 594.183 415.366 593.92 415.313 593.657C411.376 592.188 409.327 588.092 407.752 584.469C407.679 583.248 407.573 582.004 407.459 580.746C409.19 583.337 412.162 584.318 413.645 584.657C414.209 585.17 415.065 585.429 415.733 585.729C413.895 582.737 413.371 578.536 414.211 575.019C414.264 573.023 415.051 571.343 415.471 569.505C416.416 568.35 415.628 566.46 416.574 565.304C417.361 555.644 416.102 546.35 410.431 538.841C408.487 533.905 407.07 528.707 406.282 523.247C405.6 508.229 409.643 493.476 408.907 478.773C407.857 472.63 407.752 465.804 404.602 460.344C403.132 455.723 398.774 453.045 395.413 450C390.74 445.904 384.229 445.169 378.296 446.377C377.614 445.747 376.773 445.589 375.881 445.379C369.843 443.489 363.018 442.754 356.139 442.597C343.8 444.487 332.353 450.473 324.478 461.236C318.912 460.921 314.501 463.441 309.881 465.384C304.944 468.482 298.906 472.21 296.754 477.986C297.068 478.458 297.121 479.509 298.014 479.141C301.69 476.358 305.68 473.996 309.881 472.21C314.291 471.055 318.807 469.007 323.585 469.795C320.539 472.158 318.438 475.466 316.182 478.616C314.187 483.814 311.245 489.274 312.4 494.998C312.926 495.313 313.608 495.051 314.028 494.63C315.708 490.902 318.544 487.752 321.589 484.917C321.957 484.812 322.272 484.182 322.744 484.549C321.065 489.433 321.169 495.471 321.222 500.563C322.744 501.247 323.847 499.409 325.265 499.041C325.685 499.671 325.422 500.616 325.475 501.456C326 504.029 325.265 506.812 324.372 509.122C321.065 516.578 312.611 519.151 306.835 524.349L306.572 524.979C303.16 527.763 300.43 531.7 300.167 536.216C299.956 537.056 300.901 537.267 301.531 537.214C301.637 536.53 302.319 535.585 302.792 535.585C303.265 536.426 302.425 537.37 303.055 538.106C301.531 538.894 299.956 539.629 298.539 540.731C291.976 544.984 288.195 551.862 289.088 559.634C279.269 562.153 267.999 558.739 257.917 558.058C253.19 556.841 250.011 557.356 246.303 557.651C241.525 558.544 238.156 559.476 233.378 560.054C232.171 560.474 230.858 560.736 229.492 560.788C228.022 561.156 228.338 562.679 227.97 563.677C223.612 564.359 220.356 567.773 216.261 568.979C209.54 573.233 202.294 576.12 195.941 581.318C183.13 588.827 171.526 599.434 159.028 607.415C156.194 609.516 152.886 609.357 149.84 610.933C137.449 613.716 125.162 616.656 113.663 621.539C109.831 618.914 106.627 623.22 103.582 625.319L102.968 625.325C99.3 628.35 95.924 631.119 92.347 634.243C85.781 639.286 79.935 641.843 71.112 648.158C61.715 655.783 54.581 654.163 43.638 656.015L33.62 660.14C34.248 659.904 29.745 663.26 30.388 663.124L30.388 663.228C28.13 664.962 26.188 666.852 24.35 668.795C24.035 670.58 25.085 673.258 22.932 674.308C21.514 676.934 19.571 679.087 17.261 681.239C13.166 684.284 10.908 688.747 7.705 692.843C6.498 694.785 7.022 697.464 6.182 699.511C5.027 704.29 6.865 709.382 9.858 713.268C14.269 715.841 17.576 721.773 23.457 721.196C27.395 720.566 30.178 716.785 32.908 714.266C35.376 705.707 41.782 698.776 45.982 690.953C46.77 689.798 48.66 689.22 49.028 687.697C50.393 686.805 51.286 685.388 52.913 684.652C63.047 673.888 75.228 667.587 88.198 663.491C98.017 659.974 108.99 660.026 119.492 658.556C121.067 657.978 122.957 657.296 124.007 655.931C123.535 654.356 125.215 653.936 126.265 653.41C131.463 652.098 133.464 649.13 138.452 648.08C151.841 645.074 158.758 650.433 170.749 648.231C176.839 647.939 177.616 647.845 181.712 647.583C195.364 649.577 207.229 648.685 221.039 648.37C225.082 647.477 229.388 647.583 233.483 647.583C238.629 647.949 243.932 647.635 248.868 646.479C250.391 647.372 253.016 647.635 254.538 646.585C255.693 644.852 257.899 646.322 259.475 645.324C271.498 644.694 280.897 636.871 290.82 630.833C297.384 627.104 304.524 624.794 312.033 623.272C321.169 622.273 329.676 619.754 337.603 615.71C343.38 612.666 348.473 609.357 353.461 604.632C354.301 602.217 356.874 601.533 358.239 599.591C360.707 602.374 364.067 604.737 367.69 605.524C368.163 605.524 368.897 605.104 368.583 604.632C367.69 602.847 368.163 600.432 369.476 598.961C371.103 602.217 373.938 604.317 377.036 605.63L376.773 613.558L376.511 613.978C367.06 618.599 359.709 627.157 351.308 633.721C345.322 638.656 340.177 645.692 332.563 647.477C328.415 649.524 323.269 649.263 319.804 653.043C317.441 655.301 315.026 657.4 313.136 659.974C313.346 662.547 311.876 666.59 314.921 667.745C314.028 669.898 313.136 672.051 312.243 674.203C312.873 677.249 312.596 680.639 312.491 683.737C312.491 686.048 312.19 689.01 313.766 690.69C314.448 691.688 316.863 690.742 316.286 692.476C316.759 693.945 317.861 695.416 319.594 695.468C320.696 694.523 322.167 694.051 323.112 692.843C325.527 688.484 324.95 683.234 325.737 678.352C326.525 676.776 327.417 678.613 328.415 678.456C329.886 678.299 331.356 678.141 332.405 676.986C333.351 677.249 334.559 678.562 335.818 678.352C339.074 677.353 340.281 673.468 343.904 673.048C345.06 672.102 346.95 670.948 346.53 669.162C347.843 663.912 349.261 658.714 351.938 654.04C355.509 649.263 360.864 645.954 365.694 642.962C372.048 638.656 379.19 636.294 385.49 631.83C386.33 631.516 386.854 630.412 387.853 630.465C390.373 628.207 393.628 626.894 395.571 624.06C397.356 623.481 395.728 621.696 396.937 620.751C398.092 613.873 395.519 608.622 395.676 602.007C398.879 603.161 401.347 606.365 405.022 605.997C406.019 606.784 407.175 606.05 408.277 606.627C411.481 605.997 415.051 606.102 417.729 604.106C417.834 603.634 418.727 603.161 419.356 603.108C421.247 601.429 423.819 599.958 425.29 598.068C426.13 596.703 427.39 595.286 427.075 593.553z"
         id="path2191">
      </path>

    </g>
    <g
       id="g2192"
       style="fill: #ffd3ea">      <path
         d="M358.869 485.704C360.392 485.179 361.81 483.867 363.175 482.764L363.909 482.396C364.697 483.132 364.435 484.497 365.327 485.284L365.957 487.175C362.334 486.335 358.501 487.437 355.719 489.485C355.456 490.114 356.243 489.853 356.506 490.114C357.871 490.22 358.816 488.96 359.919 488.697C362.597 487.909 365.59 488.435 368.11 489.694C368.583 491.585 369.318 493.37 370.368 494.998C371.051 497.991 373.676 499.514 374.778 502.296C373.203 510.277 372.256 518.237 364.398 524.13C358.565 525.956 350.253 531.104 347.317 529.181C340.627 524.917 335.398 522.092 330.306 517.681C329.045 514.846 331.934 512.798 332.195 510.12C332.773 508.177 332.721 506.392 332.195 504.449C333.036 504.554 332.878 503.557 333.456 503.19C333.613 498.831 333.876 494.368 335.188 490.587C336.081 489.538 337.394 489.013 338.602 488.435C340.649 488.697 342.277 491.112 344.377 491.112L344.535 491.112C344.22 489.8 342.644 489.013 341.647 488.225C343.117 487.857 343.904 485.862 345.165 485.074L344.902 489.065C345.217 489.747 345.899 490.167 346.688 489.958C346.74 489.905 346.845 489.8 346.792 489.694C346.162 493.843 347.58 498.306 349.312 502.087C349.681 502.454 350.153 502.454 350.678 502.454C351.413 502.034 350.94 501.036 351.098 500.563C352.253 498.621 351.833 496.521 352.831 494.525C353.093 493.056 353.304 491.585 354.091 490.325C355.246 487.332 356.243 484.234 358.134 481.504C358.554 482.554 357.714 484.707 358.869 485.704z"
         id="path2193">
      </path>

    </g>
    <g
       id="g2194"
       style="fill: #ffd3ea">      <path
         d="M340.491 487.332C339.179 486.072 337.656 486.964 336.344 487.595C337.079 485.915 338.234 484.234 339.757 483.184L340.491 487.332z"
         id="path2195">
      </path>

    </g>
    <g
       id="g2196"
       style="fill: #ffd3ea">      <path
         d="M368.11 487.805L367.218 487.595L367.952 487.175C368.215 487.332 368.058 487.595 368.11 487.805z"
         id="path2197">
      </path>

    </g>
    <g
       id="g2198"
       style="fill: #000000">      <path
         d="M346.897 498.411C346.897 498.778 347.003 499.251 346.53 499.304C345.742 498.148 344.797 497.046 343.537 496.415C342.697 496.94 343.882 497.523 343.672 498.101C344.775 503.718 342.749 507.022 341.122 511.118C340.754 512.641 339.127 512.115 338.234 512.798C336.764 512.851 335.633 512.352 334.636 511.459L334.046 510.673L333.56 509.753C334.243 508.912 334.416 510.147 335.127 510.674L336.344 511.118C336.397 510.593 335.977 509.962 335.818 509.385C335.136 506.392 335.03 503.19 335.451 500.196C335.136 500.459 334.61 500.722 334.19 500.406C333.771 499.461 335.136 498.568 335.556 497.676L339.967 493.737C340.911 493.528 341.699 493.528 342.644 493.737C344.324 495.051 345.322 496.94 346.897 498.411z"
         id="path2199">
      </path>

    </g>
    <g
       id="g2200"
       style="fill: #000000">      <path
         d="M371.365 499.565L371.365 500.196C370.788 500.196 370.158 498.726 369.738 499.776C370.473 500.669 370.841 501.719 370.841 502.927C370.578 503.557 370.106 503.19 369.738 503.084C368.478 501.036 368.74 498.778 366.588 497.256C366.588 498.096 367.008 499.041 367.218 499.934C367.795 503.714 366.362 507.923 364.005 511.361C364.74 511.991 367.322 510.487 366.955 512.273C363.595 511.538 359.762 515.161 357.137 511.905L359.192 512.245C356.638 507.825 356.978 502.716 358.659 498.306C357.241 497.466 355.613 498.989 354.353 498.778C356.033 496.889 358.606 495.943 360.759 494.63C365.327 492.688 368.95 496.573 371.365 499.565z"
         id="path2201">
      </path>

    </g>
    <g
       id="g2202"
       style="fill: #ffffff">      <path
         d="M341.017 500.406C340.334 501.089 339.39 501.614 338.496 501.929C337.972 501.772 337.552 501.352 337.079 501.036C337.079 499.724 337.919 498.778 337.972 497.519L340.597 495.155C342.015 496.521 341.647 498.831 341.017 500.406z"
         id="path2203">
      </path>

    </g>
    <g
       id="g2204"
       style="fill: #ffffff">      <path
         d="M364.697 497.151C364.435 499.041 364.435 501.247 362.44 502.191C361.862 502.244 361.39 502.56 360.759 502.454C358.292 501.772 360.076 499.409 360.287 497.886C360.707 497.046 361.337 496.521 362.282 496.415C363.175 496.521 364.435 496.048 364.697 497.151z"
         id="path2205">
      </path>

    </g>
    <g
       id="g2206"
       style="fill: #ff7500">      <path
         d="M330.673 504.449C331.671 508.072 330.096 511.223 328.625 514.163C328.415 515.266 328.521 516.263 328.521 517.313C330.935 521.304 335.608 522.722 338.969 525.399L338.969 529.284C338.023 528.235 335.608 529.442 335.714 527.29C334.559 525.242 332.353 525.557 330.516 525.767C328.94 527.499 326.945 525.714 325.265 525.399C321.274 525.242 316.916 524.717 314.028 527.657C311.56 530.178 310.248 533.171 310.511 536.846C308.463 536.898 306.731 537.161 304.682 537.581C303.475 535.743 306.048 534.063 304.473 532.54C303.317 532.278 302.897 533.695 302.057 534.063C304.787 525.085 315.184 520.727 322.114 515.317C326.473 510.698 327.732 504.239 326.525 498.411L328.783 496.889C329.098 499.409 330.673 501.824 330.673 504.449z"
         id="path2207">
      </path>

    </g>
    <g
       id="g2208"
       style="fill: #ffffff">      <path
         d="M340.387 509.385C339.81 509.962 339.81 511.485 338.602 511.118C337.919 510.12 337.341 509.122 337.079 507.968C337.656 508.072 337.919 507.337 338.602 507.6C339.231 508.125 340.071 508.597 340.387 509.385z"
         id="path2209">
      </path>

    </g>
    <g
       id="g2210"
       style="fill: #ffffff">      <path
         d="M362.649 510.277C362.649 511.065 361.704 511.223 361.18 511.538C360.129 511.38 359.972 510.277 359.394 509.647C359.132 508.702 360.234 508.912 360.549 508.388C361.651 508.282 362.071 509.542 362.649 510.277z"
         id="path2211">
      </path>

    </g>
    <g
       id="g2212"
       style="fill: #000000">      <path
         d="M345.795 510.646C345.638 511.591 344.01 512.798 344.535 514.058C345.06 514.846 346.635 514.95 346.058 516.158C344.43 516.526 343.59 514.688 342.119 514.058C342.172 512.483 344.01 511.38 344.797 510.12C345.269 510.015 345.585 510.226 345.795 510.646z"
         id="path2213">
      </path>

    </g>
    <g
       id="g2214"
       style="fill: #000000">      <path
         d="M353.004 516.37C352.424 517.04 351.886 518.101 351.57 519.099C351.098 521.566 350.258 524.56 347.527 525.137C345.899 525.085 344.324 524.14 343.642 522.616C343.694 520.358 340.068 517.826 341.021 517.058C342.28 516.743 342.96 517.155 344.167 517.313C346.74 517.313 349.732 517.523 351.833 515.948C352.516 515.791 352.847 515.741 353.004 516.37z"
         id="path2215">
      </path>

    </g>
    <g
       id="g2216"
       style="fill: #ffffff">      <path
         d="M347.527 523.509C346.688 523.824 346.372 522.879 345.638 522.879C344.902 521.618 344.933 520.217 343.672 519.22L342.984 518.237C345.348 518.657 348.368 518.573 350.573 518.206C350.416 520.044 349.365 522.406 347.527 523.509z"
         id="path2217">
      </path>

    </g>
    <g
       id="g2218"
       style="fill: #ffd3ea">      <path
         d="M327.995 527.394C324.005 529.705 321.432 533.223 317.546 535.585L317.074 536.583L312.243 536.583C311.823 532.803 314.081 529.548 316.916 527.657C319.594 526.029 322.954 526.502 326.104 526.765C326.683 527.185 327.365 527.237 327.995 527.394z"
         id="path2219">
      </path>

    </g>
    <g
       id="g2220"
       style="fill: #ffd3ea">      <path
         d="M351.308 530.545L359.499 527.394C356.821 529.81 352.883 531.753 351.308 535.323C351.15 536.006 351.045 537.056 351.938 537.37C353.775 535.796 355.876 535.165 358.134 534.693C355.666 539.261 350.468 542.044 345.428 541.624C344.587 540.521 342.96 539.472 342.749 538.001C342.435 537.738 342.015 537.896 341.647 537.844C340.44 539.052 340.807 540.784 341.385 542.149C343.957 546.034 348.157 549.343 353.093 549.185C356.086 548.923 358.764 547.872 361.39 546.821C352.988 552.282 342.066 551.915 334.559 559.267C332.458 561.419 329.99 563.519 329.15 566.46C329.518 562.837 330.778 558.951 332.301 555.485C332.353 555.224 332.248 555.013 332.038 554.856C330.935 555.065 331.093 556.431 330.41 557.113C328.205 561.892 326.788 567.405 327.26 572.761C324.005 571.237 320.959 569.295 317.809 567.614C318.912 566.827 320.644 567.089 321.694 565.935C320.802 563.519 318.858 566.197 317.284 566.092C316.653 566.144 315.971 566.04 315.288 565.935C312.033 560.579 313.713 552.808 316.286 547.662C317.914 544.722 320.539 542.044 322.324 539.261C323.795 539.366 325.579 540.101 326.893 539.103C327.103 538.474 326.63 538.001 326.104 537.738C325.213 537.738 324.215 538.315 323.375 537.738C326.053 533.485 330.673 531.806 334.716 529.652C337.026 529.652 338.759 530.808 340.124 532.698C340.911 532.487 341.542 533.695 342.277 534.063C343.222 534.641 344.377 535.165 345.532 534.956C345.952 534.588 346.268 534.168 346.425 533.695C345.848 532.803 344.955 533.8 344.272 533.328C342.749 532.96 341.909 531.386 340.859 530.545L340.754 526.398C344.115 528.13 346.95 532.383 351.308 530.545z"
         id="path2221">
      </path>

    </g>
    <g
       id="g2222"
       style="fill: #cc0000">      <path
         d="M334.453 528.13C327.942 530.282 322.272 535.218 319.069 541.257C313.608 546.718 311.665 554.751 312.138 562.312C312.978 565.199 314.606 567.825 317.546 569.242C320.802 570.607 323.638 573.023 326.997 574.126C327.26 574.388 327.103 574.808 327.155 575.175L326.893 575.386C322.534 573.495 318.177 571.553 313.503 570.345C313.924 570.188 314.658 570.292 314.658 569.61C314.554 568.298 313.24 568.927 312.4 568.874C311.456 569.399 310.562 568.822 309.618 569.348C303.212 569.452 295.966 569.085 291.976 563.31C288.668 557.69 290.82 550.917 294.496 546.034C295.231 545.509 295.966 544.354 296.911 543.776C301.69 539.156 307.518 538.158 314.291 538.211C315.971 537.738 318.701 538.946 319.437 536.741L319.174 536.478C323.06 534.116 326.053 529.442 330.516 528.024C331.408 526.659 333.613 526.817 334.453 528.13z"
         id="path2223">
      </path>

    </g>
    <g
       id="g2224"
       style="fill: #000000">      <path
         d="M339.127 536.478C337.079 536.741 336.554 534.22 334.821 533.433C334.139 532.593 332.353 533.644 332.301 532.067C333.456 530.755 334.716 532.278 335.818 532.698C337.236 533.748 338.339 535.008 339.127 536.478z"
         id="path2225">
      </path>

    </g>
    <g
       id="g2226"
       style="fill: #cc0000">      <path
         d="M379.924 536.95C375.198 537.581 371.051 542.097 369.107 546.297C366.797 554.278 366.588 562.364 367.322 570.976C368.897 574.546 367.428 579.743 371.995 581.581C371.471 582.737 370.158 584.312 369.107 585.257C364.225 591.977 357.031 598.383 351.466 604.527C340.177 614.556 326.63 620.227 311.613 621.906C296.491 623.901 284.519 633.458 271.551 640.651C266.353 642.699 260.944 644.589 254.801 643.959C253.804 644.747 252.963 645.85 251.545 645.587C253.226 643.486 253.804 640.704 254.906 638.288C256.113 631.987 255.221 626.317 252.806 620.909C249.078 614.608 242.305 609.987 236.004 606.627C238.682 605.682 241.517 604.475 244.615 604.265C244.878 604.002 245.14 603.582 244.824 603.267C243.932 602.479 242.567 603.057 241.569 603.267L238.315 604.527C242.356 601.587 246.61 599.171 251.283 597.701C251.756 597.491 251.756 596.86 251.388 596.599L251.021 596.336C246.978 597.596 243.302 599.802 239.679 602.111C240.414 600.483 242.094 598.908 243.092 597.228C243.092 596.651 242.515 596.599 242.199 596.336C240.361 598.174 239.049 600.956 237.054 602.637C242.147 595.023 243.249 584.259 240.414 575.386C238.523 570.292 235.531 564.832 229.966 562.679C239.259 561.313 248.92 556.589 258.319 559.634C268.4 560.685 279.007 563.624 289.35 561.052L290.085 563.204C282.683 563.729 274.596 564.675 267.771 567.72C266.353 568.979 263.938 569.558 264.147 572.024C264.62 573.601 265.67 575.648 267.402 576.54C273.231 583.366 265.25 593.186 271.813 599.591C274.123 603.371 278.586 603.057 281.999 604.737C288.3 605.682 294.391 603.739 300.167 602.217C308.147 599.276 315.551 593.764 321.852 587.777L327.785 580.688C328.888 581.687 329.728 584.102 331.408 583.997C331.985 582.579 330.358 582.002 330.043 580.951C327.838 578.378 329.465 574.913 329.15 571.868C330.358 568.402 330.988 564.255 334.453 561.682C336.448 560.316 337.603 558.269 339.599 557.271C342.015 555.905 344.797 555.485 347.16 554.12C355.456 552.178 363.438 549.027 369.37 541.886C372.31 539.103 375.461 532.751 379.924 536.95z"
         id="path2227">
      </path>

    </g>
    <g
       id="g2228"
       style="fill: #ffd3ea">      <path
         d="M393.155 543.515C396.937 548.555 398.512 555.065 397.198 561.313C395.676 568.14 394.416 575.648 394.416 582.946C394.048 591.873 392.841 600.432 394.941 609.409C395.676 613.085 395.624 616.919 395.413 620.647C395.413 621.276 394.469 621.802 395.15 622.379C391.476 626.947 386.277 629.468 381.709 632.618C374.358 637.134 366.377 640.126 359.394 645.587C350.782 649.787 347.266 658.924 345.795 667.535C345.375 668.689 345.112 669.95 344.272 670.896C341.856 672.471 338.916 672.628 337.446 675.726C336.554 676.303 335.504 677.249 334.453 676.565L333.56 675.937C334.139 674.518 336.134 673.311 335.346 671.525C334.559 671.104 334.506 668.9 333.193 669.792C333.509 671.157 334.821 672.786 333.036 673.94C331.723 675.201 330.62 677.405 328.258 676.724C328.152 676.093 327.47 676.251 327.155 675.83C328.521 673.626 329.465 671.315 330.673 669.005C330.306 668.007 329.045 667.482 328.152 666.904C327.838 667.64 328.625 668.427 328.888 669.005C328.101 671.998 326.367 674.623 324.372 676.986C324.792 680.871 323.69 684.757 323.112 688.538L322.114 691.058C322.167 689.955 323.164 688.117 321.694 687.435C320.644 687.119 319.541 687.487 318.438 687.54C318.912 683.654 317.861 679.611 319.332 676.093C320.749 672.838 323.164 670.002 323.112 666.116C322.587 665.435 322.114 664.279 321.065 664.227C320.276 665.119 321.642 665.697 321.694 666.485C321.169 670.16 318.754 673.048 317.284 676.356C317.179 678.929 316.812 681.502 316.916 684.022C316.286 683.55 315.656 683.759 314.921 683.917C314.711 684.179 314.396 684.284 314.133 684.39L313.924 684.022C313.766 679.927 314.187 676.828 314.133 673.311C315.656 670.16 316.653 666.432 318.177 663.124C318.019 661.916 319.594 660.551 318.334 659.711C317.914 659.606 317.651 659.764 317.441 660.078C317.074 662.389 316.286 664.542 315.184 666.485C313.818 665.119 314.554 663.124 314.554 661.339C315.813 658.294 318.491 656.561 320.854 654.146C323.847 651.415 327.732 650.838 331.408 649.735C343.117 646.585 350.678 634.928 360.392 627.683C365.853 623.43 370.631 618.441 376.669 615.448C377.876 614.976 379.452 614.556 380.816 615.081C381.342 614.766 381.394 614.188 380.922 613.82C380.292 613.138 379.347 613.19 378.401 613.19C378.034 599.906 379.714 583.209 375.671 570.136C375.514 569.872 375.251 569.819 375.041 569.872C374.411 571.237 375.094 572.761 375.251 574.126C375.198 574.966 376.091 576.016 374.778 576.278L372.101 579.429C369.738 578.169 370 574.966 369.476 572.498C367.428 566.354 368.74 559.423 369.107 552.598C369.476 547.242 372.731 542.202 377.403 539.472C381.552 536.794 386.277 538.999 390.11 540.731C391.003 541.729 392.421 542.254 393.155 543.515z"
         id="path2229">
      </path>

    </g>
    <g
       id="g2230"
       style="fill: #ffd3ea">      <path
         d="M234.743 567.825C240.624 575.806 242.409 587.463 238.052 596.703C235.741 600.746 234.429 606.627 229.072 608.045C222.089 610.933 215.736 615.343 208.543 617.863C201.874 621.066 195.153 624.007 187.75 625.424C184.968 625.635 181.449 626.055 178.456 626.055C172.681 629.205 166.327 630.885 159.659 631.83C157.349 632.671 155.722 634.612 153.726 636.031C145.692 641.491 137.292 646.164 128.89 650.89C126.79 651.783 124.375 652.098 122.484 653.515C118.494 653.988 114.608 652.78 112.403 649.263C109.2 644.799 107.625 639.076 107.993 633.721C108.413 630.57 109.568 627.734 110.88 624.899C115.554 620.594 122.169 620.542 127.63 617.969C135.506 615.238 144.17 614.346 152.203 611.931C154.409 610.88 156.929 610.618 158.924 609.148C172.786 600.432 184.862 589.405 198.829 581.214C202.399 578.483 206.181 576.226 209.803 573.758C213.006 572.708 215.788 570.712 218.887 569.348C220.829 568.454 222.772 567.667 224.558 566.46C227.025 566.144 229.388 563.782 231.751 565.199C232.538 566.249 234.113 566.564 234.743 567.825z"
         id="path2231">
      </path>

    </g>
    <g
       id="g2232"
       style="fill: #ffd3ea">      <path
         d="M291.871 565.462C293.603 567.614 296.176 568.874 298.644 569.872C302.949 571.657 308.2 570.03 312.769 571.237C317.546 572.918 322.272 574.86 326.735 577.276L327.26 578.799C325.002 581.214 323.375 584.522 320.435 586.622L320.225 587.252C313.346 593.238 306.205 598.698 297.751 601.377C291.293 602.217 284.1 605.209 277.852 601.744C274.753 601.167 272.338 598.437 271.078 595.706C269.976 588.354 273.86 578.851 266.772 573.286C266.877 572.55 265.722 572.341 266.143 571.5C271.025 566.827 277.852 566.407 284.31 565.199C286.725 565.462 289.508 564.622 291.871 565.462z"
         id="path2233">
      </path>

    </g>
    <g
       id="g2234"
       style="fill: #000000">      <path
         d="M284.152 580.059C285.359 580.531 286.62 580.847 287.565 581.844C287.933 582.002 287.828 582.422 287.933 582.737C286.987 583.262 286.462 581.949 285.57 581.687C284.729 581.318 283.995 582.422 283.154 581.949C282.734 580.531 280.792 582.264 280.897 580.427C281.369 580.584 281.894 580.164 282.524 580.321C282.84 579.009 282.157 577.853 281.159 576.908C281.159 576.331 281.527 576.384 281.999 576.437C283.207 577.434 283.68 578.746 284.152 580.059z"
         id="path2235">
      </path>

    </g>
    <g
       id="g2236"
       style="fill: #ff7500">      <path
         d="M376.773 604.002C372.469 601.901 369.527 597.648 369.476 592.923C369.107 592.713 368.793 592.398 368.32 592.556C367.218 593.553 368.32 595.232 368.32 596.599C369.79 597.754 367.532 598.646 367.322 599.749C366.902 601.167 366.745 602.217 366.85 603.897C363.909 603.057 361.39 601.272 359.499 598.856L359.499 598.489C364.644 593.238 369.056 587.777 373.781 582.212C374.096 581.687 374.464 581.004 374.148 580.321C373.991 580.216 373.938 580.006 373.781 580.059C374.096 579.009 375.041 578.746 375.671 577.905C377.562 586.359 376.196 595.495 376.773 604.002z"
         id="path2237">
      </path>

    </g>
    <g
       id="g2238"
       style="fill: #000000">      <path
         d="M352.2 590.298C354.458 589.667 357.137 589.982 359.289 589.038C359.604 588.932 360.234 589.143 360.024 589.667C359.972 590.718 357.188 589.93 358.029 591.768C356.821 592.082 355.004 591.739 354.007 591.318C350.121 591.844 346.688 591.032 343.012 590.035C342.749 589.72 342.907 589.3 343.117 589.038C345.899 590.351 349.103 590.035 352.2 590.298z"
         id="path2239">
      </path>

    </g>
    <g
       id="g2240"
       style="fill: #ffd3ea">      <path
         d="M248.763 617.759C251.966 621.539 252.858 625.739 253.804 630.465C254.329 635.61 252.858 640.809 249.761 644.589C240.31 647.583 230.438 644.957 220.515 646.848C210.958 646.637 201.14 648.37 191.688 646.848C186.385 647.477 179.979 644.782 174.519 646.2C161.843 649.69 153.481 644.254 139.818 646.714C145.962 643.248 153.621 638.551 159.292 633.983C161.13 632.985 163.492 633.352 165.435 632.723C170.265 631.777 174.624 629.678 179.087 627.84C191.11 627.734 201.349 623.324 211.431 618.493C218.571 615.501 224.062 612.693 231.694 608.109C233.606 605.241 235.478 608.832 237.159 608.938C239.259 609.987 241.044 611.773 243.197 612.56L248.763 617.759z"
         id="path2241">
      </path>

    </g>
    <g
       id="g2242"
       style="fill: #000000">      <path
         d="M163.544 615.238C161.602 615.973 162.127 618.546 160.185 618.86C159.712 618.651 159.816 618.179 159.765 617.759C160.499 616.445 161.234 614.766 162.704 614.188C163.124 614.188 163.86 614.556 163.544 615.238z"
         id="path2243">
      </path>

    </g>
    <g
       id="g2244"
       style="fill: #000000">      <path
         d="M161.571 636.998C160.049 637.056 159.218 639.518 157.882 639.2C157.687 638.866 157.962 638.477 158.118 638.085C159.159 637.139 160.364 635.864 161.526 635.801C161.784 635.93 162.071 636.485 161.571 636.998z"
         id="path2245">
      </path>

    </g>
    <g
       id="g2246"
       style="fill: #000000">      <path
         d="M177.302 620.647C175.097 622.904 171.735 622.484 169.005 623.43C166.433 624.111 163.597 625.792 160.813 624.427C160.289 623.797 159.606 623.586 159.554 622.799C161.182 622.746 162.757 624.374 164.595 623.43C167.431 622.326 170.37 621.486 173.521 621.119C175.253 620.436 176.724 619.071 178.299 617.969C178.981 618.86 177.774 619.807 177.302 620.647z"
         id="path2247">
      </path>

    </g>
    <g
       id="g2248"
       style="fill: #c9562d">      <path
         d="M107.888 643.435C109.305 648.265 113.348 654.513 118.966 655.038C120.122 655.196 121.329 655.248 122.484 655.301C118.704 658.398 113.086 657.139 108.518 658.294C93.343 659.606 79.061 663.754 66.407 671.525C60.212 674.886 55.906 680.924 50.183 684.757C48.608 687.907 44.512 688.747 43.462 692.317C40.049 699.039 34.483 704.814 32.016 711.851C31.385 713.058 30.073 713.058 30.125 714.528C29.443 715.631 28.498 716.418 27.5 717.311C24.402 714.686 20.832 712.375 17.629 709.593C14.164 708.385 12.903 704.499 11.223 701.664C9.648 696.57 13.691 692.528 15.529 688.17C17.682 685.859 19.204 683.812 21.567 681.606L21.83 680.504C19.887 681.291 18.469 683.287 16.999 684.757C16.946 686.017 15.529 686.438 15.003 687.435C12.116 692.16 7.075 697.568 10.698 703.449C12.378 706.547 14.269 710.223 17.892 711.482C20.517 714.108 23.299 715.841 25.82 718.413C24.927 720.042 22.04 719.568 20.307 719.307C16.999 717.993 14.636 714.476 11.328 713.11C8.598 710.17 7.337 706.547 7.075 702.557C7.915 699.249 7.81 695.521 9.595 692.58C12.378 689.692 13.691 685.597 17.156 683.497C19.467 681.291 21.934 678.718 23.825 675.937C25.4 675.674 25.085 673.94 25.715 672.942C25.505 671.21 26.502 670.265 26.607 668.638C29.548 665.802 32.173 662.441 35.691 660.446L35.901 660.446C33.171 661.812 32.698 665.225 30.02 666.485C29.706 667.902 28.183 669.11 28.235 670.79L28.34 670.896C30.965 668.165 33.696 665.066 35.796 661.864C37.109 661.024 38.474 659.554 39.944 659.974C47.925 653.936 59.352 657.879 67.385 652.418C72.917 648.682 76.979 645.44 79.898 643.898C94.008 636.444 100.012 630.045 109.883 622.536L111.038 622.273C106.627 628.102 105.105 636.556 107.888 643.435z"
         id="path2249">
      </path>

    </g>
    <g
       id="g2250"
       style="fill: #d83800">      <path
         d="M316.812 685.912L316.443 689.955C315.603 690.112 314.974 689.692 314.396 689.167C314.028 688.17 314.028 686.542 314.396 685.649C315.184 685.597 316.496 684.494 316.812 685.912z"
         id="path2251">
      </path>

    </g>
    <g
       id="g2252"
       style="fill: #d83800">      <path
         d="M321.222 689.692C320.802 691.373 321.484 693.157 319.804 694.208C319.017 694.523 317.914 694.313 317.704 693.368C318.334 691.793 316.653 688.904 319.174 688.432C320.172 688.747 321.327 688.223 321.222 689.692z"
         id="path2253">
      </path>

    </g>
    <g
       id="g2254"
       style="fill: #ffba00">      <path
         d="M423.317 598.422C418.066 602.938 411.818 605.931 404.678 605.091C402.052 604.565 399.952 602.727 397.483 601.835C393.966 600.68 396.329 597.005 395.594 594.536C396.171 582.407 396.381 571.538 399.111 559.882C399.637 554.632 398.691 548.751 395.594 544.393C394.123 540.874 390.343 539.405 387.402 538.092C385.565 537.567 383.728 536.622 381.731 536.832C381.05 534.679 378.949 535.467 377.478 534.417C377.951 533.944 378.581 533.682 379.106 533.261C379.632 532.368 381.784 533.156 381.102 531.634C379.894 531.161 378.739 532.421 377.584 532.894L377.478 532.788C378.477 531.528 379.946 530.898 380.262 529.271C380.209 528.903 379.789 528.851 379.475 528.851C372.438 536.359 365.298 546.755 354.166 547.543C349.388 548.278 345.029 545.39 342.824 541.085L342.93 540.979L343.087 541.085C344.347 544.024 347.655 542.712 350.018 542.87C351.487 542.45 352.853 541.715 354.272 541.242C356.791 539.72 359.364 537.199 359.837 534.153C365.875 532.368 372.019 530.688 376.849 525.963L376.849 525.7C376.639 525.333 376.219 524.913 375.693 525.07C370.181 530.583 362.882 531.897 355.898 533.892C355.321 534.364 354.481 534.626 353.903 534.679C356.161 531.844 359.312 529.586 362.199 527.591C370.705 522.76 374.591 513.466 375.851 504.54L376.062 504.278C377.794 505.171 377.741 507.376 379.212 508.478C380.892 511.472 383.307 514.202 384.515 517.404C385.565 518.56 384.462 521.972 386.772 521.185C388.926 516.512 387.088 511.313 386.404 506.693C384.829 503.018 383.832 499.29 383.412 495.456C383.938 494.354 384.672 493.671 385.67 492.727C385.984 492.097 387.14 492.411 386.93 491.466C386.142 490.101 385.302 491.938 384.515 491.677C384.672 490.679 385.775 490.101 385.407 488.946C385.354 488.631 385.092 488.474 384.777 488.526C383.359 490.626 382.257 493.042 381.994 495.72C382.257 503.228 387.612 509.108 386.142 517.3C384.829 515.356 384.2 512.941 382.362 511.103C378.581 504.698 373.961 498.817 370.652 492.306C369.025 487.843 370.075 482.488 373.331 479.232C372.911 478.97 373.174 478.129 372.438 478.444C370.705 480.335 368.815 482.382 368.657 485.008C368.08 484.955 367.66 485.69 367.135 485.375C365.822 483.852 366.242 481.962 364.72 480.597C362.882 480.913 361.674 483.118 359.941 483.38C359.784 481.962 359.994 480.492 360.467 479.075C360.047 477.29 361.989 476.187 362.987 474.822C363.565 474.244 365.402 474.454 364.72 473.194L363.723 473.036C362.147 473.929 360.467 475.504 359.312 477.079C355.006 484.22 351.856 491.833 350.386 500.13C349.388 498.397 349.178 496.349 348.6 494.459C348.548 492.778 348.128 490.626 348.968 489.155C349.231 486.373 350.806 483.59 352.118 481.227C352.065 480.755 351.278 480.597 350.858 480.86C349.178 482.75 349.021 485.218 348.128 487.423L346.973 487.528C346.553 486.269 347.287 483.957 346.342 482.645C344.347 482.96 343.822 485.165 342.299 486.163C341.196 484.01 341.196 480.965 341.827 478.602C341.512 478.234 341.144 477.972 340.672 478.077C340.041 479.127 340.356 480.755 339.937 481.752C338.886 481.805 338.309 483.118 337.522 483.485C333.636 488.788 332.481 495.404 332.218 502.021C330.59 500.024 330.801 497.085 330.485 494.722C330.485 489.471 331.483 484.641 334.476 480.597C335.735 478.654 337.941 477.132 338.677 474.927L337.889 474.927C332.218 480.125 328.647 486.741 329.226 494.616C329.015 494.827 329.12 495.456 328.595 495.247C326.758 496.874 324.763 498.082 322.767 499.132C322.452 494.512 322.662 489.628 324.027 485.27C324.604 483.328 325.864 481.648 326.442 479.705L325.812 479.495C324.972 479.81 324.92 480.86 324.289 481.49C319.983 484.273 316.309 488.474 313.578 492.727C314.523 483.957 318.042 475.609 325.655 470.148C326.81 469.203 328.49 468.993 329.33 467.891C328.228 466.683 326.862 468.468 325.655 468.783C322.032 467.943 318.356 468.573 314.733 469.624C308.905 470.568 304.127 473.929 299.191 476.975L299.086 476.817L301.081 474.034C308.065 467.418 316.256 462.903 325.812 462.587L327.335 460.697C333.846 451.561 344.085 446.153 354.533 444.42C359.522 443.16 364.194 444.578 369.025 445.208C371.021 445.891 373.278 445.838 375.221 446.731L374.958 446.94C370.128 447.203 366.242 449.618 362.199 451.771L362.199 452.139C362.305 452.559 362.515 452.821 362.987 452.874C365.245 450.616 368.29 450.196 370.915 448.831C371.86 448.726 372.911 448.043 373.803 448.463C372.963 449.303 371.703 449.566 371.021 450.616C371.073 451.403 371.808 450.668 372.28 450.878C375.169 448.726 378.634 447.203 382.151 447.36C384.095 446.678 386.09 447.518 388.032 447.571C394.28 449.461 400.319 454.869 403.417 460.592C406.41 465.581 406.41 471.829 407.303 477.71L407.723 478.234C408.562 494.196 403.522 509.423 405.202 525.858C406.147 529.638 407.144 533.733 408.353 537.567C408.931 540.034 410.978 541.61 412.133 543.868C413.655 547.543 414.812 551.534 415.02 555.577C415.704 558.359 415.809 561.405 415.389 564.136C414.549 566.708 413.394 569.438 413.498 572.326C412.715 575.655 413.023 582.724 412.98 582.831C412.937 582.938 410.211 582.755 408.03 580.029C407.053 578.809 407.492 577.721 407.457 577.496L407.337 577.515C406.909 572.674 406.633 567.761 407.723 563.295C408.457 557.1 406.62 551.376 405.045 545.862C403.47 542.345 400.949 539.142 399.531 535.571C398.797 535.151 399.164 533.997 398.114 534.049C397.326 535.099 398.639 536.464 398.901 537.672C401.054 541.925 403.942 545.495 404.782 550.273C405.202 551.639 404.992 553.214 405.938 554.316C406.882 560.04 405.885 565.763 405.307 571.486C405.045 572.169 405.99 572.746 405.307 573.219C406.095 577.839 405.728 582.617 407.093 586.818C408.72 589.285 409.928 592.331 412.606 593.906C412.501 594.904 412.974 595.586 412.974 596.531C413.655 597.267 414.391 597.897 415.283 598.159C418.171 598.055 421.112 599.734 423.58 597.687C424 598.002 423.265 598.106 423.317 598.422z"
         id="path2255">
      </path>

    </g>
    <g
       id="g2256"
       style="fill: #d80000">      <path
         d="M344.462 520.415C344.462 520.415 346.469 519.523 347.137 520.191C347.806 520.86 347.36 520.191 348.921 519.968C350.481 519.745 350.704 520.191 350.258 520.86C349.812 521.528 348.878 523.836 347.503 523.836C346.422 523.836 344.908 522.644 344.685 521.528C344.462 520.415 344.462 520.415 344.462 520.415z"
         id="path2257">
      </path>

    </g>
    <g
       id="g2258"
       style="fill: #000000">      <path
         d="M344.568 520.654L344.568 520.654C345.281 520.339 346.558 519.983 346.951 520.377C347.315 520.741 347.502 520.864 347.881 520.606C348.035 520.499 348.294 520.323 348.957 520.228C350.033 520.075 350.183 520.29 350.188 520.299C350.212 520.335 350.206 520.464 350.04 520.714C349.947 520.853 349.839 521.051 349.714 521.279C349.243 522.138 348.456 523.573 347.503 523.573C346.522 523.573 345.135 522.437 344.942 521.477L344.72 520.362L344.568 520.654z"
         id="path2259">
      </path>

    </g>
    <g
       id="g2260"
       style="fill: #000000">      <path
         d="M344.428 521.581C344.668 522.78 346.277 524.099 347.503 524.099C348.767 524.099 349.648 522.491 350.174 521.531C350.294 521.313 350.397 521.126 350.477 521.006C350.742 520.608 350.795 520.276 350.633 520.019C350.412 519.669 349.856 519.569 348.884 519.708C348.1 519.82 347.765 520.049 347.585 520.171C347.555 520.192 347.517 520.218 347.503 520.224C347.521 520.217 347.553 520.217 347.569 520.224C347.546 520.214 347.484 520.167 347.322 520.006C346.549 519.231 344.577 520.075 344.356 520.175L344.163 520.26L344.204 520.466L344.428 521.581z"
         id="path2261">
      </path>

    </g>

  </g>

</svg>
