<?xml version="1.0" standalone="no"?>
<!DOCTYPE svg PUBLIC "-//W3C//DTD SVG August 1999//EN"
"http://www.w3.org/Graphics/SVG/SVG-19990812.dtd">
<svg
   xmlns:sodipodi="http://sodipodi.sourceforge.net/DTD/sodipodi-0.dtd"
   xmlns="http://www.w3.org/Graphics/SVG/SVG-19991203.dtd"
   id="svg719"
   sodipodi:docbase="/home/lauris/tmp/manga/"
   sodipodi:docname="/home/lauris/tmp/manga/mangatips6.svg">  <sodipodi:namedview
     id="base">
  </sodipodi:namedview>
  <g
     id="g1104"
     style="fill: #000000">    <path
       d="M396.211 711.979C394.111 702.08 391.511 692.979 392.611 682.08C390.711 680.279 389.042 680.833 386.343 680.233C386.575 677.179 386.298 673.068 384.798 670.068C387.168 668.143 384.611 665.68 385.411 663.08C384.911 662.279 385.411 659.779 384.911 658.779C384.81 654.779 383.711 642.18 383.711 642.18C382.711 641.58 382.411 617.38 380.81 605.68C377.911 592.78 375.81 580.38 374.31 566.88C371.411 549.979 371.31 532.18 363.31 517.18C356.31 503.68 352.31 487.68 338.111 478.48C339.211 477.48 340.511 476.68 341.911 476.38C346.511 471.08 351.411 466.18 353.211 459.58C353.611 458.08 355.511 457.68 354.411 455.98C352.111 456.68 350.411 458.98 348.411 460.48C347.911 461.58 343.111 462.68 341.211 462.18C336.711 461.88 334.011 457.18 331.411 453.78C328.011 444.68 329.011 433.08 328.511 423.28C330.411 415.28 332.211 406.28 332.111 398.38C329.81 376.98 319.711 354.88 299.011 345.08C296.511 343.38 293.111 343.58 291.31 340.78C288.411 340.78 285.411 339.28 282.911 337.38C271.711 332.18 263.111 322.18 251.711 317.48C243.611 315.18 235.511 317.98 228.011 320.88C223.491 322.575 219.49 325.502 215.381 328.148C208.806 326.948 199.919 321.738 193.411 325.88C184.311 332.28 178.911 342.08 176.611 351.78C175.423 355.046 175.502 358.533 175.418 361.955C169.829 370.605 161.983 381.396 159.611 391.38C156.611 407.48 150.611 423.88 155.711 440.88C156.011 442.38 156.911 444.58 158.811 443.68C158.711 440.98 158.911 438.48 160.011 436.28C162.211 443.78 164.611 451.18 170.411 457.18C171.011 458.08 171.911 457.38 172.511 456.88C171.811 453.58 171.711 449.78 173.511 446.58C175.411 444.28 176.411 440.28 179.711 439.18C182.311 441.38 183.511 443.68 186.411 444.88C188.411 446.38 188.311 443.58 188.611 442.48C195.111 459.88 190.711 477.28 188.611 495.58C186.511 509.88 191.311 522.479 197.511 533.979C185.311 544.58 175.611 556.479 164.411 567.28C153.111 574.08 141.011 578.68 130.311 586.479C123.011 592.479 114.398 596.911 107.597 603.511C104.597 606.812 99.697 607.442 96.997 611.043C85.797 621.942 74.541 619.971 56.811 638.08C36.686 658.636 27.011 685.88 24.411 714.38C24.711 715.38 25.711 715.479 26.611 715.38L34.011 710.58C33.711 716.18 31.679 718.098 31.911 726.18C33.911 727.38 35.411 724.279 37.411 723.979C38.011 726.68 37.211 728.979 38.111 731.479C41.811 731.08 44.111 727.18 46.311 724.779C46.911 723.58 46.811 721.88 48.211 721.18C48.911 727.38 49.411 734.38 51.611 740.38C52.511 740.479 53.311 740.18 54.011 739.58C55.111 738.279 56.111 736.08 57.611 734.58C58.111 735.68 59.411 735.68 60.211 735.58C61.611 732.18 64.311 729.38 64.311 725.479C64.811 725.779 64.811 726.279 65.011 726.68C65.611 727.279 66.311 726.68 66.711 726.18C67.211 723.279 69.011 720.779 70.011 717.979C70.141 698.505 93.111 674.58 93.111 674.58C94.711 671.08 95.311 666.88 99.111 664.479C105.811 660.58 113.511 658.479 120.711 656.58C120.211 658.38 119.711 660.279 119.211 662.08C119.611 675.88 123.911 688.08 132.211 698.58C131.811 700.279 131.011 701.779 131.011 703.58C135.411 712.279 146.211 716.18 150.011 724.979C151.611 729.08 155.811 730.68 160.011 729.58C169.111 738.479 179.111 745.58 186.711 755.98C190.111 763.68 199.511 768.68 200.811 777.58C203.011 782.48 209.111 781.48 213.111 781.58C216.211 784.68 214.211 789.18 214.81 793.38C214.911 796.779 218.911 795.48 220.011 798.18C222.81 808.18 222.111 816.68 220.511 826.98C219.911 830.779 219.911 835.279 218.611 838.48C219.011 843.48 213.711 845.279 210.711 848.08C205.411 852.08 198.311 849.98 193.211 853.58C192.111 857.18 189.811 860.279 190.011 864.38C191.311 866.48 189.711 869.08 189.611 871.38C189.911 875.88 188.411 881.18 192.711 884.08C200.311 887.779 207.111 894.18 216.911 891.98C222.64 896.696 243.81 899.18 247.411 898.779C258.611 899.779 271.211 902.68 282.411 900.88L283.111 900.38C283.511 890.68 284.211 883.779 285.31 874.279C287.911 865.58 289.411 856.38 294.211 848.58C296.31 847.08 294.411 844.08 297.111 843.58C297.81 851.88 297.711 859.38 298.011 867.279C298.011 867.279 297.861 882.298 297.31 892.98L302.111 898.279C304.411 899.779 305.911 896.98 307.911 896.38C308.81 895.58 309.911 896.88 310.711 895.88C311.411 886.279 312.411 878.48 312.711 868.779C313.211 867.18 313.711 865.08 313.111 863.68C314.111 859.58 314.31 855.98 314.81 851.68C315.211 845.279 317.31 839.98 317.211 833.98C317.611 831.08 319.511 828.18 318.411 825.279L320.611 824.58C319.81 821.779 322.211 817.68 319.911 815.48C320.111 812.48 317.31 809.38 316.31 806.58C322.411 807.58 347.81 799.58 351.31 797.48C355.911 796.779 359.711 792.98 363.511 791.68C379.31 784.08 389.111 767.779 393.511 752.08C400.188 732.953 395.81 715.38 396.211 711.979z"
       id="path1105">
    </path>

  </g>
  <g
     id="g1106"
     style="fill: #ffd8e8">    <path
       d="M251.211 389.28C251.81 389.38 252.31 390.08 252.911 389.48C254.711 385.08 257.911 381.28 259.411 376.78L259.911 376.78C261.611 391.48 268.81 404.68 269.511 419.28C268.411 414.98 266.011 411.28 263.911 407.48C263.911 407.68 265.511 408.98 266.111 407.98C266.911 406.18 264.211 405.18 263.911 403.38C263.31 401.78 262.011 400.38 260.611 399.08C261.711 399.28 262.911 398.98 263.211 397.88C263.511 397.28 262.711 397.08 262.511 396.68C260.911 396.58 259.911 397.98 258.711 396.48C259.81 395.38 261.511 394.88 262.31 393.28C260.711 391.08 258.611 395.78 256.511 394.08C257.411 392.98 259.111 391.88 258.911 390.18L258.411 389.68L254.81 392.88C252.711 392.48 250.111 391.38 248.111 392.88C242.411 397.18 239.611 403.58 237.611 409.88C237.711 410.38 238.411 411.28 239.011 410.58C242.011 405.48 244.211 396.98 251.711 396.68C254.611 398.08 258.511 398.08 259.611 401.98C256.31 400.58 253.411 397.78 249.31 398.88C243.011 404.38 245.011 413.58 246.711 420.18C248.711 424.88 252.011 429.98 255.31 433.18C254.511 433.48 253.511 433.38 252.911 434.08C252.711 434.78 253.211 435.18 253.611 435.58C256.111 435.98 257.711 434.68 259.611 433.88C260.81 434.38 259.711 438.68 262.011 436.28C262.81 434.68 260.411 433.58 262.31 432.48C263.211 433.18 262.31 435.38 263.911 435.58C266.31 434.38 263.211 431.98 264.911 430.98C265.911 430.98 266.711 433.78 267.81 431.68C267.511 431.38 267.711 430.78 267.31 430.48C268.211 430.78 269.511 431.28 270.411 430.08C270.011 434.68 267.111 438.18 264.411 441.78C265.011 442.88 265.911 441.88 266.611 441.78C268.81 443.38 271.611 443.68 274.511 443.48C276.711 442.78 278.611 441.38 280.511 439.88C279.31 454.38 268.611 467.28 256.511 476.88C251.011 477.78 244.011 476.98 238.011 477.58C232.81 476.68 227.011 476.28 221.711 476.08C217.411 475.48 211.911 474.88 208.31 471.08C201.911 464.48 209.31 455.78 206.611 448.48C204.511 444.78 202.111 440.88 201.111 436.98C204.311 431.08 202.511 420.48 212.111 419.98C212.911 418.18 214.81 418.98 216.211 418.78L216.911 419.68C214.211 419.08 211.411 420.58 209.211 422.38C203.611 428.98 205.511 438.98 208.81 446.08C209.31 447.58 211.111 448.48 211.211 450.18C213.011 451.68 215.211 453.18 217.411 454.28C216.31 455.88 213.611 455.28 211.611 455.68C213.31 456.88 211.511 458.28 212.611 459.58C214.011 458.98 213.411 456.98 215.211 457.38C215.411 458.28 215.511 459.18 216.411 459.78C217.511 459.38 217.011 458.28 217.211 457.38C218.211 457.68 219.511 455.08 220.011 457.38C220.411 457.68 220.611 458.08 221.011 458.08C222.211 457.38 220.81 456.48 220.81 455.68C222.611 450.88 231.711 447.78 227.211 441.08C225.411 429.58 221.411 418.68 212.411 410.58C212.011 410.58 211.81 410.98 211.411 410.88C211.511 412.78 213.111 414.88 214.511 416.38C210.611 416.38 207.611 415.88 204.411 418.48L203.211 416.88C201.111 418.08 203.811 420.28 201.311 421.68C201.411 422.08 201.311 422.58 200.811 422.88C200.011 422.38 199.011 422.08 198.211 421.38C197.611 423.08 201.311 424.18 199.911 425.68L199.911 426.48C198.811 426.48 197.511 426.48 196.811 426.48C197.211 427.58 198.411 427.78 199.411 428.08C199.811 430.28 197.911 430.38 196.811 431.68C197.211 432.58 198.311 432.28 198.911 431.98C199.311 433.18 198.711 433.78 199.211 435.08C197.711 433.78 196.011 431.88 194.811 430.08C195.311 429.48 195.411 428.88 195.311 428.08C195.011 427.28 194.011 427.78 193.411 427.68C191.411 421.38 188.511 415.48 187.911 408.68C188.511 409.08 190.311 408.78 190.811 409.88C191.411 410.08 191.711 409.28 192.211 408.88C191.511 403.38 192.311 397.78 193.411 392.58C195.311 395.38 198.411 397.28 201.611 398.08C198.611 403.58 193.311 408.68 192.211 415.18C192.311 415.58 192.811 415.98 193.211 416.38C195.711 416.38 194.611 414.18 195.611 412.78C197.411 407.48 201.411 402.48 205.611 398.88C207.511 398.48 209.611 398.78 211.211 397.68C209.711 395.58 207.911 393.78 206.611 391.38C204.811 386.78 204.811 380.38 206.811 375.58C212.711 384.98 222.711 393.78 234.711 393.08C237.111 390.08 231.81 388.68 230.81 385.88C227.31 381.68 226.511 376.08 227.011 370.48C229.411 372.58 231.411 374.88 234.411 375.78C237.211 375.98 240.711 378.68 242.81 376.28C240.81 371.38 243.411 366.28 246.711 362.88C251.411 370.08 251.511 380.58 251.211 389.28z"
       id="path1107">
    </path>

  </g>
  <g
     id="g1108"
     style="fill: #000000">    <path
       d="M250.711 381.28C246.81 380.68 242.011 379.08 237.611 380.38L232.31 384.68C231.711 384.68 231.111 384.78 230.81 384.18L231.111 383.98C229.711 383.48 230.611 381.78 231.31 381.08C236.211 377.58 242.911 377.08 248.611 379.18C249.211 380.08 251.111 379.88 250.711 381.28z"
       id="path1109">
    </path>

  </g>
  <g
     id="g1110"
     style="fill: #000000">    <path
       d="M248.31 390.68C245.511 391.68 242.111 391.58 239.211 392.58L238.81 392.08C241.011 389.38 244.911 389.28 247.911 389.68C248.111 389.98 248.511 390.28 248.31 390.68z"
       id="path1111">
    </path>

  </g>
  <g
     id="g1112"
     style="fill: #ffffff">    <path
       d="M260.111 406.28C259.711 408.58 259.31 411.58 256.511 412.28C254.711 412.88 252.81 412.38 251.511 411.08C249.711 409.08 250.011 406.28 248.611 404.08C249.011 402.38 250.31 399.88 252.711 401.28C255.611 402.28 258.011 403.78 260.111 406.28z"
       id="path1113">
    </path>

  </g>
  <g
     id="g1114"
     style="fill: #000000">    <path
       d="M204.011 410.88C202.611 413.68 201.011 416.88 198.411 418.78C197.311 416.98 199.511 415.38 200.111 413.68L202.011 411.58C202.211 411.88 202.511 411.78 202.811 411.78C203.711 411.38 202.511 411.08 203.211 410.58C203.511 410.58 203.811 410.58 204.011 410.88z"
       id="path1115">
    </path>

  </g>
  <g
     id="g1116"
     style="fill: #ffffff">    <path
       d="M267.111 420.88C266.211 420.78 265.711 422.28 264.911 421.38C263.111 418.98 264.394 418.23 265.991 416.366C267.091 417.866 266.711 418.98 267.111 420.88z"
       id="path1117">
    </path>

  </g>
  <g
     id="g1118"
     style="fill: #ffffff">    <path
       d="M269.711 420.48L269.911 421.68L269.711 420.48z"
       id="path1119">
    </path>

  </g>
  <g
     id="g1120"
     style="fill: #ffffff">    <path
       d="M219.31 425.48C218.611 429.58 220.31 435.48 215.511 436.98C212.81 437.98 211.711 435.28 210.711 433.68C209.411 429.98 210.911 426.28 211.611 422.88C213.911 420.78 218.31 422.18 219.31 425.48z"
       id="path1121">
    </path>

  </g>
  <g
     id="g1122"
     style="fill: #ffffff">    <path
       d="M269.211 428.08C270.31 426.68 270.211 424.48 270.211 422.88L270.411 428.88L269.211 428.08z"
       id="path1123">
    </path>

  </g>
  <g
     id="g1124"
     style="fill: #ffffff">    <path
       d="M258.911 423.78C259.81 425.98 261.111 427.98 260.611 430.78C259.211 431.78 257.211 432.48 256.011 430.48C254.81 428.58 254.31 426.38 255.511 424.28C256.611 423.18 257.511 424.08 258.911 423.78z"
       id="path1125">
    </path>

  </g>
  <g
     id="g1126"
     style="fill: #9a0000">    <path
       d="M194.811 434.58C199.311 440.98 204.711 447.28 204.211 455.98C202.411 461.28 202.111 467.28 205.411 472.08C213.511 480.98 226.011 477.58 236.611 479.68C243.711 479.48 251.111 481.38 257.911 478.98C260.511 483.28 265.011 488.979 262.31 493.88C262.411 495.88 262.111 498.38 261.511 500.38C260.511 499.38 259.711 495.78 257.211 497.479C256.011 500.78 256.911 504.979 254.611 507.78C251.511 499.38 247.211 489.979 238.31 484.48C237.511 484.88 236.81 483.58 236.411 484.78C237.211 486.78 240.011 487.38 241.411 489.58C249.711 496.78 245.111 509.18 242.611 517.68C235.511 513.68 227.211 512.88 221.511 505.88C219.711 501.979 214.911 499.28 216.411 494.58C217.111 493.38 215.411 493.08 215.011 492.88C214.411 488.479 216.011 484.28 216.411 479.98C216.111 479.18 215.31 479.48 214.81 479.28C212.411 484.18 211.111 490.78 213.111 496.28C210.011 505.38 214.81 514.68 221.011 520.979L221.511 521.479C214.211 522.78 207.911 517.18 202.511 512.38C201.711 512.38 200.811 512.18 200.411 513.08C201.911 516.58 205.611 518.68 208.511 520.78C206.611 522.68 206.411 526.479 205.911 529.18C205.411 532.78 206.411 536.479 207.81 539.68C199.911 535.979 198.211 527.08 194.111 520.479C185.711 499.979 196.811 475.78 193.911 454.78C192.911 449.68 192.011 444.58 190.011 439.88C187.911 438.98 189.711 436.28 190.311 434.88C191.011 433.68 191.911 431.98 193.211 431.68L194.811 434.58z"
       id="path1127">
    </path>

  </g>
  <g
     id="g1128"
     style="fill: #ffffff">    <path
       d="M224.611 441.78C224.711 442.78 225.31 443.58 225.111 444.68C223.911 445.38 222.81 446.18 221.211 445.88C220.411 444.78 220.711 442.88 221.011 441.58C222.211 440.18 223.211 442.98 224.611 441.78z"
       id="path1129">
    </path>

  </g>
  <g
     id="g1130"
     style="fill: #000000">    <path
       d="M233.211 448.08C232.81 448.48 232.511 449.38 233.511 449.48C235.611 450.98 238.211 447.28 239.211 450.18C236.711 451.68 233.611 451.78 230.81 450.68C230.011 449.38 231.31 447.88 231.81 446.58C231.611 445.28 232.211 444.18 233.011 443.28C234.211 444.18 233.711 446.68 233.211 448.08z"
       id="path1131">
    </path>

  </g>
  <g
     id="g1132"
     style="fill: #ffffff">    <path
       d="M218.611 450.18L218.81 452.08C217.011 451.48 215.111 451.08 213.81 449.28C213.31 447.48 213.611 445.38 214.511 443.98C218.011 444.08 217.611 447.98 218.611 450.18z"
       id="path1133">
    </path>

  </g>
  <g
     id="g1134"
     style="fill: #000000">    <path
       d="M258.211 450.18C254.911 455.38 255.111 462.28 254.81 468.48C254.211 469.88 252.81 471.08 251.211 471.28C243.81 472.08 244.81 458.08 235.911 461.68C234.911 461.88 234.31 461.48 233.711 460.78L233.711 460.48C242.711 460.78 247.81 451.18 255.31 448.28C257.011 447.58 257.411 449.38 258.211 450.18z"
       id="path1135">
    </path>

  </g>
  <g
     id="g1136"
     style="fill: #ffffff">    <path
       d="M253.911 453.58C252.411 457.68 252.511 463.68 252.211 467.98C251.81 469.28 250.31 469.38 249.31 468.88C247.411 465.88 245.011 463.08 243.511 459.78L252.211 453.08C252.81 453.18 253.611 452.78 253.911 453.58z"
       id="path1137">
    </path>

  </g>
  <g
     id="g1138"
     style="fill: #ffd8e8">    <path
       d="M289.611 457.88C289.211 466.78 284.411 474.18 280.711 481.38L281.511 482.08L291.31 482.08C284.31 487.88 277.011 493.28 268.011 494.08L267.31 493.38C266.011 487.68 264.111 481.98 259.411 477.78C264.411 474.48 268.611 469.48 272.31 464.58C279.211 464.88 284.611 460.88 289.611 457.88z"
       id="path1139">
    </path>

  </g>
  <g
     id="g1140"
     style="fill: #4ea800">    <path
       d="M325.111 473.48C333.211 479.48 344.31 483.28 348.411 493.18C355.511 505.78 361.511 518.78 366.411 532.28C370.911 553.68 371.911 577.28 377.011 598.78C377.511 603.38 378.81 608.18 379.111 613.18C380.111 630.68 381.911 647.88 383.211 665.279C381.31 663.779 379.411 661.58 377.211 659.68C373.011 657.38 368.911 653.88 364.011 653.979C365.511 635.58 366.611 614.18 363.111 595.88C363.111 595.88 361.211 583.18 360.911 580.979C361.31 582.38 360.711 579.58 360.711 579.58C360.111 577.18 356.611 572.18 362.111 570.68C365.911 566.88 364.611 561.68 366.911 557.479C367.31 547.88 366.011 538.08 362.81 528.68C359.81 520.38 355.911 512.08 349.611 505.68L349.411 505.88C347.011 503.08 343.611 500.28 340.011 500.08C331.31 501.979 323.31 503.479 316.31 509.479C311.011 514.18 304.111 516.58 300.211 522.88C298.911 523.88 297.511 525.78 295.911 526.479C299.411 514.88 310.411 506.28 319.411 498.18C321.911 493.979 323.211 488.979 321.511 484.28C319.411 479.28 313.911 477.48 309.511 474.68C310.711 472.78 313.711 470.98 315.511 468.48C319.711 468.18 321.611 472.08 325.111 473.48z"
       id="path1141">
    </path>

  </g>
  <g
     id="g1142"
     style="fill: #73f009">    <path
       d="M315.511 479.98C319.511 482.68 320.31 487.98 319.411 491.979C317.111 502.479 306.211 503.28 301.911 512.58L301.111 512.58C294.411 518.58 295.111 528.479 287.711 534.18C286.011 531.18 288.911 526.18 285.511 523.88C284.211 525.979 285.111 528.979 284.81 531.58C283.611 531.78 282.81 529.38 281.711 530.88C282.611 532.68 284.711 534.18 286.011 535.68C274.111 544.68 262.011 553.38 249.111 559.88L236.411 567.78C234.81 557.78 234.711 548.88 232.81 538.979C231.81 531.18 238.31 525.18 237.31 517.88C239.31 518.88 241.511 520.479 241.611 522.88C242.31 523.979 243.81 523.68 244.711 523.38C245.911 521.58 244.511 518.88 245.911 516.88C247.211 512.68 248.411 507.38 248.611 502.979L249.31 502.08C251.611 505.58 251.31 510.18 253.911 513.58C254.711 513.38 255.81 513.38 256.011 512.38C256.411 508.78 259.011 506.08 259.411 502.479C260.511 503.78 262.011 505.18 263.511 503.479C263.211 500.88 265.911 499.38 264.911 496.479L265.611 496.479C265.31 501.08 265.411 506.38 264.711 511.18C265.211 511.88 266.31 512.68 266.81 511.38C267.011 506.28 267.511 501.979 267.31 496.979C269.611 495.88 272.411 496.08 274.711 495.08C282.211 491.68 289.711 487.88 295.611 481.38C300.111 480.48 303.911 477.98 307.911 475.88C310.81 476.18 312.511 479.88 315.511 479.98z"
       id="path1143">
    </path>

  </g>
  <g
     id="g1144"
     style="fill: #ffffff">    <path
       d="M223.411 511.38L218.81 514.28C217.211 510.28 214.611 506.58 215.011 501.78C217.81 504.979 220.511 508.479 223.411 511.38z"
       id="path1145">
    </path>

  </g>
  <g
     id="g1146"
     style="fill: #f5dbe8">    <path
       d="M349.911 508.979C360.511 526.08 370.011 548.68 360.711 568.979C354.81 575.08 345.011 571.78 338.111 569.979C337.111 568.88 335.711 568.38 334.31 568.28C337.111 566.68 339.911 565.38 343.411 565.38C343.711 564.88 344.711 564.58 344.31 563.68C343.31 560.979 341.31 563.18 339.511 562.979C337.81 564.38 324.31 569.08 323.011 570.18C312.111 575.38 302.211 581.38 290.81 585.28C275.81 594.58 257.911 598.68 242.81 607.88C234.911 611.38 226.611 617.779 216.711 616.279C214.111 617.38 211.611 620.18 210.011 621.779C207.211 622.479 203.611 622.38 200.411 622.779C195.211 625.38 190.211 627.08 185.011 629.68C177.011 632.279 168.111 634.08 160.511 638.38C144.411 643.88 129.011 651.279 112.511 656.08C107.011 657.779 102.011 660.38 96.911 663.08C90.856 674.999 76.811 691.18 70.511 702.68C69.711 704.779 66.811 718.58 66.911 719.18C65.911 717.479 66.311 714.08 63.611 714.18C65.611 709.18 67.511 703.58 67.411 698.38C66.911 696.58 71.611 694.88 67.911 693.779C64.011 696.979 65.511 702.279 63.811 706.279C60.611 712.279 60.611 718.779 62.811 725.18C62.111 726.779 62.411 729.08 60.711 729.08C61.011 730.479 60.211 731.979 59.211 732.88C57.611 730.88 58.511 727.279 57.611 724.779C58.311 724.08 59.111 723.88 60.011 724.479C59.911 725.979 59.911 727.58 60.911 728.38C60.211 726.68 62.611 723.68 59.711 722.779L58.311 722.779C58.411 718.279 54.811 713.38 58.511 709.18C60.511 704.58 60.311 699.08 62.411 694.479C61.511 692.479 61.511 689.979 59.211 688.779C58.211 689.68 59.511 691.88 60.011 693.279C57.911 700.279 56.611 707.779 53.711 714.18C56.711 719.479 54.911 725.68 56.611 731.479C55.511 730.479 55.811 726.779 53.711 725.479L50.411 725.479C49.211 720.68 48.711 715.08 48.911 710.38C51.411 703.88 54.411 697.68 57.311 691.38C56.111 689.979 55.911 687.88 54.211 686.88C53.111 687.68 54.211 688.779 54.211 689.68L54.711 690.18C52.711 697.58 48.511 703.979 46.511 711.279C48.811 715.58 45.411 719.08 44.411 722.779C43.811 721.279 43.711 718.38 41.511 718.279C43.011 710.38 45.911 703.08 48.211 695.479C52.911 687.08 58.311 679.08 63.811 670.979C75.811 654.68 93.211 644.479 109.211 634.279C109.211 634.279 137.011 617.88 141.111 616.279C162.711 602.28 186.311 592.979 211.911 588.68L213.611 586.479C224.511 575.68 238.81 571.18 250.711 561.78C268.711 552.88 285.711 540.979 300.911 525.78C304.211 523.08 308.211 521.979 311.711 519.78C311.911 519.18 311.511 518.68 311.011 518.58C309.211 518.68 307.611 519.18 306.211 520.08C315.111 513.28 324.81 504.979 336.411 502.979C341.911 500.58 345.911 505.68 349.911 508.979z"
       id="path1147">
    </path>

  </g>
  <g
     id="g1148"
     style="fill: #f5dbe8">    <path
       d="M236.111 517.68C234.81 521.78 233.31 526.38 231.611 530.58L230.611 538.78C228.711 536.08 227.111 533.28 226.511 530.08C225.911 529.68 225.611 528.78 224.81 528.88L224.411 529.38C225.011 533.479 227.011 536.979 228.711 540.68C227.211 539.88 225.911 537.08 224.111 538.479L224.411 539.479C227.011 540.88 228.31 544.08 231.31 544.78L232.511 554.08C216.81 563.78 202.811 580.68 188.811 591.28C162.611 597.78 140.811 614.88 116.611 626.08C105.811 632.88 94.511 640.779 84.211 647.479L84.411 647.479L84.411 648.479L84.211 648.479C84.411 647.88 83.811 647.58 83.511 647.479C81.611 647.58 79.911 648.18 78.011 647.979C78.311 646.08 78.611 644.479 77.211 642.88C76.411 642.479 75.911 643.58 75.811 644.08C75.711 647.68 75.311 651.779 73.411 654.88L73.911 655.38C69.011 659.58 58.311 674.08 58.311 674.08C54.611 680.779 45.899 691.307 42.011 707.68C42.011 707.779 40.811 711.58 40.811 711.58C40.811 711.58 39.611 715.279 38.811 716.38C37.611 716.479 37.211 714.88 36.011 715.18C35.811 700.979 47.411 690.58 47.211 676.779C46.811 676.38 46.311 675.68 45.811 676.279C44.711 679.08 45.011 681.58 44.111 684.479C42.111 688.979 39.031 695.134 37.332 699.834C37.731 691.233 45.211 681.18 41.211 673.18C40.611 672.58 39.811 673.08 39.311 673.68C41.511 683.58 34.611 691.58 35.011 701.68C34.211 703.779 35.411 705.58 34.811 707.979C34.011 707.58 32.206 709.867 31.36 709.692C30.661 707.092 33.111 701.479 28.811 700.979C30.211 686.18 37.511 673.58 42.911 660.68C47.011 654.18 50.611 647.88 56.111 642.479C56.411 641.08 58.511 640.279 59.511 638.88C71.211 626.279 87.444 623.343 100.344 611.043C102.665 609.356 104.811 607.479 107.011 606.68C119.811 596.979 132.611 586.68 146.811 579.58C155.411 574.18 165.311 571.68 172.311 562.979C182.011 552.979 188.911 543.78 199.211 535.88C202.111 540.479 206.311 542.38 210.711 544.479C211.511 544.479 212.31 544.38 212.81 543.58C211.011 538.38 207.411 533.18 208.511 527.68L210.411 522.18C214.411 524.18 220.511 525.479 225.611 523.88C226.111 523.08 226.711 521.88 225.31 521.28L220.511 517.18C220.111 514.88 223.411 513.979 224.81 512.38C228.511 514.28 232.111 516.479 236.111 517.68z"
       id="path1149">
    </path>

  </g>
  <g
     id="g1150"
     style="fill: #ffffff">    <path
       d="M232.81 556.479C233.411 560.68 233.611 564.979 233.511 569.479C225.211 574.479 216.411 579.28 209.511 586.479C204.611 587.78 199.511 588.38 194.611 589.68C207.911 579.58 218.31 564.88 232.81 556.479z"
       id="path1151">
    </path>

  </g>
  <g
     id="g1152"
     style="fill: #5eb200">    <path
       d="M344.611 573.78C345.011 574.28 353.611 574.78 356.611 574.479C359.911 584.58 361.011 597.38 362.111 608.38C353.911 608.58 346.211 612.58 340.711 619.18C331.011 627.58 326.31 639.479 326.81 652.08C327.111 652.779 327.31 653.58 327.31 654.18C328.31 655.779 327.011 659.38 329.011 660.88L328.711 660.88C329.31 662.58 329.411 664.979 330.711 666.68C328.011 668.58 324.011 668.479 320.81 669.779C319.211 664.979 320.81 658.58 321.31 653.279C322.411 644.979 325.511 637.58 328.711 630.18C336.31 616.38 349.411 600.979 340.711 584.38C336.611 579.58 329.81 575.68 323.511 573.08C328.011 571.68 332.211 566.88 336.911 571.18C339.211 572.479 344.611 573.78 344.611 573.78z"
       id="path1153">
    </path>

  </g>
  <g
     id="g1154"
     style="fill: #73f009">    <path
       d="M336.411 582.479C341.111 587.08 341.511 593.88 340.711 600.479C336.31 617.88 321.81 630.979 319.111 649.18C317.911 656.08 316.81 662.68 317.911 670.08C315.611 672.18 311.711 671.779 308.81 673.18C304.711 673.68 299.411 671.979 295.611 674.58C290.011 669.779 283.411 667.08 277.611 662.58C275.211 655.279 275.511 646.779 274.511 638.88C276.111 638.979 277.611 639.279 278.81 638.08C276.911 636.08 273.511 636.38 270.911 635.479C269.611 633.279 269.411 630.68 269.211 628.08C276.211 629.88 283.211 628.979 290.111 625.88C292.011 626.58 294.411 628.68 296.111 626.88C295.31 625.38 293.411 625.08 292.31 624.479C294.011 622.38 296.711 621.68 297.81 619.18C296.211 616.479 293.81 619.88 292.011 620.88C286.81 625.88 279.211 626.88 272.111 625.88C261.511 624.08 249.511 621.38 244.511 610.479C259.31 600.38 277.111 596.78 292.511 587.68C302.211 584.479 311.011 579.08 320.111 574.479C326.611 575.18 331.31 579.18 336.411 582.479z"
       id="path1155">
    </path>

  </g>
  <g
     id="g1156"
     style="fill: #000000">    <path
       d="M160.811 592.979C161.111 593.479 161.911 593.78 161.711 594.479C160.711 595.18 158.911 595.18 157.911 594.479C155.411 593.18 156.711 590.18 156.411 588.18L157.411 585.58C160.711 586.979 155.711 593.58 160.811 592.979z"
       id="path1157">
    </path>

  </g>
  <g
     id="g1158"
     style="fill: #73f009">    <path
       d="M362.31 611.279C363.31 623.279 363.911 639.979 360.911 652.779C351.911 658.58 342.31 662.88 332.31 666.479C329.511 658.779 327.711 648.88 330.211 640.779C330.81 634.68 337.883 623.519 342.711 619.68C345.929 617.121 348.31 614.58 352.011 612.88C355.111 612.68 358.611 610.38 362.31 611.279z"
       id="path1159">
    </path>

  </g>
  <g
     id="g1160"
     style="fill: #ffffff">    <path
       d="M266.81 627.08C267.81 631.08 266.211 636.779 271.911 638.08C273.111 645.58 273.31 652.479 274.511 659.979C261.511 652.38 247.911 643.38 233.511 636.18C226.411 631.38 219.111 627.479 211.211 623.979L217.211 619.18C226.711 620.279 234.31 615.08 242.111 611.279C246.411 620.88 257.011 625.58 266.81 627.08z"
       id="path1161">
    </path>

  </g>
  <g
     id="g1162"
     style="fill: #f5dbe8">    <path
       d="M208.31 625.18C214.711 628.88 221.81 631.08 228.011 635.479L228.411 634.979C228.511 635.18 228.31 635.279 228.211 635.479C242.711 645.08 258.511 651.779 272.81 661.88C284.81 670.479 297.911 678.08 308.81 687.779C313.31 695.779 315.611 704.58 317.911 713.479C321.211 730.479 318.911 746.18 318.911 763.58C318.211 775.88 313.511 786.38 305.511 795.779C299.81 790.18 295.411 783.98 290.81 777.279C278.011 752.38 269.411 725.68 252.411 702.38C248.911 696.779 244.511 689.88 238.31 686.38C238.111 685.779 237.711 685.08 237.111 684.88L235.611 685.18C235.711 684.779 235.31 684.68 235.211 684.479L234.911 684.68C228.911 681.68 224.411 676.88 218.111 674.58C216.911 672.08 214.911 669.38 212.81 667.68C211.81 668.58 212.611 669.88 213.111 670.779L215.211 673.38L208.81 671.68C208.111 672.279 207.611 672.979 207.81 673.88C216.911 676.38 225.31 680.479 232.81 686.88C223.111 701.68 206.811 707.18 191.211 710.08C188.711 705.88 183.711 701.979 180.911 697.88C172.011 689.279 168.111 678.18 164.411 667.18C163.211 660.38 162.111 652.279 165.311 645.779L169.911 637.38C180.011 633.779 190.211 630.279 200.111 626.08C202.711 625.38 205.511 625.479 208.31 625.18z"
       id="path1163">
    </path>

  </g>
  <g
     id="g1164"
     style="fill: #f5dbe8">    <path
       d="M166.011 638.38C154.911 655.779 162.611 674.88 171.811 690.68C165.111 696.58 155.811 697.479 148.011 701.18C147.011 701.08 138.911 702.779 136.011 700.779L132.211 695.479C126.511 685.279 120.311 672.979 122.411 659.68C123.311 653.979 127.611 653.979 132.011 652.08C142.411 648.08 153.311 643.68 163.911 639.58C164.611 638.779 165.011 638.38 166.011 638.38z"
       id="path1165">
    </path>

  </g>
  <g
     id="g1166"
     style="fill: #ffffff">    <path
       d="M77.011 652.979L77.511 650.08L80.111 650.38L77.011 652.979z"
       id="path1167">
    </path>

  </g>
  <g
     id="g1168"
     style="fill: #f5dbe8">    <path
       d="M367.411 656.58C373.011 659.279 379.111 663.18 381.511 669.279C383.612 673.475 383.013 679.966 384.213 680.766C368.113 683.966 355.011 694.779 337.411 694.279C336.511 696.779 334.711 693.58 333.81 693.979C331.81 692.479 329.211 691.38 327.111 689.68C321.211 687.18 315.611 684.08 309.111 683.279L307.911 684.479C304.611 681.68 300.911 678.279 297.511 675.779C302.411 675.38 307.31 675.68 312.211 674.58C317.411 674.38 322.011 671.279 327.31 670.779C339.011 666.779 351.011 662.779 361.611 655.68C363.711 656.279 365.211 656.279 367.411 656.58z"
       id="path1169">
    </path>

  </g>
  <g
     id="g1170"
     style="fill: #650000">    <path
       d="M391.111 683.279C389.211 701.479 397.711 719.58 394.011 737.979C390.81 758.18 382.911 779.279 362.81 789.58C353.31 795.38 342.611 798.68 332.111 802.279C325.711 802.779 320.911 805.18 314.111 804.68C311.81 802.38 309.411 799.779 307.111 797.98C322.44 782.745 322.011 755.48 322.011 755.48C321.711 739.18 323.711 717.08 316.511 701.18C315.511 695.479 312.011 689.68 310.011 685.38C312.211 685.779 314.511 686.779 316.511 687.08C323.111 690.08 330.111 693.38 336.211 698.08C341.011 700.88 344.111 705.88 348.411 709.58L348.711 709.38C349.111 711.779 352.411 714.08 354.211 716.779C354.411 717.18 354.411 717.68 354.911 717.979C355.511 717.979 356.011 717.779 356.31 717.279C353.81 711.18 347.611 706.479 343.411 701.18L338.31 696.88C355.81 696.779 369.211 685.38 385.911 682.779L391.111 683.279z"
       id="path1171">
    </path>

  </g>
  <g
     id="g1172"
     style="fill: #ae008d">    <path
       d="M261.111 719.18C263.411 724.58 266.211 729.779 268.711 735.08C278.711 754.48 283.411 776.08 299.511 792.88C306.211 801.98 321.111 809.98 317.911 822.88C306.31 824.58 298.011 836.279 292.31 845.68C287.111 856.08 283.011 866.68 274.011 874.98C264.218 879.801 248.711 877.48 246.711 877.38C241.411 877.779 233.611 877.08 228.211 874.279C225.111 872.18 220.711 873.48 217.911 870.88C218.81 865.88 220.211 860.38 225.31 857.68C234.911 854.279 243.81 848.68 248.81 839.68C254.911 833.779 258.81 823.779 256.711 814.779C256.111 814.08 255.911 812.88 254.81 812.779C253.211 815.38 255.511 818.68 254.111 821.48C253.911 830.779 247.81 837.68 242.31 844.779C234.31 854.279 218.011 853.08 215.711 867.58L202.311 867.279C198.811 866.279 194.511 865.779 192.411 862.279C193.911 858.68 193.911 853.48 198.911 853.18C205.211 852.18 211.111 851.88 215.511 846.88L215.211 846.68C215.511 847.279 216.511 846.38 216.911 845.68L216.711 845.48C217.711 846.88 218.511 843.88 219.81 843.279C222.81 835.18 222.81 823.68 224.411 815.18C223.411 813.38 224.81 810.08 223.611 807.779C223.711 803.58 223.211 799.08 221.011 795.58C219.611 794.38 216.31 794.779 216.911 791.98C217.211 788.18 217.911 781.98 213.611 779.68C209.911 778.279 205.211 780.98 203.011 776.38C202.211 769.68 195.711 764.98 191.711 760.279L191.511 760.48C184.911 748.38 172.511 739.08 162.911 729.279C164.311 728.08 166.311 726.88 166.811 724.779L166.011 723.979C163.111 727.479 158.311 727.779 154.311 727.18C152.211 725.08 151.811 721.779 149.511 720.18C145.811 714.88 137.611 710.779 134.411 704.08C141.913 704.996 150.411 701.979 150.411 701.979C151.911 701.979 169.811 695.279 173.511 693.08C177.211 697.58 181.111 701.88 184.311 706.279C180.211 713.279 189.911 716.68 192.711 721.88C210.511 744.38 231.611 765.98 244.011 790.98L245.911 793.58C245.611 795.48 244.511 797.98 246.211 799.58C247.31 800.98 248.911 802.08 250.511 802.48C248.911 804.779 250.511 807.48 251.011 809.68C253.911 813.08 257.611 812.88 260.81 815.48C261.511 815.18 262.31 815.08 262.511 814.279C259.81 810.08 251.211 811.38 252.711 804.18C255.211 803.279 259.111 807.18 260.111 803.98C256.31 800.68 249.011 802.18 247.911 795.98L249.31 793.88C238.411 776.279 228.31 759.68 214.81 744.38C205.911 733.979 198.811 723.779 188.611 713.68C205.711 710.18 225.011 704.58 234.411 688.08C235.111 687.88 235.511 687.479 235.611 686.88C248.111 694.08 252.31 708.58 261.111 719.18z"
       id="path1173">
    </path>

  </g>
  <g
     id="g1174"
     style="fill: #000000">    <path
       d="M362.31 704.779C365.411 704.08 369.411 704.08 372.411 704.779C372.711 706.58 371.111 705.38 370.31 705.979C368.411 706.18 367.211 705.68 365.711 706.479C368.011 708.38 371.011 710.38 372.211 712.979C370.511 713.479 370.011 711.38 368.31 711.08L365.511 708.18C359.31 705.479 353.911 700.979 347.011 699.979C346.611 699.38 346.611 699.18 347.011 698.58C352.611 699.38 357.511 701.979 362.31 704.779z"
       id="path1175">
    </path>

  </g>
  <g
     id="g1176"
     style="fill: #b00000">    <path
       d="M30.011 710.779C28.7 711.82 27.36 712.372 26.36 712.672C26.253 708.416 26.55 705.536 28.275 702.246C31.975 702.846 29.511 708.38 30.011 710.779z"
       id="path1177">
    </path>

  </g>
  <g
     id="g1178"
     style="fill: #230005">    <path
       d="M188.411 710.58C187.811 710.779 186.911 711.279 186.011 711.08C185.611 710.18 185.611 708.979 186.211 708.18L188.411 710.58z"
       id="path1179">
    </path>

  </g>
  <g
     id="g1180"
     style="fill: #b00000">    <path
       d="M65.711 719.18C66.711 721.08 65.911 722.88 66.011 724.779C64.111 725.18 63.411 722.18 63.111 720.38C62.411 718.88 62.111 717.08 63.311 715.58C65.211 715.58 65.111 717.979 65.711 719.18z"
       id="path1181">
    </path>

  </g>
  <g
     id="g1182"
     style="fill: #b00000; stroke:#000000; stroke-width:">    <path
       d="M61.016 727.409C61.87 729.615 60.566 731.328 60.331 733.339C57.958 733.348 57.674 730.056 57.647 728.103C57.082 726.382 57.056 724.433 58.788 723.12C61.086 723.53 60.515 726.023 61.016 727.409z"
       id="path1183">
    </path>

  </g>
  <g
     id="g1184"
     style="fill: #b00000">    <path
       d="M37.911 719.68C37.311 721.18 36.011 722.779 34.811 723.58C31.998 725.438 34.009 717.889 35.509 716.289C36.409 717.188 37.318 716.715 37.911 719.68z"
       id="path1185">
    </path>

  </g>
  <g
     id="g1186"
     style="fill: #b00000">    <path
       d="M42.911 721.88C44.411 724.979 41.511 726.279 39.811 728.38L38.811 728.38C38.411 725.779 39.211 723.08 39.811 720.68C40.711 719.18 42.611 720.38 42.911 721.88z"
       id="path1187">
    </path>

  </g>
  <g
     id="g1188"
     style="fill: #b00000">    <path
       d="M55.211 731.479C55.611 733.779 54.611 735.479 53.211 736.979C51.011 734.779 51.611 730.88 50.811 727.88C51.211 727.279 51.311 726.779 52.011 726.68C54.511 726.779 54.111 729.88 55.211 731.479z"
       id="path1189">
    </path>

  </g>
  <g
     id="g1190"
     style="fill: #000000">    <path
       d="M360.211 732.68C361.411 734.979 362.31 738.779 365.711 738.68C368.211 738.38 370.81 736.58 371.511 734.08C371.31 733.38 371.711 732.979 371.911 732.38C372.511 732.479 372.81 733.08 373.111 733.38C372.111 735.88 370.81 738.18 368.111 739.38C366.411 739.479 364.81 740.38 363.511 738.68L363.31 738.88C359.711 735.979 358.511 730.779 359.511 726.68C360.411 728.08 359.611 730.779 360.211 732.68z"
       id="path1191">
    </path>

  </g>
  <g
     id="g1192"
     style="fill: #000000">    <path
       d="M212.81 761.18C213.011 763.68 212.111 767.98 215.011 769.18C217.111 769.48 220.611 768.38 222.211 770.08C218.711 770.779 214.111 771.88 211.411 768.68C210.411 765.779 211.31 762.08 210.711 759.08C212.111 758.279 212.411 760.279 212.81 761.18z"
       id="path1193">
    </path>

  </g>
  <g
     id="g1194"
     style="fill: #000000">    <path
       d="M256.711 795.08C255.611 797.18 253.211 795.279 251.711 794.779L251.511 794.58C252.511 791.98 255.211 794.48 256.711 795.08z"
       id="path1195">
    </path>

  </g>
  <g
     id="g1196"
     style="fill: #368eab">    <path
       d="M316.711 825.98C315.211 840.68 311.011 854.38 310.711 869.18C310.011 877.68 309.31 885.58 308.611 893.68L305.011 895.58C304.711 887.68 304.611 877.08 304.711 869.68C305.711 861.779 305.31 845.08 305.511 844.98C307.411 839.38 302.911 829.68 311.911 827.48C313.511 826.88 314.81 825.68 316.711 825.98z"
       id="path1197">
    </path>

  </g>
  <g
     id="g1198"
     style="fill: #1c3a8b">    <path
       d="M302.111 894.88C299.111 892.779 299.81 888.38 299.711 885.08C300.911 870.779 299.611 854.58 299.011 840.38C300.211 838.279 301.611 836.779 303.511 834.88C302.711 854.88 302.211 873.58 302.111 894.88z"
       id="path1199">
    </path>

  </g>
  <g
     id="g1200"
     style="fill: #368eab">    <path
       d="M282.911 873.58C282.31 879.779 281.611 896.279 280.511 898.279C268.011 900.98 255.711 896.48 243.31 896.58C235.211 895.88 228.31 894.38 220.81 892.279C216.611 890.48 216.111 887.08 216.211 882.88C216.31 879.68 216.81 876.68 217.611 873.779C219.511 873.98 222.011 874.88 224.411 875.18C225.711 877.38 228.511 875.98 230.111 877.38C237.711 881.58 247.211 878.18 255.111 880.279C261.31 880.68 266.711 880.779 272.31 878.38L274.31 878.38C278.81 874.48 282.011 869.48 285.31 865.18C284.611 867.98 284.011 871.18 282.911 873.58z"
       id="path1201">
    </path>

  </g>
  <g
     id="g1202"
     style="fill: #368eab">    <path
       d="M215.211 870.38C214.411 871.779 215.411 873.88 214.81 875.48C213.31 880.48 213.31 884.58 214.81 889.58L214.31 890.08C206.211 890.38 200.011 886.279 193.611 882.38C190.511 878.279 190.811 871.18 192.911 866.38C199.911 870.18 208.111 869.779 215.211 870.38z"
       id="path1203">
    </path>

  </g>
  <g
     id="g1204"
     style="fill: #d80d03">    <path
       d="M316.553 467.137C319.753 462.336 322.453 457.336 323.753 451.737C323.453 451.137 322.853 450.237 322.152 450.336C320.553 456.237 317.953 461.836 314.152 466.836C306.353 476.237 295.953 482.737 283.453 480.537C289.152 471.637 292.353 461.237 292.553 449.836C292.253 449.237 291.652 448.437 290.953 448.437C289.953 450.237 290.753 453.137 290.152 454.836C285.053 458.237 280.353 463.137 273.853 462.537C279.152 454.537 282.753 446.737 283.753 436.836C284.053 432.137 284.453 424.937 281.553 420.336C281.053 420.336 280.453 420.237 280.152 420.836C281.652 425.336 282.152 430.537 281.553 435.637C278.953 438.737 275.753 442.437 271.253 441.937C261.353 441.137 273.652 436.437 272.453 432.336C272.753 418.737 270.652 406.437 265.953 394.637C263.053 381.937 257.953 367.336 264.753 355.037L264.053 354.537C260.953 357.336 260.152 361.437 259.453 365.336C261.853 372.737 255.753 377.137 253.953 383.137L253.753 382.836C253.453 374.437 251.152 366.037 246.553 359.336L245.553 360.037C243.652 364.137 239.753 367.937 239.553 373.037C239.652 373.836 240.453 375.037 239.553 375.637C235.753 374.237 231.152 374.137 228.753 369.937C225.853 366.937 230.453 364.737 231.652 362.237C232.053 360.937 233.853 360.937 234.053 359.637C233.753 359.137 233.253 359.137 232.853 358.836C229.353 361.437 226.953 365.237 225.152 368.937C222.953 377.737 227.253 385.537 232.652 391.237C225.553 391.237 220.253 386.937 214.853 382.836C207.152 376.237 205.353 366.237 207.853 356.737C207.953 355.237 210.753 353.637 208.652 352.437L206.953 353.836C205.753 357.137 204.253 360.836 204.553 364.137C204.253 367.836 207.152 371.637 204.753 374.737C201.353 381.537 202.453 391.237 207.652 396.836C202.753 398.037 197.753 396.137 194.652 392.037C192.652 390.237 195.652 388.237 194.453 386.437C193.253 386.137 193.453 387.537 192.553 387.937C191.553 386.937 191.652 385.336 191.353 384.037C190.652 381.737 192.853 378.836 191.053 377.637C188.652 381.737 190.553 387.037 191.553 391.237C189.753 396.137 190.152 401.836 189.453 407.137C185.253 402.336 182.652 396.537 180.753 390.537C175.053 371.637 174.152 344.037 192.053 329.336C197.635 323.266 206.656 328.983 213.319 329.693C212.965 329.909 212.611 330.129 212.253 330.336C208.353 331.937 203.353 330.537 200.253 333.437C200.253 333.737 200.152 334.037 200.453 334.137C201.353 334.836 202.853 334.137 203.853 333.437C212.753 334.537 218.553 328.537 225.453 323.836C226.853 323.537 228.453 323.437 229.453 322.137C237.853 320.137 246.253 316.737 254.453 320.937C263.753 327.737 273.853 335.037 284.152 341.137C286.953 343.737 290.553 342.137 293.053 345.237C302.152 348.437 311.652 354.737 316.853 363.437C330.152 380.137 332.453 403.537 326.453 424.437C326.152 425.737 327.353 427.037 326.453 428.037C326.553 437.437 326.753 445.937 329.053 454.437C332.152 458.737 335.152 463.737 340.853 464.437C343.853 464.137 346.953 463.336 349.453 462.537C346.253 468.137 342.453 476.737 335.053 477.437C328.453 474.537 323.652 469.037 316.553 467.137z"
       id="path1205">
    </path>

  </g>
  <g
     id="g1206"
     style="fill: #000000">    <path
       d="M289.411 381.08C289.511 382.08 288.411 382.08 287.911 382.48C286.411 384.98 284.211 387.18 283.411 389.98C291.911 390.58 290.411 400.48 293.911 405.78C295.81 407.98 296.011 410.58 295.111 413.28C294.711 414.38 293.31 415.78 292.31 416.08C301.011 424.18 314.111 424.58 320.611 435.08C320.911 435.68 320.111 435.88 319.911 436.28L318.411 436.08C308.911 422.98 290.511 423.88 283.411 408.18C280.211 401.18 278.411 392.38 280.31 384.48C281.511 384.28 280.911 385.78 281.511 386.38C281.211 386.98 281.111 387.88 281.511 388.48C283.411 385.78 285.411 381.88 288.711 380.38L289.411 381.08z"
       id="path1207">
    </path>

  </g>
  <g
     id="g1208"
     style="fill: #f5dbe8">    <path
       d="M287.711 395.48C289.81 399.88 290.111 405.08 293.011 409.18C293.81 410.78 292.511 412.08 292.31 413.48C291.81 414.48 290.011 414.78 289.611 413.28C284.611 407.98 282.711 401.08 281.911 394.28C282.31 393.58 283.011 392.88 283.911 392.38C286.211 391.78 286.81 393.98 287.711 395.48z"
       id="path1209">
    </path>

  </g>
  <g
     id="g1210"
     style="fill: #000000">    <path
       d="M302.31 402.48C302.211 404.38 301.81 406.18 300.711 407.68C300.511 403.28 301.111 399.68 299.211 395.68C299.211 395.18 299.81 395.28 300.211 395.28C302.211 397.08 302.011 399.88 302.31 402.48z"
       id="path1211">
    </path>

  </g>
  <g
     id="g1212"
     style="fill: #9a0000">    <path
       d="M186.354 437.957C185.154 439.257 185.755 441.157 184.954 442.557C180.654 439.357 178.954 435.057 176.755 431.057C175.255 429.757 176.154 425.157 173.154 426.757C173.454 430.857 176.454 434.157 177.755 437.557C177.354 437.957 176.654 437.557 176.255 437.957L170.554 446.357C169.454 448.357 169.954 450.957 168.854 452.857C164.755 445.657 160.954 437.757 161.854 429.157C160.054 427.457 162.554 424.857 160.654 423.157C159.954 423.057 159.255 423.157 158.755 423.857C158.454 425.857 159.255 428.357 159.054 430.357C157.554 431.757 157.854 433.957 156.854 435.557C154.554 429.357 155.954 421.757 156.654 415.157C159.354 398.057 163.22 380.067 174.619 366.768C174.646 366.741 174.665 366.714 174.69 366.687C175.187 381.46 178.235 395.804 186.854 407.557C185.654 408.857 186.054 410.757 185.654 412.357C186.255 418.557 189.054 423.857 190.654 429.557C188.755 432.157 186.755 434.757 186.354 437.957z"
       id="path1213">
    </path>

  </g>
  <g
     id="g1214"
     style="fill: #000000">    <path
       d="M368.449 579.606C368.449 580.824 367.458 581.815 366.238 581.815C365.021 581.815 364.028 580.824 364.028 579.606C364.028 578.387 365.021 577.395 366.238 577.395C367.458 577.395 368.449 578.387 368.449 579.606z"
       id="path1215">
    </path>

  </g>
  <g
     id="g1216"
     style="fill: #000000">    <path
       d="M366.238 576.66C364.614 576.66 363.294 577.981 363.294 579.606C363.294 581.229 364.614 582.55 366.238 582.55C367.863 582.55 369.185 581.229 369.185 579.606C369.185 577.981 367.863 576.66 366.238 576.66z"
       id="path1217">
    </path>

  </g>
  <g
     id="g1218"
     style="fill: #000000">    <path
       d="M369.621 588.51C369.621 589.728 368.63 590.72 367.41 590.72C366.191 590.72 365.2 589.728 365.2 588.51C365.2 587.291 366.191 586.299 367.41 586.299C368.63 586.299 369.621 587.291 369.621 588.51z"
       id="path1219">
    </path>

  </g>
  <g
     id="g1220"
     style="fill: #000000">    <path
       d="M367.41 585.564C365.787 585.564 364.466 586.886 364.466 588.51C364.466 590.133 365.787 591.454 367.41 591.454C369.034 591.454 370.356 590.133 370.356 588.51C370.356 586.886 369.034 585.564 367.41 585.564z"
       id="path1221">
    </path>

  </g>
  <g
     id="g1222"
     style="fill: #000000">    <path
       d="M370.793 596.71C370.793 597.929 369.802 598.92 368.582 598.92C367.363 598.92 366.372 597.929 366.372 596.71C366.372 595.49 367.363 594.499 368.582 594.499C369.802 594.499 370.793 595.49 370.793 596.71z"
       id="path1223">
    </path>

  </g>
  <g
     id="g1224"
     style="fill: #000000">    <path
       d="M368.582 593.765C366.958 593.765 365.638 595.085 365.638 596.71C365.638 598.333 366.958 599.655 368.582 599.655C370.206 599.655 371.527 598.333 371.527 596.71C371.527 595.085 370.206 593.765 368.582 593.765z"
       id="path1225">
    </path>

  </g>
  <g
     id="g1226"
     style="fill: #000000">    <path
       d="M371.729 604.677C371.729 605.896 370.738 606.887 369.519 606.887C368.301 606.887 367.309 605.896 367.309 604.677C367.309 603.458 368.301 602.466 369.519 602.466C370.738 602.466 371.729 603.458 371.729 604.677z"
       id="path1227">
    </path>

  </g>
  <g
     id="g1228"
     style="fill: #000000">    <path
       d="M369.519 601.731C367.896 601.731 366.573 603.053 366.573 604.677C366.573 606.3 367.896 607.621 369.519 607.621C371.144 607.621 372.464 606.3 372.464 604.677C372.464 603.053 371.144 601.731 369.519 601.731z"
       id="path1229">
    </path>

  </g>
  <g
     id="g1230"
     style="fill: #000000">    <path
       d="M372.433 612.878C372.433 614.097 371.441 615.088 370.223 615.088C369.004 615.088 368.012 614.097 368.012 612.878C368.012 611.659 369.004 610.667 370.223 610.667C371.441 610.667 372.433 611.659 372.433 612.878z"
       id="path1231">
    </path>

  </g>
  <g
     id="g1232"
     style="fill: #000000">    <path
       d="M370.223 609.932C368.599 609.932 367.276 611.254 367.276 612.878C367.276 614.502 368.599 615.822 370.223 615.822C371.847 615.822 373.167 614.502 373.167 612.878C373.167 611.254 371.847 609.932 370.223 609.932z"
       id="path1233">
    </path>

  </g>
  <g
     id="g1234"
     style="fill: #000000">    <path
       d="M372.667 621.547C372.667 622.766 371.675 623.757 370.457 623.757C369.237 623.757 368.246 622.766 368.246 621.547C368.246 620.328 369.237 619.336 370.457 619.336C371.675 619.336 372.667 620.328 372.667 621.547z"
       id="path1235">
    </path>

  </g>
  <g
     id="g1236"
     style="fill: #000000">    <path
       d="M370.457 618.602C368.831 618.602 367.511 619.923 367.511 621.547C367.511 623.171 368.831 624.491 370.457 624.491C372.081 624.491 373.401 623.171 373.401 621.547C373.401 619.923 372.081 618.602 370.457 618.602z"
       id="path1237">
    </path>

  </g>
  <g
     id="g1238"
     style="fill: #000000">    <path
       d="M372.667 629.748C372.667 630.967 371.675 631.958 370.457 631.958C369.237 631.958 368.246 630.967 368.246 629.748C368.246 628.529 369.237 627.538 370.457 627.538C371.675 627.538 372.667 628.529 372.667 629.748z"
       id="path1239">
    </path>

  </g>
  <g
     id="g1240"
     style="fill: #000000">    <path
       d="M370.457 626.804C368.831 626.804 367.511 628.124 367.511 629.748C367.511 631.372 368.831 632.692 370.457 632.692C372.081 632.692 373.401 631.372 373.401 629.748C373.401 628.124 372.081 626.804 370.457 626.804z"
       id="path1241">
    </path>

  </g>
  <g
     id="g1242"
     style="fill: #d80d03; stroke:#000000; stroke-width:">    <path
       d="M244.957 462.962C244.957 462.962 244.425 460.299 248.685 459.767C250.534 459.535 251.081 455.773 254.01 456.305C255.32 456.543 253.211 465.092 253.211 466.157C253.211 467.222 251.785 469.292 250.548 469.086C249.31 468.88 244.691 464.826 244.957 462.962z"
       id="path1243">
    </path>

  </g>

</svg>
