<?xml version="1.0" standalone="no"?>
<!DOCTYPE svg PUBLIC "-//W3C//DTD SVG August 1999//EN"
"http://www.w3.org/Graphics/SVG/SVG-19990812.dtd">
<svg
   xmlns:sodipodi="http://sodipodi.sourceforge.net/DTD/sodipodi-0.dtd"
   xmlns="http://www.w3.org/Graphics/SVG/SVG-19991203.dtd"
   id="svg4115"
   sodipodi:docbase="/home/lauris/tmp/manga/"
   sodipodi:docname="/home/lauris/tmp/manga/mangatips10.svg">  <sodipodi:namedview
     id="base">
  </sodipodi:namedview>
  <g
     id="g4500"
     style="fill: #000000">    <path
       d="M216.891 339.92C218.384 340.741 220.251 340.517 221.893 340.815C231.378 343.428 240.713 350.971 244.519 360.379C248.03 371.804 249.15 385.17 246.984 397.416C246.088 414.814 251.838 430.347 257.438 445.504C260.798 455.51 262.067 468.876 256.318 478.285C262.143 481.645 267.817 486.873 268.713 493.668C270.357 502.629 271.476 511.514 271.177 520.773L269.087 534.888C269.161 543.921 269.684 550.493 269.235 559.303L268.863 559.827C270.281 563.709 272.67 567.144 272.969 571.476C272.67 573.566 270.804 575.731 271.774 577.748C272 582.154 273.418 586.484 275.135 590.442C282.304 589.995 289.545 588.799 295.969 585.961C298.583 584.692 301.046 582.975 304.033 582.378C303.136 580.436 305.975 577.598 302.914 576.478C302.316 574.313 302.39 572.223 304.182 570.58C304.406 562.963 303.865 552.079 302.147 545.058C301.562 537.173 305.058 543.148 303.692 537.462C300.54 518.089 292.524 467.902 288.953 465.734C287.907 460.133 285.893 454.981 285.144 449.231C284.397 448.633 279.397 450.105 276.759 450.218C271.203 450.454 266.805 449.923 261.876 449.699C261.056 449.102 260.769 444.563 261.16 441.443C263.177 433.528 272.325 427.02 280.017 422.914C277.775 412.46 275.158 392.426 272.021 382.271C272.319 380.18 275.009 378.91 276.652 377.791C278.146 377.342 279.862 377.715 280.608 379.061C281.953 389.513 286.886 410.219 287.932 420.749C291.443 421.644 298.987 420.189 304.253 422.921C308.097 424.914 310.09 425.444 313.415 429.745C314.586 431.888 316.705 436.031 316.405 437.076C310.435 440.809 297.986 446.095 291.268 447.812C291.417 453.114 292.984 458.341 293.434 463.793C292.984 464.614 306.417 537.468 306.268 538.364C309.927 538.513 311.676 546.862 312.062 549.824C312.757 554.558 313.218 558.184 315.979 561.396C317.175 564.232 318.967 561.842 321.059 562.291C324.419 559.752 329.048 559.603 332.856 561.396C334.723 562.739 335.172 565.65 337.709 566.248C339.129 566.622 340.847 566.772 341.668 568.265C341.966 569.534 341.146 570.43 341.069 571.625C343.312 572.073 344.506 574.537 345.4 576.329C345.923 577.673 345.328 579.017 344.506 580.062C343.76 581.184 342.488 581.705 341.443 581.705C340.847 582.527 340.398 583.498 340.173 584.543C342.714 587.156 348.089 585.664 349.36 589.92C348.762 592.159 349.433 595.818 346.298 596.715C341.892 596.341 336.812 596.416 333.379 599.403C328.6 601.867 323.598 604.481 317.772 603.884C318.295 609.56 319.563 615.31 320.31 621.133C324.492 640.248 328.6 659.288 331.585 678.628C332.332 682.212 331.662 685.648 332.856 689.01C343.908 691.773 355.706 692.592 366.011 697.296L367.951 697.596C375.868 701.328 385.425 707.228 386.769 716.788C388.112 723.731 386.994 730.375 389.157 737.022C389.457 740.607 389.606 745.386 386.994 748.298C386.321 753.078 381.244 755.839 378.555 759.422C370.342 765.472 360.562 767.562 351.151 770.548C348.685 770.625 346.148 771.596 343.76 772.492C343.535 772.416 343.086 772.193 342.863 772.492C342.265 773.612 342.863 775.852 340.92 776.448C338.309 776.748 335.545 778.018 332.481 777.868C318.594 779.062 303.959 777.567 289.695 780.556C278.569 781.826 266.697 783.318 256.692 788.322C250.867 788.994 246.388 792.951 241.309 795.266C239.068 796.835 236.754 798.178 234.812 800.493C235.335 801.836 233.842 801.613 233.543 802.659C232.422 803.405 230.405 803.853 230.705 805.869C228.315 807.884 225.926 810.498 226.973 813.935C225.778 814.681 226.822 815.353 226.599 816.395C227.045 824.015 227.717 832.977 233.917 838.8C239.591 846.564 250.046 850.074 250.794 860.154C251.165 863.144 251.911 866.652 250.568 869.64C250.345 872.924 249.075 876.211 248.106 879.347C245.275 886.056 241.458 885.246 241.458 885.246C231.304 885.394 222.119 882.035 212.935 879.122C205.781 875.671 198.403 872.897 192.429 866.401C187.95 865.353 191.055 860.827 190.383 857.99C191.353 846.043 195.013 832.75 190.009 821.476C188.889 822.972 188.367 825.061 187.321 826.852C184.185 831.632 184.036 837.68 181.945 842.981C181.348 842.981 180.526 842.981 180.377 842.234C176.121 843.356 172.611 847.536 170.297 851.046L169.4 850.822C167.309 847.237 159.991 844.549 163.724 839.696C168.728 828.122 171.938 815.727 174.777 803.183L173.731 801.39C177.837 791.459 180.377 779.882 190.906 773.612L200.24 768.385C203.748 767.34 207.257 766.367 210.992 765.92L212.038 765.173C206.438 762.785 200.016 762.186 194.864 758.752C189.786 757.259 183.587 756.138 178.36 757.631L177.837 757.481C174.254 759.648 169.25 758.901 166.04 761.59C158.797 764.874 151.18 767.19 143.638 769.505L137.515 770.7C137.441 772.492 139.755 773.984 141.1 775.029C151.404 780.333 154.764 791.532 153.495 802.807C152.002 809.304 149.239 815.95 150.583 822.894C151.629 826.106 151.927 829.84 153.271 832.75C153.868 835.738 155.362 838.203 155.811 841.34C155.811 843.727 156.631 845.968 155.811 847.76C155.212 856.349 158.498 865.233 156.334 873.746C154.167 876.658 155.137 881.288 151.18 882.931C146.252 885.17 141.1 884.648 135.723 884.723C127.882 884.274 117.13 885.843 109.214 882.931L108.318 881.811C108.244 877.331 108.393 872.999 108.841 868.743C108.542 868.519 108.767 867.848 108.169 868.072C105.929 863.144 105.854 856.72 106.526 851.346C109.065 838.8 115.561 827.748 114.068 813.709C113.247 813.709 112.426 813.262 112.052 812.516C113.919 808.781 107.572 808.633 109.364 805.123C109.812 804.599 110.037 804.003 110.634 803.555C109.439 801.986 109.514 799.746 107.572 798.7C103.167 796.685 99.933 800.759 94.283 801.211C91.743 802.481 91.212 803.195 88.749 804.688C82.998 806.931 75.292 810.892 68.72 807.981C61.701 807.905 58.363 799.894 53.286 795.788C48.134 793.101 45.444 788.667 42.98 783.887C41.935 782.692 41.174 780.664 39.457 780.364C33.035 775.659 32.528 765.995 34.319 758.901C34.991 752.555 38.649 746.878 40.591 740.83C41.861 738.142 41.936 734.857 44.176 732.541C47.536 724.255 55.302 718.802 61.574 712.528C68.145 707.752 75.538 703.719 83.602 701.404C86.44 699.312 89.725 699.985 92.713 698.343C95.326 693.938 97.566 688.637 100.403 684.005C103.54 677.958 106.75 671.835 111.007 666.459L111.157 666.606L111.754 666.084C101.673 657.273 89.95 651 79.644 642.04C75.388 637.484 71.207 632.708 69.414 626.808C64.785 619.787 69.788 612.396 69.938 605.151C74.045 589.769 77.256 574.089 78.898 557.661C81.885 547.955 83.378 537.649 84.499 527.195C84.945 519.802 87.335 513.232 89.501 506.586C87.262 506.734 85.171 508.303 82.856 508.752C77.479 509.05 70.162 510.693 65.308 508.004C65.232 506.586 66.951 507.855 67.474 506.959C75.314 502.255 84.499 498.297 88.98 489.187C84.945 489.56 80.616 490.755 76.21 490.307L67.474 488.291C67.174 487.918 66.428 487.693 66.726 487.023C68.893 485.678 71.879 486.125 73.746 484.035C67.697 482.392 60.754 482.317 56.348 477.539L56.497 477.017C61.65 476.269 66.204 473.879 71.058 472.387C78.226 468.502 84.648 463.351 91.144 457.303C94.728 454.391 98.088 450.433 101.299 446.923C98.013 447.446 93.459 448.192 89.651 447.596C88.231 447.147 85.768 447.446 85.544 445.281C86.141 444.235 86.962 445.355 87.71 444.758C99.732 442.742 110.41 430.496 112.799 418.921C113.695 414.965 114.368 410.857 114.592 406.6C112.202 400.479 111.754 392.04 114.592 385.99C109.663 387.56 104.138 388.828 98.462 389.053C95.476 389.053 92.19 388.307 89.127 388.457C88.231 387.335 90.024 388.007 90.024 387.036C93.31 387.186 96.073 384.945 99.208 383.975C99.882 383.154 100.851 383.229 101.673 382.78C116.756 372.625 120.341 354.929 135.201 344.773C144.534 339.471 154.092 332.676 165.815 335.439C174.552 337.081 182.468 334.169 190.906 333.125C200.464 331.705 209.647 334.244 216.891 339.92z"
       id="path4501">
    </path>

  </g>
  <g
     id="g4502"
     style="fill: #ccb70a">    <path
       d="M212.262 338.127C213.008 338.948 213.978 339.172 214.725 339.92C211.889 340.068 208.752 339.396 205.766 339.92C200.539 340.143 195.983 343.129 190.756 344.026C179.406 345.445 167.309 342.905 157.453 348.356C149.538 350.895 143.638 358.438 139.68 365.382C136.396 368.07 131.915 367.847 128.927 371.131C125.269 372.774 122.208 375.463 119.445 378.45C117.652 379.644 116.831 382.034 115.636 383.677C109.439 386.066 102.643 387.56 95.625 387.41C96.82 386.215 98.687 386.29 100.105 385.469C111.157 379.197 118.101 367.92 124.448 357.841C131.094 349.775 139.755 342.009 149.388 338.649C158.722 333.946 169.101 338.052 179.106 336.559C188.068 334.99 198.149 332.004 206.885 335.96L212.262 338.127z"
       id="path4503">
    </path>

  </g>
  <g
     id="g4504"
     style="fill: #000000">    <path
       d="M192.026 341.338C190.756 343.728 187.695 343.428 185.231 343.728C183.14 343.502 180.526 343.428 179.63 341.561C183.513 343.204 187.396 343.204 190.906 340.815C191.353 340.815 191.951 340.815 192.026 341.338z"
       id="path4505">
    </path>

  </g>
  <g
     id="g4506"
     style="fill: #969e00">    <path
       d="M230.856 346.19C234.589 347.012 236.528 351.269 238.92 353.733C245.641 360.901 245.117 371.058 246.461 380.39C246.388 391.667 243.548 402.867 246.088 413.396C248.703 432.512 259.902 447.819 257.96 468.429C257.363 471.565 256.243 474.552 254.9 477.389C250.046 477.389 245.193 474.627 240.038 474.85C237.501 473.955 234.963 473.133 232.497 472.014C234.886 471.341 237.872 468.429 240.563 466.637C240.935 466.039 240.563 465.591 241.087 465.218L240.935 464.994L235.931 467.905C238.472 461.634 243.772 454.913 244.519 447.072C244.37 446.774 244.071 446.475 243.772 446.176C242.056 451.479 239.89 456.855 236.978 461.783C233.768 470.967 219.88 476.045 223.389 487.768C224.134 490.158 225.778 492.623 228.166 493.891C226 494.787 223.465 495.834 220.699 495.685C219.729 495.758 218.384 494.713 217.787 495.834C217.862 497.103 218.833 498.224 220.101 498.372L220.997 498.522C213.381 502.478 202.854 501.284 196.131 495.834C195.46 494.787 194.938 493.742 193.818 493.293C191.876 484.334 198.372 477.24 204.197 470.893C205.84 470.295 206.662 468.502 207.93 467.532C207.854 467.234 208.079 466.786 207.78 466.637C199.941 474.029 189.488 482.019 192.548 493.668C189.936 497.925 186.575 501.881 185.379 506.734C182.99 506.361 182.243 503.599 180.526 502.255C178.585 497.327 175 493.07 175.15 487.247C175.15 486.05 176.867 485.155 175.673 484.035C176.942 478.957 180.899 475.747 184.484 471.79C183.886 471.49 182.692 471.639 182.168 472.387C178.137 475.223 175.225 479.48 173.731 483.811C169.4 485.827 164.845 488.143 161.559 491.877C160.515 473.208 178.585 461.186 192.399 451.553C191.652 453.42 191.503 455.51 191.13 457.453C193.22 459.692 193.295 455.884 194.864 455.137C197.552 454.017 200.016 451.479 203.077 452.449C204.121 451.553 204.345 450.508 203.077 449.611C201.956 448.864 201.433 450.508 200.39 450.657C198 451.254 195.759 452.301 193.818 453.868C194.938 442.145 206.735 435.126 214.202 425.94C220.101 418.921 222.269 410.408 223.687 401.598C224.583 398.014 222.417 395.698 221.372 392.936C220.848 394.877 222.269 396.893 222.269 399.059C221.969 405.555 219.654 411.977 217.787 417.875C216.967 423.178 211.142 422.58 207.559 424.298C203.599 425.866 199.493 425.866 195.088 425.792L194.49 425.418C202.928 423.775 208.603 414.89 210.992 407.497C210.768 406.899 210.692 406.301 210.096 405.854C208.379 406.525 209.051 408.841 208.154 410.185C207.559 411.38 206.885 412.649 205.466 412.873C202.854 412.649 199.941 413.919 197.403 413.246C203.599 407.273 210.618 400.18 209.725 390.994L208.304 385.99C207.78 385.842 207.257 384.648 206.662 385.618C207.559 387.56 204.793 387.036 203.823 387.784C201.956 387.784 200.39 388.531 198.446 388.457C200.687 384.199 204.72 380.017 208.678 377.031C209.124 376.584 208.603 375.911 208.154 375.762C204.57 377.255 201.36 381.063 199.195 384.199C197.252 385.543 194.79 385.543 192.697 386.514C186.35 388.381 178.808 386.887 172.984 390.621C175.599 382.183 185.977 380.839 188.963 372.55C191.428 367.847 196.653 365.382 201.286 363.74C201.734 363.366 201.36 362.843 200.987 362.47C195.834 363.889 190.307 366.354 187.545 371.431C181.422 376.509 173.059 376.21 166.188 379.345C164.994 380.316 163.502 380.913 162.604 382.407C162.904 379.271 165.517 376.359 165.815 372.923C168.505 371.431 171.79 370.833 174.478 369.637C174.552 369.115 173.805 368.817 173.582 368.443C164.994 370.534 156.856 374.417 150.808 381.661C149.911 383.452 148.417 385.019 148.118 387.036C147.148 383.452 146.699 379.197 147.894 375.762C147.521 375.089 146.849 374.939 146.102 375.015C142.443 378.15 139.382 381.735 137.74 385.767C135.947 377.479 139.457 369.862 143.116 362.694C150.658 349.402 165.741 346.042 179.63 346.19C188.292 347.236 196.356 344.848 203.823 341.935C209.351 340.591 214.13 342.009 219.953 342.084C223.687 342.607 227.793 343.577 230.856 346.19z"
       id="path4507">
    </path>

  </g>
  <g
     id="g4508"
     style="fill: #ccb70a">    <path
       d="M136.246 388.68C136.246 389.576 136.171 390.473 136.993 390.994L137.889 390.994C139.308 388.231 139.308 384.945 141.623 382.557C142.443 380.989 143.862 379.644 145.207 378.3C144.983 381.063 145.58 384.124 146.102 387.261C144.012 388.007 144.385 390.695 142.742 392.04C139.457 398.162 138.859 406.974 142.518 413.023C142.593 413.396 142.369 413.844 142.742 414.142C135.723 410.857 130.421 403.465 130.721 395.849C130.347 394.952 129.525 395.474 128.927 395.474C122.805 398.685 119.595 404.957 118.324 411.082C114.441 404.659 112.948 395.399 115.488 387.784C118.548 378.674 128.181 371.356 137.143 368.966L138.411 368.07C136.918 374.192 133.782 381.81 136.246 388.68z"
       id="path4509">
    </path>

  </g>
  <g
     id="g4510"
     style="fill: #969e00">    <path
       d="M127.136 404.286C126.24 409.96 125.343 416.831 129.302 421.46C131.094 422.356 131.019 419.743 132.363 419.294C131.691 431.616 127.584 443.04 119.595 452.301C119.669 452.898 120.266 453.495 120.863 453.568L128.554 450.881C127.733 455.361 123.626 458.498 120.863 462.156C116.084 467.309 111.754 472.984 107.796 478.658C107.645 479.48 106.601 480.376 107.273 481.123C99.283 486.275 94.056 495.012 90.547 503.151C85.319 507.183 78.674 508.004 71.73 508.004L69.265 507.631C72.103 506.437 74.194 504.57 76.957 503.151C77.927 501.806 79.346 501.358 80.69 500.687C86.366 496.132 90.995 490.457 93.609 483.811C98.462 476.045 106.302 470.967 114.068 467.681C114.293 467.085 113.545 466.637 113.172 466.413C105.63 469.474 97.566 474.029 93.832 481.87C91.444 483.811 90.995 487.171 87.71 487.62C82.258 488.889 75.763 489.934 70.311 487.394C73.671 487.993 75.538 482.617 79.122 485.081C82.557 484.856 85.394 484.856 88.755 484.558C89.278 484.408 89.651 483.886 89.501 483.288L89.127 482.915C80.019 483.737 70.759 482.69 62.098 479.705C61.126 478.733 59.707 478.733 58.662 477.912C69.489 475.524 79.57 470.071 88.082 461.932C95.998 454.839 104.062 447.819 109.738 438.635C109.439 438.336 109.663 437.663 109.065 437.589L108.468 437.589C105.781 440.502 104.138 446.251 98.985 445.281C95.998 446.849 92.936 446.176 89.651 446.027C102.568 442.891 113.322 429.899 115.114 416.98L116.01 410.707C116.756 412.351 117.876 414.665 119.818 415.038L120.341 414.441C118.922 407.346 124.298 402.346 128.554 397.64C129.675 400.105 127.358 401.896 127.136 404.286z"
       id="path4511">
    </path>

  </g>
  <g
     id="g4512"
     style="fill: #000000">    <path
       d="M183.214 404.435L182.692 404.585L183.738 399.207C185.231 400.552 183.438 402.719 183.214 404.435z"
       id="path4513">
    </path>

  </g>
  <g
     id="g4514"
     style="fill: #000000">    <path
       d="M197.776 401.598C192.174 402.195 187.919 403.389 183.961 407.497C183.214 406.974 184.26 405.929 184.633 405.331C187.919 402.12 192.174 401.076 196.653 401.374C197.103 401.374 197.252 400.627 197.776 400.851L197.776 401.598z"
       id="path4515">
    </path>

  </g>
  <g
     id="g4516"
     style="fill: #ffffff">    <path
       d="M162.398 403.594C162.918 405.5 162.485 407.58 161.099 408.966C159.799 410.438 158.412 411.739 156.334 411.479C155.726 408.359 156.334 404.72 158.24 402.12C159.711 403.073 161.965 400.906 162.398 403.594z"
       id="path4517">
    </path>

  </g>
  <g
     id="g4518"
     style="fill: #ccb70a">    <path
       d="M141.1 415.337C140.876 420.116 136.246 423.4 136.619 428.628C137.143 435.573 143.936 439.083 149.165 442.219C153.047 444.31 157.154 445.878 160.813 448.491C160.887 454.689 159.917 460.887 155.436 465.367C150.583 469.773 145.58 473.806 139.68 475.747C138.934 475.075 138.635 473.879 137.515 473.581C135.126 474.775 131.243 474.477 128.778 476.269L128.181 477.389C121.834 477.912 114.592 476.867 109.214 480.227L109.364 479.181C115.413 471.341 121.609 463.202 128.554 456.033C130.123 453.644 130.646 450.881 131.467 448.192C131.168 447.596 130.571 446.625 129.825 447.296C128.031 449.015 125.867 450.135 123.551 450.657C129.601 440.65 134.228 429.899 134.454 417.726C135.275 416.756 134.155 415.711 134.305 414.665C134.228 413.993 133.483 414.217 133.035 413.919C132.065 414.441 132.661 415.636 132.512 416.457L129.825 418.773C127.509 414.59 128.181 409.438 128.554 404.585C129.227 403.912 129.525 403.165 129.675 402.27C131.616 407.273 135.872 412.873 141.1 415.337z"
       id="path4519">
    </path>

  </g>
  <g
     id="g4520"
     style="fill: #f9cbd4">    <path
       d="M146.326 413.023C145.953 413.694 145.132 413.993 144.31 413.919L143.788 411.977C144.609 412.351 145.505 412.649 146.326 413.023z"
       id="path4521">
    </path>

  </g>
  <g
     id="g4522"
     style="fill: #000000">    <path
       d="M146.147 412.923C145.839 413.476 145.126 413.787 144.329 413.713L144.509 413.865L143.986 411.924L143.703 412.165C144.119 412.353 144.557 412.525 144.981 412.691C145.402 412.856 145.836 413.025 146.24 413.21L146.147 412.923z"
       id="path4523">
    </path>

  </g>
  <g
     id="g4524"
     style="fill: #000000">    <path
       d="M143.589 412.031L144.112 413.974L144.149 414.111L144.292 414.124C145.266 414.211 146.114 413.828 146.506 413.122L146.614 412.926L146.412 412.835C145.996 412.646 145.557 412.474 145.132 412.309C144.712 412.145 144.279 411.975 143.873 411.79L143.476 411.609L143.589 412.031z"
       id="path4525">
    </path>

  </g>
  <g
     id="g4526"
     style="fill: #ffffff">    <path
       d="M164.023 419.668C162.674 420.639 160.736 420.042 159.387 420.191C158.88 419.668 157.36 418.248 159.977 416.085C162.505 416.085 163.349 417.95 164.023 419.668z"
       id="path4527">
    </path>

  </g>
  <g
     id="g4528"
     style="fill: #000000">    <path
       d="M245.94 469.848C245.117 471.79 243.475 473.432 241.458 473.955L241.309 473.432C243.548 471.042 246.162 468.429 247.207 465.367C247.807 466.86 246.088 468.279 245.94 469.848z"
       id="path4529">
    </path>

  </g>
  <g
     id="g4530"
     style="fill: #757575">    <path
       d="M278.817 379.434C280.386 389.439 285.392 410.892 286.14 420.749C284.422 421.27 283.153 421.195 281.659 422.242C281.136 418.582 279.867 414.923 279.344 411.115C279.867 410.369 279.194 409.174 279.121 408.203C278.448 402.976 274.486 387.349 273.813 382.121C275.158 380.777 276.802 378.835 278.817 379.434z"
       id="path4531">
    </path>

  </g>
  <g
     id="g4532"
     style="fill: #f9cbd4">    <path
       d="M241.979 476.867C249.82 478.809 258.408 478.658 263.487 485.977C268.713 493.219 268.265 502.703 269.386 511.589C271.104 521.296 266.921 529.212 267.07 538.321C267.741 544.295 267.369 550.044 267.445 555.72C266.324 551.688 264.158 548.027 261.694 544.743C262.218 543.997 262.218 542.652 261.694 541.905C260.052 539.814 256.168 543.25 256.168 539.217C257.288 537.5 256.243 535.634 257.065 533.841L258.856 526.299C258.558 526 258.184 525.478 257.735 525.926C256.018 529.361 255.347 533.393 254.9 537.202C253.705 535.261 252.658 532.497 250.046 531.825L249.522 532.421C251.763 535.334 254.376 538.471 255.42 542.055L250.568 544.371L249.672 544.07C247.207 539.74 245.267 535.186 243.399 530.63C239.442 521.146 238.546 510.469 235.559 500.687C234.44 491.877 232.2 483.437 230.557 474.85L229.808 474.178C231.304 472.387 233.469 474.552 235.185 474.85C237.202 476.195 239.591 476.492 241.979 476.867z"
       id="path4533">
    </path>

  </g>
  <g
     id="g4534"
     style="fill: #f8b407">    <path
       d="M228.766 475.597C229.062 481.422 231.526 486.35 232.124 492.1C231.453 491.727 230.557 492.697 229.659 492.623C227.942 488.516 228.018 483.661 226.076 479.705C226.599 478.21 227.419 476.643 228.766 475.597z"
       id="path4535">
    </path>

  </g>
  <g
     id="g4536"
     style="fill: #f9cbd4">    <path
       d="M135.051 483.138C137.665 490.68 140.128 498.297 141.846 506.213C145.655 516.667 145.43 528.091 146.849 539.59C146.774 541.905 146.998 544.295 146.699 546.534C139.009 546.534 131.019 546.908 124.074 549.074C124.374 546.983 124.971 544.07 124.971 541.681C125.942 539.217 128.106 537.202 129.077 534.737C127.211 534.29 126.24 536.754 125.196 537.948C125.046 536.455 125.717 534.888 124.448 533.991C123.402 535.334 123.477 537.5 123.029 539.217L123.178 542.951C121.535 558.557 115.04 572.223 109.364 586.186C107.498 592.31 105.407 598.357 102.941 604.256C104.585 609.258 102.12 615.756 107.796 619.339C117.801 629.721 128.48 640.847 139.308 650.477C146.401 657.199 154.764 661.753 162.082 668.25C165.815 669.817 169.997 670.414 173.731 672.206L173.88 671.984C184.036 675.491 189.71 688.038 200.762 689.533C201.584 690.577 203.227 690.428 203.973 690.279C203.525 691.773 204.645 692.966 205.766 693.489C208.079 694.16 210.544 694.311 212.935 694.758C212.484 695.728 211.29 696.251 210.245 696.699C202.854 699.312 196.207 694.607 189.338 693.115C186.425 694.758 187.545 698.416 186.275 700.882C186.649 704.688 187.545 708.349 189.488 711.633C193.295 719.623 196.058 728.285 196.282 737.544C195.312 736.873 194.043 737.396 193.071 737.769C192.399 738.592 192.325 739.561 192.174 740.607C189.786 732.617 186.498 724.626 182.692 717.01C182.394 716.339 181.646 716.788 181.272 716.414C181.049 716.636 180.75 716.788 180.899 717.159C180.003 716.488 178.585 718.13 178.212 719.325C175.524 728.285 175.897 738.217 175.673 747.774C173.88 748.599 171.865 746.132 170.894 748.52C170.297 739.86 170.297 730.602 170.894 721.64C169.176 721.041 167.907 718.429 166.04 719.325L167.458 721.491C166.637 730.751 164.472 739.338 165.666 748.52C165.144 746.955 163.427 747.178 162.231 747.402L160.664 749.792C159.917 740.308 161.559 730.823 159.245 721.79C159.469 720.818 160.291 719.325 159.245 718.429C158.871 717.906 158.348 717.832 157.975 717.531C157.229 718.429 158.871 719.476 158.348 720.595C158.199 720.222 157.826 720.443 157.603 720.37L157.229 720.744C160.216 726.643 157.528 732.84 158.871 739.338C158.273 738.74 157.154 736.724 155.96 737.769L154.391 739.561C152.748 731.721 152.973 723.805 153.495 715.74C151.927 707.378 147.669 700.135 148.792 691.324C149.538 691.176 149.986 692.519 150.583 691.547C150.956 691.249 150.732 690.8 150.808 690.428C142.891 684.005 134.678 678.181 126.091 673.4C113.994 665.937 102.793 656.153 90.771 648.685C80.84 642.04 71.207 633.305 69.414 621.133C71.505 603.435 76.509 587.007 79.273 569.684C79.943 564.904 80.093 559.902 81.288 555.347C84.872 543.399 85.022 531.377 87.335 518.981C90.323 511.44 91.144 502.927 96.146 496.205C100.031 488.589 107.871 480.6 116.756 479.854C121.685 479.032 127.358 479.257 132.363 478.957C134.155 480.003 133.707 481.87 135.051 483.138z"
       id="path4537">
    </path>

  </g>
  <g
     id="g4538"
     style="fill: #f9cbd4">    <path
       d="M227.121 490.831C225.103 489.262 224.209 485.454 225.18 482.392L227.121 490.831z"
       id="path4539">
    </path>

  </g>
  <g
     id="g4540"
     style="fill: #f8b407">    <path
       d="M248.253 545.116C247.133 545.938 245.94 546.609 244.669 547.059C244.146 543.921 242.43 541.233 241.309 538.321C236.904 525.03 233.019 512.261 229.808 498.522L229.435 495.46L232.35 493.668C236.528 511.291 238.92 529.66 248.253 545.116z"
       id="path4541">
    </path>

  </g>
  <g
     id="g4542"
     style="fill: #8bf1fd">    <path
       d="M302.496 424.09C310.49 427.404 312.3 431.849 314.316 436.031C306.774 441.706 286.119 450.413 268.67 448.504L262.772 448.504C258.82 438.519 275.909 425.751 284.495 423.138C288.603 422.316 298.763 422.97 302.496 424.09z"
       id="path4543">
    </path>

  </g>
  <g
     id="g4544"
     style="fill: #757575">    <path
       d="M289.624 448.335C290.297 452.442 290.446 456.698 291.641 460.582C291.94 462.523 291.866 464.24 290.894 465.734C289.401 461.627 288.505 457.222 287.161 453.039C287.384 451.695 286.788 450.126 286.266 448.932C287.31 449.007 288.28 448.037 289.624 448.335z"
       id="path4545">
    </path>

  </g>
  <g
     id="g4546"
     style="fill: #000000">    <path
       d="M200.762 540.487C200.539 545.564 200.836 551.613 198.446 556.242C197.925 556.616 197.028 556.392 196.88 555.72C199.195 551.015 198.82 545.191 200.612 540.263L200.762 540.487z"
       id="path4547">
    </path>

  </g>
  <g
     id="g4548"
     style="fill: #f8b407">    <path
       d="M137.515 486.125C140.054 491.204 141.248 496.804 142.742 502.255C147.446 515.92 148.417 531.825 148.792 546.534C150.884 546.534 153.027 546.74 155.177 546.968C155.125 546.926 155.073 546.877 155.022 546.815C155.544 534.495 152.002 521.296 149.686 509.274C145.804 498.073 144.31 485.827 137.74 475.747L136.619 475.373C134.827 476.418 132.587 476.269 130.87 477.389L132.139 477.165C135.798 478.809 136.843 482.915 137.515 486.125z"
       id="path4549">
    </path>

  </g>
  <g
     id="g4550"
     style="fill: #f9cbd4">    <path
       d="M175.374 551.388C179.555 553.479 183.812 555.571 188.218 557.138C192.1 559.453 196.803 559.678 200.987 561.246C206.96 561.022 213.008 563.635 218.905 560.872C228.392 559.752 235.708 553.181 243.399 547.805C235.931 531.601 232.2 513.83 227.644 496.356L222.493 497.476L223.91 497.476C224.507 497.7 225.18 498.447 224.583 499.044C219.43 501.806 212.709 503.525 206.885 501.956C202.854 501.583 198.672 499.418 195.088 496.878C194.49 496.431 194.415 495.311 193.444 495.46C191.204 499.044 188.441 502.33 187.545 506.437C187.023 507.482 187.844 508.453 186.799 509.274C186.126 509.498 185.305 509.05 184.857 508.378C181.945 508.154 181.049 504.869 178.959 503.151C176.345 497.85 173.134 492.772 173.209 486.35C169.549 487.394 165.965 489.71 163.351 492.398C161.635 493.145 161.858 497.625 159.393 495.086L159.917 487.023C157.901 486.499 156.109 485.304 153.868 485.23C151.404 484.259 148.866 483.138 146.476 482.542C145.804 482.317 144.31 481.794 144.909 480.75C147.745 480.077 149.463 482.093 151.852 482.392C153.122 483.661 155.735 482.765 156.334 484.558C157.751 484.482 158.945 484.931 160.141 485.454C162.754 467.681 181.646 458.647 193.818 447.446C196.581 437.814 207.108 433.109 212.784 424.896C212.337 424.819 212.038 425.044 211.738 425.193C206.438 427.059 200.836 427.732 195.088 427.359C193.893 426.612 191.951 426.612 191.652 425.044C197.028 423.701 202.182 419.668 205.243 414.665L199.566 415.189C197.627 415.636 196.88 414.292 195.088 415.038C194.415 414.74 193.146 414.665 193.295 413.545C195.983 412.276 198.522 409.96 200.612 407.497C199.566 407.572 198.596 407.945 197.552 408.169C196.653 409.364 195.312 408.766 194.192 408.766C191.055 408.841 194.49 411.679 192.399 412.351C191.204 412.201 191.175 409.551 190.951 408.805C189.831 409.028 191.428 411.306 190.906 412.126C190.832 412.799 190.159 413.545 189.338 413.246L189.305 409.628C188.259 410.299 186.497 410.845 185.6 411.892C185.377 412.637 185.207 412.79 184.984 413.536C184.759 413.91 185.678 415.412 185.005 415.189C183.438 415.113 183.961 413.097 183.738 411.977C189.412 406.377 196.88 403.763 204.57 402.494C207.108 399.357 207.78 395.326 208.154 391.517C207.108 391.667 206.438 392.637 205.617 393.16C200.315 395.849 194.266 396.745 188.068 397.268L186.649 398.014C185.977 398.536 185.678 397.789 185.529 397.268C191.727 394.727 198.446 393.16 203.973 389.576C202.255 388.904 201.286 390.695 199.717 390.099C198.224 390.248 197.177 391.367 195.61 391.144C193.444 389.875 196.505 388.904 196.505 387.56C188.963 390.397 179.033 387.485 172.835 393.533C171.043 393.608 172.014 391.591 171.043 390.845C172.611 383.452 180.675 380.989 184.633 375.388C178.36 378.599 170.594 378.3 164.771 382.557C162.679 383.452 162.979 388.457 160.291 385.99C159.618 381.063 162.979 377.405 164.023 373.596C157.751 376.731 150.583 381.96 149.686 389.576L153.271 387.036C154.316 386.438 155.137 387.41 155.96 387.784C158.647 390.994 162.306 394.056 166.04 395.849L165.293 396.745C161.336 396.297 158.647 392.787 155.064 391.367C152.599 390.473 150.435 392.637 148.491 394.056C146.625 394.504 145.878 398.088 144.012 396.745C144.235 394.056 147.372 392.787 148.268 390.845C147.821 390.397 146.923 389.8 146.998 389.053C142.593 394.355 140.576 402.419 142.518 409.663C144.235 410.185 145.878 409.588 147.222 408.766C145.878 408.99 144.909 408.318 143.638 408.393C143.34 408.243 142.742 407.945 142.891 407.497C143.19 407.123 143.712 406.675 144.16 407.123C144.983 405.555 147.148 406.452 148.491 405.704C148.792 404.509 146.923 404.062 146.699 403.016L146.998 402.644C147.821 402.419 148.342 403.016 149.015 403.165C150.284 400.253 153.047 397.491 156.184 396.745C159.692 396.818 163.502 398.088 164.771 401.747C166.04 407.048 168.952 412.5 167.832 418.623C166.562 421.908 162.754 422.654 159.393 422.73C159.544 423.252 159.17 424.074 158.498 424.298C157.603 423.999 158.199 423.027 157.751 422.506C156.034 422.953 156.78 425.268 155.287 425.792C154.316 424.746 155.585 423.701 155.436 422.506C153.943 423.252 153.794 424.671 152.748 425.792C152.45 426.015 151.704 426.164 151.479 425.567C151.479 423.551 152.523 421.684 154.391 420.714C158.573 420.639 153.197 417.129 154.167 414.665C153.943 410.483 152.823 405.032 155.811 401.747C155.064 402.045 154.839 402.793 154.391 403.389C151.256 406.301 151.479 410.559 149.538 413.919C149.538 415.412 150.06 417.129 149.538 418.398C148.193 417.726 148.417 416.085 148.118 415.038C146.774 417.204 143.34 415.337 142.518 417.726C141.921 421.535 137.74 423.849 138.038 428.106C138.486 432.139 141.185 435.023 144.769 437.486C151.296 441.244 156.069 444.312 162.547 447.38C167.321 449.596 171.737 452.611 177.038 452.835C183.012 451.192 187.484 447.063 193.235 444.823L194.192 444.235C194.34 444.907 191.882 445.983 191.359 446.357C184.489 449.344 179.766 456.245 172.088 452.972C168.728 452.301 165.891 450.208 162.604 449.088C163.203 455.435 161.411 460.813 157.975 465.517C152.673 470.445 147.148 475.822 140.427 477.017C145.729 486.2 147.596 496.804 150.956 506.734C153.794 520.176 157.449 532.593 157.076 547.079L156.337 547.026C156.279 547.043 156.222 547.059 156.165 547.074C157.369 547.204 158.572 547.333 159.767 547.431C165.293 547.805 170.148 550.044 175.374 551.388z"
       id="path4551">
    </path>

  </g>
  <g
     id="g4552"
     style="fill: #f8b407">    <path
       d="M259.753 543.175C259.006 542.652 258.26 543.25 257.735 543.846C255.272 543.025 253.629 545.266 251.464 545.863C241.757 548.701 234.812 558.481 224.954 561.246C214.725 565.277 202.331 563.709 192.174 560.499C187.471 558.855 182.99 556.69 178.36 554.824C176.046 552.21 172.163 553.256 169.625 551.24C154.69 547.356 138.336 546.908 123.551 550.866C123.103 553.256 122.954 555.72 122.282 558.034C129.002 554.674 136.321 552.135 143.788 551.24C155.137 549.896 165.144 552.957 174.777 556.242C186.948 558.481 197.552 564.829 210.471 564.68C230.108 565.876 244.594 553.704 261.545 547.805C260.948 546.236 258.708 544.967 259.753 543.175z"
       id="path4553">
    </path>

  </g>
  <g
     id="g4554"
     style="fill: #f9cbd4">    <path
       d="M314.251 561.027L315.309 563.559C313.74 563.559 312.248 564.68 310.603 564.979C309.409 561.842 309.485 557.81 308.513 554.45C308.065 551.015 306.506 543.601 306.656 540.167C312.254 543.974 309.473 556.471 314.251 561.027z"
       id="path4555">
    </path>

  </g>
  <g
     id="g4556"
     style="fill: #f9cbd4">    <path
       d="M305.601 552.434C306.57 556.766 307.243 561.619 308.513 566.099L305.601 568.937C305.899 562.291 305.376 556.541 304.033 550.12C304.033 548.552 302.147 542.354 304.078 541.324C304.824 543.266 305.228 550.269 305.601 552.434z"
       id="path4557">
    </path>

  </g>
  <g
     id="g4558"
     style="fill: #39a9fa">    <path
       d="M262.815 549.597C265.651 556.466 268.563 563.336 270.654 570.58C270.654 575.881 266.697 580.51 263.336 584.917C257.065 591.786 249.3 596.042 240.935 598.133C242.056 600.075 244.146 598.283 245.79 598.357C248.327 597.536 250.717 596.491 252.958 594.922C252.732 597.984 252.809 601.941 251.464 605.003C247.508 608.438 242.503 609.634 238.023 611.945C237.949 614.709 236.38 617.024 236.604 619.641C235.484 623.746 235.185 628.15 234.812 632.558C235.708 636.813 234.44 643.533 240.038 645.475C236.455 656.751 238.771 669.892 242.205 680.794C242.43 682.287 244.519 683.261 243.999 684.9C245.714 685.874 246.388 687.513 247.581 688.858C233.169 692.592 219.729 699.763 208.304 710.737C203.823 715.965 200.09 721.939 197.403 728.063C195.536 719.103 190.457 711.261 188.218 702.301C188.591 699.985 188.591 697.372 189.861 695.131C194.117 696.848 198.894 697.073 203.077 699.089C208.304 699.835 213.455 698.268 216.37 694.235C216.518 693.489 216.518 692.519 215.993 691.695C211.44 687.739 204.047 690.428 199.195 686.844C187.769 683.856 182.766 671.312 170.894 669.147C162.904 668.848 159.245 662.5 153.122 658.766C147.745 655.107 143.116 651.149 138.262 646.894C140.576 645.849 142.965 644.205 144.534 642.04C144.983 642.264 145.282 641.816 145.58 641.518C144.459 640.174 146.998 639.949 147.222 638.456C149.986 636.363 149.09 632.779 150.808 629.869C150.808 628.673 150.51 627.331 151.852 626.657C151.479 624.345 151.852 621.88 151.479 619.339C151.404 618.666 151.704 617.923 151.18 617.547C150.435 615.756 152.002 613.517 149.538 613.069C142.518 612.097 136.246 608.362 130.571 603.733C128.255 602.091 129.152 598.805 127.659 596.715C125.046 587.082 123.029 577.15 119.072 568.041L121.759 559.603C132.213 555.273 143.564 550.939 155.811 553.031C161.336 554.153 167.234 554.674 172.088 557.512C175.673 558.632 179.705 558.706 183.065 560.349C188.367 561.992 193.594 564.382 199.195 564.829C201.286 566.473 204.496 565.65 206.885 566.622C215.696 566.697 224.583 566.322 232.35 562.888C242.805 559.229 251.838 552.135 262.815 549.597z"
       id="path4559">
    </path>

  </g>
  <g
     id="g4560"
     style="fill: #f9cbd4">    <path
       d="M334.274 565.577L335.694 566.996C335.096 567.966 333.826 568.041 332.707 568.265C330.467 567.219 327.853 566.473 325.315 566.772C320.758 570.056 315.309 571.103 310.829 574.537C311.128 572.819 313.89 571.55 312.097 569.684C311.648 569.086 312.034 568.05 309.996 568.22L307.115 569.068C312.267 563.617 319.563 564.68 325.688 561.619C328.974 561.396 333.078 562.141 334.274 565.577z"
       id="path4561">
    </path>

  </g>
  <g
     id="g4562"
     style="fill: #f9cbd4">    <path
       d="M340.173 568.787C339.801 569.907 339.501 571.401 339.652 572.521C341.593 573.342 343.76 574.313 344.132 576.628C344.132 577.897 343.312 579.689 341.816 580.212C341.294 580.137 341.219 580.137 340.772 580.436C339.801 582.004 338.456 584.095 339.501 585.812C341.668 588.649 346.224 586.335 347.938 589.546C347.642 591.711 348.016 594.25 345.55 595.296C343.982 595.967 342.115 594.998 340.772 594.026C340.398 593.28 339.801 592.159 340.548 591.337C341.069 589.92 343.461 590.367 342.863 588.649C341.219 588.873 339.501 590.143 338.757 591.861C338.681 592.982 338.83 593.877 339.277 594.773C331.959 597.237 325.84 603.136 317.248 602.091L315.831 594.026L320.161 592.086C322.103 592.159 325.912 594.399 327.106 591.562C325.762 591.04 323.447 591.861 322.103 590.816C322.924 589.845 324.644 589.397 324.644 587.977C322.625 586.708 321.581 589.92 319.563 590.442L315.682 592.234L313.665 581.855C316.353 581.78 318.37 579.988 321.059 579.914C320.535 580.51 319.714 580.736 319.417 581.482C319.417 582.527 319.938 583.722 321.059 584.021C326.809 584.169 333.454 584.692 338.757 582.228C337.486 579.615 334.498 582.602 332.11 582.378C330.766 581.93 329.87 583.273 328.525 582.602C329.124 581.705 331.214 580.811 330.541 579.54L328.525 577.748C331.362 577.448 334.723 576.254 337.709 575.434C338.381 575.508 338.903 575.284 339.277 574.835C339.501 574.163 338.681 573.716 338.233 573.417C331.959 575.209 325.688 577.076 319.042 578.122C319.342 576.777 318.818 574.985 317.248 574.537C315.905 574.163 314.262 574.313 313.144 575.06C314.71 573.866 316.653 572.819 318.519 571.998C322.552 570.729 326.285 566.173 330.914 568.937C332.26 571.103 334.349 569.385 336.441 569.684C337.709 568.937 337.261 567.593 336.067 567.144C337.411 567.816 339.053 567.741 340.173 568.787z"
       id="path4563">
    </path>

  </g>
  <g
     id="g4564"
     style="fill: #ffffff">    <path
       d="M125.867 597.984C126.837 600.075 126.688 603.061 129.077 604.779C129.152 608.14 130.273 611.126 130.87 614.263C129.825 614.413 129.825 615.682 129.077 616.277C128.255 619.713 129.825 622.7 132.139 625.016L132.139 627.927C130.945 627.106 130.123 629.271 129.451 630.094C128.853 631.735 128.255 634.051 129.825 635.471C129.601 636.363 129.525 637.336 128.927 638.158C120.863 631.885 115.04 622.998 107.423 616.427C105.107 613.143 106.004 608.063 105.257 603.884C109.364 592.384 113.397 580.811 118.548 569.684C121.013 578.868 124.523 588.127 125.867 597.984z"
       id="path4565">
    </path>

  </g>
  <g
     id="g4566"
     style="fill: #be0003">    <path
       d="M310.198 572.107C309.646 573.791 308.746 575.887 306.323 576.494C305.907 576.695 305.352 576.628 304.867 576.628C303.759 575.483 303.967 573.867 304.66 572.589C306.579 570.118 309.285 569.264 310.828 570.73L310.198 572.107z"
       id="path4567">
    </path>

  </g>
  <g
     id="g4568"
     style="fill: #be0003">    <path
       d="M311.867 576.365C313.655 575.842 315.606 575.358 317.248 576.628C317.397 578.046 309.829 582.812 308.142 580.436C306.435 579.588 309.66 577.043 311.867 576.365z"
       id="path4569">
    </path>

  </g>
  <g
     id="g4570"
     style="fill: #f9cbd4">    <path
       d="M307.618 577.897C306.944 578.868 305.528 579.764 306.347 581.109C307.618 583.124 309.784 581.855 311.499 582.228C312.172 585.738 313.144 589.172 313.518 592.757C311.128 594.026 309.784 591.263 307.768 591.711C307.916 593.728 310.232 593.579 311.351 594.773L313.89 594.773L315.085 601.941L309.934 599.627C309.559 599.775 309.109 600.524 309.559 601.045L311.351 602.464C297.162 612.694 281.332 622.475 264.01 627.03C259.828 628.3 255.569 627.63 251.688 627.181C250.118 626.508 248.703 625.39 246.984 625.016C248.106 623.746 246.759 619.265 250.419 620.013C251.688 618.818 252.583 616.651 252.21 615.01C251.838 614.187 251.688 613.069 250.568 612.843C253.031 610.603 249.3 606.571 253.856 605.898C254.452 602.24 255.048 597.984 254.004 594.399C260.273 590.741 266.921 585.887 269.982 579.017C270.804 582.975 271.848 586.857 273.195 590.666C268.265 592.384 263.336 595.296 260.125 599.925C260.125 600.449 259.978 601.121 260.648 601.195C266.772 593.728 275.433 590.666 285.218 591.189C289.471 590.816 292.906 588.426 297.014 587.604L304.033 584.021C304.853 584.841 304.406 587.53 306.347 587.082C307.095 585.513 304.929 584.244 305.45 582.378C305.303 580.585 304.556 577.448 307.618 577.897z"
       id="path4571">
    </path>

  </g>
  <g
     id="g4572"
     style="fill: #000000">    <path
       d="M194.192 580.062C192.325 582.079 190.233 584.841 187.695 585.065C189.262 582.9 192.623 580.811 193.594 578.122C194.64 578.271 194.415 579.465 194.192 580.062z"
       id="path4573">
    </path>

  </g>
  <g
     id="g4574"
     style="fill: #be0003">    <path
       d="M328.897 579.316C330.188 581.964 321.874 584.677 321.059 582.228C321.731 580.736 322.429 579.638 323.997 579.266C324.634 578.99 326.248 579.021 327.467 578.571L328.897 579.316z"
       id="path4575">
    </path>

  </g>
  <g
     id="g4576"
     style="fill: #000000">    <path
       d="M130.571 584.169C131.094 586.335 132.96 587.977 134.454 589.769L140.576 594.399C148.118 597.984 157.975 599.104 166.04 595.818C166.338 596.042 166.114 596.416 166.188 596.715C159.991 600.449 152.375 599.552 145.58 598.133C143.414 597.536 141.772 595.818 139.531 595.445C135.201 592.086 130.646 588.948 129.077 583.796C128.629 583.198 128.106 582.527 128.181 581.705C129.899 581.482 129.601 583.423 130.571 584.169z"
       id="path4577">
    </path>

  </g>
  <g
     id="g4578"
     style="fill: #000000">    <path
       d="M336.59 584.543C336.515 585.065 336.141 585.513 336.291 586.186C336.812 586.559 337.486 586.857 337.861 587.231C337.411 587.903 336.441 587.53 335.918 587.231C334.199 586.634 335.32 585.065 335.694 584.169C336.067 584.169 336.364 584.244 336.59 584.543z"
       id="path4579">
    </path>

  </g>
  <g
     id="g4580"
     style="fill: #ffffff">    <path
       d="M315.456 603.884C318.22 625.538 324.942 645.773 327.629 667.129C329.197 674.074 329.87 681.392 330.541 688.637C307.243 684.9 283.199 684.305 259.526 687.739L250.419 689.01C242.503 681.914 242.056 671.388 240.563 661.455C239.816 656.077 240.935 650.104 242.356 644.952C242.503 643.684 241.606 642.637 240.935 641.891C242.652 639.575 240.113 633.974 245.044 634.572C247.059 633.228 246.609 630.69 246.685 628.822C245.193 628.3 246.088 627.03 246.461 626.136C251.911 630.316 259.455 630.616 265.802 628.3C271.253 626.435 276.701 624.79 281.93 622.551C292.458 617.174 302.987 611.275 312.622 604.256L312.994 603.211C313.665 603.658 314.637 603.658 315.456 603.884z"
       id="path4581">
    </path>

  </g>
  <g
     id="g4582"
     style="fill: #f9cbd4">    <path
       d="M140.427 612.321C143.265 612.92 145.729 614.635 148.792 614.859C149.463 617.1 149.836 619.489 149.911 622.029C143.862 622.252 138.188 620.61 133.258 617.847C133.409 614.038 131.616 610.38 131.243 606.796C134.528 607.989 137.143 610.902 140.427 612.321z"
       id="path4583">
    </path>

  </g>
  <g
     id="g4584"
     style="fill: #f9cbd4">    <path
       d="M249.897 608.362C249.82 610.678 248.403 612.694 248.477 614.859C245.414 616.651 241.979 617.771 238.621 618.743C238.844 616.503 239.591 614.413 240.563 612.47C243.7 611.126 246.834 609.933 249.897 608.362z"
       id="path4585">
    </path>

  </g>
  <g
     id="g4586"
     style="fill: #000000">    <path
       d="M99.359 612.843C99.882 612.769 100.105 612.92 100.254 613.365C99.657 614.263 98.387 615.082 97.193 614.484C96.073 613.365 95.7 611.5 96.146 610.154C97.865 610.603 96.894 615.16 99.359 612.843z"
       id="path4587">
    </path>

  </g>
  <g
     id="g4588"
     style="fill: #39a9fa">    <path
       d="M250.419 616.055C249.373 619.414 245.565 618.967 243.399 621.282C241.683 622.401 239.74 621.357 237.872 622.175C237.65 619.414 241.309 620.833 242.728 619.489C245.414 618.593 247.731 616.95 250.419 616.055z"
       id="path4589">
    </path>

  </g>
  <g
     id="g4590"
     style="fill: #39a9fa">    <path
       d="M144.31 623.223C145.804 623.597 147.894 624.044 149.686 623.597L149.388 626.136C143.489 626.657 138.113 624.717 132.661 623.597C132.363 622.626 131.691 621.805 131.243 620.91L130.721 617.697C134.678 620.91 139.531 622.029 144.31 623.223z"
       id="path4591">
    </path>

  </g>
  <g
     id="g4592"
     style="fill: #f9cbd4">    <path
       d="M243.101 629.197C241.16 630.094 238.994 630.986 236.978 631.139C237.126 628.973 237.424 626.284 237.501 624.119C240.636 622.775 243.252 623.522 246.088 621.654L243.101 629.197z"
       id="path4593">
    </path>

  </g>
  <g
     id="g4594"
     style="fill: #f9cbd4">    <path
       d="M149.165 627.703C148.642 630.316 148.268 633.006 146.849 635.246C142.07 634.572 137.217 634.122 133.258 631.511C134.006 629.795 133.931 627.553 133.931 625.762C139.158 626.657 143.638 627.63 149.165 627.703z"
       id="path4595">
    </path>

  </g>
  <g
     id="g4596"
     style="fill: #39a9fa">    <path
       d="M243.101 633.453C241.01 633.901 239.218 635.545 237.126 635.471C236.904 634.35 236.904 633.901 236.828 632.779C239.591 632.558 242.13 631.885 244.519 630.616C245.193 631.66 244.22 633.079 243.101 633.453z"
       id="path4597">
    </path>

  </g>
  <g
     id="g4598"
     style="fill: #39a9fa">    <path
       d="M146.102 636.662C144.909 638.679 143.34 641.592 140.427 639.949C136.993 638.307 132.065 637.859 130.721 633.453L131.094 631.511C135.201 635.319 140.876 635.545 146.102 636.662z"
       id="path4599">
    </path>

  </g>
  <g
     id="g4600"
     style="fill: #f9cbd4">    <path
       d="M238.621 642.04C237.576 640.921 237.725 638.904 237.126 637.41L240.038 636.514C240.113 638.231 239.368 640.324 238.621 642.04z"
       id="path4601">
    </path>

  </g>
  <g
     id="g4602"
     style="fill: #f9cbd4">    <path
       d="M137.889 640.847C139.308 641.069 140.651 641.667 142.22 641.742C141.173 643.907 138.934 644.279 137.143 645.849C134.678 644.653 132.96 641.294 130.198 639.575L131.467 637.26C133.258 638.904 135.872 639.276 137.889 640.847z"
       id="path4603">
    </path>

  </g>
  <g
     id="g4604"
     style="fill: #39a9fa">    <path
       d="M147.372 690.279C145.804 699.835 150.51 707.678 151.479 716.636C144.534 709.394 137.366 701.404 128.181 698.194C122.954 696.924 117.951 694.981 112.948 692.966C108.318 692.368 104.138 693.863 100.105 695.131C99.583 697.296 97.043 696.027 95.774 697.073C101.001 686.694 105.929 676.239 112.276 666.233C123.701 674.897 136.619 680.421 147.372 690.279z"
       id="path4605">
    </path>

  </g>
  <g
     id="g4606"
     style="fill: #000000">    <path
       d="M153.868 689.383C154.616 689.682 155.96 687.963 155.96 689.533C154.914 690.352 153.495 690.352 152.375 689.533C151.106 688.561 149.836 687.44 149.388 685.797L149.686 684.527C150.21 686.694 152.15 688.038 153.868 689.383z"
       id="path4607">
    </path>

  </g>
  <g
     id="g4608"
     style="fill: #f0b97e">    <path
       d="M330.69 690.8C330.988 692.816 331.585 695.503 331.585 697.596C331.585 698.117 331.512 699.089 332.11 699.611C333.826 699.164 335.096 697.745 336.812 697.296C337.861 696.552 339.501 696.848 340.173 695.503C337.934 695.431 335.768 696.774 333.751 697.82C333.228 696.102 333.678 692.966 333.006 691.176C344.729 693.04 356.899 694.906 367.802 699.239C376.39 702.375 385.5 710.365 385.351 720.37C384.006 730.375 390.503 739.933 384.68 748.52C385.574 749.718 383.783 750.687 383.409 751.731C379.826 754.196 378.332 758.752 374.076 760.171C363.099 765.995 351.002 769.204 338.606 771.596C337.785 772.044 338.309 772.492 338.381 773.09L337.861 773.09C331.435 763.606 328.152 751.731 328.897 740.456C332.408 741.428 336.441 741.578 340.025 741.727C340.623 741.353 340.473 740.456 340.025 740.082C335.694 739.561 331.214 739.114 327.106 737.918C328.525 736.499 330.766 737.994 331.585 735.753C329.87 734.557 327.777 735.753 326.06 736.126C325.016 736.499 323.897 736.724 322.999 737.396C311.874 735.529 300.449 737.396 289.847 740.607C276.777 744.192 264.381 750.39 251.688 755.317C242.43 760.319 232.797 764.427 221.744 765.173C214.579 764.949 208.454 762.186 202.031 760.171C198.82 759.944 196.43 757.78 193.444 757.109C192.623 754.121 193.369 750.912 194.192 748.148C195.834 747.253 198.894 748.599 199.866 746.208C200.09 741.054 197.328 736.276 197.776 730.602C199.642 727.465 201.286 723.805 203.301 720.595C212.634 704.314 229.959 696.699 245.94 691.176C247.731 690.651 250.194 692.294 251.688 690.428C268.563 688.411 285.889 686.097 303.136 687.59C312.396 687.889 321.879 688.784 330.69 690.8z"
       id="path4609">
    </path>

  </g>
  <g
     id="g4610"
     style="fill: #be0003">    <path
       d="M214.725 693.115L214.054 693.489C211.666 692.443 208.678 692.669 206.139 691.922L205.617 690.428C208.901 690.8 212.412 690.876 214.725 693.115z"
       id="path4611">
    </path>

  </g>
  <g
     id="g4612"
     style="fill: #f0b97e">    <path
       d="M122.654 698.492C127.659 699.462 131.841 702.524 136.246 704.765C140.876 709.095 146.476 713.128 150.06 718.579L151.479 719.325C150.435 728.063 152.599 736.202 153.122 744.938C153.644 746.955 155.811 746.655 157.453 746.878L158.871 745.311C158.498 749.119 159.245 752.555 160.291 755.839C161.559 758.005 163.948 757.033 165.815 756.735C166.786 759.199 164.546 760.095 162.829 760.842C149.911 766.294 135.499 771.222 120.863 769.131L119.445 768.385C122.058 765.101 124.821 761.89 125.494 757.856L124.971 756.735C123.178 757.78 122.88 760.768 121.609 762.635C115.338 770.548 106.601 776.151 97.939 780.034C97.491 780.705 96.745 780.781 96.297 781.452C96.222 782.049 96.372 782.572 96.82 782.944C99.657 781.452 102.568 780.256 105.257 778.615C101.001 785.934 93.522 792.851 86.279 797.556C80.878 800.423 74.01 801.5 67.898 800.299C57.965 798.807 47.238 792.577 43.802 782.198C43.131 781.452 42.689 780.667 41.868 779.993L40.013 779.067C33.891 773.316 33.796 765.249 36.261 757.631C38.053 750.239 41.861 743.22 44.176 735.753C47.76 727.239 55.302 719.85 62.619 713.726C72.028 705.885 83.527 702.898 94.728 699.239C101.151 697.447 107.645 692.592 114.964 696.027C117.578 696.626 120.042 697.896 122.654 698.492z"
       id="path4613">
    </path>

  </g>
  <g
     id="g4614"
     style="fill: #000000">    <path
       d="M322.103 698.715C322.178 698.864 321.954 699.089 321.731 699.089L321.208 699.089L321.208 698.492C321.507 698.565 321.954 698.343 322.103 698.715z"
       id="path4615">
    </path>

  </g>
  <g
     id="g4616"
     style="fill: #000000">    <path
       d="M325.688 698.715L325.84 698.492L330.168 698.864L325.688 698.715z"
       id="path4617">
    </path>

  </g>
  <g
     id="g4618"
     style="fill: #000000">    <path
       d="M185.231 715.367C185.305 715.89 185.005 715.89 184.633 716.114C183.29 715.665 182.468 712.678 180.526 713.726C180.302 713.948 180.152 714.322 179.854 714.322C179.257 713.65 180.152 713.202 180.377 712.678C182.841 711.781 183.812 713.948 185.231 715.367z"
       id="path4619">
    </path>

  </g>
  <g
     id="g4620"
     style="fill: #39a9fa">    <path
       d="M183.214 721.491C185.977 729.329 189.113 737.098 191.503 745.088L192.697 746.878C191.727 749.643 190.98 752.629 191.279 755.692L191.279 756.214C186.799 754.794 181.049 755.168 176.793 755.839L177.688 754.943C177.614 743.22 176.494 729.928 180.75 718.429C182.394 718.279 182.543 720.37 183.214 721.491z"
       id="path4621">
    </path>

  </g>
  <g
     id="g4622"
     style="fill: #39a9fa">    <path
       d="M170.521 756.065L171.417 757.481L167.832 758.752C166.338 754.121 168.354 748.072 166.935 743.668C166.935 738.067 168.28 731.871 168.505 726.12C169.176 735.826 167.683 746.506 170.521 756.065z"
       id="path4623">
    </path>

  </g>
  <g
     id="g4624"
     style="fill: #a60d17">    <path
       d="M322.852 739.188L326.958 739.561C326.06 751.211 328.974 762.635 334.799 772.193L337.185 775.553C326.135 776.823 315.085 776.823 303.81 776.97C296.416 777.868 289.098 778.987 281.631 779.511C276.853 780.556 271.923 781.004 267.445 782.572C262.441 783.544 258.332 786.828 253.106 787.2C248.85 788.245 245.565 791.532 241.458 792.951C238.92 795.417 235.484 796.087 233.394 799.225C232.422 798.7 231.899 796.535 230.557 797.583C230.331 799.148 233.992 801.017 230.856 801.912C229.213 802.51 227.045 802.062 225.478 802.957L225.478 803.555C226.599 804.227 228.242 803.63 229.435 804.077C228.392 807.364 223.465 808.557 225.329 813.039C224.954 814.232 223.016 814.232 223.687 815.727C226.375 816.77 224.507 820.953 225.329 823.044C225.555 836.784 239.218 844.623 246.834 854.405C248.776 858.589 249.971 863.365 249.373 868.37C243.025 870.91 234.886 869.117 228.392 867.848C224.583 867.1 220.997 865.98 217.637 864.111C210.992 860.455 203.227 858.589 198.074 852.093C196.058 851.046 195.237 848.955 193.594 847.237C195.312 837.829 194.79 826.852 190.906 818.786C190.681 816.847 188.516 816.175 188.068 814.082C185.305 811.244 182.394 807.961 179.481 805.123C178.435 804.898 178.36 803.481 177.166 803.703L177.166 804.45L186.275 814.978C177.241 823.269 175.599 834.617 170.521 844.549L169.4 848.507C167.683 847.013 165.891 845.22 164.397 843.505C163.724 841.189 166.264 840.144 166.413 838.126C170.67 827.376 173.134 815.874 176.046 804.599C177.017 804.376 177.241 803.031 176.569 802.436L175.897 801.912C179.106 791.981 182.093 780.556 192.026 774.88C198.596 769.878 206.587 768.458 214.428 766.441C215.176 765.622 216.667 766.441 217.787 766.441C225.853 766.517 234.139 765.399 241.458 762.112C245.641 760.171 250.118 758.153 254.153 756.362C258.408 754.345 263.114 753.301 267.294 750.986C274.761 748.072 282.379 743.742 290.594 742.399L291.115 741.876L291.488 742.25L296.864 740.607C299.03 740.082 301.644 739.487 304.182 739.188C306.944 738.665 309.109 738.888 312.097 738.291C315.682 738.592 319.638 738.291 322.852 739.188z"
       id="path4625">
    </path>

  </g>
  <g
     id="g4626"
     style="fill: #be0003">    <path
       d="M198.074 742.399C197.925 744.041 198.746 746.059 196.505 746.208C195.163 746.655 194.138 745.426 193.818 744.041C193.275 741.691 193.146 739.411 195.237 738.814C197.103 738.888 197.478 741.129 198.074 742.399z"
       id="path4627">
    </path>

  </g>
  <g
     id="g4628"
     style="fill: #be0003">    <path
       d="M158.076 740.248C158.356 741.862 158.273 743.818 157.079 745.311C156.034 745.463 154.541 745.161 154.764 743.818C154.242 741.876 154.285 740.068 156.09 739.346C156.688 739.568 157.553 739.726 158.076 740.248z"
       id="path4629">
    </path>

  </g>
  <g
     id="g4630"
     style="fill: #be0003">    <path
       d="M165.666 752.253C166.188 753.226 165.144 754.196 165.517 755.168C164.397 755.241 163.053 756.586 162.082 755.317C160.664 753.675 160.949 751.688 161.867 749.635C164.182 746.723 165.115 749.635 165.666 752.253z"
       id="path4631">
    </path>

  </g>
  <g
     id="g4632"
     style="fill: #be0003">    <path
       d="M175.673 750.986C175.673 752.777 176.793 755.839 174.104 756.362C173.059 756.959 172.238 756.287 171.938 755.317C171.865 755.019 171.285 753.394 171.433 753.246C171.584 751.529 171.565 750.687 172.685 749.045C174.104 749.045 175.374 749.566 175.673 750.986z"
       id="path4633">
    </path>

  </g>
  <g
     id="g4634"
     style="fill: #a60d17">    <path
       d="M129.825 771.596L135.723 771.445C138.336 777.345 146.401 779.062 148.792 785.409C152.375 792.577 152.748 801.912 149.911 809.453C145.056 821.925 153.421 832.899 152.375 845.818C151.927 851.195 152.077 857.018 150.284 861.573C149.986 862.695 152.375 864.337 150.284 864.636C143.788 865.009 138.859 868.892 131.99 868.219C124.374 870.086 115.786 869.041 109.589 865.009C109.14 865.383 108.767 865.16 108.692 864.636C104.884 848.73 115.04 836.409 115.861 821.251C115.935 818.863 115.711 816.395 116.01 814.082C121.535 814.978 129.077 814.606 132.512 809.081C132.587 808.707 132.438 808.407 132.139 808.183C127.733 812.962 120.042 813.112 114.068 811.769C113.994 810.349 115.935 811.619 116.533 810.723C117.353 810.051 118.176 809.602 118.324 808.557C116.756 807.512 115.189 810.498 113.545 808.707C112.799 807.512 110.634 806.987 111.754 805.494C112.202 804.302 113.023 805.644 113.695 805.644C116.084 806.467 118.698 804.974 120.117 803.183C120.192 802.807 120.117 802.51 119.818 802.285C117.727 802.807 115.786 804.526 113.545 803.332C110.858 801.39 110.933 797.209 107.049 796.908C104.287 795.641 98.577 798.951 94.733 799.178C98.351 794.205 104.062 787.575 108.692 785.409C108.841 784.889 109.738 784.44 109.214 783.843C108.617 784.142 107.423 783.916 106.901 784.738C105.781 785.484 104.809 786.828 103.465 787.054C96.82 794.147 91.343 804.376 79.145 806.334C74.212 807.128 69.085 806.33 64.605 804.688C62.739 803.941 61.351 801.836 60.081 800.269C64.562 802.21 69.265 802.807 74.643 802.957C88.007 801.315 99.208 790.562 107.273 779.659L107.572 777.567C111.157 775.179 114.592 772.342 118.027 769.652C121.237 772.492 125.642 770.998 129.825 771.596z"
       id="path4635">
    </path>

  </g>
  <g
     id="g4636"
     style="fill: #ffffff">    <path
       d="M340.398 772.866C340.623 773.536 340.249 774.283 339.501 774.507C339.353 774.433 339.277 774.283 339.129 774.283C339.726 774.209 340.025 773.239 340.398 772.866z"
       id="path4637">
    </path>

  </g>
  <g
     id="g4638"
     style="fill: #4f1800">    <path
       d="M188.963 819.309C185.827 825.807 182.766 832.23 181.272 839.397C178.435 841.487 174.926 842.085 172.461 845.072C172.088 843.505 173.731 842.76 173.88 841.34C178.212 832.977 179.63 822.972 187.545 816.624L188.963 819.309z"
       id="path4639">
    </path>

  </g>
  <g
     id="g4640"
     style="fill: #ffffff">    <path
       d="M154.167 842.384L154.391 843.654L154.167 842.384z"
       id="path4641">
    </path>

  </g>
  <g
     id="g4642"
     style="fill: #be4800">    <path
       d="M154.167 853.735C154.167 859.633 155.735 865.531 154.914 871.059C154.391 868.892 153.047 866.427 153.271 863.891L152.599 862.844C153.421 857.018 154.541 851.346 154.391 845.072C155.362 847.61 154.018 850.747 154.167 853.735z"
       id="path4643">
    </path>

  </g>
  <g
     id="g4644"
     style="fill: #be4800">    <path
       d="M203.739 859.539C210.731 863.338 216.708 866.798 224.88 868.996C227.716 870.191 231.738 870.664 235.559 870.91C236.904 871.432 245.641 871.728 248.477 870.91C248.181 873.446 247.207 876.358 246.31 878.974C245.565 880.839 243.772 882.407 242.356 883.827C239.898 884.2 237.424 883.453 234.663 883.305C224.433 880.616 214.68 879.749 204.853 873.26C199.477 871.034 196.73 867.1 192.399 864.636L192.026 864.111C192.399 858.81 192.548 853.735 193.295 848.358C195.759 852.911 198.734 855.645 203.739 859.539z"
       id="path4645">
    </path>

  </g>
  <g
     id="g4646"
     style="fill: #be4800">    <path
       d="M152.599 869.267C153.346 872.775 151.329 880.243 151.329 880.243L150.284 881.288C144.909 884.049 138.262 882.781 132.139 883.081C124.671 882.557 116.682 884.499 109.961 881.139C110.41 876.508 109.738 872.179 110.485 867.698C117.13 870.162 124.374 872.179 131.766 870.013C138.709 870.61 144.459 866.951 150.808 866.278C151.031 865.905 151.404 865.684 151.852 865.684L152.599 869.267z"
       id="path4647">
    </path>

  </g>
  <g
     id="g4648"
     style="fill: #000000">    <path
       d="M171.79 426.836C173.209 427.285 175.599 427.21 175.897 429.001C173.955 428.255 171.565 428.33 169.773 427.583C170.594 425.418 171.865 423.477 172.088 421.087C172.76 420.863 172.984 420.788 173.358 421.46C173.656 423.626 172.312 425.044 171.79 426.836z"
       id="path4649">
    </path>

  </g>
  <g
     id="g4650"
     style="fill: #000000">    <path
       d="M175.897 434.154L180.75 434.528C181.646 433.558 182.841 433.034 184.111 432.735C184.409 432.96 184.558 433.258 184.484 433.632C181.124 438.26 175.972 434.752 171.79 434.378C169.475 434.006 166.786 434.677 165.293 432.362C164.845 431.915 165.293 431.168 165.666 430.944C168.429 433.707 172.685 432.735 175.897 434.154z"
       id="path4651">
    </path>

  </g>
  <g
     id="g4652"
     style="fill: #000000">    <path
       d="M176.046 440.65C175.15 442.145 176.195 443.638 176.793 444.907C175.972 445.056 175.449 444.086 175.15 443.489C174.926 442.518 174.926 440.801 176.046 440.65z"
       id="path4653">
    </path>

  </g>
  <g
     id="g4654"
     style="fill: #be0003">    <path
       d="M344.125 590.297C344.125 590.297 346.225 591.798 345.624 593.448C345.024 595.099 345.55 595.296 345.55 595.296C345.55 595.296 348.026 594.198 348.026 592.098C348.026 589.998 348.177 589.398 346.974 589.099C345.773 588.798 344.723 589.099 344.125 590.297z"
       id="path4655">
    </path>

  </g>
  <g
     id="g4656"
     style="fill: #000000">    <path
       d="M343.886 590.632L343.886 590.632C343.903 590.646 345.724 591.973 345.239 593.307C344.551 595.193 345.191 595.6 345.406 595.682L345.562 595.74L345.718 595.672C345.828 595.623 348.435 594.439 348.435 592.098L348.44 591.47C348.454 589.855 348.462 589.044 347.073 588.698C345.579 588.323 344.399 588.826 343.755 590.113L343.599 590.428L343.886 590.632z"
       id="path4657">
    </path>

  </g>
  <g
     id="g4658"
     style="fill: #000000">    <path
       d="M346.875 589.497C347.588 589.675 347.633 589.786 347.616 591.463L347.615 592.098C347.615 593.901 345.404 594.911 345.383 594.92L345.695 594.911C345.763 594.937 345.785 594.967 345.788 594.969C345.785 594.964 345.618 594.671 346.011 593.589C346.71 591.667 344.459 590.031 344.362 589.962L344.491 590.481C344.959 589.549 345.76 589.218 346.875 589.497z"
       id="path4659">
    </path>

  </g>

</svg>
