<?xml version="1.0" standalone="no"?>
<!DOCTYPE svg PUBLIC "-//W3C//DTD SVG August 1999//EN"
"http://www.w3.org/Graphics/SVG/SVG-19990812.dtd">
<svg
   sodipodi:docbase="/local/lemmit/dokumendid/indian-summer/manga/"
   sodipodi:docname="/local/lemmit/dokumendid/indian-summer/manga/manga_5.svg"
   xmlns:sodipodi="http://sodipodi.sourceforge.net/DTD/sodipodi-0.dtd"
   xmlns="http://www.w3.org/Graphics/SVG/SVG-19991203.dtd"
   id="svg1192">  <sodipodi:namedview
     id="base">
  </sodipodi:namedview>
  <g
     transform="matrix(1 0 0 1 86.021 -188.526)"
     id="g1686">    <g
       id="g1577"
       style="fill: #000000">      <path
         d="M184.253 391.469C186.396 396.827 192.827 400.534 195.875 405.48C203.456 416.357 207.577 432.099 200.078 444.296C197.521 448.5 199.336 453.773 202.055 457.319C202.467 456.823 202.959 457.565 203.373 457.73C203.621 458.142 203.126 458.472 202.797 458.554C200.818 458.308 199.086 457.73 197.438 456.741C196.12 458.883 196.039 461.52 195.297 463.829L191.178 472.977C191.507 473.635 192.249 473.061 192.742 472.977C200.407 473.635 208.483 472.151 215.817 474.954C217.302 476.933 218.044 473.802 219.443 473.966C221.502 473.307 223.233 474.13 225.131 474.13C229.827 478.415 236.091 480.311 241.943 482.454C243.673 484.431 246.309 484.102 248.126 485.833C251.255 488.965 256.034 490.283 257.766 494.734C262.219 501.326 268.316 505.531 272.438 512.534C276.969 520.118 280.596 528.029 281.501 537.013C283.149 548.055 284.139 559.265 290.978 568.082C291.475 569.648 291.885 570.719 291.39 572.45C294.524 587.45 299.057 601.79 303.672 616.13C307.795 625.029 312.983 633.519 315.539 643.079C324.44 658.571 332.434 674.396 337.874 691.538C341.662 702.581 345.456 713.13 348.34 724.339L350.565 726.481L350.728 726.318C351.223 727.142 352.294 730.273 351.307 732.251C353.036 738.102 357.324 742.8 359.055 748.652C362.597 755.08 369.767 759.857 372.076 766.865C373.062 768.431 373.393 770.491 374.877 771.644C379.494 771.151 384.438 773.374 387.321 777.332C387.899 778.156 386.992 779.721 388.144 780.131C399.104 782.519 400.344 793.814 401.578 803.292C401.578 804.857 401.167 807.082 399.766 807.988C400.096 813.098 401.25 818.62 400.755 824.061C401 824.551 401.828 824.308 401.578 825.048C400.674 825.79 399.517 825.954 398.447 826.368C390.535 830.982 382.87 835.927 375.041 840.627C371.334 841.945 367.131 842.192 363.834 844.579C362.35 843.097 361.443 840.953 360.455 839.062C352.541 831.809 349.574 822.413 341.826 815.322C343.229 813.013 341.662 810.215 342.404 807.578C339.769 806.257 337.295 808.731 334.741 807.578C333.342 805.352 329.796 803.787 328.975 800.903C327.984 786.397 329.962 774.116 329.551 760.352C331.116 756.233 333.093 751.124 338.12 750.216C337.544 745.602 335.402 741.07 332.763 737.033C331.363 737.28 331.444 735.382 330.207 735.22C329.303 733.652 328.644 731.755 329.22 729.858C320.153 717.582 308.699 705.465 302.519 691.538C298.069 683.297 295.924 674.233 290.978 666.154C287.602 662.364 285.209 657.419 281.914 653.133C268.233 638.545 260.898 621.24 251.832 604.673L246.478 598.328C246.228 599.152 244.305 602.625 243.92 604.263C242.519 610.773 244.334 617.367 242.356 624.042C241.943 625.69 241.756 628.727 239.224 628.244C236.505 626.843 237.614 629.741 233.884 630.205C231.657 629.612 230.735 628.244 229.335 629.644C226.696 632.449 223.563 627.502 221.009 630.799C217.217 632.449 213.841 628.162 210.298 626.843C210.791 624.287 208.566 621.815 209.887 619.099C208.897 616.791 208.235 613.163 204.938 612.997L207.165 611.596C205.352 609.454 205.352 606.321 206.589 603.933L207.741 602.284C201.642 594.784 195.544 587.862 188.374 581.351L187.219 581.763C170.902 596.926 156.067 615.06 145.849 633.934C141.233 647.033 127.381 655.065 122.525 667.554C121.124 669.697 120.136 672.335 118.981 674.314C115.108 683.794 104.23 686.51 98.955 695.083C94.505 699.614 92.032 704.974 88.076 709.67C85.704 713.655 86.686 713.764 85.934 716.593C85.274 718.156 84.286 719.807 82.721 720.795C83.626 722.773 84.286 724.751 84.698 726.894C91.62 726.976 91.291 734.89 93.02 739.586C93.268 742.717 93.02 746.263 90.877 748.652C89.808 754.749 88.654 762.331 90.877 768.269C89.065 769.584 87.087 770.491 85.522 772.223C83.626 771.565 81.565 771.314 79.589 770.823C78.352 773.869 81.482 777.989 77.609 779.886L77.609 780.297L77.445 780.131C70.358 789.114 61.353 798.809 53.855 807.379C53.524 808.288 25.256 791.014 23.69 790.272C22.783 790.107 21.979 789.199 21.65 788.457C23.298 782.519 21.65 775.93 23.053 769.422C20.991 767.36 23.546 765.053 23.053 762.907C25.607 753.762 34.837 747.91 42.832 744.118L44.149 744.284C43.902 743.295 44.562 742.141 45.551 741.315C48.435 741.481 47.941 737.856 50.496 737.195C52.967 738.185 52.804 735.632 54.04 734.641C61.292 728.954 65.989 721.537 65.331 712.637C66.319 711.154 67.555 709.67 69.286 708.928C72.995 692.608 81.978 678.435 87.912 663.023C93.681 652.638 102.911 642.665 109.092 633.353L108.844 633.191L109.092 633.353C109.176 632.777 109.586 632.119 110.082 631.788L109.834 631.622C111.648 628.819 114.036 624.701 116.18 621.323C122.443 601.708 130.355 582.587 137.771 563.713C138.513 562.561 138.843 561.159 139.503 560.005C139.008 560.335 138.019 559.429 138.761 558.769C139.997 555.638 142.222 552.836 144.447 550.116C137.69 545.419 130.025 541.627 125.246 534.458C117.167 529.1 114.778 519.87 115.768 511.135C116.922 504.789 123.019 500.75 128.047 496.135C130.273 494.816 132.084 493.195 134.557 492.535C133.815 491.051 135.876 489.955 136.534 488.8C137.853 487.893 139.832 487.976 141.315 487.976C143.623 487.235 145.519 485.504 147.662 484.267C148.238 484.267 148.815 484.267 149.228 483.607C148.486 482.537 149.887 480.311 147.991 479.898C146.096 480.394 144.365 477.509 142.882 479.652C136.288 488.553 126.894 495.063 115.602 494.734C113.872 494.321 111.565 494.075 110.824 492.509C111.648 491.767 112.883 492.097 113.625 491.19C112.307 490.367 110.164 490.613 109.422 489.212C113.789 488.47 116.756 484.019 120.136 481.3C117.499 481.465 114.202 480.971 111.235 480.888L110.824 480.311C112.554 478.498 115.191 477.097 116.344 474.543C111.894 473.884 105.961 475.367 102.333 472.151C99.943 469.433 97.224 468.032 95.412 464.817C96.235 464.076 97.472 464.817 98.543 465.065C104.724 465.807 110.246 462.923 114.036 458.142C118.24 452.702 112.141 447.593 111.648 442.071C108.102 431.192 104.312 419.161 106.455 407.128C107.197 404.079 109.834 401.77 111.235 398.969C117.499 391.058 121.536 376.8 133.816 376.8C137.276 376.223 140.904 374.656 144.694 375.81C152.524 375.894 159.776 372.102 166.781 376.059C172.963 380.672 178.979 385.452 184.253 391.469z"
         id="path1578">
      </path>

    </g>
    <g
       id="g1579"
       style="fill: #ffd3d8">      <path
         d="M175.353 446.027C173.54 447.264 172.715 449.818 170.737 450.643C168.758 445.45 172.386 440.918 174.528 436.962L169.995 435.395C165.958 435.395 162.248 436.383 159.118 438.527L158.541 437.949C159.035 435.643 160.107 433.583 161.095 431.439L160.847 431.192C160.684 431.606 160.189 431.357 159.859 431.439C146.92 436.137 146.178 451.054 146.013 463.251C147.168 468.114 146.26 473.061 144.86 477.509C148.898 478.994 150.717 478.887 155.888 480.747L158.129 481.3C164.638 482.537 170.647 482.692 177.49 483.434C177.49 483.434 181.036 483.648 182.648 482.896C184.259 482.143 190.925 471.933 193.897 463.829C194.64 461.274 195.332 459.357 196.12 456.165C194.804 455.339 193.897 454.022 193.155 452.785C190.682 446.769 193.961 439.188 195.878 435.776C195.098 435.28 194.35 436.236 194.386 436.132C191.6 438.418 189.139 440.233 185.819 441.082C181.757 442.232 177.643 442.515 175.353 446.027z"
         id="path1580">
      </path>

    </g>
    <g
       id="g1581"
       style="fill: #ff4700">      <path
         d="M184.582 396.001C177.331 390.81 167.853 390.316 158.706 391.882L158.129 392.624C157.634 392.789 156.81 392.542 156.15 392.458C152.193 393.366 148.733 396.496 144.86 396.414L144.86 396.249C147.744 394.106 151.618 393.117 154.75 391.469L151.369 390.316C149.392 389.161 146.673 390.892 145.025 389.491C145.767 389.409 145.849 388.996 146.426 388.502C150.463 387.925 154.172 389.161 157.551 390.892C160.684 389.82 164.228 389.657 167.77 389.491C173.705 388.421 179.144 391.964 184.006 393.613L182.027 390.644C175.271 384.875 169.171 376.551 160.271 375.481C153.184 377.129 143.871 377.047 136.371 377.789C135.217 378.284 134.227 377.211 133.404 378.448C128.954 378.696 125.41 380.425 122.525 383.969C117.417 390.81 113.378 398.145 108.434 405.15C106.619 410.425 106.866 416.357 107.443 422.127C109.668 432.923 112.966 443.472 117.333 453.197C116.509 455.67 116.015 458.225 114.202 460.285C109.834 464.652 104.23 467.537 98.213 466.22L99.943 468.032C103.735 472.893 109.834 472.977 115.768 472.977C116.756 472.729 117.417 472.07 118.322 472.729C127.636 464.323 122.36 449.901 127.471 439.764C128.376 439.929 127.965 438.857 128.624 438.527L129.202 439.105C124.173 448.5 128.954 461.769 122.113 470.421C119.476 473.802 116.509 477.097 113.212 479.652C115.602 479.735 118.816 479.486 121.124 479.898C126.398 472.151 128.376 462.757 129.612 453.609C129.612 439.764 138.183 426.743 150.381 420.562C153.924 419.079 157.881 418.748 160.684 415.616C164.31 414.38 159.282 411.248 162.662 409.848C164.475 411.084 163.815 412.649 164.228 414.38C159.776 421.55 150.381 419.654 145.272 425.918C136.783 430.946 132.827 440.175 131.592 448.994C129.612 463.251 127.718 479.322 114.202 488.388C113.542 488.884 112.471 488.965 112.224 489.541C118.816 490.531 123.431 486.08 127.636 481.63C128.13 481.795 128.542 482.372 128.624 482.866L123.267 487.976C120.382 490.201 116.509 490.696 113.789 492.921C121.619 493.085 129.861 492.015 135.547 485.833C139.503 481.465 144.53 477.509 144.86 471.74C144.612 460.614 143.789 449.57 148.651 439.515C151.782 434.654 155.985 429.627 162.248 429.627C166.122 425.012 171.231 422.457 176.094 419.736C177.084 418.582 178.32 416.934 177.66 415.206C177.496 411.825 174.2 410.26 171.973 408.446L172.55 407.87C175.353 408.612 178.237 410.507 178.649 413.638C182.275 422.375 170.737 422.457 166.781 426.907C164.475 429.709 161.342 432.511 160.684 436.137C165.216 433.171 171.644 433.088 176.341 435.808C178.897 432.676 183.018 430.698 183.018 426.496C182.852 425.012 181.616 426.99 181.287 425.506C180.709 425.012 180.793 424.271 181.451 423.941C182.027 423.693 183.018 423.693 183.429 424.518C184.666 425.423 184.83 426.99 184.582 428.227C180.709 434.737 171.479 439.433 171.973 447.839C172.632 447.428 172.632 446.769 173.128 446.274L174.144 445.244C175.793 443.677 175.435 442.895 177.66 441.907C183.018 440.339 189.064 438.855 193.515 435.229C194.035 434.966 195.185 433.828 195.929 433.98C195.795 432.895 195.148 431.738 196.698 431.439C198.263 432.676 197.109 434.737 196.862 436.137C194.64 440.589 192.742 445.616 194.141 450.972C194.804 453.609 197.274 454.846 199.417 455.917C194.062 448.83 200.982 441.907 201.808 434.984C205.105 419.489 196.12 405.562 184.582 396.001z"
         id="path1582">
      </path>

    </g>
    <g
       id="g1583"
       style="fill: #000000">      <path
         d="M168.43 446.274L168.43 446.688C163.899 446.934 158.293 445.121 154.172 447.428C152.36 449.488 151.369 453.362 148.238 453.197C148.404 451.713 149.392 449.652 150.958 448.253C153.43 443.061 160.354 444.956 165.051 445.038C165.875 446.027 167.441 445.533 168.43 446.274z"
         id="path1584">
      </path>

    </g>
    <g
       id="g1585"
       style="fill: #000000">      <path
         d="M176.601 454.822C177.42 459.425 183.759 460.451 179.638 463.829C179.473 464.487 179.144 465.229 178.484 465.477L178.073 465.477C178.749 463.62 181.345 461.598 178.954 459.783C176.152 457.393 175.435 454.433 175.106 450.972C175.023 450.479 175.601 449.982 176.094 450.23C176.295 451.856 175.937 452.52 176.601 454.822z"
         id="path1586">
      </path>

    </g>
    <g
       id="g1587"
       style="fill: #000000">      <path
         d="M169.737 450.929L171.337 451.793C170.526 452.488 169.713 451.561 168.786 451.444C169.946 453.532 168.786 456.083 169.946 458.404C170.949 458.4 171.106 457.931 171.918 457.358C172.612 458.171 171.231 458.798 170.636 459.386C167.775 462.22 162.266 461.377 161.151 465.092C160.778 466.083 160.32 467.679 159.625 467.331C159.168 465.836 162.017 464.102 159.417 462.74L156.94 465.589C157.188 464.102 157.653 462.229 159.393 461.532C158.04 460.287 156.42 458.128 157.681 455.068C155.593 455.532 151.856 457.822 149.883 456.199L150.463 455.619C151.274 456.547 153.926 455.068 154.621 455.068C154.274 454.024 150.927 454.111 151.044 452.836C152.667 453.301 155.683 454.576 157.421 452.836C156.727 451.793 154.754 451.677 153.827 450.053L155.52 450.208C160.74 453.688 163.458 447.46 169.737 450.929z"
         id="path1588">
      </path>

    </g>
    <g
       id="g1589"
       style="fill: #ffffff">      <path
         d="M166.507 453.633C166.919 455.285 165.955 456.249 164.853 457.352C163.201 457.764 162.512 456.387 161.962 455.285C161.687 454.184 162.1 452.944 163.201 452.67C164.579 452.531 165.679 452.944 166.507 453.633z"
         id="path1590">
      </path>

    </g>
    <g
       id="g1591"
       style="fill: #ffffff">      <path
         d="M163.22 459.793C163.22 460.49 163.451 461.186 162.755 461.532C161.828 461.532 161.131 460.49 160.784 459.793C160.32 457.59 163.334 458.404 163.22 459.793z"
         id="path1592">
      </path>

    </g>
    <g
       id="g1593"
       style="fill: #000000">      <path
         d="M175.322 463.875C174.863 464.541 176.356 464.884 176.192 465.462C175.946 465.874 175.498 465.555 175.168 465.308C174.179 464.648 174.364 463.251 174.942 462.511L175.931 461.686L175.885 462.391L175.322 463.875z"
         id="path1594">
      </path>

    </g>
    <g
       id="g1595"
       style="fill: #000000">      <path
         d="M183.429 467.455C182.852 468.607 180.874 468.197 180.051 469.596C178.32 470.916 175.847 468.443 174.528 470.998L173.952 470.998C173.622 469.928 175.235 469.046 176.142 468.633C180.688 470.155 180.546 466.136 183.429 467.455z"
         id="path1596">
      </path>

    </g>
    <g
       id="g1597"
       style="fill: #000000">      <path
         d="M183.842 470.585C182.522 471.494 182.193 473.143 180.461 473.553C179.062 473.224 177.414 473.471 176.341 472.564C177.414 471.328 178.815 473.307 180.297 472.4C181.616 472.151 182.357 469.35 183.842 470.585z"
         id="path1598">
      </path>

    </g>
    <g
       id="g1599"
       style="fill: #ffd3d8">      <path
         d="M215.817 476.52C212.849 483.525 209.39 490.283 208.316 498.113C207.082 507.92 209.968 517.562 214.828 525.557C218.372 530.666 219.197 538.825 216.475 544.594C211.782 550.446 205.186 554.153 199.086 557.78C194.968 554.977 190.187 552.505 187.385 547.89C187.88 543.688 185.902 539.897 185.407 535.858C185.819 532.726 186.808 529.76 188.374 527.369L187.55 526.545C185.324 528.523 185.16 531.572 184.253 534.292C183.264 530.913 180.133 529.183 178.484 526.38C178.073 526.38 177.578 526.299 177.331 526.793C178.897 530.006 182.193 532.479 183.429 535.858C185.737 542.946 187.796 551.848 182.44 558.193L178.649 561.737C171.397 562.973 165.627 558.193 160.518 553.084C151.782 540.721 147.168 526.38 142.305 512.288C140.491 505.036 139.915 497.041 140.491 489.79C143.706 489.212 145.849 485.998 149.392 486.409C149.721 489.047 150.134 491.932 151.947 493.498C152.853 492.261 152.029 490.696 151.369 489.541C150.958 487.315 150.876 484.762 150.216 482.866L150.381 480.888C158.623 483.032 167.277 484.68 176.094 484.844C179.1 485.046 180.709 484.927 182.605 484.019C183.018 483.525 183.677 483.443 184.253 483.278C185.16 486.246 186.065 489.376 188.209 491.932C188.623 491.932 189.116 491.849 189.199 491.355C187.88 488.142 186.065 485.091 185.407 481.63C188.451 478.489 188.869 473.966 193.155 474.377C198.677 474.049 204.938 474.872 210.543 475.12L215.817 476.52z"
         id="path1600">
      </path>

    </g>
    <g
       id="g1601"
       style="fill: #000000">      <path
         d="M183.018 478.332C182.687 478.58 182.935 479.075 182.44 479.322C181.153 478.353 182.433 476.384 180.95 475.642L181.04 474.954C182.44 475.367 182.44 477.181 183.018 478.332z"
         id="path1602">
      </path>

    </g>
    <g
       id="g1603"
       style="fill: #2b87b2">      <path
         d="M224.553 475.943C221.009 475.779 220.514 480.063 218.786 482.29C215.732 490.201 213.016 499.679 215.817 508.58C216.889 518.881 224.965 528.688 234.035 533.302C236.174 541.627 235.597 550.446 236.833 559.182C239.06 561.737 236.01 565.939 235.597 569.318C233.207 579.291 232.301 589.84 231.066 600.305C229.251 598.823 226.86 600.471 226.118 597.173C223.894 593.218 220.267 589.84 219.029 585.471C221.339 586.377 222.904 590.252 225.543 589.263C225.131 587.368 222.823 586.873 221.751 585.471C220.022 583.658 217.795 583.164 215.817 581.763C211.04 581.186 207.741 575.829 202.959 574.428C199.581 571.378 196.203 568.33 192.33 566.516L192.33 566.104C193.648 565.362 195.382 566.846 195.875 564.949L194.883 564.373C186.231 563.878 176.506 567.258 168.184 562.973C162.826 561.159 159.612 555.062 155.326 551.106C151.947 548.632 150.134 544.841 146.673 542.616C144.612 541.298 144.53 538.99 142.718 537.837C143.295 535.446 145.354 533.385 144.86 530.748C139.997 522.755 138.183 514.76 135.794 505.778C135.547 502.398 135.299 498.277 135.959 495.31C135.876 493.662 135.299 491.685 136.534 490.367C137.276 489.707 137.936 489.212 138.925 489.541C137.525 509.651 145.436 527.452 153.595 544.347C156.562 548.797 158.623 554.071 163.073 557.451C169.5 564.044 179.391 564.125 187.796 562.396L199.665 559.016C207.66 554.484 218.044 548.301 219.772 538.66C220.185 528.523 213.51 521.354 210.872 512.534C208.402 503.882 210.132 493.498 213.261 485.42C215.075 481.877 216.312 477.592 219.443 475.12C221.256 475.12 223.068 474.625 224.553 475.943z"
         id="path1604">
      </path>

    </g>
    <g
       id="g1605"
       style="fill: #ffd3d8">      <path
         d="M238.81 483.278C246.723 485.915 255.211 491.024 259.331 499.265C259.828 502.81 263.206 505.201 263.125 508.991C264.36 520.943 262.383 532.974 258.013 543.358C256.2 550.033 254.469 556.708 251.832 562.973C251.172 569.731 250.103 576.818 249.113 583.741C248.342 589.983 243.592 602.201 241.943 606.488C242.275 612.091 242.356 617.778 241.201 623.3C240.38 624.452 240.459 626.346 238.81 626.843C238.068 626.679 236.916 626.019 236.255 626.843C235.102 629.399 232.96 628.572 231.312 627.668C228.757 628.738 227.197 629.117 223.401 628.244L218.336 629.585L214.252 627.254C214.252 627.254 212.273 626.431 211.863 625.854L211.121 621.323C211.531 621.24 212.356 622.558 212.849 623.3C212.606 623.793 212.606 624.535 213.261 624.865L218.456 625.277C220.435 622.477 223.316 619.342 221.589 615.801C220.762 614.398 220.022 612.997 219.197 611.596C218.044 612.833 216.229 612.504 214.828 613.41C212.687 613.246 210.049 615.471 208.316 612.997C211.782 610.525 215.9 609.783 219.197 606.899C223.233 606.899 227.603 608.96 230.488 605.087C232.386 601.544 232.829 598.647 233.293 593.218C235.349 582.339 235.269 571.378 239.389 561.406C240.13 559.921 241.037 558.357 242.19 557.204L241.365 556.462C240.295 556.957 239.389 557.862 238.977 558.769C238.896 558.523 238.647 558.604 238.4 558.604C236.586 550.446 238.068 540.967 235.597 533.056C236.174 529.76 234.433 529.634 233.013 525.022C231.947 523.246 232.796 522.095 231.478 521.601C230.076 522.92 233.192 527.727 233.192 529.456C231.708 529.044 229.993 523.167 228.345 524.403C229.251 526.135 230.488 527.7 231.066 529.512C227.519 527.452 224.47 524.155 221.998 520.612C220.435 518.386 219.443 515.997 219.029 513.276L218.044 511.71C214.497 501.41 216.56 489.79 221.177 480.64L223.401 477.509C229.17 477.345 233.623 481.3 238.81 483.278z"
         id="path1606">
      </path>

    </g>
    <g
       id="g1607"
       style="fill: #000000">      <path
         d="M181.616 493.168C178.815 496.3 174.117 497.784 170.573 496.464L170.573 496.3C174.282 496.218 178.155 495.31 181.04 492.509L181.616 493.168z"
         id="path1608">
      </path>

    </g>
    <g
       id="g1609"
       style="fill: #ffd3d8">      <path
         d="M136.534 513.276C137.359 519.706 140.739 525.062 143.46 530.748C143.377 532.314 142.963 533.88 142.305 535.282C140.739 532.892 138.348 530.337 136.371 528.771L135.547 529.512L139.337 533.88C137.442 534.375 135.299 531.243 134.393 533.468C136.288 535.446 139.255 535.117 141.315 536.848C140.821 538.825 143.295 540.639 144.694 542.369L155.16 553.496C143.377 549.043 132.003 541.215 123.679 530.913C120.713 529.76 119.972 526.628 118.734 524.155C119.146 523.167 117.992 522.92 117.992 522.178C116.756 517.81 115.768 511.053 118.734 507.178C120.465 503.717 124.092 501.904 126.234 498.854C128.954 497.536 131.674 495.722 133.981 493.91C133.651 500.421 134.227 507.262 136.534 513.276z"
         id="path1610">
      </path>

    </g>
    <g
       id="g1611"
       style="fill: #2b87b2">      <path
         d="M281.75 548.138C282.571 556.05 286.033 562.808 289.826 569.483C280.102 570.391 272.438 575.995 263.948 579.784C258.425 583.412 254.086 587.007 248.977 591.457C252.435 585.278 251.093 568.508 255.049 558.769C257.313 553.189 258.425 546.819 260.57 541.381C263.784 534.622 264.031 526.38 264.94 518.881C264.279 514.183 265.595 508.085 263.289 504.212L263.537 503.634C275.484 515.831 280.596 531.737 281.75 548.138z"
         id="path1612">
      </path>

    </g>
    <g
       id="g1613"
       style="fill: #000000">      <path
         d="M203.209 505.778C203.209 509.733 198.511 510.062 195.71 511.135C192.906 511.299 189.199 511.135 186.231 512.288C185.49 513.523 184.171 514.678 184.418 516.078C182.687 516.078 184.006 514.349 183.593 513.523C187.55 507.178 195.71 511.877 200.818 508.003C201.972 507.344 201.808 505.778 203.209 505.778z"
         id="path1614">
      </path>

    </g>
    <g
       id="g1615"
       style="fill: #000000">      <path
         d="M169.418 513.936C171.809 514.432 173.705 516.655 174.117 519.046C173.787 519.128 174.117 519.623 173.705 519.458C172.632 519.375 172.386 517.892 171.726 517.068C168.842 512.7 164.392 517.068 160.518 515.668C155.408 516.161 151.618 513.441 147.002 512.7C146.178 512.123 145.107 511.793 144.447 511.135L144.86 510.557C152.442 513.195 161.178 516.326 169.418 513.936z"
         id="path1616">
      </path>

    </g>
    <g
       id="g1617"
       style="fill: #000000">      <path
         d="M275.815 543.606L275.569 544.594C270.376 551.517 261.805 555.638 257.766 563.137L257.19 563.137L257.19 561.982C261.394 554.731 269.306 551.517 273.59 544.594C273.921 543.441 271.777 542.532 273.424 541.793C274.416 541.875 275.158 543.027 275.815 543.606z"
         id="path1618">
      </path>

    </g>
    <g
       id="g1619"
       style="fill: #000000">      <path
         d="M276.557 547.313C276.146 548.797 274.742 549.539 273.836 550.692C269.142 556.793 264.69 563.385 262.961 570.885C262.628 571.049 262.466 571.46 262.136 571.46L261.558 570.885L265.269 561.159C268.563 556.215 271.613 550.94 275.815 546.572C276.227 546.736 276.393 546.819 276.557 547.313z"
         id="path1620">
      </path>

    </g>
    <g
       id="g1621"
       style="fill: #8e2838">      <path
         d="M196.862 558.44C191.918 560.253 186.561 561.242 181.04 561.737C184.006 559.016 186.313 554.32 187.385 549.868C189.858 553.579 193.319 556.215 196.862 558.44z"
         id="path1622">
      </path>

    </g>
    <g
       id="g1623"
       style="fill: #2b87b2">      <path
         d="M159.118 557.039L161.507 559.758C154.914 558.688 147.662 556.957 141.069 558.193C141.398 556.462 142.882 554.484 143.871 552.836L145.849 550.858C150.299 552.836 154.584 555.144 159.118 557.039z"
         id="path1624">
      </path>

    </g>
    <g
       id="g1625"
       style="fill: #000000">      <path
         d="M228.345 553.084C224.47 557.039 218.95 558.357 213.674 558.769C213.841 556.793 216.724 557.699 218.208 557.204C221.917 556.708 224.801 554.484 227.934 552.671L228.345 553.084z"
         id="path1626">
      </path>

    </g>
    <g
       id="g1627"
       style="fill: #ffd3d8">      <path
         d="M163.073 562.396C165.709 562.313 166.781 564.949 169.418 565.116C175.435 565.939 177.99 572.368 182.852 575.252C184.418 576.818 186.644 577.89 186.973 580.362C181.782 586.377 175.023 591.488 169.995 597.998C165.709 602.12 162.166 607.312 158.293 612.008C151.536 621.568 145.519 631.707 139.749 641.514C137.03 645.387 132.675 651.115 128.472 654.412C122.208 663.394 120.465 673.325 111.648 681.237C100.685 689.312 92.361 700.107 86.345 711.316C82.967 713.955 77.527 714.531 73.653 713.049C72.252 712.143 70.934 711.071 70.275 709.504C71.841 706.207 71.924 702.17 73.489 698.789C77.198 687.418 87.776 666.74 89.065 663.434C90.887 658.768 94.258 655.028 97.224 650.991C106.289 640.11 114.202 628.738 119.558 616.375C124.092 600.06 130.602 584.153 137.771 568.66C138.596 564.949 140.327 562.808 141.893 559.429C148.651 559.758 156.975 559.016 163.073 562.396z"
         id="path1628">
      </path>

    </g>
    <g
       id="g1629"
       style="fill: #ffd3d8">      <path
         d="M196.862 570.885C200.407 574.922 205.105 576.653 208.731 579.949C211.285 581.845 213.92 583.577 216.807 584.483C219.279 589.757 221.751 594.372 225.707 598.987C224.637 598.658 222.243 598.492 221.42 600.305C219.609 599.4 217.549 599.648 215.651 600.142C214.828 600.885 213.92 602.12 214.828 603.109C215.981 603.933 215.813 601.629 216.471 601.136C218.782 599.569 221.884 602.858 223.78 599.892C226.088 599.809 229.221 599.892 230.324 602.284C229.993 603.686 228.84 605.087 227.519 605.664C225.131 606.157 221.963 606.331 219.737 605.176C214.103 608.322 212.273 608.877 208.566 611.019C207.66 609.454 206.67 606.899 207.905 605.087C209.39 603.355 212.934 602.779 212.108 599.729C206.753 593.466 203.538 585.72 196.698 580.525L184.253 568.66C184.088 568 183.511 567.506 183.264 566.929C188.374 563.796 192.577 568.988 196.862 570.885z"
         id="path1630">
      </path>

    </g>
    <g
       id="g1631"
       style="fill: #2b87b2">      <path
         d="M181.451 568.495C186.396 571.214 188.623 575.995 193.319 578.96C199.829 585.143 205.186 592.642 210.132 600.142C210.379 600.966 209.554 602.037 208.731 601.295C201.808 593.959 195.544 585.802 188.209 578.548C184.748 574.099 180.133 569.894 175.682 566.516C177.414 567.094 181.37 565.033 181.451 568.495z"
         id="path1632">
      </path>

    </g>
    <g
       id="g1633"
       style="fill: #ffd3d8">      <path
         d="M289.249 571.049C293.369 586.46 297.737 602.284 302.849 617.533C306.39 625.441 311.913 632.53 313.397 641.266C319.742 655.111 328.478 667.392 333.342 681.812C338.531 696.153 342.899 710.165 347.185 724.915C344.55 727.637 340.92 728.626 337.295 729.283C334.905 729.696 332.929 727.718 330.785 728.707L329.386 728.129C317.022 712.968 304.99 697.143 298.315 679.672L294.607 670.769L294.772 670.112C293.369 668.708 292.546 666.402 291.226 664.587C286.365 658.822 283.398 651.404 277.133 646.045C271.199 637.884 265.103 628.572 261.558 620.084C258.755 615.801 256.695 611.349 254.224 606.652C253.233 602.284 248.699 600.471 247.465 596.184L248.067 594.249C250.128 593.838 251.172 591.653 252.656 590.252C261.972 580.608 274.085 575.995 285.868 571.46C287.022 571.296 288.257 570.885 289.249 571.049z"
         id="path1634">
      </path>

    </g>
    <g
       id="g1635"
       style="fill: #ffd3d8">      <path
         d="M220.597 617.533C220.678 619.261 219.854 620.745 219.029 622.063C217.385 620.581 216.96 617.388 215.227 615.903C214.733 616.151 214.828 616.46 214.662 617.117C215.322 619.427 216.312 621.815 218.044 623.464C217.053 623.959 215.651 622.639 214.497 623.051C213.841 620.169 210.379 618.931 210.298 615.801C213.348 615.801 215.732 614.317 218.62 613.988L220.597 617.533z"
         id="path1636">
      </path>

    </g>
    <g
       id="g1637"
       style="fill: #000000">      <path
         d="M132.827 635.002C130.684 637.884 127.223 640.69 126.152 644.477C124.998 646.293 123.597 648.518 121.208 648.436C120.629 647.775 119.23 648.352 119.23 647.284C120.218 646.376 124.022 649.078 125.574 641.349C127.965 638.958 129.943 636.898 132.25 634.424L132.827 635.002z"
         id="path1638">
      </path>

    </g>
    <g
       id="g1639"
       style="fill: #000000">      <path
         d="M292.791 652.719C295.118 658.992 300.868 657.581 302.271 660.881L302.271 662.034C299.633 658.161 294.772 660.055 292.791 655.935C292.382 653.544 289.33 650.908 290.978 649.012C291.64 650.249 291.721 651.65 292.791 652.719z"
         id="path1640">
      </path>

    </g>
    <g
       id="g1641"
       style="fill: #dd19ff">      <path
         d="M70.275 712.471C73.983 716.099 80.331 715.932 84.698 713.872L84.945 713.626C84.945 715.932 84.368 718.156 82.39 719.396C76.373 720.383 70.769 718.898 66.319 716.016C65.824 713.706 66.897 711.728 68.71 710.658C69.369 710.903 69.779 711.897 70.275 712.471z"
         id="path1642">
      </path>

    </g>
    <g
       id="g1643"
       style="fill: #ffd3d8">      <path
         d="M80.742 720.961C82.885 723.102 83.462 726.399 82.554 729.283C82.143 730.934 78.435 730.849 80.166 732.665C81.482 731.509 83.709 731.26 84.121 729.283C84.286 732.91 80.906 735.054 79.011 737.775C75.22 740.82 71.675 745.931 65.906 744.118C61.457 742.966 57.995 739.422 53.875 737.361C58.571 731.426 65.496 725.904 66.566 718.239C71.264 719.807 75.302 721.782 80.742 720.961z"
         id="path1644">
      </path>

    </g>
    <g
       id="g1645"
       style="fill: #dd19ff">      <path
         d="M350.15 728.871C346.94 735.382 338.778 734.641 332.763 735.632C331.28 734.393 330.045 732.665 330.538 730.684L330.949 730.273C336.968 732.251 343.065 730.438 347.762 726.481C349.574 726.235 348.917 728.295 350.15 728.871z"
         id="path1646">
      </path>

    </g>
    <g
       id="g1647"
       style="fill: #dd19ff">      <path
         d="M91.868 740.164C94.01 750.136 80.577 750.957 79.423 759.529L78.186 760.764C75.302 768.431 67.968 775.437 60.962 779.721C55.028 785.737 46.87 781.039 40.193 779.886C35.167 776.672 29.893 773.869 25.03 770.243C23.134 767.855 23.958 765.134 24.617 762.495C26.266 754.09 35.578 748.899 42.583 745.931C46.787 745.192 50.907 747.415 53.709 750.878C58.16 752.194 63.929 754.997 69.286 753.019C76.373 752.608 81.318 745.355 83.957 739.586C85.191 736.124 85.522 732.085 85.934 728.46C91.042 730.356 90.549 736.043 91.868 740.164z"
         id="path1648">
      </path>

    </g>
    <g
       id="g1649"
       style="fill: #ffd3d8">      <path
         d="M356.088 744.943C358.066 752.111 364.987 757.469 368.941 763.732L373.062 771.976C366.059 774.53 360.701 784.004 352.541 779.555C345.456 776.838 344.217 768.926 342.238 762.745C342.651 762.495 344.217 763.073 344.217 761.753C341.415 760.023 339.192 756.398 339.272 753.019C341.003 747.251 336.473 742.387 334.905 737.361C339.688 735.877 345.62 736.37 349.574 732.418C351.965 736.37 353.778 740.82 356.088 744.943z"
         id="path1650">
      </path>

    </g>
    <g
       id="g1651"
       style="fill: #ffa300">      <path
         d="M70.275 751.452C65.659 752.525 61.704 752.111 57.666 750.216C52.721 750.878 50.907 744.118 45.962 744.284C45.303 744.037 45.634 743.376 45.551 742.966C49.012 741.315 52.227 743.211 55.276 745.107L55.852 744.284C53.792 743.047 52.062 740.249 49.094 740.739C48.684 739.831 50.249 739.01 50.907 738.349C54.945 739.34 58.242 742.141 61.786 744.284C65.083 746.263 69.863 746.345 73.242 744.531C76.456 741.811 80.577 738.765 83.378 735.054C82.472 742.058 77.527 749.723 70.275 751.452z"
         id="path1652">
      </path>

    </g>
    <g
       id="g1653"
       style="fill: #a0a0a0">      <path
         d="M89.477 767.443C87.994 768.018 86.593 769.749 84.945 770.243C85.769 763.649 80.659 753.266 89.313 749.889C88.9 755.246 87.334 761.918 89.477 767.443z"
         id="path1654">
      </path>

    </g>
    <g
       id="g1655"
       style="fill: #dd19ff">      <path
         d="M339.688 763.073C340.756 772.88 342.487 783.347 351.965 788.787C364.659 795.955 373.393 780.297 386.167 780.873C388.477 781.866 391.113 782.11 393.09 783.84C398.695 788.787 399.023 796.286 400.013 803.292C400.921 807.495 395.976 808.32 393.832 810.543C384.931 815.239 374.713 816.807 364.823 819.116C361.526 820.763 360.784 816.311 358.228 815.736C355.263 811.532 345.839 807.441 340.841 784.665C338.778 774.364 324.243 764.805 335.037 753.438L337.874 751.616C335.402 756.48 341.745 758.705 339.688 763.073z"
         id="path1656">
      </path>

    </g>
    <g
       id="g1657"
       style="fill: #a0a0a0">      <path
         d="M83.544 769.834L79.423 769.668C79.094 764.392 80.248 759.776 82.967 755.822C82.885 760.6 83.049 765.053 83.544 769.834z"
         id="path1658">
      </path>

    </g>
    <g
       id="g1659"
       style="fill: #a0a0a0">      <path
         d="M78.023 777.332C70.522 786.066 63.352 795.955 54.863 804.281C54.203 797.688 54.452 791.012 53.875 784.253C63.847 781.536 71.675 773.457 78.023 764.886L78.023 777.332z"
         id="path1660">
      </path>

    </g>
    <g
       id="g1661"
       style="fill: #ffa300">      <path
         d="M354.106 781.866C364.247 784.995 368.862 770.902 378.667 773.212C375.7 774.199 373.393 776.755 370.343 777.58L369.107 778.731L369.767 779.31C374.713 778.322 379.08 771.727 384.6 776.179C385.425 777.085 386.084 778.156 386.332 779.31C373.557 778.65 365.151 794.557 351.965 787.058C344.714 782.357 342.981 774.694 342.076 767.031C343.972 773.212 347.019 780.131 354.106 781.866z"
         id="path1662">
      </path>

    </g>
    <g
       id="g1663"
       style="fill: #a0a0a0">      <path
         d="M337.295 782.278C337.625 790.351 333.505 797.111 334.741 805.023C332.929 804.115 331.527 802.55 330.374 800.903C329.79 793.864 330.785 773.869 330.949 769.256C333.093 773.622 336.802 777.497 337.295 782.278z"
         id="path1664">
      </path>

    </g>
    <g
       id="g1665"
       style="fill: #a0a0a0">      <path
         d="M38.875 781.124C42.832 782.77 47.529 783.513 51.732 784.253C53.38 788.209 52.638 793.485 53.05 798.101C52.885 800.655 53.463 802.469 53.298 805.269C43.737 799.666 34.053 794.39 24.74 788.619L23.381 788.209C24.536 783.347 22.721 776.921 24.206 771.644C28.408 775.93 34.013 777.742 38.875 781.124z"
         id="path1666">
      </path>

    </g>
    <g
       id="g1667"
       style="fill: #a0a0a0">      <path
         d="M341.415 792.001C340.756 792.496 341.826 793.319 342.076 793.978C342.238 797.935 343.31 801.727 342.651 805.847C340.677 805.6 338.531 806.34 336.473 806.589L336.144 806.011C335.812 798.101 338.12 791.259 338.699 783.676C340.178 786.066 340.511 789.199 341.415 792.001z"
         id="path1668">
      </path>

    </g>
    <g
       id="g1669"
       style="fill: #a0a0a0">      <path
         d="M362.433 821.424C363.422 827.934 363.917 834.939 363.175 841.45C360.291 836.503 356.088 832.796 352.707 827.767C350.15 823.155 347.019 818.786 343.229 814.745C344.053 810.3 344.053 806.34 344.384 801.645C348.67 809.144 356.169 815.487 362.433 821.424z"
         id="path1670">
      </path>

    </g>
    <g
       id="g1671"
       style="fill: #a0a0a0">      <path
         d="M399.023 824.803C390.865 829.251 382.87 834.032 375.041 839.224C371.58 840.211 367.956 841.12 364.574 842.438C365.401 835.023 364.904 828.428 364.162 820.682C375.866 818.786 387.321 816.311 397.211 810.215L398.036 809.392C399.438 813.924 399.353 819.939 399.023 824.803z"
         id="path1672">
      </path>

    </g>
    <g
       id="g1673"
       style="fill: #000000">      <path
         d="M145.644 497.308C145.644 497.308 142.275 500.674 143.818 502.921C145.363 505.165 145.644 506.429 150.135 507.41C154.625 508.394 154.486 508.394 155.467 508.252M145.352 497.015C145.205 497.163 141.762 500.656 143.481 503.153C143.669 503.428 143.837 503.686 144 503.937C145.172 505.73 145.946 506.916 150.047 507.812L151.043 508.032C154.483 508.786 154.548 508.801 155.491 508.666L156.364 508.105L156.011 507.679C155.976 507.684 154.734 507.75 154.734 507.75C153.94 507.863 154.581 507.963 151.22 507.227L150.222 507.007C146.453 506.183 146.51 505.163 145.372 503.423C145.206 503.169 144.787 502.287 144.593 502.005C143.26 500.068 145.905 497.629 145.935 497.598L145.352 497.015z"
         id="path1674">
      </path>

    </g>
    <g
       id="g1675"
       style="fill: #000000">      <path
         d="M192.375 489.587C192.375 489.587 198.41 489.447 198.832 491.272C199.253 493.095 199.813 494.64 198.971 496.184M191.398 489.736L192.384 490C194.752 489.946 198.194 490.332 198.43 491.364L198.598 492.069C198.971 493.585 199.5 494.561 198.845 495.764L199.127 497.252C199.937 495.77 199.782 493.428 199.399 491.872L199.231 491.178C198.321 487.226 192.798 489.267 193.954 489.24L191.398 489.736z"
         id="path1676">
      </path>

    </g>
    <g
       id="g1677"
       style="fill: #000000">      <path
         d="M187.904 438.767C189.24 438.271 188.209 440.659 187.913 441.408L188.49 441.408C189.881 440.714 190.463 439.785 190.231 438.164C190.345 437.582 190.925 436.77 191.623 437.003C192.55 437.582 191.971 438.859 192.086 439.785C193.128 439.322 193.478 437.931 194.64 437.582L195.217 438.164C194.174 440.135 192.55 442.337 190.463 443.38C191.971 445.005 191.971 447.323 192.666 449.295C192.666 449.295 196.137 452.306 194.676 454.135C193.747 453.207 193.014 451.847 191.623 452.079C192.666 452.775 193.147 453.444 191.756 454.14C188.275 450.777 183.344 457.343 179.518 456.298C179.169 455.95 181.198 455.873 181.312 455.293C181.662 454.83 181.763 454.63 182.113 454.282C180.142 453.122 180.373 451.151 179.563 449.527L177.906 450.479C177.28 449.352 180.158 447.602 180.407 445.598C183.018 441.686 185.669 444.381 186.808 439.683L187.904 438.767z"
         id="path1678">
      </path>

    </g>
    <g
       id="g1679"
       style="fill: #ffffff">      <path
         d="M189.276 445.966C189.93 448.039 187.972 448.836 186.799 448.997L184.579 448.677C183.667 447.082 184.841 445.011 186.146 444.85C187.318 445.011 188.754 444.211 189.276 445.966z"
         id="path1680">
      </path>

    </g>
    <g
       id="g1681"
       style="fill: #ffffff">      <path
         d="M186.289 451.668C186.519 452.538 185.94 453.298 185.129 453.517C184.432 453.19 183.158 452.972 183.273 451.884C183.388 450.472 186.289 449.819 186.289 451.668z"
         id="path1682">
      </path>

    </g>

  </g>

</svg>
