<?xml version="1.0" standalone="no"?>
<!DOCTYPE svg PUBLIC "-//W3C//DTD SVG August 1999//EN"
"http://www.w3.org/Graphics/SVG/SVG-19990812.dtd">
<svg
   sodipodi:docbase="/local/lemmit/dokumendid/indian-summer/manga/"
   sodipodi:docname="/local/lemmit/dokumendid/indian-summer/manga/manga_3.svg"
   xmlns:sodipodi="http://sodipodi.sourceforge.net/DTD/sodipodi-0.dtd"
   xmlns="http://www.w3.org/Graphics/SVG/SVG-19991203.dtd"
   id="svg2348">  <sodipodi:namedview
     id="base">
  </sodipodi:namedview>
  <g
     transform="matrix(1 0 0 1 98.07 -176.81)"
     id="g3066">    <g
       id="g2733"
       style="fill: #ffafba; stroke:#000000; stroke-width:">      <path
         d="M197.069 420.539C197.069 420.539 205.051 423.532 208.293 424.031C211.536 424.53 213.282 424.779 215.528 423.781C217.772 422.783 223.26 418.293 224.756 417.046C226.253 415.799 229.496 413.554 230.743 411.309C231.99 409.064 235.981 399.585 237.228 395.594C238.476 391.603 240.971 381.376 240.471 375.639C239.973 369.901 237.228 366.659 235.232 364.913C233.238 363.166 230.993 364.414 227.999 364.913C225.005 365.411 217.522 363.416 214.529 366.659C211.536 369.901 209.79 377.883 209.042 378.382C208.293 378.881 202.806 382.373 201.559 378.382C200.31 374.391 199.562 369.652 196.818 369.153C194.075 368.654 191.332 368.654 188.587 372.396C185.843 376.137 183.1 381.625 182.102 382.873C181.103 384.12 179.108 379.38 176.364 382.873C173.62 386.364 174.618 390.106 176.364 393.599C178.11 397.091 180.854 403.825 182.85 406.07C184.846 408.315 185.345 409.064 187.589 412.307C189.834 415.55 191.332 417.046 193.077 418.044C194.823 419.042 197.069 420.539 197.069 420.539z"
         id="path2734">
      </path>

    </g>
    <g
       id="g2735"
       style="fill: #000000">      <path
         d="M179.315 387.114C179.315 387.114 181.741 385.034 183.648 384.861C185.555 384.688 187.636 385.034 189.369 385.034C191.102 385.034 196.65 386.248 197.863 386.594C199.076 386.941 202.718 388.328 203.757 388.501M179.568 387.128L179.451 387.275C179.476 387.254 181.882 386.039 183.699 385.874C184.849 385.769 186.285 385.567 187.462 385.653C188.222 385.707 188.995 385.653 189.675 385.653C191.4 385.653 196.669 386.473 197.805 386.797C198.27 386.93 199.115 387.224 200.007 387.535C201.442 388.034 203.068 388.601 203.723 388.71L203.793 388.293C203.174 388.19 201.565 387.63 200.146 387.137C199.247 386.823 198.397 386.527 197.922 386.392C196.634 386.024 191.284 384.545 189.527 384.545C188.863 384.545 188.066 384.452 187.314 384.398C186.121 384.312 184.813 384.543 183.629 384.65C181.677 384.828 178.415 387.41 178.314 387.497L179.568 387.128z"
         id="path2736">
      </path>

    </g>
    <g
       id="g2737"
       style="fill: #000000">      <path
         d="M211.038 385.554C211.038 385.554 218.146 383.821 221.094 381.74C224.041 379.66 230.107 377.58 231.321 377.58C232.535 377.58 236.002 378.62 236.696 380.874M211.088 385.759C211.38 385.688 218.378 384.265 221.323 382.185C224.259 380.113 230.191 377.791 231.321 377.791C232.579 377.791 235.854 378.86 236.493 380.936L236.897 380.812C236.163 378.427 232.563 377.368 231.321 377.368C229.974 377.368 223.781 379.031 220.881 381.079C218.001 383.112 211.059 385.332 210.988 385.35L211.088 385.759z"
         id="path2738">
      </path>

    </g>
    <g
       id="g2739"
       style="stroke:#000000; stroke-width:0.5">      <path
         d="M186.075 389.888C186.075 389.888 190.062 387.288 192.143 387.808C194.223 388.328 196.71 389.37 197.751 389.543C198.791 389.716 203.237 389.715 203.932 389.888"
         id="path2740">
      </path>

    </g>
    <g
       id="g2741"
       style="fill: #000000">      <path
         d="M186.769 397.689C186.769 397.689 184.688 395.262 185.902 393.875C187.115 392.488 189.369 390.581 191.796 390.235C194.223 389.888 196.823 389.714 197.863 389.714C198.903 389.714 202.029 390.852 202.029 390.852M186.929 397.552L186.929 397.552C186.909 397.529 184.727 394.966 186.06 394.014C187.99 392.636 189.488 391.248 191.713 390.93C194.188 390.577 196.868 390.232 197.84 390.232C198.832 390.232 201.925 391.04 201.956 391.051L202.1 390.654C201.972 390.607 198.929 389.504 197.863 389.504C196.879 389.504 194.44 389.565 191.946 389.922C189.001 390.342 186.411 392.972 185.743 393.736C184.424 395.243 186.519 397.722 186.608 397.826L186.929 397.552z"
         id="path2742">
      </path>

    </g>
    <g
       id="g2743"
       style="fill: #000000">      <path
         d="M214.16 389.368C214.16 389.368 219.534 384.688 221.787 384.167C224.041 383.646 228.376 382.433 230.107 384.167C231.842 385.901 232.188 387.461 231.842 388.501M214.298 389.527L214.298 389.527C214.351 389.481 219.657 384.875 221.834 384.373L222.404 384.239C224.664 383.701 228.28 383.444 229.795 384.958C231.863 387.027 232.15 387.744 231.968 388.293L232.354 388.604C232.562 387.98 232.491 386.253 230.258 384.018C228.576 382.337 225.005 383.004 222.659 383.562L221.807 383.872C219.527 384.398 214.241 389.016 214.022 389.209L214.298 389.527z"
         id="path2744">
      </path>

    </g>
    <g
       id="g2745"
       style="stroke:#000000; stroke-width:0.5">      <path
         d="M189.369 404.104C189.369 404.104 190.929 402.89 192.663 403.063C194.396 403.237 194.916 403.236 197.17 402.89C199.424 402.543 201.677 401.85 202.37 401.156"
         id="path2746">
      </path>

    </g>
    <g
       id="g2747"
       style="stroke:#000000; stroke-width:0.5">      <path
         d="M216.586 397.169C216.586 397.169 218.32 397.516 220.572 397.343C222.827 397.169 226.295 396.302 227.854 395.436C229.414 394.569 230.455 394.569 231.148 394.915"
         id="path2748">
      </path>

    </g>
    <g
       id="g2749"
       style="stroke:#000000; stroke-width:0.5">      <path
         d="M191.969 403.237C191.969 403.237 190.93 405.144 191.623 405.837"
         id="path2750">
      </path>

    </g>
    <g
       id="g2751"
       style="stroke:#000000; stroke-width:0.5">      <path
         d="M194.049 403.237C194.049 403.237 192.489 403.93 193.529 405.143"
         id="path2752">
      </path>

    </g>
    <g
       id="g2753"
       style="stroke:#000000; stroke-width:0.5">      <path
         d="M226.295 396.129C226.295 396.129 227.334 396.129 227.16 397.689"
         id="path2754">
      </path>

    </g>
    <g
       id="g2755"
       style="stroke:#000000; stroke-width:0.5">      <path
         d="M227.854 395.436C227.854 395.436 229.242 396.476 228.894 397.516"
         id="path2756">
      </path>

    </g>
    <g
       id="g2757"
       style="stroke:#000000; stroke-width:0.5">      <path
         d="M229.414 394.915C229.414 394.915 230.107 395.262 230.28 396.129"
         id="path2758">
      </path>

    </g>
    <g
       id="g2759"
       style="stroke:#000000; stroke-width:0.5">      <path
         d="M228.398 383.252C228.398 383.252 229.762 382.78 229.762 381.74"
         id="path2760">
      </path>

    </g>
    <g
       id="g2761"
       style="stroke:#000000; stroke-width:0.5">      <path
         d="M230.106 384.182C230.106 384.182 232.535 383.301 232.708 382.087"
         id="path2762">
      </path>

    </g>
    <g
       id="g2763"
       style="stroke:#000000; stroke-width:0.5">      <path
         d="M231.423 385.423C231.423 385.423 232.881 385.034 233.229 383.994"
         id="path2764">
      </path>

    </g>
    <g
       id="g2765"
       style="stroke:#000000; stroke-width:0.5">      <path
         d="M214.644 387.805C214.644 387.805 219.612 385.816 223.901 382.011C225.297 380.771 229.878 380.405 230.57 380.924"
         id="path2766">
      </path>

    </g>
    <g
       id="g2767"
       style="stroke:#000000; stroke-width:0.5">      <path
         d="M183.128 391.102C183.128 391.102 185.595 392.887 186.982 392.714"
         id="path2768">
      </path>

    </g>
    <g
       id="g2769"
       style="stroke:#000000; stroke-width:0.5">      <path
         d="M181.394 393.875C181.394 393.875 184.122 395.328 185.509 394.808"
         id="path2770">
      </path>

    </g>
    <g
       id="g2771"
       style="stroke:#000000; stroke-width:0.5">      <path
         d="M182.608 398.209C182.608 398.209 185.185 397.459 186.052 396.592"
         id="path2772">
      </path>

    </g>
    <g
       id="g2773"
       style="fill: #000000; stroke:#000000; stroke-width:0.5">      <path
         d="M189.774 391.473C189.774 391.473 188.676 395.782 189.023 397.343C189.369 398.903 189.889 399.77 191.102 401.156C191.102 401.156 192.516 402.874 193.729 402.874C194.943 402.874 197.252 403.024 199.159 402.332C201.066 401.638 201.33 400.463 201.503 398.209C201.678 395.956 201.851 393.356 200.81 391.969C199.771 390.582 198.211 389.715 196.823 389.715C195.437 389.715 193.141 390.059 192.101 390.231C191.06 390.405 190.468 390.433 189.774 391.473z"
         id="path2774">
      </path>

    </g>
    <g
       id="g2775"
       style="fill: #ffffff">      <path
         d="M200.648 394.653C200.648 394.653 198.942 393.567 197.621 393.702C196.727 393.793 196.248 394.265 195.974 395.429C195.701 396.58 195.899 396.649 196.76 398.036C197.621 399.423 198.492 400.063 199.107 400.237C199.722 400.411 199.956 400.81 200.324 400.29C200.693 399.77 201.253 397.847 201.253 396.98C201.253 396.112 201.14 395 200.648 394.653z"
         id="path2776">
      </path>

    </g>
    <g
       id="g2777"
       style="fill: #ffffff">      <path
         d="M190.981 392.142C190.981 392.142 192.368 391.448 192.368 393.009C192.368 394.569 192.541 395.263 192.021 396.129C191.501 396.996 191.5 397.862 190.808 397.862C190.114 397.862 189.941 396.303 189.941 395.263C189.941 394.222 190.288 392.661 190.981 392.142z"
         id="path2778">
      </path>

    </g>
    <g
       id="g2779"
       style="fill: #ffffff">      <path
         d="M192.551 397.83C192.551 397.83 193.312 397.575 193.312 398.149C193.312 398.723 193.408 398.979 193.122 399.298C192.836 399.617 192.836 399.936 192.456 399.936C192.075 399.936 191.979 399.362 191.979 398.979C191.979 398.596 192.17 398.021 192.551 397.83z"
         id="path2780">
      </path>

    </g>
    <g
       id="g2781"
       style="fill: #000000; stroke:#000000; stroke-width:0.5">      <path
         d="M216.158 387.866C216.158 387.866 215.127 390.227 216.586 392.835C217.722 394.865 218.146 395.436 219.359 396.129C220.574 396.823 220.921 396.996 222.481 396.649C224.041 396.302 225.264 396.51 226.305 395.817C227.345 395.123 229.197 394.881 229.718 394.188C230.238 393.494 231.283 389.341 229.954 386.464C229.357 385.169 228.927 383.366 227.151 383.366C225.938 383.366 222.653 383.82 221.787 384.167C220.921 384.514 218.493 385.727 217.972 386.248C217.453 386.768 216.507 387.173 216.158 387.866z"
         id="path2782">
      </path>

    </g>
    <g
       id="g2783"
       style="stroke:#000000; stroke-width:0.5">      <path
         d="M210.519 399.249C210.519 399.249 213.119 402.023 212.599 402.89C212.079 403.756 211.731 404.103 211.038 404.623"
         id="path2784">
      </path>

    </g>
    <g
       id="g2785"
       style="fill: #000000">      <path
         d="M212.302 412.894C212.302 412.894 209.478 413.812 208.438 413.291C207.398 412.771 207.045 412.074 207.398 411.558C208.152 410.454 211.038 409.304 212.079 409.13C213.119 408.957 214.853 408.438 215.373 408.611C215.893 408.784 212.235 409.854 211.386 410.344C210.35 410.942 210.304 411.252 210.654 411.674C211.114 412.227 212.302 412.894 212.302 412.894z"
         id="path2786">
      </path>

    </g>
    <g
       id="g2787"
       style="stroke:#000000; stroke-width:0.5">      <path
         d="M212.252 415.372C212.252 415.372 213.465 417.105 213.119 417.798C212.773 418.492 212.599 419.011 211.732 418.839"
         id="path2788">
      </path>

    </g>
    <g
       id="g2789"
       style="fill: #ffffff">      <path
         d="M217.985 389.731C217.985 389.731 218.505 387.479 219.198 387.825C219.893 388.171 220.968 389.38 221.106 390.425C221.366 392.383 220.586 392.332 219.893 393.199C219.198 394.066 218.853 393.892 218.505 392.679C218.158 391.465 217.812 390.599 217.985 389.731z"
         id="path2790">
      </path>

    </g>
    <g
       id="g2791"
       style="fill: #ffffff">      <path
         d="M223.798 390.331C223.798 390.331 223.451 387.392 225.011 387.392C226.571 387.392 228.479 387.637 229.171 388.617C229.865 389.596 229.865 391.801 229.519 393.026C229.171 394.25 228.477 394.006 227.611 393.516C226.745 393.026 225.688 393.667 224.679 392.352C224.11 391.608 223.971 391.065 223.798 390.331z"
         id="path2792">
      </path>

    </g>
    <g
       id="g2793"
       style="fill: #e5b200; stroke:#000000; stroke-width:0.5">      <path
         d="M208.406 424.075C208.406 424.075 208.571 427.172 208.571 427.999C208.571 428.825 208.141 430.499 207.59 431.187C207.039 431.875 206.601 431.552 206.051 431.276C205.5 431.001 200.956 427.834 200.269 427.284C199.579 426.733 196 423.979 195.586 423.429C195.173 422.878 193.108 421.776 193.246 420.95C193.384 420.125 192.833 419.298 194.485 419.849C196.137 420.399 196.072 420.678 197.069 420.539C198.065 420.399 198.448 420.991 199.823 421.542C201.2 422.092 201.907 422.135 203.42 422.686C204.935 423.236 207.344 423.83 207.344 423.83L208.406 424.075z"
         id="path2794">
      </path>

    </g>
    <g
       id="g2795"
       style="fill: #e57500; stroke:#000000; stroke-width:0.5">      <path
         d="M199.076 317.746C197.025 318.156 193.905 318.033 191.319 317.746C188.732 317.459 182.411 316.022 173.216 319.182C165.435 321.857 159.791 326.289 151.665 332.4C145.38 337.127 141.896 349.066 141.608 356.825C141.32 364.583 143.907 380.674 147.355 385.847C150.803 391.019 157.987 405.099 159.998 409.983C162.009 414.868 164.308 424.926 160.572 427.799C156.837 430.672 151.24 435.233 146.93 433.51C142.62 431.786 139.809 431.492 138.947 429.768C138.086 428.044 142.837 438.841 147.678 440.993C154.413 443.986 158.273 442.74 161.147 441.879C164.021 441.017 161.663 442.301 159.651 443.737C157.64 445.174 156.348 445.196 154.912 445.483C153.476 445.77 161.435 449.35 170.917 445.614C180.399 441.879 182.123 441.017 184.135 439.005C186.146 436.994 182.986 444.465 185.571 447.339C188.158 450.212 189.881 454.235 192.181 454.81C194.479 455.384 190.743 448.775 192.754 446.477C194.767 444.178 194.191 443.028 194.191 443.028C194.191 443.028 201.088 444.752 204.824 442.453C208.559 440.155 213.731 435.27 214.593 432.396C215.455 429.523 215.168 430.672 215.168 430.672C215.168 430.672 207.41 434.408 206.261 432.971C205.111 431.534 195.628 422.339 193.904 421.189C192.181 420.04 196.779 420.328 198.214 421.477C199.651 422.626 195.341 415.156 192.754 412.569C190.169 409.983 182.985 403.949 181.548 399.352C180.112 394.754 177.813 386.709 178.675 385.847C179.538 384.984 182.411 389.582 183.56 390.731C184.709 391.881 184.997 382.11 187.87 379.525C190.744 376.938 194.192 373.203 195.054 372.916C195.916 372.629 195.628 382.11 197.927 383.835C200.226 385.56 201.088 386.709 202.237 387.57C203.387 388.433 204.248 382.973 204.248 382.973C204.248 382.973 210.57 385.559 212.294 385.272C214.019 384.984 212.582 380.962 213.157 378.663C213.731 376.364 216.892 372.629 216.892 371.479C216.892 370.33 223.213 376.077 224.076 377.227C224.938 378.375 225.513 379.525 225.513 379.525C225.513 379.525 231.834 372.341 232.121 370.043C232.409 367.744 232.982 366.881 232.409 366.019C231.834 365.157 236.719 373.491 237.006 377.227C237.294 380.961 235.569 394.754 234.707 396.766C233.845 398.777 229.822 411.133 231.834 415.731C233.845 420.328 234.132 420.615 235.856 421.189C237.581 421.765 235.569 418.316 237.581 415.442C239.592 412.569 237.581 423.202 240.741 426.649C243.903 430.097 243.614 431.534 243.614 431.534C243.614 431.534 242.465 424.351 245.339 422.339C248.213 420.328 251.948 419.753 257.119 420.04C262.293 420.328 263.155 427.511 277.234 416.879C282.361 413.008 283.557 403.662 283.557 402.225C283.557 400.789 277.234 407.972 274.074 407.972C270.914 407.972 264.878 405.099 262.005 399.352C259.132 393.605 266.027 403.662 272.062 397.915C278.096 392.168 264.31 402.149 266.315 378.088C267.751 360.847 266.315 358.836 266.028 355.388C265.003 343.071 261.718 328.665 249.074 319.47C236.432 310.275 230.109 311.424 224.651 311.712C219.191 311.999 210.857 313.437 207.41 314.585C203.961 315.734 201.95 317.171 199.076 317.746z"
         id="path2796">
      </path>

    </g>
    <g
       id="g2797"
       style="stroke:#000000; stroke-width:0.5">      <path
         d="M186.147 354.525C186.147 354.525 177.238 364.87 176.09 370.043"
         id="path2798">
      </path>

    </g>
    <g
       id="g2799"
       style="stroke:#000000; stroke-width:0.5">      <path
         d="M185.859 323.205C185.859 323.205 191.032 323.205 193.617 323.78C196.202 324.355 199.076 324.929 200.227 324.066C201.376 323.205 204.536 319.47 206.261 318.895"
         id="path2800">
      </path>

    </g>
    <g
       id="g2801"
       style="stroke:#000000; stroke-width:0.5">      <path
         d="M196.779 324.066C196.779 324.066 198.79 323.78 199.939 322.056C201.088 320.332 202.525 318.895 202.525 318.895"
         id="path2802">
      </path>

    </g>
    <g
       id="g2803"
       style="stroke:#000000; stroke-width:0.5">      <path
         d="M227.237 353.951C227.237 353.951 231.834 357.974 231.834 360.56C231.834 363.145 232.409 366.019 232.409 366.019"
         id="path2804">
      </path>

    </g>
    <g
       id="g2805"
       style="stroke:#000000; stroke-width:0.5">      <path
         d="M182.698 353.089C182.698 353.089 179.25 358.836 179.538 362.859"
         id="path2806">
      </path>

    </g>
    <g
       id="g2807"
       style="fill: #ffe2b7; stroke:#000000; stroke-width:0.5">      <path
         d="M193.331 336.136C193.331 336.136 197.927 331.538 200.227 337.285C202.525 343.032 203.961 347.916 202.237 353.089C200.514 358.261 196.204 368.893 195.628 370.904C195.054 372.916 195.548 379.283 196.202 381.249C197.641 385.559 203.1 388.72 203.1 388.72L204.248 382.973L212.87 386.421C212.87 386.421 213.617 378.475 214.767 375.889C215.915 373.303 217.179 370.617 217.179 370.617C217.179 370.617 221.777 359.411 217.179 349.354C214.157 342.742 210.857 335.848 206.548 333.55C203.591 331.973 199.365 330.389 197.927 330.676C196.491 330.963 193.905 332.4 193.331 333.837C192.755 335.273 192.468 337.285 192.468 337.285L193.331 336.136z"
         id="path2808">
      </path>

    </g>
    <g
       id="g2809"
       style="fill: #ffe2b7; stroke:#000000; stroke-width:0.5">      <path
         d="M165.457 387.858C165.457 387.858 167.468 397.627 171.491 400.501C175.515 403.374 179.825 410.845 180.4 414.006C180.974 417.167 182.102 422.534 179.856 427.523C177.756 432.19 171.534 436.458 165.389 439.746C164.313 440.321 161.398 441.741 161.398 441.741L152.667 445.732C152.667 445.732 165.823 450.723 175.865 444.984C182.85 440.993 184.997 438.431 184.997 438.431C184.997 438.431 183.393 442.059 184.997 446.188C185.462 447.387 188.158 451.936 190.169 453.373C192.181 454.81 193.043 454.521 193.043 454.521C193.043 454.521 192.411 444.485 195.572 444.485C198.732 444.485 204.655 444.592 209.54 439.995C214.426 435.398 215.168 431.535 215.168 430.672C215.168 429.81 212.022 432.995 207.426 430.696C202.828 428.398 196.142 424.044 195.409 422.113C194.054 418.541 197.352 421.477 198.214 421.477C199.076 421.477 196.636 414.838 191.159 409.934C188.737 407.765 182.986 403.662 180.974 397.34C180.974 397.34 178.962 392.743 178.962 391.019C178.962 389.294 178.675 385.847 176.951 383.548C173.327 378.715 174.94 374.64 175.227 372.916C175.515 371.192 176.09 370.043 176.09 370.043C176.09 370.043 170.171 368.188 168.043 377.227C166.894 382.111 168.044 387.57 168.331 388.145C168.618 388.72 165.457 387.858 165.457 387.858z"
         id="path2810">
      </path>

    </g>
    <g
       id="g2811"
       style="fill: #ffe2b7; stroke:#000000; stroke-width:0.5">      <path
         d="M252.523 368.03C252.523 368.03 249.074 386.422 249.074 391.019C249.074 395.616 249.362 404.812 253.098 409.409C256.833 414.006 263.155 419.466 266.603 419.179C270.051 418.891 274.649 419.753 276.085 418.029C277.523 416.305 268.326 422.914 265.453 422.914C262.58 422.914 250.799 420.615 248.788 420.902C246.777 421.19 243.552 423.91 243.552 426.496C243.552 429.082 243.328 430.672 243.328 430.672C243.328 430.672 237.612 425.894 237.325 422.733C237.038 419.573 235.856 424.063 235.856 424.063C235.856 424.063 229.733 418.879 229.733 415.718C229.733 412.558 229.459 407.457 231.522 400.71C233.383 394.631 235.569 388.145 235.856 384.697C236.144 381.25 237.007 376.938 236.432 375.215C235.856 373.491 236.719 371.192 236.719 371.192L240.743 365.157C240.743 365.157 243.039 373.778 242.179 376.364C241.316 378.95 241.603 380.387 241.603 380.387C241.603 380.387 244.19 378.95 248.213 374.352C252.234 369.755 252.523 368.03 252.523 368.03z"
         id="path2812">
      </path>

    </g>
    <g
       id="g2813"
       style="stroke:#000000; stroke-width:0.5">      <path
         d="M252.523 368.03C252.523 368.03 256.547 354.526 251.662 345.043C246.777 335.562 244.19 330.676 238.729 327.516C233.272 324.355 229.536 322.918 228.098 322.918"
         id="path2814">
      </path>

    </g>
    <g
       id="g2815"
       style="stroke:#000000; stroke-width:0.5">      <path
         d="M165.457 387.858C165.457 387.858 156.55 378.951 156.55 368.606C156.55 358.262 159.136 354.813 161.147 353.089C163.159 351.365 167.469 347.055 167.469 347.055L163.733 346.768C167.756 338.722 177.239 336.71 177.239 336.71"
         id="path2816">
      </path>

    </g>
    <g
       id="g2817"
       style="stroke:#000000; stroke-width:0.5">      <path
         d="M236.806 421.307C236.806 421.307 235.731 416.548 237.228 413.555"
         id="path2818">
      </path>

    </g>
    <g
       id="g2819"
       style="stroke:#000000; stroke-width:0.5">      <path
         d="M184.946 438.625C184.946 438.625 186.539 433.237 189.606 430.86"
         id="path2820">
      </path>

    </g>
    <g
       id="g2821"
       style="fill: #c10000; stroke:#000000; stroke-width:0.5">      <path
         d="M184.342 440.799C184.342 440.799 177.468 446.783 175.701 448.55C173.935 450.317 168.24 457.386 166.669 459.153C165.098 460.92 162.075 467.85 161.564 469.756C160.777 472.685 160.209 478.073 161.977 481.215C163.744 484.357 164.799 485.269 167.654 487.735C169.848 489.63 172.125 491.094 172.713 492.665C173.303 494.236 175.505 496.067 175.505 497.441C175.505 498.816 176.683 501.369 178.057 500.976C179.432 500.583 181.592 497.246 182.181 494.693C182.77 492.141 183.51 481.556 187.633 476.058C191.757 470.561 195.926 461.117 199.46 458.564C202.995 456.011 211.83 448.55 214.578 446.783C217.328 445.016 230.682 433.039 232.447 430.682C234.215 428.326 235.393 424.202 235.589 423.613C235.785 423.024 233.626 421.65 233.626 421.65C233.626 421.65 231.662 425.184 230.681 426.952C229.699 428.718 225.968 433.824 222.434 436.769C218.898 439.714 210.162 446.04 206.921 448.55C204.282 450.595 195.926 458.172 191.41 463.276C186.894 468.381 184.144 475.254 182.574 478.003C181.003 480.751 178.85 489.826 178.254 490.373C176.606 491.887 172.952 489.195 171.381 487.427C169.811 485.661 164.461 479.973 164.461 474.756C164.461 471.025 165.206 465.315 168.685 460.844C171.328 457.444 175.309 452.083 177.468 449.924C179.628 447.765 183.929 442.96 183.929 442.96L184.342 440.799z"
         id="path2822">
      </path>

    </g>
    <g
       id="g2823"
       style="fill: #c10000; stroke:#000000; stroke-width:0.5">      <path
         d="M277.217 441.481L282.715 443.445C282.715 443.445 279.375 445.211 277.217 445.605C275.057 445.998 272.503 446.979 270.54 446.979C268.576 446.979 263.352 446.907 261.388 445.14C259.425 443.373 256.6 440.696 253.652 440.106C250.709 439.518 245.238 436.875 239.92 437.914C236.554 438.57 228.521 440.5 225.772 443.052C223.022 445.605 215.117 453.1 212.805 457.115C211.607 459.192 207.511 467.989 206.135 471.13C204.761 474.273 201.424 480.751 201.424 483.305C201.424 485.857 200.983 492.065 202.554 493.832C204.125 495.6 206.528 498.423 208.1 499.013C209.67 499.602 210.26 499.798 210.26 499.798C210.26 499.798 207.25 500.45 204.5 500.45C201.752 500.45 198.674 500.78 197.103 500.191C195.533 499.602 189.075 499.66 187.504 500.838C185.933 502.017 181.985 504.707 181.789 506.082C181.592 507.456 180.414 515.899 182.377 519.237C184.341 522.575 188.723 530.666 194.025 531.647C199.326 532.629 202.601 532 209.081 527.288C215.56 522.575 228.127 516.488 230.288 515.506C232.447 514.525 237.356 514.524 237.945 514.721C238.533 514.917 243.33 510.504 243.524 507.027C243.568 506.218 239.122 509.026 237.749 509.812C236.374 510.597 227.342 513.543 224.594 515.31C221.845 517.077 211.83 523.164 210.062 523.949C208.297 524.735 202.405 530.232 197.693 528.466C192.98 526.698 189.446 526.698 187.286 521.201C185.127 515.703 184.734 506.474 187.482 505.1C190.231 503.725 194.354 503.921 198.282 504.314C202.209 504.707 208.885 504.315 211.83 502.547C214.775 500.78 220.667 499.013 221.845 499.994C223.022 500.976 223.809 504.118 222.629 505.1C221.451 506.082 221.451 506.082 221.451 506.082C221.451 506.082 230.288 506.082 229.699 500.191C229.108 494.3 225.575 494.104 223.218 494.497C220.862 494.889 213.008 497.441 210.653 496.46C208.297 495.478 204.762 493.319 204.959 487.428C205.154 481.537 206.135 475.254 209.081 470.934C212.026 466.614 219.08 453.759 220.847 451.796C222.615 449.832 230.327 443.095 234.059 442.31C237.789 441.523 245.225 440.751 247.581 441.537C249.938 442.322 253.063 442.463 258.17 445.605C263.273 448.747 266.22 450.514 270.147 449.532C274.074 448.55 279.769 446.783 281.535 445.998C283.303 445.212 285.462 445.801 285.462 445.801L288.996 447.568C288.996 447.568 287.749 443.566 285.59 442.585C283.43 441.602 279.768 441.285 277.217 441.481z"
         id="path2824">
      </path>

    </g>
    <g
       id="g2825"
       style="fill: #c10000; stroke:#000000; stroke-width:0.5">      <path
         d="M234.527 524.562C234.527 524.562 230.025 529.627 226.087 531.596C222.148 533.566 212.019 537.786 210.049 539.475C208.08 541.162 201.891 545.383 199.921 548.196C197.951 551.01 194.294 557.481 194.012 560.577C193.731 563.671 192.572 568.12 193.915 573.656C195.342 579.539 195.982 581.96 200.765 584.773C205.548 587.586 208.081 588.994 212.019 588.712C215.958 588.431 216.803 587.586 216.803 587.586C216.803 587.586 214.552 584.773 211.175 581.678C207.8 578.583 205.267 571.83 206.392 568.173C207.517 564.515 212.863 556.356 215.677 554.668C218.489 552.979 226.087 550.728 230.308 552.136C234.527 553.543 241.774 556.726 244.656 558.888C248.032 561.42 250.566 565.078 251.974 567.892C253.379 570.706 251.695 561.903 249.721 559.451C248.203 557.565 245.782 555.231 242.969 553.543C240.156 551.854 233.378 547.605 227.704 547.863C224.32 548.017 217.012 550.067 215.323 551.475C213.635 552.881 209.495 556.454 207.586 558.954C205.028 562.303 203.86 568.173 203.86 570.705C203.86 573.238 205.549 579.428 206.955 581.397C208.361 583.366 211.457 585.335 211.457 585.335C211.457 585.335 205.548 585.617 201.608 581.397C197.67 577.176 195.702 571.294 196.264 568.199C196.827 565.104 198.921 555.175 201.454 552.08C203.986 548.986 209.168 543.06 212.825 541.371C216.482 539.683 223.835 535.224 226.674 533.935C229.034 532.861 232.864 530.065 232.864 530.065C232.864 530.065 235.442 527.486 234.527 524.562z"
         id="path2826">
      </path>

    </g>
    <g
       id="g2827"
       style="fill: #c10000; stroke:#000000; stroke-width:0.5">      <path
         d="M153.056 625.958C153.056 625.958 153.778 623.881 155.185 623.601C156.591 623.319 164.751 621.912 167.846 622.195C170.941 622.476 175.162 622.757 177.412 623.319C179.663 623.882 180.789 624.727 180.789 624.727C180.789 624.727 188.104 620.788 189.792 619.662C191.48 618.536 199.639 612.628 200.765 612.628C201.891 612.628 201.046 616.567 200.203 618.818C199.359 621.068 195.982 632.603 195.982 632.603C195.982 632.603 201.608 636.262 203.016 636.823C204.423 637.388 212.582 641.044 214.269 641.044C215.958 641.044 216.24 641.889 216.24 641.889L214.552 643.014C214.552 643.014 206.955 641.608 203.578 639.92C200.203 638.231 195.137 635.699 194.012 635.137C192.887 634.573 191.762 633.729 191.762 633.729L197.951 617.13L181.633 627.539C181.633 627.539 176.287 625.851 174.599 625.289C172.91 624.727 165.595 624.162 163.063 624.162C160.531 624.162 154.182 625.394 153.056 625.958z"
         id="path2828">
      </path>

    </g>
    <g
       id="g2829"
       style="fill: #c10000; stroke:#000000; stroke-width:0.5">      <path
         d="M219.334 637.95C219.334 637.95 227.775 637.388 230.589 637.388C233.403 637.388 238.468 638.794 243.812 638.794C249.158 638.794 252.535 638.231 253.941 637.668C255.349 637.106 255.63 638.794 255.63 638.794C255.63 638.794 251.974 640.201 249.721 640.764C247.471 641.327 244.376 642.451 240.999 641.327C237.624 640.2 233.966 639.639 232.559 639.639C231.15 639.639 223.274 639.92 222.148 639.92C221.022 639.92 217.364 640.2 217.364 640.2L219.334 637.95z"
         id="path2830">
      </path>

    </g>
    <g
       id="g2831"
       style="fill: #009b00; stroke:#000000; stroke-width:0.5">      <path
         d="M172.18 452.475C172.18 452.475 161.772 460.706 156.591 473.356C154.872 477.553 155.466 482.921 157.435 486.017C159.405 489.111 163.907 492.769 165.877 493.894C167.846 495.019 171.223 497.832 172.066 500.647C172.91 503.46 175.025 506.533 173.785 512.731C173.34 514.955 172.815 522.886 172.628 526.532C172.448 530.075 172.815 541.474 174.036 546.227C174.75 549.006 177.13 564.234 177.693 567.892C178.256 571.549 177.975 585.617 176.287 589.837C174.599 594.058 171.785 599.967 169.252 603.061C166.721 606.157 162.914 612.283 159.522 616.504C156.768 619.929 155.301 622.752 154.176 623.596C153.051 624.439 159.967 622.476 163.344 622.476C166.721 622.476 171.504 621.912 175.725 623.319C179.945 624.727 180.789 624.727 180.789 624.727C180.789 624.727 191.826 618.648 194.639 616.959C197.454 615.271 201.608 612.628 201.608 612.628C201.608 612.628 197.389 627.259 196.826 628.947C196.263 630.636 195.982 632.603 195.982 632.603C195.982 632.603 201.558 637.002 204.37 637.847C207.184 638.69 216.177 641.998 216.177 641.998L217.928 639.356L219.421 638.106C219.421 638.106 226.087 637.388 230.589 637.388C235.092 637.388 240.997 639.706 245.499 639.144C250.001 638.582 255.228 637.588 255.228 637.588C255.228 637.588 249.188 623.528 248.315 618.255C247.367 612.539 246.228 606.61 249.417 598.356C251.378 593.286 254.185 590.506 255.165 581.957C256.019 574.514 253.768 569.91 252.817 567.61C250.706 562.516 242.627 557.005 239.568 555.343C235.935 553.369 231.881 549.902 225.129 551.308C218.377 552.715 215.328 554.631 213.426 556.074C210.396 558.373 206.955 565.079 206.392 567.048C205.829 569.017 206.392 575.489 207.517 577.176C208.644 578.865 213.707 584.491 214.832 585.899C215.958 587.306 215.958 587.306 215.958 587.306C215.958 587.306 212.582 589.837 208.361 588.15C204.141 586.461 200.269 585.191 197.369 580.785C195.776 578.365 193.142 574.43 193.168 567.892C193.181 564.784 196.927 553.405 198.803 550.535C201.452 546.485 206.422 542.144 210.049 539.475C212.996 537.306 225.476 531.922 227.177 531.104C231.497 529.026 234.527 524.562 234.527 524.562C234.527 524.562 239.055 518.458 237.945 514.721C237.495 513.203 235.654 513.308 232.559 514.433C229.464 515.559 221.866 518.654 219.897 520.061C217.928 521.468 208.924 527.094 207.517 527.938C206.111 528.783 201.873 531.681 198.496 531.399C195.121 531.117 191.804 530.885 189.553 528.915C187.302 526.945 183.602 522.874 183.04 520.342C182.477 517.81 180.628 513.164 181.795 508.882C182.536 506.164 184.131 501.877 189.229 500.647C192.018 499.974 200.511 500.487 202.734 500.928C204.959 501.369 209.344 500.075 210.26 499.798C211.175 499.522 203.706 497.022 202.798 492.926C201.891 488.83 200.765 484.047 203.296 478.42C205.829 472.792 211.457 460.413 212.582 458.162C213.707 455.911 223.609 445.064 225.259 443.882C232.135 438.952 237.711 438.618 239.592 438.466C244.85 438.043 251.805 439.549 254.581 441.157C259.511 444.012 264.916 447.465 268.853 447.255C272.79 447.045 277.296 445.782 278.42 445.219C279.545 444.657 282.715 443.445 282.715 443.445C282.715 443.445 277.293 442.124 276.169 440.717C275.043 439.311 270.261 433.965 266.322 431.996C262.382 430.025 256.756 426.931 255.349 425.805C253.941 424.68 245.782 422.711 245.782 422.711C245.782 422.711 242.969 425.243 243.25 427.494C243.532 429.745 243.614 431.534 243.614 431.534C243.614 431.534 236.266 422.631 236.497 421.585C236.729 420.539 235.373 423.555 234.247 426.649C233.122 429.745 229.184 433.684 228.338 434.809C227.495 435.935 218.491 443.53 215.396 445.782C212.301 448.033 203.578 454.504 202.171 455.911C200.765 457.318 196.826 460.694 195.137 462.944C193.45 465.195 189.229 473.074 187.541 475.043C185.853 477.012 183.602 485.172 183.04 486.86C182.477 488.548 182.758 495.301 181.069 496.989C179.382 498.678 179.977 501.148 177.643 499.412C175.31 497.676 176.045 497.511 174.919 495.26C173.793 493.009 173.949 491.716 169.729 488.902C165.509 486.088 164.658 485.585 162.97 482.209C161.282 478.832 160.761 474 161.231 471.526C161.702 469.053 163.063 465.758 163.626 464.352C164.188 462.944 172.18 452.475 172.18 452.475z"
         id="path2832">
      </path>

    </g>
    <g
       id="g2833"
       style="stroke:#000000; stroke-width:0.5">      <path
         d="M222.222 633.364C222.222 633.364 228.974 619.067 231.573 617.912C234.171 616.758 236.279 617.806 236.858 619.539"
         id="path2834">
      </path>

    </g>
    <g
       id="g2835"
       style="fill: #ffafba; stroke:#000000; stroke-width:0.5">      <path
         d="M208.03 424.06C208.03 424.06 208.5 427.773 208.198 428.98C207.896 430.188 207.426 430.696 207.426 430.696C207.426 430.696 208.5 431.395 210.765 431.244C213.029 431.093 214.589 431.309 215.168 430.672C215.747 430.037 213.783 434.264 213.18 435.472C212.577 436.679 208.5 440.302 207.293 441.208C206.085 442.114 202.008 443.624 200.649 443.926C199.291 444.227 195.668 443.926 195.214 444.227C194.762 444.53 193.554 445.586 193.403 446.493C193.252 447.398 192.556 452.352 192.799 453.437C193.043 454.521 193.102 454.946 191.44 454.191C189.78 453.437 187.817 450.266 187.062 449.36C186.308 448.455 184.636 444.195 184.193 443.624C183.752 443.052 183.741 443.02 183.137 443.624C182.533 444.227 178.91 448.002 178.155 448.757C177.4 449.512 172.116 455.098 171.814 456.003C171.513 456.909 167.89 461.438 167.437 462.646C166.983 463.855 164.87 468.534 164.719 470.497C164.567 472.46 164.266 475.63 164.719 476.988C165.172 478.347 166.832 481.668 167.89 483.027C168.946 484.386 171.361 487.707 172.116 488.312C172.871 488.915 175.135 490.576 176.495 490.576C177.853 490.576 178.759 489.519 179.061 488.312C179.363 487.103 182.883 476.663 184.099 474.609C185.765 471.794 188.119 467.024 189.025 466.119C189.931 465.212 199.894 453.89 202.914 451.625C206.857 448.668 218.919 439.152 220.729 438.038C224.654 435.622 228.591 429.8 229.637 428.376C230.681 426.952 233.261 421.884 233.261 421.884C233.261 421.884 230.994 418.714 230.392 417.506C229.788 416.298 229.637 412.524 229.637 412.524C229.637 412.524 227.022 415.315 225.664 416.372C224.306 417.43 218.487 421.87 217.731 422.474C216.977 423.078 215.109 424.487 212.361 424.426C210.965 424.395 208.03 424.06 208.03 424.06z"
         id="path2836">
      </path>

    </g>
    <g
       id="g2837"
       style="stroke:#000000; stroke-width:0.5">      <path
         d="M194.46 451.324C194.46 451.324 194.46 448.757 198.084 448.002C201.682 447.252 203.216 446.644 205.481 446.04C207.833 445.412 211.368 445.284 211.368 445.284"
         id="path2838">
      </path>

    </g>
    <g
       id="g2839"
       style="stroke:#000000; stroke-width:0.5">      <path
         d="M183.741 467.024C183.741 467.024 179.234 471.447 178.91 477.441C178.723 480.909 180.118 484.386 180.118 484.386"
         id="path2840">
      </path>

    </g>
    <g
       id="g2841"
       style="stroke:#000000; stroke-width:0.5">      <path
         d="M181.929 465.363C181.929 465.363 180.873 467.93 181.779 469.893"
         id="path2842">
      </path>

    </g>
    <g
       id="g2843"
       style="stroke:#c10000; stroke-width:0.5">      <path
         d="M224.503 494.048C224.503 494.048 229.786 491.935 230.693 490.576"
         id="path2844">
      </path>

    </g>
    <g
       id="g2845"
       style="stroke:#c10000; stroke-width:0.5">      <path
         d="M225.711 493.897C225.711 493.897 230.543 493.746 232.051 493.143"
         id="path2846">
      </path>

    </g>
    <g
       id="g2847"
       style="fill: #ffa300; stroke:#000000; stroke-width:0.5">      <path
         d="M351.027 418.809C351.027 418.809 349.003 418.682 348.799 419.698C348.597 420.715 347.96 424.119 347.351 425.745C346.74 427.37 341.458 443.629 340.238 446.271C339.018 448.913 335.768 455.619 334.75 457.042C333.734 458.465 333.531 457.856 332.515 458.465C331.499 459.074 330.708 459.289 329.894 459.289C329.082 459.289 316.866 457.448 312.396 456.23C307.924 455.01 290.648 448.913 289.633 448.506C288.616 448.101 285.568 444.848 283.74 445.052C281.909 445.254 277.235 446.881 276.219 447.287C275.203 447.693 270.935 449.929 268.09 449.523C265.243 449.116 261.993 447.896 258.74 445.864C255.49 443.832 251.437 441.59 245.649 440.764C241.594 440.185 232.807 441.649 230.774 443.275C228.741 444.902 223.065 449.281 221.957 450.539C221.957 450.539 215.859 458.668 214.64 460.903C213.421 463.14 207.729 472.487 206.713 475.333C205.697 478.179 204.668 486.512 204.884 488.543C205.269 492.155 207.727 495.949 210.653 496.46C214.74 497.174 221.56 494.62 223.626 494.47C227.188 494.212 229.22 495.915 229.422 497.947C229.625 499.979 230.289 503.582 227.647 504.599C225.005 505.615 222.369 505.532 221.451 506.082C220.533 506.631 225.315 503.764 224.094 500.919C222.874 498.073 220.74 499.113 219.313 499.721C216.772 500.805 214.64 500.941 212.404 501.957C210.169 502.973 205.087 504.396 202.039 504.192C198.991 503.989 194.113 503.176 192.081 503.582C190.049 503.989 186.594 504.802 186.188 506.834C185.781 508.867 184.866 514.87 185.762 517.652C186.657 520.434 187.5 524.607 193.707 526.954C197.694 528.463 200.113 529.553 205.088 526.752C210.062 523.949 222.556 516.673 224.594 515.31C226.631 513.948 237.728 510.118 240.654 508.257C242.541 507.056 243.524 507.027 243.524 507.027C243.524 507.027 251.368 494.805 253.66 490.982C256.822 485.712 261.181 475.536 263.213 475.13C265.246 474.724 271.945 476.783 276.684 477.693C281.668 478.652 299.195 481.473 303.858 481.837C311.491 482.432 324.184 482.446 328.248 482.446C332.312 482.446 341.66 483.056 343.489 482.853C345.318 482.65 352.838 477.975 353.448 476.553C354.058 475.13 362.188 452.979 363.203 448.71C364.22 444.442 367.268 433.062 368.488 430.419C369.707 427.777 371.332 423.509 370.927 422.899C370.519 422.29 367.913 420.87 367.913 420.87L367.622 423.404C367.622 423.404 366.353 424.867 363.812 424.729C362.19 424.64 361.78 425.338 361.78 425.338L357.92 434.28C357.92 434.28 358.326 425.541 357.717 424.321C357.106 423.102 351.043 422.819 350.652 420.675L351.027 418.809z"
         id="path2848">
      </path>

    </g>
    <g
       id="g2849"
       style="stroke:#000000; stroke-width:0.5">      <path
         d="M348.701 420.771C348.701 420.771 349.57 423.471 354.164 424.38C355.615 424.667 356.009 425.492 356.211 426.915C356.414 428.338 356.098 435.749 356.505 436.764C356.91 437.78 357.942 439.073 358.553 437.447C359.163 435.821 363.407 426.963 363.407 426.963C363.407 426.963 367.267 426.15 368.081 425.948C368.894 425.745 370.327 424.899 370.938 424.087"
         id="path2850">
      </path>

    </g>
    <g
       id="g2851"
       style="stroke:#000000; stroke-width:0.5">      <path
         d="M333.385 458.206C333.385 458.206 337.246 457.595 337.856 459.019C338.464 460.441 340.091 460.644 340.091 460.644"
         id="path2852">
      </path>

    </g>
    <g
       id="g2853"
       style="stroke:#000000; stroke-width:0.5">      <path
         d="M263.231 475.035C263.231 475.035 255.299 473.915 249.696 477.006C247.666 478.126 245.259 480.286 244.674 482.415"
         id="path2854">
      </path>

    </g>
    <g
       id="g2855"
       style="stroke:#000000; stroke-width:0.5">      <path
         d="M262.844 475.151C262.844 475.151 255.31 476.696 252.441 479.601"
         id="path2856">
      </path>

    </g>
    <g
       id="g2857"
       style="stroke:#000000; stroke-width:0.5">      <path
         d="M367.622 423.404C367.622 423.404 368.596 423.112 368.889 422.819"
         id="path2858">
      </path>

    </g>
    <g
       id="g2859"
       style="stroke:#000000; stroke-width:0.5">      <path
         d="M349.873 420.186L350.75 420.869"
         id="path2860">
      </path>

    </g>
    <g
       id="g2861"
       style="fill: #ffafba; stroke:#000000; stroke-width:0.5">      <path
         d="M355.406 393.479C355.406 393.479 353.543 404.844 352.979 408.502C352.418 412.16 350.589 420.075 350.729 420.46C351.112 421.502 352.207 422.596 354.95 423.132C357.742 423.678 357.765 424.398 357.904 426.79C358.045 429.182 357.904 433.965 357.904 433.965L362.125 424.821C362.125 424.821 365.359 425.243 366.907 424.117C368.456 422.992 367.608 423.438 367.608 423.438C367.608 423.438 368.531 412.983 369.375 409.889C370.22 406.794 371.972 396.123 372.394 395.7C372.815 395.278 376.261 393.814 378.231 389.875C380.2 385.936 379.99 385.43 379.99 385.43C379.99 385.43 376.192 384.586 374.364 384.727C372.534 384.868 368.315 384.024 367.19 383.602C366.063 383.18 361.843 381.21 361.281 381.21C360.717 381.21 356.217 380.226 356.217 380.226C356.217 380.226 355.653 377.271 356.217 375.864C356.779 374.457 356.779 373.894 357.341 373.894C357.904 373.894 362.266 374.176 363.25 373.613C364.235 373.051 365.221 372.92 365.925 371.513C366.629 370.106 365.781 368.971 365.781 368.971C365.781 368.971 360.934 369.354 360.371 369.073C359.807 368.792 357.734 368.343 357.173 368.483C356.61 368.625 350.306 370.519 349.604 370.94C348.9 371.363 347.353 375.02 347.353 376.287C347.353 377.553 346.509 379.944 346.368 380.648C346.228 381.351 346.522 382.538 347.493 385.063C348.592 387.912 348.924 389.438 350.309 390.355C351.153 390.914 353.31 392.183 354.106 392.465C355.067 392.805 355.406 393.479 355.406 393.479z"
         id="path2862">
      </path>

    </g>
    <g
       id="g2863"
       style="stroke:#000000; stroke-width:0.5">      <path
         d="M359.191 392.721C359.191 392.721 361.281 392.464 361.562 391.761C361.843 391.058 361.562 390.073 361.139 389.792"
         id="path2864">
      </path>

    </g>
    <g
       id="g2865"
       style="stroke:#000000; stroke-width:0.5">      <path
         d="M369.722 396.123C369.722 396.123 366.907 395.981 366.625 396.544C366.345 397.107 363.954 403.297 363.812 404.282"
         id="path2866">
      </path>

    </g>
    <g
       id="g2867"
       style="stroke:#000000; stroke-width:0.5">      <path
         d="M368.533 396.171C368.533 396.171 367.537 402.144 367.537 403.129"
         id="path2868">
      </path>

    </g>
    <g
       id="g2869"
       style="stroke:#000000; stroke-width:0.5">      <path
         d="M366.345 383.379C366.345 383.379 366.688 386.491 364.578 387.335"
         id="path2870">
      </path>

    </g>
    <g
       id="g2871"
       style="stroke:#000000; stroke-width:0.5">      <path
         d="M367.19 383.602C367.19 383.602 369.018 387.4 368.174 388.666"
         id="path2872">
      </path>

    </g>
    <g
       id="g2873"
       style="stroke:#000000; stroke-width:0.5">      <path
         d="M353.402 372.629C353.402 372.629 355.935 374.458 356.638 374.176"
         id="path2874">
      </path>

    </g>
    <g
       id="g2875"
       style="stroke:#000000; stroke-width:0.5">      <path
         d="M355.935 380.226C355.371 380.648 352.84 379.804 352.84 379.804"
         id="path2876">
      </path>

    </g>
    <g
       id="g2877"
       style="stroke:#000000; stroke-width:0.5">      <path
         d="M355.372 380.366C355.372 380.366 353.543 380.647 353.12 381.21"
         id="path2878">
      </path>

    </g>
    <g
       id="g2879"
       style="fill: #c10000; stroke:#000000; stroke-width:0.5">      <path
         d="M360.707 369.073C360.707 369.073 360.858 371.222 361.703 371.363C362.547 371.503 364.94 370.8 365.501 370.659C366.063 370.519 365.781 368.971 365.781 368.971C365.781 368.971 363.065 368.988 362.642 368.988C362.221 368.988 360.707 369.073 360.707 369.073z"
         id="path2880">
      </path>

    </g>
    <g
       id="g2881"
       style="fill: #bfbfbf; stroke:#000000; stroke-width:0.5">      <path
         d="M379.006 368.408C379.006 368.408 383.367 368.268 384.492 368.408C385.617 368.549 387.023 369.534 387.165 370.519C387.306 371.503 388.149 378.396 388.572 380.507C388.993 382.617 389.838 385.712 389.276 386.415C388.713 387.118 387.308 388.244 386.181 388.104C385.056 387.963 381.539 386.415 380.975 386.274C380.413 386.134 377.601 384.868 376.897 384.868C376.192 384.868 370.846 384.165 369.018 383.883C367.19 383.602 365.079 382.477 364.516 382.335C363.954 382.195 361.843 380.788 361.843 380.788L363.531 379.944C363.531 379.944 363.812 377.412 363.531 376.708C363.25 376.005 363.812 375.302 364.516 374.598C365.22 373.894 365.921 374.176 366.063 374.739C366.203 375.302 366.344 376.849 366.907 377.833C367.47 378.818 368.032 380.085 369.018 380.226C370.002 380.366 370.846 379.803 371.268 378.678C371.69 377.553 372.815 376.708 372.676 376.005C372.534 375.302 371.972 372.628 371.972 371.925C371.972 371.222 372.394 369.534 372.815 369.252C373.238 368.971 373.519 368.971 373.378 369.956C373.238 370.94 373.238 372.206 373.519 373.191C373.8 374.176 374.784 375.02 374.927 375.723C375.066 376.427 376.334 375.864 376.897 375.302C377.458 374.739 377.458 372.769 377.458 372.207C377.458 371.644 377.74 369.814 378.162 369.393C378.585 368.971 379.006 368.408 379.006 368.408z"
         id="path2882">
      </path>

    </g>
    <g
       id="g2883"
       style="stroke:#000000; stroke-width:0.5">      <path
         d="M383.788 370.237C383.788 370.237 382.664 372.207 383.227 374.598C383.788 376.989 384.068 379.241 383.788 381.069C383.507 382.898 383.509 385.149 384.492 386.134C385.477 387.118 385.619 388.104 386.181 388.104"
         id="path2884">
      </path>

    </g>
    <g
       id="g2885"
       style="stroke:#000000; stroke-width:0.5">      <path
         d="M386.461 379.944C386.461 379.944 387.447 385.993 387.306 386.697"
         id="path2886">
      </path>

    </g>
    <g
       id="g2887"
       style="fill: #820000; stroke:#000000; stroke-width:0.5">      <path
         d="M377.598 370.519L381.818 370.659C381.818 370.659 381.117 373.754 381.397 374.879C381.679 376.005 381.818 379.663 381.679 381.069C381.539 382.477 381.117 384.024 381.397 384.727C381.679 385.43 375.912 383.461 374.364 383.461C372.815 383.461 370.283 382.757 368.596 382.477C366.907 382.195 363.531 380.648 363.531 380.648L362.156 380.026C362.156 380.026 363.635 380.78 363.635 376.7C363.635 372.62 364.375 373.051 365.359 372.207C366.345 371.363 366.203 374.316 366.345 375.161C366.485 376.005 366.628 377.834 367.611 378.818C368.596 379.804 369.108 380.061 370.656 378.794C372.204 377.528 371.972 377.412 372.254 376.567C372.534 375.723 371.691 373.332 371.831 372.629C371.972 371.925 372.253 369.252 372.815 369.252C373.378 369.252 373.096 370.8 373.238 371.785C373.378 372.769 373.8 374.176 374.223 374.598C374.644 375.02 374.504 376.145 375.348 376.145C376.192 376.145 377.178 375.02 377.317 374.176C377.458 373.332 377.598 370.519 377.598 370.519z"
         id="path2888">
      </path>

    </g>
    <g
       id="g2889"
       style="fill: #ffafba; stroke:#000000; stroke-width:0.5">      <path
         d="M366.345 368.971C366.345 368.971 368.14 363.589 370.249 362.463C371.42 361.838 371.678 361.152 373.862 361.71C375.035 362.009 375.348 364.047 375.771 364.188C376.192 364.328 377.317 362.359 378.443 362.218C379.568 362.078 381.237 363.009 381.679 363.625C382.383 364.61 383.227 367.283 383.227 367.986C383.227 368.69 379.147 367.986 379.147 367.986C379.147 367.986 377.598 369.815 377.598 371.222C377.598 372.629 377.458 374.316 377.177 375.161C376.897 376.005 376.051 376.004 375.348 376.145C374.644 376.287 373.238 373.613 373.238 373.051C373.238 372.488 372.668 369.502 372.81 368.939C372.949 368.377 371.831 371.925 371.831 372.629C371.831 373.332 372.254 375.441 372.111 376.567C371.972 377.693 371.55 378.396 370.987 378.96C370.425 379.522 369.373 379.868 368.809 379.164C368.246 378.46 367.19 377.552 366.768 376.567C366.345 375.583 365.924 373.614 365.781 372.91C365.641 372.207 365.924 369.814 366.345 368.971z"
         id="path2890">
      </path>

    </g>
    <g
       id="g2891"
       style="fill: #ffafba; stroke:#000000; stroke-width:0.5">      <path
         d="M367.387 366.229C367.387 366.229 366.2 364.571 365.128 364.571C363.581 364.571 361.469 365.561 361.046 366.967C360.625 368.375 360.185 368.938 360.185 368.938C360.185 368.938 360.422 369.241 361.97 369.241C363.517 369.241 366.203 368.971 366.203 368.971L367.387 366.229z"
         id="path2892">
      </path>

    </g>
    <g
       id="g2893"
       style="fill: #ffafba; stroke:#000000; stroke-width:0.5">      <path
         d="M358.749 374.035C358.749 374.035 358.045 375.864 358.045 376.849C358.045 377.833 358.608 379.522 358.749 380.226C358.889 380.929 360.996 380.865 361.664 380.642C362.838 380.25 363.493 379.92 363.635 378.794C363.775 377.668 364.063 375.979 363.924 375.415C363.783 374.854 365.079 372.488 365.079 372.488C365.079 372.488 362.512 373.295 360.999 373.613C359.78 373.869 358.749 374.035 358.749 374.035z"
         id="path2894">
      </path>

    </g>
    <g
       id="g2895"
       style="fill: #c10000; stroke:#000000; stroke-width:0.5">      <path
         d="M366.768 374.739C366.768 374.739 368.313 374.879 369.018 374.457C369.722 374.035 370.144 375.161 370.144 376.427C370.144 377.693 370.426 379.1 370.144 379.522C369.861 379.944 369.14 379.962 368.456 379.804C367.822 379.657 366.768 377.833 366.625 376.989C366.485 376.145 366.768 374.739 366.768 374.739z"
         id="path2896">
      </path>

    </g>
    <g
       id="g2897"
       style="fill: #c10000; stroke:#000000; stroke-width:0.5">      <path
         d="M373.238 371.503C373.238 371.503 374.647 371.925 375.208 371.503C375.771 371.081 375.771 372.347 375.771 373.051C375.771 373.754 375.631 375.864 375.631 375.864C375.631 375.864 374.644 376.567 374.082 375.161C373.777 374.399 373.238 373.051 373.238 373.051L373.238 371.503z"
         id="path2898">
      </path>

    </g>
    <g
       id="g2899"
       style="fill: #c10000; stroke:#000000; stroke-width:0.5">      <path
         d="M358.466 377.131C358.466 377.131 360.417 375.856 360.76 376.47C361.536 377.858 361.139 378.538 361.139 379.241C361.139 379.944 361.139 380.788 361.139 380.788C361.139 380.788 359.94 382.244 359.199 381.135C358.419 379.965 358.466 377.131 358.466 377.131z"
         id="path2900">
      </path>

    </g>
    <g
       id="g2901"
       style="stroke:#000000; stroke-width:0.5">      <path
         d="M375.771 364.188C375.771 364.188 374.364 366.579 373.942 367.283C373.519 367.986 372.949 369.149 372.81 369.994"
         id="path2902">
      </path>

    </g>
    <g
       id="g2903"
       style="stroke:#000000; stroke-width:0.5">      <path
         d="M379.147 367.986C379.147 367.986 379.709 366.861 380.553 367.283"
         id="path2904">
      </path>

    </g>
    <g
       id="g2905"
       style="stroke:#000000; stroke-width:0.5">      <path
         d="M371.127 370.659C370.787 370.317 371.831 370.864 371.831 372.207"
         id="path2906">
      </path>

    </g>
    <g
       id="g2907"
       style="stroke:#000000; stroke-width:0.5">      <path
         d="M372.815 366.438C372.815 366.438 373.378 367.283 373.378 367.986"
         id="path2908">
      </path>

    </g>
    <g
       id="g2909"
       style="stroke:#000000; stroke-width:0.5">      <path
         d="M362.868 374.663L364.074 375.717"
         id="path2910">
      </path>

    </g>
    <g
       id="g2911"
       style="stroke:#000000; stroke-width:0.5">      <path
         d="M364.99 368.2L366.169 368.818"
         id="path2912">
      </path>

    </g>
    <g
       id="g2913"
       style="stroke:#000000; stroke-width:0.5">      <path
         d="M376.755 369.814L377.598 370.378"
         id="path2914">
      </path>

    </g>
    <g
       id="g2915"
       style="fill: #bfbfbf; stroke:#000000; stroke-width:0.5">      <path
         d="M357.341 373.894C357.341 373.894 356.356 374.598 356.217 375.864C356.075 377.131 355.652 377.833 355.935 378.678C356.217 379.522 356.076 379.804 357.06 380.226C358.045 380.648 358.749 380.226 358.749 380.226C358.749 380.226 358.187 377.974 358.326 377.412C358.466 376.849 358.749 374.035 358.749 374.035L357.341 373.894z"
         id="path2916">
      </path>

    </g>
    <g
       id="g2917"
       style="fill: #ffa300; stroke:#000000; stroke-width:0.5">      <path
         d="M232.864 530.065C232.864 530.065 234.411 532.129 233.637 534.193C232.864 536.256 233.378 536.255 234.153 537.545C234.927 538.835 240.695 545.327 242.5 547.648C244.307 549.969 246.301 552.36 247.713 554.951C248.603 556.584 250.308 560.448 250.308 560.448C250.308 560.448 246.613 556.209 243.261 554.146C239.907 552.082 235.761 549.097 232.035 548.327C230.498 548.009 226.185 547.665 223.644 548.437C221.537 549.079 216.728 550.68 214.923 551.97C213.117 553.259 211.104 555.126 208.961 557.269C207.636 558.594 204.728 564.651 204.49 565.918C204.103 567.978 203.55 572.394 205.063 576.085C206.027 578.436 208.149 581.741 209.182 582.773C210.214 583.804 211.457 585.335 211.457 585.335C211.457 585.335 209.908 587.843 202.685 582.685C199.536 580.436 196.821 574.668 196.495 573.656C195.16 569.524 196.237 564.371 197.268 561.275C198.3 558.181 200.46 551.971 204.766 547.885C207.426 545.362 209.402 543.028 215.065 540.125C219.173 538.021 225.641 533.934 227.704 533.161C229.768 532.387 232.864 530.065 232.864 530.065z"
         id="path2918">
      </path>

    </g>
    <g
       id="g2919"
       style="stroke:#000000; stroke-width:0.5">      <path
         d="M233.211 535.74C233.211 535.74 229.768 537.804 228.736 538.835C227.704 539.867 227.446 540.383 227.704 541.415"
         id="path2920">
      </path>

    </g>
    <g
       id="g2921"
       style="fill: #7f99b2; stroke:#000000; stroke-width:0.5">      <path
         d="M338.503 370.787C338.503 370.787 336.713 372.837 337.147 373.99C337.652 375.333 338.01 376.824 338.503 377.193C338.995 377.562 340.339 374.808 340.339 374.808C340.339 374.808 341.582 373.62 341.951 373.497C342.32 373.374 340.844 371.526 340.103 371.28C339.364 371.033 338.503 370.787 338.503 370.787z"
         id="path2922">
      </path>

    </g>
    <g
       id="g2923"
       style="fill: #bfbfbf; stroke:#000000; stroke-width:0.5">      <path
         d="M361.294 359.945C362.033 358.713 361.909 353.785 361.664 351.814C361.416 349.843 359.691 348.487 358.83 347.749C357.967 347.009 356.164 345.462 353.777 345.531C352.418 345.57 350.698 346.148 350.33 345.777C349.96 345.408 350.33 344.053 349.221 343.56C348.112 343.067 343.731 343.493 341.458 340.726C340.612 339.697 337.394 322.247 337.269 321.754C337.147 321.261 334.929 321.015 334.559 321.754C334.19 322.493 332.22 312.514 332.22 312.514C332.22 312.514 327.785 310.297 326.06 312.637C324.335 314.978 324.827 314.855 324.827 314.855C324.827 314.855 333.696 361.917 334.19 363.765C334.683 365.612 334.93 366.721 335.545 367.337C336.161 367.954 335.914 367.954 335.299 368.2C334.683 368.446 331.231 368.815 331.11 369.555C330.986 370.293 331.234 371.773 331.234 371.773C331.234 371.773 334.437 370.664 336.53 370.54C338.624 370.417 338.995 370.664 340.103 371.28C341.213 371.895 341.951 372.881 343.183 374.729C344.416 376.577 346.387 378.056 346.879 378.056C347.372 378.056 348.067 372.749 348.808 371.886C349.547 371.024 351.576 370.164 353.056 369.918C354.534 369.671 357.351 368.446 358.091 368.569C358.83 368.692 360.185 368.938 360.185 368.938L361.046 366.967C361.046 366.967 360.185 366.968 359.445 365.981C358.706 364.996 358.212 363.888 358.953 362.779C359.691 361.67 360.554 361.177 361.294 359.945z"
         id="path2924">
      </path>

    </g>
    <g
       id="g2925"
       style="fill: #bfbfbf; stroke:#000000; stroke-width:0.5">      <path
         d="M354.593 361.839C352.898 361.665 349.978 359.386 349.278 357.926C348.575 356.466 348.506 352.606 349.11 350.788C349.639 349.206 350.211 348.52 350.211 348.52C350.211 348.52 354.018 346.477 356.285 348.404C357.301 349.267 360.084 351.105 359.676 354.654C359.38 357.21 359.441 359.152 358.798 360.087C358.154 361.021 356.285 362.015 354.593 361.839z"
         id="path2926">
      </path>

    </g>
    <g
       id="g2927"
       style="fill: #7f99b2; stroke:#000000; stroke-width:0.1">      <path
         d="M324.919 315.868L323.867 316.043L323.983 316.803L325.035 316.51L324.919 315.868z"
         id="path2928">
      </path>

    </g>
    <g
       id="g2929"
       style="fill: #7f99b2; stroke:#000000; stroke-width:0.5">      <path
         d="M326.976 316.102C326.976 316.102 327.618 314.991 328.553 314.875C329.68 314.734 330.54 315.342 330.54 315.342L330.772 316.51C330.772 316.51 329.336 316.136 328.846 316.218C328.144 316.335 327.268 317.503 327.268 317.503L326.976 316.102z"
         id="path2930">
      </path>

    </g>
    <g
       id="g2931"
       style="fill: #7f99b2; stroke:#000000; stroke-width:0.5">      <path
         d="M327.501 318.892C327.501 318.892 328.144 317.781 329.079 317.665C330.205 317.524 331.065 318.132 331.065 318.132L331.298 319.3C331.298 319.3 329.862 318.926 329.371 319.008C328.67 319.125 327.793 320.293 327.793 320.293L327.501 318.892z"
         id="path2932">
      </path>

    </g>
    <g
       id="g2933"
       style="fill: #7f99b2; stroke:#000000; stroke-width:0.5">      <path
         d="M328.175 321.895C328.175 321.895 328.818 320.786 329.754 320.669C330.879 320.529 331.739 321.136 331.739 321.136L331.972 322.305C331.972 322.305 330.536 321.931 330.045 322.013C329.345 322.129 328.468 323.298 328.468 323.298L328.175 321.895z"
         id="path2934">
      </path>

    </g>
    <g
       id="g2935"
       style="fill: #7f99b2; stroke:#000000; stroke-width:0.5">      <path
         d="M328.85 324.974C328.85 324.974 329.493 323.863 330.428 323.747C331.553 323.606 332.415 324.214 332.415 324.214L332.647 325.382C332.647 325.382 331.21 325.008 330.719 325.09C330.019 325.207 329.142 326.375 329.142 326.375L328.85 324.974z"
         id="path2936">
      </path>

    </g>
    <g
       id="g2937"
       style="fill: #7f99b2; stroke:#000000; stroke-width:0.5">      <path
         d="M329.387 327.855C329.387 327.855 330.03 326.745 330.965 326.628C332.091 326.487 332.951 327.096 332.951 327.096L333.184 328.264C333.184 328.264 331.748 327.89 331.257 327.972C330.557 328.088 329.68 329.257 329.68 329.257L329.387 327.855z"
         id="path2938">
      </path>

    </g>
    <g
       id="g2939"
       style="fill: #7f99b2; stroke:#000000; stroke-width:0.5">      <path
         d="M329.994 330.967C329.994 330.967 330.637 329.857 331.571 329.74C332.697 329.6 333.558 330.208 333.558 330.208L333.79 331.375C333.79 331.375 332.354 331.002 331.863 331.084C331.163 331.201 330.286 332.369 330.286 332.369L329.994 330.967z"
         id="path2940">
      </path>

    </g>
    <g
       id="g2941"
       style="stroke:#000000; stroke-width:0.5">      <path
         d="M334.44 321.826L338.5 340.507C338.5 340.507 339.795 340.318 341.272 340.811"
         id="path2942">
      </path>

    </g>
    <g
       id="g2943"
       style="stroke:#000000; stroke-width:0.5">      <path
         d="M334.216 348.523L338.777 366.489L348.451 364.14L343.477 346.587C343.477 346.587 341.401 346.587 338.914 347.141C336.427 347.694 334.216 348.523 334.216 348.523z"
         id="path2944">
      </path>

    </g>
    <g
       id="g2945"
       style="fill: #7f99b2; stroke:#000000; stroke-width:0.5">      <path
         d="M335.65 348.841L339.594 365.35L346.739 363.379L342.427 347.116C342.427 347.116 340.387 346.301 338.704 346.827C336.58 347.491 335.65 348.841 335.65 348.841z"
         id="path2946">
      </path>

    </g>
    <g
       id="g2947"
       style="stroke:#000000; stroke-width:0.5">      <path
         d="M339.581 365.11C339.581 365.11 341.354 363.509 342.442 363.183C344.195 362.657 345.772 362.716 346.414 363.007"
         id="path2948">
      </path>

    </g>
    <g
       id="g2949"
       style="stroke:#000000; stroke-width:0.5">      <path
         d="M336.894 347.879L340.748 364.001"
         id="path2950">
      </path>

    </g>
    <g
       id="g2951"
       style="stroke:#000000; stroke-width:0.5">      <path
         d="M338.178 346.943L342.442 363.183"
         id="path2952">
      </path>

    </g>
    <g
       id="g2953"
       style="stroke:#000000; stroke-width:0.5">      <path
         d="M340.047 346.418L344.136 362.832"
         id="path2954">
      </path>

    </g>
    <g
       id="g2955"
       style="stroke:#000000; stroke-width:0.5">      <path
         d="M341.391 346.71L345.421 362.774"
         id="path2956">
      </path>

    </g>
    <g
       id="g2957"
       style="fill: #000000">      <path
         d="M349.088 357.585C349.088 357.585 352.693 358.689 354.31 358.542C355.93 358.394 359.461 357.512 359.461 357.512C359.461 357.512 359.535 359.866 358.651 360.381C357.769 360.896 356.739 361.852 355.487 361.852C354.238 361.852 351.917 360.554 351.514 360.308C350.19 359.498 349.088 357.585 349.088 357.585z"
         id="path2958">
      </path>

    </g>
    <g
       id="g2959"
       style="fill: #ffafba; stroke:#000000; stroke-width:0.5113">      <path
         d="M352.978 358.274C352.978 358.274 351.985 353.624 354.89 353.118C357.097 352.734 357.978 355.734 358.273 356.427C358.567 357.12 358.567 357.735 358.567 357.735C358.567 357.735 357.319 358.428 355.403 358.428C354.154 358.428 352.978 358.274 352.978 358.274z"
         id="path2960">
      </path>

    </g>
    <g
       id="g2961"
       style="fill: #ffafba; stroke:#000000; stroke-width:0.5">      <path
         d="M360.271 361.338L361.962 365.457C361.962 365.457 361.09 366.785 361.046 366.967C361.006 367.15 359.976 366.782 359.607 366.193C359.24 365.605 358.508 364.181 358.577 363.692C358.724 362.662 360.271 361.338 360.271 361.338z"
         id="path2962">
      </path>

    </g>
    <g
       id="g2963"
       style="fill: #ffa300; stroke:#000000; stroke-width:0.5">      <path
         d="M114.744 468.942C114.744 468.942 150.81 480.152 152.435 479.827C154.06 479.502 155.685 478.04 155.685 478.04C155.685 478.04 155.597 483.975 157.472 486.326C162.381 492.483 167.706 494.936 169.331 496.56C170.956 498.185 171.28 499.323 171.28 499.323C171.28 499.323 161.858 506.633 155.847 506.146C153.075 505.921 135.051 498.185 132.615 497.373C130.178 496.56 109.026 488.735 108.083 488.438C104.997 487.463 103.535 488.275 103.372 487.625C103.209 486.976 104.023 486.163 105.647 485.838C107.271 485.513 115.557 485.676 115.557 485.676L104.347 482.589C104.347 482.589 105.809 475.928 107.758 473.816C110.145 471.231 110.223 471.785 114.744 468.942z"
         id="path2964">
      </path>

    </g>
    <g
       id="g2965"
       style="stroke:#000000; stroke-width:0.5">      <path
         d="M117.344 469.917C117.344 469.917 111.983 472.679 109.708 475.604C108.571 477.065 107.434 480.964 107.434 480.964C107.434 480.964 113.769 482.751 115.069 483.564C116.37 484.376 119.293 486.65 118.481 487.3C117.668 487.95 111.008 488.113 111.008 488.113L109.058 488.438"
         id="path2966">
      </path>

    </g>
    <g
       id="g2967"
       style="fill: #ffafba; stroke:#000000; stroke-width:0.5">      <path
         d="M112.817 469.917C112.817 469.917 95.148 465.286 90.349 462.886C85.548 460.485 81.615 457.745 80.586 455.688C79.558 453.63 75.996 443.149 73.9 439.744C73.216 438.632 69.813 423.539 69.298 423.024C68.784 422.51 66.898 422.852 66.555 423.367C66.213 423.882 65.983 425.767 66.326 426.795C66.669 427.824 69.596 437.176 70.128 440.258C70.245 440.934 66.189 432.846 65.045 430.066C64.198 428.004 62.099 422.338 61.069 420.795C60.041 419.253 58.669 417.881 57.983 418.738C57.297 419.595 56.955 420.453 56.955 421.139C56.955 421.824 60.212 430.054 60.384 430.911C60.555 431.768 63.059 439.609 63.059 439.609C63.059 439.609 58.346 427.932 57.367 426.227C56.328 424.416 53.046 419.718 52.532 418.689C52.018 417.661 49.926 415.995 49.926 415.995C49.926 415.995 48.554 416.167 48.211 416.852C47.869 417.539 47.011 419.252 47.697 420.453C48.382 421.653 51.64 425.768 51.811 426.453C51.983 427.139 49.24 423.882 48.382 423.196C47.526 422.51 46.154 422.51 45.811 423.71C45.468 424.911 45.468 427.139 45.982 428.511C46.497 429.882 50.756 438.201 51.441 439.744C52.127 441.287 53.366 444.748 53.79 446.063C54.292 447.622 54.951 449.967 56.217 451.972C57.061 453.308 57.271 456.716 56.756 458.087C56.242 459.46 53.841 460.488 51.613 460.488C49.384 460.488 43.626 460.09 41.911 459.405C40.197 458.719 35.397 458.204 34.368 459.233C33.339 460.262 32.825 460.947 33.168 461.977C33.511 463.005 34.456 464.182 36.473 464.621C38.899 465.148 41.213 465.321 42.294 465.646C43.478 466.003 45.512 466.62 48.94 467.306C52.369 467.992 53.195 467.553 55.767 469.438C58.338 471.324 63.263 472.632 64.453 472.862C66.723 473.302 71.501 473.175 73.729 473.003C75.958 472.832 78.185 472.317 81.101 473.346C84.015 474.375 92.064 478.441 93.778 479.299C95.493 480.156 101.578 483.438 102.778 483.953C103.978 484.466 106.036 485.528 106.036 485.528L114.704 485.518L104.347 482.589C104.347 482.589 106.152 475.916 106.861 475.079C108.022 473.707 112.817 469.917 112.817 469.917z"
         id="path2968">
      </path>

    </g>
    <g
       id="g2969"
       style="stroke:#000000; stroke-width:0.5">      <path
         d="M51.878 426.507C51.878 426.507 55.858 436.125 56.543 436.982C57.23 437.839 58.12 440.555 58.96 442.341C59.353 443.177 60.234 445.097 60.749 445.61C61.263 446.125 62.928 447.458 63.614 447.973"
         id="path2970">
      </path>

    </g>
    <g
       id="g2971"
       style="stroke:#000000; stroke-width:0.5">      <path
         d="M62.125 437.095C62.125 437.095 63.957 442.144 64.471 442.486C64.985 442.829 66.528 444.201 67.042 445.058"
         id="path2972">
      </path>

    </g>
    <g
       id="g2973"
       style="stroke:#000000; stroke-width:0.5">      <path
         d="M70.039 440.26C70.039 440.26 70.806 442.175 72.36 443.32"
         id="path2974">
      </path>

    </g>
    <g
       id="g2975"
       style="fill: #c10000; stroke:#000000; stroke-width:0.5">      <path
         d="M66.966 423.025C66.966 423.025 68.191 426.058 68.534 426.571C68.876 427.086 69.391 426.571 69.905 426.571C70.419 426.571 69.731 423.023 69.192 422.497C68.655 421.971 68.127 422.181 67.705 422.181C67.283 422.181 66.966 423.025 66.966 423.025z"
         id="path2976">
      </path>

    </g>
    <g
       id="g2977"
       style="fill: #c10000; stroke:#000000; stroke-width:0.5">      <path
         d="M57.471 418.594C57.471 418.594 58.42 421.443 58.948 422.181C59.475 422.92 60.742 423.025 61.269 422.604C61.796 422.181 61.292 421.625 61.069 420.795C60.847 419.966 59.445 418.203 59.159 418.066C58.078 417.552 57.471 418.594 57.471 418.594z"
         id="path2978">
      </path>

    </g>
    <g
       id="g2979"
       style="fill: #c10000; stroke:#000000; stroke-width:0.5">      <path
         d="M53.039 420.282C53.039 420.282 52.09 420.81 51.457 420.81C50.824 420.81 48.713 417.644 48.607 417.223C48.502 416.801 49.347 415.745 49.98 415.745C50.612 415.745 52.195 418.594 52.511 419.016C52.828 419.438 53.039 420.282 53.039 420.282z"
         id="path2980">
      </path>

    </g>
    <g
       id="g2981"
       style="fill: #c10000; stroke:#000000; stroke-width:0.5">      <path
         d="M46.181 423.131C46.181 423.131 47.869 426.296 48.713 427.035C49.558 427.773 50.507 427.351 51.246 427.141C51.984 426.929 50.085 424.608 49.874 424.292C49.663 423.975 48.502 422.92 48.291 422.604C48.081 422.287 46.181 423.131 46.181 423.131z"
         id="path2982">
      </path>

    </g>
    <g
       id="g2983"
       style="fill: #c10000; stroke:#000000; stroke-width:0.5">      <path
         d="M33.537 458.999C33.537 458.999 38.601 459.843 39.551 460.477C40.501 461.109 40.606 462.376 40.29 462.903C39.973 463.431 38.812 463.958 38.391 463.852C37.968 463.747 33.643 463.114 33.009 462.692C32.376 462.27 32.27 461.215 32.376 460.582C32.482 459.949 33.537 458.999 33.537 458.999z"
         id="path2984">
      </path>

    </g>
    <g
       id="g2985"
       style="stroke:#000000; stroke-width:0.4455">      <path
         d="M58.979 456.768C58.979 456.768 60.457 460.023 59.072 461.171C58.295 461.815 57.41 461.746 56.948 461.554"
         id="path2986">
      </path>

    </g>
    <g
       id="g2987"
       style="stroke:#000000; stroke-width:0.5">      <path
         d="M42.772 465.625C42.772 465.625 42.141 464.363 42.351 463.523"
         id="path2988">
      </path>

    </g>
    <g
       id="g2989"
       style="fill: #ffafba; stroke:#000000; stroke-width:0.5">      <path
         d="M155.4 625.244C155.4 625.244 141.326 646.24 139.449 648.82C137.572 651.4 128.189 668.878 126.899 670.987C125.609 673.1 121.598 681.96 121.598 681.96C121.598 681.96 135.344 690.459 137.455 691.865C139.566 693.273 149.246 699.287 150.826 700.192C153.67 701.822 154.959 701.459 155.31 701.459C155.662 701.459 167.012 688.112 169.241 686.001C171.469 683.89 189.649 665.827 192.581 663.247C195.513 660.666 206.656 650.11 208.532 647.881C209.56 646.661 213.705 643.099 213.705 643.099C213.705 643.099 204.075 640.023 201.964 639.084C199.853 638.147 191.762 633.729 191.762 633.729L198.211 617.035L181.204 627.356C181.204 627.356 173.111 624.54 169.475 624.424C165.839 624.306 161.03 624.072 159.857 624.306C158.685 624.54 155.4 625.244 155.4 625.244z"
         id="path2990">
      </path>

    </g>
    <g
       id="g2991"
       style="fill: #ffafba; stroke:#000000; stroke-width:0.5">      <path
         d="M185.192 670.401C185.192 670.401 186.834 687.526 187.42 690.341C188.007 693.157 190.235 707.348 190.47 709.693C190.705 712.04 194.224 728.459 194.341 729.163C194.457 729.867 194.692 731.509 194.692 731.509C194.692 731.509 201.496 729.046 203.019 727.874C204.544 726.699 216.157 715.323 217.095 714.151C218.033 712.977 219.322 713.447 220.261 714.151C221.201 714.856 224.131 720.719 224.249 721.774C224.367 722.831 224.953 728.46 226.83 728.107C228.707 727.756 231.403 726.817 231.64 725.879C231.873 724.941 230.231 722.01 229.294 720.953C228.356 719.898 227.182 715.325 227.182 713.564C227.182 711.805 228.238 703.242 229.06 699.371C229.88 695.502 232.388 675.547 232.694 672.982C233.425 666.886 233.045 651.048 233.281 649.406C233.516 647.764 233.516 639.555 233.516 639.555C233.516 639.555 225.071 639.555 222.959 639.671C220.847 639.788 217.681 639.671 217.446 640.023C217.213 640.375 215.805 642.603 214.984 642.838C214.162 643.072 213.501 642.897 213.501 642.897C213.501 642.897 208.649 648.116 205.718 650.696C204.397 651.859 195.983 659.962 194.223 661.486C192.464 663.013 185.192 670.401 185.192 670.401z"
         id="path2992">
      </path>

    </g>
    <g
       id="g2993"
       style="stroke:#000000; stroke-width:0.5">      <path
         d="M224.953 714.973C224.953 714.973 225.188 720.953 226.243 722.477C227.299 724.003 227.651 724.823 228.472 724.354C229.294 723.886 229.06 723.182 228.707 722.477"
         id="path2994">
      </path>

    </g>
    <g
       id="g2995"
       style="fill: #ba0000; stroke:#000000; stroke-width:0.5">      <path
         d="M119.594 681.049C119.594 681.049 117.994 682.597 117.157 686.786C116.318 690.975 111.851 699.91 109.897 702.144C107.942 704.379 105.988 706.332 108.222 708.846C110.455 711.358 110.455 712.477 109.338 713.033C108.222 713.592 105.708 716.106 106.825 718.898C107.942 721.689 108.78 724.761 107.663 726.715C106.546 728.67 105.708 732.858 105.708 732.858C105.708 732.858 103.195 733.416 103.474 735.091C103.754 736.768 104.312 739.561 103.195 743.469C102.078 747.378 95.936 765.527 93.702 770.832C91.468 776.139 82.591 800.513 80.864 805.072C78.678 810.846 70.368 832.208 68.083 836.176C63.36 844.376 59.9 852.012 55.567 854.766C47.91 859.635 35.839 864.972 32.209 866.088C28.58 867.206 17.96 867.814 14.78 870.13C12.381 871.88 10.312 876.832 10.312 878.507C10.312 880.184 30.417 881.579 36.28 881.3C42.144 881.02 64.202 881.578 65.878 881.578C67.553 881.578 73.568 870.731 78.443 870.968C80.474 871.066 78.164 882.138 77.326 882.974C76.488 883.812 97.43 883.812 97.43 883.812C97.43 883.812 99.942 872.086 100.5 867.897C101.059 863.71 102.456 856.17 99.943 853.377C97.43 850.585 95.754 851.144 96.592 848.91C97.43 846.676 99.56 844.937 99.832 844.144C100.8 841.327 99.976 839.73 101.372 837.217C102.768 834.704 104.918 831.493 105.38 830.475C106.292 828.47 104.689 827.131 110.273 817.916C115.858 808.703 118.38 801.997 119.776 800.042C121.173 798.089 130 780.048 133.072 770.555C136.144 761.06 136.702 757.15 137.54 751.846C138.377 746.54 141.728 727.554 144.52 723.923C147.312 720.294 156.806 710.24 157.644 709.403C158.481 708.565 155.41 705.774 154.851 704.938C154.293 704.099 155.783 704.306 157.151 703.641C159.291 702.602 158.872 700.928 158.591 700.365C158.31 699.804 157.498 699.272 157.498 699.272L154.764 701.64C154.764 701.64 152.031 701.459 149.698 699.708C148.168 698.561 140.413 693.8 137.037 691.549C133.661 689.299 127.611 685.922 125.783 684.514C123.954 683.108 121.221 680.262 119.594 681.049z"
         id="path2996">
      </path>

    </g>
    <g
       id="g2997"
       style="stroke:#000000; stroke-width:0.5">      <path
         d="M145.197 713.777C145.197 713.777 142.612 718.034 142.19 719.863C141.768 721.692 140.915 723.689 142.555 724.237"
         id="path2998">
      </path>

    </g>
    <g
       id="g2999"
       style="stroke:#000000; stroke-width:0.5">      <path
         d="M112.137 708.57C112.137 708.57 108.761 706.319 110.871 704.914C112.981 703.506 116.92 702.802 119.03 702.944"
         id="path3000">
      </path>

    </g>
    <g
       id="g3001"
       style="stroke:#000000; stroke-width:0.5">      <path
         d="M110.167 719.122C110.167 719.122 107.775 716.871 109.745 715.606C111.715 714.339 114.81 714.198 115.231 714.478"
         id="path3002">
      </path>

    </g>
    <g
       id="g3003"
       style="stroke:#000000; stroke-width:0.5">      <path
         d="M110.301 712.575C110.301 712.575 114.951 710.963 115.935 709.978"
         id="path3004">
      </path>

    </g>
    <g
       id="g3005"
       style="stroke:#000000; stroke-width:0.5">      <path
         d="M105.708 732.858C105.708 732.858 107.916 733.753 109.745 732.909"
         id="path3006">
      </path>

    </g>
    <g
       id="g3007"
       style="stroke:#000000; stroke-width:0.5">      <path
         d="M103.922 830.111C103.922 830.111 104.367 827.737 101.272 828.299"
         id="path3008">
      </path>

    </g>
    <g
       id="g3009"
       style="stroke:#000000; stroke-width:0.5">      <path
         d="M90.159 848.839C90.159 848.839 98.274 844.962 98.274 843.413C98.274 841.865 98.459 842.367 95.223 842.087"
         id="path3010">
      </path>

    </g>
    <g
       id="g3011"
       style="fill: #ffffff; stroke:#000000; stroke-width:0.5">      <path
         d="M10.815 876.554C10.815 876.554 33.168 879.163 40.495 879.163C47.952 879.163 60.475 879.366 62.445 879.366C64.415 879.366 68.353 879.648 68.353 879.648L66.597 883.054C66.597 883.054 42.16 882.893 38.874 882.893C35.793 882.893 27.874 882.004 25.201 881.863C23.201 881.758 23.303 881.559 9.854 880.135L10.815 876.554z"
         id="path3012">
      </path>

    </g>
    <g
       id="g3013"
       style="fill: #ffffff; stroke:#000000; stroke-width:0.5">      <path
         d="M78.342 880.491L97.909 880.77L97.43 883.812C97.43 883.812 77.669 883.636 77.498 883.306C77.326 882.974 78.342 880.491 78.342 880.491z"
         id="path3014">
      </path>

    </g>
    <g
       id="g3015"
       style="stroke:#000000; stroke-width:0.5">      <path
         d="M83.995 850.88C83.995 850.88 78.792 851.48 79.192 853.279C79.593 855.082 81.793 855.682 83.995 854.882C86.196 854.081 91.398 852.481 92.399 852.481C93.4 852.481 94.601 853.481 94.4 855.682"
         id="path3016">
      </path>

    </g>
    <g
       id="g3017"
       style="stroke:#000000; stroke-width:0.5">      <path
         d="M106.305 734.773C106.305 734.773 107.705 734.572 108.506 734.572"
         id="path3018">
      </path>

    </g>
    <g
       id="g3019"
       style="fill: #ba0000; stroke:#000000; stroke-width:0.5">      <path
         d="M193.943 727.518C193.943 727.518 189.75 730.569 191.351 732.37C192.951 734.172 200.356 743.375 200.756 744.577C201.156 745.777 200.555 748.777 202.556 749.379C204.558 749.98 209.161 752.581 210.162 753.581C211.161 754.583 214.162 757.983 214.162 757.983C214.162 757.983 212.361 760.587 214.162 760.986C215.965 761.387 219.966 760.786 220.767 761.786C221.566 762.788 221.367 764.789 222.368 765.988C223.368 767.189 226.772 769.391 228.771 769.79C230.772 770.191 229.772 772.593 230.573 773.794C231.372 774.994 235.574 775.994 236.376 776.794C237.175 777.596 245.695 787.106 248.976 790.385C252.116 793.527 265.012 807.696 270.113 812.07C273.737 815.176 277.209 818.625 277.209 820.428C277.209 822.227 278.212 825.431 281.213 826.031C284.214 826.631 288.416 831.433 289.216 832.633C290.017 833.835 288.016 835.436 289.616 837.637C291.218 839.838 290.217 842.039 291.019 843.639C291.817 845.239 293.438 847.058 293.438 847.058C293.438 847.058 290.217 849.241 290.418 850.844C290.617 852.444 289.216 853.044 289.216 853.044C289.216 853.044 274.596 858.514 265.492 859.813C261.377 860.401 258.102 860.064 254.724 861.08C250.056 862.484 248.476 868.653 247.873 870.254C247.272 871.855 272.608 874.456 281.013 874.257C289.418 874.056 303.824 873.657 304.625 873.456C305.426 873.257 313.03 859.848 315.031 859.049C317.031 858.247 318.432 861.05 317.633 864.05C316.832 867.053 315.231 874.056 315.231 874.056C315.231 874.056 322.635 875.656 325.036 875.457C327.438 875.258 334.841 874.056 334.841 874.056C334.841 874.056 334.841 851.644 335.241 847.241C335.643 842.84 335.169 834.302 329.839 829.031C326.613 825.841 322.327 822.207 315.124 814.804C307.919 807.399 303.636 799.925 299.634 795.123C295.632 790.32 279.999 768.79 276.197 764.389C272.394 759.984 257.387 745.978 254.786 743.977C252.184 741.976 250.581 743.576 249.381 737.174C248.182 730.769 246.203 733.949 244.603 733.349C243.001 732.747 236.774 728.769 234.974 725.166C233.174 721.564 230.972 715.962 231.173 712.16C231.372 708.358 233.083 705.141 232.373 703.755C231.663 702.37 228.383 704.009 228.383 704.009C228.383 704.009 226.646 712.514 227.369 716.362C228.202 720.775 232.647 725.259 231.845 726.06C231.046 726.859 228.108 727.883 227.107 727.883C226.106 727.883 225.531 726.787 224.249 721.774C222.968 716.762 219.57 713.17 218.565 713.561C214.534 715.125 205.966 725.588 203.966 726.787C201.964 727.989 194.692 731.509 194.692 731.509L193.943 727.518z"
         id="path3020">
      </path>

    </g>
    <g
       id="g3021"
       style="stroke:#000000; stroke-width:0.5">      <path
         d="M240.578 734.773C240.578 734.773 243.779 733.37 244.578 733.571"
         id="path3022">
      </path>

    </g>
    <g
       id="g3023"
       style="stroke:#000000; stroke-width:0.5">      <path
         d="M241.307 737.373C241.307 737.373 244.51 734.773 245.71 736.572C246.911 738.374 245.708 746.178 244.509 748.18"
         id="path3024">
      </path>

    </g>
    <g
       id="g3025"
       style="stroke:#000000; stroke-width:0.5">      <path
         d="M214.088 758.241C214.088 758.241 215.445 753.575 223.292 754.039"
         id="path3026">
      </path>

    </g>
    <g
       id="g3027"
       style="stroke:#000000; stroke-width:0.5">      <path
         d="M220.892 761.781C220.892 761.781 222.734 755.398 230.295 758.381"
         id="path3028">
      </path>

    </g>
    <g
       id="g3029"
       style="stroke:#000000; stroke-width:0.5">      <path
         d="M230.023 769.976C230.023 769.976 230.935 765.056 237.775 767.189C240.458 768.025 241.377 767.99 242.978 767.591"
         id="path3030">
      </path>

    </g>
    <g
       id="g3031"
       style="stroke:#000000; stroke-width:0.5">      <path
         d="M233.974 773.192C233.974 773.192 231.572 769.79 236.774 769.99"
         id="path3032">
      </path>

    </g>
    <g
       id="g3033"
       style="stroke:#000000; stroke-width:0.5">      <path
         d="M223.8 764.366C223.8 764.366 219.798 761.565 225.4 761.165"
         id="path3034">
      </path>

    </g>
    <g
       id="g3035"
       style="stroke:#000000; stroke-width:0.5">      <path
         d="M277.282 819.516C277.282 819.516 277.402 814.804 283.085 815.915"
         id="path3036">
      </path>

    </g>
    <g
       id="g3037"
       style="stroke:#000000; stroke-width:0.5">      <path
         d="M281.103 822.899C281.103 822.899 278.3 820.76 280.5 819.359C282.701 817.957 287.778 817.283 291.981 818.085"
         id="path3038">
      </path>

    </g>
    <g
       id="g3039"
       style="stroke:#000000; stroke-width:0.5">      <path
         d="M289.431 833.209C289.431 833.209 289.637 830.311 293.438 830.111C297.24 829.912 304.825 832.435 306.627 831.834"
         id="path3040">
      </path>

    </g>
    <g
       id="g3041"
       style="stroke:#000000; stroke-width:0.5">      <path
         d="M293.055 837.543C293.055 837.543 289.637 834.137 293.438 833.938C297.241 833.736 300.459 835.742 301.858 835.541"
         id="path3042">
      </path>

    </g>
    <g
       id="g3043"
       style="stroke:#000000; stroke-width:0.5">      <path
         d="M291.019 852.444C291.019 852.444 297.623 855.847 298.021 856.447"
         id="path3044">
      </path>

    </g>
    <g
       id="g3045"
       style="stroke:#000000; stroke-width:0.5">      <path
         d="M289.817 853.444C289.817 853.444 292.019 857.647 292.218 858.448"
         id="path3046">
      </path>

    </g>
    <g
       id="g3047"
       style="stroke:#000000; stroke-width:0.5">      <path
         d="M226.562 727.883C226.562 727.883 228.019 731.16 231.3 730.251"
         id="path3048">
      </path>

    </g>
    <g
       id="g3049"
       style="fill: #ffffff; stroke:#000000; stroke-width:0.5">      <path
         d="M248.317 867.919C248.317 867.919 268.144 871.602 272.912 871.602C277.68 871.602 291.981 871.82 295.666 871.602C299.35 871.387 306.068 871.387 306.068 871.387L304.555 874.393C304.555 874.393 279.846 874.42 276.812 874.203C273.778 873.987 252.652 872.036 250.701 871.387C248.752 870.736 247.873 870.254 247.873 870.254L248.317 867.919z"
         id="path3050">
      </path>

    </g>
    <g
       id="g3051"
       style="fill: #ffffff; stroke:#000000; stroke-width:0.5">      <path
         d="M315.82 871.387C315.82 871.387 323.399 872.752 325.146 872.752C328.245 872.752 334.675 871.82 334.675 871.82L334.805 874.938C334.805 874.938 328.353 875.879 325.146 875.668C323.518 875.561 315.124 874.938 315.124 874.938L315.82 871.387z"
         id="path3052">
      </path>

    </g>
    <g
       id="g3053"
       style="stroke:#000000; stroke-width:0.5">      <path
         d="M194.692 731.509C194.692 731.509 193.761 732.255 192.849 731.708"
         id="path3054">
      </path>

    </g>
    <g
       id="g3055"
       style="stroke:#000000; stroke-width:0.5">      <path
         d="M231.845 726.06C231.845 726.06 232.94 725.696 233.122 724.966"
         id="path3056">
      </path>

    </g>
    <g
       id="g3057"
       style="stroke:#000000; stroke-width:0.5">      <path
         d="M154.946 701.64C154.946 701.64 156.404 702.004 156.951 701.64"
         id="path3058">
      </path>

    </g>
    <g
       id="g3059"
       style="stroke:#000000; stroke-width:0.5">      <path
         d="M151.576 703.641C151.576 703.641 154.029 704.172 154.764 704.009C154.764 704.009 146.382 714.214 145.759 717.715C145.557 718.858 145.197 719.965 145.9 719.826C146.603 719.685 157.133 709.295 157.133 709.295"
         id="path3060">
      </path>

    </g>
    <g
       id="g3061"
       style="stroke:#000000; stroke-width:0.5">      <path
         d="M213.449 496.617C213.449 496.617 226.094 494.634 229.315 492.651"
         id="path3062">
      </path>

    </g>
    <g
       id="g3063"
       style="stroke:#000000; stroke-width:0.5">      <path
         d="M219.421 638.106L220.608 636.267"
         id="path3064">
      </path>

    </g>

  </g>

</svg>
