<?xml version="1.0" standalone="no"?>
<!DOCTYPE svg PUBLIC "-//W3C//DTD SVG 20010904//EN"
"http://www.w3.org/TR/2001/REC-SVG-20010904/DTD/svg10.dtd"
[
 <!ATTLIST svg
  xmlns:xlink CDATA #FIXED "http://www.w3.org/1999/xlink">
]>
<!-- Created with Sodipodi ("http://www.sodipodi.com/") -->
<svg
   width="800"
   height="600"
   id="svg1212"
   sodipodi:version="0.28pre2"
   sodipodi:docname="glade/about.svg"
   sodipodi:docbase="glade/"
   xmlns="http://www.w3.org/2000/svg"
   xmlns:sodipodi="http://sodipodi.sourceforge.net/DTD/sodipodi-0.dtd"
   xmlns:xlink="http://www.w3.org/1999/xlink">
  <sodipodi:namedview
     id="base" />
  <defs
     id="defs1214">
    <linearGradient
       id="linearGradient1417">
      <stop
         style="stop-color:#addada;stop-opacity:1;"
         offset="0.000000"
         id="stop1418" />
      <stop
         style="stop-color:#6aa7cd;stop-opacity:1;"
         offset="1.000000"
         id="stop1419" />
    </linearGradient>
    <linearGradient
       xlink:href="#linearGradient1417"
       id="linearGradient1420"
       x1="0.87037"
       y1="0.945312"
       x2="0.0277778"
       y2="0.390625"
       gradientUnits="objectBoundingBox"
       gradientTransform="translate(-3.47873e-09,-2.36896e-11)"
       spreadMethod="pad" />
  </defs>
  <rect
     style="fill:#909090;fill-opacity:1;stroke:none;stroke-opacity:1;fill-rule:evenodd;stroke-width:1pt;stroke-linejoin:miter;stroke-linecap:butt;"
     id="rect46"
     x="-149.082696"
     y="73.202545"
     width="4787.408807"
     height="142.553177"
     rx="0.000000"
     ry="0.000000" />
  <rect
     style="fill:url(#linearGradient1420);fill-opacity:1;stroke:none;stroke-opacity:1;fill-rule:evenodd;stroke-width:1pt;stroke-linejoin:miter;stroke-linecap:butt;"
     id="rect45"
     x="40.425499"
     y="1.063786"
     width="462.765991"
     height="555.893352"
     rx="0.000000"
     ry="0.000000" />
  <a
     xlink:href="http://www.sodipodi.com/"
     style="font-size:12;fill:#000000;fill-opacity:1;"
     id="a89"
     transform="translate(222.189,9.77981)">
    <text
       x="17.543915"
       y="579.274475"
       style="font-size:24;font-weight:bold;fill:#000000;fill-opacity:1;fill-rule:evenodd;stroke-width:1pt;font-family:Helvetica;"
       id="text1192">
      <tspan
         x="17.543900"
         y="579.273987"
         id="tspan1313"
         style="fill:#000000;fill-opacity:1;">
Sodipodi</tspan>
    </text>
  </a>
  <a
     xlink:href="http://www.w3.org/TR/SVG/"
     style="font-size:12;fill:#000000;fill-opacity:1;"
     id="a93"
     transform="translate(222.189,9.77981)">
    <text
       x="159.064377"
       y="579.274475"
       style="font-size:24;font-weight:bold;fill:#000000;fill-opacity:1;fill-rule:evenodd;stroke-width:1pt;font-family:Helvetica;"
       id="text1315">
      <tspan
         x="159.063995"
         y="579.273987"
         id="tspan1318"
         style="fill:#000000;fill-opacity:1;">
SVG</tspan>
    </text>
  </a>
  <a
     xlink:href="http://www.gnome.org/"
     style="font-size:12;fill:#000000;fill-opacity:1;"
     id="a97"
     transform="translate(222.189,9.77981)">
    <text
       x="246.783676"
       y="579.274475"
       style="font-size:24;font-weight:bold;fill:#000000;fill-opacity:1;fill-rule:evenodd;stroke-width:1pt;font-family:Helvetica;"
       id="text1320">
      <tspan
         x="246.783997"
         y="579.273987"
         id="tspan1323"
         style="fill:#000000;fill-opacity:1;">
GNOME</tspan>
    </text>
  </a>
  <text
     x="91.210991"
     y="543.105896"
     style="font-size:18;font-weight:bold;fill:#000000;fill-rule:evenodd;stroke-width:1pt;font-family:Book Antiqua;fill-opacity:1;"
     id="text1187">
    <tspan
       x="91.210953"
       y="543.105408"
       id="tspan1190"
       style="fill:#000000;fill-opacity:1;">
Lauris Kaplinski, Mitsuru Oka, Frank Felfe, Raph Levien, Masatake Yamato</tspan>
  </text>
  <text
     x="511.420578"
     y="237.079727"
     style="font-size:18;font-weight:bold;fill:#000000;fill-rule:evenodd;stroke-width:1pt;font-family:Book Antiqua;fill-opacity:1;"
     id="text1180">
    <tspan
       x="511.420517"
       y="237.080215"
       id="tspan1195"
       style="fill:#000000;fill-opacity:1;">
A drawing application with style</tspan>
  </text>
  <path
     style="fill:none;fill-rule:evenodd;stroke:black;stroke-opacity:1;stroke-width:5;stroke-linejoin:miter;stroke-linecap:butt;fill-opacity:1;stroke-dasharray:none;stroke-dashoffset:0;"
     d="M 69.2082 553.372 L 740.176 553.372 "
     id="path44"
     transform="matrix(1.08403,0,0,1,-34.5391,2.89325)" />
  <text
     style="fill:#000000;stroke:none;font-family:Courier;font-style:normal;font-weight:bold;font-size:72;text-anchor:middle;writing-mode:lr;fill-opacity:1;stroke-opacity:1;stroke-width:1pt;stroke-linejoin:miter;stroke-linecap:butt;"
     x="415.957397"
     y="173.053322"
     id="title">
    <tspan
       x="415.957"
       y="173.053"
       sodipodi:role="line"
       id="tspan42"
       style="fill:#000000;fill-opacity:1;">
Sodipodi 0.28</tspan>
  </text>
  <g
     id="g71"
     transform="translate(442.097,0)">
    <path
       style="font-size:12;fill:#6f9fbf;fill-rule:evenodd;stroke-width:1pt;"
       d="M 418.013 385.123 C 411.781 370.581 406.068 368.504 401.914 365.907 C 397.759 363.31 390.488 360.714 376.466 361.233 C 362.444 361.752 338.555 361.233 333.361 362.272 C 331.284 366.946 307.914 380.968 297.008 385.642 C 309.472 388.239 315.184 388.239 321.936 384.603 C 328.687 380.968 339.074 371.1 355.173 369.542 C 371.273 367.984 392.565 365.907 401.394 372.658 C 410.223 379.41 412.3 382.526 418.013 385.123 z "
       id="path25"
       transform="matrix(0.473988,0,0,0.473988,-427.912,181.027)" />
    <path
       style="font-size:12;fill:#6f9fbf;fill-rule:evenodd;stroke-width:1pt;"
       d="M 469.947 379.41 C 476.179 365.907 480.333 361.233 491.24 357.078 C 502.146 352.924 519.284 353.962 530.19 354.482 C 540.057 361.233 543.693 369.023 548.367 374.736 C 543.173 378.891 541.096 379.41 537.98 374.736 C 534.864 370.062 533.306 360.194 519.803 359.675 C 506.3 359.156 493.836 363.31 482.93 371.62 C 472.024 379.929 474.101 377.333 469.947 379.41 z "
       id="path26"
       transform="matrix(0.473988,0,0,0.473988,-429.423,183.166)" />
    <path
       style="font-size:12;fill:#6f9fbf;fill-rule:evenodd;stroke-width:1pt;"
       d="M 343.748 423.034 C 366.079 426.67 377.924 423.212 402.317 417.41 C 374.719 430.216 361.164 428.227 353.615 429.786 C 348.422 426.67 348.941 426.15 343.748 423.034 z "
       id="path27"
       sodipodi:nodetypes="cccc"
       transform="matrix(0.473988,0,0,0.473988,-427.912,181.027)" />
    <path
       style="font-size:12;fill:#6f9fbf;fill-rule:evenodd;stroke-width:1pt;"
       d="M 481.891 415.763 C 504.223 416.283 520.322 415.244 529.67 410.57 C 524.996 414.725 522.4 417.321 521.361 418.36 C 503.184 419.399 492.278 417.841 481.891 415.763 z "
       id="path28"
       transform="matrix(0.473988,0,0,0.473988,-429.423,183.166)" />
    <path
       style="font-size:12;fill:#6f9fbf;fill-rule:evenodd;stroke-width:1pt;"
       d="M 468.908 439.653 C 476.698 453.156 479.814 458.868 481.372 461.465 C 482.93 464.062 483.449 468.736 479.295 469.255 C 475.14 469.774 467.869 471.852 463.715 474.968 C 468.389 457.31 469.947 450.04 468.908 439.653 z "
       id="path29"
       transform="matrix(0.473988,0,0,0.473988,-437.397,182.394)" />
    <path
       style="font-size:12;fill:#6f9fbf;fill-rule:evenodd;stroke-width:1pt;"
       d="M 468.908 339.94 C 477.217 330.073 493.317 326.438 507.339 323.841 C 521.361 321.244 538.499 323.841 548.367 325.399 C 558.234 326.957 557.195 326.957 561.35 331.111 C 546.289 330.073 528.112 327.995 512.013 330.073 C 495.914 332.15 479.295 338.382 468.908 339.94 z "
       id="path30"
       transform="matrix(0.473988,0,0,0.473988,-429.423,183.166)" />
    <path
       style="font-size:12;fill:#6f9fbf;fill-rule:evenodd;stroke-width:1pt;"
       d="M 427.361 339.421 C 413.858 328.515 399.317 322.802 373.35 323.322 C 347.383 323.841 311.03 331.631 291.295 343.576 C 321.416 340.46 350.499 330.073 377.505 332.15 C 404.51 334.228 414.378 335.785 427.361 339.421 z "
       id="path31"
       transform="matrix(0.473988,0,0,0.473988,-427.912,181.027)" />
    <path
       style="font-size:12;fill:#6f9fbf;fill-rule:evenodd;stroke-width:1pt;"
       d="M 435.151 522.56 C 459.56 518.306 466.311 518.824 472.024 516.515 C 477.737 515.995 479.814 517.553 477.217 522.227 C 474.621 526.901 468.412 531.708 458.002 535.211 C 451.77 535.73 447.077 537.657 440.845 533.122 C 453.171 530.019 461.428 528.979 461.428 525.863 C 461.428 522.747 446.39 529.467 435.151 522.56 z "
       id="path32"
       transform="matrix(0.473988,0,0,0.473988,-435.238,178.63)"
       sodipodi:nodetypes="ccccccc" />
    <path
       style="font-size:12;fill:#6f9fbf;fill-rule:evenodd;stroke-width:1pt;"
       d="M 343.228 367.465 C 334.4 390.835 335.438 411.089 349.461 425.631 C 371.273 426.15 388.93 421.995 395.681 420.437 C 399.317 401.222 400.875 384.603 400.356 369.023 C 370.754 361.233 359.328 365.907 343.228 367.465 z M 339.961 392.393 C 339.961 404.857 341.67 410.05 351.019 424.592 C 372.831 425.111 386.333 422.514 393.084 420.956 C 396.72 401.741 398.798 386.681 398.279 371.101 C 390.878 369.153 389.074 368.786 382.712 369.971 C 381.123 375.196 376.447 378.666 372.853 384.028 C 378.4 388.728 382.656 389.863 388.027 397.892 C 387.154 401.882 380.127 410.993 373.521 412.001 C 367.23 413.018 362.629 410.119 360.282 402.188 C 354.286 380.682 347.415 385.437 339.961 392.393 z "
       id="path37"
       sodipodi:nodetypes="ccccccccccccccc"
       transform="matrix(0.473988,0,0,0.473988,-427.912,181.027)" />
    <path
       style="font-size:12;fill:#6f9fbf;fill-rule:evenodd;stroke-width:1pt;"
       d="M 344.368 390.924 C 344.368 403.388 345.342 401.971 349.55 413.942 C 371.362 414.461 382.294 411.497 389.045 409.939 C 392.681 390.724 392.922 379.336 392.403 363.756 C 385.002 361.808 385.769 358.504 379.407 359.689 C 377.818 364.914 371.673 370.954 368.079 376.316 C 373.626 381.016 377.515 385.456 384.355 387.977 C 383.482 391.967 377.924 405.485 371.318 406.493 C 365.027 407.51 359.324 407.181 356.977 399.25 C 351.715 386.558 348.517 388.742 344.368 390.924 z M 345.431 367.465 C 339.908 390.468 339.477 401.174 348.359 416.45 C 370.171 416.969 384.523 415.018 391.274 413.46 C 394.91 394.245 395.734 376.524 395.215 360.944 C 370.754 351.685 365.571 357.828 345.431 367.465 z "
       id="path43"
       sodipodi:nodetypes="ccccccccccccccc"
       transform="matrix(0.473988,0,0,0.473988,-364.323,183.166)" />
    <path
       style="font-size:12;fill:#6f9fbf;fill-rule:evenodd;stroke-width:1pt;"
       d="M 543.974 435.166 C 561.049 426.571 558.947 412.905 558.947 390.83 C 558.947 368.756 551.588 338.271 537.923 280.456 C 533.718 303.582 529.513 328.81 507.439 363.5 C 523.206 308.838 509.541 257.33 487.466 210.027 C 496.927 239.46 499.029 263.637 488.517 306.736 C 487.466 260.483 482.21 233.153 458.033 190.054 C 441.214 215.282 440.163 260.483 438.06 302.531 C 425.446 279.405 430.702 249.972 433.856 215.282 C 413.883 248.92 414.934 284.661 410.729 356.141 C 401.269 320.401 401.269 257.33 408.627 207.924 C 400.218 216.334 397.064 219.487 386.552 232.101 C 376.04 244.716 369.733 281.507 357.119 338.271 C 349.761 323.555 351.863 316.196 351.863 289.917 C 329.788 337.22 324.532 357.193 324.532 436.031 C 306.662 411.854 306.662 393.984 302.457 344.578 C 297.201 366.653 297.201 387.677 297.201 434.98 C 282.485 411.854 276.178 372.96 269.871 323.555 C 252 438.134 268.819 479.13 301.406 583.197 C 289.843 575.839 279.331 563.225 267.768 542.201 C 267.768 590.556 259.359 621.04 236.233 667.292 C 237.284 647.32 237.284 616.835 233.079 585.3 C 232.028 603.17 225.721 638.91 211.004 655.729 C 213.107 631.552 212.055 610.528 206.799 554.815 C 200.492 565.327 195.236 563.225 181.571 592.658 C 167.906 622.091 178.417 626.296 174.213 655.729 C 162.65 644.166 154.24 648.371 151.087 675.702 C 137.421 652.576 134.268 604.221 137.421 559.02 C 133.216 569.532 131.114 575.839 123.756 603.17 C 106.937 539.048 133.216 457.055 146.882 408.701 C 160.547 360.346 161.598 339.322 161.598 323.555 C 161.598 307.787 171.059 270.995 183.673 240.511 C 179.469 243.665 177.366 249.972 165.803 257.33 C 171.059 235.255 200.492 171.133 246.744 130.136 C 292.997 89.1401 328.737 82.833 387.603 88.089 C 382.347 84.9354 378.143 81.7818 365.528 75.4747 C 383.399 71.27 393.91 70.2188 417.562 90.7169 C 446.47 78.6283 459.084 81.7819 465.391 87.0378 C 471.698 92.2937 475.903 96.4985 486.415 99.652 C 496.927 102.806 520.053 110.164 537.923 133.29 C 555.793 156.416 572.612 201.617 574.714 224.743 C 576.817 247.869 574.714 280.456 571.561 298.326 C 573.663 327.759 572.612 375.063 569.459 389.779 C 566.305 404.496 565.254 408.701 562.1 416.059 C 570.51 459.158 575.766 482.284 586.277 498.051 C 596.789 513.819 603.096 546.406 607.301 564.276 C 581.022 545.355 569.459 537.996 559.998 521.177 C 561.049 581.095 556.844 621.04 552.64 645.217 C 542.128 628.398 540.025 618.938 535.821 612.631 C 538.974 655.729 517.95 679.907 517.637 679.976 C 513.599 677.568 510.98 674.996 505.336 672.548 C 492.802 667.112 461.186 658.883 416.676 622.042 C 417.761 612.533 421.767 596.863 423.434 580.068 C 428.788 580.132 438.06 580.044 442.265 578.993 C 475.903 570.583 515.848 519.075 531.616 474.925 C 535.558 463.888 541.379 444.413 543.974 435.166 z M 235.181 336.169 C 203.646 341.425 205.748 362.448 205.748 374.012 C 205.748 385.575 208.902 425.52 217.311 442.339 C 225.721 459.158 235.181 461.26 240.437 461.26 C 236.233 426.571 232.028 392.933 234.13 371.909 C 220.465 387.677 219.414 400.291 219.414 406.598 C 213.107 374.012 211.004 350.885 234.13 345.629 C 237.284 342.476 237.284 338.271 235.181 336.169 z M 423.431 92.8744 C 443.129 86.1847 454.278 82.4683 464.313 92.1312 C 474.347 101.794 486.983 105.139 496.275 108.484 C 505.566 111.829 517.459 126.695 522.662 135.986 C 508.539 126.695 501.849 124.093 495.903 121.12 C 514.114 140.817 522.662 156.427 529.352 170.921 C 516.344 157.542 507.053 152.339 500.363 148.622 C 512.627 162.373 520.06 176.124 524.148 185.787 C 509.654 173.523 502.593 169.434 495.531 164.975 C 511.884 188.389 514.486 195.45 518.202 205.856 C 504.451 193.22 500.734 191.733 493.673 186.159 C 503.708 202.511 507.424 212.174 510.026 222.209 C 495.16 201.768 483.639 193.592 476.577 187.645 C 482.895 208.829 485.125 217.006 486.24 226.669 C 477.32 206.971 469.887 188.388 464.684 182.442 C 473.232 183.557 474.719 183.929 477.32 183.929 C 468.401 176.867 464.684 175.009 461.711 175.009 C 465.056 172.408 468.401 170.549 470.259 170.549 C 461.34 167.576 458.366 166.833 456.508 166.833 C 465.056 163.86 469.516 162.001 473.976 162.745 C 463.941 159.771 456.88 162.001 451.677 162.001 C 457.251 157.17 459.481 153.825 465.428 151.595 C 456.88 151.595 452.048 151.223 446.845 151.967 C 452.792 144.534 457.623 140.446 467.658 138.959 C 452.792 135.243 450.933 134.128 442.014 135.243 C 450.19 128.925 457.995 124.836 465.428 124.465 C 456.136 122.978 449.075 121.12 442.757 122.978 C 451.305 117.032 452.42 114.43 456.88 113.687 C 448.703 113.315 445.359 112.572 439.784 114.059 C 446.474 109.599 446.474 106.254 452.048 105.511 C 441.642 105.511 439.041 104.024 433.466 106.254 C 438.297 101.051 439.041 97.706 444.987 96.9626 C 431.979 94.3611 429.378 92.8744 423.431 92.8744 z M 254.702 135.986 C 285.811 111.829 331.153 93.2461 358.655 91.0162 C 346.019 99.1925 340.816 102.909 336.356 106.625 C 366.088 99.1925 389.874 100.679 403.253 100.679 C 385.414 108.112 380.954 111.085 374.264 114.802 C 403.997 113.315 411.43 115.545 422.579 115.545 C 398.05 121.492 393.59 125.951 389.131 128.181 C 415.146 125.208 419.606 125.208 424.809 125.208 C 411.43 130.411 408.456 131.154 404.74 134.871 C 415.889 134.128 421.092 134.128 427.039 133.384 C 416.633 140.074 416.37 140.074 413.397 142.304 C 421.201 142.304 430.493 143.047 435.324 143.419 C 425.289 146.764 423.803 147.135 421.945 148.25 C 431.979 148.994 434.952 148.994 438.297 149.737 C 429.006 152.71 426.776 153.825 424.546 154.94 C 435.696 156.427 439.04 156.427 442.014 156.427 C 434.209 160.886 434.209 161.63 430.493 162.745 C 444.987 166.833 451.677 171.664 456.508 176.124 C 446.474 181.699 440.899 186.53 436.067 193.592 C 435.696 183.557 434.209 176.496 429.006 176.496 C 423.803 176.496 389.239 175.381 341.668 222.209 C 352.818 200.281 370.285 176.867 385.151 167.948 C 353.933 179.841 332.005 185.415 312.679 209.201 C 335.35 178.354 338.323 169.434 355.048 158.285 C 327.545 170.549 298.185 185.415 286.292 203.626 C 311.936 163.116 326.059 147.507 337.952 140.446 C 306.733 152.71 293.725 160.886 277.001 174.266 C 294.097 150.48 292.61 147.135 307.476 136.729 C 287.407 144.162 272.17 151.595 262.507 160.515 C 276.629 138.959 282.947 127.81 292.982 121.12 C 272.913 129.296 263.621 131.154 254.702 135.986 z "
       id="path24"
       transform="matrix(0.473988,0,0,0.473988,-431.119,182.631)" />
    <path
       style="font-size:12;fill:none;fill-rule:evenodd;stroke:#6f9fbf;stroke-width:2.5;"
       d="M 285.266 497.854 C 287.304 498.983 294.237 507.628 308.06 520.451 C 344.987 552.958 410.377 583.902 442.265 578.993 C 475.903 570.583 515.848 519.075 531.616 474.925 C 547.384 430.776 551.588 400.291 550.537 388.728 C 549.486 377.165 558.947 346.681 559.998 316.196 "
       id="path6"
       sodipodi:nodetypes="cscccc"
       transform="matrix(0.473988,0,0,0.473988,-431.119,182.631)" />
    <path
       style="font-size:12;fill:none;fill-rule:evenodd;stroke:#6f9fbf;stroke-width:2.5;"
       d="M 262.512 498.051 C 258.308 573.737 258.307 597.914 252 613.682 C 245.693 629.45 222.567 654.678 197.339 665.19 C 172.11 675.702 137.421 686.214 117.449 703.033 "
       id="path7"
       transform="matrix(0.473988,0,0,0.473988,-431.119,182.631)" />
    <path
       style="font-size:12;fill:none;fill-rule:evenodd;stroke:#6f9fbf;stroke-width:2.5;"
       d="M 423.344 580.044 C 420.19 613.682 411.781 618.938 420.19 650.473 "
       id="path8"
       transform="matrix(0.473988,0,0,0.473988,-431.119,182.631)" />
    <path
       style="font-size:12;fill:none;fill-rule:evenodd;stroke:#6f9fbf;stroke-width:2.5;"
       d="M 417.037 622.091 C 461.186 658.883 492.722 667.292 505.336 672.548 C 517.95 677.804 529.513 692.521 529.513 692.521 "
       id="path9"
       transform="matrix(0.473988,0,0,0.473988,-431.119,182.631)" />
    <path
       style="font-size:12;fill:none;fill-rule:evenodd;stroke:#6f9fbf;stroke-width:2.5;"
       d="M 339.068 397.424 C 345.678 394.119 347.817 393.845 350.82 392.283 C 360.001 387.876 360.616 390.444 353.758 395.587 C 347.882 399.627 345.679 401.463 343.476 404.034 C 341.444 406.743 340.879 411.677 344.944 409.175 C 349.718 405.87 354.859 403.667 358.531 402.198 C 362.204 400.729 366.61 399.994 361.469 405.135 C 356.328 410.277 351.555 411.746 348.984 413.949 C 346.413 416.153 343.842 422.027 348.616 420.191 C 353.39 418.355 362.571 412.113 368.079 408.808 C 373.588 405.503 385.706 400.362 377.627 407.707 C 369.548 415.051 363.855 418.038 358.532 422.028 C 353.169 426.417 358.532 427.903 365.509 423.497 C 372.487 419.09 388.277 408.808 393.785 404.401 C 399.293 399.994 397.269 407.583 392.316 411.012 C 387.543 413.949 382.769 417.254 379.096 421.661 C 375.534 425.579 382.769 423.864 388.644 419.825 C 394.521 415.785 396.723 414.316 396.723 414.316 "
       id="path36"
       sodipodi:nodetypes="csssssssssssssssss"
       transform="matrix(0.473988,0,0,0.473988,-427.912,181.027)" />
    <path
       style="font-size:12;fill:none;fill-rule:evenodd;stroke:#6f9fbf;stroke-width:2.5;"
       d="M 339.068 397.424 C 345.678 394.119 347.817 393.845 350.82 392.283 C 360.001 387.876 360.616 390.444 353.758 395.587 C 347.882 399.627 345.679 401.463 343.476 404.034 C 341.444 406.743 339.811 413.457 343.876 410.955 C 348.65 407.65 354.859 403.667 358.531 402.198 C 362.204 400.729 366.61 399.994 361.469 405.135 C 356.328 410.277 351.555 411.746 348.984 413.949 C 346.413 416.153 343.486 422.383 348.26 420.547 C 353.034 418.711 362.571 412.113 368.079 408.808 C 373.588 405.503 385.706 400.362 377.627 407.707 C 369.548 415.051 364.923 416.97 357.82 420.96 C 351.855 424.488 364.227 423.276 371.204 418.87 C 378.182 414.463 381.158 413.079 386.666 408.672 "
       id="path42"
       sodipodi:nodetypes="csssssssssssss"
       transform="matrix(0.489018,0,0,0.489018,-368.029,173.472)" />
    <path
       style="font-size:12;fill:none;fill-rule:evenodd;stroke:#6f9fbf;stroke-width:1.1875;"
       d="M -198.945 406.62 L -202.023 412.539 M -210.073 414.907 L -204.391 404.963 M -215.951 415.537 L -209.6 404.491 M -219.74 411.985 L -213.388 402.359 M -229.683 420.034 L -218.319 402.04 M -236.787 420.983 L -224.949 402.987 M -243.181 421.457 L -232.052 402.988 M -250.756 421.93 L -239.628 404.88 M -252.887 417.194 L -246.494 406.302 M -258.333 414.353 L -253.361 407.486 M -263.305 413.406 L -260.228 408.67 "
       id="path91"
       sodipodi:nodetypes="cccccccccccccccccccccc"
       transform="translate(9.2928,-18.3475)" />
  </g>
</svg>
