<?xml version="1.0" encoding="UTF-8" standalone="no"?>
<!DOCTYPE svg PUBLIC "-//W3C//DTD SVG 20010904//EN"
"http://www.w3.org/TR/2001/REC-SVG-20010904/DTD/svg10.dtd">
<!-- Created with Sodipodi ("http://www.sodipodi.com/") -->
<svg
   id="svg588"
   sodipodi:version="0.33-beta"
   width="640pt"
   height="480pt"
   sodipodi:docbase="/home/lauris/cvs/sodipodi/glade/"
   sodipodi:docname="/home/lauris/cvs/sodipodi/glade/about-0.33.svg"
   xmlns="http://www.w3.org/2000/svg"
   xmlns:sodipodi="http://sodipodi.sourceforge.net/DTD/sodipodi-0.dtd"
   xmlns:xlink="http://www.w3.org/1999/xlink">
  <defs
     id="defs590">
    <linearGradient
       id="linearGradient658">
      <stop
         offset="0"
         style="stop-color:#ff8d00;stop-opacity:1.0000;"
         id="stop660" />
      <stop
         offset="1.000000"
         style="stop-color:#ff3f00;stop-opacity:1.0000;"
         id="stop659" />
    </linearGradient>
    <defs
       id="defs474">
      <linearGradient
         id="linearGradient496">
        <stop
           style="stop-color:#ffff7f;stop-opacity:0.658824;"
           offset="0.000000"
           id="stop497" />
        <stop
           style="stop-color:#ffff7f;stop-opacity:0;"
           offset="1.000000"
           id="stop498" />
      </linearGradient>
      <linearGradient
         id="linearGradient485">
        <stop
           style="stop-color:#ff5200;stop-opacity:1;"
           offset="0.000000"
           id="stop486" />
        <stop
           style="stop-color:#720000;stop-opacity:1;"
           offset="1.000000"
           id="stop487" />
      </linearGradient>
      <linearGradient
         id="linearGradient477"
         x1="0"
         y1="0"
         x2="1.000000"
         y2="0"
         gradientUnits="objectBoundingBox"
         spreadMethod="pad"
         xlink:href="#linearGradient658" />
      <radialGradient
         xlink:href="#linearGradient477"
         id="radialGradient480"
         cx="0.53846157"
         cy="0.50000000"
         fx="0.53846157"
         fy="0.50000000"
         r="0.66683644"
         gradientUnits="objectBoundingBox"
         spreadMethod="pad" />
      <radialGradient
         xlink:href="#linearGradient485"
         id="radialGradient484"
         cx="0.41860467"
         cy="0.57031250"
         fx="0.20155039"
         fy="0.78906250"
         r="0.43075046"
         gradientUnits="objectBoundingBox"
         spreadMethod="pad" />
      <radialGradient
         xlink:href="#linearGradient496"
         id="radialGradient489"
         cx="0.49386612"
         cy="0.48700377"
         fx="0.49386612"
         fy="0.48700377"
         r="0.71423900"
         gradientUnits="objectBoundingBox"
         spreadMethod="pad" />
      <linearGradient
         xlink:href="#linearGradient485"
         id="linearGradient755"
         x1="0.60122705"
         y1="0.42968744"
         x2="0.60736203"
         y2="0.52343744"
         gradientUnits="objectBoundingBox"
         spreadMethod="pad" />
    </defs>
    <sodipodi:namedview
       id="namedview609" />
    <radialGradient
       xlink:href="#linearGradient658"
       id="radialGradient661" />
  </defs>
  <sodipodi:namedview
     id="base"
     borderlayer="top"
     bordercolor="#000000"
     borderopacity="0.37254902" />
  <rect
     style="font-size:12.000;fill:#220a61;fill-rule:evenodd;stroke-width:1.000000;fill-opacity:1.0000;"
     id="rect662"
     width="8869.46387"
     height="7006.02979"
     x="-4114.07617"
     y="-3151.06934" />
  <polygon
     sodipodi:type="star"
     style="font-size:12.000;fill:#1a074a;fill-rule:evenodd;fill-opacity:1.0000;"
     id="polygon731"
     sodipodi:cx="402.139008"
     sodipodi:cy="351.871674"
     sodipodi:r1="570.292114"
     sodipodi:r2="252.535263"
     sodipodi:arg1="0.78107613"
     sodipodi:arg2="2.35474300"
     points="807.1356,753.3824 223.8290,530.7001 574.1543,895.6031 161.1476,427.3516 301.7664,913.2614 153.6745,306.7115 52.37264,802.3121 203.1216,196.4171 -116.8938,588.1724 298.1612,121.7355 -167.2561,319.8989 417.0208,99.77528 -87.17689,58.95009 532.4713,135.5673 104.9987,-134.8939 618.0641,220.9121 365.2456,-217.2258 654.1912,336.2581 633.9443,-169.1844 632.5760,455.1810 849.5392,-1.775210 558.1707,550.4370 962.6401,246.6502 448.0203,600.2040 947.3370,519.1805 327.3590,593.0812 807.1356,753.3824 "
     sodipodi:sides="13"
     transform="translate(0,-23.28041)" />
  <polygon
     sodipodi:type="star"
     style="font-size:12.000;fill:#08070c;fill-rule:evenodd;fill-opacity:1.0000;stroke:#218ffd;stroke-opacity:1.0000;"
     id="polygon652"
     sodipodi:cx="402.139008"
     sodipodi:cy="351.871674"
     sodipodi:r1="444.375580"
     sodipodi:r2="185.585419"
     sodipodi:arg1="0.57798958"
     sodipodi:arg2="2.16700077"
     points="774.3314,594.6523 297.9317,505.4386 618.8732,739.8098 238.5019,439.4209 413.7638,796.0952 216.5594,353.3467 205.9913,750.6144 237.1310,266.9346 43.15388,613.7864 295.5039,199.9806 -37.44439,416.9569 378.3056,167.8230 -17.33940,205.2172 466.5673,177.8287 98.86304,27.07428 540.0692,227.7056 284.5424,-76.66150 581.9730,306.0274 497.1617,-82.22550 582.6790,394.8516 688.0124,11.65693 542.0254,473.8296 813.3730,183.4785 469.3256,524.8685 844.5248,393.8769 381.2341,536.2759 774.3314,594.6523 "
     sodipodi:sides="13"
     transform="translate(0,-23.28041)" />
  <text
     style="fill:#ffffff;stroke:#0e0382;font-family:Nimbus Sans L;font-style:normal;font-weight:bold;font-size:72;fill-opacity:1.0000;stroke-opacity:1.0000;stroke-width:1pt;stroke-linejoin:miter;stroke-linecap:butt;text-anchor:middle;writing-mode:lr;"
     x="399.999946"
     y="100.042860"
     id="title"
     sodipodi:linespacing="100%">
    <tspan
       x="399.999939"
       y="100.042862"
       sodipodi:role="line"
       id="tspan602"
       style="fill:#ffffff;fill-opacity:1.0000;stroke:#0e0382;stroke-opacity:1.0000;">Sodipodi 0.33</tspan>
  </text>
  <path
     sodipodi:type="arc"
     style="font-size:12.000;fill:url(#radialGradient484);fill-rule:evenodd;stroke:#000000;stroke-width:5;"
     id="path476"
     d="M 707.0558 362.6132 A 335.4404 335.4404 0 1 "
     sodipodi:cx="371.615387"
     sodipodi:cy="362.613220"
     sodipodi:rx="335.440399"
     sodipodi:ry="335.440430"
     transform="matrix(0.479422,0,0,0.479422,224.2588,152.3257)" />
  <path
     d="M 361.5963 284.7855 C 360.1875 283.5525 354.5636 284.2723 352.6039 286.0046 C 350.1964 288.1345 350.6260 293.4557 348.4947 296.3751 C 346.0580 299.7157 341.9042 301.7814 338.8998 304.7858 C 332.4976 311.1881 327.1959 318.9697 320.2762 324.5937 C 316.3679 327.7683 311.2796 329.7098 306.4131 331.1814 C 297.8601 333.7674 288.2023 333.4731 280.0176 336.7662 C 273.4814 339.3955 267.2299 344.0834 262.2504 348.9486 C 259.7843 351.3588 257.3434 355.3829 257.6823 358.5923 C 258.2082 363.5579 262.6116 368.4467 264.8461 373.4736 C 265.9955 376.0610 265.6900 379.9163 267.8338 381.4353 C 272.7771 384.9390 279.7414 387.5223 286.1087 388.5419 C 296.7177 390.2421 308.0604 390.6787 318.7642 389.5977 C 326.5027 388.8166 334.6986 381.9695 341.4370 382.9570 C 346.1473 383.6474 348.5366 391.7220 353.1116 394.6330 C 360.4637 399.3099 370.1660 401.1608 377.2168 405.7232 C 378.7944 406.7442 379.9256 410.7543 378.9994 411.3834 C 377.6436 412.3026 373.2472 410.7069 370.3711 410.3680 C 359.8862 409.1336 350.9845 401.3212 340.9293 398.6933 C 336.0948 397.4296 330.7778 398.6933 325.7020 398.6933 C 317.8213 398.6933 309.0172 401.0464 302.8591 404.7845 C 300.0095 406.5141 298.2771 410.1099 300.8282 411.3834 C 304.3250 413.1283 318.0291 408.3887 318.7851 410.2438 C 319.4937 411.9832 308.2110 415.2722 305.9054 418.4900 C 304.9471 419.8290 306.7841 423.9312 308.4426 424.0735 C 312.7051 424.4389 323.9711 418.0158 324.6448 419.5654 C 325.3017 421.0788 313.6466 425.9676 311.9965 429.1492 C 311.2782 430.5356 314.7206 433.9488 316.5646 433.7186 C 321.4897 433.1035 329.7303 425.2855 332.3009 426.6120 C 333.8575 427.4154 325.0172 433.9013 324.6866 436.7635 C 324.5095 438.3006 327.5753 440.7387 330.7778 439.8098 C 338.0197 437.7092 343.2530 429.4561 352.0976 427.6274 C 364.7876 425.0024 378.3968 425.1823 390.6754 422.0426 C 393.6241 421.2894 396.8112 418.5416 397.7820 415.9514 C 398.8407 413.1269 397.7848 408.9467 396.7666 405.7999 C 395.9227 403.1944 391.0785 399.8120 392.1972 398.6933 C 393.9546 396.9359 401.1547 398.3056 405.3949 397.1702 C 410.6297 395.7670 416.6734 394.4531 420.6236 391.0790 C 424.7955 387.5153 428.1500 381.6975 429.7610 376.3581 C 431.3651 371.0383 429.1808 364.6389 430.2687 359.1000 C 431.0415 355.1639 432.9872 351.1635 435.3445 347.9331 C 437.5553 344.9022 440.6880 342.1251 443.9728 340.3188 C 447.4557 338.4023 455.4117 335.8205 455.6488 336.7662 C 455.9194 337.8514 448.1112 342.6412 445.4960 346.4100 C 442.3590 350.9320 439.1579 356.3369 438.3894 361.6386 C 437.6362 366.8273 438.9863 373.0873 440.9279 377.8813 C 441.8638 380.1939 444.5405 382.5958 447.0191 382.9570 C 453.8467 383.9501 461.9450 381.0642 468.8466 381.9430 C 471.2513 382.2498 472.6851 385.9782 474.9378 386.5110 C 477.0802 387.0187 480.8783 386.5975 482.0304 385.0632 C 483.4169 383.2137 481.0624 376.6524 482.5521 376.3581 C 484.6206 375.9508 489.1844 381.9346 492.7036 382.9570 C 494.4290 383.4578 497.4599 382.3740 498.2870 380.9276 C 499.4894 378.8214 497.3344 372.5070 498.7947 372.2978 C 500.8870 371.9993 505.4396 377.9719 508.9462 379.4044 C 510.0969 379.8745 512.4863 379.1129 512.7680 378.0082 C 513.4975 375.1502 510.6326 367.9850 511.9813 367.5192 C 513.5310 366.9836 518.5314 374.8085 521.4619 375.0038 C 523.5221 375.1418 526.8878 370.9909 526.9505 368.5179 C 527.0551 364.3376 524.6616 358.7360 521.9613 355.0453 C 519.6724 351.9167 510.6228 351.0478 511.9813 348.0601 C 517.3012 336.3631 532.6846 323.8042 541.9950 310.9886 C 545.4918 306.1751 548.4781 300.5707 550.4016 295.1700 C 550.9470 293.6357 550.3681 290.3188 549.4029 290.1807 C 548.0388 289.9868 545.0120 292.4138 543.4164 294.1727 C 538.5247 299.5650 530.6370 312.6373 529.9438 311.6358 C 529.1390 310.4739 536.7059 295.8590 538.9250 287.6854 C 540.3645 282.3865 541.2962 276.3581 540.9210 271.2196 C 540.8080 269.6811 538.1021 266.6390 537.4605 267.6530 C 534.9414 271.6282 534.0404 280.2887 531.4404 286.1887 C 529.7053 290.1263 525.0257 298.4352 524.4552 297.1660 C 523.5290 295.1086 526.9505 283.2052 526.9505 276.2102 C 526.9505 267.4047 526.7134 257.6019 524.4552 249.7645 C 523.8861 247.7894 520.0169 245.6776 517.4100 246.0668 C 514.9941 246.4281 519.8565 272.1722 516.3834 278.7111 C 515.8157 279.7795 513.6844 279.0542 513.4333 277.5562 C 512.9968 274.9646 511.9395 256.4094 508.2809 247.3905 C 507.3296 245.0444 503.0155 233.1578 498.6636 231.5523 C 496.3915 230.7140 495.3816 231.0432 494.7693 232.7268 C 493.9352 235.0198 503.4757 260.5422 502.8857 264.0683 C 502.3669 266.2219 501.6750 266.4995 499.4364 264.3124 C 493.5014 252.3686 487.4047 234.2206 472.0338 220.8136 C 469.3962 219.1203 467.0403 218.4271 465.5311 220.8764 C 465.1015 222.9993 465.2563 225.2631 467.5076 228.1280 C 468.9791 230.0013 479.0929 241.4248 480.1279 247.9484 C 480.7430 250.1466 479.2324 249.5985 477.0621 247.1617 C 467.7335 237.9615 456.5122 225.3538 442.9016 217.9752 C 437.9486 216.2107 437.3935 219.9516 437.3572 222.3005 C 448.2005 233.8050 459.8375 238.0996 461.6200 244.4586 C 461.0830 245.7195 459.2447 246.0877 456.5973 244.7626 C 445.9827 235.8832 425.7384 219.8679 422.3043 219.4760 C 421.0601 219.3337 415.5060 220.7829 419.8313 224.0663 C 425.9016 230.0613 442.3813 239.7622 444.3675 243.6524 C 444.1820 245.3038 442.3716 246.3053 440.3798 245.1476 C 435.3166 240.5935 430.7444 235.7451 423.2333 232.9723 C 413.3914 229.3415 404.3195 222.4707 398.5743 222.0787 C 395.4862 223.5614 395.2532 225.8949 396.9716 229.2788 C 403.6500 232.6598 412.2812 235.1091 421.8175 241.6215 C 422.8943 244.5562 421.2833 245.0374 419.6026 244.3010 C 404.0448 237.4887 393.6827 231.9624 381.2381 230.2259 C 377.7957 230.7531 377.1052 233.3433 379.2881 234.6153 C 384.0403 237.3813 394.7190 240.9422 402.4086 242.8866 C 404.5622 244.3958 404.5622 246.9860 401.8926 247.0167 C 385.5662 240.7693 372.2694 238.0061 357.2430 237.1135 C 356.5554 238.5250 355.6460 241.4109 357.0045 242.0693 C 365.0164 245.9496 382.9760 246.8130 389.3852 250.7632 C 389.1927 252.5123 386.2636 253.4133 384.4978 253.0604 C 371.4060 250.4396 356.2095 249.5762 329.2909 250.1731 C 325.8164 250.0950 325.9601 253.9085 328.3940 256.2685 C 346.0203 256.6563 354.3097 256.6563 366.0499 258.4137 C 367.7795 260.1098 369.3152 260.6831 366.7320 262.0612 C 352.9093 261.3484 326.5278 263.1226 321.1577 264.0739 C 315.7863 265.0266 312.1179 266.0043 309.4133 267.6042 C 306.7102 269.2054 305.6892 271.1024 311.7413 272.9645 C 319.6555 271.9895 340.2737 269.1078 344.3103 269.8108 C 348.3469 270.5138 349.8059 271.5459 346.5448 273.6382 C 333.1782 274.6508 309.9015 281.9666 301.9399 285.1775 C 299.9648 287.5027 302.3639 289.9478 305.2233 290.1807 C 320.0990 286.8429 344.0425 281.9666 360.4483 278.1546 C 376.8542 274.3425 405.6251 263.3333 416.8450 260.5673 C 428.0649 257.8014 456.2193 254.0326 470.3251 258.7987 C 492.3563 267.1132 503.2191 280.6360 507.7927 288.1108 C 512.3091 294.1587 518.7378 309.0135 517.1157 320.4901 C 515.4126 322.5363 512.7527 321.8710 509.3688 318.9153 C 506.3226 306.3522 501.4463 287.5082 486.3376 277.6790 C 475.9211 270.9015 466.4182 267.5554 450.6889 265.7937 C 434.1338 263.9372 416.9803 269.5513 408.5347 272.8599 C 396.7959 277.4572 385.9428 285.9572 379.5071 291.3663 C 373.3588 298.7142 368.2063 304.8012 362.2211 314.4756 C 360.5390 315.7979 356.8999 313.4463 358.1887 308.1181 C 357.6894 303.3185 359.9894 298.2023 360.7259 293.1112 C 361.1248 290.3509 362.8948 285.9223 361.5963 284.7855 z M 346.6912 355.7274 C 346.6912 364.7491 340.0449 371.5530 324.0450 371.5530 C 308.0450 371.5530 291.8456 360.9858 291.9544 356.6326 C 292.0632 352.3143 302.5411 342.2241 318.9999 339.6423 C 336.9178 336.8332 346.6912 346.7057 346.6912 355.7274 z M 331.3008 353.1400 C 329.8363 359.8170 331.2590 362.6624 317.9650 361.5912 C 310.8347 361.0179 305.9040 359.4292 306.9571 355.0802 C 308.0297 350.6516 307.0003 347.7978 318.4824 346.2412 C 327.1192 345.0696 332.2786 348.6835 331.3008 353.1400 z M 278.5181 358.0553 C 279.4875 360.4991 277.6812 361.6372 272.9472 360.4279 C 269.0362 359.4292 267.0904 359.2967 266.9872 357.1501 C 266.8365 353.9950 271.1061 353.3492 273.8525 353.2251 C 278.3759 353.0214 277.5738 355.6772 278.5181 358.0553 z M 300.5465 379.0306 C 301.5270 380.1325 300.7306 382.3419 289.4465 379.3165 C 281.5295 378.5773 277.1847 378.5731 278.3521 376.1935 C 279.1040 374.6565 283.5186 373.7149 289.8664 375.4808 C 296.9297 377.5465 299.8030 378.2091 300.5465 379.0306 z M 497.9453 308.8392 C 496.2199 310.8742 486.2274 301.4383 481.0317 295.1477 C 471.5958 283.7241 451.0710 281.6388 432.0053 287.0214 C 413.9508 292.1195 392.9936 308.7206 383.9231 318.5248 C 373.5401 329.7489 377.1011 335.0353 370.4492 331.2860 C 367.0640 329.3793 371.3195 317.1662 379.0357 307.9102 C 387.6947 297.5258 411.7246 277.3707 430.2827 274.9047 C 456.5011 271.4190 469.7546 277.3637 480.7709 286.0130 C 488.6335 292.1865 497.6063 306.9101 497.9453 308.8392 z M 501.8898 342.7388 C 494.7386 353.8025 488.0895 352.3701 483.5173 354.4246 C 478.9437 356.4792 470.4995 364.3501 468.1115 361.6233 C 467.2175 360.3791 467.3249 359.0735 471.7171 356.7554 C 476.6060 354.1736 483.4057 348.2316 489.4843 343.8561 C 495.5629 339.4805 494.0300 331.0252 498.6022 328.9706 C 503.1745 326.9160 504.7297 338.3466 501.8898 342.7388 z M 459.2489 316.7855 C 467.9079 327.5283 453.4757 323.8279 443.8626 331.3766 C 440.0687 334.3560 430.5923 334.5038 424.3338 347.7658 C 418.6890 359.7235 422.3894 370.2711 411.4192 386.4371 C 408.8694 390.1947 387.0475 391.1795 381.3329 386.2404 C 380.0176 382.8538 397.7806 379.5230 406.5261 365.9137 C 408.9782 362.0961 412.9535 353.4329 414.9522 341.1976 C 416.8380 332.3391 431.6789 320.5013 437.1187 318.6238 C 443.4832 316.4256 452.9206 313.8354 459.2489 316.7855 z "
     id="path481"
     style="font-size:12.000;fill-rule:evenodd;"
     sodipodi:nodetypes="ccccccccccccccccccccccccccccccccccccccccccccccccccccccccccccccccccccccccccccccccccccccccccccccccccccccccccccccccccccccccccccccccccccccccccccccccccccccccccccccccccccccccccccccccc" />
  <path
     d="M 357.1371 282.5560 C 355.7284 281.3230 350.1045 282.0427 348.1447 283.7751 C 345.7373 285.9050 346.1669 291.2262 344.0356 294.1456 C 341.5989 297.4861 337.4451 299.5519 334.4407 302.5563 C 328.0384 308.9585 322.7367 316.7402 315.8170 322.3641 C 311.9088 325.5387 306.8205 327.4803 301.9539 328.9518 C 293.4009 331.5378 283.7432 331.2435 275.5584 334.5367 C 269.0223 337.1659 262.7707 341.8539 257.7912 346.7190 C 255.3252 349.1293 252.8843 353.1533 253.2232 356.3628 C 253.7490 361.3283 258.1525 366.2172 260.3870 371.2441 C 261.5363 373.8315 261.2308 377.6868 263.3747 379.2057 C 268.3179 382.7095 275.2822 385.2927 281.6496 386.3123 C 292.2586 388.0126 303.6012 388.4492 314.3051 387.3682 C 322.0435 386.5871 330.2395 379.7399 336.9778 380.7275 C 341.6881 381.4179 344.0774 389.4925 348.6525 392.4035 C 356.0045 397.0803 365.7069 398.9312 372.7577 403.4937 C 374.3352 404.5147 375.4664 408.5248 374.5403 409.1539 C 373.1845 410.0730 368.7880 408.4774 365.9119 408.1384 C 355.4271 406.9040 346.5254 399.0916 336.4701 396.4638 C 331.6357 395.2001 326.3186 396.4638 321.2429 396.4638 C 313.3622 396.4638 304.5581 398.8169 298.4 402.5550 C 295.5503 404.2846 293.8180 407.8804 296.3691 409.1539 C 299.8659 410.8988 313.5700 406.1592 314.3260 408.0143 C 315.0346 409.7536 303.7519 413.0426 301.4462 416.2605 C 300.4880 417.5995 302.3250 421.7016 303.9834 421.8439 C 308.2460 422.2094 319.5119 415.7862 320.1856 417.3359 C 320.8426 418.8492 309.1875 423.7381 307.5374 426.9197 C 306.8191 428.3061 310.2615 431.7192 312.1054 431.4891 C 317.0305 430.8740 325.2711 423.0560 327.8418 424.3825 C 329.3984 425.1859 320.5580 431.6718 320.2275 434.5340 C 320.0503 436.0711 323.1161 438.5092 326.3186 437.5802 C 333.5605 435.4797 338.7939 427.2265 347.6384 425.3979 C 360.3285 422.7729 373.9377 422.9528 386.2163 419.8131 C 389.1649 419.0599 392.3521 416.3121 393.3229 413.7219 C 394.3816 410.8974 393.3257 406.7171 392.3075 403.5704 C 391.4636 400.9649 386.6194 397.5825 387.7380 396.4638 C 389.4955 394.7063 396.6956 396.0761 400.9358 394.9407 C 406.1706 393.5375 412.2143 392.2236 416.1644 388.8495 C 420.3363 385.2857 423.6909 379.4680 425.3019 374.1286 C 426.9059 368.8088 424.7216 362.4093 425.8096 356.8705 C 426.5823 352.9343 428.5281 348.9340 430.8853 345.7036 C 433.0961 342.6727 436.2289 339.8956 439.5137 338.0893 C 442.9965 336.1728 450.9526 333.5910 451.1897 334.5367 C 451.4603 335.6219 443.6521 340.4117 441.0368 344.1805 C 437.8999 348.7025 434.6988 354.1074 433.9302 359.4091 C 433.1770 364.5978 434.5272 370.8577 436.4688 375.6517 C 437.4047 377.9643 440.0814 380.3662 442.5600 380.7275 C 449.3876 381.7206 457.4859 378.8347 464.3875 379.7134 C 466.7921 380.0203 468.2260 383.7487 470.4786 384.2815 C 472.6211 384.7892 476.4192 384.3679 477.5713 382.8336 C 478.9577 380.9841 476.6033 374.4229 478.0929 374.1286 C 480.1615 373.7213 484.7253 379.7051 488.2444 380.7275 C 489.9698 381.2282 493.0008 380.1444 493.8279 378.6980 C 495.0302 376.5918 492.8752 370.2775 494.3356 370.0683 C 496.4278 369.7698 500.9805 375.7424 504.4871 377.1749 C 505.6378 377.6449 508.0271 376.8834 508.3089 375.7787 C 509.0384 372.9207 506.1734 365.7555 507.5222 365.2896 C 509.0718 364.7540 514.0723 372.5789 517.0028 372.7742 C 519.0629 372.9123 522.4286 368.7613 522.4914 366.2883 C 522.5960 362.1081 520.2025 356.5065 517.5021 352.8158 C 515.2132 349.6872 506.1636 348.8182 507.5222 345.8305 C 512.8420 334.1336 528.2255 321.5746 537.5359 308.7591 C 541.0327 303.9455 544.0190 298.3412 545.9425 292.9404 C 546.4878 291.4061 545.9090 288.0893 544.9438 287.9512 C 543.5796 287.7573 540.5529 290.1843 538.9572 291.9431 C 534.0656 297.3355 526.1779 310.4077 525.4847 309.4063 C 524.6799 308.2444 532.2467 293.6295 534.4659 285.4558 C 535.9053 280.1569 536.8371 274.1285 536.4619 268.9900 C 536.3489 267.4515 533.6430 264.4094 533.0013 265.4235 C 530.4823 269.3987 529.5812 278.0591 526.9813 283.9592 C 525.2462 287.8968 520.5665 296.2057 519.9961 294.9364 C 519.0699 292.8791 522.4914 280.9757 522.4914 273.9807 C 522.4914 265.1752 522.2543 255.3724 519.9961 247.5349 C 519.4270 245.5599 515.5577 243.4481 512.9508 243.8373 C 510.5350 244.1985 515.3973 269.9427 511.9242 276.4816 C 511.3566 277.5500 509.2253 276.8247 508.9742 275.3267 C 508.5376 272.7351 507.4804 254.1798 503.8217 245.1609 C 502.8705 242.8149 498.5563 230.9282 494.2045 229.3228 C 491.9323 228.4845 490.9225 228.8137 490.3101 230.4972 C 489.4760 232.7903 499.0166 258.3127 498.4266 261.8388 C 497.9077 263.9924 497.2159 264.2699 494.9772 262.0829 C 489.0423 250.1391 482.9455 231.9911 467.5746 218.5841 C 464.9370 216.8908 462.5812 216.1976 461.0720 218.6469 C 460.6424 220.7698 460.7972 223.0336 463.0484 225.8985 C 464.5200 227.7718 474.6338 239.1953 475.6687 245.7189 C 476.2839 247.9171 474.7733 247.3689 472.6029 244.9322 C 463.2744 235.7320 452.0531 223.1242 438.4425 215.7456 C 433.4895 213.9812 432.9343 217.7221 432.8981 220.0710 C 443.7414 231.5754 455.3783 235.8701 457.1609 242.2290 C 456.6239 243.4900 454.7855 243.8582 452.1382 242.5331 C 441.5236 233.6537 421.2792 217.6384 417.8452 217.2465 C 416.6010 217.1042 411.0468 218.5534 415.3722 221.8368 C 421.4424 227.8317 437.9222 237.5327 439.9084 241.4228 C 439.7229 243.0743 437.9124 244.0758 435.9206 242.9181 C 430.8574 238.3640 426.2852 233.5156 418.7741 230.7427 C 408.9323 227.1120 399.8604 220.2411 394.1151 219.8492 C 391.0270 221.3319 390.7941 223.6654 392.5125 227.0492 C 399.1909 230.4303 407.8220 232.8796 417.3584 239.3920 C 418.4352 242.3267 416.8242 242.8079 415.1434 242.0714 C 399.5856 235.2591 389.2235 229.7329 376.7790 227.9963 C 373.3365 228.5236 372.6461 231.1137 374.8290 232.3858 C 379.5811 235.1517 390.2599 238.7127 397.9495 240.6571 C 400.1031 242.1663 400.1031 244.7564 397.4334 244.7871 C 381.1071 238.5397 367.8103 235.7766 352.7839 234.8839 C 352.0963 236.2955 351.1868 239.1814 352.5454 239.8397 C 360.5572 243.7201 378.5169 244.5835 384.9261 248.5336 C 384.7336 250.2827 381.8045 251.1838 380.0386 250.8309 C 366.9469 248.2100 351.7503 247.3466 324.8318 247.9436 C 321.3573 247.8655 321.5009 251.6789 323.9349 254.0390 C 341.5612 254.4267 349.8506 254.4267 361.5908 256.1842 C 363.3204 257.8803 364.8560 258.4536 362.2728 259.8316 C 348.4502 259.1189 322.0686 260.8931 316.6986 261.8444 C 311.3271 262.7970 307.6588 263.7748 304.9542 265.3746 C 302.2510 266.9759 301.2300 268.8728 307.2822 270.7349 C 315.1964 269.7600 335.8145 266.8783 339.8512 267.5812 C 343.8878 268.2842 345.3467 269.3164 342.0856 271.4086 C 328.7191 272.4213 305.4424 279.7371 297.4808 282.9480 C 295.5057 285.2731 297.9048 287.7182 300.7642 287.9512 C 315.6399 284.6134 339.5833 279.7371 355.9892 275.9250 C 372.3950 272.1130 401.1659 261.1037 412.3859 258.3378 C 423.6058 255.5719 451.7602 251.8031 465.8660 256.5692 C 487.8971 264.8837 498.7600 278.4064 503.3336 285.8813 C 507.8500 291.9292 514.2787 306.7840 512.6565 318.2606 C 510.9535 320.3068 508.2935 319.6414 504.9097 316.6858 C 501.8634 304.1227 496.9871 285.2787 481.8785 275.4494 C 471.4620 268.6720 461.9591 265.3258 446.2297 263.5642 C 429.6746 261.7077 412.5212 267.3218 404.0755 270.6303 C 392.3368 275.2276 381.4837 283.7277 375.0480 289.1368 C 368.8996 296.4847 363.7472 302.5716 357.7620 312.2461 C 356.0799 313.5684 352.4408 311.2167 353.7296 305.8885 C 353.2302 301.0890 355.5303 295.9728 356.2668 290.8817 C 356.6657 288.1213 358.4357 283.6928 357.1371 282.5560 z M 342.2321 353.4978 C 342.2321 362.5195 335.5858 369.3234 319.5858 369.3234 C 303.5859 369.3234 287.3865 358.7563 287.4953 354.4031 C 287.6041 350.0847 298.0819 339.9946 314.5408 337.4128 C 332.4586 334.6036 342.2321 344.4762 342.2321 353.4978 z M 326.8417 350.9105 C 325.3771 357.5874 326.7998 360.4329 313.5058 359.3617 C 306.3755 358.7884 301.4448 357.1997 302.4979 352.8506 C 303.5705 348.4221 302.5412 345.5683 314.0233 344.0117 C 322.6600 342.8400 327.8195 346.4540 326.8417 350.9105 z M 274.0590 355.8258 C 275.0284 358.2695 273.2221 359.4077 268.4881 358.1984 C 264.5770 357.1997 262.6312 357.0672 262.5280 354.9206 C 262.3774 351.7655 266.6469 351.1197 269.3933 350.9955 C 273.9167 350.7919 273.1147 353.4476 274.0590 355.8258 z M 296.0873 376.8011 C 297.0679 377.9030 296.2715 380.1124 284.9874 377.0870 C 277.0704 376.3477 272.7255 376.3436 273.8930 373.9640 C 274.6448 372.4269 279.0594 371.4854 285.4072 373.2513 C 292.4706 375.3170 295.3439 375.9795 296.0873 376.8011 z M 493.4861 306.6096 C 491.7608 308.6447 481.7683 299.2087 476.5726 292.9181 C 467.1366 281.4946 446.6119 279.4093 427.5461 284.7919 C 409.4916 289.8900 388.5345 306.4911 379.4640 316.2953 C 369.0810 327.5194 372.6419 332.8057 365.9900 329.0564 C 362.6048 327.1497 366.8604 314.9367 374.5765 305.6807 C 383.2356 295.2963 407.2655 275.1412 425.8235 272.6751 C 452.0419 269.1895 465.2955 275.1342 476.3118 283.7835 C 484.1743 289.9569 493.1472 304.6806 493.4861 306.6096 z M 497.4307 340.5093 C 490.2795 351.5730 483.6304 350.1405 479.0582 352.1951 C 474.4845 354.2496 466.0403 362.1206 463.6524 359.3937 C 462.7583 358.1496 462.8657 356.8440 467.2580 354.5258 C 472.1468 351.9440 478.9466 346.0021 485.0252 341.6265 C 491.1038 337.2510 489.5709 328.7956 494.1431 326.7411 C 498.7153 324.6865 500.2705 336.1170 497.4307 340.5093 z M 454.7897 314.5559 C 463.4487 325.2988 449.0166 321.5984 439.4035 329.1471 C 435.6096 332.1264 426.1332 332.2743 419.8746 345.5362 C 414.2298 357.4940 417.9303 368.0416 406.9600 384.2075 C 404.4103 387.9652 382.5884 388.9499 376.8738 384.0109 C 375.5585 380.6243 393.3215 377.2934 402.0670 363.6842 C 404.5191 359.8666 408.4943 351.2034 410.4931 338.9680 C 412.3789 330.1095 427.2197 318.2717 432.6595 316.3943 C 439.0241 314.1961 448.4614 311.6059 454.7897 314.5559 z "
     id="path482"
     style="font-size:12.000;fill-rule:evenodd;"
     sodipodi:nodetypes="ccccccccccccccccccccccccccccccccccccccccccccccccccccccccccccccccccccccccccccccccccccccccccccccccccccccccccccccccccccccccccccccccccccccccccccccccccccccccccccccccccccccccccccccccc" />
  <path
     d="M 359.8842 282.1896 C 358.4754 280.9566 352.8515 281.6764 350.8918 283.4087 C 348.4844 285.5386 348.9140 290.8598 346.7827 293.7792 C 344.3459 297.1198 340.1922 299.1855 337.1877 302.1899 C 330.7855 308.5922 325.4838 316.3738 318.5641 321.9977 C 314.6558 325.1724 309.5675 327.1139 304.7010 328.5855 C 296.1480 331.1715 286.4903 330.8772 278.3055 334.1703 C 271.7694 336.7996 265.5178 341.4875 260.5383 346.3527 C 258.0723 348.7629 255.6313 352.7870 255.9703 355.9964 C 256.4961 360.9620 260.8996 365.8508 263.1341 370.8777 C 264.2834 373.4651 263.9779 377.3204 266.1218 378.8394 C 271.0650 382.3431 278.0293 384.9263 284.3967 385.9460 C 295.0057 387.6462 306.3483 388.0828 317.0521 387.0018 C 324.7906 386.2207 332.9865 379.3736 339.7249 380.3611 C 344.4352 381.0515 346.8245 389.1261 351.3995 392.0371 C 358.7516 396.7140 368.4540 398.5649 375.5048 403.1273 C 377.0823 404.1483 378.2135 408.1584 377.2873 408.7875 C 375.9316 409.7067 371.5351 408.1110 368.6590 407.7721 C 358.1742 406.5377 349.2724 398.7253 339.2172 396.0974 C 334.3828 394.8337 329.0657 396.0974 323.9900 396.0974 C 316.1092 396.0974 307.3052 398.4505 301.1470 402.1886 C 298.2974 403.9182 296.5651 407.5140 299.1162 408.7875 C 302.6130 410.5324 316.3171 405.7928 317.0731 407.6479 C 317.7816 409.3873 306.4989 412.6763 304.1933 415.8941 C 303.2351 417.2331 305.0721 421.3353 306.7305 421.4776 C 310.9931 421.8430 322.2590 415.4199 322.9327 416.9695 C 323.5897 418.4829 311.9346 423.3717 310.2845 426.5533 C 309.5662 427.9397 313.0086 431.3529 314.8525 431.1227 C 319.7776 430.5076 328.0182 422.6896 330.5888 424.0161 C 332.1455 424.8195 323.3051 431.3054 322.9745 434.1676 C 322.7974 435.7047 325.8632 438.1428 329.0657 437.2139 C 336.3076 435.1133 341.5410 426.8602 350.3855 425.0315 C 363.0756 422.4065 376.6848 422.5864 388.9634 419.4467 C 391.9120 418.6935 395.0992 415.9457 396.0700 413.3555 C 397.1286 410.5310 396.0728 406.3508 395.0545 403.2040 C 394.2107 400.5985 389.3665 397.2161 390.4851 396.0974 C 392.2426 394.3400 399.4426 395.7097 403.6829 394.5743 C 408.9176 393.1711 414.9614 391.8572 418.9115 388.4831 C 423.0834 384.9194 426.4379 379.1016 428.0490 373.7622 C 429.6530 368.4424 427.4687 362.0430 428.5567 356.5041 C 429.3294 352.5680 431.2752 348.5676 433.6324 345.3372 C 435.8432 342.3063 438.9760 339.5292 442.2608 337.7229 C 445.7436 335.8064 453.6997 333.2246 453.9368 334.1703 C 454.2074 335.2555 446.3992 340.0453 443.7839 343.8141 C 440.6469 348.3361 437.4458 353.7410 436.6773 359.0427 C 435.9241 364.2314 437.2743 370.4914 439.2159 375.2854 C 440.1518 377.5980 442.8284 379.9999 445.3070 380.3611 C 452.1347 381.3542 460.2330 378.4683 467.1345 379.3471 C 469.5392 379.6539 470.9731 383.3823 473.2257 383.9151 C 475.3681 384.4228 479.1662 384.0016 480.3184 382.4673 C 481.7048 380.6178 479.3504 374.0565 480.8400 373.7622 C 482.9085 373.3549 487.4724 379.3387 490.9915 380.3611 C 492.7169 380.8619 495.7478 379.7781 496.5750 378.3317 C 497.7773 376.2255 495.6223 369.9111 497.0827 369.7019 C 499.1749 369.4034 503.7276 375.3760 507.2342 376.8085 C 508.3849 377.2786 510.7742 376.5170 511.0560 375.4123 C 511.7854 372.5543 508.9205 365.3891 510.2693 364.9233 C 511.8189 364.3877 516.8193 372.2126 519.7499 372.4079 C 521.8100 372.5459 525.1757 368.3950 525.2385 365.9220 C 525.3431 361.7417 522.9496 356.1401 520.2492 352.4494 C 517.9603 349.3208 508.9107 348.4519 510.2693 345.4642 C 515.5891 333.7672 530.9726 321.2083 540.2830 308.3927 C 543.7798 303.5792 546.7661 297.9748 548.6895 292.5741 C 549.2349 291.0398 548.6561 287.7229 547.6908 287.5848 C 546.3267 287.3909 543.3000 289.8179 541.7043 291.5768 C 536.8127 296.9691 528.9250 310.0414 528.2317 309.0399 C 527.4269 307.8780 534.9938 293.2631 537.2130 285.0895 C 538.6524 279.7906 539.5842 273.7622 539.2090 268.6236 C 539.0960 267.0852 536.3900 264.0431 535.7484 265.0571 C 533.2294 269.0323 532.3283 277.6928 529.7284 283.5928 C 527.9932 287.5304 523.3136 295.8393 522.7431 294.5701 C 521.8170 292.5127 525.2385 280.6093 525.2385 273.6143 C 525.2385 264.8088 525.0013 255.0060 522.7431 247.1686 C 522.1741 245.1935 518.3048 243.0817 515.6979 243.4709 C 513.2821 243.8322 518.1444 269.5763 514.6713 276.1152 C 514.1036 277.1836 511.9724 276.4583 511.7213 274.9603 C 511.2847 272.3687 510.2274 253.8135 506.5688 244.7946 C 505.6176 242.4485 501.3034 230.5619 496.9516 228.9564 C 494.6794 228.1181 493.6696 228.4473 493.0572 230.1309 C 492.2231 232.4239 501.7637 257.9463 501.1737 261.4724 C 500.6548 263.6260 499.9630 263.9036 497.7243 261.7165 C 491.7893 249.7727 485.6926 231.6247 470.3217 218.2177 C 467.6841 216.5244 465.3283 215.8312 463.8191 218.2805 C 463.3895 220.4034 463.5443 222.6672 465.7955 225.5321 C 467.2670 227.4054 477.3809 238.8289 478.4158 245.3525 C 479.0309 247.5507 477.5204 247.0026 475.3500 244.5658 C 466.0215 235.3656 454.8002 222.7579 441.1895 215.3793 C 436.2365 213.6148 435.6814 217.3557 435.6451 219.7046 C 446.4884 231.2091 458.1254 235.5037 459.9080 241.8627 C 459.3710 243.1236 457.5326 243.4918 454.8852 242.1667 C 444.2707 233.2873 424.0263 217.2720 420.5923 216.8801 C 419.3481 216.7378 413.7939 218.1870 418.1192 221.4704 C 424.1895 227.4654 440.6693 237.1663 442.6555 241.0565 C 442.4700 242.7079 440.6595 243.7094 438.6677 242.5517 C 433.6045 237.9976 429.0323 233.1492 421.5212 230.3763 C 411.6794 226.7456 402.6075 219.8748 396.8622 219.4828 C 393.7741 220.9655 393.5412 223.2990 395.2596 226.6829 C 401.9380 230.0639 410.5691 232.5132 420.1055 239.0256 C 421.1823 241.9603 419.5713 242.4415 417.8905 241.7051 C 402.3327 234.8928 391.9706 229.3665 379.5260 227.6300 C 376.0836 228.1572 375.3932 230.7474 377.5761 232.0194 C 382.3282 234.7854 393.0069 238.3463 400.6966 240.2907 C 402.8502 241.7999 402.8502 244.3901 400.1805 244.4208 C 383.8542 238.1734 370.5574 235.4102 355.5310 234.5176 C 354.8433 235.9291 353.9339 238.8150 355.2925 239.4734 C 363.3043 243.3537 381.2640 244.2171 387.6732 248.1673 C 387.4807 249.9164 384.5516 250.8174 382.7857 250.4645 C 369.6940 247.8437 354.4974 246.9803 327.5788 247.5772 C 324.1043 247.4991 324.2480 251.3126 326.6820 253.6726 C 344.3083 254.0604 352.5977 254.0604 364.3379 255.8178 C 366.0674 257.5139 367.6031 258.0872 365.0199 259.4653 C 351.1973 258.7525 324.8157 260.5267 319.4456 261.4780 C 314.0742 262.4307 310.4058 263.4084 307.7013 265.0083 C 304.9981 266.6095 303.9771 268.5065 310.0292 270.3686 C 317.9434 269.3936 338.5616 266.5119 342.5982 267.2149 C 346.6348 267.9179 348.0938 268.9500 344.8327 271.0423 C 331.4662 272.0549 308.1895 279.3707 300.2278 282.5816 C 298.2528 284.9068 300.6519 287.3519 303.5112 287.5848 C 318.3870 284.2470 342.3304 279.3707 358.7363 275.5587 C 375.1421 271.7466 403.9130 260.7373 415.1329 257.9714 C 426.3529 255.2055 454.5073 251.4367 468.6130 256.2028 C 490.6442 264.5173 501.5070 278.0401 506.0806 285.5149 C 510.5971 291.5628 517.0258 306.4176 515.4036 317.8942 C 513.7005 319.9404 511.0406 319.2751 507.6568 316.3194 C 504.6105 303.7563 499.7342 284.9123 484.6256 275.0831 C 474.2091 268.3056 464.7062 264.9595 448.9768 263.1978 C 432.4217 261.3413 415.2682 266.9554 406.8226 270.2640 C 395.0838 274.8613 384.2308 283.3613 377.7951 288.7704 C 371.6467 296.1183 366.4942 302.2053 360.5091 311.8797 C 358.8269 313.2020 355.1879 310.8504 356.4767 305.5222 C 355.9773 300.7226 358.2774 295.6064 359.0138 290.5153 C 359.4128 287.7550 361.1828 283.3264 359.8842 282.1896 z M 344.9792 353.1315 C 344.9792 362.1532 338.3329 368.9571 322.3329 368.9571 C 306.3330 368.9571 290.1336 358.3899 290.2423 354.0367 C 290.3511 349.7184 300.8290 339.6282 317.2879 337.0464 C 335.2057 334.2373 344.9792 344.1098 344.9792 353.1315 z M 329.5888 350.5441 C 328.1242 357.2211 329.5469 360.0665 316.2529 358.9953 C 309.1226 358.4220 304.1919 356.8333 305.2450 352.4843 C 306.3176 348.0557 305.2882 345.2019 316.7704 343.6453 C 325.4071 342.4737 330.5665 346.0876 329.5888 350.5441 z M 276.8061 355.4594 C 277.7755 357.9031 275.9692 359.0413 271.2352 357.8320 C 267.3241 356.8333 265.3783 356.7008 265.2751 354.5542 C 265.1245 351.3991 269.3940 350.7533 272.1404 350.6292 C 276.6638 350.4255 275.8618 353.0813 276.8061 355.4594 z M 298.8344 376.4347 C 299.8150 377.5366 299.0185 379.7460 287.7345 376.7206 C 279.8175 375.9814 275.4726 375.9772 276.6401 373.5976 C 277.3919 372.0606 281.8065 371.1190 288.1543 372.8849 C 295.2177 374.9506 298.0910 375.6132 298.8344 376.4347 z M 496.2332 306.2433 C 494.5078 308.2783 484.5154 298.8424 479.3197 292.5517 C 469.8837 281.1282 449.3590 279.0429 430.2932 284.4255 C 412.2387 289.5236 391.2816 306.1247 382.2111 315.9289 C 371.8280 327.1530 375.3890 332.4394 368.7371 328.6901 C 365.3519 326.7834 369.6075 314.5703 377.3236 305.3143 C 385.9826 294.9299 410.0126 274.7748 428.5706 272.3088 C 454.7890 268.8231 468.0426 274.7678 479.0588 283.4171 C 486.9214 289.5906 495.8943 304.3142 496.2332 306.2433 z M 500.1778 340.1429 C 493.0265 351.2066 486.3774 349.7742 481.8052 351.8287 C 477.2316 353.8833 468.7874 361.7542 466.3995 359.0274 C 465.5054 357.7832 465.6128 356.4776 470.0051 354.1595 C 474.8939 351.5777 481.6936 345.6357 487.7723 341.2602 C 493.8509 336.8846 492.3180 328.4293 496.8902 326.3747 C 501.4624 324.3201 503.0176 335.7507 500.1778 340.1429 z M 457.5368 314.1896 C 466.1958 324.9324 451.7636 321.2320 442.1506 328.7807 C 438.3567 331.7601 428.8803 331.9079 422.6217 345.1699 C 416.9769 357.1276 420.6773 367.6752 409.7071 383.8412 C 407.1574 387.5988 385.3354 388.5836 379.6209 383.6445 C 378.3056 380.2579 396.0686 376.9271 404.8141 363.3178 C 407.2662 359.5002 411.2414 350.8370 413.2402 338.6017 C 415.1260 329.7432 429.9668 317.9054 435.4066 316.0279 C 441.7712 313.8297 451.2085 311.2395 457.5368 314.1896 z "
     id="path11"
     style="font-size:12.000;fill:#ff8000;fill-rule:evenodd;stroke:#000000;stroke-width:1.394818;"
     sodipodi:nodetypes="ccccccccccccccccccccccccccccccccccccccccccccccccccccccccccccccccccccccccccccccccccccccccccccccccccccccccccccccccccccccccccccccccccccccccccccccccccccccccccccccccccccccccccccccccc" />
  <path
     style="font-size:12.000;fill:#ffff81;fill-opacity:0.330000;fill-rule:evenodd;stroke-width:5;"
     d="M 375.2624 182.1513 C 341.3032 208.3981 376.5228 264.7294 416.7908 313.3851 C 457.0587 362.0407 503.9237 408.0975 537.8829 381.8506 C 571.8422 355.6038 558.9185 269.1730 524.2246 228.3210 C 483.2298 180.2762 409.2217 155.9044 375.2624 182.1513 z "
     id="path495"
     sodipodi:nodetypes="cscsc" />
  <text
     style="font-size:16.00000;font-weight:bold;stroke-width:1.000000;font-family:Arial;text-anchor:middle;fill:#ffffff;fill-opacity:1.0000;font-style:normal;writing-mode:lr;stroke:none;stroke-opacity:1.0000;"
     x="391.946144"
     y="576.235023"
     id="text769"
     sodipodi:linespacing="100%">
    <tspan
       x="391.946136"
       y="576.235046"
       sodipodi:role="line"
       id="tspan595"
       style="fill:#ffffff;fill-opacity:1.0000;stroke:none;stroke-opacity:1.0000;">Brought to you by Lauris Kaplinski, Mitsuru Oka, Masatake Yamato, Frank Felfe, MenTaLguY</tspan>
  </text>
</svg>
