<?xml version="1.0" encoding="UTF-8" standalone="no"?>
<!DOCTYPE svg PUBLIC "-//W3C//DTD SVG 20010904//EN"
"http://www.w3.org/TR/2001/REC-SVG-20010904/DTD/svg10.dtd"
[
 <!ATTLIST svg
  xmlns:xlink CDATA #FIXED "http://www.w3.org/1999/xlink">
]>
<!-- Created with Sodipodi ("http://www.sodipodi.com/") -->
<svg
   xmlns="http://www.w3.org/2000/svg"
   xmlns:xlink="http://www.w3.org/1999/xlink"
   version="1"
   x="0"
   y="0"
   width="500"
   height="375"
   id="svg635">
  <defs
     id="defs637" />
  <ellipse
     cx="191.641815"
     cy="137.611923"
     rx="135.522430"
     ry="135.522415"
     transform="matrix(1.07203,0,0,1.07203,43.53,32.7938)"
     style="font-size:12;fill:#ffc5b8;fill-rule:evenodd;stroke-width:1pt;"
     id="path153" />
  <g
     transform="matrix(0.358583,0,0,0.358583,119.339,56.2234)"
     style="font-size:12;"
     id="g741">
    <g
       id="g349">
      <path
         d="M 447.969 257.37 C 446.091 257.889 444.674 259.984 441.941 263.437 L 441.941 263.437 C 435.84 270.648 406.699 306.069 400.193 312.902 C 393.683 322.784 382.867 331.658 377.043 342.197 C 376.767 346.773 382.262 361.898 384.115 366.598 C 387.736 378.75 397.568 391.839 400.619 404.042 C 406.72 418.741 412.267 433.717 416.981 448.97 C 419.2 451.743 418.368 458.122 423.915 457.567 C 421.419 446.751 417.259 436.49 415.04 425.674 C 408.107 414.858 408.661 400.991 400.893 390.73 C 400.893 380.746 392.122 370.496 389.725 361.386 C 386.494 357.821 385.365 347.744 383.979 343.306 C 391.747 332.768 403.303 323.27 408.589 312.906 C 410.302 309.548 436.117 280.352 438.333 277.301 L 448.04 265.376 C 451.634 260.532 451.084 256.864 447.969 257.37 z "
         style="fill:#ffffff;fill-rule:evenodd;stroke-width:0.675;"
         id="path340" />
      <path
         d="M 447.969 257.37 C 446.091 257.889 444.674 259.984 441.941 263.437 L 441.941 263.437 C 435.84 270.648 406.699 306.069 400.193 312.902 C 393.683 322.784 382.867 331.658 377.043 342.197 C 376.767 346.773 382.262 361.898 384.115 366.598 C 387.736 378.75 397.568 391.839 400.619 404.042 C 406.72 418.741 412.267 433.717 416.981 448.97 C 419.2 451.743 418.368 458.122 423.915 457.567 C 421.419 446.751 417.259 436.49 415.04 425.674 C 408.107 414.858 408.661 400.991 400.893 390.73 C 400.893 380.746 392.122 370.496 389.725 361.386 C 386.494 357.821 385.365 347.744 383.979 343.306 C 391.747 332.768 403.303 323.27 408.589 312.906 C 410.302 309.548 436.117 280.352 438.333 277.301 L 448.04 265.376 C 451.634 260.532 451.084 256.864 447.969 257.37 z M 444.437 264.269 C 444.989 266.211 442.493 267.875 440.829 269.261 C 441.384 268.984 442.77 265.379 444.437 264.269 z M 382.037 340.256 L 383.424 338.314 C 383.144 338.869 383.144 340.256 382.037 340.256 z M 402.005 315.853 L 402.56 314.189 L 403.115 314.744 L 402.005 315.853 L 402.005 315.853 z M 395.072 383.242 C 391.467 379.082 391.189 372.981 388.416 368.266 C 390.638 372.703 394.243 378.25 395.072 383.242 z "
         style="fill-rule:evenodd;stroke-width:0.675;"
         id="path348" />
    </g>
    <g
       id="g371">
      <path
         d="M 356.932 251.076 C 354.277 248.413 343.633 234.311 332.536 219.765 C 321.439 205.218 309.888 190.227 307.76 187.512 C 303.505 182.081 299.239 176.643 295.033 171.204 C 286.621 160.328 278.452 149.451 271.105 138.635 C 266.901 145.026 265.041 149.074 262.088 154.996 C 260.396 158.166 256.673 164.45 253.353 170.528 C 236.435 203.531 223.955 238.475 207.87 271.755 C 190.953 290.891 173.481 308.917 153.513 323.893 C 142.42 332.49 134.932 343.029 122.452 348.853 L 122.452 346.634 C 149.63 320.842 178.198 298.933 203.71 270.923 C 207.593 254.56 215.913 240.139 221.737 224.886 C 232.278 204.918 240.666 183.84 251.462 163.958 C 254.076 158.324 256.34 154.2 257.773 150.858 C 259.831 146.058 267.861 129.929 273.595 131.979 C 284.689 148.896 296.892 164.982 309.407 180.928 C 315.664 188.902 341.531 222.309 347.844 230.299 C 354.158 238.29 369.824 255.708 356.932 251.076 z "
         style="fill:#ffffff;fill-rule:evenodd;stroke-width:0.8;"
         id="path363" />
      <path
         d="M 247.969 175.968 L 247.969 175.968 C 250.313 170.031 252.657 165.031 255.625 161.906 C 253.438 167.374 250.157 175.343 247.969 175.968 z M 224.236 227.936 C 223.681 222.667 229.782 215.734 231.721 209.355 C 230.057 216.011 227.561 222.112 224.236 227.936 z M 356.932 251.076 C 354.277 248.413 343.633 234.311 332.536 219.765 C 321.439 205.218 309.888 190.227 307.76 187.512 C 303.505 182.081 299.239 176.643 295.033 171.204 C 286.621 160.328 278.452 149.451 271.105 138.635 C 266.901 145.026 265.041 149.074 262.088 154.996 C 260.396 158.166 256.673 164.45 253.353 170.528 C 236.435 203.531 223.955 238.475 207.87 271.755 C 190.953 290.891 173.481 308.917 153.513 323.893 C 142.42 332.49 134.932 343.029 122.452 348.853 L 122.452 346.634 C 149.63 320.842 178.198 298.933 203.71 270.923 C 207.593 254.56 215.913 240.139 221.737 224.886 C 232.278 204.918 240.666 183.84 251.462 163.958 C 254.076 158.324 256.34 154.2 257.773 150.858 C 259.831 146.058 267.861 129.929 273.595 131.979 C 284.689 148.896 296.892 164.982 309.407 180.928 C 315.664 188.902 341.531 222.309 347.844 230.299 C 354.158 238.29 369.824 255.708 356.932 251.076 z M 176.812 301.709 L 178.476 299.213 L 179.308 299.213 L 176.815 301.709 L 176.812 301.709 z "
         style="fill-rule:evenodd;stroke-width:1pt;"
         id="path370" />
    </g>
    <path
       d="M 334.685 236.083 C 332.798 237.192 333.171 244.933 328.7 233.611 C 324.429 219.705 320.938 211.893 318.541 208.143 C 311.328 201.487 305.488 195.491 294.675 197.432 C 292.194 199.581 291.109 200.428 288.287 202.458 C 283.304 204.366 281.585 214.025 280.487 217.876 C 280.216 232.147 286.355 242.08 289.128 252.341 C 291.067 257.056 293.288 262.603 293.566 267.317 C 283.304 257.056 284.363 244.877 278.461 231.848 C 277.863 229.714 276.82 215.604 278.07 212.792 C 278.488 208.932 279.211 207.262 282.913 202.309 C 284.125 201.379 284.123 200.559 285.998 199.621 C 291.468 193.469 298.255 192.469 304.612 193.944 C 310.969 195.418 321.27 202.335 323.096 206.39 C 326.763 214.557 332.798 224.705 334.685 236.083 z "
       style="fill-rule:evenodd;stroke-width:0.175;"
       id="path456" />
    <path
       d="M 280.727 221.842 C 284.136 216.288 290.796 212.214 296.066 209.442 C 296.066 209.442 290.796 212.214 296.391 209.33 C 309.27 206.617 314.679 213.289 319.391 220.222 C 322.464 225.534 328.194 234.128 330.485 236.159 C 333.475 236.419 335.215 235.116 335.392 233.032 C 330.676 226.888 318.429 210.265 312.302 206.877 C 307.895 204.582 302.423 203.646 294.693 205.891 C 286.538 208.634 282.438 213.603 278.494 219.04 C 273.253 225.403 270.184 233.42 268.537 241.923 C 266.89 250.426 266.664 259.414 267.219 267.872 C 267.219 271.477 271.657 274.528 268.606 278.411 C 272.211 279.52 270.825 285.067 274.704 284.789 C 270.544 266.208 267.57 240.705 280.727 221.842 z "
       style="fill-rule:evenodd;stroke-width:0.175;"
       id="path444" />
    <g
       id="g316">
      <path
         d="M 423.07 290.578 C 422.75 286.408 428.654 287.564 431.919 287.758 C 435.185 287.951 438.45 288.145 441.715 288.338 C 444.918 288.561 450.109 289.004 453.312 289.227 C 483.266 290.613 514.047 292.832 544.831 293.387 C 545.941 293.941 547.053 294.219 547.327 295.883 C 546.493 303.925 545.548 315.832 543.469 323.418 C 538.615 338.769 537.343 356.896 532.349 372.149 C 534.57 377.141 527.914 380.191 530.41 385.183 C 524.863 395.445 525.97 408.757 520.703 419.018 C 517.095 430.389 514.599 443.7 512.935 454.516 C 507.946 461.45 510.997 471.711 506.279 478.644 L 514.103 489.881 C 536.633 515.829 556.479 547.7 577.834 573.215 C 584.212 583.476 591.978 593.182 600.572 602.334 C 600.572 603.166 601.13 604.553 600.295 605.385 C 581.159 586.249 563.964 564.063 547.879 543.54 C 545.106 538.271 538.453 534.665 536.234 529.396 C 527.637 519.689 520.768 506 512.549 497.306 L 500.733 478.922 C 504.893 469.215 504.341 459.231 508.224 449.524 C 517.095 408.202 528.687 364.396 537.564 323.074 C 539.559 316.723 540.173 306.42 541.005 300.318 L 541.226 299.213 C 525.833 298.242 510.024 297.688 494.321 297.099 C 486.469 296.804 473.605 296.445 460.329 295.525 C 451.586 294.926 441.52 294.486 434.457 293.907 C 427.394 293.329 423.335 292.612 423.07 290.578 z "
         style="fill:#ffffff;fill-rule:evenodd;stroke-width:0.675;"
         id="path311" />
      <path
         d="M 423.07 290.578 C 422.75 286.408 428.654 287.564 431.919 287.758 C 435.185 287.951 438.45 288.145 441.715 288.338 C 444.918 288.561 450.109 289.004 453.312 289.227 C 483.266 290.613 514.047 292.832 544.831 293.387 C 545.941 293.941 547.053 294.219 547.327 295.883 C 546.493 303.925 545.548 315.832 543.469 323.418 C 538.615 338.769 537.343 356.896 532.349 372.149 C 534.57 377.141 527.914 380.191 530.41 385.183 C 524.863 395.445 525.97 408.757 520.703 419.018 C 517.095 430.389 514.599 443.7 512.935 454.516 C 507.946 461.45 510.997 471.711 506.279 478.644 L 514.103 489.881 C 536.633 515.829 556.479 547.7 577.834 573.215 C 584.212 583.476 591.978 593.182 600.572 602.334 C 600.572 603.166 601.13 604.553 600.295 605.385 C 581.159 586.249 563.964 564.063 547.879 543.54 C 545.106 538.271 538.453 534.665 536.234 529.396 C 527.637 519.689 520.768 506 512.549 497.306 L 500.733 478.922 C 504.893 469.215 504.341 459.231 508.224 449.524 C 517.095 408.202 528.687 364.396 537.564 323.074 C 539.559 316.723 540.173 306.42 541.005 300.318 L 541.226 299.213 C 525.833 298.242 510.024 297.688 494.321 297.099 C 486.469 296.804 473.605 296.445 460.329 295.525 C 451.586 294.926 441.52 294.486 434.457 293.907 C 427.394 293.329 423.335 292.612 423.07 290.578 z M 440.832 290.893 L 435.008 290.339 L 440.554 290.339 L 440.832 290.893 z M 450.538 292.28 L 450.538 291.448 L 454.976 291.725 L 450.538 292.28 z "
         style="fill-rule:evenodd;stroke-width:0.05;"
         id="path315" />
    </g>
    <g
       id="g887">
      <path
         d="M 400.311 228.976 C 426.086 211.296 451.711 191.744 477.053 172.539 C 502.394 153.334 527.769 134.475 553.7 118.113 C 572.834 107.019 593.359 96.7581 618.041 102.582 C 625.527 104.523 635.233 107.851 637.177 116.726 L 637.18 116.726 L 637.183 116.726 C 637.457 121.857 636.262 132.763 629.512 140.307 C 626.493 143.392 572.046 176.013 517.126 202.635 C 489.666 215.947 428.517 234.138 406.951 240.008 C 402.291 237.267 400.532 235.283 400.311 228.976 z "
         style="fill:#ffc5b8;fill-rule:evenodd;stroke-width:0.175;"
         id="path872" />
      <path
         d="M 400.311 228.976 C 426.086 211.296 451.711 191.744 477.053 172.539 C 502.394 153.334 527.769 134.475 553.7 118.113 C 572.834 107.019 593.359 96.7581 618.041 102.582 C 625.527 104.523 635.233 107.851 637.177 116.726 L 637.18 116.726 L 637.183 116.726 C 637.457 121.857 636.262 132.763 629.512 140.307 C 626.493 143.392 572.046 176.013 517.126 202.635 C 489.666 215.947 428.517 234.138 406.951 240.008 C 402.291 237.267 400.532 235.283 400.311 228.976 z M 600.298 104.523 C 557.311 114.785 526.527 153.611 488.256 174.966 L 456.92 196.875 C 487.978 169.974 523.199 150.561 553.151 121.718 C 567.853 113.398 582.271 103.969 600.298 103.691 L 600.298 104.523 L 600.298 104.523 z M 620.543 106.19 C 613.61 111.46 603.346 111.737 595.303 115.619 L 568.124 128.099 C 565.903 128.931 564.796 126.713 563.13 126.158 L 563.13 124.494 C 576.167 113.678 592.807 112.014 607.225 104.249 C 612.22 103.417 616.1 105.358 620.54 106.19 L 620.543 106.19 z M 632.746 114.51 C 628.305 115.619 623.319 115.065 619.711 113.123 C 618.047 109.241 622.762 109.796 624.148 107.577 C 628.031 107.3 631.082 112.292 632.748 114.51 L 632.746 114.51 z M 616.106 113.123 C 602.239 123.939 586.431 132.259 570.346 138.638 C 569.791 136.142 568.405 133.091 569.791 130.595 C 584.493 123.662 598.634 114.787 615.274 112.014 L 616.106 113.123 L 616.106 113.123 z M 633.578 117.561 C 635.799 125.881 623.871 120.334 620.266 124.217 C 601.684 131.15 585.319 142.521 568.679 153.614 C 566.741 154.169 563.413 154.723 561.746 153.059 C 559.807 152.227 560.917 150.009 561.746 149.177 C 574.783 137.806 590.866 133.923 604.732 124.494 C 612.223 119.779 618.599 113.678 628.586 117.561 L 633.578 117.561 L 633.578 117.561 z M 632.746 124.494 C 633.852 136.697 621.098 133.091 614.719 136.974 C 604.458 140.857 595.026 148.067 583.658 148.067 C 599.188 138.083 614.164 126.99 632.746 124.494 z M 565.631 131.979 C 572.287 141.409 558.421 144.459 556.759 151.67 C 530.965 159.99 507.392 174.411 481.88 183.563 C 494.36 173.579 509.055 165.259 521.258 155.553 C 534.847 147.233 546.495 133.643 560.639 126.987 L 565.631 131.979 L 565.631 131.979 z M 527.914 140.577 C 497.959 162.208 468.01 184.672 438.059 206.027 C 469.952 179.958 503.509 154.998 537.346 131.979 C 536.511 135.307 530.965 137.803 527.917 140.577 L 527.914 140.577 z M 627.199 136.974 C 627.479 139.47 624.706 142.798 622.207 143.63 C 617.492 144.739 612.223 142.798 607.231 144.185 C 613.055 141.134 619.711 137.806 627.199 136.974 L 627.199 136.974 z M 490.474 216.843 L 491.026 216.843 L 491.026 216.288 L 490.474 216.288 L 490.474 216.843 z "
         style="fill-rule:evenodd;stroke-width:0.175;"
         id="path886" />
    </g>
    <g
       id="g632">
      <path
         d="M 331.56 226.552 L 336 225.998 C 340.364 226.112 342.106 227.041 345.538 229.67 C 349.053 228.956 352.635 224.054 355.688 221.003 C 358.739 217.952 359.896 216.394 361.84 213.344 C 363.689 212.406 365.538 213.344 367.387 213.344 L 369.73 212.179 C 375.416 211.763 381.612 213.068 387.149 215.932 C 392.686 218.797 403.501 228.065 409.219 246.868 C 420.12 257.31 413.053 265.878 410.048 273.976 C 410.324 276.195 412.057 277.165 413.895 278.032 C 415.732 278.899 417.674 279.661 418.368 281.464 C 421.419 281.464 437.703 294.686 443.966 302.628 C 450.11 307.889 461.354 322.229 461.906 325.834 C 464.96 331.936 471.336 336.65 472.448 343.861 C 474.944 348.298 477.44 352.736 479.933 357.173 C 484.65 358.005 480.768 363.274 484.373 365.216 C 485.205 371.317 488.253 376.863 491.306 382.133 C 486.866 385.738 496.298 387.402 491.861 391.285 C 491.861 398.218 494.634 404.042 494.357 411.253 C 493.522 410.698 492.97 411.53 492.413 412.085 C 490.197 415.413 492.97 422.069 494.909 425.674 C 495.186 432.053 499.623 437.876 497.405 443.978 C 491.303 446.751 493.245 438.154 489.362 436.212 C 481.32 429.557 480.765 419.85 476.33 411.53 C 473.277 406.538 469.397 401.269 468.84 394.613 C 466.901 393.226 462.464 390.175 464.96 386.57 C 459.693 384.074 462.741 376.309 458.307 372.703 C 456.64 366.602 451.925 361.056 450.816 354.122 C 444.992 353.29 448.877 346.357 443.331 344.693 C 441.944 341.088 440.28 337.205 437.507 334.709 C 439.171 328.608 430.016 333.045 432.512 327.221 C 429.739 325.002 427.8 323.061 426.413 319.733 C 416.222 314.084 417.529 311.352 412.715 308.006 L 408.49 305.069 C 407.517 303.96 407 302.538 406.443 302.261 C 402.56 305.589 401.81 301.055 400.619 299.765 L 399.059 298.046 C 395.625 293.852 392.473 289.95 387.596 288.683 C 360.661 294.468 367.829 282.944 359.051 271.551 L 350.071 255.324 C 347.023 251.996 346.536 247.907 343.211 245.966 L 340.99 249.294 C 339.88 253.176 332.892 255.934 331.518 259.812 L 327.678 261.493 C 326.291 265.376 327.678 269.259 330.171 272.309 C 331.557 273.973 335.44 273.419 335.166 276.469 C 331.838 277.856 328.784 275.915 326.011 274.251 C 322.96 271.2 326.011 267.317 323.518 263.989 C 323.798 260.939 324.247 259.537 324.312 258.048 L 324.532 255.343 C 324.845 253.781 323.282 251.124 321.407 248.155 C 319.532 245.186 318.751 238.936 320.192 237.92 L 320.192 237.92 L 320.192 237.92 C 323.243 237.365 324.078 233.205 326.016 230.987 "
         style="fill:#ffc5b8;fill-rule:evenodd;stroke-width:1.05;stroke-opacity:0.923077;"
         id="path470" />
      <path
         d="M 331.56 226.552 L 336 225.998 C 340.364 226.112 342.106 227.041 345.538 229.67 C 349.053 228.956 352.635 224.054 355.688 221.003 C 358.739 217.952 359.896 216.394 361.84 213.344 C 363.689 212.406 365.538 213.344 367.387 213.344 L 369.73 212.179 C 375.416 211.763 381.612 213.068 387.149 215.932 C 392.686 218.797 403.501 228.065 409.219 246.868 C 420.12 257.31 413.053 265.878 410.048 273.976 C 410.324 276.195 412.057 277.165 413.895 278.032 C 415.732 278.899 417.674 279.661 418.368 281.464 C 421.419 281.464 437.703 294.686 443.966 302.628 C 450.11 307.889 461.354 322.229 461.906 325.834 C 464.96 331.936 471.336 336.65 472.448 343.861 C 474.944 348.298 477.44 352.736 479.933 357.173 C 484.65 358.005 480.768 363.274 484.373 365.216 C 485.205 371.317 488.253 376.863 491.306 382.133 C 486.866 385.738 496.298 387.402 491.861 391.285 C 491.861 398.218 494.634 404.042 494.357 411.253 C 493.522 410.698 492.97 411.53 492.413 412.085 C 490.197 415.413 492.97 422.069 494.909 425.674 C 495.186 432.053 499.623 437.876 497.405 443.978 C 491.303 446.751 493.245 438.154 489.362 436.212 C 481.32 429.557 480.765 419.85 476.33 411.53 C 473.277 406.538 469.397 401.269 468.84 394.613 C 466.901 393.226 462.464 390.175 464.96 386.57 C 459.693 384.074 462.741 376.309 458.307 372.703 C 456.64 366.602 451.925 361.056 450.816 354.122 C 444.992 353.29 448.877 346.357 443.331 344.693 C 441.944 341.088 440.28 337.205 437.507 334.709 C 439.171 328.608 430.016 333.045 432.512 327.221 C 429.739 325.002 427.8 323.061 426.413 319.733 C 416.222 314.084 417.529 311.352 412.715 308.006 L 408.49 305.069 C 407.517 303.96 407 302.538 406.443 302.261 C 402.56 305.589 401.81 301.055 400.619 299.765 L 399.059 298.046 C 395.625 293.852 392.473 289.95 387.596 288.683 C 360.661 294.468 367.829 282.944 359.051 271.551 L 350.071 255.324 C 347.023 251.996 346.536 247.907 343.211 245.966 L 340.99 249.294 C 339.88 253.176 332.892 255.934 331.518 259.812 L 327.678 261.493 C 326.291 265.376 327.678 269.259 330.171 272.309 C 331.557 273.973 335.44 273.419 335.166 276.469 C 331.838 277.856 328.784 275.915 326.011 274.251 C 322.96 271.2 326.011 267.317 323.518 263.989 C 323.798 260.939 324.247 259.537 324.312 258.048 L 324.532 255.343 C 324.845 253.781 323.282 251.124 321.407 248.155 C 319.532 245.186 318.751 238.936 320.192 237.92 L 320.192 237.92 L 320.192 237.92 C 323.243 237.365 324.078 233.205 326.016 230.987 M 470.506 359.669 C 470.506 360.501 469.674 360.778 469.4 361.333 L 469.4 359.669 L 470.506 359.669 z M 468.01 348.298 L 465.514 351.626 C 466.901 353.013 468.84 351.626 470.506 351.349 C 470.506 352.458 469.674 356.618 473 355.786 C 475.221 356.896 472.722 358.282 473 359.669 L 475.773 364.661 C 474.386 366.602 471.336 367.157 468.84 367.711 C 469.12 366.88 468.562 366.048 469.397 365.77 L 468.288 364.661 C 466.346 366.048 465.514 366.88 463.293 367.711 C 463.293 364.938 466.624 363.274 468.01 361.61 C 464.402 359.392 463.016 367.711 461.354 362.72 L 463.85 359.669 C 461.629 358.282 459.133 357.173 459.41 353.845 L 460.517 352.736 C 461.074 353.29 461.626 354.122 462.461 354.122 C 463.29 353.568 463.848 352.458 463.013 351.626 L 461.349 350.794 C 462.181 348.298 466.061 344.416 468.005 348.298 L 468.01 348.298 z M 457.472 335.266 C 457.194 336.376 455.808 336.93 454.421 336.653 C 454.421 335.266 456.36 335.544 457.472 335.266 z M 458.026 332.77 L 456.36 332.77 L 456.36 331.384 C 456.917 331.661 458.581 331.384 458.026 332.77 z M 453.034 324.725 C 456.085 323.061 456.64 328.885 459.413 329.162 C 458.581 330.826 459.133 333.877 458.858 335.264 C 459.968 335.541 461.354 334.986 460.8 333.877 L 460.8 332.768 C 461.906 334.986 466.066 338.592 461.906 339.701 C 463.85 340.256 464.128 340.533 465.514 342.197 C 462.741 343.861 459.968 348.021 455.808 346.634 C 456.085 344.416 452.48 345.802 453.312 343.306 C 453.866 343.306 454.147 343.029 454.421 342.752 C 453.586 342.474 453.034 341.365 451.925 341.642 C 451.648 342.474 450.538 343.029 450.816 344.138 C 449.987 344.416 450.538 343.029 450.538 342.197 C 451.925 340.81 453.589 339.424 454.421 337.76 C 452.757 336.096 451.648 338.869 449.984 338.869 L 450.813 334.709 C 448.597 333.6 443.05 335.541 444.437 331.381 C 445.544 330.826 446.653 330.272 447.488 329.162 C 444.437 326.666 453.586 319.456 453.034 324.725 z M 458.304 340.256 L 459.133 340.256 L 459.133 339.424 L 458.304 339.424 L 458.304 340.256 z M 413.373 292.28 C 412.544 297.549 418.92 294.499 419.477 298.936 C 416.704 295.608 410.877 304.483 415.037 297.272 C 415.592 293.389 408.104 296.995 410.045 292.28 L 413.37 292.28 L 413.373 292.28 z M 410.6 286.456 C 412.821 286.456 413.096 287.843 415.04 288.952 L 416.981 285.901 L 417.533 290.893 C 418.92 290.893 419.755 289.229 421.416 289.784 C 421.416 290.616 421.138 293.667 423.357 293.389 L 424.464 293.389 C 422.8 293.667 422.525 296.717 420.584 296.44 C 420.029 295.053 421.138 293.112 419.477 292.28 C 418.368 292.835 416.981 293.944 415.869 292.835 C 415.037 288.952 410.877 290.893 408.936 288.397 L 408.104 293.389 C 406.163 292.557 406.437 290.061 406.437 288.397 C 407.546 287.011 408.933 285.069 406.995 283.96 C 405.608 285.624 403.664 282.296 402.554 284.792 L 405.048 287.288 L 401.445 289.229 C 400.888 288.12 400.61 286.179 398.949 285.901 C 400.058 285.347 399.226 284.515 399.501 283.96 C 398.949 283.405 398.394 282.573 397.562 282.851 C 399.226 281.464 402.832 281.464 402.554 278.413 C 401.448 283.405 412.816 280.632 410.594 286.456 L 410.6 286.456 z M 386.475 274.253 L 387.584 274.253 L 386.475 274.253 z M 489.365 427.615 C 488.813 426.783 487.978 426.506 487.978 425.674 C 485.482 422.901 486.592 417.354 484.928 413.749 C 485.48 412.362 486.314 413.194 487.424 413.749 C 489.639 418.186 487.143 422.901 489.362 427.615 L 489.365 427.615 z M 488.81 404.599 C 489.639 408.482 484.65 406.263 484.928 409.591 L 483.818 409.591 C 483.818 407.927 485.482 407.373 483.818 406.263 C 482.986 405.986 481.88 406.541 481.322 405.709 C 482.709 405.709 484.376 405.154 485.762 407.095 C 487.429 406.541 486.594 401.271 488.816 404.599 L 488.81 404.599 z M 487.978 399.605 C 486.592 401.546 483.266 400.437 480.768 400.714 C 480.768 399.882 481.32 399.05 480.49 398.773 C 481.877 400.437 484.093 397.663 485.757 396.554 C 486.589 392.949 482.152 395.167 481.317 393.226 C 483.813 391.562 484.925 393.226 487.421 393.781 C 488.25 395.999 484.367 397.941 487.973 399.605 L 487.978 399.605 z M 482.432 377.695 C 481.88 377.418 481.6 377.973 481.322 378.25 C 480.216 382.687 487.426 381.301 484.93 386.57 C 482.709 386.57 480.493 388.234 478.274 386.293 L 479.938 383.242 C 478.274 379.914 475.227 381.023 473.005 382.133 C 473.285 380.746 475.501 381.301 475.501 379.082 L 473.005 377.695 C 474.949 373.813 479.938 379.359 481.325 374.645 L 482.434 374.645 L 482.434 377.695 L 482.432 377.695 z M 479.381 368.824 C 478.546 369.933 478.826 371.874 478.272 373.816 C 476.885 374.925 474.946 373.816 473.834 372.706 C 474.666 370.21 477.44 370.488 478.272 367.714 C 478.549 368.546 479.658 367.714 479.381 368.824 z M 437.504 320.29 L 435.837 318.349 L 437.504 318.349 L 437.504 320.29 z M 450.538 319.178 C 450.261 324.448 443.605 322.784 440.832 326.389 C 440 325.557 439.445 324.448 439.445 323.338 C 440.554 323.061 442.218 323.893 443.053 322.229 C 443.331 320.01 440.28 320.01 438.893 320.842 L 438.059 321.674 L 438.336 322.229 C 437.784 321.952 435.563 323.338 435.011 321.397 C 433.901 320.565 434.733 319.178 434.456 318.346 C 437.229 316.405 447.216 315.296 450.541 319.178 L 450.538 319.178 z M 443.05 309.197 C 440.829 309.752 437.224 310.584 435.56 308.92 C 436.117 304.205 440 307.533 442.493 307.256 C 443.328 307.533 442.773 308.643 443.05 309.197 L 443.05 309.197 z M 432.512 300.877 C 433.067 303.373 430.573 304.76 429.461 306.701 L 421.363 304.084 C 421.086 301.033 423.083 297.827 425.856 296.717 C 428.909 297.272 430.296 299.491 432.512 300.877 z M 437.504 300.877 L 436.946 302.264 L 437.504 300.877 z M 438.333 293.944 C 438.613 294.776 438.056 295.331 437.504 295.885 L 435.008 293.389 L 438.333 293.944 z M 334.059 244.856 L 334.059 245.966 C 333.227 245.966 331.563 245.688 332.12 244.302 C 332.672 244.579 333.784 244.024 334.059 244.856 z M 334.059 241.525 C 334.059 242.357 332.672 241.803 332.12 241.803 L 332.672 240.416 L 334.059 241.525 z M 373.44 270.371 L 373.995 270.371 L 373.995 271.48 L 373.44 271.48 L 373.44 270.371 z M 369.558 270.923 L 369 270.923 L 369 269.259 C 369.558 269.536 369.558 270.368 369.558 270.923 z M 383.147 268.984 C 383.147 269.539 382.315 269.816 382.04 270.371 L 380.931 270.371 C 380.654 269.539 382.04 267.32 383.15 268.984 L 383.147 268.984 z M 367.613 266.763 L 365.675 266.763 C 365.398 265.376 367.062 265.931 367.613 266.763 z M 390.08 265.933 L 390.08 266.488 L 388.413 266.488 L 388.413 263.66 C 388.971 263.66 389.8 265.101 390.08 265.933 L 390.08 265.933 z M 370.944 266.763 C 369.835 267.595 369.558 265.931 369 265.376 L 370.109 263.989 C 371.219 264.544 370.944 265.653 370.944 266.763 z M 401.451 256.779 L 400.893 257.333 L 400.893 255.947 C 401.173 256.224 401.728 256.501 401.451 256.779 z M 396.009 255.465 L 396.478 259.231 L 393.963 254.285 C 394.52 254.285 395.89 253.156 396.009 255.465 z M 400.619 254.84 L 398.4 254.285 C 398.955 253.731 399.507 253.176 400.619 253.453 L 400.619 254.84 z M 392.021 251.509 L 392.021 252.341 L 388.413 252.341 L 388.971 250.955 C 390.357 251.509 390.635 251.509 392.021 251.509 z M 393.408 252.344 L 393.96 250.403 L 395.627 250.403 L 393.408 252.344 z M 374.547 249.294 C 373.44 248.462 374.547 247.075 375.656 246.798 L 376.491 249.016 L 374.547 249.294 z M 388.971 247.349 L 388.136 245.963 L 389.523 245.963 L 388.971 247.349 z M 360.68 239.864 C 359.293 238.2 356.243 236.536 357.078 233.486 C 357.907 235.15 359.293 237.646 360.68 239.864 z M 385.64 226.83 L 385.64 227.939 L 384.533 225.443 C 385.365 225.166 385.64 226.275 385.64 226.83 z M 383.424 223.499 L 382.589 222.39 L 383.424 222.39 L 383.424 223.499 z M 368.171 221.56 C 368.448 222.392 367.613 222.947 367.062 223.502 C 365.675 221.838 365.12 224.611 363.453 224.056 C 362.624 221.838 365.12 221.838 365.949 221.006 C 366.784 221.006 367.613 220.451 368.171 221.56 L 368.171 221.56 z M 377.045 218.51 C 377.6 220.451 374.549 220.728 373.163 221.006 L 372.611 221.56 C 375.107 223.224 378.158 220.451 380.931 219.896 C 381.763 223.224 370.389 223.779 378.158 226.552 C 378.709 225.998 378.435 225.443 378.435 224.888 C 378.99 228.494 383.43 227.939 383.15 231.544 C 380.096 232.654 382.318 229.048 380.656 228.494 C 378.99 228.494 377.883 231.544 375.939 230.435 C 373.723 229.88 375.939 219.619 370.672 225.998 C 371.227 226.552 373.446 228.494 373.166 230.435 C 373.446 230.435 370.115 228.216 370.672 231.544 C 372.059 232.099 370.952 232.931 370.672 234.04 C 369.286 231.267 366.793 227.662 367.067 224.334 C 369.286 226.275 370.118 223.224 370.672 221.838 C 369.566 221.283 370.118 219.896 370.118 219.064 C 372.339 221.838 374.278 217.955 377.051 218.51 L 377.045 218.51 z M 368.448 274.253 L 369 274.253 L 368.448 274.253 z M 353.472 240.974 L 354.582 241.806 L 353.472 240.974 z "
         style="fill-rule:evenodd;stroke-width:0.0450723;"
         id="path631" />
    </g>
    <g
       id="g423">
      <path
         d="M 290.753 206.316 C 287.692 200.074 278.884 188.918 276.657 184.016 C 275.55 181.52 274.373 180.759 273.372 178.97 C 270.598 171.759 263.611 166.646 260.828 159.512 C 258.321 155.289 247.529 142.38 245.865 138.081 C 240.038 143.073 240.598 151.67 235.878 157.494 C 227.838 180.235 213.971 200.48 205.371 222.944 C 192.614 244.576 189.566 270.645 168.489 287.84 C 141.862 312.522 112.465 331.104 83.068 349.685 L 79.4627 349.685 L 79.4627 348.298 C 94.1613 338.037 109.689 327.498 123.836 316.405 L 139.921 307.808 C 151.014 295.883 164.329 286.453 175.974 274.251 C 198.161 226.272 218.409 176.907 245.307 131.147 C 253.075 132.811 258.056 147.518 263.329 153.061 C 271.657 167.478 284.887 182.942 295.686 200.872 C 300.06 211.44 323.724 240.698 328.332 251.62 C 332.942 255.609 339.328 268.707 343.488 271.757 C 343.904 268.845 345.083 266.21 346.469 263.645 C 347.856 261.08 351.326 251.553 357.567 255.691 C 366.467 260.771 361.308 267.536 359.307 270.661 C 357.305 273.787 355.18 276.399 353.124 277.96 C 351.044 279.52 348.617 280.629 345.984 280.907 C 341.684 279.52 338.911 276.261 336.484 272.552 C 334.057 268.842 329.321 261.245 326.453 258.13 C 315.686 243.228 301.012 221.569 290.753 206.316 z "
         style="fill:#ffffff;fill-rule:evenodd;stroke-width:0.675;"
         id="path391" />
      <path
         d="M 194.281 239.029 L 199.828 227.936 L 195.39 239.029 L 194.281 239.029 z M 188.734 251.789 C 189.569 248.184 190.956 244.856 193.452 241.806 L 188.734 251.789 z M 327.68 254.283 C 324.627 254.283 325.462 251.232 324.627 249.291 C 326.294 251.509 325.462 252.896 327.68 254.283 z M 313.534 234.318 L 309.654 228.494 L 312.147 230.99 L 313.534 234.318 z M 290.753 206.316 C 287.692 200.074 278.884 188.918 276.657 184.016 C 275.55 181.52 274.373 180.759 273.372 178.97 C 270.598 171.759 263.611 166.646 260.828 159.512 C 258.321 155.289 247.529 142.38 245.865 138.081 C 240.038 143.073 240.598 151.67 235.878 157.494 C 227.838 180.235 213.971 200.48 205.371 222.944 C 192.614 244.576 189.566 270.645 168.489 287.84 C 141.862 312.522 112.465 331.104 83.068 349.685 L 79.4627 349.685 L 79.4627 348.298 C 94.1613 338.037 109.689 327.498 123.836 316.405 L 139.921 307.808 C 151.014 295.883 164.329 286.453 175.974 274.251 C 198.161 226.272 218.409 176.907 245.307 131.147 C 253.075 132.811 258.056 147.518 263.329 153.061 C 271.657 167.478 284.887 182.942 295.686 200.872 C 300.06 211.44 323.724 240.698 328.332 251.62 C 332.942 255.609 339.328 268.707 343.488 271.757 C 343.904 268.845 345.083 266.21 346.469 263.645 C 347.856 261.08 351.326 251.553 357.567 255.691 C 366.467 260.771 361.308 267.536 359.307 270.661 C 357.305 273.787 355.18 276.399 353.124 277.96 C 351.044 279.52 348.617 280.629 345.984 280.907 C 341.684 279.52 338.911 276.261 336.484 272.552 C 334.057 268.842 329.321 261.245 326.453 258.13 C 315.686 243.228 301.012 221.569 290.753 206.316 z M 276.094 176.91 L 276.094 178.019 L 273.601 174.969 C 274.987 174.691 275.819 176.078 276.094 176.91 L 276.094 176.91 z M 300.225 214.07 C 296.894 211.574 293.291 204.086 289.683 199.094 C 294.12 202.976 296.894 208.8 300.225 214.07 z M 257.793 150.563 C 253.633 145.849 250.027 140.302 247.254 134.478 C 251.414 139.193 255.574 145.849 257.793 150.563 z "
         style="fill-rule:evenodd;stroke-width:0.0450723;"
         id="path422" />
    </g>
    <g
       id="g302">
      <path
         d="M 373.116 296.961 C 372.94 299.915 373.717 301.429 373.995 303.37 C 375.103 309.471 379.54 310.858 384.741 311.205 C 389.941 311.552 414.427 314.006 419.042 314.689 C 429.932 316.302 477.854 319.664 488.428 320.634 C 499.001 321.605 509.61 322.784 520.703 324.17 C 525.97 325.834 533.818 325.772 539.481 326.279 L 556.196 327.776 L 556.199 327.776 C 548.437 366.048 535.957 403.487 526.802 441.482 C 523.197 442.036 527.637 445.919 524.863 447.583 C 520.981 460.618 515.379 476.967 510.912 489.738 L 507.389 503.882 C 507.666 507.764 499.904 512.201 506.279 514.42 C 511.271 530.505 521.81 544.372 528.189 559.903 C 528.189 562.953 533.461 562.676 531.797 566.281 C 537.343 570.719 538.73 576.265 543.719 581.812 C 547.605 587.358 546.493 595.956 553.706 598.729 C 555.925 611.486 568.405 618.42 573.674 629.79 C 576.999 634.228 576.447 642.825 583.103 643.102 C 584.21 640.884 582.268 638.388 580.33 636.724 C 575.338 625.076 568.405 613.982 561.194 603.721 C 543.999 573.492 525.418 542.708 509.887 511.924 C 510.165 507.487 514.043 499.57 515.85 496.344 C 514.329 490.344 520.981 485.3 520.703 478.922 C 536.509 429.279 551.762 379.082 563.69 327.776 C 565.903 323.616 560.917 321.952 557.863 321.397 C 552.874 320.01 545.367 321.054 540.505 320.118 C 526.522 317.424 510.992 316.852 496.115 315.59 C 481.238 314.328 434.667 309.405 420.592 307.814 C 408.713 306.288 396.902 304.829 385.091 303.37 C 385.229 301.151 387.054 292.759 387.539 290.332 C 387.782 289.119 386.848 281.257 383.239 280.089 C 379.23 279.013 373.909 283.37 373.116 296.961 z "
         style="fill:#ffffff;fill-rule:evenodd;stroke-width:0.375;"
         id="path297" />
      <path
         d="M 378.155 297.827 L 377.045 297.827 L 377.045 296.44 C 377.323 296.717 378.155 296.995 378.155 297.827 z M 423.915 311.416 C 410.6 311.693 396.733 308.92 383.147 307.811 L 383.147 306.701 C 396.459 306.979 410.325 310.029 423.915 311.416 z M 444.992 313.357 C 441.667 313.357 436.12 313.912 433.067 312.248 C 437.227 311.971 440.832 313.08 444.992 313.357 z M 373.116 296.961 C 372.94 299.915 373.717 301.429 373.995 303.37 C 375.103 309.471 379.54 310.858 384.741 311.205 C 389.941 311.552 414.427 314.006 419.042 314.689 C 429.932 316.302 477.854 319.664 488.428 320.634 C 499.001 321.605 509.61 322.784 520.703 324.17 C 525.97 325.834 533.818 325.772 539.481 326.279 L 556.196 327.776 L 556.199 327.776 C 548.437 366.048 535.957 403.487 526.802 441.482 C 523.197 442.036 527.637 445.919 524.863 447.583 C 520.981 460.618 515.379 476.967 510.912 489.738 L 507.389 503.882 C 507.666 507.764 499.904 512.201 506.279 514.42 C 511.271 530.505 521.81 544.372 528.189 559.903 C 528.189 562.953 533.461 562.676 531.797 566.281 C 537.343 570.719 538.73 576.265 543.719 581.812 C 547.605 587.358 546.493 595.956 553.706 598.729 C 555.925 611.486 568.405 618.42 573.674 629.79 C 576.999 634.228 576.447 642.825 583.103 643.102 C 584.21 640.884 582.268 638.388 580.33 636.724 C 575.338 625.076 568.405 613.982 561.194 603.721 C 543.999 573.492 525.418 542.708 509.887 511.924 C 510.165 507.487 514.043 499.57 515.85 496.344 C 514.329 490.344 520.981 485.3 520.703 478.922 C 536.509 429.279 551.762 379.082 563.69 327.776 C 565.903 323.616 560.917 321.952 557.863 321.397 C 552.874 320.01 545.367 321.054 540.505 320.118 C 526.522 317.424 510.992 316.852 496.115 315.59 C 481.238 314.328 434.667 309.405 420.592 307.814 C 408.713 306.288 396.902 304.829 385.091 303.37 C 385.229 301.151 387.054 292.759 387.539 290.332 C 387.782 289.119 386.848 281.257 383.239 280.089 C 379.23 279.013 373.909 283.37 373.116 296.961 z M 512.383 496.119 C 514.322 483.639 521.255 473.378 523.197 461.175 C 521.53 472.268 516.818 484.748 512.383 496.119 z "
         style="fill-rule:evenodd;stroke-width:0.0450723;"
         id="path301" />
    </g>
    <g
       id="g709">
      <path
         d="M 395.244 245.332 C 392.399 245.362 387.662 236.054 388.445 233.987 C 389.841 229.81 395.029 228.622 398.022 228.17 C 404.73 227.187 435.089 210.759 459.004 195.707 C 491.952 174.656 537.818 145.858 560.013 139.401 C 583.827 132.406 606.846 131.157 610.108 131.447 C 625.126 133.584 638.693 141.098 643.587 152.779 C 641.284 174.651 625.185 188.901 613.102 204.725 C 609.383 209.716 593.856 228.878 573.391 241.694 C 557.273 251.655 547.624 259.348 505.982 268.334 C 477.247 274.58 442.311 268.544 395.244 245.332 z "
         style="fill:#ffc5b8;fill-rule:evenodd;stroke-width:0.385217;"
         id="path849" />
      <path
         d="M 426.411 236.814 L 426.411 237.923 C 421.141 239.587 415.037 240.974 409.491 240.419 C 414.483 237.646 421.138 237.368 426.411 236.814 z M 477.488 239.948 C 452.816 242.329 431.68 242.357 419.477 242.912 C 431.957 238.197 458.12 241.161 479.812 234.765 L 477.488 239.948 z M 470.316 275.73 C 468.1 275.175 473.369 273.789 470.316 275.73 z M 474.208 295.017 C 472.428 292.789 475.989 297.244 474.208 295.017 z M 566.186 156.939 C 527.359 177.184 488.253 196.598 448.874 215.456 L 446.378 215.456 C 485.482 194.102 525.418 174.134 566.186 156.939 L 566.186 156.939 z M 395.812 247.536 C 392.732 247.564 387.604 239.066 388.452 237.179 C 389.963 233.366 395.579 232.281 398.819 231.868 C 406.08 230.971 438.943 215.973 464.831 202.231 C 500.497 183.013 550.146 156.722 574.171 150.827 C 599.95 144.441 624.867 143.3 628.398 143.565 C 644.655 145.516 659.341 152.376 664.639 163.04 C 662.146 183.008 644.719 196.018 631.639 210.464 C 627.614 215.021 610.806 232.515 588.653 244.215 C 571.205 253.309 560.76 260.332 515.684 268.536 C 484.579 274.238 446.761 268.728 395.812 247.536 z M 560.639 254.837 C 532.074 262.325 489.574 276.348 431.687 257.551 C 435.07 255.142 438.146 253.179 436.365 250.952 C 434.585 248.724 430.389 247.055 427.044 245.231 C 466.778 245.2 481.835 240.363 510.174 241.639 C 532.169 242.647 549.861 246.391 563.135 252.896 L 560.639 254.837 z M 603.626 231.544 C 592.813 239.587 580.607 244.856 568.679 250.957 C 563.132 250.126 558.695 246.52 553.149 245.411 C 533.458 239.587 508.397 236.886 481.709 239.53 C 482.818 237.311 483.685 236.057 484.211 234.479 C 511.148 233.896 557.308 224.888 588.65 224.334 L 603.623 229.88 L 603.623 231.544 L 603.626 231.544 z M 587.844 221.579 C 583.463 221.575 576.185 221.904 571.73 221.838 C 546.49 225.443 520.838 228.421 494.492 231.194 C 488.291 231.094 480.62 230.99 474.522 232.931 C 461.485 235.704 443.36 236.756 430.322 237.866 L 430.01 235.982 C 461.904 228.216 490.022 222.961 522.744 216.583 C 541.669 213.395 554.048 210.734 570.167 210.175 C 578.764 212.394 583.307 214.584 593.43 214.904 C 592.807 218.059 589.732 220.005 587.844 221.579 z M 584.212 191.606 C 583.932 196.598 583.38 202.699 577.279 204.363 C 568.405 208.523 557.311 207.136 547.879 209.355 C 500.455 216.566 456.082 226.827 410.048 236.811 C 420.306 230.987 434.731 227.104 446.378 220.448 C 469.674 218.784 486.04 200.203 510.719 201.867 C 534.293 197.707 556.759 189.942 581.159 189.387 L 584.212 191.606 L 584.212 191.606 z M 442.493 217.952 C 432.786 224.886 420.587 228.214 409.493 233.483 C 418.645 228.491 431.4 221.558 442.493 217.952 z M 651.604 153.614 C 651.052 155.555 647.999 155.833 646.058 156.665 C 630.804 154.723 616.938 159.161 602.239 160.547 L 600.298 157.497 L 602.794 155.555 C 615.551 153.059 629.972 154.446 642.172 150.563 C 645.503 150.841 648.828 151.673 651.601 153.614 L 651.604 153.614 z M 661.033 163.043 C 661.311 165.262 659.092 166.926 657.151 165.539 C 654.655 163.321 650.772 164.153 648.553 161.102 C 647.999 156.665 652.713 157.497 655.209 156.11 C 658.26 157.497 659.921 159.993 661.033 163.043 L 661.033 163.043 z M 644.116 159.161 L 642.172 161.102 C 627.199 165.262 613.052 171.918 597.247 174.137 C 598.634 157.219 618.879 162.766 630.527 159.438 C 635.519 160.547 639.399 157.219 644.116 159.161 L 644.116 159.161 z M 660.199 169.419 C 661.585 172.192 657.705 171.638 656.039 172.47 C 629.972 167.755 611.388 186.891 587.263 189.942 C 586.428 188.555 585.042 188.832 584.21 187.446 C 586.428 182.454 591.698 181.067 595.583 178.016 C 612.775 175.243 628.305 168.032 644.668 163.04 C 649.937 164.704 655.209 166.923 660.199 169.419 L 660.199 169.419 z M 656.596 175.523 C 656.039 185.23 644.668 179.406 639.121 182.456 C 621.095 186.894 606.119 198.819 586.706 199.928 L 587.263 194.104 C 610.836 189.112 630.527 171.641 656.596 175.523 z M 650.492 184.398 C 649.663 187.726 646.055 190.776 643.007 192.44 C 633.852 195.491 623.316 195.768 613.052 196.6 C 623.868 189.667 636.906 185.23 650.492 184.398 L 650.492 184.398 z M 638.57 197.43 C 632.465 211.019 616.66 204.918 604.732 206.582 L 599.186 201.59 C 602.516 197.152 609.727 199.371 614.719 199.371 C 623.039 197.984 629.972 198.262 638.572 197.43 L 638.57 197.43 z M 600.298 206.03 C 601.684 209.358 596.973 210.19 595.306 212.408 C 588.372 212.686 582.546 210.19 576.173 209.08 C 580.61 204.088 588.095 202.424 595.306 201.87 L 600.298 206.03 L 600.298 206.03 z M 627.199 209.08 C 626.919 212.131 623.594 212.963 621.652 214.904 C 614.439 216.014 607.231 214.35 600.298 213.518 L 604.18 209.08 L 627.199 209.08 L 627.199 209.08 z M 618.047 218.51 C 616.106 222.67 611.666 224.888 608.063 227.384 C 603.068 225.72 595.237 225.955 593.016 221.24 L 597.247 216.014 L 618.047 218.51 z M 599.186 161.657 C 592.81 167.758 596.135 179.961 584.767 181.625 C 575.612 189.667 561.746 186.339 550.653 189.944 C 533.735 193.55 517.653 199.096 499.904 200.483 C 521.255 187.171 547.327 177.742 571.175 166.649 C 580.05 164.153 587.538 159.161 596.69 157.497 L 599.183 161.657 L 599.186 161.657 z M 638.012 148.619 C 621.095 151.393 602.516 150.561 587.263 156.939 C 546.77 174.688 505.728 191.051 466.901 212.406 C 463.573 212.406 461.077 214.347 458.026 214.347 C 498.24 193.824 539.559 175.52 579.22 153.611 C 597.247 148.065 618.324 142.795 638.012 148.619 L 638.012 148.619 z M 395.072 244.856 C 393.408 243.192 391.747 240.142 391.467 236.814 C 396.459 237.091 393.408 242.915 395.072 244.856 z M 433.899 251.789 C 432.512 255.672 427.8 256.504 423.915 255.395 L 401.451 247.352 L 400.893 245.966 C 412.544 246.52 424.466 246.243 433.896 251.789 L 433.899 251.789 z "
         transform="matrix(0.923803,0,0,1.09535,29.5918,-25.807)"
         style="fill-rule:evenodd;stroke-width:0.385217;"
         id="path892" />
    </g>
    <g
       id="g263">
      <path
         d="M 368.579 289.557 C 365.044 290.662 370.347 285.8 370.347 282.928 C 370.347 280.055 369.021 272.321 365.707 273.868 C 362.392 275.415 364.381 274.089 361.952 276.151 C 362.062 282.104 353.28 291.844 355.691 299.765 C 358.635 303.765 359.16 302.355 363.567 301.505 C 377.231 296.601 409.194 274.715 418.121 269.244 C 427.048 263.773 473.122 235.265 476.002 234.977 C 478.881 234.689 477.729 235.553 478.305 237.856 C 478.881 240.16 473.122 249.375 465.923 258.59 C 458.724 267.804 428.488 307.543 418.985 318.198 C 409.482 328.852 388.749 355.345 385.581 359.664 C 382.414 363.984 380.11 366.288 379.534 367.151 C 378.958 368.015 378.094 369.167 378.041 371.217 L 381.48 414.581 C 386.475 431.221 386.197 448.415 387.584 466.442 C 390.909 477.535 388.971 490.847 390.909 502.495 L 393.131 505.545 C 393.96 505.268 395.347 505.823 395.904 504.991 C 393.683 481.14 392.851 457.012 388.971 433.162 C 392.019 428.725 385.637 424.287 390.077 420.127 C 386.197 403.765 385.088 388.234 383.424 371.317 C 384.032 370.043 385.972 367.772 387.387 368.338 C 389.653 366.448 390.209 366.555 393.644 361.68 C 397.964 355.921 440.582 302.36 456.42 282.203 C 472.258 262.045 488.672 243.04 490.976 235.265 C 493.279 227.49 485.504 224.322 480.609 225.474 C 475.714 226.626 435.975 252.254 368.016 289.69 "
         style="fill:#ffffff;fill-rule:evenodd;stroke-width:0.375;"
         id="path245" />
      <path
         d="M 470.784 259.277 C 467.453 263.992 464.128 270.371 459.41 273.976 C 462.464 268.707 467.176 263.715 470.784 259.277 z M 458.026 275.917 C 454.973 280.077 451.925 284.792 448.04 288.397 C 448.874 284.237 454.421 279.523 458.026 275.917 z M 446.933 289.784 C 444.992 293.112 442.493 296.163 439.445 298.936 C 440.554 296.44 443.328 290.893 446.933 289.784 z M 426.965 315.296 C 427.243 312.8 430.573 309.472 433.067 307.253 C 430.573 309.749 429.739 312.522 426.965 315.296 z M 410.6 335.818 C 405.888 341.365 402.28 348.298 395.904 352.181 C 400.893 346.634 405.331 340.256 410.6 335.818 z M 385.64 366.325 L 384.533 366.325 C 386.752 361.61 390.635 358.56 393.408 354.677 C 391.744 358.837 388.693 362.442 385.64 366.325 z M 385.088 419.018 L 383.979 406.261 L 385.92 419.018 L 385.088 419.018 L 385.088 419.018 z M 374.547 291.723 C 372.053 294.496 367.613 296.715 364.011 298.378 C 366.784 295.328 370.664 293.387 374.547 291.723 z M 379.541 289.229 L 383.979 285.901 L 385.088 285.901 L 379.541 289.229 z M 391.467 281.739 L 398.955 276.469 L 395.627 279.797 L 391.467 281.739 z M 410.88 269.816 C 408.939 271.48 406.72 272.589 404.501 273.421 C 406.44 271.757 408.661 270.371 410.88 269.816 z M 368.579 289.557 C 365.044 290.662 370.347 285.8 370.347 282.928 C 370.347 280.055 369.021 272.321 365.707 273.868 C 362.392 275.415 364.381 274.089 361.952 276.151 C 362.062 282.104 353.28 291.844 355.691 299.765 C 358.635 303.765 359.16 302.355 363.567 301.505 C 377.231 296.601 409.194 274.715 418.121 269.244 C 427.048 263.773 473.122 235.265 476.002 234.977 C 478.881 234.689 477.729 235.553 478.305 237.856 C 478.881 240.16 473.122 249.375 465.923 258.59 C 458.724 267.804 428.488 307.543 418.985 318.198 C 409.482 328.852 388.749 355.345 385.581 359.664 C 382.414 363.984 380.11 366.288 379.534 367.151 C 378.958 368.015 378.094 369.167 378.041 371.217 L 381.48 414.581 C 386.475 431.221 386.197 448.415 387.584 466.442 C 390.909 477.535 388.971 490.847 390.909 502.495 L 393.131 505.545 C 393.96 505.268 395.347 505.823 395.904 504.991 C 393.683 481.14 392.851 457.012 388.971 433.162 C 392.019 428.725 385.637 424.287 390.077 420.127 C 386.197 403.765 385.088 388.234 383.424 371.317 C 384.032 370.043 385.972 367.772 387.387 368.338 C 389.653 366.448 390.209 366.555 393.644 361.68 C 397.964 355.921 440.582 302.36 456.42 282.203 C 472.258 262.045 488.672 243.04 490.976 235.265 C 493.279 227.49 485.504 224.322 480.609 225.474 C 475.714 226.626 435.975 252.254 368.016 289.69 "
         style="fill-rule:evenodd;stroke-width:0.0450723;"
         id="path262" />
    </g>
  </g>
  <text
     x="250.000000"
     y="321.394989"
     style="font-size:64;font-weight:normal;fill:#363636;stroke-width:1pt;font-family:Arial;text-anchor:middle;"
     id="title">
    <tspan
       x="250.000000"
       y="321.394989"
       id="tspan282">
Sodipodi 0.31</tspan>
  </text>
  <text
     x="250.000000"
     y="348.519012"
     style="font-size:16;font-weight:normal;stroke-width:1pt;font-family:Arial;text-anchor:middle;"
     id="text145">
    <tspan
       x="250.000000"
       y="348.519012"
       id="tspan284">
An Estonian-Japanese co-production</tspan>
  </text>
  <text
     x="250.000000"
     y="363.872009"
     style="font-size:9;font-weight:normal;stroke-width:1pt;font-family:Arial;text-anchor:middle;"
     id="text154">
    <tspan
       x="250.000000"
       y="363.872009"
       id="tspan288">
Brought to you by Lauris Kaplinski, Mitsuru Oka, Masatake Yamato, Frank Felfe, Raph Levien, MenTaLguY</tspan>
  </text>
</svg>
