<?xml version="1.0" standalone="no"?>
<!DOCTYPE svg PUBLIC "-//W3C//DTD SVG 20010904//EN"
"http://www.w3.org/TR/2001/REC-SVG-20010904/DTD/svg10.dtd">
<svg
   style="fill:#000000;fill-opacity:0.5;stroke:none"
   width="480"
   height="320"
   id="svg9"
   sodipodi:docbase="/home/lauris/cvs/sodipodi/glade/"
   sodipodi:docname="/home/lauris/cvs/sodipodi/glade/about.svg"
   xmlns="http://www.w3.org/2000/svg"
   xmlns:sodipodi="http://sodipodi.sourceforge.net/DTD/sodipodi-0.dtd"
   xmlns:xlink="http://www.w3.org/1999/xlink">  <defs
     id="defs11">    <linearGradient
       id="linearGradient17">      <stop
         offset="0"
         style="stop-color:#000;stop-opacity:1;"
         id="stop18" />
      <stop
         offset="1"
         style="stop-color:#fff;stop-opacity:1;"
         id="stop19" />
    </linearGradient>
    <linearGradient
       id="linearGradient13">      <stop
         style="stop-color:#378fff;stop-opacity:1;"
         offset="0.000000"
         id="stop14" />
      <stop
         style="stop-color:#00ff77;stop-opacity:1;"
         offset="1.000000"
         id="stop15" />
    </linearGradient>
    <linearGradient
       xlink:href="#linearGradient13"
       id="linearGradient16"
       x1="0.286444"
       y1="0.054688"
       x2="0.364065"
       y2="0.945312" />
  </defs>
  <sodipodi:namedview
     id="base"
     gridoriginx="0.000000"
     gridoriginy="0.000000"
     gridspacingx="17.007874"
     gridspacingy="17.007874"
     gridtolerance="5.000000"
     gridcolor="#3f3fff"
     gridopacity="1.000000"
     guidetolerance="5.000000"
     guidecolor="#0000ff"
     guideopacity="0.498039"
     guidehicolor="#ff0000"
     guidehiopacity="0.498039" />
  <rect
     style="stroke:none;stroke-opacity:100%;stroke-width:1px;stroke-linejoin:miter;stroke-linecap:butt;fill:url(#linearGradient16);"
     id="rect12"
     x="43.424359"
     y="42.045808"
     width="1207.610751"
     height="845.741091"
     transform="matrix(0.491157 0 0 0.510285 -77.9654 -76.6766)"
     sodipodi:insensitive="1" />
  <text
     style="fill:#ffffff; stroke:#000000; font-family:Book Antiqua; font-style:italic; font-weight:bold; font-size:56.000000; fill-opacity:1; fill-rule:evenodd; stroke-opacity:100%; stroke-width:2pt; stroke-linejoin:miter; stroke-linecap:butt; "
     x="280.561156"
     y="253.666405"
     id="title"
     transform="matrix(1.28273 0 0 1.28273 -338.806 -177.957)">Sodipodi 0.24</text>
  <text
     style="fill:#ffffff; stroke:#000000; font-family:Book Antiqua; font-style:italic; font-weight:bold; font-size:14.000000; fill-opacity:1; fill-rule:evenodd; stroke-opacity:100%; stroke-width:0.5pt; stroke-linejoin:miter; stroke-linecap:butt; "
     x="280.561156"
     y="253.666405"
     id="text13"
     transform="matrix(1.71212 0 0 1.71212 -426.616 -230.576)">A drawing application with style...</text>
  <text
     style="fill:#000073; stroke:none; font-family:Helvetica; font-style:normal; font-weight:normal; font-size:12.000000; fill-opacity:1; fill-rule:evenodd; stroke-opacity:100%; stroke-width:1px; stroke-linejoin:miter; stroke-linecap:butt; "
     x="14.867257"
     y="308.672566"
     id="text43"
     transform="matrix(1 0 0 1 1.56462 -22.6883)">Copyright (C) 199-2001 Ximian, Inc. and authors</text>
  <text
     style="fill:#000073; stroke:none; font-family:Helvetica; font-style:normal; font-weight:normal; font-size:12.000000; fill-opacity:1; fill-rule:evenodd; stroke-opacity:100%; stroke-width:1px; stroke-linejoin:miter; stroke-linecap:butt; "
     x="14.867257"
     y="308.672566"
     id="text44"
     transform="matrix(1 0 0 1 1.93662 -39.6962)">Authors: Lauris Kaplinski, Raph Levien, Frank Felfe, Mitsuru Oka, Chema Celorio</text>
  <path
     transform="matrix(5.36518 0 0 5.36518 -588.328 -1325.3)"
     style="fill:#63bbff; stroke:none; font-family:Kochi Gothic; font-style:normal; font-weight:normal; font-size:12.000000; fill-opacity:1; fill-rule:evenodd; stroke-opacity:100%; stroke-width:1px; stroke-linejoin:miter; stroke-linecap:butt; "
     d="M 133.296 255.82 C 132.897 254.961 132.343 254.121 131.632 253.301 L 132.546 252.773 C 133.21 253.476 133.827 254.308 134.397 255.269 C 134.093 255.386 133.725 255.57 133.296 255.82 z M 138.347 252.328 C 138.37 252.195 138.456 252.148 138.604 252.187 L 140.069 252.656 C 140.218 252.711 140.225 252.789 140.093 252.89 L 139.706 253.054 C 139.518 253.711 139.147 254.558 138.593 255.597 C 138.038 256.636 137.417 257.566 136.729 258.386 C 136.042 259.207 135.046 260.129 133.741 261.152 C 133.475 260.801 133.151 260.539 132.768 260.367 L 132.768 260.273 C 133.862 259.586 134.788 258.828 135.546 258 C 136.304 257.164 136.921 256.246 137.397 255.246 C 137.882 254.238 138.175 253.523 138.276 253.101 C 138.386 252.679 138.409 252.422 138.347 252.328 z M 144.089 260.261 C 145.026 259.793 145.698 259.347 146.104 258.926 C 146.518 258.504 146.784 258.047 146.901 257.554 C 147.018 257.062 147.097 256.644 147.136 256.301 L 142.518 256.301 L 142.518 255.351 L 147.183 255.351 L 147.183 253.535 L 147.183 253.488 C 146.378 253.691 145.386 253.937 144.206 254.226 C 144.003 253.812 143.804 253.511 143.608 253.324 L 143.679 253.195 C 144.772 253 145.651 252.816 146.315 252.644 C 146.987 252.465 147.643 252.218 148.284 251.906 C 148.933 251.593 149.253 251.379 149.245 251.261 C 149.315 251.144 149.397 251.136 149.491 251.238 L 150.475 252.105 C 150.616 252.269 150.589 252.359 150.393 252.375 L 149.948 252.328 C 149.308 252.648 148.741 252.91 148.249 253.113 L 148.6 253.183 C 148.718 253.246 148.733 253.324 148.647 253.418 L 148.366 253.582 L 148.366 255.351 L 152.643 255.351 L 152.643 256.301 L 148.319 256.301 C 148.28 256.676 148.194 257.144 148.061 257.707 C 147.929 258.261 147.667 258.781 147.276 259.265 C 146.893 259.75 146.179 260.347 145.132 261.058 C 144.796 260.777 144.448 260.554 144.089 260.39 L 144.089 260.261 z M 151.718 251.379 C 152.257 251.715 152.733 252.097 153.147 252.527 L 152.491 252.937 C 152.155 252.531 151.745 252.172 151.261 251.859 L 151.718 251.379 z M 150.874 252.199 C 151.413 252.535 151.89 252.918 152.304 253.347 L 151.647 253.758 C 151.311 253.351 150.901 252.992 150.417 252.679 L 150.874 252.199 z M 157.788 257.004 C 157.186 258.004 156.44 258.996 155.55 259.98 C 155.136 259.699 154.768 259.508 154.448 259.406 L 154.448 259.277 C 155.237 258.519 155.804 257.843 156.147 257.25 C 156.499 256.656 156.679 256.32 156.686 256.242 C 156.725 256.125 156.804 256.101 156.921 256.172 L 157.975 256.664 C 158.14 256.742 158.155 256.824 158.022 256.91 L 157.788 257.004 z M 161.186 256.488 L 162.054 255.75 C 163.108 256.484 164.081 257.418 164.972 258.551 L 164.983 258.703 C 164.796 258.758 164.456 259.027 163.964 259.511 C 163.183 258.261 162.257 257.254 161.186 256.488 z M 154.636 253.617 L 158.89 253.617 L 158.89 252.023 C 158.89 251.758 158.866 251.578 158.819 251.484 C 158.811 251.343 158.866 251.281 158.983 251.297 L 160.272 251.519 C 160.499 251.566 160.538 251.66 160.39 251.801 L 160.073 251.988 L 160.073 253.617 L 164.456 253.617 L 164.456 254.566 L 160.073 254.566 L 160.073 259.218 C 160.081 259.539 160.077 259.824 160.061 260.074 C 160.046 260.324 159.936 260.539 159.733 260.718 C 159.538 260.906 159.265 260.968 158.913 260.906 C 158.569 260.851 158.167 260.758 157.706 260.625 C 157.8 260.258 157.866 259.886 157.905 259.511 L 157.975 259.488 C 158.233 259.621 158.429 259.699 158.561 259.722 C 158.702 259.746 158.792 259.726 158.831 259.664 C 158.87 259.601 158.89 259.504 158.89 259.371 L 158.89 254.566 L 154.636 254.566 L 154.636 253.617 z M 162.405 252.234 C 162.405 251.953 162.503 251.715 162.698 251.519 C 162.893 251.316 163.132 251.215 163.413 251.215 C 163.694 251.215 163.933 251.316 164.128 251.519 C 164.331 251.715 164.433 251.953 164.433 252.234 C 164.433 252.515 164.331 252.754 164.128 252.949 C 163.933 253.144 163.694 253.242 163.413 253.242 C 163.132 253.242 162.893 253.144 162.698 252.949 C 162.503 252.754 162.405 252.515 162.405 252.234 z M 162.815 252.234 C 162.815 252.422 162.866 252.566 162.968 252.668 C 163.069 252.769 163.214 252.82 163.401 252.82 C 163.581 252.82 163.725 252.769 163.835 252.668 C 163.952 252.566 164.011 252.422 164.011 252.234 C 164.011 252.054 163.952 251.91 163.835 251.801 C 163.725 251.683 163.581 251.625 163.401 251.625 C 163.214 251.625 163.069 251.683 162.968 251.801 C 162.866 251.91 162.815 252.054 162.815 252.234 z M 168.089 260.261 C 169.026 259.793 169.698 259.347 170.104 258.926 C 170.518 258.504 170.784 258.047 170.901 257.554 C 171.018 257.062 171.097 256.644 171.136 256.301 L 166.518 256.301 L 166.518 255.351 L 171.183 255.351 L 171.183 253.535 L 171.183 253.488 C 170.378 253.691 169.386 253.937 168.206 254.226 C 168.003 253.812 167.804 253.511 167.608 253.324 L 167.679 253.195 C 168.772 253 169.651 252.816 170.315 252.644 C 170.987 252.465 171.643 252.218 172.284 251.906 C 172.933 251.593 173.253 251.379 173.245 251.261 C 173.315 251.144 173.397 251.136 173.491 251.238 L 174.475 252.105 C 174.616 252.269 174.589 252.359 174.393 252.375 L 173.948 252.328 C 173.308 252.648 172.741 252.91 172.249 253.113 L 172.6 253.183 C 172.718 253.246 172.733 253.324 172.647 253.418 L 172.366 253.582 L 172.366 255.351 L 176.643 255.351 L 176.643 256.301 L 172.319 256.301 C 172.28 256.676 172.194 257.144 172.061 257.707 C 171.929 258.261 171.667 258.781 171.276 259.265 C 170.893 259.75 170.179 260.347 169.132 261.058 C 168.796 260.777 168.448 260.554 168.089 260.39 L 168.089 260.261 z M 175.718 251.379 C 176.257 251.715 176.733 252.097 177.147 252.527 L 176.491 252.937 C 176.155 252.531 175.745 252.172 175.261 251.859 L 175.718 251.379 z M 174.874 252.199 C 175.413 252.535 175.89 252.918 176.304 253.347 L 175.647 253.758 C 175.311 253.351 174.901 252.992 174.417 252.679 L 174.874 252.199 z "
     id="path47" />
  <text
     style="fill:#000073; stroke:none; font-family:Helvetica; font-style:normal; font-weight:normal; font-size:12.000000; fill-opacity:1; fill-rule:evenodd; stroke-opacity:100%; stroke-width:1px; stroke-linejoin:miter; stroke-linecap:butt; "
     x="14.867257"
     y="308.672566"
     id="text48"
     transform="matrix(1 0 0 1 1.02462 -5.95644)">Released under GNU GPL</text>
</svg>
