/* XPM */
static char * back_xpm[] = {
"25 24 42 1",
" 	c None",
".	c #0E0E0E",
"+	c #0C0C0C",
"@	c #080808",
"#	c #464546",
"$	c #787678",
"%	c #333233",
"&	c #424242",
"*	c #727172",
"=	c #757375",
"-	c #949194",
";	c #3F3E3F",
">	c #8F908F",
",	c #3B3B3B",
"'	c #4A4A4A",
")	c #7F7F7F",
"!	c #7C7C7C",
"~	c #5E5D5E",
"{	c #161616",
"]	c #FFFFFF",
"^	c #686968",
"/	c #5B5C5B",
"(	c #9C9D9C",
"_	c #979897",
":	c #060606",
"<	c #0B0B0B",
"[	c #0A0B0A",
"}	c #0A0A0A",
"|	c #040404",
"1	c #F4F3F4",
"2	c #ECECEC",
"3	c #DCDCDC",
"4	c #0D0D0D",
"5	c #070707",
"6	c #525252",
"7	c #4C4C4C",
"8	c #0F0F0F",
"9	c #000000",
"0	c #020202",
"a	c #0B0C0B",
"b	c #010101",
"c	c #111111",
"                         ",
"                         ",
"                         ",
"                         ",
"   .+++++++++++++++      ",
"   @#$$$$$$$$$$$$$%.     ",
" ++@&***********=-;.     ",
" +>,'))))))))))!~-;.     ",
" {]^/((((((((((_~-;.     ",
" {]^/((((((((((_~-;.     ",
" {]^/((((((((((_~-;.     ",
" {]^/((((((((((_~-;.     ",
" {]^/((((((((((_~-;.     ",
" {]^/((((((((((_~-;.     ",
" {]^:<<<<<<<<<<[:}|.     ",
" {]12222222222234        ",
" 566666666666667.    <8  ",
"                     9<  ",
"                    }0   ",
"                 a<55    ",
"                 b9c     ",
"                  +      ",
"                         ",
"                         "};
