/* XPM */
static char * delete_xpm[] = {
"25 24 84 1",
" 	c None",
".	c #0F100F",
"+	c #0C0C0C",
"@	c #080808",
"#	c #3E3D3E",
"$	c #403F40",
"%	c #391B19",
"&	c #3B3A3B",
"*	c #030303",
"=	c #8D8B8D",
"-	c #949194",
";	c #8C8688",
">	c #974843",
",	c #C33328",
"'	c #8D5F5D",
")	c #886D6D",
"!	c #8A8284",
"~	c #875B59",
"{	c #C43328",
"]	c #C53429",
"^	c #AD362D",
"/	c #8D8A8C",
"(	c #897576",
"_	c #B73228",
":	c #886968",
"<	c #939093",
"[	c #934C47",
"}	c #8F5C5A",
"|	c #8C8689",
"1	c #AA3830",
"2	c #8F8C8F",
"3	c #9D423C",
"4	c #AF352C",
"5	c #8C888A",
"6	c #984640",
"7	c #B1352C",
"8	c #8B8385",
"9	c #8D8789",
"0	c #A63B33",
"a	c #905956",
"b	c #8C5C5A",
"c	c #8A6564",
"d	c #8A7F81",
"e	c #AF362D",
"f	c #B3332A",
"g	c #BA3228",
"h	c #994540",
"i	c #846E6E",
"j	c #BF3227",
"k	c #C43329",
"l	c #836766",
"m	c #8A7F80",
"n	c #A53C35",
"o	c #B93126",
"p	c #B73329",
"q	c #896C6B",
"r	c #3F3E3F",
"s	c #414141",
"t	c #604746",
"u	c #96271F",
"v	c #322A2A",
"w	c #7C211A",
"x	c #BB3228",
"y	c #6D4644",
"z	c #0E0E0E",
"A	c #0B0B0B",
"B	c #0E0D0E",
"C	c #491C19",
"D	c #BA3126",
"E	c #B53329",
"F	c #1F100F",
"G	c #5F231E",
"H	c #BB3126",
"I	c #4C1C19",
"J	c #6F2722",
"K	c #C03228",
"L	c #B33329",
"M	c #642823",
"N	c #902E26",
"O	c #5F221D",
"P	c #782C26",
"Q	c #5A1F1A",
"R	c #AC3229",
"S	c #882C25",
"                         ",
"                         ",
"                         ",
"                         ",
"    .+++++++++++++++     ",
"    @#$$$%&$$$$$$$$*     ",
"    @=-;>,'-----)!-@     ",
"    @=-~{]^/---(_:-@     ",
"    @=-<[]]}--|1><-@     ",
"    @=--23]45<678--@     ",
"    @=---90]ab,c---@     ",
"    @=----defgh<---@     ",
"    @=-----ijkl----@     ",
"    @=----mn]opq---@     ",
"    @rssst7]uvwxyss*     ",
"    zAABCD]EFAAGHIAA     ",
"       J,]K      LM      ",
"      N]]]O       P      ",
"      QR]S               ",
"                         ",
"                         ",
"                         ",
"                         ",
"                         "};
