/* XPM */
static char * delete_xpm[] = {
"24 24 5 1",
" 	c None",
".	c #000000",
"+	c #FF0000",
"@	c #B2B2B2",
"#	c #CCCCCC",
"                        ",
"                        ",
"   ....            ...  ",
"   .++..........  .++.  ",
"   .+++.@@@@@@@. .+++.  ",
"   ..+++.@@@@@@..+++.   ",
"   .@.+++.@@@@@.+++.    ",
"   .@@.+++.@@@.+++.     ",
"   .@@@.+++.@.+++.      ",
"   .@@@@.+++.+++.       ",
"   .@@@@@.+++++..       ",
"   .@@@@@@.+++..#..     ",
"   .......+++++.###.    ",
"      .#.+++.+++.###.   ",
"      ..+++.#.+++.##.   ",
"      .+++.###.+++.#.   ",
"     .+++.#####.+++.    ",
"    .+++..######.+++.   ",
"   .+++.  ........+++.  ",
"   .++.           .++.  ",
"   ...             ...  ",
"                        ",
"                        ",
"                        "};
