/* XPM */
static char *magick[] = {
/* columns rows colors chars-per-pixel */
"24 24 12 1",
"  c Gray0",
". c Gray20",
"X c #7f0000",
"o c #5b5b5b",
"O c #656565",
"+ c Gray40",
"@ c #989898",
"# c Gray60",
"$ c #cbcbcb",
"% c Gray80",
"& c Gray100",
"* c None",
/* pixels */
"************************",
"************************",
"************************",
"****.......+************",
"****.+++++#+************",
"****.+###$#+************",
"****.+#%&$#+************",
"****.+#%&$#+************",
"****.+#%&$#+************",
"****.+#%&$#+************",
"****.+#%&$#+************",
"****.+#%&$#+************",
"****.+#%&$#+************",
"****.+#%&$#+*XX******XX*",
"****.+#%&$#+*XXX****XXX*",
"****.+#%&$#+X*XXX**XXX**",
"******#$$$#+***XXXXXX***",
"****.+#####+****XXXX****",
"****.+++++++****XXXX****",
"****o**********XXXXXX***",
"**************XXX**XXX**",
"*************XXX****XXX*",
"*************XX****XXXX*",
"********************X***"
};
