/* XPM */
static char * duplicate_xpm[] = {
"24 24 5 1",
" 	c None",
".	c #000000",
"+	c #00FF00",
"@	c #B2B2B2",
"#	c #CCCCCC",
"                        ",
"         .....          ",
"         .+++.          ",
"   .......+++...        ",
"   .@@@@@.+++.@.        ",
"   .@@@@@.+++.@.        ",
"   .@@@@@.+++.@.        ",
"   .@@@@@.+++.@.        ",
"  ........+++........   ",
"  .+++++++++++++++++.   ",
"  .+++++++++++++++++.   ",
"  .+++++++++++++++++.   ",
"  ........+++........   ",
"      .##.+++.######.   ",
"      .##.+++.######.   ",
"      .##.+++.######.   ",
"       .#.+++.#####.    ",
"        ..+++.###..     ",
"         .+++....       ",
"         .+++.          ",
"         .....          ",
"                        ",
"                        ",
"                        "};
