/* XPM */
static char * duplicate_xpm[] = {
"25 24 37 1",
" 	c None",
".	c #0C0C0C",
"+	c #080808",
"@	c #2D2D2D",
"#	c #403F40",
"$	c #131313",
"%	c #5B5A5B",
"&	c #817F81",
"*	c #878587",
"=	c #949194",
"-	c #2D2C2D",
";	c #0F0F0F",
">	c #2E2D2E",
",	c #0D0D0D",
"'	c #484848",
")	c #666566",
"!	c #626162",
"~	c #6C6B6C",
"{	c #313031",
"]	c #2A292A",
"^	c #5D5B5D",
"/	c #838183",
"(	c #757475",
"_	c #292829",
":	c #3A393A",
"<	c #343434",
"[	c #302F30",
"}	c #414141",
"|	c #646264",
"1	c #515051",
"2	c #373637",
"3	c #0A0A0A",
"4	c #0B0B0B",
"5	c #1C1B1C",
"6	c #545354",
"7	c #393839",
"8	c #0E0E0E",
"                         ",
"                         ",
"                         ",
"                         ",
"     ...............     ",
"    +@#############$     ",
"    +%&&&&&&&&&&&*=-     ",
"  ;>,'))))))))))!~=-     ",
"  {=]^//////////(~=-     ",
"  {=]^//////////(~=-     ",
"  {=]^//////////(~=-     ",
"  {=]^//////////(~=-     ",
"  {=]^//////////(~=-     ",
"  {=]^//////////(~=-     ",
"  {=]_::::::::::<[}$     ",
"  {=|111111111112344     ",
"  5666666666666678       ",
"  444444444444444        ",
"                         ",
"                         ",
"                         ",
"                         ",
"                         ",
"                         "};
