/* XPM */
static char * forward_xpm[] = {
"25 24 33 1",
" 	c None",
".	c #0C0C0C",
"+	c #121312",
"@	c #1E1E1E",
"#	c #8F908F",
"$	c #737473",
"%	c #0E0E0E",
"&	c #363636",
"*	c #FFFFFF",
"=	c #CDCDCD",
"-	c #080808",
";	c #202020",
">	c #242424",
",	c #686768",
"'	c #747274",
")	c #111111",
"!	c #525252",
"~	c #424242",
"{	c #898789",
"]	c #636263",
"^	c #1E1D1E",
"/	c #101010",
"(	c #3B3B3B",
"_	c #545354",
":	c #191919",
"<	c #0D0D0D",
"[	c #1B1B1B",
"}	c #0B0B0B",
"|	c #0A0A0A",
"1	c #000000",
"2	c #121212",
"3	c #030403",
"4	c #060606",
"                         ",
"                         ",
"                         ",
"                         ",
"    ...............+     ",
"    @#############$%     ",
"   %&*************=%     ",
" -;>&*************=%     ",
" -,'&*************=%     ",
" -,'&*************=%     ",
" -,'&*************=%     ",
" -,'&*************=%     ",
" -,'&*************=%     ",
" -,'&*************=%     ",
" -,')!!!!!!!!!!!!!~%     ",
" -,{]]]]]]]]]]]]^/       ",
" -(_____________:    <[  ",
"  }}}}}}}}}}}}}}}   |12  ",
"                    3}%  ",
"                  }4-    ",
"                 11|     ",
"                 .       ",
"                         ",
"                         "};
