/* XPM */
static char * freehand_xpm[] = {
"24 24 4 1",
" 	c None",
".	c #000000",
"+	c #7F7F7F",
"@	c #4C4C4C",
"                        ",
"                        ",
"       ..               ",
"     ..  .              ",
"   ..     .             ",
"          .       .     ",
"          .      .+.    ",
"         .      .++@.   ",
"         .     .++@.    ",
"        .     .++@.     ",
"        .    .++@.      ",
"       .    .++@.       ",
"       .   .++@.        ",
"       .  .++@.         ",
"        . .+@.          ",
"        . ...           ",
"         .              ",
"          ..            ",
"            ...         ",
"               ...      ",
"                  ...   ",
"                        ",
"                        ",
"                        "};
