<?xml version="1.0" encoding="UTF-8" standalone="no"?>
<!DOCTYPE svg PUBLIC "-//W3C//DTD SVG 20010904//EN"
"http://www.w3.org/TR/2001/REC-SVG-20010904/DTD/svg10.dtd">
<!-- Created with Sodipodi ("http://www.sodipodi.com/") -->
<svg
   id="svg1"
   sodipodi:version="0.32pre"
   width="256pt"
   height="256pt"
   sodipodi:docbase="/home/lauris/cvs/sodipodi/glade/"
   sodipodi:docname="/home/lauris/cvs/sodipodi/glade/icons.svg"
   xmlns="http://www.w3.org/2000/svg"
   xmlns:sodipodi="http://sodipodi.sourceforge.net/DTD/sodipodi-0.dtd"
   xmlns:xlink="http://www.w3.org/1999/xlink">
  <defs
     id="defs3" />
  <sodipodi:namedview
     id="base"
     gridspacingy="0.5pt"
     gridspacingx="0.5pt"
     showgrid="true"
     snaptogrid="true"
     gridtolerance="1.02pt">
    <sodipodi:guide
       orientation="horizontal"
       position="-15.625001"
       id="sodipodi:guide273" />
    <sodipodi:guide
       orientation="vertical"
       position="12.037154"
       id="guide268" />
    <sodipodi:guide
       orientation="horizontal"
       position="10.0062"
       id="guide269" />
  </sodipodi:namedview>
  <path
     transform="matrix(3.31841e-17,1.25053,-1.12037,2.97299e-17,327.03,136.71)"
     style="font-size:12;fill:#008b6f;fill-rule:evenodd;stroke:#000000;stroke-width:1.05599;stroke-linejoin:round;"
     d="M 4.12985 265.678 L 7.12853 265.678 L 7.12853 264.004 L 10.1276 267.352 L 7.12853 270.698 L 7.12853 269.025 L 4.12985 269.025 L 4.12985 265.678 z "
     id="path208"
     sodipodi:nodetypes="cccccccc" />
  <path
     transform="matrix(-1.25052,6.63674e-17,-5.94591e-17,-1.12035,42.6647,442.653)"
     style="font-size:12;fill:#008b6f;fill-rule:evenodd;stroke:#000000;stroke-width:1.05599;stroke-linejoin:round;"
     d="M 4.12985 265.678 L 7.12853 265.678 L 7.12853 264.004 L 10.1276 267.352 L 7.12853 270.698 L 7.12853 269.025 L 4.12985 269.025 L 4.12985 265.678 z "
     id="path209"
     sodipodi:nodetypes="cccccccc" />
  <path
     transform="matrix(-9.95507e-17,-1.25051,1.12034,-8.91882e-17,-273.9,160.789)"
     style="font-size:12;fill:#008b6f;fill-rule:evenodd;stroke:#000000;stroke-width:1.05599;stroke-linejoin:round;"
     d="M 4.12985 265.678 L 7.12853 265.678 L 7.12853 264.004 L 10.1276 267.352 L 7.12853 270.698 L 7.12853 269.025 L 4.12985 269.025 L 4.12985 265.678 z "
     id="path210"
     sodipodi:nodetypes="cccccccc" />
  <path
     transform="matrix(-1.25052,0,0,1.12036,22.0397,-153.907)"
     style="font-size:12;fill:#008b6f;fill-rule:evenodd;stroke-width:1.05599;stroke-linejoin:round;"
     d="M -2.36724 258.428 L -0.867913 256.196 L 0.131679 257.87 L 0.131679 254.523 L -2.86703 254.523 L -1.3677 255.638 L -3.36681 257.312 L -2.36724 258.428 z "
     id="path238"
     sodipodi:nodetypes="cccccccc" />
  <g
     id="draw_dropper"
     transform="translate(0,12.5)">
    <rect
       style="font-size:12;fill:none;fill-rule:evenodd;stroke-width:0.0125;stroke:#000000;stroke-opacity:1;stroke-dasharray:none;"
       id="rect246"
       width="24.999997"
       height="24.999987"
       x="0.000000"
       y="232.499954" />
    <path
       style="fill:#000000;fill-rule:evenodd;stroke:none;stroke-opacity:1;stroke-width:0.125;stroke-linejoin:miter;stroke-linecap:butt;fill-opacity:1;stroke-dasharray:none;"
       d="M 11.25 241.25 L 12.5 242.5 L 4.375 250.625 L 3.75 252.5 L 5 252.5 L 5 253.75 L 6.875 253.125 L 15 245 L 16.25 246.25 L 17.5 245.625 L 17.5 243.125 C 20 243.75 22.5 240 20 237.5 C 17.5 235 13.75 237.5 14.375 240 L 11.875 240 L 11.25 241.25 z "
       id="path252"
       sodipodi:nodetypes="ccccccccccccccc" />
    <path
       style="fill:#7f7f7f;fill-rule:evenodd;stroke:none;stroke-opacity:1;stroke-width:0.125;stroke-linejoin:miter;stroke-linecap:butt;fill-opacity:1;stroke-dasharray:none;"
       d="M 12.5 242.5 L 4.375 250.625 L 3.75 252.5 L 6.25 252.5 L 14.375 244.375 L 12.5 242.5 z "
       id="path253"
       sodipodi:nodetypes="cccccc" />
    <path
       style="fill:#ffffff;fill-rule:evenodd;stroke:none;stroke-opacity:1;stroke-width:0.125;stroke-linejoin:miter;stroke-linecap:butt;fill-opacity:1;stroke-dasharray:none;"
       d="M 12.5 242.5 L 4.375 250.625 L 3.75 252.5 L 13.125 243.125 L 12.5 242.5 z "
       id="path254"
       sodipodi:nodetypes="ccccc" />
  </g>
  <g
     id="selection_ungroup">
    <rect
       style="font-size:12;fill:#b5b5b5;fill-opacity:0.25;fill-rule:evenodd;stroke:#000000;stroke-width:0.156246;stroke-opacity:0.431373;"
       id="rect4"
       x="-0.000018"
       y="294.999981"
       width="25.000014"
       height="24.998729"
       rx="0"
       ry="0" />
    <rect
       style="fill:#337d80;fill-rule:evenodd;stroke:#000000;stroke-width:1.19678;"
       id="rect5"
       x="1.875269"
       y="304.374981"
       width="14.999729"
       height="13.749736"
       rx="0"
       ry="0" />
    <path
       sodipodi:type="arc"
       style="font-size:12;fill:#ffa680;fill-rule:evenodd;stroke-width:0.815708;stroke:#000000;stroke-opacity:1;stroke-dasharray:none;"
       id="path307"
       d="M 17.500000 308.750000 A 5.625000 5.000000 0 1 0 6.250000,308.750000 A 5.625 5 0 1 0 17.5 308.75 L 11.875000 308.750000 z"
       sodipodi:cx="11.875000"
       sodipodi:cy="308.750000"
       sodipodi:rx="5.625000"
       sodipodi:ry="5.000000"
       transform="matrix(1.44493,0,0,1.62519,-2.16198,-196.778)" />
    <rect
       style="font-size:12;fill:#ff5056;fill-rule:evenodd;stroke-width:1pt;"
       id="rect16"
       x="22.499999"
       y="312.500031"
       width="2.499933"
       height="2.499933"
       rx="0"
       ry="0" />
    <rect
       style="font-size:12;fill:#ff5056;fill-rule:evenodd;stroke-width:1pt;"
       id="rect17"
       x="5.000000"
       y="303.750028"
       width="2.499937"
       height="2.499937"
       rx="0"
       ry="0" />
    <rect
       style="font-size:12;fill:#ff5056;fill-rule:evenodd;stroke-width:1pt;"
       id="rect19"
       x="4.999999"
       y="294.999959"
       width="2.499934"
       height="2.499934"
       rx="0"
       ry="0" />
    <rect
       style="font-size:12;fill:#ff5056;fill-rule:evenodd;stroke-width:1pt;"
       id="rect21"
       x="22.500066"
       y="295.000043"
       width="2.499931"
       height="2.499931"
       rx="0"
       ry="0" />
    <rect
       style="font-size:12;fill:none;fill-rule:evenodd;stroke:#ff0000;stroke-width:0.866665pt;stroke-opacity:0.33;"
       id="rect270"
       width="16.249995"
       height="16.249934"
       x="6.874999"
       y="296.874972" />
    <rect
       style="font-size:12;fill:#ff5056;fill-rule:evenodd;stroke-width:1pt;"
       id="rect271"
       x="5.000000"
       y="312.499966"
       width="2.499937"
       height="2.499937"
       rx="0"
       ry="0"
       transform="translate(6.25849e-05,1.90735e-05)" />
    <rect
       style="font-size:12;fill:#ff5056;fill-rule:evenodd;stroke-width:1pt;"
       id="rect272"
       x="5.000000"
       y="312.499966"
       width="2.499937"
       height="2.499937"
       rx="0"
       ry="0"
       transform="translate(8.75,9.53674e-05)" />
    <rect
       style="font-size:12;fill:#ff5056;fill-rule:evenodd;stroke-width:1pt;"
       id="rect273"
       x="5.000000"
       y="312.499966"
       width="2.499937"
       height="2.499937"
       rx="0"
       ry="0"
       transform="translate(8.75006,-17.4999)" />
    <rect
       style="font-size:12;fill:#ff5056;fill-rule:evenodd;stroke-width:1pt;"
       id="rect274"
       x="5.000000"
       y="312.499966"
       width="2.499937"
       height="2.499937"
       rx="0"
       ry="0"
       transform="translate(17.5001,-8.74992)" />
  </g>
  <g
     id="selection_group">
    <rect
       style="font-size:12;fill:#b5b5b5;fill-opacity:0.25;fill-rule:evenodd;stroke:#000000;stroke-width:0.156246;stroke-opacity:0.431373;"
       id="rect247"
       x="-0.000018"
       y="294.999981"
       width="25.000014"
       height="24.998729"
       rx="0"
       ry="0"
       transform="translate(0,-24.9987)" />
    <rect
       style="fill:#337d80;fill-rule:evenodd;stroke:#000000;stroke-width:1.19684;"
       id="rect248"
       x="1.875269"
       y="279.374973"
       width="14.999729"
       height="13.751033"
       rx="0"
       ry="0" />
    <path
       sodipodi:type="arc"
       style="font-size:12;fill:#ffa680;fill-rule:evenodd;stroke:#000000;stroke-width:0.815708;"
       id="path249"
       d="M 17.500000 308.750000 A 5.625000 5.000000 0 1 0 6.250000,308.750000 A 5.625 5 0 1 0 17.5 308.75 L 11.875000 308.750000 z"
       sodipodi:cx="11.875000"
       sodipodi:cy="308.750000"
       sodipodi:rx="5.625000"
       sodipodi:ry="5.000000"
       transform="matrix(1.44493,0,0,1.62519,-2.16198,-221.777)" />
    <rect
       style="font-size:12;fill:#ff5056;fill-rule:evenodd;stroke-width:1pt;"
       id="rect250"
       x="22.499999"
       y="292.499976"
       width="2.499933"
       height="2.499933"
       rx="0"
       ry="0" />
    <rect
       style="font-size:12;fill:#ff5056;fill-rule:evenodd;stroke-width:1pt;"
       id="rect251"
       x="0.000000"
       y="281.249976"
       width="2.499937"
       height="2.499937"
       rx="0"
       ry="0" />
    <rect
       style="font-size:12;fill:#ff5056;fill-rule:evenodd;stroke-width:1pt;"
       id="rect252"
       x="0.000066"
       y="270.000030"
       width="2.499934"
       height="2.499934"
       rx="0"
       ry="0" />
    <rect
       style="font-size:12;fill:#ff5056;fill-rule:evenodd;stroke-width:1pt;"
       id="rect253"
       x="22.500066"
       y="295.000043"
       width="2.499931"
       height="2.499931"
       rx="0"
       ry="0"
       transform="translate(0,-24.9987)" />
    <rect
       style="font-size:12;fill:#ff0000;fill-rule:evenodd;stroke:none;stroke-width:1.13333pt;stroke-opacity:0.33;fill-opacity:0.42;"
       id="rect254"
       width="22.499995"
       height="22.499978"
       x="1.250000"
       y="271.249981" />
    <rect
       style="font-size:12;fill:#ff5056;fill-rule:evenodd;stroke-width:1pt;"
       id="rect255"
       x="0.000000"
       y="292.500029"
       width="2.499937"
       height="2.499937"
       rx="0"
       ry="0" />
    <rect
       style="font-size:12;fill:#ff5056;fill-rule:evenodd;stroke-width:1pt;"
       id="rect256"
       x="11.250063"
       y="292.500032"
       width="2.499937"
       height="2.499937"
       rx="0"
       ry="0" />
    <rect
       style="font-size:12;fill:#ff5056;fill-rule:evenodd;stroke-width:1pt;"
       id="rect257"
       x="11.249999"
       y="269.999993"
       width="2.499937"
       height="2.499937"
       rx="0"
       ry="0" />
    <rect
       style="font-size:12;fill:#ff5056;fill-rule:evenodd;stroke-width:1pt;"
       id="rect258"
       x="22.500061"
       y="281.250031"
       width="2.499937"
       height="2.499937"
       rx="0"
       ry="0" />
  </g>
  <g
     id="selection_break">
    <rect
       style="font-size:12;fill:#b5b5b5;fill-opacity:0.25;fill-rule:evenodd;stroke:#000000;stroke-width:0.156246;stroke-opacity:0.431373;"
       id="rect291"
       x="-0.000018"
       y="294.999981"
       width="25.000014"
       height="24.998729"
       rx="0"
       ry="0"
       transform="translate(25,0)" />
    <rect
       style="fill:#337d80;fill-rule:evenodd;stroke:#000000;stroke-width:1.19678;"
       id="rect292"
       x="26.875267"
       y="304.374981"
       width="14.999729"
       height="13.749736"
       rx="0"
       ry="0" />
    <path
       sodipodi:type="arc"
       style="font-size:12;fill:#337d80;fill-rule:evenodd;stroke:#000000;stroke-width:0.815708;fill-opacity:1;"
       id="path293"
       d="M 17.500000 308.750000 A 5.625000 5.000000 0 1 0 6.250000,308.750000 A 5.625 5 0 1 0 17.5 308.75 L 11.875000 308.750000 z"
       sodipodi:cx="11.875000"
       sodipodi:cy="308.750000"
       sodipodi:rx="5.625000"
       sodipodi:ry="5.000000"
       transform="matrix(1.44493,0,0,1.62519,22.838,-196.778)" />
  </g>
  <g
     id="selection_combine">
    <rect
       style="font-size:12;fill:#b5b5b5;fill-opacity:0.25;fill-rule:evenodd;stroke:#000000;stroke-width:0.156246;stroke-opacity:0.431373;"
       id="rect320"
       x="-0.000018"
       y="294.999981"
       width="25.000014"
       height="24.998729"
       rx="0"
       ry="0"
       transform="translate(25,-25)" />
    <path
       style="font-size:12;fill:#337d80;fill-rule:evenodd;stroke:#000000;stroke-width:1.25;"
       d="M 48.1243 279.999 C 48.1243 284.485 44.4831 288.125 39.9965 288.125 C 35.51 288.125 31.8688 284.485 31.8688 279.999 C 31.8688 275.514 35.51 271.873 39.9965 271.873 C 44.4831 271.873 48.1243 275.514 48.1243 279.999 z M 26.8753 279.375 L 26.8753 293.125 L 41.875 293.125 L 41.875 279.375 L 26.8753 279.375 z "
       id="path328"
       sodipodi:nodetypes="cccccccccc" />
  </g>
  <g
     id="selection_top">
    <rect
       style="font-size:12;fill:#b5b5b5;fill-opacity:0.25;fill-rule:evenodd;stroke:#000000;stroke-width:0.15625;stroke-opacity:0.431373;"
       id="rect342"
       x="49.999995"
       y="294.999967"
       width="24.999998"
       height="25.000002"
       rx="0"
       ry="0"
       transform="translate(4.76837e-06,1.90735e-05)" />
    <rect
       style="fill:#007f7f;fill-rule:evenodd;stroke:#000000;stroke-width:1.15141;"
       id="rect343"
       x="51.874712"
       y="309.374967"
       width="12.500284"
       height="8.749990"
       rx="0"
       ry="0" />
    <path
       sodipodi:type="arc"
       style="font-size:12;fill:#007f7f;fill-rule:evenodd;stroke-width:1.0728;stroke:#000000;stroke-opacity:1;stroke-dasharray:none;fill-opacity:1;"
       id="path344"
       d="M 17.500000 308.750000 A 5.625000 5.000000 0 1 0 6.250000,308.750000 A 5.625 5 0 1 0 17.5 308.75 L 11.875000 308.750000 z"
       sodipodi:cx="11.875000"
       sodipodi:cy="308.750000"
       sodipodi:rx="5.625000"
       sodipodi:ry="5.000000"
       transform="matrix(1.27777,0,0,1.125,47.014,-39.8441)" />
    <rect
       style="fill:#afffba;fill-rule:evenodd;stroke:#000000;stroke-width:1.15141;"
       id="rect345"
       x="60.625001"
       y="296.874943"
       width="12.500278"
       height="8.750034"
       rx="0"
       ry="0" />
    <path
       style="font-size:12;fill:#ff7572;fill-rule:evenodd;stroke-width:1pt;stroke:#000000;stroke-opacity:1;stroke-linejoin:round;"
       d="M 48.6501 315.999 L 54.0347 311.999 L 59.4193 315.999 L 56.3424 315.999 L 56.3424 320 L 51.727 320 L 51.727 315.999 L 48.6501 315.999 z "
       id="path346"
       transform="matrix(0.8125,0,0,1.24987,11.0968,-94.3331)"
       sodipodi:nodetypes="cccccccc" />
  </g>
  <g
     id="selection_bot">
    <rect
       style="font-size:12;fill:#b5b5b5;fill-opacity:0.25;fill-rule:evenodd;stroke:#000000;stroke-width:0.15625;stroke-opacity:0.431373;"
       id="rect129"
       x="49.999998"
       y="269.999992"
       width="24.999997"
       height="25.000000"
       rx="0"
       ry="0" />
    <rect
       style="fill:#afffba;fill-rule:evenodd;stroke:#000000;stroke-width:1.15141;"
       id="rect131"
       x="51.874711"
       y="284.374959"
       width="12.500283"
       height="8.750001"
       rx="0"
       ry="0" />
    <path
       sodipodi:type="arc"
       style="font-size:12;fill:#007f7f;fill-rule:evenodd;stroke-width:1.0728;stroke:#000000;stroke-opacity:1;stroke-dasharray:none;fill-opacity:1;"
       id="path128"
       d="M 17.500000 308.750000 A 5.625000 5.000000 0 1 0 6.250000,308.750000 A 5.625 5 0 1 0 17.5 308.75 L 11.875000 308.750000 z"
       sodipodi:cx="11.875000"
       sodipodi:cy="308.750000"
       sodipodi:rx="5.625000"
       sodipodi:ry="5.000000"
       transform="matrix(1.27777,0,0,1.125,47.014,-64.844)" />
    <rect
       style="fill:#007f7f;fill-rule:evenodd;stroke:#000000;stroke-width:1.15141;"
       id="rect341"
       x="60.624996"
       y="271.874956"
       width="12.500278"
       height="8.750022"
       rx="0"
       ry="0" />
    <path
       style="font-size:12;fill:#ff7572;fill-rule:evenodd;stroke-width:1pt;stroke:#000000;stroke-opacity:1;stroke-linejoin:round;"
       d="M 48.6501 315.999 L 54.0347 311.999 L 59.4193 315.999 L 56.3424 315.999 L 56.3424 320 L 51.727 320 L 51.727 315.999 L 48.6501 315.999 z "
       id="path133"
       transform="matrix(0.8125,0,0,-1.24987,26.0968,684.333)"
       sodipodi:nodetypes="cccccccc" />
  </g>
  <g
     id="selection_up">
    <rect
       style="font-size:12;fill:#b5b5b5;fill-opacity:0.25;fill-rule:evenodd;stroke:#000000;stroke-width:0.15625;stroke-opacity:0.431373;"
       id="rect399"
       x="49.999995"
       y="294.999967"
       width="24.999998"
       height="25.000002"
       rx="0"
       ry="0"
       transform="translate(25,1.90735e-05)" />
    <rect
       style="fill:#007f7f;fill-rule:evenodd;stroke:#000000;stroke-width:1.15141;"
       id="rect400"
       x="76.874705"
       y="309.374967"
       width="12.500284"
       height="8.749990"
       rx="0"
       ry="0" />
    <path
       sodipodi:type="arc"
       style="font-size:12;fill:#afffba;fill-rule:evenodd;stroke:#000000;stroke-width:1.0728;fill-opacity:1;"
       id="path401"
       d="M 17.500000 308.750000 A 5.625000 5.000000 0 1 0 6.250000,308.750000 A 5.625 5 0 1 0 17.5 308.75 L 11.875000 308.750000 z"
       sodipodi:cx="11.875000"
       sodipodi:cy="308.750000"
       sodipodi:rx="5.625000"
       sodipodi:ry="5.000000"
       transform="matrix(1.27777,0,0,1.125,72.0139,-39.8437)" />
    <path
       style="font-size:12;fill:#b2e933;fill-rule:evenodd;stroke:#000000;stroke-width:1pt;stroke-linejoin:round;fill-opacity:1;"
       d="M 48.6501 315.999 L 54.0347 311.999 L 59.4193 315.999 L 56.3424 315.999 L 56.3424 320 L 51.727 320 L 51.727 315.999 L 48.6501 315.999 z "
       id="path403"
       transform="matrix(0.8125,0,0,1.24987,36.0968,-88.0831)"
       sodipodi:nodetypes="cccccccc" />
    <rect
       style="fill:#007f7f;fill-rule:evenodd;stroke:#000000;stroke-width:1.15142;"
       id="rect402"
       x="85.624705"
       y="296.874758"
       width="12.500278"
       height="8.750206"
       rx="0"
       ry="0" />
  </g>
  <g
     id="selection_down">
    <rect
       style="font-size:12;fill:#b5b5b5;fill-opacity:0.25;fill-rule:evenodd;stroke:#000000;stroke-width:0.15625;stroke-opacity:0.431373;"
       id="rect416"
       x="74.999991"
       y="269.999992"
       width="24.999997"
       height="25.000000"
       rx="0"
       ry="0" />
    <rect
       style="fill:#007f7f;fill-rule:evenodd;stroke:#000000;stroke-width:1.15141;"
       id="rect417"
       x="76.874698"
       y="284.374959"
       width="12.500283"
       height="8.750001"
       rx="0"
       ry="0" />
    <path
       sodipodi:type="arc"
       style="font-size:12;fill:#afffba;fill-rule:evenodd;stroke:#000000;stroke-width:1.0728;fill-opacity:1;"
       id="path418"
       d="M 17.500000 308.750000 A 5.625000 5.000000 0 1 0 6.250000,308.750000 A 5.625 5 0 1 0 17.5 308.75 L 11.875000 308.750000 z"
       sodipodi:cx="11.875000"
       sodipodi:cy="308.750000"
       sodipodi:rx="5.625000"
       sodipodi:ry="5.000000"
       transform="matrix(1.27777,0,0,1.125,72.0139,-64.8437)" />
    <path
       style="font-size:12;fill:#b2e933;fill-rule:evenodd;stroke:#000000;stroke-width:1pt;stroke-linejoin:round;fill-opacity:1;"
       d="M 48.6501 315.999 L 54.0347 311.999 L 59.4193 315.999 L 56.3424 315.999 L 56.3424 320 L 51.727 320 L 51.727 315.999 L 48.6501 315.999 z "
       id="path419"
       transform="matrix(0.8125,0,0,-1.24987,36.0968,676.833)"
       sodipodi:nodetypes="cccccccc" />
    <rect
       style="fill:#007f7f;fill-rule:evenodd;stroke:#000000;stroke-width:1.15142;"
       id="rect420"
       x="85.624697"
       y="271.874727"
       width="12.500278"
       height="8.750236"
       rx="0"
       ry="0" />
  </g>
  <g
     id="draw_rect">
    <rect
       style="font-size:12;fill:#b5b5b5;fill-opacity:0.25;fill-rule:evenodd;stroke:#000000;stroke-width:0.156247;stroke-opacity:0.431373;"
       id="rect193"
       x="24.999951"
       y="245.001004"
       width="25.000045"
       height="24.998958"
       rx="0"
       ry="0" />
    <path
       transform="matrix(1.66746,0,0,1.60067,16.6542,-174.147)"
       style="font-size:12;fill:#ffffff;fill-rule:evenodd;stroke:#000000;stroke-width:0.765123;stroke-dasharray:none;"
       d="M 18.1239 267.714 L 18.1239 275.523 L 9.12817 275.523 L 9.12817 267.714 L 18.1239 267.714 z "
       id="path194"
       sodipodi:nodetypes="ccccc" />
    <path
       style="font-size:12;fill:none;fill-rule:evenodd;stroke:#000000;stroke-width:1pt;"
       d="M 1.25 264.375 L 7.5 264.375 "
       id="path195"
       sodipodi:nodetypes="cc"
       transform="matrix(0.999989,0,0,0.999989,25,-14.9942)" />
    <path
       style="font-size:12;fill:none;fill-rule:evenodd;stroke:#000000;stroke-width:1pt;"
       d="M 4.375 261.25 L 4.375 267.5 "
       id="path196"
       sodipodi:nodetypes="cc"
       transform="matrix(0.999989,0,0,0.999989,25,-14.9942)" />
  </g>
  <g
     id="draw_arc">
    <rect
       style="font-size:12;fill:#b5b5b5;fill-opacity:0.25;fill-rule:evenodd;stroke:#000000;stroke-width:0.156248;stroke-opacity:0.431373;"
       id="rect180"
       x="49.999951"
       y="245.000818"
       width="25.000043"
       height="24.999146"
       rx="0"
       ry="0" />
    <path
       style="font-size:12;fill:none;fill-rule:evenodd;stroke:#000000;stroke-width:1pt;"
       d="M 1.25 264.375 L 7.5 264.375 "
       id="path213"
       sodipodi:nodetypes="cc"
       transform="translate(50,-14.9973)" />
    <path
       style="font-size:12;fill:none;fill-rule:evenodd;stroke:#000000;stroke-width:1pt;"
       d="M 4.375 261.25 L 4.375 267.5 "
       id="path214"
       sodipodi:nodetypes="cc"
       transform="translate(50,-14.9973)" />
    <path
       sodipodi:type="arc"
       style="fill-rule:evenodd;stroke:#000000;fill:#ffffff;fill-opacity:1;stroke-opacity:1;stroke-width:1.42984;stroke-linejoin:miter;stroke-linecap:butt;stroke-dasharray:none;"
       id="path215"
       d="M 73.750000 260.625000 A 9.687500 8.125000 0 1 0 54.375000,260.625000 A 9.6875 8.125 0 1 0 73.75 260.625 L 64.062500 260.625000 z"
       sodipodi:cx="64.062500"
       sodipodi:cy="260.625000"
       sodipodi:rx="9.687500"
       sodipodi:ry="8.125000"
       transform="matrix(0.903226,0,0,0.846152,5.26211,39.4717)" />
  </g>
  <g
     id="draw_spiral">
    <rect
       style="font-size:12;fill:#b5b5b5;fill-opacity:0.25;fill-rule:evenodd;stroke:#000000;stroke-width:0.156246;stroke-opacity:0.431373;"
       id="rect185"
       x="75.001337"
       y="244.999984"
       width="24.998651"
       height="24.999952"
       rx="0"
       ry="0" />
    <path
       style="font-size:12;fill:none;fill-rule:evenodd;stroke:#000000;stroke-width:1pt;"
       d="M 1.25 264.375 L 7.5 264.375 "
       id="path187"
       sodipodi:nodetypes="cc"
       transform="matrix(0.999973,0,0,0.999973,75.0014,-14.9908)" />
    <path
       style="font-size:12;fill:none;fill-rule:evenodd;stroke:#000000;stroke-width:1pt;"
       d="M 4.375 261.25 L 4.375 267.5 "
       id="path188"
       sodipodi:nodetypes="cc"
       transform="matrix(0.999973,0,0,0.999973,75.0014,-14.9908)" />
    <path
       sodipodi:type="spiral"
       style="font-size:12;fill:none;fill-rule:evenodd;stroke:#000000;stroke-width:1pt;"
       id="path225"
       sodipodi:cx="88.125000"
       sodipodi:cy="258.750000"
       sodipodi:expansion="1.000000"
       sodipodi:radius="9.938995"
       sodipodi:argument="-14.473712"
       sodipodi:t0="0.062166"
       transform="translate(0.470828,2.8751)"
       sodipodi:revolution="2.400000" />
  </g>
  <g
     id="draw_star">
    <rect
       style="font-size:12;fill:#b5b5b5;fill-opacity:0.25;fill-rule:evenodd;stroke:#000000;stroke-width:0.15625;stroke-opacity:0.431373;"
       id="rect197"
       x="-0.000043"
       y="219.999977"
       width="25.000043"
       height="24.999952"
       rx="0"
       ry="0" />
    <path
       style="font-size:12;fill:none;fill-rule:evenodd;stroke:#000000;stroke-width:1pt;"
       d="M 1.25 264.375 L 7.5 264.375 "
       id="path199"
       sodipodi:nodetypes="cc"
       transform="matrix(0.99998,0,0,0.99998,0,-39.9927)" />
    <path
       style="font-size:12;fill:none;fill-rule:evenodd;stroke:#000000;stroke-width:1pt;"
       d="M 4.375 261.25 L 4.375 267.5 "
       id="path200"
       sodipodi:nodetypes="cc"
       transform="matrix(0.99998,0,0,0.99998,0,-39.9927)" />
    <polygon
       sodipodi:type="star"
       style="font-size:12;fill:#ffffff;fill-rule:evenodd;stroke:#000000;stroke-width:1pt;stroke-linejoin:round;fill-opacity:1;"
       id="polygon235"
       sodipodi:sides="5"
       sodipodi:cx="14.375000"
       sodipodi:cy="234.375000"
       sodipodi:r1="9.650106"
       sodipodi:r2="4.614814"
       sodipodi:arg1="0.955795"
       sodipodi:arg2="1.626341"
       points="19.9427,242.257 14.1188,238.983 8.59935,242.106 9.91365,235.555 5.23773,231.271 11.8739,230.497 14.5035,224.726 17.2906,230.798 23.5917,231.515 18.678,236.043 19.9427,242.257 "
       transform="translate(0.158299,0.867996)" />
  </g>
  <g
     id="sticky_zoom">
    <rect
       style="font-size:12;fill:#b5b5b5;fill-opacity:0.25;fill-rule:evenodd;stroke:#000000;stroke-width:0.0937284;stroke-opacity:0.431373;"
       id="rect200"
       x="0.001633"
       y="142.499995"
       width="14.998365"
       height="14.994604"
       rx="0"
       ry="0" />
    <path
       style="font-size:12;fill:none;fill-rule:evenodd;stroke:#000000;stroke-width:1pt;stroke-linecap:round;"
       d="M 8.82812 156.172 L 6.95312 154.297 "
       id="path237"
       transform="translate(3.04688,-1.79703)"
       sodipodi:nodetypes="cc" />
    <path
       sodipodi:type="arc"
       style="font-size:12;fill:#ffbe80;fill-opacity:0.5;fill-rule:evenodd;stroke:#000000;stroke-width:1.26358;stroke-dasharray:none;"
       id="path236"
       d="M 8.831767 152.500000 A 3.831767 3.750000 0 1 0 1.168233,152.500000 A 3.83177 3.75 0 1 0 8.83177 152.5 L 5.000000 152.500000 z"
       sodipodi:cx="5.000000"
       sodipodi:cy="152.500000"
       sodipodi:rx="3.831767"
       sodipodi:ry="3.750000"
       transform="matrix(0.978659,0,0,0.999958,1.9817,-3.11874)" />
    <path
       style="fill:none;fill-rule:evenodd;stroke:black;stroke-opacity:1;stroke-width:1pt;stroke-linejoin:miter;stroke-linecap:butt;fill-opacity:1;"
       d="M 0.625 147.5 L 0.625 143.125 L -3.75 143.125 "
       id="path281"
       sodipodi:nodetypes="ccc"
       transform="translate(13.75,0)" />
    <path
       style="fill:none;fill-rule:evenodd;stroke:black;stroke-opacity:1;stroke-width:1pt;stroke-linejoin:miter;stroke-linecap:butt;fill-opacity:1;"
       d="M 0.625 147.5 L 0.625 143.125 L 5 143.125 "
       id="path282"
       sodipodi:nodetypes="ccc" />
    <path
       style="fill:none;fill-rule:evenodd;stroke:black;stroke-opacity:1;stroke-width:1pt;stroke-linejoin:miter;stroke-linecap:butt;fill-opacity:1;"
       d="M 0.625 138.75 L 0.625 143.125 L 5 143.125 "
       id="path283"
       sodipodi:nodetypes="ccc"
       transform="translate(0,13.75)" />
    <path
       style="fill:none;fill-rule:evenodd;stroke:black;stroke-opacity:1;stroke-width:1pt;stroke-linejoin:miter;stroke-linecap:butt;fill-opacity:1;"
       d="M -3.75 143.125 L 0.625 143.125 L 0.625 138.75 "
       id="path284"
       sodipodi:nodetypes="ccc"
       transform="translate(13.75,13.75)" />
  </g>
  <g
     id="distribute_left">
    <rect
       style="font-size:12;fill:none;fill-opacity:0.187215;fill-rule:evenodd;stroke:#000000;stroke-width:0.0625;"
       id="rect201"
       width="29.999994"
       height="30.000001"
       x="0.000000"
       y="2.499974" />
    <rect
       style="font-size:12;fill:#4f89ff;fill-rule:evenodd;stroke:#000000;stroke-width:1.33631;"
       id="rect202"
       width="14.999999"
       height="23.750002"
       x="1.875000"
       y="5.624999" />
    <rect
       style="font-size:12;fill:#4f89ff;fill-rule:evenodd;stroke-width:1pt;"
       id="rect203"
       width="6.874999"
       height="23.750002"
       x="21.874997"
       y="5.624999" />
    <path
       style="font-size:12;fill:none;fill-rule:evenodd;stroke:#000000;stroke-width:1pt;"
       d="M 28.75 5.625 L 21.875 5.625 L 21.875 29.375 L 28.75 29.375 "
       id="path206"
       sodipodi:nodetypes="cccc" />
    <path
       style="font-size:12;fill:#feff80;fill-rule:evenodd;stroke:#00007f;stroke-width:1.25;stroke-linejoin:round;"
       d="M 3.125 17.5 L 8.125 12.5 L 8.125 15.625 L 15.625 15.625 L 15.625 12.5 L 20.625 17.5 L 15.625 22.5 L 15.625 19.375 L 8.125 19.375 L 8.125 22.5 L 3.125 17.5 z "
       id="path204"
       sodipodi:nodetypes="ccccccccccc" />
  </g>
  <g
     id="distribute_hcentre">
    <rect
       style="font-size:12;fill:none;fill-opacity:0.187215;fill-rule:evenodd;stroke:#000000;stroke-width:0.0625;"
       id="rect249"
       width="29.999994"
       height="30.000001"
       x="0.000000"
       y="2.499974"
       transform="translate(30,0)" />
    <rect
       style="font-size:12;fill:#4f89ff;fill-rule:evenodd;stroke-width:1pt;"
       id="rect260"
       width="9.374988"
       height="23.749999"
       x="49.374996"
       y="5.624999" />
    <path
       style="font-size:12;fill:none;fill-rule:evenodd;stroke:#000000;stroke-width:1pt;"
       d="M 28.75 5.625 L 19.375 5.625 L 19.375 29.375 L 28.75 29.375 "
       id="path261"
       sodipodi:nodetypes="cccc"
       transform="translate(30,0)" />
    <rect
       style="font-size:12;fill:#4f89ff;fill-rule:evenodd;stroke-width:1pt;"
       id="rect268"
       width="8.750001"
       height="23.749999"
       x="31.249999"
       y="5.624999" />
    <path
       style="font-size:12;fill:none;fill-rule:evenodd;stroke:#000000;stroke-width:1pt;"
       d="M 21.875 5.625 L 31.25 5.625 L 31.25 29.375 L 21.875 29.375 "
       id="path269"
       sodipodi:nodetypes="cccc"
       transform="translate(9.375,0)" />
    <path
       style="font-size:12;fill:#feff80;fill-rule:evenodd;stroke:#00007f;stroke-width:1.25;stroke-linejoin:round;"
       d="M 4.375 17.5 L 9.375 12.5 L 9.375 15.625 L 15.625 15.625 L 15.625 12.5 L 20.625 17.5 L 15.625 22.5 L 15.625 19.375 L 9.375 19.375 L 9.375 22.5 L 4.375 17.5 z "
       id="path262"
       sodipodi:nodetypes="ccccccccccc"
       transform="translate(32.5,0)" />
  </g>
  <g
     id="distribute_right"
     transform="matrix(-1,-0,-0,1,90,0)">
    <rect
       style="font-size:12;fill:none;fill-opacity:0.187215;fill-rule:evenodd;stroke:#000000;stroke-width:0.0625;"
       id="rect278"
       width="29.999994"
       height="30.000001"
       x="0.000000"
       y="2.499974" />
    <rect
       style="font-size:12;fill:#4f89ff;fill-rule:evenodd;stroke:#000000;stroke-width:1.33631;"
       id="rect279"
       width="14.999999"
       height="23.750002"
       x="1.875000"
       y="5.624999" />
    <rect
       style="font-size:12;fill:#4f89ff;fill-rule:evenodd;stroke-width:1pt;"
       id="rect280"
       width="6.874999"
       height="23.750002"
       x="21.874997"
       y="5.624999" />
    <path
       style="font-size:12;fill:none;fill-rule:evenodd;stroke:#000000;stroke-width:1pt;"
       d="M 28.75 5.625 L 21.875 5.625 L 21.875 29.375 L 28.75 29.375 "
       id="path285"
       sodipodi:nodetypes="cccc" />
    <path
       style="font-size:12;fill:#feff80;fill-rule:evenodd;stroke:#00007f;stroke-width:1.25;stroke-linejoin:round;"
       d="M 3.125 17.5 L 8.125 12.5 L 8.125 15.625 L 15.625 15.625 L 15.625 12.5 L 20.625 17.5 L 15.625 22.5 L 15.625 19.375 L 8.125 19.375 L 8.125 22.5 L 3.125 17.5 z "
       id="path286"
       sodipodi:nodetypes="ccccccccccc" />
  </g>
  <g
     id="distribute_hdist">
    <rect
       style="font-size:12;fill:none;fill-opacity:0.187215;fill-rule:evenodd;stroke:#000000;stroke-width:0.0625;"
       id="rect288"
       width="29.999994"
       height="30.000001"
       x="0.000000"
       y="2.499974"
       transform="translate(90,0)" />
    <rect
       style="font-size:12;fill:#4f89ff;fill-rule:evenodd;stroke-width:1pt;"
       id="rect289"
       width="5.624984"
       height="23.749997"
       x="113.124985"
       y="5.624999" />
    <path
       style="font-size:12;fill:none;fill-rule:evenodd;stroke:#000000;stroke-width:1pt;"
       d="M 28.75 5.625 L 23.125 5.625 L 23.125 29.375 L 28.75 29.375 "
       id="path290"
       sodipodi:nodetypes="cccc"
       transform="translate(90,0)" />
    <rect
       style="font-size:12;fill:#4f89ff;fill-rule:evenodd;stroke-width:1pt;"
       id="rect293"
       width="5.625001"
       height="23.749997"
       x="91.249990"
       y="5.624999" />
    <path
       style="font-size:12;fill:none;fill-rule:evenodd;stroke:#000000;stroke-width:1pt;"
       d="M 21.875 5.625 L 27.5 5.625 L 27.5 29.375 L 21.875 29.375 "
       id="path294"
       sodipodi:nodetypes="cccc"
       transform="translate(69.375,0)" />
    <path
       style="font-size:12;fill:#feff80;fill-rule:evenodd;stroke:#00007f;stroke-width:1.25;stroke-linejoin:round;"
       d="M 5.625 17.5 L 10.625 12.5 L 10.625 15.625 L 14.375 15.625 L 14.375 12.5 L 19.375 17.5 L 14.375 22.5 L 14.375 19.375 L 10.625 19.375 L 10.625 22.5 L 5.625 17.5 z "
       id="path295"
       sodipodi:nodetypes="ccccccccccc"
       transform="translate(92.5,0)" />
  </g>
  <g
     id="distribute_bottom"
     transform="matrix(6.12303e-17,-1,1,6.12303e-17,57.5,62.5)">
    <rect
       style="font-size:12;fill:none;fill-opacity:0.187215;fill-rule:evenodd;stroke:#000000;stroke-width:0.0625;"
       id="rect310"
       width="29.999994"
       height="30.000001"
       x="0.000000"
       y="2.499974" />
    <rect
       style="font-size:12;fill:#4f89ff;fill-rule:evenodd;stroke:#000000;stroke-width:1.33631;"
       id="rect311"
       width="14.999999"
       height="23.750002"
       x="1.875000"
       y="5.624999" />
    <rect
       style="font-size:12;fill:#4f89ff;fill-rule:evenodd;stroke-width:1pt;"
       id="rect312"
       width="6.874999"
       height="23.750002"
       x="21.874997"
       y="5.624999" />
    <path
       style="font-size:12;fill:none;fill-rule:evenodd;stroke:#000000;stroke-width:1pt;"
       d="M 28.75 5.625 L 21.875 5.625 L 21.875 29.375 L 28.75 29.375 "
       id="path313"
       sodipodi:nodetypes="cccc" />
    <path
       style="font-size:12;fill:#feff80;fill-rule:evenodd;stroke:#00007f;stroke-width:1.25;stroke-linejoin:round;"
       d="M 3.125 17.5 L 8.125 12.5 L 8.125 15.625 L 15.625 15.625 L 15.625 12.5 L 20.625 17.5 L 15.625 22.5 L 15.625 19.375 L 8.125 19.375 L 8.125 22.5 L 3.125 17.5 z "
       id="path314"
       sodipodi:nodetypes="ccccccccccc" />
  </g>
  <g
     id="distribute_vcentre"
     transform="matrix(6.12303e-17,-1,1,6.12303e-17,27.5,92.5)">
    <rect
       style="font-size:12;fill:none;fill-opacity:0.187215;fill-rule:evenodd;stroke:#000000;stroke-width:0.0625;"
       id="rect316"
       width="29.999994"
       height="30.000001"
       x="0.000000"
       y="2.499974"
       transform="translate(30,0)" />
    <rect
       style="font-size:12;fill:#4f89ff;fill-rule:evenodd;stroke-width:1pt;"
       id="rect317"
       width="9.374988"
       height="23.749999"
       x="49.374996"
       y="5.624999" />
    <path
       style="font-size:12;fill:none;fill-rule:evenodd;stroke:#000000;stroke-width:1pt;"
       d="M 28.75 5.625 L 19.375 5.625 L 19.375 29.375 L 28.75 29.375 "
       id="path318"
       sodipodi:nodetypes="cccc"
       transform="translate(30,0)" />
    <rect
       style="font-size:12;fill:#4f89ff;fill-rule:evenodd;stroke-width:1pt;"
       id="rect319"
       width="8.750001"
       height="23.749999"
       x="31.249999"
       y="5.624999" />
    <path
       style="font-size:12;fill:none;fill-rule:evenodd;stroke:#000000;stroke-width:1pt;"
       d="M 21.875 5.625 L 31.25 5.625 L 31.25 29.375 L 21.875 29.375 "
       id="path320"
       sodipodi:nodetypes="cccc"
       transform="translate(9.375,0)" />
    <path
       style="font-size:12;fill:#feff80;fill-rule:evenodd;stroke:#00007f;stroke-width:1.25;stroke-linejoin:round;"
       d="M 4.375 17.5 L 9.375 12.5 L 9.375 15.625 L 15.625 15.625 L 15.625 12.5 L 20.625 17.5 L 15.625 22.5 L 15.625 19.375 L 9.375 19.375 L 9.375 22.5 L 4.375 17.5 z "
       id="path321"
       sodipodi:nodetypes="ccccccccccc"
       transform="translate(32.5,0)" />
  </g>
  <g
     id="distribute_top"
     transform="matrix(-6.12303e-17,1,1,6.12303e-17,-2.49997,32.5)">
    <rect
       style="font-size:12;fill:none;fill-opacity:0.187215;fill-rule:evenodd;stroke:#000000;stroke-width:0.0625;"
       id="rect323"
       width="29.999994"
       height="30.000001"
       x="0.000000"
       y="2.499974" />
    <rect
       style="font-size:12;fill:#4f89ff;fill-rule:evenodd;stroke:#000000;stroke-width:1.33631;"
       id="rect324"
       width="14.999999"
       height="23.750002"
       x="1.875000"
       y="5.624999" />
    <rect
       style="font-size:12;fill:#4f89ff;fill-rule:evenodd;stroke-width:1pt;"
       id="rect325"
       width="6.874999"
       height="23.750002"
       x="21.874997"
       y="5.624999" />
    <path
       style="font-size:12;fill:none;fill-rule:evenodd;stroke:#000000;stroke-width:1pt;"
       d="M 28.75 5.625 L 21.875 5.625 L 21.875 29.375 L 28.75 29.375 "
       id="path326"
       sodipodi:nodetypes="cccc" />
    <path
       style="font-size:12;fill:#feff80;fill-rule:evenodd;stroke:#00007f;stroke-width:1.25;stroke-linejoin:round;"
       d="M 3.125 17.5 L 8.125 12.5 L 8.125 15.625 L 15.625 15.625 L 15.625 12.5 L 20.625 17.5 L 15.625 22.5 L 15.625 19.375 L 8.125 19.375 L 8.125 22.5 L 3.125 17.5 z "
       id="path327"
       sodipodi:nodetypes="ccccccccccc" />
  </g>
  <g
     id="distribute_vdist"
     transform="matrix(6.12303e-17,-1,1,6.12303e-17,87.5,152.5)">
    <rect
       style="font-size:12;fill:none;fill-opacity:0.187215;fill-rule:evenodd;stroke:#000000;stroke-width:0.0625;"
       id="rect329"
       width="29.999994"
       height="30.000001"
       x="0.000000"
       y="2.499974"
       transform="translate(90,0)" />
    <rect
       style="font-size:12;fill:#4f89ff;fill-rule:evenodd;stroke-width:1pt;"
       id="rect330"
       width="5.624984"
       height="23.749997"
       x="113.124985"
       y="5.624999" />
    <path
       style="font-size:12;fill:none;fill-rule:evenodd;stroke:#000000;stroke-width:1pt;"
       d="M 28.75 5.625 L 23.125 5.625 L 23.125 29.375 L 28.75 29.375 "
       id="path331"
       sodipodi:nodetypes="cccc"
       transform="translate(90,0)" />
    <rect
       style="font-size:12;fill:#4f89ff;fill-rule:evenodd;stroke-width:1pt;"
       id="rect332"
       width="5.625001"
       height="23.749997"
       x="91.249990"
       y="5.624999" />
    <path
       style="font-size:12;fill:none;fill-rule:evenodd;stroke:#000000;stroke-width:1pt;"
       d="M 21.875 5.625 L 27.5 5.625 L 27.5 29.375 L 21.875 29.375 "
       id="path333"
       sodipodi:nodetypes="cccc"
       transform="translate(69.375,0)" />
    <path
       style="font-size:12;fill:#feff80;fill-rule:evenodd;stroke:#00007f;stroke-width:1.25;stroke-linejoin:round;"
       d="M 5.625 17.5 L 10.625 12.5 L 10.625 15.625 L 14.375 15.625 L 14.375 12.5 L 19.375 17.5 L 14.375 22.5 L 14.375 19.375 L 10.625 19.375 L 10.625 22.5 L 5.625 17.5 z "
       id="path334"
       sodipodi:nodetypes="ccccccccccc"
       transform="translate(92.5,0)" />
  </g>
</svg>
