/* XPM */
static char * join_xpm[] = {
"24 24 4 1",
" 	c #FFFFFF",
".	c None",
"+	c #000000",
"@	c #0000BD",
"........................",
"........................",
"........................",
"...........++...........",
".......+...++...+.......",
".......++..++..++.......",
"...+++++++.++.+++++++...",
"...++++++++++++++++++...",
"...+++++++.++.+++++++...",
".......++..++..++.......",
".......+...++...+.......",
"...........++...........",
"........................",
"..@@@@@@@@....@@@@@@@@..",
"..@@@@@@@@....@@@@@@@@..",
"..@@....@@....@@....@@..",
"++@@....@@....@@....@@++",
"++@@....@@....@@....@@++",
"..@@....@@....@@....@@..",
"..@@@@@@@@....@@@@@@@@..",
"..@@@@@@@@....@@@@@@@@..",
"........................",
"........................",
"........................"};
