/* XPM */
static char *magick[] = {
/* columns rows colors chars-per-pixel */
"24 24 54 1",
"  c Gray0",
". c #250000",
"X c #270000",
"o c #280000",
"O c #2a0000",
"+ c #2b0000",
"@ c #2d0000",
"# c #2e0000",
"$ c #2f0000",
"% c #300000",
"& c #310000",
"* c #330000",
"= c #340000",
"- c #350000",
"; c #360000",
": c #370000",
"> c #380000",
", c #390000",
"< c #3b0000",
"1 c #3c0000",
"2 c #3d0000",
"3 c #3f0000",
"4 c #400000",
"5 c #410000",
"6 c #420000",
"7 c #430000",
"8 c #440000",
"9 c #450000",
"0 c #460000",
"q c #470000",
"w c #480000",
"e c #490000",
"r c #4a0000",
"t c #4b0000",
"y c #4c0000",
"u c #4d0000",
"i c #4e0000",
"p c #4f0000",
"a c #500000",
"s c #510000",
"d c #520000",
"f c #530000",
"g c #540000",
"h c #550000",
"j c #560000",
"k c #580000",
"l c #590000",
"z c #5a0000",
"x c #5b0000",
"c c #5c0000",
"v c #5d0000",
"b c #600000",
"n c Red",
"m c None",
/* pixels */
"mmmmmmmmmmmmmmmmmmmmmmmm",
"mmmmmmmmmmmmmmmmmmmmmmmm",
"mmmmmmmmmmmmmmmmmmmmmmmm",
"mmmmmmmmmmmmmmmmmmmmmmmm",
"mmmm               mmmmm",
"mmmm               mmmmm",
"mmmm  sie851=*#OX  mmmmm",
"mmmm  sie851,=#OX  mmmmm",
"mmmm  sie851,=*#O  mmmmm",
"mmmm  gii881,,*#O  mmmmm",
"mmmm  gsie851,n*#  mmnmm",
"mmmm  gsie851,nn*  mnnmm",
"mmmm  zgsie8nnnnn  nnnnn",
"mmmm  zgsie855nn=  mnnmm",
"mmmm  zzgsie85n1,  mmnmm",
"mmmm  vzgsiie8511  mmmmm",
"mmmm  bvzgsiie855  mmmmm",
"mmmm               mmmmm",
"mmmm               mmmmm",
"mmmmmmmmmmmmmmmmmmmmmmmm",
"mmmmmmmmmmmmmmmmmmmmmmmm",
"mmmmmmmmmmmmmmmmmmmmmmmm",
"mmmmmmmmmmmmmmmmmmmmmmmm",
"mmmmmmmmmmmmmmmmmmmmmmmm"
};
