/* XPM */
static char * toback_xpm[] = {
"25 24 38 1",
" 	c None",
".	c #0C0C0C",
"+	c #080808",
"@	c #3A3A3A",
"#	c #535253",
"$	c #191919",
"%	c #5B5A5B",
"&	c #817F81",
"*	c #848284",
"=	c #949194",
"-	c #2D2C2D",
";	c #111111",
">	c #505050",
",	c #161716",
"'	c #4E4E4E",
")	c #6E6E6E",
"!	c #6A6A6A",
"~	c #656465",
"{	c #363636",
"]	c #FFFFFF",
"^	c #494949",
"/	c #6E6F6E",
"(	c #9C9D9C",
"_	c #8F908F",
":	c #232423",
"<	c #323232",
"[	c #2E2E2E",
"}	c #202020",
"|	c #2F2E2F",
"1	c #0E0E0E",
"2	c #C4C4C4",
"3	c #ACACAC",
"4	c #8B8B8B",
"5	c #0B0B0B",
"6	c #1F1F1F",
"7	c #929292",
"8	c #757575",
"9	c #121212",
"                         ",
"                         ",
"                         ",
"                         ",
"     ...............     ",
"    +@#############$     ",
"    +%&&&&&&&&&&&*=-     ",
"  ;>,'))))))))))!~=-     ",
"  {]^/((((((((((_~=-     ",
"  {]^/((((((((((_~=-     ",
"  {]^/((((((((((_~=-     ",
"  {]^/((((((((((_~=-     ",
"  {]^/((((((((((_~=-     ",
"  {]^/((((((((((_~=-     ",
"  {]^:<<<<<<<<<<[}|1     ",
"  {]23333333333345       ",
"  6777777777777781       ",
"  5555555555555559       ",
"                         ",
"                         ",
"                         ",
"                         ",
"                         ",
"                         "};
