/* XPM */
static char * tofront_xpm[] = {
"25 24 26 1",
" 	c None",
".	c #0C0C0C",
"+	c #080808",
"@	c #666666",
"#	c #8F908F",
"$	c #2C2C2C",
"%	c #B5B5B5",
"&	c #FFFFFF",
"*	c #4E4E4E",
"=	c #0F0F0F",
"-	c #2E2D2E",
";	c #0D0D0D",
">	c #313031",
",	c #949194",
"'	c #2A292A",
")	c #3A3A3A",
"!	c #525252",
"~	c #191919",
"{	c #716F71",
"]	c #636263",
"^	c #434243",
"/	c #1C1B1C",
"(	c #545354",
"_	c #393839",
":	c #0E0E0E",
"<	c #0B0B0B",
"                         ",
"                         ",
"                         ",
"                         ",
"     ...............     ",
"    +@#############$     ",
"    +%&&&&&&&&&&&&&*     ",
"  =-;%&&&&&&&&&&&&&*     ",
"  >,'%&&&&&&&&&&&&&*     ",
"  >,'%&&&&&&&&&&&&&*     ",
"  >,'%&&&&&&&&&&&&&*     ",
"  >,'%&&&&&&&&&&&&&*     ",
"  >,'%&&&&&&&&&&&&&*     ",
"  >,'%&&&&&&&&&&&&&*     ",
"  >,')!!!!!!!!!!!!!~     ",
"  >,{]]]]]]]]]]]^.       ",
"  /(((((((((((((_:       ",
"  <<<<<<<<<<<<<<<        ",
"                         ",
"                         ",
"                         ",
"                         ",
"                         ",
"                         "};
