/* XPM */
static char * zoom_xpm[] = {
"20 20 3 1",
" 	c None",
".	c #000000",
"+	c #565656",
"                    ",
"    .....           ",
"   .     .          ",
"  .       .         ",
" .    .    .        ",
" .    .    .        ",
" .  .....  .        ",
" .    .    .        ",
" .    .    .        ",
"  .       .         ",
"   .     .+..       ",
"    ..... .++.      ",
"          .+++.     ",
"           .+++.    ",
"            .+++.   ",
"             .+++.  ",
"              .++.  ",
"               ..   ",
"                    ",
"                    "};
